G04 Generated by Ultiboard 14.0 *
%FSLAX24Y24*%
%MOIN*%

%ADD11C,0.0595*%
%ADD12C,0.0140*%
%ADD13C,0.0236*%
%ADD14C,0.0400*%
%ADD15C,0.1142*%
%ADD16C,0.0394*%


G04 ColorRGB 000000 for the following layer *
%LNDrill-Copper Top-Copper Bottom*%
%LPD*%
G54D11*
X-22044Y8450D03*
X-21044Y9450D03*
X-23044Y9450D03*
X-21044Y7450D03*
X-23044Y7450D03*
G54D12*
X-18200Y7400D03*
X-18200Y8400D03*
X-20000Y9400D03*
X-19400Y9400D03*
X-18800Y9400D03*
X-18200Y9400D03*
X-17600Y9400D03*
X-17000Y9400D03*
X-16400Y9400D03*
X-20000Y8400D03*
X-19400Y8400D03*
X-18800Y8400D03*
X-17000Y8400D03*
X-17600Y8400D03*
X-16400Y8400D03*
X-20000Y7400D03*
X-19400Y7400D03*
X-18800Y7400D03*
X-16400Y7400D03*
X-17000Y7400D03*
X-17600Y7400D03*
X-24000Y7400D03*
X-24600Y7400D03*
X-25200Y7400D03*
X-25800Y7400D03*
X-26400Y7400D03*
X-27000Y7400D03*
X-27600Y7400D03*
X-24000Y8400D03*
X-24600Y8400D03*
X-24000Y9400D03*
X-24600Y9400D03*
X-25200Y9400D03*
X-27600Y9400D03*
X-27600Y8400D03*
X-25200Y8400D03*
X-25800Y8400D03*
X-26400Y8400D03*
X-27000Y8400D03*
X-27000Y9400D03*
X-26400Y9400D03*
X-25800Y9400D03*
G54D13*
X-25250Y17850D03*
X-25700Y19150D03*
X-21000Y27200D03*
X-21000Y27700D03*
X-24100Y27350D03*
X-19600Y14750D03*
X-22800Y22200D03*
X-18100Y17500D03*
X-21100Y30700D03*
X-20100Y30700D03*
X-17300Y15200D03*
X-17250Y19700D03*
X-26000Y30350D03*
X-27200Y30350D03*
X-27550Y28000D03*
X-27550Y27000D03*
X-22050Y29600D03*
X-23100Y31000D03*
X-24100Y28000D03*
X-17800Y14750D03*
X-18350Y14750D03*
X-21950Y27650D03*
X-22300Y25950D03*
X-21650Y25950D03*
X-17100Y24400D03*
X-18300Y22350D03*
X-18950Y15350D03*
X-16600Y15500D03*
X-23050Y23650D03*
X-27550Y19850D03*
X-20900Y12200D03*
X-21250Y22350D03*
X-19600Y28950D03*
X-23950Y30350D03*
X-23750Y25050D03*
X-18800Y26750D03*
X-19800Y31800D03*
X-18450Y31250D03*
X-26200Y12300D03*
X-22800Y12400D03*
X-16500Y11950D03*
X-17800Y13350D03*
X-21650Y16250D03*
X-19200Y13400D03*
X-17150Y11150D03*
X-21400Y23350D03*
X-20900Y14150D03*
X-19500Y25700D03*
X-18100Y15650D03*
X-20450Y24450D03*
X-19400Y27350D03*
X-16800Y27350D03*
X-19400Y27900D03*
X-18300Y28800D03*
X-21000Y26700D03*
X-20150Y28950D03*
X-17200Y25300D03*
X-18850Y17000D03*
X-19500Y26300D03*
X-22650Y27450D03*
X-26750Y19850D03*
X-21850Y22600D03*
X-19200Y20950D03*
X-16800Y26800D03*
X-21400Y18800D03*
X-21650Y15700D03*
X-17100Y26200D03*
G54D14*
X-24668Y11150D03*
X-19418Y11150D03*
G54D15*
X-22043Y24000D03*
G54D16*
X-25437Y27000D03*
X-25437Y26000D03*
X-25437Y25000D03*
X-25437Y24000D03*
X-25437Y23000D03*
X-24650Y26500D03*
X-24650Y25500D03*
X-24650Y24500D03*
X-24650Y23500D03*

M02*
