G04 Generated by Ultiboard 14.0 *
%FSLAX24Y24*%
%MOIN*%

%ADD10C,0.0001*%
%ADD11C,0.0001*%
%ADD12C,0.0100*%
%ADD13C,0.0450*%
%ADD14C,0.0120*%
%ADD15C,0.0300*%
%ADD16C,0.0735*%
%ADD17C,0.0250*%
%ADD18R,0.3937X0.2480*%
%ADD19C,0.0394*%
%ADD20C,0.0800*%
%ADD21C,0.0534*%


G04 ColorRGB FF6600 for the following layer *
%LNCopper Bottom*%
%LPD*%
G54D10*
G36*
X-22225Y8881D02*
G75*
D01*
G03X-21863Y8881I181J-430*
G01*
X-21863Y8881D01*
X-21863Y10000D01*
X-15825Y10000D01*
X-15825Y7283D01*
X-15825Y7282D01*
G74*
D01*
G02X-16137Y6970I313J1*
G01*
X-16138Y6970D01*
X-16138Y6970D01*
X-27949Y6970D01*
G75*
D01*
G03X-27951Y6970I-1J-80*
G01*
G74*
D01*
G02X-28262Y7282I2J313*
G01*
X-28262Y7283D01*
X-28262Y7283D01*
X-28262Y10000D01*
X-22225Y10000D01*
X-22225Y8881D01*
D02*
G37*
%LPC*%
G36*
X-23511Y7450D02*
G75*
D01*
G03X-23511Y7450I467J0*
G01*
D02*
G37*
G36*
X-21511Y7450D02*
G75*
D01*
G03X-21511Y7450I467J0*
G01*
D02*
G37*
G36*
X-23511Y9450D02*
G75*
D01*
G03X-23511Y9450I467J0*
G01*
D02*
G37*
G36*
X-21511Y9450D02*
G75*
D01*
G03X-21511Y9450I467J0*
G01*
D02*
G37*
%LPD*%
G54D11*
X-23511Y7450D02*
G75*
D01*
G03X-23511Y7450I467J0*
G01*
X-21511Y7450D02*
G75*
D01*
G03X-21511Y7450I467J0*
G01*
X-23511Y9450D02*
G75*
D01*
G03X-23511Y9450I467J0*
G01*
X-21511Y9450D02*
G75*
D01*
G03X-21511Y9450I467J0*
G01*
X-22225Y8881D02*
G75*
D01*
G03X-21863Y8881I181J-430*
G01*
X-21863Y10000D01*
X-15825Y10000D01*
X-15825Y7283D01*
X-15825Y7282D01*
G74*
D01*
G02X-16137Y6970I313J1*
G01*
X-16138Y6970D01*
X-27949Y6970D01*
G75*
D01*
G03X-27951Y6970I-1J-80*
G01*
G74*
D01*
G02X-28262Y7282I2J313*
G01*
X-28262Y7283D01*
X-28262Y10000D01*
X-22225Y10000D01*
X-22225Y8881D01*
G54D12*
X-21450Y26700D02*
X-21750Y27000D01*
X-21450Y26700D02*
X-21000Y26700D01*
X-25437Y27000D02*
X-21750Y27000D01*
X-18850Y17000D02*
X-18850Y25650D01*
X-19500Y26300D01*
X-22650Y27450D02*
X-22650Y27800D01*
X-23300Y28450D01*
X-26750Y27350D02*
X-25650Y28450D01*
X-23300Y28450D02*
X-25650Y28450D01*
X-26750Y19850D02*
X-26750Y27350D01*
X-19500Y25700D02*
X-20500Y25700D01*
X-21200Y25000D01*
X-22300Y25000D01*
X-25700Y21600D01*
X-25700Y19150D02*
X-25700Y21600D01*
X-20900Y22850D02*
X-21400Y23350D01*
X-21850Y22600D02*
X-23850Y22600D01*
X-25250Y21200D01*
X-25250Y17850D02*
X-25250Y21200D01*
X-20150Y27550D02*
X-20150Y28950D01*
X-17200Y25300D02*
X-17900Y25300D01*
X-20150Y27550D01*
X-22700Y25500D02*
X-21500Y25500D01*
X-23700Y24500D02*
X-22700Y25500D01*
X-21500Y25500D02*
X-20600Y26400D01*
X-24650Y24500D02*
X-23700Y24500D01*
X-20600Y26400D02*
X-20600Y26800D01*
X-21000Y27200D01*
X-22550Y25250D02*
X-21350Y25250D01*
X-20300Y26300D01*
X-24300Y23500D02*
X-22550Y25250D01*
X-20300Y26300D02*
X-20300Y27000D01*
X-24650Y23500D02*
X-24300Y23500D01*
X-20300Y27000D02*
X-21000Y27700D01*
X-19250Y15700D02*
X-18150Y15700D01*
X-18100Y15650D01*
X-19400Y27350D02*
X-16800Y27350D01*
X-19400Y27900D02*
X-19400Y28350D01*
X-18950Y28800D01*
X-18300Y28800D01*
X-17150Y11150D02*
X-17700Y11150D01*
X-19200Y12650D01*
X-19200Y13400D01*
X-26200Y27271D02*
X-26200Y23763D01*
X-25437Y23000D01*
X-20500Y16950D02*
X-20500Y24400D01*
X-20450Y24450D01*
X-20500Y16950D02*
X-19250Y15700D01*
X-20900Y14150D02*
X-20900Y22850D01*
X-22044Y21444D02*
X-22800Y22200D01*
X-18100Y16900D02*
X-18100Y17500D01*
X-17750Y16550D02*
X-18100Y16900D01*
X-19600Y14750D02*
X-18950Y14750D01*
X-18500Y15200D01*
X-17950Y15200D02*
X-17750Y15400D01*
X-17750Y16550D01*
X-18500Y15200D02*
X-17950Y15200D01*
X-24100Y27350D02*
X-24400Y27650D01*
X-25821Y27650D01*
X-26200Y27271D02*
X-25821Y27650D01*
G54D13*
X-21100Y30700D02*
X-16700Y30700D01*
X-16700Y30700D02*
X-16200Y30200D01*
X-16200Y22350D01*
X-16200Y22350D02*
X-17295Y21255D01*
X-17295Y15205D01*
G54D14*
X-22044Y8450D02*
X-22044Y21444D01*
G54D15*
X-19950Y12250D02*
X-19950Y14400D01*
X-19418Y11718D02*
X-19950Y12250D01*
X-19418Y11542D02*
X-19418Y11718D01*
X-19418Y11150D02*
X-19418Y11542D01*
X-19950Y14400D02*
X-19600Y14750D01*
G54D16*
X-22044Y8450D03*
X-21044Y9450D03*
X-23044Y9450D03*
X-21044Y7450D03*
X-23044Y7450D03*
G54D17*
X-18200Y7400D03*
X-18200Y8400D03*
X-20000Y9400D03*
X-19400Y9400D03*
X-18800Y9400D03*
X-18200Y9400D03*
X-17600Y9400D03*
X-17000Y9400D03*
X-16400Y9400D03*
X-20000Y8400D03*
X-19400Y8400D03*
X-18800Y8400D03*
X-17000Y8400D03*
X-17600Y8400D03*
X-16400Y8400D03*
X-20000Y7400D03*
X-19400Y7400D03*
X-18800Y7400D03*
X-16400Y7400D03*
X-17000Y7400D03*
X-17600Y7400D03*
X-24000Y7400D03*
X-24600Y7400D03*
X-25200Y7400D03*
X-25800Y7400D03*
X-26400Y7400D03*
X-27000Y7400D03*
X-27600Y7400D03*
X-24000Y8400D03*
X-24600Y8400D03*
X-24000Y9400D03*
X-24600Y9400D03*
X-25200Y9400D03*
X-27600Y9400D03*
X-27600Y8400D03*
X-25200Y8400D03*
X-25800Y8400D03*
X-26400Y8400D03*
X-27000Y8400D03*
X-27000Y9400D03*
X-26400Y9400D03*
X-25800Y9400D03*
G54D18*
X-25800Y8400D03*
X-18200Y8400D03*
G54D19*
X-25250Y17850D03*
X-25700Y19150D03*
X-21000Y27200D03*
X-21000Y27700D03*
X-24100Y27350D03*
X-19600Y14750D03*
X-22800Y22200D03*
X-18100Y17500D03*
X-21100Y30700D03*
X-20100Y30700D03*
X-17300Y15200D03*
X-17250Y19700D03*
X-26000Y30350D03*
X-27200Y30350D03*
X-27550Y28000D03*
X-27550Y27000D03*
X-22050Y29600D03*
X-23100Y31000D03*
X-24100Y28000D03*
X-17800Y14750D03*
X-18350Y14750D03*
X-21950Y27650D03*
X-22300Y25950D03*
X-21650Y25950D03*
X-17100Y24400D03*
X-18300Y22350D03*
X-18950Y15350D03*
X-16600Y15500D03*
X-23050Y23650D03*
X-27550Y19850D03*
X-20900Y12200D03*
X-21250Y22350D03*
X-19600Y28950D03*
X-23950Y30350D03*
X-23750Y25050D03*
X-18800Y26750D03*
X-19800Y31800D03*
X-18450Y31250D03*
X-26200Y12300D03*
X-22800Y12400D03*
X-16500Y11950D03*
X-17800Y13350D03*
X-21650Y16250D03*
X-19200Y13400D03*
X-17150Y11150D03*
X-21400Y23350D03*
X-20900Y14150D03*
X-19500Y25700D03*
X-18100Y15650D03*
X-20450Y24450D03*
X-19400Y27350D03*
X-16800Y27350D03*
X-19400Y27900D03*
X-18300Y28800D03*
X-21000Y26700D03*
X-20150Y28950D03*
X-17200Y25300D03*
X-18850Y17000D03*
X-19500Y26300D03*
X-22650Y27450D03*
X-26750Y19850D03*
X-21850Y22600D03*
X-19200Y20950D03*
X-16800Y26800D03*
X-21400Y18800D03*
X-21650Y15700D03*
X-17100Y26200D03*
G54D20*
X-24668Y11150D03*
X-19418Y11150D03*
G54D21*
X-25437Y27000D03*
X-25437Y26000D03*
X-25437Y25000D03*
X-25437Y24000D03*
X-25437Y23000D03*
X-24650Y26500D03*
X-24650Y25500D03*
X-24650Y24500D03*
X-24650Y23500D03*

M02*
