G04 Generated by Ultiboard 14.0 *
%FSLAX24Y24*%
%MOIN*%

%ADD10C,0.0001*%
%ADD11C,0.0039*%
%ADD12C,0.0004*%
%ADD13C,0.0001*%


G04 ColorRGB 000000 for the following layer *
%LNDrill Symbols-Copper Top-Copper Bottom*%
%LPD*%
G54D11*
X-22341Y8450D02*
X-21746Y8450D01*
X-22044Y8153D02*
X-22044Y8747D01*
X-21341Y9450D02*
X-20746Y9450D01*
X-21044Y9153D02*
X-21044Y9747D01*
X-23341Y9450D02*
X-22746Y9450D01*
X-23044Y9153D02*
X-23044Y9747D01*
X-21044Y7153D02*
X-21044Y7747D01*
X-21341Y7450D02*
X-20746Y7450D01*
X-23341Y7450D02*
X-22746Y7450D01*
X-23044Y7153D02*
X-23044Y7747D01*
X-24868Y10950D02*
X-24468Y10950D01*
X-24468Y11350D01*
X-24868Y11350D01*
X-24868Y10950D01*
X-19618Y10950D02*
X-19218Y10950D01*
X-19218Y11350D01*
X-19618Y11350D01*
X-19618Y10950D01*
X-22043Y23193D02*
X-21236Y24000D01*
X-22043Y24807D01*
X-22851Y24000D01*
X-22043Y23193D01*
X-25634Y26803D02*
X-25241Y26803D01*
X-25437Y27139D01*
X-25634Y26803D01*
X-25634Y25803D02*
X-25241Y25803D01*
X-25437Y26139D01*
X-25634Y25803D01*
X-25634Y24803D02*
X-25241Y24803D01*
X-25437Y25139D01*
X-25634Y24803D01*
X-25634Y23803D02*
X-25241Y23803D01*
X-25437Y24139D01*
X-25634Y23803D01*
X-25634Y22803D02*
X-25241Y22803D01*
X-25437Y23139D01*
X-25634Y22803D01*
X-24847Y26303D02*
X-24453Y26303D01*
X-24650Y26639D01*
X-24847Y26303D01*
X-24847Y25303D02*
X-24453Y25303D01*
X-24650Y25639D01*
X-24847Y25303D01*
X-24847Y24303D02*
X-24453Y24303D01*
X-24650Y24639D01*
X-24847Y24303D01*
X-24847Y23303D02*
X-24453Y23303D01*
X-24650Y23639D01*
X-24847Y23303D01*
X-3789Y14631D02*
X-2982Y15438D01*
X-3789Y16245D01*
X-4596Y15438D01*
X-3789Y14631D01*
X450Y15775D02*
X712Y15944D01*
X712Y15100D01*
X319Y15100D02*
X1106Y15100D01*
X1631Y15775D02*
X1893Y15944D01*
X1893Y15100D01*
X1500Y15100D02*
X2287Y15100D01*
X3468Y15438D02*
X2681Y15438D01*
X3337Y15944D01*
X3337Y15100D01*
X3206Y15100D02*
X3468Y15100D01*
X4256Y15100D02*
X4256Y15185D01*
X5174Y15775D02*
X5437Y15944D01*
X5437Y15100D01*
X5043Y15100D02*
X5830Y15100D01*
X6618Y15100D02*
X6618Y15522D01*
X7011Y15775D01*
X7011Y15944D01*
X6224Y15944D01*
X6224Y15775D01*
X7536Y15860D02*
X7668Y15944D01*
X7930Y15944D01*
X8193Y15775D01*
X8193Y15607D01*
X8061Y15522D01*
X8193Y15438D01*
X8193Y15269D01*
X7930Y15100D01*
X7668Y15100D01*
X7536Y15185D01*
X7668Y15522D02*
X8061Y15522D01*
X8586Y15775D02*
X8849Y15944D01*
X9111Y15944D01*
X9374Y15775D01*
X9374Y15691D01*
X8586Y15100D01*
X9374Y15100D01*
X9374Y15185D01*
X14466Y15775D02*
X14728Y15944D01*
X14728Y15100D01*
X14334Y15100D02*
X15122Y15100D01*
X21263Y15100D02*
X21263Y15944D01*
X22051Y15100D01*
X22051Y15944D01*
X22445Y15100D02*
X22445Y15944D01*
X22969Y15944D01*
X23232Y15775D01*
X23232Y15691D01*
X22969Y15522D01*
X22445Y15522D01*
X24019Y15100D02*
X24019Y15944D01*
X23626Y15944D02*
X24413Y15944D01*
X24807Y15100D02*
X24807Y15944D01*
X25594Y15100D02*
X25594Y15944D01*
X24807Y15522D02*
X25594Y15522D01*
X28783Y15775D02*
X29046Y15944D01*
X29308Y15944D01*
X29571Y15775D01*
X29571Y15269D01*
X29308Y15100D01*
X29046Y15100D01*
X28783Y15269D01*
X28783Y15775D01*
X29571Y15775D02*
X28783Y15269D01*
X31802Y15100D02*
X31670Y15100D01*
X31408Y15269D01*
X31408Y15775D01*
X31670Y15944D01*
X31802Y15944D01*
X32326Y15100D02*
X32326Y15944D01*
X32851Y15944D01*
X33114Y15775D01*
X33114Y15691D01*
X32851Y15522D01*
X32326Y15522D01*
X32458Y15522D02*
X33114Y15100D01*
X33508Y15269D02*
X33770Y15100D01*
X34032Y15100D01*
X34295Y15269D01*
X34295Y15775D01*
X34032Y15944D01*
X33770Y15944D01*
X33508Y15775D01*
X33508Y15269D01*
X34689Y15944D02*
X34689Y15269D01*
X34951Y15100D01*
X35214Y15100D01*
X35476Y15269D01*
X35476Y15944D01*
X35870Y15100D02*
X35870Y15944D01*
X36657Y15100D01*
X36657Y15944D01*
X37051Y15100D02*
X37576Y15100D01*
X37838Y15269D01*
X37838Y15775D01*
X37576Y15944D01*
X37051Y15944D01*
X37182Y15944D02*
X37182Y15100D01*
X38363Y15944D02*
X38494Y15944D01*
X38757Y15775D01*
X38757Y15269D01*
X38494Y15100D01*
X38363Y15100D01*
X-3789Y17188D02*
X-3789Y17783D01*
X-4086Y17486D02*
X-3492Y17486D01*
X1697Y17992D02*
X909Y17992D01*
X909Y17654D01*
X1434Y17654D01*
X1697Y17486D01*
X1697Y17317D01*
X1434Y17148D01*
X909Y17148D01*
X2090Y17317D02*
X2353Y17148D01*
X2615Y17148D01*
X2878Y17317D01*
X2878Y17654D01*
X2878Y17823D01*
X2615Y17992D01*
X2353Y17992D01*
X2090Y17823D01*
X2090Y17654D01*
X2353Y17486D01*
X2615Y17486D01*
X2878Y17654D01*
X3665Y17148D02*
X3665Y17232D01*
X5240Y17486D02*
X4452Y17486D01*
X5109Y17992D01*
X5109Y17148D01*
X4977Y17148D02*
X5240Y17148D01*
X6158Y17148D02*
X5896Y17148D01*
X5634Y17317D01*
X5634Y17486D01*
X5765Y17570D01*
X5634Y17654D01*
X5634Y17823D01*
X5896Y17992D01*
X6158Y17992D01*
X6421Y17823D01*
X6421Y17654D01*
X6290Y17570D01*
X6421Y17486D01*
X6421Y17317D01*
X6158Y17148D01*
X5765Y17570D02*
X6290Y17570D01*
X7340Y17148D02*
X7077Y17148D01*
X6815Y17317D01*
X6815Y17486D01*
X6946Y17570D01*
X6815Y17654D01*
X6815Y17823D01*
X7077Y17992D01*
X7340Y17992D01*
X7602Y17823D01*
X7602Y17654D01*
X7471Y17570D01*
X7602Y17486D01*
X7602Y17317D01*
X7340Y17148D01*
X6946Y17570D02*
X7471Y17570D01*
X7996Y17823D02*
X8258Y17992D01*
X8521Y17992D01*
X8783Y17823D01*
X8783Y17739D01*
X7996Y17148D01*
X8783Y17148D01*
X8783Y17232D01*
X15122Y17992D02*
X14334Y17992D01*
X14334Y17654D01*
X14859Y17654D01*
X15122Y17486D01*
X15122Y17317D01*
X14859Y17148D01*
X14334Y17148D01*
X21854Y17148D02*
X21854Y17992D01*
X22379Y17992D01*
X22641Y17823D01*
X22641Y17739D01*
X22379Y17570D01*
X21854Y17570D01*
X23429Y17148D02*
X23429Y17992D01*
X23035Y17992D02*
X23823Y17992D01*
X24216Y17148D02*
X24216Y17992D01*
X25004Y17148D02*
X25004Y17992D01*
X24216Y17570D02*
X25004Y17570D01*
X28783Y17823D02*
X29046Y17992D01*
X29308Y17992D01*
X29571Y17823D01*
X29571Y17317D01*
X29308Y17148D01*
X29046Y17148D01*
X28783Y17317D01*
X28783Y17823D01*
X29571Y17823D02*
X28783Y17317D01*
X31802Y17148D02*
X31670Y17148D01*
X31408Y17317D01*
X31408Y17823D01*
X31670Y17992D01*
X31802Y17992D01*
X32326Y17148D02*
X32326Y17992D01*
X32851Y17992D01*
X33114Y17823D01*
X33114Y17739D01*
X32851Y17570D01*
X32326Y17570D01*
X32458Y17570D02*
X33114Y17148D01*
X33508Y17317D02*
X33770Y17148D01*
X34032Y17148D01*
X34295Y17317D01*
X34295Y17823D01*
X34032Y17992D01*
X33770Y17992D01*
X33508Y17823D01*
X33508Y17317D01*
X34689Y17992D02*
X34689Y17317D01*
X34951Y17148D01*
X35214Y17148D01*
X35476Y17317D01*
X35476Y17992D01*
X35870Y17148D02*
X35870Y17992D01*
X36657Y17148D01*
X36657Y17992D01*
X37051Y17148D02*
X37576Y17148D01*
X37838Y17317D01*
X37838Y17823D01*
X37576Y17992D01*
X37051Y17992D01*
X37182Y17992D02*
X37182Y17148D01*
X38363Y17992D02*
X38494Y17992D01*
X38757Y17823D01*
X38757Y17317D01*
X38494Y17148D01*
X38363Y17148D01*
X-3989Y19333D02*
X-3589Y19333D01*
X-3589Y19733D01*
X-3989Y19733D01*
X-3989Y19333D01*
X1697Y19533D02*
X909Y19533D01*
X1565Y20039D01*
X1565Y19196D01*
X1434Y19196D02*
X1697Y19196D01*
X2090Y19871D02*
X2353Y20039D01*
X2615Y20039D01*
X2878Y19871D01*
X2878Y19365D01*
X2615Y19196D01*
X2353Y19196D01*
X2090Y19365D01*
X2090Y19871D01*
X2878Y19871D02*
X2090Y19365D01*
X3665Y19196D02*
X3665Y19280D01*
X4452Y19871D02*
X4715Y20039D01*
X4977Y20039D01*
X5240Y19871D01*
X5240Y19365D01*
X4977Y19196D01*
X4715Y19196D01*
X4452Y19365D01*
X4452Y19871D01*
X5240Y19871D02*
X4452Y19365D01*
X5634Y19871D02*
X5896Y20039D01*
X6158Y20039D01*
X6421Y19871D01*
X6421Y19365D01*
X6158Y19196D01*
X5896Y19196D01*
X5634Y19365D01*
X5634Y19871D01*
X6421Y19871D02*
X5634Y19365D01*
X6815Y19871D02*
X7077Y20039D01*
X7340Y20039D01*
X7602Y19871D01*
X7602Y19365D01*
X7340Y19196D01*
X7077Y19196D01*
X6815Y19365D01*
X6815Y19871D01*
X7602Y19871D02*
X6815Y19365D01*
X7996Y19871D02*
X8258Y20039D01*
X8521Y20039D01*
X8783Y19871D01*
X8783Y19365D01*
X8521Y19196D01*
X8258Y19196D01*
X7996Y19365D01*
X7996Y19871D01*
X8783Y19871D02*
X7996Y19365D01*
X14334Y19871D02*
X14597Y20039D01*
X14859Y20039D01*
X15122Y19871D01*
X15122Y19786D01*
X14334Y19196D01*
X15122Y19196D01*
X15122Y19280D01*
X21854Y19196D02*
X21854Y20039D01*
X22379Y20039D01*
X22641Y19871D01*
X22641Y19786D01*
X22379Y19618D01*
X21854Y19618D01*
X23429Y19196D02*
X23429Y20039D01*
X23035Y20039D02*
X23823Y20039D01*
X24216Y19196D02*
X24216Y20039D01*
X25004Y19196D02*
X25004Y20039D01*
X24216Y19618D02*
X25004Y19618D01*
X28783Y19871D02*
X29046Y20039D01*
X29308Y20039D01*
X29571Y19871D01*
X29571Y19365D01*
X29308Y19196D01*
X29046Y19196D01*
X28783Y19365D01*
X28783Y19871D01*
X29571Y19871D02*
X28783Y19365D01*
X31802Y19196D02*
X31670Y19196D01*
X31408Y19365D01*
X31408Y19871D01*
X31670Y20039D01*
X31802Y20039D01*
X32326Y19196D02*
X32326Y20039D01*
X32851Y20039D01*
X33114Y19871D01*
X33114Y19786D01*
X32851Y19618D01*
X32326Y19618D01*
X32458Y19618D02*
X33114Y19196D01*
X33508Y19365D02*
X33770Y19196D01*
X34032Y19196D01*
X34295Y19365D01*
X34295Y19871D01*
X34032Y20039D01*
X33770Y20039D01*
X33508Y19871D01*
X33508Y19365D01*
X34689Y20039D02*
X34689Y19365D01*
X34951Y19196D01*
X35214Y19196D01*
X35476Y19365D01*
X35476Y20039D01*
X35870Y19196D02*
X35870Y20039D01*
X36657Y19196D01*
X36657Y20039D01*
X37051Y19196D02*
X37576Y19196D01*
X37838Y19365D01*
X37838Y19871D01*
X37576Y20039D01*
X37051Y20039D01*
X37182Y20039D02*
X37182Y19196D01*
X38363Y20039D02*
X38494Y20039D01*
X38757Y19871D01*
X38757Y19365D01*
X38494Y19196D01*
X38363Y19196D01*
X1040Y22003D02*
X1172Y22087D01*
X1434Y22087D01*
X1697Y21918D01*
X1697Y21750D01*
X1565Y21665D01*
X1697Y21581D01*
X1697Y21412D01*
X1434Y21244D01*
X1172Y21244D01*
X1040Y21328D01*
X1172Y21665D02*
X1565Y21665D01*
X2090Y21412D02*
X2353Y21244D01*
X2615Y21244D01*
X2878Y21412D01*
X2878Y21750D01*
X2878Y21918D01*
X2615Y22087D01*
X2353Y22087D01*
X2090Y21918D01*
X2090Y21750D01*
X2353Y21581D01*
X2615Y21581D01*
X2878Y21750D01*
X3665Y21244D02*
X3665Y21328D01*
X4584Y22003D02*
X4715Y22087D01*
X4977Y22087D01*
X5240Y21918D01*
X5240Y21750D01*
X5109Y21665D01*
X5240Y21581D01*
X5240Y21412D01*
X4977Y21244D01*
X4715Y21244D01*
X4584Y21328D01*
X4715Y21665D02*
X5109Y21665D01*
X6027Y21244D02*
X6027Y21665D01*
X6421Y21918D01*
X6421Y22087D01*
X5634Y22087D01*
X5634Y21918D01*
X6815Y21918D02*
X7077Y22087D01*
X7340Y22087D01*
X7602Y21918D01*
X7602Y21412D01*
X7340Y21244D01*
X7077Y21244D01*
X6815Y21412D01*
X6815Y21918D01*
X7602Y21918D02*
X6815Y21412D01*
X8127Y21918D02*
X8389Y22087D01*
X8389Y21244D01*
X7996Y21244D02*
X8783Y21244D01*
X14334Y21412D02*
X14597Y21244D01*
X14859Y21244D01*
X15122Y21412D01*
X15122Y21750D01*
X15122Y21918D01*
X14859Y22087D01*
X14597Y22087D01*
X14334Y21918D01*
X14334Y21750D01*
X14597Y21581D01*
X14859Y21581D01*
X15122Y21750D01*
X21854Y21244D02*
X21854Y22087D01*
X22379Y22087D01*
X22641Y21918D01*
X22641Y21834D01*
X22379Y21665D01*
X21854Y21665D01*
X23429Y21244D02*
X23429Y22087D01*
X23035Y22087D02*
X23823Y22087D01*
X24216Y21244D02*
X24216Y22087D01*
X25004Y21244D02*
X25004Y22087D01*
X24216Y21665D02*
X25004Y21665D01*
X28783Y21918D02*
X29046Y22087D01*
X29308Y22087D01*
X29571Y21918D01*
X29571Y21412D01*
X29308Y21244D01*
X29046Y21244D01*
X28783Y21412D01*
X28783Y21918D01*
X29571Y21918D02*
X28783Y21412D01*
X31802Y21244D02*
X31670Y21244D01*
X31408Y21412D01*
X31408Y21918D01*
X31670Y22087D01*
X31802Y22087D01*
X32326Y21244D02*
X32326Y22087D01*
X32851Y22087D01*
X33114Y21918D01*
X33114Y21834D01*
X32851Y21665D01*
X32326Y21665D01*
X32458Y21665D02*
X33114Y21244D01*
X33508Y21412D02*
X33770Y21244D01*
X34032Y21244D01*
X34295Y21412D01*
X34295Y21918D01*
X34032Y22087D01*
X33770Y22087D01*
X33508Y21918D01*
X33508Y21412D01*
X34689Y22087D02*
X34689Y21412D01*
X34951Y21244D01*
X35214Y21244D01*
X35476Y21412D01*
X35476Y22087D01*
X35870Y21244D02*
X35870Y22087D01*
X36657Y21244D01*
X36657Y22087D01*
X37051Y21244D02*
X37576Y21244D01*
X37838Y21412D01*
X37838Y21918D01*
X37576Y22087D01*
X37051Y22087D01*
X37182Y22087D02*
X37182Y21244D01*
X38363Y22087D02*
X38494Y22087D01*
X38757Y21918D01*
X38757Y21412D01*
X38494Y21244D01*
X38363Y21244D01*
X-3986Y21384D02*
X-3592Y21384D01*
X-3789Y21720D01*
X-3986Y21384D01*
X909Y23966D02*
X1172Y24135D01*
X1434Y24135D01*
X1697Y23966D01*
X1697Y23882D01*
X909Y23291D01*
X1697Y23291D01*
X1697Y23376D01*
X2221Y24051D02*
X2353Y24135D01*
X2615Y24135D01*
X2878Y23966D01*
X2878Y23797D01*
X2746Y23713D01*
X2878Y23629D01*
X2878Y23460D01*
X2615Y23291D01*
X2353Y23291D01*
X2221Y23376D01*
X2353Y23713D02*
X2746Y23713D01*
X3665Y23291D02*
X3665Y23376D01*
X5109Y24135D02*
X4715Y24135D01*
X4452Y23966D01*
X4452Y23629D01*
X4452Y23460D01*
X4715Y23291D01*
X4977Y23291D01*
X5240Y23460D01*
X5240Y23629D01*
X4977Y23797D01*
X4715Y23797D01*
X4452Y23629D01*
X5634Y23966D02*
X5896Y24135D01*
X6158Y24135D01*
X6421Y23966D01*
X6421Y23882D01*
X5634Y23291D01*
X6421Y23291D01*
X6421Y23376D01*
X6815Y23966D02*
X7077Y24135D01*
X7340Y24135D01*
X7602Y23966D01*
X7602Y23882D01*
X6815Y23291D01*
X7602Y23291D01*
X7602Y23376D01*
X7996Y23966D02*
X8258Y24135D01*
X8521Y24135D01*
X8783Y23966D01*
X8783Y23460D01*
X8521Y23291D01*
X8258Y23291D01*
X7996Y23460D01*
X7996Y23966D01*
X8783Y23966D02*
X7996Y23460D01*
X14400Y24135D02*
X14006Y24135D01*
X13744Y23966D01*
X13744Y23629D01*
X13744Y23460D01*
X14006Y23291D01*
X14269Y23291D01*
X14531Y23460D01*
X14531Y23629D01*
X14269Y23797D01*
X14006Y23797D01*
X13744Y23629D01*
X15319Y23291D02*
X15319Y23713D01*
X15712Y23966D01*
X15712Y24135D01*
X14925Y24135D01*
X14925Y23966D01*
X21854Y23291D02*
X21854Y24135D01*
X22379Y24135D01*
X22641Y23966D01*
X22641Y23882D01*
X22379Y23713D01*
X21854Y23713D01*
X23429Y23291D02*
X23429Y24135D01*
X23035Y24135D02*
X23823Y24135D01*
X24216Y23291D02*
X24216Y24135D01*
X25004Y23291D02*
X25004Y24135D01*
X24216Y23713D02*
X25004Y23713D01*
X28783Y23966D02*
X29046Y24135D01*
X29308Y24135D01*
X29571Y23966D01*
X29571Y23460D01*
X29308Y23291D01*
X29046Y23291D01*
X28783Y23460D01*
X28783Y23966D01*
X29571Y23966D02*
X28783Y23460D01*
X31802Y23291D02*
X31670Y23291D01*
X31408Y23460D01*
X31408Y23966D01*
X31670Y24135D01*
X31802Y24135D01*
X32326Y23291D02*
X32326Y24135D01*
X32851Y24135D01*
X33114Y23966D01*
X33114Y23882D01*
X32851Y23713D01*
X32326Y23713D01*
X32458Y23713D02*
X33114Y23291D01*
X33508Y23460D02*
X33770Y23291D01*
X34032Y23291D01*
X34295Y23460D01*
X34295Y23966D01*
X34032Y24135D01*
X33770Y24135D01*
X33508Y23966D01*
X33508Y23460D01*
X34689Y24135D02*
X34689Y23460D01*
X34951Y23291D01*
X35214Y23291D01*
X35476Y23460D01*
X35476Y24135D01*
X35870Y23291D02*
X35870Y24135D01*
X36657Y23291D01*
X36657Y24135D01*
X37051Y23291D02*
X37576Y23291D01*
X37838Y23460D01*
X37838Y23966D01*
X37576Y24135D01*
X37051Y24135D01*
X37182Y24135D02*
X37182Y23291D01*
X38363Y24135D02*
X38494Y24135D01*
X38757Y23966D01*
X38757Y23460D01*
X38494Y23291D01*
X38363Y23291D01*
X1040Y26014D02*
X1303Y26183D01*
X1303Y25339D01*
X909Y25339D02*
X1697Y25339D01*
X2878Y25676D02*
X2090Y25676D01*
X2746Y26183D01*
X2746Y25339D01*
X2615Y25339D02*
X2878Y25339D01*
X3665Y25339D02*
X3665Y25423D01*
X4452Y26014D02*
X4715Y26183D01*
X4977Y26183D01*
X5240Y26014D01*
X5240Y25508D01*
X4977Y25339D01*
X4715Y25339D01*
X4452Y25508D01*
X4452Y26014D01*
X5240Y26014D02*
X4452Y25508D01*
X5634Y26014D02*
X5896Y26183D01*
X6158Y26183D01*
X6421Y26014D01*
X6421Y25508D01*
X6158Y25339D01*
X5896Y25339D01*
X5634Y25508D01*
X5634Y26014D01*
X6421Y26014D02*
X5634Y25508D01*
X6815Y26014D02*
X7077Y26183D01*
X7340Y26183D01*
X7602Y26014D01*
X7602Y25508D01*
X7340Y25339D01*
X7077Y25339D01*
X6815Y25508D01*
X6815Y26014D01*
X7602Y26014D02*
X6815Y25508D01*
X7996Y26014D02*
X8258Y26183D01*
X8521Y26183D01*
X8783Y26014D01*
X8783Y25508D01*
X8521Y25339D01*
X8258Y25339D01*
X7996Y25508D01*
X7996Y26014D01*
X8783Y26014D02*
X7996Y25508D01*
X14531Y25676D02*
X13744Y25676D01*
X14400Y26183D01*
X14400Y25339D01*
X14269Y25339D02*
X14531Y25339D01*
X14925Y26014D02*
X15187Y26183D01*
X15450Y26183D01*
X15712Y26014D01*
X15712Y25930D01*
X14925Y25339D01*
X15712Y25339D01*
X15712Y25423D01*
X21854Y25339D02*
X21854Y26183D01*
X22379Y26183D01*
X22641Y26014D01*
X22641Y25930D01*
X22379Y25761D01*
X21854Y25761D01*
X23429Y25339D02*
X23429Y26183D01*
X23035Y26183D02*
X23823Y26183D01*
X24216Y25339D02*
X24216Y26183D01*
X25004Y25339D02*
X25004Y26183D01*
X24216Y25761D02*
X25004Y25761D01*
X28783Y26014D02*
X29046Y26183D01*
X29308Y26183D01*
X29571Y26014D01*
X29571Y25508D01*
X29308Y25339D01*
X29046Y25339D01*
X28783Y25508D01*
X28783Y26014D01*
X29571Y26014D02*
X28783Y25508D01*
X31802Y25339D02*
X31670Y25339D01*
X31408Y25508D01*
X31408Y26014D01*
X31670Y26183D01*
X31802Y26183D01*
X32326Y25339D02*
X32326Y26183D01*
X32851Y26183D01*
X33114Y26014D01*
X33114Y25930D01*
X32851Y25761D01*
X32326Y25761D01*
X32458Y25761D02*
X33114Y25339D01*
X33508Y25508D02*
X33770Y25339D01*
X34032Y25339D01*
X34295Y25508D01*
X34295Y26014D01*
X34032Y26183D01*
X33770Y26183D01*
X33508Y26014D01*
X33508Y25508D01*
X34689Y26183D02*
X34689Y25508D01*
X34951Y25339D01*
X35214Y25339D01*
X35476Y25508D01*
X35476Y26183D01*
X35870Y25339D02*
X35870Y26183D01*
X36657Y25339D01*
X36657Y26183D01*
X37051Y25339D02*
X37576Y25339D01*
X37838Y25508D01*
X37838Y26014D01*
X37576Y26183D01*
X37051Y26183D01*
X37182Y26183D02*
X37182Y25339D01*
X38363Y26183D02*
X38494Y26183D01*
X38757Y26014D01*
X38757Y25508D01*
X38494Y25339D01*
X38363Y25339D01*
G54D12*
X-18249Y7449D02*
X-18151Y7351D01*
X-18249Y7351D02*
X-18151Y7449D01*
X-18249Y8449D02*
X-18151Y8351D01*
X-18249Y8351D02*
X-18151Y8449D01*
X-20049Y9449D02*
X-19951Y9351D01*
X-20049Y9351D02*
X-19951Y9449D01*
X-19449Y9449D02*
X-19351Y9351D01*
X-19449Y9351D02*
X-19351Y9449D01*
X-18849Y9351D02*
X-18751Y9449D01*
X-18849Y9449D02*
X-18751Y9351D01*
X-18249Y9351D02*
X-18151Y9449D01*
X-18249Y9449D02*
X-18151Y9351D01*
X-17649Y9449D02*
X-17551Y9351D01*
X-17649Y9351D02*
X-17551Y9449D01*
X-17049Y9449D02*
X-16951Y9351D01*
X-17049Y9351D02*
X-16951Y9449D01*
X-16449Y9351D02*
X-16351Y9449D01*
X-16449Y9449D02*
X-16351Y9351D01*
X-20049Y8449D02*
X-19951Y8351D01*
X-20049Y8351D02*
X-19951Y8449D01*
X-19449Y8351D02*
X-19351Y8449D01*
X-19449Y8449D02*
X-19351Y8351D01*
X-18849Y8449D02*
X-18751Y8351D01*
X-18849Y8351D02*
X-18751Y8449D01*
X-17049Y8351D02*
X-16951Y8449D01*
X-17049Y8449D02*
X-16951Y8351D01*
X-17649Y8351D02*
X-17551Y8449D01*
X-17649Y8449D02*
X-17551Y8351D01*
X-16449Y8449D02*
X-16351Y8351D01*
X-16449Y8351D02*
X-16351Y8449D01*
X-20049Y7351D02*
X-19951Y7449D01*
X-20049Y7449D02*
X-19951Y7351D01*
X-19449Y7351D02*
X-19351Y7449D01*
X-19449Y7449D02*
X-19351Y7351D01*
X-18849Y7351D02*
X-18751Y7449D01*
X-18849Y7449D02*
X-18751Y7351D01*
X-16449Y7449D02*
X-16351Y7351D01*
X-16449Y7351D02*
X-16351Y7449D01*
X-17049Y7351D02*
X-16951Y7449D01*
X-17049Y7449D02*
X-16951Y7351D01*
X-17649Y7351D02*
X-17551Y7449D01*
X-17649Y7449D02*
X-17551Y7351D01*
X-24049Y7351D02*
X-23951Y7449D01*
X-24049Y7449D02*
X-23951Y7351D01*
X-24649Y7449D02*
X-24551Y7351D01*
X-24649Y7351D02*
X-24551Y7449D01*
X-25249Y7449D02*
X-25151Y7351D01*
X-25249Y7351D02*
X-25151Y7449D01*
X-25849Y7351D02*
X-25751Y7449D01*
X-25849Y7449D02*
X-25751Y7351D01*
X-26449Y7351D02*
X-26351Y7449D01*
X-26449Y7449D02*
X-26351Y7351D01*
X-27049Y7351D02*
X-26951Y7449D01*
X-27049Y7449D02*
X-26951Y7351D01*
X-27649Y7351D02*
X-27551Y7449D01*
X-27649Y7449D02*
X-27551Y7351D01*
X-24049Y8351D02*
X-23951Y8449D01*
X-24049Y8449D02*
X-23951Y8351D01*
X-24649Y8351D02*
X-24551Y8449D01*
X-24649Y8449D02*
X-24551Y8351D01*
X-24049Y9449D02*
X-23951Y9351D01*
X-24049Y9351D02*
X-23951Y9449D01*
X-24649Y9351D02*
X-24551Y9449D01*
X-24649Y9449D02*
X-24551Y9351D01*
X-25249Y9449D02*
X-25151Y9351D01*
X-25249Y9351D02*
X-25151Y9449D01*
X-27649Y9351D02*
X-27551Y9449D01*
X-27649Y9449D02*
X-27551Y9351D01*
X-27649Y8449D02*
X-27551Y8351D01*
X-27649Y8351D02*
X-27551Y8449D01*
X-25368Y17850D02*
G75*
D01*
G02X-25368Y17850I118J0*
G01*
X-25818Y19150D02*
G75*
D01*
G02X-25818Y19150I118J0*
G01*
X-21118Y27200D02*
G75*
D01*
G02X-21118Y27200I118J0*
G01*
X-21118Y27700D02*
G75*
D01*
G02X-21118Y27700I118J0*
G01*
X-24218Y27350D02*
G75*
D01*
G02X-24218Y27350I118J0*
G01*
X-25249Y8351D02*
X-25151Y8449D01*
X-25249Y8449D02*
X-25151Y8351D01*
X-25849Y8449D02*
X-25751Y8351D01*
X-25849Y8351D02*
X-25751Y8449D01*
X-26449Y8449D02*
X-26351Y8351D01*
X-26449Y8351D02*
X-26351Y8449D01*
X-27049Y8351D02*
X-26951Y8449D01*
X-27049Y8449D02*
X-26951Y8351D01*
X-27049Y9351D02*
X-26951Y9449D01*
X-27049Y9449D02*
X-26951Y9351D01*
X-26449Y9351D02*
X-26351Y9449D01*
X-26449Y9449D02*
X-26351Y9351D01*
X-25849Y9449D02*
X-25751Y9351D01*
X-25849Y9351D02*
X-25751Y9449D01*
X-19718Y14750D02*
G75*
D01*
G02X-19718Y14750I118J0*
G01*
X-22918Y22200D02*
G75*
D01*
G02X-22918Y22200I118J0*
G01*
X-18218Y17500D02*
G75*
D01*
G02X-18218Y17500I118J0*
G01*
X-21218Y30700D02*
G75*
D01*
G02X-21218Y30700I118J0*
G01*
X-20218Y30700D02*
G75*
D01*
G02X-20218Y30700I118J0*
G01*
X-17418Y15200D02*
G75*
D01*
G02X-17418Y15200I118J0*
G01*
X-17368Y19700D02*
G75*
D01*
G02X-17368Y19700I118J0*
G01*
X-26118Y30350D02*
G75*
D01*
G02X-26118Y30350I118J0*
G01*
X-27318Y30350D02*
G75*
D01*
G02X-27318Y30350I118J0*
G01*
X-27668Y28000D02*
G75*
D01*
G02X-27668Y28000I118J0*
G01*
X-27668Y27000D02*
G75*
D01*
G02X-27668Y27000I118J0*
G01*
X-22168Y29600D02*
G75*
D01*
G02X-22168Y29600I118J0*
G01*
X-23218Y31000D02*
G75*
D01*
G02X-23218Y31000I118J0*
G01*
X-24218Y28000D02*
G75*
D01*
G02X-24218Y28000I118J0*
G01*
X-17918Y14750D02*
G75*
D01*
G02X-17918Y14750I118J0*
G01*
X-18468Y14750D02*
G75*
D01*
G02X-18468Y14750I118J0*
G01*
X-22068Y27650D02*
G75*
D01*
G02X-22068Y27650I118J0*
G01*
X-22418Y25950D02*
G75*
D01*
G02X-22418Y25950I118J0*
G01*
X-21768Y25950D02*
G75*
D01*
G02X-21768Y25950I118J0*
G01*
X-17218Y24400D02*
G75*
D01*
G02X-17218Y24400I118J0*
G01*
X-18418Y22350D02*
G75*
D01*
G02X-18418Y22350I118J0*
G01*
X-19068Y15350D02*
G75*
D01*
G02X-19068Y15350I118J0*
G01*
X-16718Y15500D02*
G75*
D01*
G02X-16718Y15500I118J0*
G01*
X-23168Y23650D02*
G75*
D01*
G02X-23168Y23650I118J0*
G01*
X-27668Y19850D02*
G75*
D01*
G02X-27668Y19850I118J0*
G01*
X-21018Y12200D02*
G75*
D01*
G02X-21018Y12200I118J0*
G01*
X-21368Y22350D02*
G75*
D01*
G02X-21368Y22350I118J0*
G01*
X-19718Y28950D02*
G75*
D01*
G02X-19718Y28950I118J0*
G01*
X-24068Y30350D02*
G75*
D01*
G02X-24068Y30350I118J0*
G01*
X-23868Y25050D02*
G75*
D01*
G02X-23868Y25050I118J0*
G01*
X-18918Y26750D02*
G75*
D01*
G02X-18918Y26750I118J0*
G01*
X-19918Y31800D02*
G75*
D01*
G02X-19918Y31800I118J0*
G01*
X-18568Y31250D02*
G75*
D01*
G02X-18568Y31250I118J0*
G01*
X-26318Y12300D02*
G75*
D01*
G02X-26318Y12300I118J0*
G01*
X-22918Y12400D02*
G75*
D01*
G02X-22918Y12400I118J0*
G01*
X-16618Y11950D02*
G75*
D01*
G02X-16618Y11950I118J0*
G01*
X-17918Y13350D02*
G75*
D01*
G02X-17918Y13350I118J0*
G01*
X-21768Y16250D02*
G75*
D01*
G02X-21768Y16250I118J0*
G01*
X-19318Y13400D02*
G75*
D01*
G02X-19318Y13400I118J0*
G01*
X-17268Y11150D02*
G75*
D01*
G02X-17268Y11150I118J0*
G01*
X-21518Y23350D02*
G75*
D01*
G02X-21518Y23350I118J0*
G01*
X-21018Y14150D02*
G75*
D01*
G02X-21018Y14150I118J0*
G01*
X-19618Y25700D02*
G75*
D01*
G02X-19618Y25700I118J0*
G01*
X-18218Y15650D02*
G75*
D01*
G02X-18218Y15650I118J0*
G01*
X-20568Y24450D02*
G75*
D01*
G02X-20568Y24450I118J0*
G01*
X-19518Y27350D02*
G75*
D01*
G02X-19518Y27350I118J0*
G01*
X-16918Y27350D02*
G75*
D01*
G02X-16918Y27350I118J0*
G01*
X-19518Y27900D02*
G75*
D01*
G02X-19518Y27900I118J0*
G01*
X-18418Y28800D02*
G75*
D01*
G02X-18418Y28800I118J0*
G01*
X-21118Y26700D02*
G75*
D01*
G02X-21118Y26700I118J0*
G01*
X-20268Y28950D02*
G75*
D01*
G02X-20268Y28950I118J0*
G01*
X-17318Y25300D02*
G75*
D01*
G02X-17318Y25300I118J0*
G01*
X-18968Y17000D02*
G75*
D01*
G02X-18968Y17000I118J0*
G01*
X-19618Y26300D02*
G75*
D01*
G02X-19618Y26300I118J0*
G01*
X-22768Y27450D02*
G75*
D01*
G02X-22768Y27450I118J0*
G01*
X-26868Y19850D02*
G75*
D01*
G02X-26868Y19850I118J0*
G01*
X-21968Y22600D02*
G75*
D01*
G02X-21968Y22600I118J0*
G01*
X-19318Y20950D02*
G75*
D01*
G02X-19318Y20950I118J0*
G01*
X-16918Y26800D02*
G75*
D01*
G02X-16918Y26800I118J0*
G01*
X-21518Y18800D02*
G75*
D01*
G02X-21518Y18800I118J0*
G01*
X-21768Y15700D02*
G75*
D01*
G02X-21768Y15700I118J0*
G01*
X-17218Y26200D02*
G75*
D01*
G02X-17218Y26200I118J0*
G01*
X-3907Y23629D02*
G75*
D01*
G02X-3907Y23629I118J0*
G01*
X-3839Y25726D02*
X-3740Y25627D01*
X-3839Y25627D02*
X-3740Y25726D01*
G04 ColorRGB 00FFFF for the following layer *
%LNBoard Outline*%
%LPD*%
G54D10*
G54D13*
X-28343Y32008D02*
X-28343Y7283D01*
G75*
D01*
G03X-27949Y6890I394J1*
G01*
X-16138Y6890D01*
G75*
D01*
G03X-15745Y7283I0J393*
G01*
X-15745Y32008D01*
G74*
D01*
G03X-16138Y32401I393J0*
G01*
X-27949Y32401D01*
G75*
D01*
G03X-28343Y32008I-1J-393*
G01*
G04 ColorRGB 66FFCC for the following layer *
%LNLegend Description*%
%LPD*%
G54D11*
X-7549Y14414D02*
X40679Y14414D01*
X40679Y32844D01*
X-7549Y32844D01*
X-7549Y14414D01*
X-29Y28748D02*
X-29Y14414D01*
X9853Y28748D02*
X9853Y14414D01*
X19735Y28748D02*
X19735Y14414D01*
X27254Y28748D02*
X27254Y14414D01*
X40679Y28748D02*
X40679Y14414D01*
X-7549Y16462D02*
X40679Y16462D01*
X-7549Y18509D02*
X40679Y18509D01*
X-7549Y20557D02*
X40679Y20557D01*
X-7549Y22605D02*
X40679Y22605D01*
X-7549Y24653D02*
X40679Y24653D01*
X-7549Y26700D02*
X40679Y26700D01*
X-7201Y27555D02*
X-6939Y27387D01*
X-6676Y27387D01*
X-6414Y27555D01*
X-7201Y28062D01*
X-6939Y28230D01*
X-6676Y28230D01*
X-6414Y28062D01*
X-6020Y27134D02*
X-5889Y27134D01*
X-5233Y27977D01*
X-6020Y27977D02*
X-5626Y27471D01*
X-4839Y27387D02*
X-4839Y27893D01*
X-4839Y27977D01*
X-4839Y27893D02*
X-4708Y27977D01*
X-4576Y27977D01*
X-4445Y27893D01*
X-4314Y27977D01*
X-4183Y27977D01*
X-4052Y27893D01*
X-4052Y27387D01*
X-4445Y27893D02*
X-4445Y27387D01*
X-3658Y27555D02*
X-3395Y27387D01*
X-3133Y27387D01*
X-2870Y27555D01*
X-2870Y27724D01*
X-3133Y27893D01*
X-3395Y27893D01*
X-3658Y27724D01*
X-3658Y28230D02*
X-3658Y27387D01*
X-2477Y27555D02*
X-2214Y27387D01*
X-1952Y27387D01*
X-1689Y27555D01*
X-1689Y27809D01*
X-1952Y27977D01*
X-2214Y27977D01*
X-2477Y27809D01*
X-2477Y27555D01*
X-1164Y28230D02*
X-1164Y27555D01*
X-902Y27387D01*
X2681Y27555D02*
X2943Y27387D01*
X3206Y27387D01*
X3468Y27555D01*
X2681Y28062D01*
X2943Y28230D01*
X3206Y28230D01*
X3468Y28062D01*
X4256Y27387D02*
X4256Y27893D01*
X4256Y28062D02*
X4256Y28146D01*
X5043Y27977D02*
X5830Y27977D01*
X5043Y27387D01*
X5830Y27387D01*
X7011Y27555D02*
X6749Y27387D01*
X6487Y27387D01*
X6224Y27555D01*
X6224Y27809D01*
X6487Y27977D01*
X6749Y27977D01*
X7011Y27809D01*
X6880Y27724D01*
X6224Y27724D01*
X10200Y27555D02*
X10463Y27387D01*
X10725Y27387D01*
X10988Y27555D01*
X10988Y28062D01*
X10725Y28230D01*
X10463Y28230D01*
X10200Y28062D01*
X10200Y27555D01*
X10725Y27555D02*
X10988Y27387D01*
X11382Y27977D02*
X11382Y27555D01*
X11644Y27387D01*
X11906Y27387D01*
X12169Y27555D01*
X12169Y27977D01*
X12169Y27555D02*
X12169Y27387D01*
X12694Y27977D02*
X13088Y27977D01*
X13219Y27893D01*
X13219Y27471D01*
X13088Y27387D01*
X12694Y27387D01*
X12563Y27471D01*
X12563Y27640D01*
X12694Y27724D01*
X13219Y27724D01*
X13219Y27471D02*
X13350Y27387D01*
X13744Y27387D02*
X13744Y27893D01*
X13744Y27977D01*
X13744Y27893D02*
X13875Y27977D01*
X14137Y27977D01*
X14269Y27893D01*
X14269Y27387D01*
X15581Y27471D02*
X15450Y27387D01*
X15319Y27471D01*
X15319Y28230D01*
X15056Y27977D02*
X15581Y27977D01*
X16500Y27387D02*
X16500Y27893D01*
X16500Y28062D02*
X16500Y28146D01*
X17943Y27471D02*
X17812Y27387D01*
X17681Y27471D01*
X17681Y28230D01*
X17418Y27977D02*
X17943Y27977D01*
X18468Y27134D02*
X18599Y27134D01*
X19256Y27977D01*
X18468Y27977D02*
X18862Y27471D01*
X20082Y27387D02*
X20082Y28230D01*
X20607Y28230D01*
X20870Y28062D01*
X20870Y27977D01*
X20607Y27809D01*
X20082Y27809D01*
X21395Y28230D02*
X21395Y27555D01*
X21657Y27387D01*
X22576Y27977D02*
X22969Y27977D01*
X23101Y27893D01*
X23101Y27471D01*
X22969Y27387D01*
X22576Y27387D01*
X22445Y27471D01*
X22445Y27640D01*
X22576Y27724D01*
X23101Y27724D01*
X23101Y27471D02*
X23232Y27387D01*
X24282Y27471D02*
X24151Y27387D01*
X24019Y27471D01*
X24019Y28230D01*
X23757Y27977D02*
X24282Y27977D01*
X25594Y27555D02*
X25332Y27387D01*
X25069Y27387D01*
X24807Y27555D01*
X24807Y27809D01*
X25069Y27977D01*
X25332Y27977D01*
X25594Y27809D01*
X25463Y27724D01*
X24807Y27724D01*
X26775Y27555D02*
X26513Y27387D01*
X26250Y27387D01*
X25988Y27555D01*
X25988Y27724D01*
X26250Y27893D01*
X26513Y27893D01*
X26775Y27724D01*
X26775Y28230D02*
X26775Y27387D01*
X27602Y27555D02*
X27865Y27387D01*
X28127Y27387D01*
X28389Y27555D01*
X27602Y28062D01*
X27865Y28230D01*
X28127Y28230D01*
X28389Y28062D01*
X28914Y28230D02*
X28914Y27555D01*
X29177Y27387D01*
X29964Y27555D02*
X30227Y27387D01*
X30489Y27387D01*
X30752Y27555D01*
X30752Y27809D01*
X30489Y27977D01*
X30227Y27977D01*
X29964Y27809D01*
X29964Y27555D01*
X31802Y27471D02*
X31670Y27387D01*
X31539Y27471D01*
X31539Y28230D01*
X31277Y27977D02*
X31802Y27977D01*
X33508Y28230D02*
X33508Y27387D01*
X34295Y27387D01*
X35476Y27555D02*
X35214Y27387D01*
X34951Y27387D01*
X34689Y27555D01*
X34689Y27809D01*
X34951Y27977D01*
X35214Y27977D01*
X35476Y27809D01*
X35345Y27724D01*
X34689Y27724D01*
X35870Y27387D02*
X35870Y27893D01*
X35870Y27977D01*
X35870Y27893D02*
X36001Y27977D01*
X36263Y27977D01*
X36395Y27893D01*
X36395Y27387D01*
X37051Y27302D02*
X37313Y27134D01*
X37576Y27134D01*
X37838Y27302D01*
X37838Y27555D01*
X37838Y27809D01*
X37576Y27977D01*
X37313Y27977D01*
X37051Y27809D01*
X37051Y27555D01*
X37313Y27387D01*
X37576Y27387D01*
X37838Y27555D01*
X38888Y27471D02*
X38757Y27387D01*
X38626Y27471D01*
X38626Y28230D01*
X38363Y27977D02*
X38888Y27977D01*
X39413Y27809D02*
X39676Y27977D01*
X39938Y27977D01*
X40200Y27809D01*
X40200Y27387D01*
X39413Y28230D02*
X39413Y27387D01*
X-7549Y28748D02*
X40679Y28748D01*
X4885Y29434D02*
X4885Y29941D01*
X5148Y30278D01*
X5410Y30278D01*
X5673Y29941D01*
X5673Y29434D01*
X4885Y29688D02*
X5673Y29688D01*
X6198Y30278D02*
X6198Y29603D01*
X6460Y29434D01*
X7379Y30278D02*
X7379Y29603D01*
X7641Y29434D01*
X9610Y30025D02*
X9610Y29603D01*
X9872Y29434D01*
X10135Y29434D01*
X10397Y29603D01*
X10397Y30025D01*
X10397Y29603D02*
X10397Y29434D01*
X10791Y29434D02*
X10791Y29941D01*
X10791Y30025D01*
X10791Y29941D02*
X10922Y30025D01*
X11185Y30025D01*
X11316Y29941D01*
X11316Y29434D01*
X12366Y29434D02*
X12366Y29941D01*
X12366Y30109D02*
X12366Y30194D01*
X13809Y29519D02*
X13678Y29434D01*
X13547Y29519D01*
X13547Y30278D01*
X13284Y30025D02*
X13809Y30025D01*
X14334Y29603D02*
X14597Y29434D01*
X14859Y29434D01*
X15122Y29603D01*
X14334Y29856D01*
X14597Y30025D01*
X14859Y30025D01*
X15122Y29856D01*
X16828Y30025D02*
X17221Y30025D01*
X17353Y29941D01*
X17353Y29519D01*
X17221Y29434D01*
X16828Y29434D01*
X16697Y29519D01*
X16697Y29688D01*
X16828Y29772D01*
X17353Y29772D01*
X17353Y29519D02*
X17484Y29434D01*
X17878Y29772D02*
X18271Y30025D01*
X18403Y30025D01*
X18665Y29856D01*
X17878Y29434D02*
X17878Y30025D01*
X19846Y29603D02*
X19584Y29434D01*
X19321Y29434D01*
X19059Y29603D01*
X19059Y29856D01*
X19321Y30025D01*
X19584Y30025D01*
X19846Y29856D01*
X19715Y29772D01*
X19059Y29772D01*
X21815Y29434D02*
X21815Y29941D01*
X21815Y30109D02*
X21815Y30194D01*
X22602Y29434D02*
X22602Y29941D01*
X22602Y30025D01*
X22602Y29941D02*
X22733Y30025D01*
X22996Y30025D01*
X23127Y29941D01*
X23127Y29434D01*
X24964Y29434D02*
X24964Y29941D01*
X24964Y30025D01*
X24964Y29941D02*
X25095Y30025D01*
X25227Y30025D01*
X25358Y29941D01*
X25489Y30025D01*
X25620Y30025D01*
X25752Y29941D01*
X25752Y29434D01*
X25358Y29941D02*
X25358Y29434D01*
X26539Y29434D02*
X26539Y29941D01*
X26539Y30109D02*
X26539Y30194D01*
X27458Y30278D02*
X27458Y29603D01*
X27720Y29434D01*
X-7549Y30796D02*
X40679Y30796D01*
X9610Y31482D02*
X10135Y31482D01*
X10397Y31651D01*
X10397Y32157D01*
X10135Y32326D01*
X9610Y32326D01*
X9741Y32326D02*
X9741Y31482D01*
X10791Y31820D02*
X11185Y32073D01*
X11316Y32073D01*
X11578Y31904D01*
X10791Y31482D02*
X10791Y32073D01*
X12366Y31482D02*
X12366Y31988D01*
X12366Y32157D02*
X12366Y32241D01*
X13284Y32326D02*
X13284Y31651D01*
X13547Y31482D01*
X14466Y32326D02*
X14466Y31651D01*
X14728Y31482D01*
X16697Y32326D02*
X16697Y31482D01*
X17484Y31482D01*
X18665Y31651D02*
X18403Y31482D01*
X18140Y31482D01*
X17878Y31651D01*
X17878Y31904D01*
X18140Y32073D01*
X18403Y32073D01*
X18665Y31904D01*
X18534Y31820D01*
X17878Y31820D01*
X19059Y31398D02*
X19321Y31229D01*
X19584Y31229D01*
X19846Y31398D01*
X19846Y31651D01*
X19846Y31904D01*
X19584Y32073D01*
X19321Y32073D01*
X19059Y31904D01*
X19059Y31651D01*
X19321Y31482D01*
X19584Y31482D01*
X19846Y31651D01*
X21027Y31651D02*
X20765Y31482D01*
X20502Y31482D01*
X20240Y31651D01*
X20240Y31904D01*
X20502Y32073D01*
X20765Y32073D01*
X21027Y31904D01*
X20896Y31820D01*
X20240Y31820D01*
X21421Y31482D02*
X21421Y31988D01*
X21421Y32073D01*
X21421Y31988D02*
X21552Y32073D01*
X21815Y32073D01*
X21946Y31988D01*
X21946Y31482D01*
X23389Y31651D02*
X23127Y31482D01*
X22865Y31482D01*
X22602Y31651D01*
X22602Y31820D01*
X22865Y31988D01*
X23127Y31988D01*
X23389Y31820D01*
X23389Y32326D02*
X23389Y31482D01*

M02*
