G04 Generated by Ultiboard 14.0 *
%FSLAX24Y24*%
%MOIN*%

%ADD10C,0.0001*%
%ADD11C,0.0100*%
%ADD12C,0.0735*%
%ADD13C,0.0250*%
%ADD14C,0.0394*%
%ADD15C,0.0800*%
%ADD16C,0.0534*%


G04 ColorRGB 00CC33 for the following layer *
%LNCopper Inner 2*%
%LPD*%
G54D10*
G36*
X-15855Y32008D02*
X-15855Y32008D01*
X-15855Y7283D01*
G75*
D01*
G03X-15855Y7278I110J-2*
G01*
G74*
D01*
G02X-16133Y7000I283J5*
G01*
X-16138Y7000D01*
X-16138Y7000D01*
X-20788Y7000D01*
G74*
D01*
G03X-20560Y7267I256J449*
G01*
X-20560Y7267D01*
X-20810Y7267D01*
G75*
D01*
G03X-20810Y7633I-234J183*
G01*
X-20810Y7633D01*
X-20560Y7633D01*
G74*
D01*
G03X-20860Y7934I484J182*
G01*
X-20860Y7934D01*
X-20860Y7684D01*
G75*
D01*
G03X-21227Y7684I-184J-234*
G01*
X-21227Y7684D01*
X-21227Y7934D01*
G74*
D01*
G03X-21528Y7633I183J484*
G01*
X-21528Y7633D01*
X-21278Y7633D01*
G75*
D01*
G03X-21278Y7267I234J-183*
G01*
X-21278Y7267D01*
X-21528Y7267D01*
G74*
D01*
G03X-21300Y7000I484J182*
G01*
X-21300Y7000D01*
X-22788Y7000D01*
G74*
D01*
G03X-22560Y7267I256J449*
G01*
X-22560Y7267D01*
X-22810Y7267D01*
G75*
D01*
G03X-22810Y7633I-234J183*
G01*
X-22810Y7633D01*
X-22560Y7633D01*
G74*
D01*
G03X-22860Y7934I484J182*
G01*
X-22860Y7934D01*
X-22860Y7684D01*
G75*
D01*
G03X-23227Y7684I-184J-234*
G01*
X-23227Y7684D01*
X-23227Y7934D01*
G74*
D01*
G03X-23528Y7633I183J484*
G01*
X-23528Y7633D01*
X-23278Y7633D01*
G75*
D01*
G03X-23278Y7267I234J-183*
G01*
X-23278Y7267D01*
X-23528Y7267D01*
G74*
D01*
G03X-23300Y7000I484J182*
G01*
X-23300Y7000D01*
X-27949Y7000D01*
G75*
D01*
G03X-27954Y7000I-3J-110*
G01*
G74*
D01*
G02X-28233Y7278I4J283*
G01*
G75*
D01*
G03X-28232Y7283I-107J24*
G01*
X-28232Y7283D01*
X-28232Y32008D01*
G74*
D01*
G03X-28233Y32013I109J19*
G01*
G74*
D01*
G02X-27954Y32291I284J6*
G01*
G75*
D01*
G03X-27949Y32291I2J110*
G01*
X-27949Y32291D01*
X-16138Y32291D01*
X-16133Y32291D01*
G74*
D01*
G02X-15855Y32013I5J283*
G01*
G74*
D01*
G03X-15855Y32008I110J2*
G01*
D02*
G37*
%LPC*%
G36*
X-19005Y26979D02*
G75*
D01*
G03X-19005Y26979I205J-229*
G01*
D02*
G37*
G36*
X-19005Y8552D02*
G75*
D01*
G03X-19005Y8552I205J-152*
G01*
D02*
G37*
G36*
X-19005Y9552D02*
G75*
D01*
G03X-19005Y9552I205J-152*
G01*
D02*
G37*
G36*
X-19005Y11512D02*
G75*
D01*
G03X-19005Y11512I-413J-362*
G01*
D02*
G37*
G36*
X-19005Y13637D02*
G75*
D01*
G03X-19005Y13637I-195J-237*
G01*
D02*
G37*
G36*
X-19005Y7552D02*
G75*
D01*
G03X-19005Y7552I205J-152*
G01*
D02*
G37*
G36*
X-19005Y17265D02*
G75*
D01*
G03X-19005Y17265I155J-265*
G01*
D02*
G37*
G36*
X-22440Y25677D02*
G75*
D01*
G03X-22440Y25677I140J273*
G01*
D02*
G37*
G36*
X-24260Y25648D02*
G74*
D01*
G03X-24502Y25890I390J148*
G01*
X-24502Y25890D01*
X-24502Y25648D01*
X-24260Y25648D01*
D02*
G37*
G36*
X-24736Y25677D02*
G75*
D01*
G03X-24736Y25677I86J-177*
G01*
D02*
G37*
G36*
X-25040Y25648D02*
X-25040Y25648D01*
X-24798Y25648D01*
X-24798Y25890D01*
G74*
D01*
G03X-25040Y25648I148J390*
G01*
D02*
G37*
G36*
X-25701Y25677D02*
G75*
D01*
G03X-25701Y25677I264J323*
G01*
D02*
G37*
G36*
X-19436Y26000D02*
G75*
D01*
G03X-19564Y26000I-64J299*
G01*
G75*
D01*
G03X-19436Y26000I64J-299*
G01*
D02*
G37*
G36*
X-17407Y26200D02*
G75*
D01*
G03X-17407Y26200I307J0*
G01*
D02*
G37*
G36*
X-17107Y27350D02*
G75*
D01*
G03X-17107Y27350I307J0*
G01*
D02*
G37*
G36*
X-18607Y28800D02*
G75*
D01*
G03X-18607Y28800I307J0*
G01*
D02*
G37*
G36*
X-18757Y31250D02*
G75*
D01*
G03X-18757Y31250I307J0*
G01*
D02*
G37*
G36*
X-18407Y15650D02*
G75*
D01*
G03X-18407Y15650I307J0*
G01*
D02*
G37*
G36*
X-18455Y7400D02*
G75*
D01*
G03X-18455Y7400I255J0*
G01*
D02*
G37*
G36*
X-17855Y7400D02*
G75*
D01*
G03X-17855Y7400I255J0*
G01*
D02*
G37*
G36*
X-16655Y7400D02*
G75*
D01*
G03X-16655Y7400I255J0*
G01*
D02*
G37*
G36*
X-17255Y7400D02*
G75*
D01*
G03X-17255Y7400I255J0*
G01*
D02*
G37*
G36*
X-18455Y8400D02*
G75*
D01*
G03X-18455Y8400I255J0*
G01*
D02*
G37*
G36*
X-17855Y8400D02*
G75*
D01*
G03X-17855Y8400I255J0*
G01*
D02*
G37*
G36*
X-16655Y8400D02*
G75*
D01*
G03X-16655Y8400I255J0*
G01*
D02*
G37*
G36*
X-17255Y8400D02*
G75*
D01*
G03X-17255Y8400I255J0*
G01*
D02*
G37*
G36*
X-18455Y9400D02*
G75*
D01*
G03X-18455Y9400I255J0*
G01*
D02*
G37*
G36*
X-17855Y9400D02*
G75*
D01*
G03X-17855Y9400I255J0*
G01*
D02*
G37*
G36*
X-17255Y9400D02*
G75*
D01*
G03X-17255Y9400I255J0*
G01*
D02*
G37*
G36*
X-16655Y9400D02*
G75*
D01*
G03X-16655Y9400I255J0*
G01*
D02*
G37*
G36*
X-17457Y11150D02*
G75*
D01*
G03X-17457Y11150I307J0*
G01*
D02*
G37*
G36*
X-18075Y14886D02*
G75*
D01*
G03X-18075Y14614I-274J-136*
G01*
G75*
D01*
G03X-18075Y14886I274J136*
G01*
D02*
G37*
G36*
X-17607Y15200D02*
G75*
D01*
G03X-17607Y15200I307J0*
G01*
D02*
G37*
G36*
X-17507Y25300D02*
G75*
D01*
G03X-17507Y25300I307J0*
G01*
D02*
G37*
G36*
X-18427Y17500D02*
G75*
D01*
G03X-18427Y17500I327J0*
G01*
D02*
G37*
G36*
X-17557Y19700D02*
G75*
D01*
G03X-17557Y19700I307J0*
G01*
D02*
G37*
G36*
X-25854Y27000D02*
G75*
D01*
G03X-25854Y27000I417J0*
G01*
D02*
G37*
G36*
X-25067Y26500D02*
G75*
D01*
G03X-25067Y26500I417J0*
G01*
D02*
G37*
G36*
X-21211Y27450D02*
G75*
D01*
G03X-21195Y26937I211J-250*
G01*
G75*
D01*
G03X-20805Y26937I195J-236*
G01*
G75*
D01*
G03X-20789Y27450I-195J263*
G01*
G75*
D01*
G03X-21211Y27450I-211J250*
G01*
D02*
G37*
G36*
X-24427Y27350D02*
G75*
D01*
G03X-24427Y27350I327J0*
G01*
D02*
G37*
G36*
X-22957Y27450D02*
G75*
D01*
G03X-22957Y27450I307J0*
G01*
D02*
G37*
G36*
X-22257Y27650D02*
G75*
D01*
G03X-22257Y27650I307J0*
G01*
D02*
G37*
G36*
X-19536Y27625D02*
G75*
D01*
G03X-19264Y27625I136J-274*
G01*
G75*
D01*
G03X-19536Y27625I-136J274*
G01*
D02*
G37*
G36*
X-27857Y28000D02*
G75*
D01*
G03X-27857Y28000I307J0*
G01*
D02*
G37*
G36*
X-19875Y29086D02*
G75*
D01*
G03X-19875Y28814I-274J-136*
G01*
G75*
D01*
G03X-19875Y29086I274J136*
G01*
D02*
G37*
G36*
X-26307Y30350D02*
G75*
D01*
G03X-26307Y30350I307J0*
G01*
D02*
G37*
G36*
X-24257Y30350D02*
G75*
D01*
G03X-24257Y30350I307J0*
G01*
D02*
G37*
G36*
X-21407Y30700D02*
G75*
D01*
G03X-21407Y30700I307J0*
G01*
D02*
G37*
G36*
X-20407Y30700D02*
G75*
D01*
G03X-20407Y30700I307J0*
G01*
D02*
G37*
G36*
X-21957Y15700D02*
G75*
D01*
G03X-21957Y15700I307J0*
G01*
D02*
G37*
G36*
X-27855Y7400D02*
G75*
D01*
G03X-27855Y7400I255J0*
G01*
D02*
G37*
G36*
X-27255Y7400D02*
G75*
D01*
G03X-27255Y7400I255J0*
G01*
D02*
G37*
G36*
X-26055Y7400D02*
G75*
D01*
G03X-26055Y7400I255J0*
G01*
D02*
G37*
G36*
X-26655Y7400D02*
G75*
D01*
G03X-26655Y7400I255J0*
G01*
D02*
G37*
G36*
X-25455Y7400D02*
G75*
D01*
G03X-25455Y7400I255J0*
G01*
D02*
G37*
G36*
X-24855Y7400D02*
G75*
D01*
G03X-24855Y7400I255J0*
G01*
D02*
G37*
G36*
X-24255Y7400D02*
G75*
D01*
G03X-24255Y7400I255J0*
G01*
D02*
G37*
G36*
X-20255Y7400D02*
G75*
D01*
G03X-20255Y7400I255J0*
G01*
D02*
G37*
G36*
X-19655Y7400D02*
G75*
D01*
G03X-19655Y7400I255J0*
G01*
D02*
G37*
G36*
X-27855Y8400D02*
G75*
D01*
G03X-27855Y8400I255J0*
G01*
D02*
G37*
G36*
X-27255Y8400D02*
G75*
D01*
G03X-27255Y8400I255J0*
G01*
D02*
G37*
G36*
X-26055Y8400D02*
G75*
D01*
G03X-26055Y8400I255J0*
G01*
D02*
G37*
G36*
X-26655Y8400D02*
G75*
D01*
G03X-26655Y8400I255J0*
G01*
D02*
G37*
G36*
X-25455Y8400D02*
G75*
D01*
G03X-25455Y8400I255J0*
G01*
D02*
G37*
G36*
X-24855Y8400D02*
G75*
D01*
G03X-24855Y8400I255J0*
G01*
D02*
G37*
G36*
X-24255Y8400D02*
G75*
D01*
G03X-24255Y8400I255J0*
G01*
D02*
G37*
G36*
X-22561Y8450D02*
G75*
D01*
G03X-22561Y8450I517J0*
G01*
D02*
G37*
G36*
X-20255Y8400D02*
G75*
D01*
G03X-20255Y8400I255J0*
G01*
D02*
G37*
G36*
X-19655Y8400D02*
G75*
D01*
G03X-19655Y8400I255J0*
G01*
D02*
G37*
G36*
X-27855Y9400D02*
G75*
D01*
G03X-27855Y9400I255J0*
G01*
D02*
G37*
G36*
X-27255Y9400D02*
G75*
D01*
G03X-27255Y9400I255J0*
G01*
D02*
G37*
G36*
X-26655Y9400D02*
G75*
D01*
G03X-26655Y9400I255J0*
G01*
D02*
G37*
G36*
X-26055Y9400D02*
G75*
D01*
G03X-26055Y9400I255J0*
G01*
D02*
G37*
G36*
X-25455Y9400D02*
G75*
D01*
G03X-25455Y9400I255J0*
G01*
D02*
G37*
G36*
X-24855Y9400D02*
G75*
D01*
G03X-24855Y9400I255J0*
G01*
D02*
G37*
G36*
X-24255Y9400D02*
G75*
D01*
G03X-24255Y9400I255J0*
G01*
D02*
G37*
G36*
X-22810Y9633D02*
X-22810Y9633D01*
X-22560Y9633D01*
G74*
D01*
G03X-22860Y9934I484J182*
G01*
X-22860Y9934D01*
X-22860Y9684D01*
G75*
D01*
G03X-23227Y9684I-184J-234*
G01*
X-23227Y9684D01*
X-23227Y9934D01*
G74*
D01*
G03X-23528Y9633I183J484*
G01*
X-23528Y9633D01*
X-23278Y9633D01*
G75*
D01*
G03X-23278Y9267I234J-183*
G01*
X-23278Y9267D01*
X-23528Y9267D01*
G74*
D01*
G03X-23227Y8966I484J183*
G01*
X-23227Y8966D01*
X-23227Y9216D01*
G75*
D01*
G03X-22860Y9216I183J234*
G01*
X-22860Y9216D01*
X-22860Y8966D01*
G74*
D01*
G03X-22560Y9267I184J483*
G01*
X-22560Y9267D01*
X-22810Y9267D01*
G75*
D01*
G03X-22810Y9633I-234J183*
G01*
D02*
G37*
G36*
X-20810Y9633D02*
X-20810Y9633D01*
X-20560Y9633D01*
G74*
D01*
G03X-20860Y9934I484J182*
G01*
X-20860Y9934D01*
X-20860Y9684D01*
G75*
D01*
G03X-21227Y9684I-184J-234*
G01*
X-21227Y9684D01*
X-21227Y9934D01*
G74*
D01*
G03X-21528Y9633I183J484*
G01*
X-21528Y9633D01*
X-21278Y9633D01*
G75*
D01*
G03X-21278Y9267I234J-183*
G01*
X-21278Y9267D01*
X-21528Y9267D01*
G74*
D01*
G03X-21227Y8966I484J183*
G01*
X-21227Y8966D01*
X-21227Y9216D01*
G75*
D01*
G03X-20860Y9216I183J234*
G01*
X-20860Y9216D01*
X-20860Y8966D01*
G74*
D01*
G03X-20560Y9267I184J483*
G01*
X-20560Y9267D01*
X-20810Y9267D01*
G75*
D01*
G03X-20810Y9633I-234J183*
G01*
D02*
G37*
G36*
X-20255Y9400D02*
G75*
D01*
G03X-20255Y9400I255J0*
G01*
D02*
G37*
G36*
X-19655Y9400D02*
G75*
D01*
G03X-19655Y9400I255J0*
G01*
D02*
G37*
G36*
X-24154Y10955D02*
X-24154Y10955D01*
X-24473Y10955D01*
X-24473Y10636D01*
G74*
D01*
G03X-24154Y10955I194J513*
G01*
D02*
G37*
G36*
X-24868Y11150D02*
G75*
D01*
G03X-24868Y11150I200J0*
G01*
D02*
G37*
G36*
X-24863Y10636D02*
X-24863Y10636D01*
X-24863Y10955D01*
X-25183Y10955D01*
G74*
D01*
G03X-24863Y10636I514J196*
G01*
D02*
G37*
G36*
X-24473Y11664D02*
X-24473Y11664D01*
X-24473Y11345D01*
X-24154Y11345D01*
G74*
D01*
G03X-24473Y11664I513J194*
G01*
D02*
G37*
G36*
X-25183Y11345D02*
X-25183Y11345D01*
X-24863Y11345D01*
X-24863Y11664D01*
G74*
D01*
G03X-25183Y11345I193J514*
G01*
D02*
G37*
G36*
X-23107Y12400D02*
G75*
D01*
G03X-23107Y12400I307J0*
G01*
D02*
G37*
G36*
X-21207Y14150D02*
G75*
D01*
G03X-21207Y14150I307J0*
G01*
D02*
G37*
G36*
X-19927Y14750D02*
G75*
D01*
G03X-19927Y14750I327J0*
G01*
D02*
G37*
G36*
X-25557Y17850D02*
G75*
D01*
G03X-25557Y17850I307J0*
G01*
D02*
G37*
G36*
X-26007Y19150D02*
G75*
D01*
G03X-26007Y19150I307J0*
G01*
D02*
G37*
G36*
X-27057Y19850D02*
G75*
D01*
G03X-27057Y19850I307J0*
G01*
D02*
G37*
G36*
X-23127Y22200D02*
G75*
D01*
G03X-23127Y22200I327J0*
G01*
D02*
G37*
G36*
X-21557Y22350D02*
G75*
D01*
G03X-21557Y22350I307J0*
G01*
D02*
G37*
G36*
X-25854Y23000D02*
G75*
D01*
G03X-25854Y23000I417J0*
G01*
D02*
G37*
G36*
X-22157Y22600D02*
G75*
D01*
G03X-22157Y22600I307J0*
G01*
D02*
G37*
G36*
X-25854Y24000D02*
G75*
D01*
G03X-25854Y24000I417J0*
G01*
D02*
G37*
G36*
X-25067Y23500D02*
G75*
D01*
G03X-25067Y23500I417J0*
G01*
D02*
G37*
G36*
X-21707Y23350D02*
G75*
D01*
G03X-21707Y23350I307J0*
G01*
D02*
G37*
G36*
X-25067Y24500D02*
G75*
D01*
G03X-25067Y24500I417J0*
G01*
D02*
G37*
G36*
X-20757Y24450D02*
G75*
D01*
G03X-20757Y24450I307J0*
G01*
D02*
G37*
G36*
X-25854Y25000D02*
G75*
D01*
G03X-25854Y25000I417J0*
G01*
D02*
G37*
G36*
X-24260Y25352D02*
X-24260Y25352D01*
X-24502Y25352D01*
X-24502Y25110D01*
G74*
D01*
G03X-24260Y25352I148J390*
G01*
D02*
G37*
G36*
X-24798Y25110D02*
X-24798Y25110D01*
X-24798Y25352D01*
X-25040Y25352D01*
G74*
D01*
G03X-24798Y25110I390J148*
G01*
D02*
G37*
G36*
X-24057Y25050D02*
G75*
D01*
G03X-24057Y25050I307J0*
G01*
D02*
G37*
%LPD*%
G36*
X-21227Y7216D02*
G75*
D01*
G03X-20860Y7216I183J234*
G01*
X-20860Y7216D01*
X-20860Y7000D01*
X-21227Y7000D01*
X-21227Y7216D01*
D02*
G37*
G36*
X-23227Y7216D02*
G75*
D01*
G03X-22860Y7216I183J234*
G01*
X-22860Y7216D01*
X-22860Y7000D01*
X-23227Y7000D01*
X-23227Y7216D01*
D02*
G37*
G54D11*
X-21227Y7216D02*
G75*
D01*
G03X-20860Y7216I183J234*
G01*
X-20860Y7000D01*
X-21227Y7000D01*
X-21227Y7216D01*
X-23227Y7216D02*
G75*
D01*
G03X-22860Y7216I183J234*
G01*
X-22860Y7000D01*
X-23227Y7000D01*
X-23227Y7216D01*
X-19005Y26979D02*
G75*
D01*
G03X-19005Y26979I205J-229*
G01*
X-19005Y8552D02*
G75*
D01*
G03X-19005Y8552I205J-152*
G01*
X-19005Y9552D02*
G75*
D01*
G03X-19005Y9552I205J-152*
G01*
X-19005Y11512D02*
G75*
D01*
G03X-19005Y11512I-413J-362*
G01*
X-19005Y13637D02*
G75*
D01*
G03X-19005Y13637I-195J-237*
G01*
X-19005Y7552D02*
G75*
D01*
G03X-19005Y7552I205J-152*
G01*
X-19005Y17265D02*
G75*
D01*
G03X-19005Y17265I155J-265*
G01*
X-22440Y25677D02*
G75*
D01*
G03X-22440Y25677I140J273*
G01*
X-24260Y25648D02*
G74*
D01*
G03X-24502Y25890I390J148*
G01*
X-24502Y25648D01*
X-24260Y25648D01*
X-24736Y25677D02*
G75*
D01*
G03X-24736Y25677I86J-177*
G01*
X-25040Y25648D02*
X-24798Y25648D01*
X-24798Y25890D01*
G74*
D01*
G03X-25040Y25648I148J390*
G01*
X-25701Y25677D02*
G75*
D01*
G03X-25701Y25677I264J323*
G01*
X-19436Y26000D02*
G75*
D01*
G03X-19564Y26000I-64J299*
G01*
G75*
D01*
G03X-19436Y26000I64J-299*
G01*
X-17407Y26200D02*
G75*
D01*
G03X-17407Y26200I307J0*
G01*
X-17107Y27350D02*
G75*
D01*
G03X-17107Y27350I307J0*
G01*
X-18607Y28800D02*
G75*
D01*
G03X-18607Y28800I307J0*
G01*
X-18757Y31250D02*
G75*
D01*
G03X-18757Y31250I307J0*
G01*
X-18407Y15650D02*
G75*
D01*
G03X-18407Y15650I307J0*
G01*
X-18455Y7400D02*
G75*
D01*
G03X-18455Y7400I255J0*
G01*
X-17855Y7400D02*
G75*
D01*
G03X-17855Y7400I255J0*
G01*
X-16655Y7400D02*
G75*
D01*
G03X-16655Y7400I255J0*
G01*
X-17255Y7400D02*
G75*
D01*
G03X-17255Y7400I255J0*
G01*
X-18455Y8400D02*
G75*
D01*
G03X-18455Y8400I255J0*
G01*
X-17855Y8400D02*
G75*
D01*
G03X-17855Y8400I255J0*
G01*
X-16655Y8400D02*
G75*
D01*
G03X-16655Y8400I255J0*
G01*
X-17255Y8400D02*
G75*
D01*
G03X-17255Y8400I255J0*
G01*
X-18455Y9400D02*
G75*
D01*
G03X-18455Y9400I255J0*
G01*
X-17855Y9400D02*
G75*
D01*
G03X-17855Y9400I255J0*
G01*
X-17255Y9400D02*
G75*
D01*
G03X-17255Y9400I255J0*
G01*
X-16655Y9400D02*
G75*
D01*
G03X-16655Y9400I255J0*
G01*
X-17457Y11150D02*
G75*
D01*
G03X-17457Y11150I307J0*
G01*
X-18075Y14886D02*
G75*
D01*
G03X-18075Y14614I-274J-136*
G01*
G75*
D01*
G03X-18075Y14886I274J136*
G01*
X-17607Y15200D02*
G75*
D01*
G03X-17607Y15200I307J0*
G01*
X-17507Y25300D02*
G75*
D01*
G03X-17507Y25300I307J0*
G01*
X-18427Y17500D02*
G75*
D01*
G03X-18427Y17500I327J0*
G01*
X-17557Y19700D02*
G75*
D01*
G03X-17557Y19700I307J0*
G01*
X-25854Y27000D02*
G75*
D01*
G03X-25854Y27000I417J0*
G01*
X-25067Y26500D02*
G75*
D01*
G03X-25067Y26500I417J0*
G01*
X-21211Y27450D02*
G75*
D01*
G03X-21195Y26937I211J-250*
G01*
G75*
D01*
G03X-20805Y26937I195J-236*
G01*
G75*
D01*
G03X-20789Y27450I-195J263*
G01*
G75*
D01*
G03X-21211Y27450I-211J250*
G01*
X-24427Y27350D02*
G75*
D01*
G03X-24427Y27350I327J0*
G01*
X-22957Y27450D02*
G75*
D01*
G03X-22957Y27450I307J0*
G01*
X-22257Y27650D02*
G75*
D01*
G03X-22257Y27650I307J0*
G01*
X-19536Y27625D02*
G75*
D01*
G03X-19264Y27625I136J-274*
G01*
G75*
D01*
G03X-19536Y27625I-136J274*
G01*
X-27857Y28000D02*
G75*
D01*
G03X-27857Y28000I307J0*
G01*
X-19875Y29086D02*
G75*
D01*
G03X-19875Y28814I-274J-136*
G01*
G75*
D01*
G03X-19875Y29086I274J136*
G01*
X-26307Y30350D02*
G75*
D01*
G03X-26307Y30350I307J0*
G01*
X-24257Y30350D02*
G75*
D01*
G03X-24257Y30350I307J0*
G01*
X-21407Y30700D02*
G75*
D01*
G03X-21407Y30700I307J0*
G01*
X-20407Y30700D02*
G75*
D01*
G03X-20407Y30700I307J0*
G01*
X-21957Y15700D02*
G75*
D01*
G03X-21957Y15700I307J0*
G01*
X-27855Y7400D02*
G75*
D01*
G03X-27855Y7400I255J0*
G01*
X-27255Y7400D02*
G75*
D01*
G03X-27255Y7400I255J0*
G01*
X-26055Y7400D02*
G75*
D01*
G03X-26055Y7400I255J0*
G01*
X-26655Y7400D02*
G75*
D01*
G03X-26655Y7400I255J0*
G01*
X-25455Y7400D02*
G75*
D01*
G03X-25455Y7400I255J0*
G01*
X-24855Y7400D02*
G75*
D01*
G03X-24855Y7400I255J0*
G01*
X-24255Y7400D02*
G75*
D01*
G03X-24255Y7400I255J0*
G01*
X-20255Y7400D02*
G75*
D01*
G03X-20255Y7400I255J0*
G01*
X-19655Y7400D02*
G75*
D01*
G03X-19655Y7400I255J0*
G01*
X-27855Y8400D02*
G75*
D01*
G03X-27855Y8400I255J0*
G01*
X-27255Y8400D02*
G75*
D01*
G03X-27255Y8400I255J0*
G01*
X-26055Y8400D02*
G75*
D01*
G03X-26055Y8400I255J0*
G01*
X-26655Y8400D02*
G75*
D01*
G03X-26655Y8400I255J0*
G01*
X-25455Y8400D02*
G75*
D01*
G03X-25455Y8400I255J0*
G01*
X-24855Y8400D02*
G75*
D01*
G03X-24855Y8400I255J0*
G01*
X-24255Y8400D02*
G75*
D01*
G03X-24255Y8400I255J0*
G01*
X-22561Y8450D02*
G75*
D01*
G03X-22561Y8450I517J0*
G01*
X-20255Y8400D02*
G75*
D01*
G03X-20255Y8400I255J0*
G01*
X-19655Y8400D02*
G75*
D01*
G03X-19655Y8400I255J0*
G01*
X-27855Y9400D02*
G75*
D01*
G03X-27855Y9400I255J0*
G01*
X-27255Y9400D02*
G75*
D01*
G03X-27255Y9400I255J0*
G01*
X-26655Y9400D02*
G75*
D01*
G03X-26655Y9400I255J0*
G01*
X-26055Y9400D02*
G75*
D01*
G03X-26055Y9400I255J0*
G01*
X-25455Y9400D02*
G75*
D01*
G03X-25455Y9400I255J0*
G01*
X-24855Y9400D02*
G75*
D01*
G03X-24855Y9400I255J0*
G01*
X-24255Y9400D02*
G75*
D01*
G03X-24255Y9400I255J0*
G01*
X-22810Y9633D02*
X-22560Y9633D01*
G74*
D01*
G03X-22860Y9934I484J182*
G01*
X-22860Y9684D01*
G75*
D01*
G03X-23227Y9684I-184J-234*
G01*
X-23227Y9934D01*
G74*
D01*
G03X-23528Y9633I183J484*
G01*
X-23278Y9633D01*
G75*
D01*
G03X-23278Y9267I234J-183*
G01*
X-23528Y9267D01*
G74*
D01*
G03X-23227Y8966I484J183*
G01*
X-23227Y9216D01*
G75*
D01*
G03X-22860Y9216I183J234*
G01*
X-22860Y8966D01*
G74*
D01*
G03X-22560Y9267I184J483*
G01*
X-22810Y9267D01*
G75*
D01*
G03X-22810Y9633I-234J183*
G01*
X-20810Y9633D02*
X-20560Y9633D01*
G74*
D01*
G03X-20860Y9934I484J182*
G01*
X-20860Y9684D01*
G75*
D01*
G03X-21227Y9684I-184J-234*
G01*
X-21227Y9934D01*
G74*
D01*
G03X-21528Y9633I183J484*
G01*
X-21278Y9633D01*
G75*
D01*
G03X-21278Y9267I234J-183*
G01*
X-21528Y9267D01*
G74*
D01*
G03X-21227Y8966I484J183*
G01*
X-21227Y9216D01*
G75*
D01*
G03X-20860Y9216I183J234*
G01*
X-20860Y8966D01*
G74*
D01*
G03X-20560Y9267I184J483*
G01*
X-20810Y9267D01*
G75*
D01*
G03X-20810Y9633I-234J183*
G01*
X-20255Y9400D02*
G75*
D01*
G03X-20255Y9400I255J0*
G01*
X-19655Y9400D02*
G75*
D01*
G03X-19655Y9400I255J0*
G01*
X-24154Y10955D02*
X-24473Y10955D01*
X-24473Y10636D01*
G74*
D01*
G03X-24154Y10955I194J513*
G01*
X-24868Y11150D02*
G75*
D01*
G03X-24868Y11150I200J0*
G01*
X-24863Y10636D02*
X-24863Y10955D01*
X-25183Y10955D01*
G74*
D01*
G03X-24863Y10636I514J196*
G01*
X-24473Y11664D02*
X-24473Y11345D01*
X-24154Y11345D01*
G74*
D01*
G03X-24473Y11664I513J194*
G01*
X-25183Y11345D02*
X-24863Y11345D01*
X-24863Y11664D01*
G74*
D01*
G03X-25183Y11345I193J514*
G01*
X-23107Y12400D02*
G75*
D01*
G03X-23107Y12400I307J0*
G01*
X-21207Y14150D02*
G75*
D01*
G03X-21207Y14150I307J0*
G01*
X-19927Y14750D02*
G75*
D01*
G03X-19927Y14750I327J0*
G01*
X-25557Y17850D02*
G75*
D01*
G03X-25557Y17850I307J0*
G01*
X-26007Y19150D02*
G75*
D01*
G03X-26007Y19150I307J0*
G01*
X-27057Y19850D02*
G75*
D01*
G03X-27057Y19850I307J0*
G01*
X-23127Y22200D02*
G75*
D01*
G03X-23127Y22200I327J0*
G01*
X-21557Y22350D02*
G75*
D01*
G03X-21557Y22350I307J0*
G01*
X-25854Y23000D02*
G75*
D01*
G03X-25854Y23000I417J0*
G01*
X-22157Y22600D02*
G75*
D01*
G03X-22157Y22600I307J0*
G01*
X-25854Y24000D02*
G75*
D01*
G03X-25854Y24000I417J0*
G01*
X-25067Y23500D02*
G75*
D01*
G03X-25067Y23500I417J0*
G01*
X-21707Y23350D02*
G75*
D01*
G03X-21707Y23350I307J0*
G01*
X-25067Y24500D02*
G75*
D01*
G03X-25067Y24500I417J0*
G01*
X-20757Y24450D02*
G75*
D01*
G03X-20757Y24450I307J0*
G01*
X-25854Y25000D02*
G75*
D01*
G03X-25854Y25000I417J0*
G01*
X-24260Y25352D02*
X-24502Y25352D01*
X-24502Y25110D01*
G74*
D01*
G03X-24260Y25352I148J390*
G01*
X-24798Y25110D02*
X-24798Y25352D01*
X-25040Y25352D01*
G74*
D01*
G03X-24798Y25110I390J148*
G01*
X-24057Y25050D02*
G75*
D01*
G03X-24057Y25050I307J0*
G01*
X-15855Y32008D02*
X-15855Y7283D01*
G75*
D01*
G03X-15855Y7278I110J-2*
G01*
G74*
D01*
G02X-16133Y7000I283J5*
G01*
X-16138Y7000D01*
X-20788Y7000D01*
G74*
D01*
G03X-20560Y7267I256J449*
G01*
X-20810Y7267D01*
G75*
D01*
G03X-20810Y7633I-234J183*
G01*
X-20560Y7633D01*
G74*
D01*
G03X-20860Y7934I484J182*
G01*
X-20860Y7684D01*
G75*
D01*
G03X-21227Y7684I-184J-234*
G01*
X-21227Y7934D01*
G74*
D01*
G03X-21528Y7633I183J484*
G01*
X-21278Y7633D01*
G75*
D01*
G03X-21278Y7267I234J-183*
G01*
X-21528Y7267D01*
G74*
D01*
G03X-21300Y7000I484J182*
G01*
X-22788Y7000D01*
G74*
D01*
G03X-22560Y7267I256J449*
G01*
X-22810Y7267D01*
G75*
D01*
G03X-22810Y7633I-234J183*
G01*
X-22560Y7633D01*
G74*
D01*
G03X-22860Y7934I484J182*
G01*
X-22860Y7684D01*
G75*
D01*
G03X-23227Y7684I-184J-234*
G01*
X-23227Y7934D01*
G74*
D01*
G03X-23528Y7633I183J484*
G01*
X-23278Y7633D01*
G75*
D01*
G03X-23278Y7267I234J-183*
G01*
X-23528Y7267D01*
G74*
D01*
G03X-23300Y7000I484J182*
G01*
X-27949Y7000D01*
G75*
D01*
G03X-27954Y7000I-3J-110*
G01*
G74*
D01*
G02X-28233Y7278I4J283*
G01*
G75*
D01*
G03X-28232Y7283I-107J24*
G01*
X-28232Y32008D01*
G74*
D01*
G03X-28233Y32013I109J19*
G01*
G74*
D01*
G02X-27954Y32291I284J6*
G01*
G75*
D01*
G03X-27949Y32291I2J110*
G01*
X-16138Y32291D01*
X-16133Y32291D01*
G74*
D01*
G02X-15855Y32013I5J283*
G01*
G74*
D01*
G03X-15855Y32008I110J2*
G01*
G54D12*
X-22044Y8450D03*
X-21044Y9450D03*
X-23044Y9450D03*
X-21044Y7450D03*
X-23044Y7450D03*
G54D13*
X-18200Y7400D03*
X-18200Y8400D03*
X-20000Y9400D03*
X-19400Y9400D03*
X-18800Y9400D03*
X-18200Y9400D03*
X-17600Y9400D03*
X-17000Y9400D03*
X-16400Y9400D03*
X-20000Y8400D03*
X-19400Y8400D03*
X-18800Y8400D03*
X-17000Y8400D03*
X-17600Y8400D03*
X-16400Y8400D03*
X-20000Y7400D03*
X-19400Y7400D03*
X-18800Y7400D03*
X-16400Y7400D03*
X-17000Y7400D03*
X-17600Y7400D03*
X-24000Y7400D03*
X-24600Y7400D03*
X-25200Y7400D03*
X-25800Y7400D03*
X-26400Y7400D03*
X-27000Y7400D03*
X-27600Y7400D03*
X-24000Y8400D03*
X-24600Y8400D03*
X-24000Y9400D03*
X-24600Y9400D03*
X-25200Y9400D03*
X-27600Y9400D03*
X-27600Y8400D03*
X-25200Y8400D03*
X-25800Y8400D03*
X-26400Y8400D03*
X-27000Y8400D03*
X-27000Y9400D03*
X-26400Y9400D03*
X-25800Y9400D03*
G54D14*
X-25250Y17850D03*
X-25700Y19150D03*
X-21000Y27200D03*
X-21000Y27700D03*
X-24100Y27350D03*
X-19600Y14750D03*
X-22800Y22200D03*
X-18100Y17500D03*
X-21100Y30700D03*
X-20100Y30700D03*
X-17300Y15200D03*
X-17250Y19700D03*
X-26000Y30350D03*
X-27200Y30350D03*
X-27550Y28000D03*
X-27550Y27000D03*
X-22050Y29600D03*
X-23100Y31000D03*
X-24100Y28000D03*
X-17800Y14750D03*
X-18350Y14750D03*
X-21950Y27650D03*
X-22300Y25950D03*
X-21650Y25950D03*
X-17100Y24400D03*
X-18300Y22350D03*
X-18950Y15350D03*
X-16600Y15500D03*
X-23050Y23650D03*
X-27550Y19850D03*
X-20900Y12200D03*
X-21250Y22350D03*
X-19600Y28950D03*
X-23950Y30350D03*
X-23750Y25050D03*
X-18800Y26750D03*
X-19800Y31800D03*
X-18450Y31250D03*
X-26200Y12300D03*
X-22800Y12400D03*
X-16500Y11950D03*
X-17800Y13350D03*
X-21650Y16250D03*
X-19200Y13400D03*
X-17150Y11150D03*
X-21400Y23350D03*
X-20900Y14150D03*
X-19500Y25700D03*
X-18100Y15650D03*
X-20450Y24450D03*
X-19400Y27350D03*
X-16800Y27350D03*
X-19400Y27900D03*
X-18300Y28800D03*
X-21000Y26700D03*
X-20150Y28950D03*
X-17200Y25300D03*
X-18850Y17000D03*
X-19500Y26300D03*
X-22650Y27450D03*
X-26750Y19850D03*
X-21850Y22600D03*
X-19200Y20950D03*
X-16800Y26800D03*
X-21400Y18800D03*
X-21650Y15700D03*
X-17100Y26200D03*
G54D15*
X-24668Y11150D03*
X-19418Y11150D03*
G54D16*
X-25437Y27000D03*
X-25437Y26000D03*
X-25437Y25000D03*
X-25437Y24000D03*
X-25437Y23000D03*
X-24650Y26500D03*
X-24650Y25500D03*
X-24650Y24500D03*
X-24650Y23500D03*

M02*
