M48
INCH,TZ
VER,1
FMAT,2
DETECT,ON
ATC,ON
T1C0.0595
T2C0.0140
T3C0.0236
T4C0.0400
T5C0.1142
T6C0.0394
%
T1
X-22044Y8450
X-21044Y9450
X-23044
X-21044Y7450
X-23044
T2
X-18200Y7400
Y8400
X-20000Y9400
X-19400
X-18800
X-18200
X-17600
X-17000
X-16400
X-20000Y8400
X-19400
X-18800
X-17000
X-17600
X-16400
X-20000Y7400
X-19400
X-18800
X-16400
X-17000
X-17600
X-24000
X-24600
X-25200
X-25800
X-26400
X-27000
X-27600
X-24000Y8400
X-24600
X-24000Y9400
X-24600
X-25200
X-27600
Y8400
X-25200
X-25800
X-26400
X-27000
Y9400
X-26400
X-25800
T3
X-25250Y17850
X-25700Y19150
X-21000Y27200
Y27700
X-24100Y27350
X-19600Y14750
X-22800Y22200
X-18100Y17500
X-21100Y30700
X-20100
X-17300Y15200
X-17250Y19700
X-26000Y30350
X-27200
X-27550Y28000
Y27000
X-22050Y29600
X-23100Y31000
X-24100Y28000
X-17800Y14750
X-18350
X-21950Y27650
X-22300Y25950
X-21650
X-17100Y24400
X-18300Y22350
X-18950Y15350
X-16600Y15500
X-23050Y23650
X-27550Y19850
X-20900Y12200
X-21250Y22350
X-19600Y28950
X-23950Y30350
X-23750Y25050
X-18800Y26750
X-19800Y31800
X-18450Y31250
X-26200Y12300
X-22800Y12400
X-16500Y11950
X-17800Y13350
X-21650Y16250
X-19200Y13400
X-17150Y11150
X-21400Y23350
X-20900Y14150
X-19500Y25700
X-18100Y15650
X-20450Y24450
X-19400Y27350
X-16800
X-19400Y27900
X-18300Y28800
X-21000Y26700
X-20150Y28950
X-17200Y25300
X-18850Y17000
X-19500Y26300
X-22650Y27450
X-26750Y19850
X-21850Y22600
X-19200Y20950
X-16800Y26800
X-21400Y18800
X-21650Y15700
X-17100Y26200
T4
X-24668Y11150
X-19418
T5
X-22043Y24000
T6
X-25437Y27000
Y26000
Y25000
Y24000
Y23000
X-24650Y26500
Y25500
Y24500
Y23500
M30
