G04 Generated by Ultiboard 14.0 *
%FSLAX24Y24*%
%MOIN*%

%ADD10C,0.0001*%
%ADD11C,0.0080*%
%ADD12C,0.0061*%
%ADD13C,0.0079*%
%ADD14C,0.0098*%
%ADD15C,0.0001*%
%ADD16C,0.0039*%
%ADD17C,0.0100*%
%ADD18C,0.0037*%
%ADD19C,0.01969*%
%ADD20C,0.01000*%


G04 ColorRGB FFFF00 for the following layer *
%LNSilkscreen Top*%
%LPD*%
G54D10*
G54D11*
X-20461Y28139D02*
X-20461Y25461D01*
X-23139Y25461D01*
X-23139Y28139D01*
X-20461Y28139D01*
X-20796Y27916D02*
G75*
D01*
G02X-20796Y27916I98J0*
G01*
X-19179Y15102D02*
X-19170Y15102D01*
X-19162Y15103D01*
X-19153Y15105D01*
X-19145Y15108D01*
X-19137Y15111D01*
X-19130Y15115D01*
X-19122Y15119D01*
X-19115Y15125D01*
X-19109Y15130D01*
X-19103Y15137D01*
X-19098Y15144D01*
X-19094Y15151D01*
X-19090Y15158D01*
X-19086Y15166D01*
X-19084Y15175D01*
X-19082Y15183D01*
X-19081Y15191D01*
X-19080Y15200D01*
X-19081Y15209D01*
X-19082Y15217D01*
X-19084Y15225D01*
X-19086Y15234D01*
X-19090Y15242D01*
X-19094Y15249D01*
X-19098Y15256D01*
X-19103Y15263D01*
X-19109Y15270D01*
X-19115Y15275D01*
X-19122Y15281D01*
X-19130Y15285D01*
X-19137Y15289D01*
X-19145Y15292D01*
X-19153Y15295D01*
X-19162Y15297D01*
X-19170Y15298D01*
X-19179Y15298D01*
X-19118Y14700D02*
G75*
D01*
G02X-19118Y14700I59J0*
G01*
X-19200Y15900D02*
X-17200Y15900D01*
X-19200Y14500D02*
X-17200Y14500D01*
X-19200Y15106D02*
X-19200Y14500D01*
X-19200Y15906D02*
X-19200Y15300D01*
X-17200Y14491D02*
X-17200Y15900D01*
X-27950Y12872D02*
X-21650Y12872D01*
X-21650Y21928D01*
X-27950Y21928D01*
X-27950Y12872D01*
X-21000Y29974D02*
X-23087Y29974D01*
X-23087Y29226D01*
X-21000Y29226D01*
X-21000Y29974D01*
X-28061Y24867D02*
X-28061Y25261D01*
X-27904Y25261D01*
X-27826Y25182D01*
X-27826Y25143D01*
X-27904Y25064D01*
X-28061Y25064D01*
X-28022Y25064D02*
X-27826Y24867D01*
X-27473Y25261D02*
X-27708Y25261D01*
X-27708Y25103D01*
X-27551Y25103D01*
X-27473Y25024D01*
X-27473Y24946D01*
X-27551Y24867D01*
X-27708Y24867D01*
X-25927Y24590D02*
X-27260Y24590D01*
X-27260Y25423D02*
X-25927Y25423D01*
X-27260Y24590D02*
X-27260Y25423D01*
X-25927Y25423D02*
X-25927Y24590D01*
X-28061Y23867D02*
X-28061Y24261D01*
X-27904Y24261D01*
X-27826Y24182D01*
X-27826Y24143D01*
X-27904Y24064D01*
X-28061Y24064D01*
X-28022Y24064D02*
X-27826Y23867D01*
X-27669Y24221D02*
X-27630Y24261D01*
X-27551Y24261D01*
X-27473Y24182D01*
X-27473Y24103D01*
X-27512Y24064D01*
X-27473Y24024D01*
X-27473Y23946D01*
X-27551Y23867D01*
X-27630Y23867D01*
X-27669Y23906D01*
X-27630Y24064D02*
X-27512Y24064D01*
X-25927Y23590D02*
X-27260Y23590D01*
X-27260Y24423D02*
X-25927Y24423D01*
X-27260Y23590D02*
X-27260Y24423D01*
X-25927Y24423D02*
X-25927Y23590D01*
X-28061Y25867D02*
X-28061Y26261D01*
X-27904Y26261D01*
X-27826Y26182D01*
X-27826Y26143D01*
X-27904Y26064D01*
X-28061Y26064D01*
X-28022Y26064D02*
X-27826Y25867D01*
X-27708Y26182D02*
X-27630Y26261D01*
X-27551Y26261D01*
X-27473Y26182D01*
X-27473Y26143D01*
X-27708Y25867D01*
X-27473Y25867D01*
X-27473Y25906D01*
X-25927Y25590D02*
X-27260Y25590D01*
X-27260Y26423D02*
X-25927Y26423D01*
X-27260Y25590D02*
X-27260Y26423D01*
X-25927Y26423D02*
X-25927Y25590D01*
X-27752Y31960D02*
X-27752Y28850D01*
X-24248Y31960D02*
X-24248Y28850D01*
X-28211Y27417D02*
X-28211Y27811D01*
X-28054Y27811D01*
X-27976Y27732D01*
X-27976Y27693D01*
X-28054Y27614D01*
X-28211Y27614D01*
X-28172Y27614D02*
X-27976Y27417D01*
X-27819Y27732D02*
X-27741Y27811D01*
X-27741Y27417D01*
X-27858Y27417D02*
X-27623Y27417D01*
X-25942Y27583D02*
X-27275Y27583D01*
X-27275Y28417D02*
X-25942Y28417D01*
X-27275Y27583D02*
X-27275Y28417D01*
X-25942Y28417D02*
X-25942Y27583D01*
X-28017Y26668D02*
X-28083Y26627D01*
X-28150Y26627D01*
X-28217Y26668D01*
X-28217Y26789D01*
X-28150Y26830D01*
X-28083Y26830D01*
X-28017Y26789D01*
X-27717Y26708D02*
X-27917Y26708D01*
X-27750Y26830D01*
X-27750Y26627D01*
X-27783Y26627D02*
X-27717Y26627D01*
X-27257Y27424D02*
X-25923Y27424D01*
X-25923Y26591D02*
X-27257Y26591D01*
X-25923Y27424D02*
X-25923Y26591D01*
X-27257Y26591D02*
X-27257Y27424D01*
X-20211Y11917D02*
X-20211Y12311D01*
X-20054Y12311D01*
X-19976Y12232D01*
X-19976Y12193D01*
X-20054Y12114D01*
X-20211Y12114D01*
X-20172Y12114D02*
X-19976Y11917D01*
X-19623Y12074D02*
X-19858Y12074D01*
X-19662Y12311D01*
X-19662Y11917D01*
X-19701Y11917D02*
X-19623Y11917D01*
X-20267Y12492D02*
X-20267Y13825D01*
X-19433Y13825D02*
X-19433Y12492D01*
X-20267Y13825D02*
X-19433Y13825D01*
X-19433Y12492D02*
X-20267Y12492D01*
X-17011Y18667D02*
X-17011Y19061D01*
X-16854Y19061D01*
X-16776Y18982D01*
X-16776Y18943D01*
X-16854Y18864D01*
X-17011Y18864D01*
X-16972Y18864D02*
X-16776Y18667D01*
X-16658Y18746D02*
X-16580Y18667D01*
X-16501Y18667D01*
X-16423Y18746D01*
X-16423Y18903D01*
X-16423Y18982D01*
X-16501Y19061D01*
X-16580Y19061D01*
X-16658Y18982D01*
X-16658Y18903D01*
X-16580Y18824D01*
X-16501Y18824D01*
X-16423Y18903D01*
X-16193Y19200D02*
X-18027Y19200D01*
X-18027Y20200D02*
X-16193Y20200D01*
X-18027Y19200D02*
X-18027Y20200D01*
X-16193Y20200D02*
X-16193Y19200D01*
X-24117Y23080D02*
X-24117Y22918D01*
X-24050Y22877D01*
X-23983Y22877D01*
X-23917Y22918D01*
X-23917Y23080D01*
X-23817Y23039D02*
X-23750Y23080D01*
X-23683Y23080D01*
X-23617Y23039D01*
X-23617Y23019D01*
X-23817Y22877D01*
X-23617Y22877D01*
X-23617Y22898D01*
X-23517Y23039D02*
X-23450Y23080D01*
X-23383Y23080D01*
X-23317Y23039D01*
X-23317Y22918D01*
X-23383Y22877D01*
X-23450Y22877D01*
X-23517Y22918D01*
X-23517Y23039D01*
X-23317Y23039D02*
X-23517Y22918D01*
X-23333Y24667D02*
X-23333Y23333D01*
X-24167Y23333D02*
X-24167Y24667D01*
X-23333Y23333D02*
X-24167Y23333D01*
X-24167Y24667D02*
X-23333Y24667D01*
X-16050Y16316D02*
X-16050Y18284D01*
X-17050Y18284D01*
X-17050Y16316D01*
X-16050Y16316D01*
X-21161Y11567D02*
X-21161Y11961D01*
X-21004Y11961D01*
X-20926Y11882D01*
X-20926Y11843D01*
X-21004Y11764D01*
X-21161Y11764D01*
X-21122Y11764D02*
X-20926Y11567D01*
X-20691Y11567D02*
X-20691Y11764D01*
X-20573Y11882D01*
X-20573Y11961D01*
X-20808Y11961D01*
X-20808Y11882D01*
X-21317Y12492D02*
X-21317Y13825D01*
X-20483Y13825D02*
X-20483Y12492D01*
X-21317Y13825D02*
X-20483Y13825D01*
X-20483Y12492D02*
X-21317Y12492D01*
X-23661Y30067D02*
X-23661Y30461D01*
X-23504Y30461D01*
X-23426Y30382D01*
X-23426Y30343D01*
X-23504Y30264D01*
X-23661Y30264D01*
X-23622Y30264D02*
X-23426Y30067D01*
X-23269Y30382D02*
X-23191Y30461D01*
X-23191Y30067D01*
X-23308Y30067D02*
X-23073Y30067D01*
X-22955Y30382D02*
X-22877Y30461D01*
X-22799Y30461D01*
X-22720Y30382D01*
X-22720Y30146D01*
X-22799Y30067D01*
X-22877Y30067D01*
X-22955Y30146D01*
X-22955Y30382D01*
X-22720Y30382D02*
X-22955Y30146D01*
X-24117Y28642D02*
X-24117Y29975D01*
X-23283Y29975D02*
X-23283Y28642D01*
X-24117Y29975D02*
X-23283Y29975D01*
X-23283Y28642D02*
X-24117Y28642D01*
X-18198Y20475D02*
X-16702Y20475D01*
X-17627Y23625D02*
X-17626Y23609D01*
X-17624Y23594D01*
X-17621Y23579D01*
X-17616Y23564D01*
X-17611Y23550D01*
X-17603Y23536D01*
X-17595Y23523D01*
X-17586Y23511D01*
X-17575Y23500D01*
X-17564Y23489D01*
X-17552Y23480D01*
X-17539Y23471D01*
X-17525Y23464D01*
X-17511Y23458D01*
X-17496Y23454D01*
X-17481Y23450D01*
X-17465Y23448D01*
X-17450Y23448D01*
X-17435Y23448D01*
X-17419Y23450D01*
X-17404Y23454D01*
X-17389Y23458D01*
X-17375Y23464D01*
X-17361Y23471D01*
X-17348Y23480D01*
X-17336Y23489D01*
X-17325Y23500D01*
X-17314Y23511D01*
X-17305Y23523D01*
X-17297Y23536D01*
X-17289Y23550D01*
X-17284Y23564D01*
X-17279Y23579D01*
X-17276Y23594D01*
X-17274Y23609D01*
X-17273Y23625D01*
X-16702Y23625D02*
X-17273Y23625D01*
X-17627Y23625D02*
X-18198Y23625D01*
X-16750Y22750D02*
X-16750Y21350D01*
X-18150Y22750D02*
X-18150Y21350D01*
X-18090Y29210D02*
X-16010Y29210D01*
X-16010Y31290D01*
X-18090Y31290D01*
X-17898Y29433D02*
G75*
D01*
G02X-17898Y29433I98J0*
G01*
X-18090Y30053D02*
X-18073Y30054D01*
X-18056Y30056D01*
X-18039Y30060D01*
X-18023Y30065D01*
X-18007Y30072D01*
X-17992Y30080D01*
X-17977Y30089D01*
X-17963Y30099D01*
X-17951Y30111D01*
X-17939Y30123D01*
X-17929Y30137D01*
X-17919Y30152D01*
X-17912Y30167D01*
X-17905Y30183D01*
X-17900Y30199D01*
X-17896Y30216D01*
X-17894Y30233D01*
X-17893Y30250D01*
X-17894Y30267D01*
X-17896Y30284D01*
X-17900Y30301D01*
X-17905Y30317D01*
X-17912Y30333D01*
X-17919Y30348D01*
X-17929Y30363D01*
X-17939Y30377D01*
X-17951Y30389D01*
X-17963Y30401D01*
X-17977Y30411D01*
X-17992Y30420D01*
X-18007Y30428D01*
X-18023Y30435D01*
X-18039Y30440D01*
X-18056Y30444D01*
X-18073Y30446D01*
X-18090Y30447D01*
X-18090Y31290D02*
X-18090Y30447D01*
X-18090Y30053D02*
X-18090Y29210D01*
X-24167Y28480D02*
X-24167Y28318D01*
X-24100Y28277D01*
X-24033Y28277D01*
X-23967Y28318D01*
X-23967Y28480D01*
X-23833Y28439D02*
X-23767Y28480D01*
X-23767Y28277D01*
X-23867Y28277D02*
X-23667Y28277D01*
X-23567Y28318D02*
X-23500Y28277D01*
X-23433Y28277D01*
X-23367Y28318D01*
X-23367Y28399D01*
X-23367Y28439D01*
X-23433Y28480D01*
X-23500Y28480D01*
X-23567Y28439D01*
X-23567Y28399D01*
X-23500Y28358D01*
X-23433Y28358D01*
X-23367Y28399D01*
X-25667Y28417D02*
X-24333Y28417D01*
X-24333Y27583D02*
X-25667Y27583D01*
X-24333Y28417D02*
X-24333Y27583D01*
X-25667Y27583D02*
X-25667Y28417D01*
X-17711Y10511D02*
X-17711Y10196D01*
X-17632Y10117D01*
X-17553Y10117D01*
X-17474Y10196D01*
X-17474Y10511D01*
X-17317Y10432D02*
X-17238Y10511D01*
X-17238Y10117D01*
X-17356Y10117D02*
X-17120Y10117D01*
X-17002Y10432D02*
X-16923Y10511D01*
X-16844Y10511D01*
X-16766Y10432D01*
X-16766Y10393D01*
X-17002Y10117D01*
X-16766Y10117D01*
X-16766Y10156D01*
X-23017Y12080D02*
X-23017Y11918D01*
X-22950Y11877D01*
X-22883Y11877D01*
X-22817Y11918D01*
X-22817Y12080D01*
X-22583Y11877D02*
X-22650Y11877D01*
X-22717Y11918D01*
X-22717Y11958D01*
X-22683Y11979D01*
X-22717Y11999D01*
X-22717Y12039D01*
X-22650Y12080D01*
X-22583Y12080D01*
X-22517Y12039D01*
X-22517Y11999D01*
X-22550Y11979D01*
X-22517Y11958D01*
X-22517Y11918D01*
X-22583Y11877D01*
X-22683Y11979D02*
X-22550Y11979D01*
X-22467Y11383D02*
X-22467Y12717D01*
X-21633Y12717D02*
X-21633Y11383D01*
X-22467Y12717D02*
X-21633Y12717D01*
X-21633Y11383D02*
X-22467Y11383D01*
X-24617Y11968D02*
X-24683Y11927D01*
X-24750Y11927D01*
X-24817Y11968D01*
X-24817Y12089D01*
X-24750Y12130D01*
X-24683Y12130D01*
X-24617Y12089D01*
X-24483Y12089D02*
X-24417Y12130D01*
X-24417Y11927D01*
X-24517Y11927D02*
X-24317Y11927D01*
X-24050Y12130D02*
X-24150Y12130D01*
X-24217Y12089D01*
X-24217Y12008D01*
X-24217Y11968D01*
X-24150Y11927D01*
X-24083Y11927D01*
X-24017Y11968D01*
X-24017Y12008D01*
X-24083Y12049D01*
X-24150Y12049D01*
X-24217Y12008D01*
X-23917Y11383D02*
X-23917Y12717D01*
X-23083Y12717D02*
X-23083Y11383D01*
X-23917Y12717D02*
X-23083Y12717D01*
X-23083Y11383D02*
X-23917Y11383D01*
X-26967Y11618D02*
X-27033Y11577D01*
X-27100Y11577D01*
X-27167Y11618D01*
X-27167Y11739D01*
X-27100Y11780D01*
X-27033Y11780D01*
X-26967Y11739D01*
X-26833Y11739D02*
X-26767Y11780D01*
X-26767Y11577D01*
X-26867Y11577D02*
X-26667Y11577D01*
X-26467Y11577D02*
X-26467Y11679D01*
X-26367Y11739D01*
X-26367Y11780D01*
X-26567Y11780D01*
X-26567Y11739D01*
X-26533Y11883D02*
X-27867Y11883D01*
X-27867Y12717D02*
X-26533Y12717D01*
X-27867Y11883D02*
X-27867Y12717D01*
X-26533Y12717D02*
X-26533Y11883D01*
X-27111Y11261D02*
X-27111Y10946D01*
X-27032Y10867D01*
X-26953Y10867D01*
X-26874Y10946D01*
X-26874Y11261D01*
X-26756Y11182D02*
X-26678Y11261D01*
X-26599Y11261D01*
X-26520Y11182D01*
X-26520Y11143D01*
X-26756Y10867D01*
X-26520Y10867D01*
X-26520Y10906D01*
X-26166Y11024D02*
X-26402Y11024D01*
X-26205Y11261D01*
X-26205Y10867D01*
X-26244Y10867D02*
X-26166Y10867D01*
X-17661Y11717D02*
X-17661Y12111D01*
X-17504Y12111D01*
X-17426Y12032D01*
X-17426Y11993D01*
X-17504Y11914D01*
X-17661Y11914D01*
X-17622Y11914D02*
X-17426Y11717D01*
X-17269Y12032D02*
X-17191Y12111D01*
X-17191Y11717D01*
X-17308Y11717D02*
X-17073Y11717D01*
X-16720Y11874D02*
X-16955Y11874D01*
X-16759Y12111D01*
X-16759Y11717D01*
X-16799Y11717D02*
X-16720Y11717D01*
X-17592Y11733D02*
X-18925Y11733D01*
X-18925Y12567D02*
X-17592Y12567D01*
X-18925Y11733D02*
X-18925Y12567D01*
X-17592Y12567D02*
X-17592Y11733D01*
X-24661Y10167D02*
X-24661Y10561D01*
X-24504Y10561D01*
X-24426Y10482D01*
X-24426Y10443D01*
X-24504Y10364D01*
X-24661Y10364D01*
X-24622Y10364D02*
X-24426Y10167D01*
X-24269Y10482D02*
X-24191Y10561D01*
X-24191Y10167D01*
X-24308Y10167D02*
X-24073Y10167D01*
X-23916Y10521D02*
X-23877Y10561D01*
X-23799Y10561D01*
X-23720Y10482D01*
X-23720Y10403D01*
X-23759Y10364D01*
X-23720Y10324D01*
X-23720Y10246D01*
X-23799Y10167D01*
X-23877Y10167D01*
X-23916Y10206D01*
X-23877Y10364D02*
X-23759Y10364D01*
X-23558Y10917D02*
X-22225Y10917D01*
X-22225Y10083D02*
X-23558Y10083D01*
X-22225Y10917D02*
X-22225Y10083D01*
X-23558Y10083D02*
X-23558Y10917D01*
X-19317Y31330D02*
X-19317Y31168D01*
X-19250Y31127D01*
X-19183Y31127D01*
X-19117Y31168D01*
X-19117Y31330D01*
X-19017Y31168D02*
X-18950Y31127D01*
X-18883Y31127D01*
X-18817Y31168D01*
X-18817Y31249D01*
X-18817Y31289D01*
X-18883Y31330D01*
X-18950Y31330D01*
X-19017Y31289D01*
X-19017Y31249D01*
X-18950Y31208D01*
X-18883Y31208D01*
X-18817Y31249D01*
X-18183Y31483D02*
X-19517Y31483D01*
X-19517Y32317D02*
X-18183Y32317D01*
X-19517Y31483D02*
X-19517Y32317D01*
X-18183Y32317D02*
X-18183Y31483D01*
X-21267Y20430D02*
X-21267Y20268D01*
X-21200Y20227D01*
X-21133Y20227D01*
X-21067Y20268D01*
X-21067Y20430D01*
X-20800Y20430D02*
X-20900Y20430D01*
X-20967Y20389D01*
X-20967Y20308D01*
X-20967Y20268D01*
X-20900Y20227D01*
X-20833Y20227D01*
X-20767Y20268D01*
X-20767Y20308D01*
X-20833Y20349D01*
X-20900Y20349D01*
X-20967Y20308D01*
X-21467Y20633D02*
X-21467Y21967D01*
X-20633Y21967D02*
X-20633Y20633D01*
X-21467Y21967D02*
X-20633Y21967D01*
X-20633Y20633D02*
X-21467Y20633D01*
X-19117Y21718D02*
X-19183Y21677D01*
X-19250Y21677D01*
X-19317Y21718D01*
X-19317Y21839D01*
X-19250Y21880D01*
X-19183Y21880D01*
X-19117Y21839D01*
X-18983Y21860D02*
X-18950Y21880D01*
X-18883Y21880D01*
X-18817Y21839D01*
X-18817Y21799D01*
X-18850Y21779D01*
X-18817Y21758D01*
X-18817Y21718D01*
X-18883Y21677D01*
X-18950Y21677D01*
X-18983Y21698D01*
X-18950Y21779D02*
X-18850Y21779D01*
X-18683Y23417D02*
X-18683Y22083D01*
X-19517Y22083D02*
X-19517Y23417D01*
X-18683Y22083D02*
X-19517Y22083D01*
X-19517Y23417D02*
X-18683Y23417D01*
X-17965Y27613D02*
X-17965Y28007D01*
X-17809Y28007D01*
X-17730Y27928D01*
X-17730Y27889D01*
X-17809Y27810D01*
X-17965Y27810D01*
X-17926Y27810D02*
X-17730Y27613D01*
X-17574Y27928D02*
X-17495Y28007D01*
X-17495Y27613D01*
X-17613Y27613D02*
X-17378Y27613D01*
X-17260Y27928D02*
X-17182Y28007D01*
X-17103Y28007D01*
X-17025Y27928D01*
X-17025Y27889D01*
X-17260Y27613D01*
X-17025Y27613D01*
X-17025Y27653D01*
X-18917Y27092D02*
X-18917Y28425D01*
X-18083Y28425D02*
X-18083Y27092D01*
X-18917Y28425D02*
X-18083Y28425D01*
X-18083Y27092D02*
X-18917Y27092D01*
X-17308Y12860D02*
X-17375Y12819D01*
X-17442Y12819D01*
X-17508Y12860D01*
X-17508Y12981D01*
X-17442Y13021D01*
X-17375Y13021D01*
X-17308Y12981D01*
X-17175Y12981D02*
X-17108Y13021D01*
X-17108Y12819D01*
X-17208Y12819D02*
X-17008Y12819D01*
X-16917Y12183D02*
X-16917Y13517D01*
X-16083Y13517D02*
X-16083Y12183D01*
X-16917Y13517D02*
X-16083Y13517D01*
X-16083Y12183D02*
X-16917Y12183D01*
X-16305Y15838D02*
X-15911Y15838D01*
X-15911Y15681D01*
X-15990Y15603D01*
X-16029Y15603D01*
X-16108Y15681D01*
X-16108Y15838D01*
X-16108Y15799D02*
X-16305Y15603D01*
X-16305Y15328D02*
X-16305Y15407D01*
X-16226Y15485D01*
X-16147Y15485D01*
X-16108Y15446D01*
X-16069Y15485D01*
X-15990Y15485D01*
X-15911Y15407D01*
X-15911Y15328D01*
X-15990Y15250D01*
X-16069Y15250D01*
X-16108Y15289D01*
X-16147Y15250D01*
X-16226Y15250D01*
X-16305Y15328D01*
X-16108Y15446D02*
X-16108Y15289D01*
X-16083Y15158D02*
X-16083Y13825D01*
X-16917Y13825D02*
X-16917Y15158D01*
X-16083Y13825D02*
X-16917Y13825D01*
X-16917Y15158D02*
X-16083Y15158D01*
X-20361Y30167D02*
X-20361Y30561D01*
X-20204Y30561D01*
X-20126Y30482D01*
X-20126Y30443D01*
X-20204Y30364D01*
X-20361Y30364D01*
X-20322Y30364D02*
X-20126Y30167D01*
X-19969Y30482D02*
X-19891Y30561D01*
X-19891Y30167D01*
X-20008Y30167D02*
X-19773Y30167D01*
X-19616Y30482D02*
X-19538Y30561D01*
X-19538Y30167D01*
X-19655Y30167D02*
X-19420Y30167D01*
X-19342Y29183D02*
X-20675Y29183D01*
X-20675Y30017D02*
X-19342Y30017D01*
X-20675Y29183D02*
X-20675Y30017D01*
X-19342Y30017D02*
X-19342Y29183D01*
X-17267Y23868D02*
X-17333Y23827D01*
X-17400Y23827D01*
X-17467Y23868D01*
X-17467Y23989D01*
X-17400Y24030D01*
X-17333Y24030D01*
X-17267Y23989D01*
X-17033Y23827D02*
X-17100Y23827D01*
X-17167Y23868D01*
X-17167Y23908D01*
X-17133Y23929D01*
X-17167Y23949D01*
X-17167Y23989D01*
X-17100Y24030D01*
X-17033Y24030D01*
X-16967Y23989D01*
X-16967Y23949D01*
X-17000Y23929D01*
X-16967Y23908D01*
X-16967Y23868D01*
X-17033Y23827D01*
X-17133Y23929D02*
X-17000Y23929D01*
X-16917Y23733D02*
X-16917Y25067D01*
X-16083Y25067D02*
X-16083Y23733D01*
X-16917Y25067D02*
X-16083Y25067D01*
X-16083Y23733D02*
X-16917Y23733D01*
X-20836Y16671D02*
X-20836Y15529D01*
X-20364Y15529D01*
X-20364Y16671D01*
X-20825Y16453D02*
G75*
D01*
G02X-20825Y16453I79J0*
G01*
X-20364Y16671D02*
X-20836Y16671D01*
X-20667Y14218D02*
X-20733Y14177D01*
X-20800Y14177D01*
X-20867Y14218D01*
X-20867Y14339D01*
X-20800Y14380D01*
X-20733Y14380D01*
X-20667Y14339D01*
X-20367Y14380D02*
X-20567Y14380D01*
X-20567Y14299D01*
X-20433Y14299D01*
X-20367Y14258D01*
X-20367Y14218D01*
X-20433Y14177D01*
X-20567Y14177D01*
X-21267Y15417D02*
X-19933Y15417D01*
X-19933Y14583D02*
X-21267Y14583D01*
X-19933Y15417D02*
X-19933Y14583D01*
X-21267Y14583D02*
X-21267Y15417D01*
X-19011Y30617D02*
X-19011Y31011D01*
X-18854Y31011D01*
X-18776Y30932D01*
X-18776Y30893D01*
X-18854Y30814D01*
X-19011Y30814D01*
X-18972Y30814D02*
X-18776Y30617D01*
X-18462Y31011D02*
X-18580Y31011D01*
X-18658Y30932D01*
X-18658Y30774D01*
X-18658Y30696D01*
X-18580Y30617D01*
X-18501Y30617D01*
X-18423Y30696D01*
X-18423Y30774D01*
X-18501Y30853D01*
X-18580Y30853D01*
X-18658Y30774D01*
X-19167Y29192D02*
X-19167Y30525D01*
X-18333Y30525D02*
X-18333Y29192D01*
X-19167Y30525D02*
X-18333Y30525D01*
X-18333Y29192D02*
X-19167Y29192D01*
X-16383Y27561D02*
X-15989Y27561D01*
X-15989Y27404D01*
X-16068Y27326D01*
X-16107Y27326D01*
X-16186Y27404D01*
X-16186Y27561D01*
X-16186Y27522D02*
X-16383Y27326D01*
X-16068Y27169D02*
X-15989Y27091D01*
X-16383Y27091D01*
X-16383Y27208D02*
X-16383Y26973D01*
X-15989Y26620D02*
X-15989Y26855D01*
X-16147Y26855D01*
X-16147Y26699D01*
X-16226Y26620D01*
X-16304Y26620D01*
X-16383Y26699D01*
X-16383Y26855D01*
X-16917Y25192D02*
X-16917Y26525D01*
X-16083Y26525D02*
X-16083Y25192D01*
X-16917Y26525D02*
X-16083Y26525D01*
X-16083Y25192D02*
X-16917Y25192D01*
X-20167Y19418D02*
X-20233Y19377D01*
X-20300Y19377D01*
X-20367Y19418D01*
X-20367Y19539D01*
X-20300Y19580D01*
X-20233Y19580D01*
X-20167Y19539D01*
X-19967Y19377D02*
X-19967Y19479D01*
X-19867Y19539D01*
X-19867Y19580D01*
X-20067Y19580D01*
X-20067Y19539D01*
X-19733Y18383D02*
X-21067Y18383D01*
X-21067Y19217D02*
X-19733Y19217D01*
X-21067Y18383D02*
X-21067Y19217D01*
X-19733Y19217D02*
X-19733Y18383D01*
X-19767Y20168D02*
X-19833Y20127D01*
X-19900Y20127D01*
X-19967Y20168D01*
X-19967Y20289D01*
X-19900Y20330D01*
X-19833Y20330D01*
X-19767Y20289D01*
X-19667Y20289D02*
X-19600Y20330D01*
X-19533Y20330D01*
X-19467Y20289D01*
X-19467Y20269D01*
X-19667Y20127D01*
X-19467Y20127D01*
X-19467Y20148D01*
X-18583Y20567D02*
X-18583Y19233D01*
X-19417Y19233D02*
X-19417Y20567D01*
X-18583Y19233D02*
X-19417Y19233D01*
X-19417Y20567D02*
X-18583Y20567D01*
G54D12*
X-18661Y17161D02*
X-18661Y16846D01*
X-18582Y16767D01*
X-18504Y16767D01*
X-18426Y16846D01*
X-18426Y17161D01*
X-18269Y17082D02*
X-18190Y17161D01*
X-18190Y16767D01*
X-18308Y16767D02*
X-18073Y16767D01*
X-17720Y16924D02*
X-17955Y16924D01*
X-17759Y17161D01*
X-17759Y16767D01*
X-17799Y16767D02*
X-17720Y16767D01*
X-20211Y30946D02*
X-20132Y30867D01*
X-20054Y30867D01*
X-19976Y30946D01*
X-19976Y31261D01*
X-19819Y31221D02*
X-19780Y31261D01*
X-19701Y31261D01*
X-19623Y31182D01*
X-19623Y31103D01*
X-19662Y31064D01*
X-19623Y31024D01*
X-19623Y30946D01*
X-19701Y30867D01*
X-19780Y30867D01*
X-19819Y30906D01*
X-19780Y31064D02*
X-19662Y31064D01*
X-19161Y25711D02*
X-19161Y25396D01*
X-19082Y25317D01*
X-19004Y25317D01*
X-18926Y25396D01*
X-18926Y25711D01*
X-18769Y25671D02*
X-18730Y25711D01*
X-18651Y25711D01*
X-18573Y25632D01*
X-18573Y25553D01*
X-18612Y25514D01*
X-18573Y25474D01*
X-18573Y25396D01*
X-18651Y25317D01*
X-18730Y25317D01*
X-18769Y25356D01*
X-18730Y25514D02*
X-18612Y25514D01*
X-19611Y18861D02*
X-19611Y18546D01*
X-19532Y18467D01*
X-19454Y18467D01*
X-19376Y18546D01*
X-19376Y18861D01*
X-19219Y18782D02*
X-19140Y18861D01*
X-19140Y18467D01*
X-19258Y18467D02*
X-19023Y18467D01*
X-18866Y18821D02*
X-18827Y18861D01*
X-18749Y18861D01*
X-18670Y18782D01*
X-18670Y18703D01*
X-18709Y18664D01*
X-18670Y18624D01*
X-18670Y18546D01*
X-18749Y18467D01*
X-18827Y18467D01*
X-18866Y18506D01*
X-18827Y18664D02*
X-18709Y18664D01*
X-20239Y18389D02*
X-20239Y18783D01*
X-20474Y18783D01*
X-20631Y18468D02*
X-20710Y18389D01*
X-20710Y18783D01*
X-20592Y18783D02*
X-20827Y18783D01*
G54D13*
X-17982Y18044D02*
X-18218Y18044D01*
X-18218Y17256D02*
X-17982Y17256D01*
X-17982Y18044D01*
X-18218Y18044D02*
X-18218Y17256D01*
X-18680Y10148D02*
X-18680Y10581D01*
X-16120Y10581D01*
X-16120Y10148D01*
X-27880Y10148D02*
X-27880Y10581D01*
X-25320Y10581D01*
X-25320Y10148D01*
X-17309Y25047D02*
X-17309Y25953D01*
X-18491Y25953D02*
X-18491Y25047D01*
X-17309Y25047D01*
X-18491Y25126D02*
X-18412Y25047D01*
X-18491Y25205D02*
X-18333Y25047D01*
X-18491Y25283D02*
X-18254Y25047D01*
X-18491Y25362D02*
X-18176Y25047D01*
X-18491Y25441D02*
X-18097Y25047D01*
X-17309Y25953D02*
X-18491Y25953D01*
X-20056Y18180D02*
X-20844Y18180D01*
X-20056Y16920D02*
X-20844Y16920D01*
X-20056Y16920D02*
X-20844Y16920D01*
G54D14*
X-17637Y17119D02*
G75*
D01*
G02X-17637Y17119I49J0*
G01*
X-18599Y24457D02*
G75*
D01*
G02X-18599Y24457I49J0*
G01*
G54D15*
G36*
X-27705Y23564D02*
X-27705Y23564D01*
X-27678Y23564D01*
X-27678Y23576D01*
X-27705Y23576D01*
X-27705Y23564D01*
D02*
G37*
G36*
X-27340Y23564D02*
X-27340Y23564D01*
X-27326Y23564D01*
X-27326Y23576D01*
X-27340Y23576D01*
X-27340Y23564D01*
D02*
G37*
G36*
X-27705Y23552D02*
X-27705Y23552D01*
X-27664Y23552D01*
X-27664Y23564D01*
X-27705Y23564D01*
X-27705Y23552D01*
D02*
G37*
G36*
X-27353Y23552D02*
X-27353Y23552D01*
X-27326Y23552D01*
X-27326Y23564D01*
X-27353Y23564D01*
X-27353Y23552D01*
D02*
G37*
G36*
X-27705Y23539D02*
X-27705Y23539D01*
X-27650Y23539D01*
X-27650Y23552D01*
X-27705Y23552D01*
X-27705Y23539D01*
D02*
G37*
G36*
X-27367Y23539D02*
X-27367Y23539D01*
X-27326Y23539D01*
X-27326Y23552D01*
X-27367Y23552D01*
X-27367Y23539D01*
D02*
G37*
G36*
X-27705Y23527D02*
X-27705Y23527D01*
X-27650Y23527D01*
X-27650Y23539D01*
X-27705Y23539D01*
X-27705Y23527D01*
D02*
G37*
G36*
X-27380Y23527D02*
X-27380Y23527D01*
X-27326Y23527D01*
X-27326Y23539D01*
X-27380Y23539D01*
X-27380Y23527D01*
D02*
G37*
G36*
X-27705Y23515D02*
X-27705Y23515D01*
X-27637Y23515D01*
X-27637Y23527D01*
X-27705Y23527D01*
X-27705Y23515D01*
D02*
G37*
G36*
X-27394Y23515D02*
X-27394Y23515D01*
X-27326Y23515D01*
X-27326Y23527D01*
X-27394Y23527D01*
X-27394Y23515D01*
D02*
G37*
G36*
X-27705Y23503D02*
X-27705Y23503D01*
X-27623Y23503D01*
X-27623Y23515D01*
X-27705Y23515D01*
X-27705Y23503D01*
D02*
G37*
G36*
X-27407Y23503D02*
X-27407Y23503D01*
X-27326Y23503D01*
X-27326Y23515D01*
X-27407Y23515D01*
X-27407Y23503D01*
D02*
G37*
G36*
X-27705Y23491D02*
X-27705Y23491D01*
X-27610Y23491D01*
X-27610Y23503D01*
X-27705Y23503D01*
X-27705Y23491D01*
D02*
G37*
G36*
X-27421Y23491D02*
X-27421Y23491D01*
X-27326Y23491D01*
X-27326Y23503D01*
X-27421Y23503D01*
X-27421Y23491D01*
D02*
G37*
G36*
X-27705Y23479D02*
X-27705Y23479D01*
X-27596Y23479D01*
X-27596Y23491D01*
X-27705Y23491D01*
X-27705Y23479D01*
D02*
G37*
G36*
X-27529Y23479D02*
X-27529Y23479D01*
X-27502Y23479D01*
X-27502Y23491D01*
X-27529Y23491D01*
X-27529Y23479D01*
D02*
G37*
G36*
X-27421Y23479D02*
X-27421Y23479D01*
X-27326Y23479D01*
X-27326Y23491D01*
X-27421Y23491D01*
X-27421Y23479D01*
D02*
G37*
G36*
X-27705Y23467D02*
X-27705Y23467D01*
X-27448Y23467D01*
X-27448Y23479D01*
X-27705Y23479D01*
X-27705Y23467D01*
D02*
G37*
G36*
X-27434Y23467D02*
X-27434Y23467D01*
X-27326Y23467D01*
X-27326Y23479D01*
X-27434Y23479D01*
X-27434Y23467D01*
D02*
G37*
G36*
X-27705Y23455D02*
X-27705Y23455D01*
X-27326Y23455D01*
X-27326Y23467D01*
X-27705Y23467D01*
X-27705Y23455D01*
D02*
G37*
G36*
X-27705Y23442D02*
X-27705Y23442D01*
X-27326Y23442D01*
X-27326Y23455D01*
X-27705Y23455D01*
X-27705Y23442D01*
D02*
G37*
G36*
X-27705Y23430D02*
X-27705Y23430D01*
X-27326Y23430D01*
X-27326Y23442D01*
X-27705Y23442D01*
X-27705Y23430D01*
D02*
G37*
G36*
X-27705Y23418D02*
X-27705Y23418D01*
X-27326Y23418D01*
X-27326Y23430D01*
X-27705Y23430D01*
X-27705Y23418D01*
D02*
G37*
G36*
X-27731Y23406D02*
X-27731Y23406D01*
X-27326Y23406D01*
X-27326Y23418D01*
X-27731Y23418D01*
X-27731Y23406D01*
D02*
G37*
G36*
X-27745Y23394D02*
X-27745Y23394D01*
X-27313Y23394D01*
X-27313Y23406D01*
X-27745Y23406D01*
X-27745Y23394D01*
D02*
G37*
G36*
X-27772Y23382D02*
X-27772Y23382D01*
X-27299Y23382D01*
X-27299Y23394D01*
X-27772Y23394D01*
X-27772Y23382D01*
D02*
G37*
G36*
X-27785Y23370D02*
X-27785Y23370D01*
X-27286Y23370D01*
X-27286Y23382D01*
X-27785Y23382D01*
X-27785Y23370D01*
D02*
G37*
G36*
X-27785Y23358D02*
X-27785Y23358D01*
X-27272Y23358D01*
X-27272Y23370D01*
X-27785Y23370D01*
X-27785Y23358D01*
D02*
G37*
G36*
X-27799Y23345D02*
X-27799Y23345D01*
X-27259Y23345D01*
X-27259Y23358D01*
X-27799Y23358D01*
X-27799Y23345D01*
D02*
G37*
G36*
X-27799Y23333D02*
X-27799Y23333D01*
X-27246Y23333D01*
X-27246Y23345D01*
X-27799Y23345D01*
X-27799Y23333D01*
D02*
G37*
G36*
X-27880Y23321D02*
X-27880Y23321D01*
X-27826Y23321D01*
X-27826Y23333D01*
X-27880Y23333D01*
X-27880Y23321D01*
D02*
G37*
G36*
X-27812Y23321D02*
X-27812Y23321D01*
X-27246Y23321D01*
X-27246Y23333D01*
X-27812Y23333D01*
X-27812Y23321D01*
D02*
G37*
G36*
X-27218Y23321D02*
X-27218Y23321D01*
X-27164Y23321D01*
X-27164Y23333D01*
X-27218Y23333D01*
X-27218Y23321D01*
D02*
G37*
G36*
X-27826Y23309D02*
X-27826Y23309D01*
X-27205Y23309D01*
X-27205Y23321D01*
X-27826Y23321D01*
X-27826Y23309D01*
D02*
G37*
G36*
X-27812Y23297D02*
X-27812Y23297D01*
X-27218Y23297D01*
X-27218Y23309D01*
X-27812Y23309D01*
X-27812Y23297D01*
D02*
G37*
G36*
X-27893Y23285D02*
X-27893Y23285D01*
X-27151Y23285D01*
X-27151Y23297D01*
X-27893Y23297D01*
X-27893Y23285D01*
D02*
G37*
G36*
X-27826Y23273D02*
X-27826Y23273D01*
X-27218Y23273D01*
X-27218Y23285D01*
X-27826Y23285D01*
X-27826Y23273D01*
D02*
G37*
G36*
X-27866Y23261D02*
X-27866Y23261D01*
X-27812Y23261D01*
X-27812Y23273D01*
X-27866Y23273D01*
X-27866Y23261D01*
D02*
G37*
G36*
X-27785Y23261D02*
X-27785Y23261D01*
X-27246Y23261D01*
X-27246Y23273D01*
X-27785Y23273D01*
X-27785Y23261D01*
D02*
G37*
G36*
X-27218Y23261D02*
X-27218Y23261D01*
X-27178Y23261D01*
X-27178Y23273D01*
X-27218Y23273D01*
X-27218Y23261D01*
D02*
G37*
G36*
X-27893Y23248D02*
X-27893Y23248D01*
X-27866Y23248D01*
X-27866Y23261D01*
X-27893Y23261D01*
X-27893Y23248D01*
D02*
G37*
G36*
X-27772Y23248D02*
X-27772Y23248D01*
X-27246Y23248D01*
X-27246Y23261D01*
X-27772Y23261D01*
X-27772Y23248D01*
D02*
G37*
G36*
X-27164Y23248D02*
X-27164Y23248D01*
X-27151Y23248D01*
X-27151Y23261D01*
X-27164Y23261D01*
X-27164Y23248D01*
D02*
G37*
G36*
X-27758Y23236D02*
X-27758Y23236D01*
X-27259Y23236D01*
X-27259Y23248D01*
X-27758Y23248D01*
X-27758Y23236D01*
D02*
G37*
G36*
X-27745Y23224D02*
X-27745Y23224D01*
X-27272Y23224D01*
X-27272Y23236D01*
X-27745Y23236D01*
X-27745Y23224D01*
D02*
G37*
G36*
X-27731Y23212D02*
X-27731Y23212D01*
X-27299Y23212D01*
X-27299Y23224D01*
X-27731Y23224D01*
X-27731Y23212D01*
D02*
G37*
G36*
X-27705Y23200D02*
X-27705Y23200D01*
X-27326Y23200D01*
X-27326Y23212D01*
X-27705Y23212D01*
X-27705Y23200D01*
D02*
G37*
G36*
X-28042Y23188D02*
X-28042Y23188D01*
X-27907Y23188D01*
X-27907Y23200D01*
X-28042Y23200D01*
X-28042Y23188D01*
D02*
G37*
G36*
X-27678Y23188D02*
X-27678Y23188D01*
X-27353Y23188D01*
X-27353Y23200D01*
X-27678Y23200D01*
X-27678Y23188D01*
D02*
G37*
G36*
X-28069Y23176D02*
X-28069Y23176D01*
X-27880Y23176D01*
X-27880Y23188D01*
X-28069Y23188D01*
X-28069Y23176D01*
D02*
G37*
G36*
X-27623Y23176D02*
X-27623Y23176D01*
X-27380Y23176D01*
X-27380Y23188D01*
X-27623Y23188D01*
X-27623Y23176D01*
D02*
G37*
G36*
X-28096Y23164D02*
X-28096Y23164D01*
X-27853Y23164D01*
X-27853Y23176D01*
X-28096Y23176D01*
X-28096Y23164D01*
D02*
G37*
G36*
X-27623Y23164D02*
X-27623Y23164D01*
X-27421Y23164D01*
X-27421Y23176D01*
X-27623Y23176D01*
X-27623Y23164D01*
D02*
G37*
G36*
X-28109Y23152D02*
X-28109Y23152D01*
X-27839Y23152D01*
X-27839Y23164D01*
X-28109Y23164D01*
X-28109Y23152D01*
D02*
G37*
G36*
X-27610Y23152D02*
X-27610Y23152D01*
X-27421Y23152D01*
X-27421Y23164D01*
X-27610Y23164D01*
X-27610Y23152D01*
D02*
G37*
G36*
X-28123Y23139D02*
X-28123Y23139D01*
X-27839Y23139D01*
X-27839Y23152D01*
X-28123Y23152D01*
X-28123Y23139D01*
D02*
G37*
G36*
X-27610Y23139D02*
X-27610Y23139D01*
X-27421Y23139D01*
X-27421Y23152D01*
X-27610Y23152D01*
X-27610Y23139D01*
D02*
G37*
G36*
X-28123Y23127D02*
X-28123Y23127D01*
X-27826Y23127D01*
X-27826Y23139D01*
X-28123Y23139D01*
X-28123Y23127D01*
D02*
G37*
G36*
X-27610Y23127D02*
X-27610Y23127D01*
X-27421Y23127D01*
X-27421Y23139D01*
X-27610Y23139D01*
X-27610Y23127D01*
D02*
G37*
G36*
X-28137Y23115D02*
X-28137Y23115D01*
X-28028Y23115D01*
X-28028Y23127D01*
X-28137Y23127D01*
X-28137Y23115D01*
D02*
G37*
G36*
X-27921Y23115D02*
X-27921Y23115D01*
X-27826Y23115D01*
X-27826Y23127D01*
X-27921Y23127D01*
X-27921Y23115D01*
D02*
G37*
G36*
X-27610Y23115D02*
X-27610Y23115D01*
X-27421Y23115D01*
X-27421Y23127D01*
X-27610Y23127D01*
X-27610Y23115D01*
D02*
G37*
G36*
X-28137Y23103D02*
X-28137Y23103D01*
X-28042Y23103D01*
X-28042Y23115D01*
X-28137Y23115D01*
X-28137Y23103D01*
D02*
G37*
G36*
X-27907Y23103D02*
X-27907Y23103D01*
X-27812Y23103D01*
X-27812Y23115D01*
X-27907Y23115D01*
X-27907Y23103D01*
D02*
G37*
G36*
X-27623Y23103D02*
X-27623Y23103D01*
X-27421Y23103D01*
X-27421Y23115D01*
X-27623Y23115D01*
X-27623Y23103D01*
D02*
G37*
G36*
X-28137Y23091D02*
X-28137Y23091D01*
X-28055Y23091D01*
X-28055Y23103D01*
X-28137Y23103D01*
X-28137Y23091D01*
D02*
G37*
G36*
X-27907Y23091D02*
X-27907Y23091D01*
X-27812Y23091D01*
X-27812Y23103D01*
X-27907Y23103D01*
X-27907Y23091D01*
D02*
G37*
G36*
X-27623Y23091D02*
X-27623Y23091D01*
X-27421Y23091D01*
X-27421Y23103D01*
X-27623Y23103D01*
X-27623Y23091D01*
D02*
G37*
G36*
X-28137Y23079D02*
X-28137Y23079D01*
X-28055Y23079D01*
X-28055Y23091D01*
X-28137Y23091D01*
X-28137Y23079D01*
D02*
G37*
G36*
X-27893Y23079D02*
X-27893Y23079D01*
X-27812Y23079D01*
X-27812Y23091D01*
X-27893Y23091D01*
X-27893Y23079D01*
D02*
G37*
G36*
X-27623Y23079D02*
X-27623Y23079D01*
X-27421Y23079D01*
X-27421Y23091D01*
X-27623Y23091D01*
X-27623Y23079D01*
D02*
G37*
G36*
X-28137Y23067D02*
X-28137Y23067D01*
X-28069Y23067D01*
X-28069Y23079D01*
X-28137Y23079D01*
X-28137Y23067D01*
D02*
G37*
G36*
X-27893Y23067D02*
X-27893Y23067D01*
X-27812Y23067D01*
X-27812Y23079D01*
X-27893Y23079D01*
X-27893Y23067D01*
D02*
G37*
G36*
X-27623Y23067D02*
X-27623Y23067D01*
X-27421Y23067D01*
X-27421Y23079D01*
X-27623Y23079D01*
X-27623Y23067D01*
D02*
G37*
G36*
X-28137Y23055D02*
X-28137Y23055D01*
X-28069Y23055D01*
X-28069Y23067D01*
X-28137Y23067D01*
X-28137Y23055D01*
D02*
G37*
G36*
X-27893Y23055D02*
X-27893Y23055D01*
X-27812Y23055D01*
X-27812Y23067D01*
X-27893Y23067D01*
X-27893Y23055D01*
D02*
G37*
G36*
X-27623Y23055D02*
X-27623Y23055D01*
X-27407Y23055D01*
X-27407Y23067D01*
X-27623Y23067D01*
X-27623Y23055D01*
D02*
G37*
G36*
X-28137Y23042D02*
X-28137Y23042D01*
X-28055Y23042D01*
X-28055Y23055D01*
X-28137Y23055D01*
X-28137Y23042D01*
D02*
G37*
G36*
X-27880Y23042D02*
X-27880Y23042D01*
X-27812Y23042D01*
X-27812Y23055D01*
X-27880Y23055D01*
X-27880Y23042D01*
D02*
G37*
G36*
X-27623Y23042D02*
X-27623Y23042D01*
X-27407Y23042D01*
X-27407Y23055D01*
X-27623Y23055D01*
X-27623Y23042D01*
D02*
G37*
G36*
X-28137Y23030D02*
X-28137Y23030D01*
X-28055Y23030D01*
X-28055Y23042D01*
X-28137Y23042D01*
X-28137Y23030D01*
D02*
G37*
G36*
X-27880Y23030D02*
X-27880Y23030D01*
X-27812Y23030D01*
X-27812Y23042D01*
X-27880Y23042D01*
X-27880Y23030D01*
D02*
G37*
G36*
X-27623Y23030D02*
X-27623Y23030D01*
X-27407Y23030D01*
X-27407Y23042D01*
X-27623Y23042D01*
X-27623Y23030D01*
D02*
G37*
G36*
X-28137Y23018D02*
X-28137Y23018D01*
X-28042Y23018D01*
X-28042Y23030D01*
X-28137Y23030D01*
X-28137Y23018D01*
D02*
G37*
G36*
X-27880Y23018D02*
X-27880Y23018D01*
X-27812Y23018D01*
X-27812Y23030D01*
X-27880Y23030D01*
X-27880Y23018D01*
D02*
G37*
G36*
X-27623Y23018D02*
X-27623Y23018D01*
X-27407Y23018D01*
X-27407Y23030D01*
X-27623Y23030D01*
X-27623Y23018D01*
D02*
G37*
G36*
X-28123Y23006D02*
X-28123Y23006D01*
X-28042Y23006D01*
X-28042Y23018D01*
X-28123Y23018D01*
X-28123Y23006D01*
D02*
G37*
G36*
X-27880Y23006D02*
X-27880Y23006D01*
X-27812Y23006D01*
X-27812Y23018D01*
X-27880Y23018D01*
X-27880Y23006D01*
D02*
G37*
G36*
X-27637Y23006D02*
X-27637Y23006D01*
X-27407Y23006D01*
X-27407Y23018D01*
X-27637Y23018D01*
X-27637Y23006D01*
D02*
G37*
G36*
X-28109Y22994D02*
X-28109Y22994D01*
X-28015Y22994D01*
X-28015Y23006D01*
X-28109Y23006D01*
X-28109Y22994D01*
D02*
G37*
G36*
X-27880Y22994D02*
X-27880Y22994D01*
X-27812Y22994D01*
X-27812Y23006D01*
X-27880Y23006D01*
X-27880Y22994D01*
D02*
G37*
G36*
X-27637Y22994D02*
X-27637Y22994D01*
X-27394Y22994D01*
X-27394Y23006D01*
X-27637Y23006D01*
X-27637Y22994D01*
D02*
G37*
G36*
X-28109Y22982D02*
X-28109Y22982D01*
X-28001Y22982D01*
X-28001Y22994D01*
X-28109Y22994D01*
X-28109Y22982D01*
D02*
G37*
G36*
X-27880Y22982D02*
X-27880Y22982D01*
X-27812Y22982D01*
X-27812Y22994D01*
X-27880Y22994D01*
X-27880Y22982D01*
D02*
G37*
G36*
X-27637Y22982D02*
X-27637Y22982D01*
X-27394Y22982D01*
X-27394Y22994D01*
X-27637Y22994D01*
X-27637Y22982D01*
D02*
G37*
G36*
X-28096Y22970D02*
X-28096Y22970D01*
X-27988Y22970D01*
X-27988Y22982D01*
X-28096Y22982D01*
X-28096Y22970D01*
D02*
G37*
G36*
X-27893Y22970D02*
X-27893Y22970D01*
X-27812Y22970D01*
X-27812Y22982D01*
X-27893Y22982D01*
X-27893Y22970D01*
D02*
G37*
G36*
X-27650Y22970D02*
X-27650Y22970D01*
X-27394Y22970D01*
X-27394Y22982D01*
X-27650Y22982D01*
X-27650Y22970D01*
D02*
G37*
G36*
X-28069Y22958D02*
X-28069Y22958D01*
X-27988Y22958D01*
X-27988Y22970D01*
X-28069Y22970D01*
X-28069Y22958D01*
D02*
G37*
G36*
X-27893Y22958D02*
X-27893Y22958D01*
X-27812Y22958D01*
X-27812Y22970D01*
X-27893Y22970D01*
X-27893Y22958D01*
D02*
G37*
G36*
X-27650Y22958D02*
X-27650Y22958D01*
X-27380Y22958D01*
X-27380Y22970D01*
X-27650Y22970D01*
X-27650Y22958D01*
D02*
G37*
G36*
X-28042Y22945D02*
X-28042Y22945D01*
X-28001Y22945D01*
X-28001Y22958D01*
X-28042Y22958D01*
X-28042Y22945D01*
D02*
G37*
G36*
X-27893Y22945D02*
X-27893Y22945D01*
X-27812Y22945D01*
X-27812Y22958D01*
X-27893Y22958D01*
X-27893Y22945D01*
D02*
G37*
G36*
X-27664Y22945D02*
X-27664Y22945D01*
X-27380Y22945D01*
X-27380Y22958D01*
X-27664Y22958D01*
X-27664Y22945D01*
D02*
G37*
G36*
X-27893Y22933D02*
X-27893Y22933D01*
X-27812Y22933D01*
X-27812Y22945D01*
X-27893Y22945D01*
X-27893Y22933D01*
D02*
G37*
G36*
X-27664Y22933D02*
X-27664Y22933D01*
X-27367Y22933D01*
X-27367Y22945D01*
X-27664Y22945D01*
X-27664Y22933D01*
D02*
G37*
G36*
X-27893Y22921D02*
X-27893Y22921D01*
X-27812Y22921D01*
X-27812Y22933D01*
X-27893Y22933D01*
X-27893Y22921D01*
D02*
G37*
G36*
X-27678Y22921D02*
X-27678Y22921D01*
X-27367Y22921D01*
X-27367Y22933D01*
X-27678Y22933D01*
X-27678Y22921D01*
D02*
G37*
G36*
X-27907Y22909D02*
X-27907Y22909D01*
X-27812Y22909D01*
X-27812Y22921D01*
X-27907Y22921D01*
X-27907Y22909D01*
D02*
G37*
G36*
X-27678Y22909D02*
X-27678Y22909D01*
X-27353Y22909D01*
X-27353Y22921D01*
X-27678Y22921D01*
X-27678Y22909D01*
D02*
G37*
G36*
X-27907Y22897D02*
X-27907Y22897D01*
X-27826Y22897D01*
X-27826Y22909D01*
X-27907Y22909D01*
X-27907Y22897D01*
D02*
G37*
G36*
X-27691Y22897D02*
X-27691Y22897D01*
X-27340Y22897D01*
X-27340Y22909D01*
X-27691Y22909D01*
X-27691Y22897D01*
D02*
G37*
G36*
X-27907Y22885D02*
X-27907Y22885D01*
X-27826Y22885D01*
X-27826Y22897D01*
X-27907Y22897D01*
X-27907Y22885D01*
D02*
G37*
G36*
X-27705Y22885D02*
X-27705Y22885D01*
X-27326Y22885D01*
X-27326Y22897D01*
X-27705Y22897D01*
X-27705Y22885D01*
D02*
G37*
G36*
X-27907Y22873D02*
X-27907Y22873D01*
X-27826Y22873D01*
X-27826Y22885D01*
X-27907Y22885D01*
X-27907Y22873D01*
D02*
G37*
G36*
X-27718Y22873D02*
X-27718Y22873D01*
X-27313Y22873D01*
X-27313Y22885D01*
X-27718Y22885D01*
X-27718Y22873D01*
D02*
G37*
G36*
X-27921Y22861D02*
X-27921Y22861D01*
X-27826Y22861D01*
X-27826Y22873D01*
X-27921Y22873D01*
X-27921Y22861D01*
D02*
G37*
G36*
X-27731Y22861D02*
X-27731Y22861D01*
X-27299Y22861D01*
X-27299Y22873D01*
X-27731Y22873D01*
X-27731Y22861D01*
D02*
G37*
G36*
X-27921Y22848D02*
X-27921Y22848D01*
X-27826Y22848D01*
X-27826Y22861D01*
X-27921Y22861D01*
X-27921Y22848D01*
D02*
G37*
G36*
X-27745Y22848D02*
X-27745Y22848D01*
X-27299Y22848D01*
X-27299Y22861D01*
X-27745Y22861D01*
X-27745Y22848D01*
D02*
G37*
G36*
X-27921Y22836D02*
X-27921Y22836D01*
X-27826Y22836D01*
X-27826Y22848D01*
X-27921Y22848D01*
X-27921Y22836D01*
D02*
G37*
G36*
X-27745Y22836D02*
X-27745Y22836D01*
X-27286Y22836D01*
X-27286Y22848D01*
X-27745Y22848D01*
X-27745Y22836D01*
D02*
G37*
G36*
X-27921Y22824D02*
X-27921Y22824D01*
X-27839Y22824D01*
X-27839Y22836D01*
X-27921Y22836D01*
X-27921Y22824D01*
D02*
G37*
G36*
X-27758Y22824D02*
X-27758Y22824D01*
X-27272Y22824D01*
X-27272Y22836D01*
X-27758Y22836D01*
X-27758Y22824D01*
D02*
G37*
G36*
X-27934Y22812D02*
X-27934Y22812D01*
X-27839Y22812D01*
X-27839Y22824D01*
X-27934Y22824D01*
X-27934Y22812D01*
D02*
G37*
G36*
X-27758Y22812D02*
X-27758Y22812D01*
X-27272Y22812D01*
X-27272Y22824D01*
X-27758Y22824D01*
X-27758Y22812D01*
D02*
G37*
G36*
X-27934Y22800D02*
X-27934Y22800D01*
X-27839Y22800D01*
X-27839Y22812D01*
X-27934Y22812D01*
X-27934Y22800D01*
D02*
G37*
G36*
X-27772Y22800D02*
X-27772Y22800D01*
X-27272Y22800D01*
X-27272Y22812D01*
X-27772Y22812D01*
X-27772Y22800D01*
D02*
G37*
G36*
X-27934Y22788D02*
X-27934Y22788D01*
X-27839Y22788D01*
X-27839Y22800D01*
X-27934Y22800D01*
X-27934Y22788D01*
D02*
G37*
G36*
X-27772Y22788D02*
X-27772Y22788D01*
X-27272Y22788D01*
X-27272Y22800D01*
X-27772Y22800D01*
X-27772Y22788D01*
D02*
G37*
G36*
X-27934Y22776D02*
X-27934Y22776D01*
X-27839Y22776D01*
X-27839Y22788D01*
X-27934Y22788D01*
X-27934Y22776D01*
D02*
G37*
G36*
X-27772Y22776D02*
X-27772Y22776D01*
X-27272Y22776D01*
X-27272Y22788D01*
X-27772Y22788D01*
X-27772Y22776D01*
D02*
G37*
G36*
X-27934Y22764D02*
X-27934Y22764D01*
X-27839Y22764D01*
X-27839Y22776D01*
X-27934Y22776D01*
X-27934Y22764D01*
D02*
G37*
G36*
X-27772Y22764D02*
X-27772Y22764D01*
X-27259Y22764D01*
X-27259Y22776D01*
X-27772Y22776D01*
X-27772Y22764D01*
D02*
G37*
G36*
X-27934Y22752D02*
X-27934Y22752D01*
X-27839Y22752D01*
X-27839Y22764D01*
X-27934Y22764D01*
X-27934Y22752D01*
D02*
G37*
G36*
X-27772Y22752D02*
X-27772Y22752D01*
X-27259Y22752D01*
X-27259Y22764D01*
X-27772Y22764D01*
X-27772Y22752D01*
D02*
G37*
G36*
X-27934Y22739D02*
X-27934Y22739D01*
X-27839Y22739D01*
X-27839Y22752D01*
X-27934Y22752D01*
X-27934Y22739D01*
D02*
G37*
G36*
X-27772Y22739D02*
X-27772Y22739D01*
X-27259Y22739D01*
X-27259Y22752D01*
X-27772Y22752D01*
X-27772Y22739D01*
D02*
G37*
G36*
X-27934Y22727D02*
X-27934Y22727D01*
X-27839Y22727D01*
X-27839Y22739D01*
X-27934Y22739D01*
X-27934Y22727D01*
D02*
G37*
G36*
X-27772Y22727D02*
X-27772Y22727D01*
X-27272Y22727D01*
X-27272Y22739D01*
X-27772Y22739D01*
X-27772Y22727D01*
D02*
G37*
G36*
X-27934Y22715D02*
X-27934Y22715D01*
X-27839Y22715D01*
X-27839Y22727D01*
X-27934Y22727D01*
X-27934Y22715D01*
D02*
G37*
G36*
X-27772Y22715D02*
X-27772Y22715D01*
X-27272Y22715D01*
X-27272Y22727D01*
X-27772Y22727D01*
X-27772Y22715D01*
D02*
G37*
G36*
X-27934Y22703D02*
X-27934Y22703D01*
X-27839Y22703D01*
X-27839Y22715D01*
X-27934Y22715D01*
X-27934Y22703D01*
D02*
G37*
G36*
X-27772Y22703D02*
X-27772Y22703D01*
X-27272Y22703D01*
X-27272Y22715D01*
X-27772Y22715D01*
X-27772Y22703D01*
D02*
G37*
G36*
X-27934Y22691D02*
X-27934Y22691D01*
X-27839Y22691D01*
X-27839Y22703D01*
X-27934Y22703D01*
X-27934Y22691D01*
D02*
G37*
G36*
X-27758Y22691D02*
X-27758Y22691D01*
X-27272Y22691D01*
X-27272Y22703D01*
X-27758Y22703D01*
X-27758Y22691D01*
D02*
G37*
G36*
X-27948Y22679D02*
X-27948Y22679D01*
X-27839Y22679D01*
X-27839Y22691D01*
X-27948Y22691D01*
X-27948Y22679D01*
D02*
G37*
G36*
X-27758Y22679D02*
X-27758Y22679D01*
X-27272Y22679D01*
X-27272Y22691D01*
X-27758Y22691D01*
X-27758Y22679D01*
D02*
G37*
G36*
X-27948Y22667D02*
X-27948Y22667D01*
X-27839Y22667D01*
X-27839Y22679D01*
X-27948Y22679D01*
X-27948Y22667D01*
D02*
G37*
G36*
X-27758Y22667D02*
X-27758Y22667D01*
X-27272Y22667D01*
X-27272Y22679D01*
X-27758Y22679D01*
X-27758Y22667D01*
D02*
G37*
G36*
X-27948Y22655D02*
X-27948Y22655D01*
X-27839Y22655D01*
X-27839Y22667D01*
X-27948Y22667D01*
X-27948Y22655D01*
D02*
G37*
G36*
X-27758Y22655D02*
X-27758Y22655D01*
X-27272Y22655D01*
X-27272Y22667D01*
X-27758Y22667D01*
X-27758Y22655D01*
D02*
G37*
G36*
X-27934Y22642D02*
X-27934Y22642D01*
X-27839Y22642D01*
X-27839Y22655D01*
X-27934Y22655D01*
X-27934Y22642D01*
D02*
G37*
G36*
X-27758Y22642D02*
X-27758Y22642D01*
X-27286Y22642D01*
X-27286Y22655D01*
X-27758Y22655D01*
X-27758Y22642D01*
D02*
G37*
G36*
X-27948Y22630D02*
X-27948Y22630D01*
X-27839Y22630D01*
X-27839Y22642D01*
X-27948Y22642D01*
X-27948Y22630D01*
D02*
G37*
G36*
X-27758Y22630D02*
X-27758Y22630D01*
X-27286Y22630D01*
X-27286Y22642D01*
X-27758Y22642D01*
X-27758Y22630D01*
D02*
G37*
G36*
X-27934Y22618D02*
X-27934Y22618D01*
X-27839Y22618D01*
X-27839Y22630D01*
X-27934Y22630D01*
X-27934Y22618D01*
D02*
G37*
G36*
X-27745Y22618D02*
X-27745Y22618D01*
X-27286Y22618D01*
X-27286Y22630D01*
X-27745Y22630D01*
X-27745Y22618D01*
D02*
G37*
G36*
X-27934Y22606D02*
X-27934Y22606D01*
X-27839Y22606D01*
X-27839Y22618D01*
X-27934Y22618D01*
X-27934Y22606D01*
D02*
G37*
G36*
X-27745Y22606D02*
X-27745Y22606D01*
X-27286Y22606D01*
X-27286Y22618D01*
X-27745Y22618D01*
X-27745Y22606D01*
D02*
G37*
G36*
X-27934Y22594D02*
X-27934Y22594D01*
X-27839Y22594D01*
X-27839Y22606D01*
X-27934Y22606D01*
X-27934Y22594D01*
D02*
G37*
G36*
X-27745Y22594D02*
X-27745Y22594D01*
X-27299Y22594D01*
X-27299Y22606D01*
X-27745Y22606D01*
X-27745Y22594D01*
D02*
G37*
G36*
X-27934Y22582D02*
X-27934Y22582D01*
X-27826Y22582D01*
X-27826Y22594D01*
X-27934Y22594D01*
X-27934Y22582D01*
D02*
G37*
G36*
X-27745Y22582D02*
X-27745Y22582D01*
X-27299Y22582D01*
X-27299Y22594D01*
X-27745Y22594D01*
X-27745Y22582D01*
D02*
G37*
G36*
X-27934Y22570D02*
X-27934Y22570D01*
X-27826Y22570D01*
X-27826Y22582D01*
X-27934Y22582D01*
X-27934Y22570D01*
D02*
G37*
G36*
X-27731Y22570D02*
X-27731Y22570D01*
X-27299Y22570D01*
X-27299Y22582D01*
X-27731Y22582D01*
X-27731Y22570D01*
D02*
G37*
G36*
X-27934Y22558D02*
X-27934Y22558D01*
X-27826Y22558D01*
X-27826Y22570D01*
X-27934Y22570D01*
X-27934Y22558D01*
D02*
G37*
G36*
X-27731Y22558D02*
X-27731Y22558D01*
X-27299Y22558D01*
X-27299Y22570D01*
X-27731Y22570D01*
X-27731Y22558D01*
D02*
G37*
G36*
X-27934Y22545D02*
X-27934Y22545D01*
X-27826Y22545D01*
X-27826Y22558D01*
X-27934Y22558D01*
X-27934Y22545D01*
D02*
G37*
G36*
X-27731Y22545D02*
X-27731Y22545D01*
X-27313Y22545D01*
X-27313Y22558D01*
X-27731Y22558D01*
X-27731Y22545D01*
D02*
G37*
G36*
X-27934Y22533D02*
X-27934Y22533D01*
X-27826Y22533D01*
X-27826Y22545D01*
X-27934Y22545D01*
X-27934Y22533D01*
D02*
G37*
G36*
X-27718Y22533D02*
X-27718Y22533D01*
X-27313Y22533D01*
X-27313Y22545D01*
X-27718Y22545D01*
X-27718Y22533D01*
D02*
G37*
G36*
X-27934Y22521D02*
X-27934Y22521D01*
X-27812Y22521D01*
X-27812Y22533D01*
X-27934Y22533D01*
X-27934Y22521D01*
D02*
G37*
G36*
X-27718Y22521D02*
X-27718Y22521D01*
X-27313Y22521D01*
X-27313Y22533D01*
X-27718Y22533D01*
X-27718Y22521D01*
D02*
G37*
G36*
X-26597Y22521D02*
X-26597Y22521D01*
X-26543Y22521D01*
X-26543Y22533D01*
X-26597Y22533D01*
X-26597Y22521D01*
D02*
G37*
G36*
X-26476Y22521D02*
X-26476Y22521D01*
X-26422Y22521D01*
X-26422Y22533D01*
X-26476Y22533D01*
X-26476Y22521D01*
D02*
G37*
G36*
X-27921Y22509D02*
X-27921Y22509D01*
X-27812Y22509D01*
X-27812Y22521D01*
X-27921Y22521D01*
X-27921Y22509D01*
D02*
G37*
G36*
X-27718Y22509D02*
X-27718Y22509D01*
X-27326Y22509D01*
X-27326Y22521D01*
X-27718Y22521D01*
X-27718Y22509D01*
D02*
G37*
G36*
X-26597Y22509D02*
X-26597Y22509D01*
X-26543Y22509D01*
X-26543Y22521D01*
X-26597Y22521D01*
X-26597Y22509D01*
D02*
G37*
G36*
X-26476Y22509D02*
X-26476Y22509D01*
X-26422Y22509D01*
X-26422Y22521D01*
X-26476Y22521D01*
X-26476Y22509D01*
D02*
G37*
G36*
X-27921Y22497D02*
X-27921Y22497D01*
X-27812Y22497D01*
X-27812Y22509D01*
X-27921Y22509D01*
X-27921Y22497D01*
D02*
G37*
G36*
X-27705Y22497D02*
X-27705Y22497D01*
X-27326Y22497D01*
X-27326Y22509D01*
X-27705Y22509D01*
X-27705Y22497D01*
D02*
G37*
G36*
X-26908Y22497D02*
X-26908Y22497D01*
X-26814Y22497D01*
X-26814Y22509D01*
X-26908Y22509D01*
X-26908Y22497D01*
D02*
G37*
G36*
X-26597Y22497D02*
X-26597Y22497D01*
X-26543Y22497D01*
X-26543Y22509D01*
X-26597Y22509D01*
X-26597Y22497D01*
D02*
G37*
G36*
X-26476Y22497D02*
X-26476Y22497D01*
X-26422Y22497D01*
X-26422Y22509D01*
X-26476Y22509D01*
X-26476Y22497D01*
D02*
G37*
G36*
X-25949Y22497D02*
X-25949Y22497D01*
X-25855Y22497D01*
X-25855Y22509D01*
X-25949Y22509D01*
X-25949Y22497D01*
D02*
G37*
G36*
X-27921Y22485D02*
X-27921Y22485D01*
X-27799Y22485D01*
X-27799Y22497D01*
X-27921Y22497D01*
X-27921Y22485D01*
D02*
G37*
G36*
X-27705Y22485D02*
X-27705Y22485D01*
X-27326Y22485D01*
X-27326Y22497D01*
X-27705Y22497D01*
X-27705Y22485D01*
D02*
G37*
G36*
X-26935Y22485D02*
X-26935Y22485D01*
X-26787Y22485D01*
X-26787Y22497D01*
X-26935Y22497D01*
X-26935Y22485D01*
D02*
G37*
G36*
X-26597Y22485D02*
X-26597Y22485D01*
X-26543Y22485D01*
X-26543Y22497D01*
X-26597Y22497D01*
X-26597Y22485D01*
D02*
G37*
G36*
X-26476Y22485D02*
X-26476Y22485D01*
X-26422Y22485D01*
X-26422Y22497D01*
X-26476Y22497D01*
X-26476Y22485D01*
D02*
G37*
G36*
X-25976Y22485D02*
X-25976Y22485D01*
X-25841Y22485D01*
X-25841Y22497D01*
X-25976Y22497D01*
X-25976Y22485D01*
D02*
G37*
G36*
X-27921Y22473D02*
X-27921Y22473D01*
X-27799Y22473D01*
X-27799Y22485D01*
X-27921Y22485D01*
X-27921Y22473D01*
D02*
G37*
G36*
X-27691Y22473D02*
X-27691Y22473D01*
X-27340Y22473D01*
X-27340Y22485D01*
X-27691Y22485D01*
X-27691Y22473D01*
D02*
G37*
G36*
X-26948Y22473D02*
X-26948Y22473D01*
X-26787Y22473D01*
X-26787Y22485D01*
X-26948Y22485D01*
X-26948Y22473D01*
D02*
G37*
G36*
X-26719Y22473D02*
X-26719Y22473D01*
X-26665Y22473D01*
X-26665Y22485D01*
X-26719Y22485D01*
X-26719Y22473D01*
D02*
G37*
G36*
X-26597Y22473D02*
X-26597Y22473D01*
X-26543Y22473D01*
X-26543Y22485D01*
X-26597Y22485D01*
X-26597Y22473D01*
D02*
G37*
G36*
X-26476Y22473D02*
X-26476Y22473D01*
X-26422Y22473D01*
X-26422Y22485D01*
X-26476Y22485D01*
X-26476Y22473D01*
D02*
G37*
G36*
X-25990Y22473D02*
X-25990Y22473D01*
X-25841Y22473D01*
X-25841Y22485D01*
X-25990Y22485D01*
X-25990Y22473D01*
D02*
G37*
G36*
X-27907Y22461D02*
X-27907Y22461D01*
X-27785Y22461D01*
X-27785Y22473D01*
X-27907Y22473D01*
X-27907Y22461D01*
D02*
G37*
G36*
X-27691Y22461D02*
X-27691Y22461D01*
X-27340Y22461D01*
X-27340Y22473D01*
X-27691Y22473D01*
X-27691Y22461D01*
D02*
G37*
G36*
X-26948Y22461D02*
X-26948Y22461D01*
X-26787Y22461D01*
X-26787Y22473D01*
X-26948Y22473D01*
X-26948Y22461D01*
D02*
G37*
G36*
X-26732Y22461D02*
X-26732Y22461D01*
X-26665Y22461D01*
X-26665Y22473D01*
X-26732Y22473D01*
X-26732Y22461D01*
D02*
G37*
G36*
X-26597Y22461D02*
X-26597Y22461D01*
X-26543Y22461D01*
X-26543Y22473D01*
X-26597Y22473D01*
X-26597Y22461D01*
D02*
G37*
G36*
X-26476Y22461D02*
X-26476Y22461D01*
X-26422Y22461D01*
X-26422Y22473D01*
X-26476Y22473D01*
X-26476Y22461D01*
D02*
G37*
G36*
X-26003Y22461D02*
X-26003Y22461D01*
X-25841Y22461D01*
X-25841Y22473D01*
X-26003Y22473D01*
X-26003Y22461D01*
D02*
G37*
G36*
X-27907Y22448D02*
X-27907Y22448D01*
X-27785Y22448D01*
X-27785Y22461D01*
X-27907Y22461D01*
X-27907Y22448D01*
D02*
G37*
G36*
X-27731Y22448D02*
X-27731Y22448D01*
X-27286Y22448D01*
X-27286Y22461D01*
X-27731Y22461D01*
X-27731Y22448D01*
D02*
G37*
G36*
X-26962Y22448D02*
X-26962Y22448D01*
X-26881Y22448D01*
X-26881Y22461D01*
X-26962Y22461D01*
X-26962Y22448D01*
D02*
G37*
G36*
X-26814Y22448D02*
X-26814Y22448D01*
X-26787Y22448D01*
X-26787Y22461D01*
X-26814Y22461D01*
X-26814Y22448D01*
D02*
G37*
G36*
X-26732Y22448D02*
X-26732Y22448D01*
X-26665Y22448D01*
X-26665Y22461D01*
X-26732Y22461D01*
X-26732Y22448D01*
D02*
G37*
G36*
X-26597Y22448D02*
X-26597Y22448D01*
X-26543Y22448D01*
X-26543Y22461D01*
X-26597Y22461D01*
X-26597Y22448D01*
D02*
G37*
G36*
X-26476Y22448D02*
X-26476Y22448D01*
X-26422Y22448D01*
X-26422Y22461D01*
X-26476Y22461D01*
X-26476Y22448D01*
D02*
G37*
G36*
X-26003Y22448D02*
X-26003Y22448D01*
X-25922Y22448D01*
X-25922Y22461D01*
X-26003Y22461D01*
X-26003Y22448D01*
D02*
G37*
G36*
X-25855Y22448D02*
X-25855Y22448D01*
X-25841Y22448D01*
X-25841Y22461D01*
X-25855Y22461D01*
X-25855Y22448D01*
D02*
G37*
G36*
X-27907Y22436D02*
X-27907Y22436D01*
X-27772Y22436D01*
X-27772Y22448D01*
X-27907Y22448D01*
X-27907Y22436D01*
D02*
G37*
G36*
X-27731Y22436D02*
X-27731Y22436D01*
X-27259Y22436D01*
X-27259Y22448D01*
X-27731Y22448D01*
X-27731Y22436D01*
D02*
G37*
G36*
X-26975Y22436D02*
X-26975Y22436D01*
X-26908Y22436D01*
X-26908Y22448D01*
X-26975Y22448D01*
X-26975Y22436D01*
D02*
G37*
G36*
X-26732Y22436D02*
X-26732Y22436D01*
X-26665Y22436D01*
X-26665Y22448D01*
X-26732Y22448D01*
X-26732Y22436D01*
D02*
G37*
G36*
X-26597Y22436D02*
X-26597Y22436D01*
X-26543Y22436D01*
X-26543Y22448D01*
X-26597Y22448D01*
X-26597Y22436D01*
D02*
G37*
G36*
X-26476Y22436D02*
X-26476Y22436D01*
X-26422Y22436D01*
X-26422Y22448D01*
X-26476Y22448D01*
X-26476Y22436D01*
D02*
G37*
G36*
X-26017Y22436D02*
X-26017Y22436D01*
X-25949Y22436D01*
X-25949Y22448D01*
X-26017Y22448D01*
X-26017Y22436D01*
D02*
G37*
G36*
X-25558Y22436D02*
X-25558Y22436D01*
X-25504Y22436D01*
X-25504Y22448D01*
X-25558Y22448D01*
X-25558Y22436D01*
D02*
G37*
G36*
X-27907Y22424D02*
X-27907Y22424D01*
X-27772Y22424D01*
X-27772Y22436D01*
X-27907Y22436D01*
X-27907Y22424D01*
D02*
G37*
G36*
X-27731Y22424D02*
X-27731Y22424D01*
X-27246Y22424D01*
X-27246Y22436D01*
X-27731Y22436D01*
X-27731Y22424D01*
D02*
G37*
G36*
X-26975Y22424D02*
X-26975Y22424D01*
X-26908Y22424D01*
X-26908Y22436D01*
X-26975Y22436D01*
X-26975Y22424D01*
D02*
G37*
G36*
X-26719Y22424D02*
X-26719Y22424D01*
X-26665Y22424D01*
X-26665Y22436D01*
X-26719Y22436D01*
X-26719Y22424D01*
D02*
G37*
G36*
X-26597Y22424D02*
X-26597Y22424D01*
X-26543Y22424D01*
X-26543Y22436D01*
X-26597Y22436D01*
X-26597Y22424D01*
D02*
G37*
G36*
X-26476Y22424D02*
X-26476Y22424D01*
X-26422Y22424D01*
X-26422Y22436D01*
X-26476Y22436D01*
X-26476Y22424D01*
D02*
G37*
G36*
X-26017Y22424D02*
X-26017Y22424D01*
X-25949Y22424D01*
X-25949Y22436D01*
X-26017Y22436D01*
X-26017Y22424D01*
D02*
G37*
G36*
X-25558Y22424D02*
X-25558Y22424D01*
X-25504Y22424D01*
X-25504Y22436D01*
X-25558Y22436D01*
X-25558Y22424D01*
D02*
G37*
G36*
X-27893Y22412D02*
X-27893Y22412D01*
X-27758Y22412D01*
X-27758Y22424D01*
X-27893Y22424D01*
X-27893Y22412D01*
D02*
G37*
G36*
X-27731Y22412D02*
X-27731Y22412D01*
X-27232Y22412D01*
X-27232Y22424D01*
X-27731Y22424D01*
X-27731Y22412D01*
D02*
G37*
G36*
X-26975Y22412D02*
X-26975Y22412D01*
X-26908Y22412D01*
X-26908Y22424D01*
X-26975Y22424D01*
X-26975Y22412D01*
D02*
G37*
G36*
X-26597Y22412D02*
X-26597Y22412D01*
X-26543Y22412D01*
X-26543Y22424D01*
X-26597Y22424D01*
X-26597Y22412D01*
D02*
G37*
G36*
X-26476Y22412D02*
X-26476Y22412D01*
X-26422Y22412D01*
X-26422Y22424D01*
X-26476Y22424D01*
X-26476Y22412D01*
D02*
G37*
G36*
X-26030Y22412D02*
X-26030Y22412D01*
X-25963Y22412D01*
X-25963Y22424D01*
X-26030Y22424D01*
X-26030Y22412D01*
D02*
G37*
G36*
X-25558Y22412D02*
X-25558Y22412D01*
X-25504Y22412D01*
X-25504Y22424D01*
X-25558Y22424D01*
X-25558Y22412D01*
D02*
G37*
G36*
X-27893Y22400D02*
X-27893Y22400D01*
X-27745Y22400D01*
X-27745Y22412D01*
X-27893Y22412D01*
X-27893Y22400D01*
D02*
G37*
G36*
X-27718Y22400D02*
X-27718Y22400D01*
X-27218Y22400D01*
X-27218Y22412D01*
X-27718Y22412D01*
X-27718Y22400D01*
D02*
G37*
G36*
X-26975Y22400D02*
X-26975Y22400D01*
X-26908Y22400D01*
X-26908Y22412D01*
X-26975Y22412D01*
X-26975Y22400D01*
D02*
G37*
G36*
X-26597Y22400D02*
X-26597Y22400D01*
X-26543Y22400D01*
X-26543Y22412D01*
X-26597Y22412D01*
X-26597Y22400D01*
D02*
G37*
G36*
X-26476Y22400D02*
X-26476Y22400D01*
X-26422Y22400D01*
X-26422Y22412D01*
X-26476Y22412D01*
X-26476Y22400D01*
D02*
G37*
G36*
X-26030Y22400D02*
X-26030Y22400D01*
X-25963Y22400D01*
X-25963Y22412D01*
X-26030Y22412D01*
X-26030Y22400D01*
D02*
G37*
G36*
X-25558Y22400D02*
X-25558Y22400D01*
X-25504Y22400D01*
X-25504Y22412D01*
X-25558Y22412D01*
X-25558Y22400D01*
D02*
G37*
G36*
X-27880Y22388D02*
X-27880Y22388D01*
X-27745Y22388D01*
X-27745Y22400D01*
X-27880Y22400D01*
X-27880Y22388D01*
D02*
G37*
G36*
X-27718Y22388D02*
X-27718Y22388D01*
X-27205Y22388D01*
X-27205Y22400D01*
X-27718Y22400D01*
X-27718Y22388D01*
D02*
G37*
G36*
X-26975Y22388D02*
X-26975Y22388D01*
X-26908Y22388D01*
X-26908Y22400D01*
X-26975Y22400D01*
X-26975Y22388D01*
D02*
G37*
G36*
X-26597Y22388D02*
X-26597Y22388D01*
X-26543Y22388D01*
X-26543Y22400D01*
X-26597Y22400D01*
X-26597Y22388D01*
D02*
G37*
G36*
X-26476Y22388D02*
X-26476Y22388D01*
X-26422Y22388D01*
X-26422Y22400D01*
X-26476Y22400D01*
X-26476Y22388D01*
D02*
G37*
G36*
X-26030Y22388D02*
X-26030Y22388D01*
X-25976Y22388D01*
X-25976Y22400D01*
X-26030Y22400D01*
X-26030Y22388D01*
D02*
G37*
G36*
X-25558Y22388D02*
X-25558Y22388D01*
X-25504Y22388D01*
X-25504Y22400D01*
X-25558Y22400D01*
X-25558Y22388D01*
D02*
G37*
G36*
X-27880Y22376D02*
X-27880Y22376D01*
X-27731Y22376D01*
X-27731Y22388D01*
X-27880Y22388D01*
X-27880Y22376D01*
D02*
G37*
G36*
X-27705Y22376D02*
X-27705Y22376D01*
X-27205Y22376D01*
X-27205Y22388D01*
X-27705Y22388D01*
X-27705Y22376D01*
D02*
G37*
G36*
X-26975Y22376D02*
X-26975Y22376D01*
X-26908Y22376D01*
X-26908Y22388D01*
X-26975Y22388D01*
X-26975Y22376D01*
D02*
G37*
G36*
X-26597Y22376D02*
X-26597Y22376D01*
X-26543Y22376D01*
X-26543Y22388D01*
X-26597Y22388D01*
X-26597Y22376D01*
D02*
G37*
G36*
X-26476Y22376D02*
X-26476Y22376D01*
X-26422Y22376D01*
X-26422Y22388D01*
X-26476Y22388D01*
X-26476Y22376D01*
D02*
G37*
G36*
X-26030Y22376D02*
X-26030Y22376D01*
X-25976Y22376D01*
X-25976Y22388D01*
X-26030Y22388D01*
X-26030Y22376D01*
D02*
G37*
G36*
X-25558Y22376D02*
X-25558Y22376D01*
X-25504Y22376D01*
X-25504Y22388D01*
X-25558Y22388D01*
X-25558Y22376D01*
D02*
G37*
G36*
X-27880Y22364D02*
X-27880Y22364D01*
X-27718Y22364D01*
X-27718Y22376D01*
X-27880Y22376D01*
X-27880Y22364D01*
D02*
G37*
G36*
X-27691Y22364D02*
X-27691Y22364D01*
X-27205Y22364D01*
X-27205Y22376D01*
X-27691Y22376D01*
X-27691Y22364D01*
D02*
G37*
G36*
X-26962Y22364D02*
X-26962Y22364D01*
X-26894Y22364D01*
X-26894Y22376D01*
X-26962Y22376D01*
X-26962Y22364D01*
D02*
G37*
G36*
X-26719Y22364D02*
X-26719Y22364D01*
X-26665Y22364D01*
X-26665Y22376D01*
X-26719Y22376D01*
X-26719Y22364D01*
D02*
G37*
G36*
X-26597Y22364D02*
X-26597Y22364D01*
X-26543Y22364D01*
X-26543Y22376D01*
X-26597Y22376D01*
X-26597Y22364D01*
D02*
G37*
G36*
X-26476Y22364D02*
X-26476Y22364D01*
X-26422Y22364D01*
X-26422Y22376D01*
X-26476Y22376D01*
X-26476Y22364D01*
D02*
G37*
G36*
X-26381Y22364D02*
X-26381Y22364D01*
X-26328Y22364D01*
X-26328Y22376D01*
X-26381Y22376D01*
X-26381Y22364D01*
D02*
G37*
G36*
X-26246Y22364D02*
X-26246Y22364D01*
X-26192Y22364D01*
X-26192Y22376D01*
X-26246Y22376D01*
X-26246Y22364D01*
D02*
G37*
G36*
X-26030Y22364D02*
X-26030Y22364D01*
X-25976Y22364D01*
X-25976Y22376D01*
X-26030Y22376D01*
X-26030Y22364D01*
D02*
G37*
G36*
X-25774Y22364D02*
X-25774Y22364D01*
X-25693Y22364D01*
X-25693Y22376D01*
X-25774Y22376D01*
X-25774Y22364D01*
D02*
G37*
G36*
X-25679Y22364D02*
X-25679Y22364D01*
X-25625Y22364D01*
X-25625Y22376D01*
X-25679Y22376D01*
X-25679Y22364D01*
D02*
G37*
G36*
X-25585Y22364D02*
X-25585Y22364D01*
X-25463Y22364D01*
X-25463Y22376D01*
X-25585Y22376D01*
X-25585Y22364D01*
D02*
G37*
G36*
X-27866Y22352D02*
X-27866Y22352D01*
X-27705Y22352D01*
X-27705Y22364D01*
X-27866Y22364D01*
X-27866Y22352D01*
D02*
G37*
G36*
X-27691Y22352D02*
X-27691Y22352D01*
X-27205Y22352D01*
X-27205Y22364D01*
X-27691Y22364D01*
X-27691Y22352D01*
D02*
G37*
G36*
X-26962Y22352D02*
X-26962Y22352D01*
X-26894Y22352D01*
X-26894Y22364D01*
X-26962Y22364D01*
X-26962Y22352D01*
D02*
G37*
G36*
X-26719Y22352D02*
X-26719Y22352D01*
X-26665Y22352D01*
X-26665Y22364D01*
X-26719Y22364D01*
X-26719Y22352D01*
D02*
G37*
G36*
X-26597Y22352D02*
X-26597Y22352D01*
X-26543Y22352D01*
X-26543Y22364D01*
X-26597Y22364D01*
X-26597Y22352D01*
D02*
G37*
G36*
X-26476Y22352D02*
X-26476Y22352D01*
X-26422Y22352D01*
X-26422Y22364D01*
X-26476Y22364D01*
X-26476Y22352D01*
D02*
G37*
G36*
X-26368Y22352D02*
X-26368Y22352D01*
X-26314Y22352D01*
X-26314Y22364D01*
X-26368Y22364D01*
X-26368Y22352D01*
D02*
G37*
G36*
X-26246Y22352D02*
X-26246Y22352D01*
X-26192Y22352D01*
X-26192Y22364D01*
X-26246Y22364D01*
X-26246Y22352D01*
D02*
G37*
G36*
X-26030Y22352D02*
X-26030Y22352D01*
X-25976Y22352D01*
X-25976Y22364D01*
X-26030Y22364D01*
X-26030Y22352D01*
D02*
G37*
G36*
X-25787Y22352D02*
X-25787Y22352D01*
X-25625Y22352D01*
X-25625Y22364D01*
X-25787Y22364D01*
X-25787Y22352D01*
D02*
G37*
G36*
X-25585Y22352D02*
X-25585Y22352D01*
X-25463Y22352D01*
X-25463Y22364D01*
X-25585Y22364D01*
X-25585Y22352D01*
D02*
G37*
G36*
X-27853Y22339D02*
X-27853Y22339D01*
X-27691Y22339D01*
X-27691Y22352D01*
X-27853Y22352D01*
X-27853Y22339D01*
D02*
G37*
G36*
X-27678Y22339D02*
X-27678Y22339D01*
X-27205Y22339D01*
X-27205Y22352D01*
X-27678Y22352D01*
X-27678Y22339D01*
D02*
G37*
G36*
X-26948Y22339D02*
X-26948Y22339D01*
X-26881Y22339D01*
X-26881Y22352D01*
X-26948Y22352D01*
X-26948Y22339D01*
D02*
G37*
G36*
X-26719Y22339D02*
X-26719Y22339D01*
X-26665Y22339D01*
X-26665Y22352D01*
X-26719Y22352D01*
X-26719Y22339D01*
D02*
G37*
G36*
X-26597Y22339D02*
X-26597Y22339D01*
X-26543Y22339D01*
X-26543Y22352D01*
X-26597Y22352D01*
X-26597Y22339D01*
D02*
G37*
G36*
X-26476Y22339D02*
X-26476Y22339D01*
X-26422Y22339D01*
X-26422Y22352D01*
X-26476Y22352D01*
X-26476Y22339D01*
D02*
G37*
G36*
X-26368Y22339D02*
X-26368Y22339D01*
X-26314Y22339D01*
X-26314Y22352D01*
X-26368Y22352D01*
X-26368Y22339D01*
D02*
G37*
G36*
X-26246Y22339D02*
X-26246Y22339D01*
X-26192Y22339D01*
X-26192Y22352D01*
X-26246Y22352D01*
X-26246Y22339D01*
D02*
G37*
G36*
X-26044Y22339D02*
X-26044Y22339D01*
X-25976Y22339D01*
X-25976Y22352D01*
X-26044Y22352D01*
X-26044Y22339D01*
D02*
G37*
G36*
X-25787Y22339D02*
X-25787Y22339D01*
X-25625Y22339D01*
X-25625Y22352D01*
X-25787Y22352D01*
X-25787Y22339D01*
D02*
G37*
G36*
X-25585Y22339D02*
X-25585Y22339D01*
X-25463Y22339D01*
X-25463Y22352D01*
X-25585Y22352D01*
X-25585Y22339D01*
D02*
G37*
G36*
X-27853Y22327D02*
X-27853Y22327D01*
X-27678Y22327D01*
X-27678Y22339D01*
X-27853Y22339D01*
X-27853Y22327D01*
D02*
G37*
G36*
X-27664Y22327D02*
X-27664Y22327D01*
X-27205Y22327D01*
X-27205Y22339D01*
X-27664Y22339D01*
X-27664Y22327D01*
D02*
G37*
G36*
X-26948Y22327D02*
X-26948Y22327D01*
X-26854Y22327D01*
X-26854Y22339D01*
X-26948Y22339D01*
X-26948Y22327D01*
D02*
G37*
G36*
X-26719Y22327D02*
X-26719Y22327D01*
X-26665Y22327D01*
X-26665Y22339D01*
X-26719Y22339D01*
X-26719Y22327D01*
D02*
G37*
G36*
X-26597Y22327D02*
X-26597Y22327D01*
X-26543Y22327D01*
X-26543Y22339D01*
X-26597Y22339D01*
X-26597Y22327D01*
D02*
G37*
G36*
X-26476Y22327D02*
X-26476Y22327D01*
X-26422Y22327D01*
X-26422Y22339D01*
X-26476Y22339D01*
X-26476Y22327D01*
D02*
G37*
G36*
X-26368Y22327D02*
X-26368Y22327D01*
X-26314Y22327D01*
X-26314Y22339D01*
X-26368Y22339D01*
X-26368Y22327D01*
D02*
G37*
G36*
X-26246Y22327D02*
X-26246Y22327D01*
X-26206Y22327D01*
X-26206Y22339D01*
X-26246Y22339D01*
X-26246Y22327D01*
D02*
G37*
G36*
X-26044Y22327D02*
X-26044Y22327D01*
X-25976Y22327D01*
X-25976Y22339D01*
X-26044Y22339D01*
X-26044Y22327D01*
D02*
G37*
G36*
X-25801Y22327D02*
X-25801Y22327D01*
X-25720Y22327D01*
X-25720Y22339D01*
X-25801Y22339D01*
X-25801Y22327D01*
D02*
G37*
G36*
X-25706Y22327D02*
X-25706Y22327D01*
X-25625Y22327D01*
X-25625Y22339D01*
X-25706Y22339D01*
X-25706Y22327D01*
D02*
G37*
G36*
X-25558Y22327D02*
X-25558Y22327D01*
X-25504Y22327D01*
X-25504Y22339D01*
X-25558Y22339D01*
X-25558Y22327D01*
D02*
G37*
G36*
X-27839Y22315D02*
X-27839Y22315D01*
X-27664Y22315D01*
X-27664Y22327D01*
X-27839Y22327D01*
X-27839Y22315D01*
D02*
G37*
G36*
X-27650Y22315D02*
X-27650Y22315D01*
X-27205Y22315D01*
X-27205Y22327D01*
X-27650Y22327D01*
X-27650Y22315D01*
D02*
G37*
G36*
X-26935Y22315D02*
X-26935Y22315D01*
X-26840Y22315D01*
X-26840Y22327D01*
X-26935Y22327D01*
X-26935Y22315D01*
D02*
G37*
G36*
X-26719Y22315D02*
X-26719Y22315D01*
X-26665Y22315D01*
X-26665Y22327D01*
X-26719Y22327D01*
X-26719Y22315D01*
D02*
G37*
G36*
X-26597Y22315D02*
X-26597Y22315D01*
X-26543Y22315D01*
X-26543Y22327D01*
X-26597Y22327D01*
X-26597Y22315D01*
D02*
G37*
G36*
X-26476Y22315D02*
X-26476Y22315D01*
X-26422Y22315D01*
X-26422Y22327D01*
X-26476Y22327D01*
X-26476Y22315D01*
D02*
G37*
G36*
X-26368Y22315D02*
X-26368Y22315D01*
X-26314Y22315D01*
X-26314Y22327D01*
X-26368Y22327D01*
X-26368Y22315D01*
D02*
G37*
G36*
X-26260Y22315D02*
X-26260Y22315D01*
X-26206Y22315D01*
X-26206Y22327D01*
X-26260Y22327D01*
X-26260Y22315D01*
D02*
G37*
G36*
X-26044Y22315D02*
X-26044Y22315D01*
X-25976Y22315D01*
X-25976Y22327D01*
X-26044Y22327D01*
X-26044Y22315D01*
D02*
G37*
G36*
X-25801Y22315D02*
X-25801Y22315D01*
X-25747Y22315D01*
X-25747Y22327D01*
X-25801Y22327D01*
X-25801Y22315D01*
D02*
G37*
G36*
X-25679Y22315D02*
X-25679Y22315D01*
X-25625Y22315D01*
X-25625Y22327D01*
X-25679Y22327D01*
X-25679Y22315D01*
D02*
G37*
G36*
X-25558Y22315D02*
X-25558Y22315D01*
X-25504Y22315D01*
X-25504Y22327D01*
X-25558Y22327D01*
X-25558Y22315D01*
D02*
G37*
G36*
X-27839Y22303D02*
X-27839Y22303D01*
X-27218Y22303D01*
X-27218Y22315D01*
X-27839Y22315D01*
X-27839Y22303D01*
D02*
G37*
G36*
X-26921Y22303D02*
X-26921Y22303D01*
X-26827Y22303D01*
X-26827Y22315D01*
X-26921Y22315D01*
X-26921Y22303D01*
D02*
G37*
G36*
X-26719Y22303D02*
X-26719Y22303D01*
X-26665Y22303D01*
X-26665Y22315D01*
X-26719Y22315D01*
X-26719Y22303D01*
D02*
G37*
G36*
X-26597Y22303D02*
X-26597Y22303D01*
X-26543Y22303D01*
X-26543Y22315D01*
X-26597Y22315D01*
X-26597Y22303D01*
D02*
G37*
G36*
X-26476Y22303D02*
X-26476Y22303D01*
X-26422Y22303D01*
X-26422Y22315D01*
X-26476Y22315D01*
X-26476Y22303D01*
D02*
G37*
G36*
X-26355Y22303D02*
X-26355Y22303D01*
X-26314Y22303D01*
X-26314Y22315D01*
X-26355Y22315D01*
X-26355Y22303D01*
D02*
G37*
G36*
X-26260Y22303D02*
X-26260Y22303D01*
X-26206Y22303D01*
X-26206Y22315D01*
X-26260Y22315D01*
X-26260Y22303D01*
D02*
G37*
G36*
X-26044Y22303D02*
X-26044Y22303D01*
X-25976Y22303D01*
X-25976Y22315D01*
X-26044Y22315D01*
X-26044Y22303D01*
D02*
G37*
G36*
X-25801Y22303D02*
X-25801Y22303D01*
X-25747Y22303D01*
X-25747Y22315D01*
X-25801Y22315D01*
X-25801Y22303D01*
D02*
G37*
G36*
X-25679Y22303D02*
X-25679Y22303D01*
X-25625Y22303D01*
X-25625Y22315D01*
X-25679Y22315D01*
X-25679Y22303D01*
D02*
G37*
G36*
X-25558Y22303D02*
X-25558Y22303D01*
X-25504Y22303D01*
X-25504Y22315D01*
X-25558Y22315D01*
X-25558Y22303D01*
D02*
G37*
G36*
X-27826Y22291D02*
X-27826Y22291D01*
X-27218Y22291D01*
X-27218Y22303D01*
X-27826Y22303D01*
X-27826Y22291D01*
D02*
G37*
G36*
X-26908Y22291D02*
X-26908Y22291D01*
X-26814Y22291D01*
X-26814Y22303D01*
X-26908Y22303D01*
X-26908Y22291D01*
D02*
G37*
G36*
X-26719Y22291D02*
X-26719Y22291D01*
X-26665Y22291D01*
X-26665Y22303D01*
X-26719Y22303D01*
X-26719Y22291D01*
D02*
G37*
G36*
X-26597Y22291D02*
X-26597Y22291D01*
X-26543Y22291D01*
X-26543Y22303D01*
X-26597Y22303D01*
X-26597Y22291D01*
D02*
G37*
G36*
X-26476Y22291D02*
X-26476Y22291D01*
X-26422Y22291D01*
X-26422Y22303D01*
X-26476Y22303D01*
X-26476Y22291D01*
D02*
G37*
G36*
X-26355Y22291D02*
X-26355Y22291D01*
X-26300Y22291D01*
X-26300Y22303D01*
X-26355Y22303D01*
X-26355Y22291D01*
D02*
G37*
G36*
X-26260Y22291D02*
X-26260Y22291D01*
X-26206Y22291D01*
X-26206Y22303D01*
X-26260Y22303D01*
X-26260Y22291D01*
D02*
G37*
G36*
X-26044Y22291D02*
X-26044Y22291D01*
X-25976Y22291D01*
X-25976Y22303D01*
X-26044Y22303D01*
X-26044Y22291D01*
D02*
G37*
G36*
X-25801Y22291D02*
X-25801Y22291D01*
X-25747Y22291D01*
X-25747Y22303D01*
X-25801Y22303D01*
X-25801Y22291D01*
D02*
G37*
G36*
X-25679Y22291D02*
X-25679Y22291D01*
X-25625Y22291D01*
X-25625Y22303D01*
X-25679Y22303D01*
X-25679Y22291D01*
D02*
G37*
G36*
X-25558Y22291D02*
X-25558Y22291D01*
X-25504Y22291D01*
X-25504Y22303D01*
X-25558Y22303D01*
X-25558Y22291D01*
D02*
G37*
G36*
X-27812Y22279D02*
X-27812Y22279D01*
X-27232Y22279D01*
X-27232Y22291D01*
X-27812Y22291D01*
X-27812Y22279D01*
D02*
G37*
G36*
X-26881Y22279D02*
X-26881Y22279D01*
X-26800Y22279D01*
X-26800Y22291D01*
X-26881Y22291D01*
X-26881Y22279D01*
D02*
G37*
G36*
X-26719Y22279D02*
X-26719Y22279D01*
X-26665Y22279D01*
X-26665Y22291D01*
X-26719Y22291D01*
X-26719Y22279D01*
D02*
G37*
G36*
X-26597Y22279D02*
X-26597Y22279D01*
X-26543Y22279D01*
X-26543Y22291D01*
X-26597Y22291D01*
X-26597Y22279D01*
D02*
G37*
G36*
X-26476Y22279D02*
X-26476Y22279D01*
X-26422Y22279D01*
X-26422Y22291D01*
X-26476Y22291D01*
X-26476Y22279D01*
D02*
G37*
G36*
X-26355Y22279D02*
X-26355Y22279D01*
X-26300Y22279D01*
X-26300Y22291D01*
X-26355Y22291D01*
X-26355Y22279D01*
D02*
G37*
G36*
X-26260Y22279D02*
X-26260Y22279D01*
X-26219Y22279D01*
X-26219Y22291D01*
X-26260Y22291D01*
X-26260Y22279D01*
D02*
G37*
G36*
X-26044Y22279D02*
X-26044Y22279D01*
X-25976Y22279D01*
X-25976Y22291D01*
X-26044Y22291D01*
X-26044Y22279D01*
D02*
G37*
G36*
X-25801Y22279D02*
X-25801Y22279D01*
X-25747Y22279D01*
X-25747Y22291D01*
X-25801Y22291D01*
X-25801Y22279D01*
D02*
G37*
G36*
X-25679Y22279D02*
X-25679Y22279D01*
X-25625Y22279D01*
X-25625Y22291D01*
X-25679Y22291D01*
X-25679Y22279D01*
D02*
G37*
G36*
X-25558Y22279D02*
X-25558Y22279D01*
X-25504Y22279D01*
X-25504Y22291D01*
X-25558Y22291D01*
X-25558Y22279D01*
D02*
G37*
G36*
X-27812Y22267D02*
X-27812Y22267D01*
X-27246Y22267D01*
X-27246Y22279D01*
X-27812Y22279D01*
X-27812Y22267D01*
D02*
G37*
G36*
X-26867Y22267D02*
X-26867Y22267D01*
X-26787Y22267D01*
X-26787Y22279D01*
X-26867Y22279D01*
X-26867Y22267D01*
D02*
G37*
G36*
X-26719Y22267D02*
X-26719Y22267D01*
X-26665Y22267D01*
X-26665Y22279D01*
X-26719Y22279D01*
X-26719Y22267D01*
D02*
G37*
G36*
X-26597Y22267D02*
X-26597Y22267D01*
X-26543Y22267D01*
X-26543Y22279D01*
X-26597Y22279D01*
X-26597Y22267D01*
D02*
G37*
G36*
X-26476Y22267D02*
X-26476Y22267D01*
X-26422Y22267D01*
X-26422Y22279D01*
X-26476Y22279D01*
X-26476Y22267D01*
D02*
G37*
G36*
X-26355Y22267D02*
X-26355Y22267D01*
X-26300Y22267D01*
X-26300Y22279D01*
X-26355Y22279D01*
X-26355Y22267D01*
D02*
G37*
G36*
X-26273Y22267D02*
X-26273Y22267D01*
X-26219Y22267D01*
X-26219Y22279D01*
X-26273Y22279D01*
X-26273Y22267D01*
D02*
G37*
G36*
X-26044Y22267D02*
X-26044Y22267D01*
X-25976Y22267D01*
X-25976Y22279D01*
X-26044Y22279D01*
X-26044Y22267D01*
D02*
G37*
G36*
X-25814Y22267D02*
X-25814Y22267D01*
X-25747Y22267D01*
X-25747Y22279D01*
X-25814Y22279D01*
X-25814Y22267D01*
D02*
G37*
G36*
X-25679Y22267D02*
X-25679Y22267D01*
X-25625Y22267D01*
X-25625Y22279D01*
X-25679Y22279D01*
X-25679Y22267D01*
D02*
G37*
G36*
X-25558Y22267D02*
X-25558Y22267D01*
X-25504Y22267D01*
X-25504Y22279D01*
X-25558Y22279D01*
X-25558Y22267D01*
D02*
G37*
G36*
X-27799Y22255D02*
X-27799Y22255D01*
X-27246Y22255D01*
X-27246Y22267D01*
X-27799Y22267D01*
X-27799Y22255D01*
D02*
G37*
G36*
X-26854Y22255D02*
X-26854Y22255D01*
X-26787Y22255D01*
X-26787Y22267D01*
X-26854Y22267D01*
X-26854Y22255D01*
D02*
G37*
G36*
X-26719Y22255D02*
X-26719Y22255D01*
X-26665Y22255D01*
X-26665Y22267D01*
X-26719Y22267D01*
X-26719Y22255D01*
D02*
G37*
G36*
X-26597Y22255D02*
X-26597Y22255D01*
X-26543Y22255D01*
X-26543Y22267D01*
X-26597Y22267D01*
X-26597Y22255D01*
D02*
G37*
G36*
X-26476Y22255D02*
X-26476Y22255D01*
X-26422Y22255D01*
X-26422Y22267D01*
X-26476Y22267D01*
X-26476Y22255D01*
D02*
G37*
G36*
X-26355Y22255D02*
X-26355Y22255D01*
X-26300Y22255D01*
X-26300Y22267D01*
X-26355Y22267D01*
X-26355Y22255D01*
D02*
G37*
G36*
X-26273Y22255D02*
X-26273Y22255D01*
X-26219Y22255D01*
X-26219Y22267D01*
X-26273Y22267D01*
X-26273Y22255D01*
D02*
G37*
G36*
X-26044Y22255D02*
X-26044Y22255D01*
X-25976Y22255D01*
X-25976Y22267D01*
X-26044Y22267D01*
X-26044Y22255D01*
D02*
G37*
G36*
X-25814Y22255D02*
X-25814Y22255D01*
X-25760Y22255D01*
X-25760Y22267D01*
X-25814Y22267D01*
X-25814Y22255D01*
D02*
G37*
G36*
X-25679Y22255D02*
X-25679Y22255D01*
X-25625Y22255D01*
X-25625Y22267D01*
X-25679Y22267D01*
X-25679Y22255D01*
D02*
G37*
G36*
X-25558Y22255D02*
X-25558Y22255D01*
X-25504Y22255D01*
X-25504Y22267D01*
X-25558Y22267D01*
X-25558Y22255D01*
D02*
G37*
G36*
X-27785Y22242D02*
X-27785Y22242D01*
X-27259Y22242D01*
X-27259Y22255D01*
X-27785Y22255D01*
X-27785Y22242D01*
D02*
G37*
G36*
X-26854Y22242D02*
X-26854Y22242D01*
X-26773Y22242D01*
X-26773Y22255D01*
X-26854Y22255D01*
X-26854Y22242D01*
D02*
G37*
G36*
X-26719Y22242D02*
X-26719Y22242D01*
X-26665Y22242D01*
X-26665Y22255D01*
X-26719Y22255D01*
X-26719Y22242D01*
D02*
G37*
G36*
X-26597Y22242D02*
X-26597Y22242D01*
X-26543Y22242D01*
X-26543Y22255D01*
X-26597Y22255D01*
X-26597Y22242D01*
D02*
G37*
G36*
X-26476Y22242D02*
X-26476Y22242D01*
X-26422Y22242D01*
X-26422Y22255D01*
X-26476Y22255D01*
X-26476Y22242D01*
D02*
G37*
G36*
X-26341Y22242D02*
X-26341Y22242D01*
X-26300Y22242D01*
X-26300Y22255D01*
X-26341Y22255D01*
X-26341Y22242D01*
D02*
G37*
G36*
X-26273Y22242D02*
X-26273Y22242D01*
X-26233Y22242D01*
X-26233Y22255D01*
X-26273Y22255D01*
X-26273Y22242D01*
D02*
G37*
G36*
X-26044Y22242D02*
X-26044Y22242D01*
X-25976Y22242D01*
X-25976Y22255D01*
X-26044Y22255D01*
X-26044Y22242D01*
D02*
G37*
G36*
X-25814Y22242D02*
X-25814Y22242D01*
X-25760Y22242D01*
X-25760Y22255D01*
X-25814Y22255D01*
X-25814Y22242D01*
D02*
G37*
G36*
X-25679Y22242D02*
X-25679Y22242D01*
X-25625Y22242D01*
X-25625Y22255D01*
X-25679Y22255D01*
X-25679Y22242D01*
D02*
G37*
G36*
X-25558Y22242D02*
X-25558Y22242D01*
X-25504Y22242D01*
X-25504Y22255D01*
X-25558Y22255D01*
X-25558Y22242D01*
D02*
G37*
G36*
X-27772Y22230D02*
X-27772Y22230D01*
X-27272Y22230D01*
X-27272Y22242D01*
X-27772Y22242D01*
X-27772Y22230D01*
D02*
G37*
G36*
X-26840Y22230D02*
X-26840Y22230D01*
X-26773Y22230D01*
X-26773Y22242D01*
X-26840Y22242D01*
X-26840Y22230D01*
D02*
G37*
G36*
X-26719Y22230D02*
X-26719Y22230D01*
X-26665Y22230D01*
X-26665Y22242D01*
X-26719Y22242D01*
X-26719Y22230D01*
D02*
G37*
G36*
X-26597Y22230D02*
X-26597Y22230D01*
X-26543Y22230D01*
X-26543Y22242D01*
X-26597Y22242D01*
X-26597Y22230D01*
D02*
G37*
G36*
X-26476Y22230D02*
X-26476Y22230D01*
X-26422Y22230D01*
X-26422Y22242D01*
X-26476Y22242D01*
X-26476Y22230D01*
D02*
G37*
G36*
X-26341Y22230D02*
X-26341Y22230D01*
X-26287Y22230D01*
X-26287Y22242D01*
X-26341Y22242D01*
X-26341Y22230D01*
D02*
G37*
G36*
X-26273Y22230D02*
X-26273Y22230D01*
X-26233Y22230D01*
X-26233Y22242D01*
X-26273Y22242D01*
X-26273Y22230D01*
D02*
G37*
G36*
X-26030Y22230D02*
X-26030Y22230D01*
X-25976Y22230D01*
X-25976Y22242D01*
X-26030Y22242D01*
X-26030Y22230D01*
D02*
G37*
G36*
X-25814Y22230D02*
X-25814Y22230D01*
X-25747Y22230D01*
X-25747Y22242D01*
X-25814Y22242D01*
X-25814Y22230D01*
D02*
G37*
G36*
X-25679Y22230D02*
X-25679Y22230D01*
X-25625Y22230D01*
X-25625Y22242D01*
X-25679Y22242D01*
X-25679Y22230D01*
D02*
G37*
G36*
X-25558Y22230D02*
X-25558Y22230D01*
X-25504Y22230D01*
X-25504Y22242D01*
X-25558Y22242D01*
X-25558Y22230D01*
D02*
G37*
G36*
X-27758Y22218D02*
X-27758Y22218D01*
X-27286Y22218D01*
X-27286Y22230D01*
X-27758Y22230D01*
X-27758Y22218D01*
D02*
G37*
G36*
X-26840Y22218D02*
X-26840Y22218D01*
X-26773Y22218D01*
X-26773Y22230D01*
X-26840Y22230D01*
X-26840Y22218D01*
D02*
G37*
G36*
X-26719Y22218D02*
X-26719Y22218D01*
X-26665Y22218D01*
X-26665Y22230D01*
X-26719Y22230D01*
X-26719Y22218D01*
D02*
G37*
G36*
X-26597Y22218D02*
X-26597Y22218D01*
X-26543Y22218D01*
X-26543Y22230D01*
X-26597Y22230D01*
X-26597Y22218D01*
D02*
G37*
G36*
X-26476Y22218D02*
X-26476Y22218D01*
X-26422Y22218D01*
X-26422Y22230D01*
X-26476Y22230D01*
X-26476Y22218D01*
D02*
G37*
G36*
X-26341Y22218D02*
X-26341Y22218D01*
X-26233Y22218D01*
X-26233Y22230D01*
X-26341Y22230D01*
X-26341Y22218D01*
D02*
G37*
G36*
X-26030Y22218D02*
X-26030Y22218D01*
X-25976Y22218D01*
X-25976Y22230D01*
X-26030Y22230D01*
X-26030Y22218D01*
D02*
G37*
G36*
X-25814Y22218D02*
X-25814Y22218D01*
X-25760Y22218D01*
X-25760Y22230D01*
X-25814Y22230D01*
X-25814Y22218D01*
D02*
G37*
G36*
X-25679Y22218D02*
X-25679Y22218D01*
X-25625Y22218D01*
X-25625Y22230D01*
X-25679Y22230D01*
X-25679Y22218D01*
D02*
G37*
G36*
X-25558Y22218D02*
X-25558Y22218D01*
X-25504Y22218D01*
X-25504Y22230D01*
X-25558Y22230D01*
X-25558Y22218D01*
D02*
G37*
G36*
X-27745Y22206D02*
X-27745Y22206D01*
X-27299Y22206D01*
X-27299Y22218D01*
X-27745Y22218D01*
X-27745Y22206D01*
D02*
G37*
G36*
X-26827Y22206D02*
X-26827Y22206D01*
X-26773Y22206D01*
X-26773Y22218D01*
X-26827Y22218D01*
X-26827Y22206D01*
D02*
G37*
G36*
X-26719Y22206D02*
X-26719Y22206D01*
X-26665Y22206D01*
X-26665Y22218D01*
X-26719Y22218D01*
X-26719Y22206D01*
D02*
G37*
G36*
X-26597Y22206D02*
X-26597Y22206D01*
X-26543Y22206D01*
X-26543Y22218D01*
X-26597Y22218D01*
X-26597Y22206D01*
D02*
G37*
G36*
X-26476Y22206D02*
X-26476Y22206D01*
X-26422Y22206D01*
X-26422Y22218D01*
X-26476Y22218D01*
X-26476Y22206D01*
D02*
G37*
G36*
X-26341Y22206D02*
X-26341Y22206D01*
X-26233Y22206D01*
X-26233Y22218D01*
X-26341Y22218D01*
X-26341Y22206D01*
D02*
G37*
G36*
X-26030Y22206D02*
X-26030Y22206D01*
X-25963Y22206D01*
X-25963Y22218D01*
X-26030Y22218D01*
X-26030Y22206D01*
D02*
G37*
G36*
X-25801Y22206D02*
X-25801Y22206D01*
X-25747Y22206D01*
X-25747Y22218D01*
X-25801Y22218D01*
X-25801Y22206D01*
D02*
G37*
G36*
X-25679Y22206D02*
X-25679Y22206D01*
X-25625Y22206D01*
X-25625Y22218D01*
X-25679Y22218D01*
X-25679Y22206D01*
D02*
G37*
G36*
X-25558Y22206D02*
X-25558Y22206D01*
X-25504Y22206D01*
X-25504Y22218D01*
X-25558Y22218D01*
X-25558Y22206D01*
D02*
G37*
G36*
X-27731Y22194D02*
X-27731Y22194D01*
X-27313Y22194D01*
X-27313Y22206D01*
X-27731Y22206D01*
X-27731Y22194D01*
D02*
G37*
G36*
X-26827Y22194D02*
X-26827Y22194D01*
X-26773Y22194D01*
X-26773Y22206D01*
X-26827Y22206D01*
X-26827Y22194D01*
D02*
G37*
G36*
X-26719Y22194D02*
X-26719Y22194D01*
X-26665Y22194D01*
X-26665Y22206D01*
X-26719Y22206D01*
X-26719Y22194D01*
D02*
G37*
G36*
X-26597Y22194D02*
X-26597Y22194D01*
X-26543Y22194D01*
X-26543Y22206D01*
X-26597Y22206D01*
X-26597Y22194D01*
D02*
G37*
G36*
X-26476Y22194D02*
X-26476Y22194D01*
X-26422Y22194D01*
X-26422Y22206D01*
X-26476Y22206D01*
X-26476Y22194D01*
D02*
G37*
G36*
X-26328Y22194D02*
X-26328Y22194D01*
X-26246Y22194D01*
X-26246Y22206D01*
X-26328Y22206D01*
X-26328Y22194D01*
D02*
G37*
G36*
X-26030Y22194D02*
X-26030Y22194D01*
X-25963Y22194D01*
X-25963Y22206D01*
X-26030Y22206D01*
X-26030Y22194D01*
D02*
G37*
G36*
X-25801Y22194D02*
X-25801Y22194D01*
X-25747Y22194D01*
X-25747Y22206D01*
X-25801Y22206D01*
X-25801Y22194D01*
D02*
G37*
G36*
X-25679Y22194D02*
X-25679Y22194D01*
X-25625Y22194D01*
X-25625Y22206D01*
X-25679Y22206D01*
X-25679Y22194D01*
D02*
G37*
G36*
X-25558Y22194D02*
X-25558Y22194D01*
X-25504Y22194D01*
X-25504Y22206D01*
X-25558Y22206D01*
X-25558Y22194D01*
D02*
G37*
G36*
X-27718Y22182D02*
X-27718Y22182D01*
X-27313Y22182D01*
X-27313Y22194D01*
X-27718Y22194D01*
X-27718Y22182D01*
D02*
G37*
G36*
X-26840Y22182D02*
X-26840Y22182D01*
X-26773Y22182D01*
X-26773Y22194D01*
X-26840Y22194D01*
X-26840Y22182D01*
D02*
G37*
G36*
X-26719Y22182D02*
X-26719Y22182D01*
X-26665Y22182D01*
X-26665Y22194D01*
X-26719Y22194D01*
X-26719Y22182D01*
D02*
G37*
G36*
X-26597Y22182D02*
X-26597Y22182D01*
X-26543Y22182D01*
X-26543Y22194D01*
X-26597Y22194D01*
X-26597Y22182D01*
D02*
G37*
G36*
X-26476Y22182D02*
X-26476Y22182D01*
X-26422Y22182D01*
X-26422Y22194D01*
X-26476Y22194D01*
X-26476Y22182D01*
D02*
G37*
G36*
X-26328Y22182D02*
X-26328Y22182D01*
X-26246Y22182D01*
X-26246Y22194D01*
X-26328Y22194D01*
X-26328Y22182D01*
D02*
G37*
G36*
X-26017Y22182D02*
X-26017Y22182D01*
X-25949Y22182D01*
X-25949Y22194D01*
X-26017Y22194D01*
X-26017Y22182D01*
D02*
G37*
G36*
X-25801Y22182D02*
X-25801Y22182D01*
X-25747Y22182D01*
X-25747Y22194D01*
X-25801Y22194D01*
X-25801Y22182D01*
D02*
G37*
G36*
X-25679Y22182D02*
X-25679Y22182D01*
X-25625Y22182D01*
X-25625Y22194D01*
X-25679Y22194D01*
X-25679Y22182D01*
D02*
G37*
G36*
X-25558Y22182D02*
X-25558Y22182D01*
X-25504Y22182D01*
X-25504Y22194D01*
X-25558Y22194D01*
X-25558Y22182D01*
D02*
G37*
G36*
X-27705Y22170D02*
X-27705Y22170D01*
X-27326Y22170D01*
X-27326Y22182D01*
X-27705Y22182D01*
X-27705Y22170D01*
D02*
G37*
G36*
X-26840Y22170D02*
X-26840Y22170D01*
X-26773Y22170D01*
X-26773Y22182D01*
X-26840Y22182D01*
X-26840Y22170D01*
D02*
G37*
G36*
X-26719Y22170D02*
X-26719Y22170D01*
X-26665Y22170D01*
X-26665Y22182D01*
X-26719Y22182D01*
X-26719Y22170D01*
D02*
G37*
G36*
X-26597Y22170D02*
X-26597Y22170D01*
X-26543Y22170D01*
X-26543Y22182D01*
X-26597Y22182D01*
X-26597Y22170D01*
D02*
G37*
G36*
X-26476Y22170D02*
X-26476Y22170D01*
X-26422Y22170D01*
X-26422Y22182D01*
X-26476Y22182D01*
X-26476Y22170D01*
D02*
G37*
G36*
X-26328Y22170D02*
X-26328Y22170D01*
X-26246Y22170D01*
X-26246Y22182D01*
X-26328Y22182D01*
X-26328Y22170D01*
D02*
G37*
G36*
X-26017Y22170D02*
X-26017Y22170D01*
X-25949Y22170D01*
X-25949Y22182D01*
X-26017Y22182D01*
X-26017Y22170D01*
D02*
G37*
G36*
X-25801Y22170D02*
X-25801Y22170D01*
X-25747Y22170D01*
X-25747Y22182D01*
X-25801Y22182D01*
X-25801Y22170D01*
D02*
G37*
G36*
X-25679Y22170D02*
X-25679Y22170D01*
X-25625Y22170D01*
X-25625Y22182D01*
X-25679Y22182D01*
X-25679Y22170D01*
D02*
G37*
G36*
X-25558Y22170D02*
X-25558Y22170D01*
X-25504Y22170D01*
X-25504Y22182D01*
X-25558Y22182D01*
X-25558Y22170D01*
D02*
G37*
G36*
X-27691Y22158D02*
X-27691Y22158D01*
X-27353Y22158D01*
X-27353Y22170D01*
X-27691Y22170D01*
X-27691Y22158D01*
D02*
G37*
G36*
X-26962Y22158D02*
X-26962Y22158D01*
X-26921Y22158D01*
X-26921Y22170D01*
X-26962Y22170D01*
X-26962Y22158D01*
D02*
G37*
G36*
X-26854Y22158D02*
X-26854Y22158D01*
X-26787Y22158D01*
X-26787Y22170D01*
X-26854Y22170D01*
X-26854Y22158D01*
D02*
G37*
G36*
X-26719Y22158D02*
X-26719Y22158D01*
X-26665Y22158D01*
X-26665Y22170D01*
X-26719Y22170D01*
X-26719Y22158D01*
D02*
G37*
G36*
X-26597Y22158D02*
X-26597Y22158D01*
X-26543Y22158D01*
X-26543Y22170D01*
X-26597Y22170D01*
X-26597Y22158D01*
D02*
G37*
G36*
X-26476Y22158D02*
X-26476Y22158D01*
X-26422Y22158D01*
X-26422Y22170D01*
X-26476Y22170D01*
X-26476Y22158D01*
D02*
G37*
G36*
X-26328Y22158D02*
X-26328Y22158D01*
X-26260Y22158D01*
X-26260Y22170D01*
X-26328Y22170D01*
X-26328Y22158D01*
D02*
G37*
G36*
X-26017Y22158D02*
X-26017Y22158D01*
X-25922Y22158D01*
X-25922Y22170D01*
X-26017Y22170D01*
X-26017Y22158D01*
D02*
G37*
G36*
X-25868Y22158D02*
X-25868Y22158D01*
X-25841Y22158D01*
X-25841Y22170D01*
X-25868Y22170D01*
X-25868Y22158D01*
D02*
G37*
G36*
X-25801Y22158D02*
X-25801Y22158D01*
X-25733Y22158D01*
X-25733Y22170D01*
X-25801Y22170D01*
X-25801Y22158D01*
D02*
G37*
G36*
X-25693Y22158D02*
X-25693Y22158D01*
X-25625Y22158D01*
X-25625Y22170D01*
X-25693Y22170D01*
X-25693Y22158D01*
D02*
G37*
G36*
X-25558Y22158D02*
X-25558Y22158D01*
X-25504Y22158D01*
X-25504Y22170D01*
X-25558Y22170D01*
X-25558Y22158D01*
D02*
G37*
G36*
X-27678Y22145D02*
X-27678Y22145D01*
X-27367Y22145D01*
X-27367Y22158D01*
X-27678Y22158D01*
X-27678Y22145D01*
D02*
G37*
G36*
X-26962Y22145D02*
X-26962Y22145D01*
X-26787Y22145D01*
X-26787Y22158D01*
X-26962Y22158D01*
X-26962Y22145D01*
D02*
G37*
G36*
X-26719Y22145D02*
X-26719Y22145D01*
X-26665Y22145D01*
X-26665Y22158D01*
X-26719Y22158D01*
X-26719Y22145D01*
D02*
G37*
G36*
X-26597Y22145D02*
X-26597Y22145D01*
X-26543Y22145D01*
X-26543Y22158D01*
X-26597Y22158D01*
X-26597Y22145D01*
D02*
G37*
G36*
X-26476Y22145D02*
X-26476Y22145D01*
X-26422Y22145D01*
X-26422Y22158D01*
X-26476Y22158D01*
X-26476Y22145D01*
D02*
G37*
G36*
X-26328Y22145D02*
X-26328Y22145D01*
X-26260Y22145D01*
X-26260Y22158D01*
X-26328Y22158D01*
X-26328Y22145D01*
D02*
G37*
G36*
X-26003Y22145D02*
X-26003Y22145D01*
X-25841Y22145D01*
X-25841Y22158D01*
X-26003Y22158D01*
X-26003Y22145D01*
D02*
G37*
G36*
X-25801Y22145D02*
X-25801Y22145D01*
X-25625Y22145D01*
X-25625Y22158D01*
X-25801Y22158D01*
X-25801Y22145D01*
D02*
G37*
G36*
X-25558Y22145D02*
X-25558Y22145D01*
X-25504Y22145D01*
X-25504Y22158D01*
X-25558Y22158D01*
X-25558Y22145D01*
D02*
G37*
G36*
X-27664Y22133D02*
X-27664Y22133D01*
X-27380Y22133D01*
X-27380Y22145D01*
X-27664Y22145D01*
X-27664Y22133D01*
D02*
G37*
G36*
X-26962Y22133D02*
X-26962Y22133D01*
X-26800Y22133D01*
X-26800Y22145D01*
X-26962Y22145D01*
X-26962Y22133D01*
D02*
G37*
G36*
X-26719Y22133D02*
X-26719Y22133D01*
X-26665Y22133D01*
X-26665Y22145D01*
X-26719Y22145D01*
X-26719Y22133D01*
D02*
G37*
G36*
X-26597Y22133D02*
X-26597Y22133D01*
X-26543Y22133D01*
X-26543Y22145D01*
X-26597Y22145D01*
X-26597Y22133D01*
D02*
G37*
G36*
X-26476Y22133D02*
X-26476Y22133D01*
X-26422Y22133D01*
X-26422Y22145D01*
X-26476Y22145D01*
X-26476Y22133D01*
D02*
G37*
G36*
X-26314Y22133D02*
X-26314Y22133D01*
X-26260Y22133D01*
X-26260Y22145D01*
X-26314Y22145D01*
X-26314Y22133D01*
D02*
G37*
G36*
X-25990Y22133D02*
X-25990Y22133D01*
X-25841Y22133D01*
X-25841Y22145D01*
X-25990Y22145D01*
X-25990Y22133D01*
D02*
G37*
G36*
X-25787Y22133D02*
X-25787Y22133D01*
X-25625Y22133D01*
X-25625Y22145D01*
X-25787Y22145D01*
X-25787Y22133D01*
D02*
G37*
G36*
X-25558Y22133D02*
X-25558Y22133D01*
X-25504Y22133D01*
X-25504Y22145D01*
X-25558Y22145D01*
X-25558Y22133D01*
D02*
G37*
G36*
X-27650Y22121D02*
X-27650Y22121D01*
X-27380Y22121D01*
X-27380Y22133D01*
X-27650Y22133D01*
X-27650Y22121D01*
D02*
G37*
G36*
X-26962Y22121D02*
X-26962Y22121D01*
X-26814Y22121D01*
X-26814Y22133D01*
X-26962Y22133D01*
X-26962Y22121D01*
D02*
G37*
G36*
X-26719Y22121D02*
X-26719Y22121D01*
X-26665Y22121D01*
X-26665Y22133D01*
X-26719Y22133D01*
X-26719Y22121D01*
D02*
G37*
G36*
X-26597Y22121D02*
X-26597Y22121D01*
X-26543Y22121D01*
X-26543Y22133D01*
X-26597Y22133D01*
X-26597Y22121D01*
D02*
G37*
G36*
X-26476Y22121D02*
X-26476Y22121D01*
X-26422Y22121D01*
X-26422Y22133D01*
X-26476Y22133D01*
X-26476Y22121D01*
D02*
G37*
G36*
X-26314Y22121D02*
X-26314Y22121D01*
X-26260Y22121D01*
X-26260Y22133D01*
X-26314Y22133D01*
X-26314Y22121D01*
D02*
G37*
G36*
X-25976Y22121D02*
X-25976Y22121D01*
X-25841Y22121D01*
X-25841Y22133D01*
X-25976Y22133D01*
X-25976Y22121D01*
D02*
G37*
G36*
X-25787Y22121D02*
X-25787Y22121D01*
X-25625Y22121D01*
X-25625Y22133D01*
X-25787Y22133D01*
X-25787Y22121D01*
D02*
G37*
G36*
X-25558Y22121D02*
X-25558Y22121D01*
X-25504Y22121D01*
X-25504Y22133D01*
X-25558Y22133D01*
X-25558Y22121D01*
D02*
G37*
G36*
X-27705Y22109D02*
X-27705Y22109D01*
X-27326Y22109D01*
X-27326Y22121D01*
X-27705Y22121D01*
X-27705Y22109D01*
D02*
G37*
G36*
X-26935Y22109D02*
X-26935Y22109D01*
X-26840Y22109D01*
X-26840Y22121D01*
X-26935Y22121D01*
X-26935Y22109D01*
D02*
G37*
G36*
X-26719Y22109D02*
X-26719Y22109D01*
X-26665Y22109D01*
X-26665Y22121D01*
X-26719Y22121D01*
X-26719Y22109D01*
D02*
G37*
G36*
X-26597Y22109D02*
X-26597Y22109D01*
X-26543Y22109D01*
X-26543Y22121D01*
X-26597Y22121D01*
X-26597Y22109D01*
D02*
G37*
G36*
X-26476Y22109D02*
X-26476Y22109D01*
X-26422Y22109D01*
X-26422Y22121D01*
X-26476Y22121D01*
X-26476Y22109D01*
D02*
G37*
G36*
X-26328Y22109D02*
X-26328Y22109D01*
X-26273Y22109D01*
X-26273Y22121D01*
X-26328Y22121D01*
X-26328Y22109D01*
D02*
G37*
G36*
X-25963Y22109D02*
X-25963Y22109D01*
X-25855Y22109D01*
X-25855Y22121D01*
X-25963Y22121D01*
X-25963Y22109D01*
D02*
G37*
G36*
X-25760Y22109D02*
X-25760Y22109D01*
X-25693Y22109D01*
X-25693Y22121D01*
X-25760Y22121D01*
X-25760Y22109D01*
D02*
G37*
G36*
X-25666Y22109D02*
X-25666Y22109D01*
X-25625Y22109D01*
X-25625Y22121D01*
X-25666Y22121D01*
X-25666Y22109D01*
D02*
G37*
G36*
X-25558Y22109D02*
X-25558Y22109D01*
X-25504Y22109D01*
X-25504Y22121D01*
X-25558Y22121D01*
X-25558Y22109D01*
D02*
G37*
G36*
X-27718Y22097D02*
X-27718Y22097D01*
X-27326Y22097D01*
X-27326Y22109D01*
X-27718Y22109D01*
X-27718Y22097D01*
D02*
G37*
G36*
X-26328Y22097D02*
X-26328Y22097D01*
X-26273Y22097D01*
X-26273Y22109D01*
X-26328Y22109D01*
X-26328Y22097D01*
D02*
G37*
G36*
X-27678Y22085D02*
X-27678Y22085D01*
X-27353Y22085D01*
X-27353Y22097D01*
X-27678Y22097D01*
X-27678Y22085D01*
D02*
G37*
G36*
X-26328Y22085D02*
X-26328Y22085D01*
X-26273Y22085D01*
X-26273Y22097D01*
X-26328Y22097D01*
X-26328Y22085D01*
D02*
G37*
G36*
X-26341Y22073D02*
X-26341Y22073D01*
X-26287Y22073D01*
X-26287Y22085D01*
X-26341Y22085D01*
X-26341Y22073D01*
D02*
G37*
G36*
X-26341Y22061D02*
X-26341Y22061D01*
X-26287Y22061D01*
X-26287Y22073D01*
X-26341Y22073D01*
X-26341Y22061D01*
D02*
G37*
G36*
X-26341Y22048D02*
X-26341Y22048D01*
X-26287Y22048D01*
X-26287Y22061D01*
X-26341Y22061D01*
X-26341Y22048D01*
D02*
G37*
G36*
X-26355Y22036D02*
X-26355Y22036D01*
X-26300Y22036D01*
X-26300Y22048D01*
X-26355Y22048D01*
X-26355Y22036D01*
D02*
G37*
G36*
X-26355Y22024D02*
X-26355Y22024D01*
X-26300Y22024D01*
X-26300Y22036D01*
X-26355Y22036D01*
X-26355Y22024D01*
D02*
G37*
G36*
X-26355Y22012D02*
X-26355Y22012D01*
X-26300Y22012D01*
X-26300Y22024D01*
X-26355Y22024D01*
X-26355Y22012D01*
D02*
G37*
G36*
X-26355Y22000D02*
X-26355Y22000D01*
X-26314Y22000D01*
X-26314Y22012D01*
X-26355Y22012D01*
X-26355Y22000D01*
D02*
G37*
G54D16*
X-25750Y27300D02*
X-24350Y27300D01*
X-24350Y22700D01*
X-25750Y22700D01*
X-25750Y27300D01*
G54D17*
X-20567Y30678D02*
X-20567Y31278D01*
X-21306Y30678D02*
X-20567Y30678D01*
X-23520Y30678D02*
X-22782Y30678D01*
X-23520Y31278D02*
X-23520Y30678D01*
G54D18*
X-15968Y23511D02*
X-15889Y23432D01*
X-15889Y23354D01*
X-15968Y23276D01*
X-16007Y23276D01*
X-16283Y23511D01*
X-16283Y23276D01*
X-16244Y23276D01*
X-15968Y23158D02*
X-15889Y23080D01*
X-15889Y23001D01*
X-15968Y22923D01*
X-16204Y22923D01*
X-16283Y23001D01*
X-16283Y23080D01*
X-16204Y23158D01*
X-15968Y23158D01*
X-15968Y22923D02*
X-16204Y23158D01*
X-15968Y22766D02*
X-15889Y22688D01*
X-16283Y22688D01*
X-16283Y22805D02*
X-16283Y22570D01*
X-15889Y22257D02*
X-15889Y22374D01*
X-15968Y22453D01*
X-16126Y22453D01*
X-16204Y22453D01*
X-16283Y22374D01*
X-16283Y22296D01*
X-16204Y22217D01*
X-16126Y22217D01*
X-16047Y22296D01*
X-16047Y22374D01*
X-16126Y22453D01*
X-16283Y21747D02*
X-15889Y21747D01*
X-15889Y21590D01*
X-15968Y21512D01*
X-16007Y21512D01*
X-16086Y21590D01*
X-16086Y21747D01*
X-16086Y21708D02*
X-16283Y21512D01*
X-16204Y21159D02*
X-16283Y21237D01*
X-16283Y21316D01*
X-16204Y21394D01*
X-16086Y21394D01*
X-16007Y21316D01*
X-16007Y21237D01*
X-16086Y21159D01*
X-16126Y21198D01*
X-16126Y21394D01*
X-16007Y21042D02*
X-16283Y20924D01*
X-16007Y20806D01*
X-15968Y20689D02*
X-15889Y20610D01*
X-15889Y20532D01*
X-15968Y20454D01*
X-16007Y20454D01*
X-16283Y20689D01*
X-16283Y20454D01*
X-16244Y20454D01*
G54D19*
X-16077Y11548D03*
X-25277Y11548D03*
G54D20*
X-25050Y27150D03*

M02*
