M48
INCH,TZ
VER,1
FMAT,2
DETECT,ON
ATC,ON
T1C0.0984
T2C0.0236
T3C0.0350
T4C0.0392
T5C0.0467
T6C0.1339
T7C0.0595
T8C0.0394
%
T1
X0.1378Y0.1181
Y1.5787
X2.3504Y0.1181
Y1.5787
T2
X1.3800Y0.7100
X1.3400Y0.5000
Y0.5500
X1.4900Y0.5000
X0.4400Y0.5300
X1.6400Y0.1500
X0.9900Y0.5100
Y0.5600
X0.4000Y1.2700
X0.3800Y1.4200
X1.4800Y0.3400
X1.4900Y0.4500
X0.9500Y0.4700
X1.6700Y1.3000
X1.9300Y1.6300
X2.2100Y0.7900
X2.1900Y1.4400
X2.2800Y1.0200
X1.1800Y0.4200
X1.1400Y0.5600
Y0.5100
X1.1500Y0.4600
X0.7000Y0.4100
X1.2000Y0.3700
X1.3300Y0.7100
X1.5200Y0.8100
X1.6100Y0.2500
X1.4800Y0.1700
X1.5400
X1.2200Y0.2200
X2.1800Y0.2100
X2.2900Y1.6500
X1.4200Y1.6300
X1.7500
X1.4200Y1.0800
X2.3100Y0.9500
X2.0400Y0.6100
X1.7600Y0.5700
X1.6000Y0.6000
X1.5900Y0.9800
Y0.8600
X0.8400Y0.2800
X0.4800Y0.2400
X0.6300Y0.3400
X0.0800Y0.7100
Y0.2500
X1.1500Y1.0800
X0.2200Y1.5000
X0.8200Y0.6900
X2.0400Y0.4900
X1.9200Y0.7300
X2.1500
X2.0400
X1.9200Y0.6100
X2.1500
Y0.4900
X1.9200
T3
X1.0941Y0.0984
X1.3941
X1.4941
X2.0941
X2.1941
X1.7941
X1.9941
X1.8941
X1.5941
X1.6941
X1.2941
X1.1941
X0.9941
X0.8941
X0.4941
X0.6941
X0.7941
X0.5941
X0.3941
X0.2941
X1.2450Y0.8150
X1.0533
X2.4100Y1.3300
Y1.2300
Y1.4300
Y0.4750
Y0.3750
Y0.5750
X0.2450Y0.4900
X0.1450Y0.3900
X0.2450Y0.5900
X0.1450Y0.4900
Y0.5900
T4
X2.4100Y1.1300
Y0.2750
X0.2450Y0.3900
T5
X2.0360Y0.9968
X1.9360
X2.1360
T6
X2.0360Y0.2818
T7
X1.0300Y1.5500
X0.9300Y1.6500
X1.1300
X0.9300Y1.4500
X1.1300
T8
X0.2065Y1.1650
X1.0135
M30
