G04 Generated by Ultiboard 13.0 *
%FSLAX24Y24*%
%MOIN*%

%ADD10C,0.0001*%
%ADD11C,0.0100*%
%ADD12C,0.0160*%
%ADD13C,0.0300*%
%ADD14C,0.0394*%
%ADD15C,0.0500*%
%ADD16R,0.0250X0.0250*%
%ADD17C,0.0350*%
%ADD18C,0.0633*%
%ADD19R,0.0208X0.0208*%
%ADD20C,0.0392*%
%ADD21R,0.0550X0.0250*%
%ADD22C,0.0233*%
%ADD23C,0.0783*%
%ADD24C,0.0735*%
%ADD25C,0.0534*%


G04 ColorRGB 0000FF for the following layer *
%LNCopper Bottom*%
%LPD*%
G54D10*
G36*
X22411Y10600D02*
X22411Y10600D01*
X22411Y9887D01*
X23000Y9298D01*
X23000Y9298D01*
X23449Y8849D01*
G74*
D01*
G02X23511Y8700I148J149*
G01*
X23511Y8700D01*
X23511Y5587D01*
X23926Y5172D01*
G75*
D01*
G02X24536Y4613I175J-421*
G01*
X24536Y4613D01*
X24731Y4417D01*
X24731Y16818D01*
X11708Y16818D01*
G74*
D01*
G02X11784Y16683I407J318*
G01*
X11784Y16683D01*
X11534Y16683D01*
G75*
D01*
G02X11534Y16317I-234J-183*
G01*
X11534Y16317D01*
X11784Y16317D01*
G74*
D01*
G02X11483Y16016I484J183*
G01*
X11483Y16016D01*
X11483Y16266D01*
G75*
D01*
G02X11117Y16266I-183J234*
G01*
X11117Y16266D01*
X11117Y16016D01*
G74*
D01*
G02X10816Y16317I183J484*
G01*
X10816Y16317D01*
X11066Y16317D01*
G75*
D01*
G02X11066Y16683I234J183*
G01*
X11066Y16683D01*
X10816Y16683D01*
G74*
D01*
G02X10892Y16818I483J183*
G01*
X10892Y16818D01*
X9708Y16818D01*
G74*
D01*
G02X9784Y16683I407J318*
G01*
X9784Y16683D01*
X9534Y16683D01*
G75*
D01*
G02X9534Y16317I-234J-183*
G01*
X9534Y16317D01*
X9784Y16317D01*
G74*
D01*
G02X9483Y16016I484J183*
G01*
X9483Y16016D01*
X9483Y16266D01*
G75*
D01*
G02X9117Y16266I-183J234*
G01*
X9117Y16266D01*
X9117Y16016D01*
G74*
D01*
G02X8816Y16317I183J484*
G01*
X8816Y16317D01*
X9066Y16317D01*
G75*
D01*
G02X9066Y16683I234J183*
G01*
X9066Y16683D01*
X8816Y16683D01*
G74*
D01*
G02X8892Y16818I483J183*
G01*
X8892Y16818D01*
X151Y16818D01*
X151Y151D01*
X24731Y151D01*
X24731Y3033D01*
X24542Y2843D01*
X24542Y2646D01*
G75*
D01*
G02X24204Y2308I-338J0*
G01*
X24204Y2308D01*
X23996Y2308D01*
G75*
D01*
G02X23658Y2646I0J338*
G01*
X23658Y2646D01*
X23658Y2854D01*
G75*
D01*
G02X23996Y3192I338J0*
G01*
X23996Y3192D01*
X24204Y3192D01*
G74*
D01*
G02X24284Y3182I2J338*
G01*
X24284Y3182D01*
X24389Y3287D01*
X24389Y3396D01*
G75*
D01*
G02X23931Y3326I-288J353*
G01*
X23931Y3326D01*
X21978Y1372D01*
G74*
D01*
G02X21850Y1319I128J128*
G01*
X21850Y1319D01*
X21784Y1319D01*
X21784Y1141D01*
X21501Y1141D01*
G74*
D01*
G02X21579Y1319I314J32*
G01*
X21579Y1319D01*
X21141Y1319D01*
G75*
D01*
G02X20741Y1319I-200J-335*
G01*
X20741Y1319D01*
X20141Y1319D01*
G75*
D01*
G02X19741Y1319I-200J-335*
G01*
X19741Y1319D01*
X19141Y1319D01*
G75*
D01*
G02X18741Y1319I-200J-335*
G01*
X18741Y1319D01*
X18141Y1319D01*
G75*
D01*
G02X17741Y1319I-200J-335*
G01*
X17741Y1319D01*
X17141Y1319D01*
G75*
D01*
G02X16741Y1319I-200J-335*
G01*
X16741Y1319D01*
X16672Y1319D01*
G75*
D01*
G02X16264Y1203I-272J180*
G01*
G75*
D01*
G02X15760Y1330I-323J-218*
G01*
X15760Y1330D01*
X15760Y1884D01*
X15601Y2043D01*
X15601Y1958D01*
G75*
D01*
G02X15100Y1570I-201J-258*
G01*
G74*
D01*
G02X14808Y1373I299J129*
G01*
X14808Y1373D01*
X14825Y1356D01*
G75*
D01*
G02X14569Y1101I115J-372*
G01*
X14569Y1101D01*
X13272Y2397D01*
G74*
D01*
G02X13231Y2461I129J127*
G01*
X13231Y2461D01*
X13231Y1950D01*
X13825Y1356D01*
G75*
D01*
G02X13569Y1101I115J-372*
G01*
X13569Y1101D01*
X13001Y1669D01*
X13001Y1370D01*
G75*
D01*
G02X12639Y1231I-60J-385*
G01*
X12639Y1231D01*
X12639Y1427D01*
X12313Y1101D01*
G75*
D01*
G02X12057Y1356I-371J-117*
G01*
X12057Y1356D01*
X12399Y1698D01*
X12399Y3901D01*
X12308Y3810D01*
G75*
D01*
G02X11728Y3881I-308J-110*
G01*
G75*
D01*
G02X11482Y4274I72J319*
G01*
G75*
D01*
G02X11249Y4810I16J326*
G01*
G75*
D01*
G02X11189Y5350I149J290*
G01*
G75*
D01*
G02X11080Y5665I211J250*
G01*
X11080Y5665D01*
X10925Y5819D01*
X10143Y5819D01*
G75*
D01*
G02X10220Y5535I-243J-218*
G01*
X10220Y5535D01*
X11069Y4687D01*
G74*
D01*
G02X11122Y4559I128J128*
G01*
X11122Y4559D01*
X11122Y1330D01*
G75*
D01*
G02X10760Y1330I-181J-345*
G01*
X10760Y1330D01*
X10760Y4484D01*
X10218Y5026D01*
G74*
D01*
G02X10122Y4860I318J73*
G01*
X10122Y4860D01*
X10122Y1330D01*
G75*
D01*
G02X9760Y1330I-181J-345*
G01*
X9760Y1330D01*
X9760Y4502D01*
G75*
D01*
G02X9435Y4380I-259J197*
G01*
X9435Y4380D01*
X9298Y4242D01*
X9122Y4066D01*
X9122Y1330D01*
G75*
D01*
G02X8760Y1330I-181J-345*
G01*
X8760Y1330D01*
X8760Y4141D01*
G75*
D01*
G02X8813Y4269I181J0*
G01*
X8813Y4269D01*
X9180Y4635D01*
G75*
D01*
G02X9584Y5016I319J66*
G01*
G75*
D01*
G02X9689Y5350I315J85*
G01*
G75*
D01*
G02X9657Y5819I211J250*
G01*
X9657Y5819D01*
X9475Y5819D01*
X9303Y5647D01*
X7628Y3972D01*
G74*
D01*
G02X7556Y3928I128J128*
G01*
G75*
D01*
G02X7500Y3919I-56J171*
G01*
X7500Y3919D01*
X7272Y3919D01*
G75*
D01*
G02X7272Y4281I-271J181*
G01*
X7272Y4281D01*
X7425Y4281D01*
X9272Y6128D01*
G74*
D01*
G02X9367Y6178I128J128*
G01*
G75*
D01*
G02X9400Y6181I33J-178*
G01*
X9400Y6181D01*
X11000Y6181D01*
G75*
D01*
G02X11046Y6175I0J-181*
G01*
G74*
D01*
G02X11128Y6128I45J174*
G01*
X11128Y6128D01*
X11335Y5920D01*
G75*
D01*
G02X11418Y5926I65J-319*
G01*
X11418Y5926D01*
X8625Y8719D01*
X6400Y8719D01*
G75*
D01*
G02X6359Y8724I1J181*
G01*
G74*
D01*
G02X6272Y8772I40J175*
G01*
X6272Y8772D01*
X5746Y9298D01*
X5746Y9298D01*
X3472Y11572D01*
G75*
D01*
G02X3419Y11700I128J128*
G01*
X3419Y11700D01*
X3419Y14000D01*
G75*
D01*
G02X3472Y14128I181J0*
G01*
X3472Y14128D01*
X3480Y14135D01*
G75*
D01*
G02X3781Y13874I320J64*
G01*
X3781Y13874D01*
X3781Y12943D01*
G75*
D01*
G02X4027Y13026I219J-243*
G01*
X4027Y13026D01*
X4151Y13149D01*
G74*
D01*
G02X4257Y13207I150J147*
G01*
G75*
D01*
G02X4300Y13211I41J-207*
G01*
X4300Y13211D01*
X16450Y13211D01*
G74*
D01*
G02X16489Y13250I250J211*
G01*
X16489Y13250D01*
X16489Y14636D01*
G75*
D01*
G02X16267Y14892I36J255*
G01*
X16267Y14892D01*
X16267Y15142D01*
G75*
D01*
G02X16525Y15400I258J0*
G01*
X16525Y15400D01*
X17075Y15400D01*
G74*
D01*
G02X17318Y15228I0J258*
G01*
X17318Y15228D01*
X17682Y15228D01*
G75*
D01*
G02X17925Y15400I243J-85*
G01*
X17925Y15400D01*
X18475Y15400D01*
G74*
D01*
G02X18641Y15339I1J258*
G01*
X18641Y15339D01*
X19089Y15787D01*
X19089Y16050D01*
G75*
D01*
G02X19511Y16050I211J250*
G01*
X19511Y16050D01*
X19511Y15700D01*
G75*
D01*
G02X19449Y15551I-211J0*
G01*
X19449Y15551D01*
X18766Y14868D01*
G74*
D01*
G02X18727Y14837I149J148*
G01*
G74*
D01*
G02X18475Y14634I251J54*
G01*
X18475Y14634D01*
X17925Y14634D01*
G75*
D01*
G02X17682Y14806I0J258*
G01*
X17682Y14806D01*
X17318Y14806D01*
G74*
D01*
G02X17075Y14634I243J85*
G01*
X17075Y14634D01*
X16911Y14634D01*
X16911Y13250D01*
G75*
D01*
G02X16450Y12789I-212J-249*
G01*
X16450Y12789D01*
X4387Y12789D01*
X4326Y12727D01*
G75*
D01*
G02X3781Y12457I-326J-27*
G01*
X3781Y12457D01*
X3781Y11775D01*
X6475Y9081D01*
X8700Y9081D01*
G75*
D01*
G02X8761Y9070I-1J-181*
G01*
G74*
D01*
G02X8828Y9028I60J170*
G01*
X8828Y9028D01*
X11729Y6127D01*
X11729Y7010D01*
G75*
D01*
G02X11782Y7138I181J0*
G01*
X11782Y7138D01*
X12407Y7762D01*
G75*
D01*
G02X12838Y8193I43J388*
G01*
X12838Y8193D01*
X13942Y9298D01*
X13942Y9298D01*
X19172Y14528D01*
G74*
D01*
G02X19251Y14574I128J128*
G01*
G75*
D01*
G02X19300Y14581I50J-173*
G01*
X19300Y14581D01*
X21628Y14581D01*
G75*
D01*
G02X21628Y14219I271J-181*
G01*
X21628Y14219D01*
X19375Y14219D01*
X16457Y11301D01*
X22200Y11301D01*
G75*
D01*
G02X22231Y11299I3J-201*
G01*
G74*
D01*
G02X22342Y11242I32J198*
G01*
X22342Y11242D01*
X22942Y10642D01*
G74*
D01*
G02X23001Y10500I141J142*
G01*
X23001Y10500D01*
X23001Y10458D01*
G75*
D01*
G02X22577Y10439I-201J-258*
G01*
X22577Y10439D01*
X22411Y10605D01*
X22411Y10600D01*
D02*
G37*
%LPC*%
G36*
X9117Y14266D02*
X9117Y14266D01*
X9117Y14016D01*
G74*
D01*
G02X8816Y14317I183J484*
G01*
X8816Y14317D01*
X9066Y14317D01*
G75*
D01*
G02X9066Y14683I234J183*
G01*
X9066Y14683D01*
X8816Y14683D01*
G74*
D01*
G02X9117Y14984I484J183*
G01*
X9117Y14984D01*
X9117Y14734D01*
G75*
D01*
G02X9483Y14734I183J-234*
G01*
X9483Y14734D01*
X9483Y14984D01*
G74*
D01*
G02X9784Y14683I183J484*
G01*
X9784Y14683D01*
X9534Y14683D01*
G75*
D01*
G02X9534Y14317I-234J-183*
G01*
X9534Y14317D01*
X9784Y14317D01*
G74*
D01*
G02X9483Y14016I484J183*
G01*
X9483Y14016D01*
X9483Y14266D01*
G75*
D01*
G02X9117Y14266I-183J234*
G01*
D02*
G37*
G36*
X23643Y5750D02*
G75*
D01*
G02X23643Y5750I457J0*
G01*
D02*
G37*
G36*
X10143Y8150D02*
G75*
D01*
G02X10143Y8150I390J0*
G01*
D02*
G37*
G36*
X21766Y984D02*
G75*
D01*
G02X21766Y984I175J0*
G01*
D02*
G37*
G36*
X22381Y1141D02*
X22381Y1141D01*
X22098Y1141D01*
X22098Y1424D01*
G74*
D01*
G02X22381Y1141I31J314*
G01*
D02*
G37*
G36*
X22862Y1181D02*
G75*
D01*
G02X22862Y1181I642J0*
G01*
D02*
G37*
G36*
X21501Y828D02*
X21501Y828D01*
X21784Y828D01*
X21784Y544D01*
G74*
D01*
G02X21501Y828I32J314*
G01*
D02*
G37*
G36*
X22098Y544D02*
X22098Y544D01*
X22098Y828D01*
X22381Y828D01*
G74*
D01*
G02X22098Y544I315J30*
G01*
D02*
G37*
G36*
X9783Y15500D02*
G75*
D01*
G02X9783Y15500I517J0*
G01*
D02*
G37*
G36*
X11534Y14683D02*
G75*
D01*
G02X11534Y14317I-234J-183*
G01*
X11534Y14317D01*
X11784Y14317D01*
G74*
D01*
G02X11483Y14016I484J183*
G01*
X11483Y14016D01*
X11483Y14266D01*
G75*
D01*
G02X11117Y14266I-183J234*
G01*
X11117Y14266D01*
X11117Y14016D01*
G74*
D01*
G02X10816Y14317I183J484*
G01*
X10816Y14317D01*
X11066Y14317D01*
G75*
D01*
G02X11066Y14683I234J183*
G01*
X11066Y14683D01*
X10816Y14683D01*
G74*
D01*
G02X11117Y14984I484J183*
G01*
X11117Y14984D01*
X11117Y14734D01*
G75*
D01*
G02X11483Y14734I183J-234*
G01*
X11483Y14734D01*
X11483Y14984D01*
G74*
D01*
G02X11784Y14683I183J484*
G01*
X11784Y14683D01*
X11534Y14683D01*
D02*
G37*
G36*
X16501Y15802D02*
X16501Y15802D01*
X16800Y16016D01*
X17099Y15802D01*
G74*
D01*
G02X17075Y15800I33J255*
G01*
X17075Y15800D01*
X16525Y15800D01*
G75*
D01*
G02X16501Y15802I9J258*
G01*
D02*
G37*
G36*
X16280Y16390D02*
X16280Y16390D01*
X16567Y16183D01*
X16280Y15977D01*
G75*
D01*
G02X16267Y16058I245J81*
G01*
X16267Y16058D01*
X16267Y16308D01*
G74*
D01*
G02X16280Y16390I258J1*
G01*
D02*
G37*
G36*
X17099Y16565D02*
X17099Y16565D01*
X16800Y16351D01*
X16501Y16565D01*
G75*
D01*
G02X16525Y16566I23J-257*
G01*
X16525Y16566D01*
X17075Y16566D01*
G74*
D01*
G02X17099Y16565I1J258*
G01*
D02*
G37*
G36*
X17320Y16390D02*
G74*
D01*
G02X17333Y16308I245J81*
G01*
X17333Y16308D01*
X17333Y16058D01*
G75*
D01*
G02X17320Y15977I-258J0*
G01*
X17320Y15977D01*
X17033Y16183D01*
X17320Y16390D01*
D02*
G37*
G36*
X17901Y15802D02*
X17901Y15802D01*
X18200Y16016D01*
X18499Y15802D01*
G74*
D01*
G02X18475Y15800I33J255*
G01*
X18475Y15800D01*
X17925Y15800D01*
G75*
D01*
G02X17901Y15802I9J258*
G01*
D02*
G37*
G36*
X18499Y16565D02*
X18499Y16565D01*
X18200Y16351D01*
X17901Y16565D01*
G75*
D01*
G02X17925Y16566I23J-257*
G01*
X17925Y16566D01*
X18475Y16566D01*
G74*
D01*
G02X18499Y16565I1J258*
G01*
D02*
G37*
G36*
X17680Y16390D02*
X17680Y16390D01*
X17967Y16183D01*
X17680Y15977D01*
G75*
D01*
G02X17667Y16058I245J81*
G01*
X17667Y16058D01*
X17667Y16308D01*
G74*
D01*
G02X17680Y16390I258J1*
G01*
D02*
G37*
G36*
X18720Y16390D02*
G74*
D01*
G02X18733Y16308I245J81*
G01*
X18733Y16308D01*
X18733Y16058D01*
G75*
D01*
G02X18720Y15977I-258J0*
G01*
X18720Y15977D01*
X18433Y16183D01*
X18720Y16390D01*
D02*
G37*
G36*
X24257Y10862D02*
X24257Y10862D01*
X24257Y11143D01*
X24538Y11143D01*
G74*
D01*
G02X24257Y10862I334J53*
G01*
D02*
G37*
G36*
X23662Y11143D02*
X23662Y11143D01*
X23943Y11143D01*
X23943Y10862D01*
G74*
D01*
G02X23662Y11143I53J334*
G01*
D02*
G37*
G36*
X24538Y11457D02*
X24538Y11457D01*
X24257Y11457D01*
X24257Y11738D01*
G74*
D01*
G02X24538Y11457I53J334*
G01*
D02*
G37*
G36*
X23943Y11738D02*
X23943Y11738D01*
X23943Y11457D01*
X23662Y11457D01*
G74*
D01*
G02X23943Y11738I334J53*
G01*
D02*
G37*
G36*
X23904Y11300D02*
G75*
D01*
G02X23904Y11300I196J0*
G01*
D02*
G37*
G36*
X23643Y12300D02*
G75*
D01*
G02X23643Y12300I457J0*
G01*
D02*
G37*
G36*
X24527Y13138D02*
G74*
D01*
G02X24262Y12873I426J161*
G01*
X24262Y12873D01*
X24262Y13138D01*
X24527Y13138D01*
D02*
G37*
G36*
X23925Y13300D02*
G75*
D01*
G02X23925Y13300I175J0*
G01*
D02*
G37*
G36*
X23938Y12873D02*
G74*
D01*
G02X23673Y13138I161J426*
G01*
X23673Y13138D01*
X23938Y13138D01*
X23938Y12873D01*
D02*
G37*
G36*
X24262Y13727D02*
G74*
D01*
G02X24527Y13462I161J426*
G01*
X24527Y13462D01*
X24262Y13462D01*
X24262Y13727D01*
D02*
G37*
G36*
X23643Y14300D02*
G75*
D01*
G02X23643Y14300I457J0*
G01*
D02*
G37*
G36*
X23673Y13462D02*
G74*
D01*
G02X23938Y13727I426J161*
G01*
X23938Y13727D01*
X23938Y13462D01*
X23673Y13462D01*
D02*
G37*
G36*
X22862Y15787D02*
G75*
D01*
G02X22862Y15787I642J0*
G01*
D02*
G37*
G36*
X9739Y11650D02*
G75*
D01*
G02X9739Y11650I396J0*
G01*
D02*
G37*
G36*
X1694Y11791D02*
G74*
D01*
G02X1924Y12021I370J140*
G01*
X1924Y12021D01*
X1924Y11791D01*
X1694Y11791D01*
D02*
G37*
G36*
X2205Y12021D02*
G74*
D01*
G02X2436Y11791I139J371*
G01*
X2436Y11791D01*
X2205Y11791D01*
X2205Y12021D01*
D02*
G37*
G36*
X2436Y11509D02*
G74*
D01*
G02X2205Y11279I370J141*
G01*
X2205Y11279D01*
X2205Y11509D01*
X2436Y11509D01*
D02*
G37*
G36*
X1868Y11650D02*
G75*
D01*
G02X1868Y11650I197J0*
G01*
D02*
G37*
G36*
X1924Y11279D02*
G74*
D01*
G02X1694Y11509I140J370*
G01*
X1694Y11509D01*
X1924Y11509D01*
X1924Y11279D01*
D02*
G37*
G36*
X736Y15787D02*
G75*
D01*
G02X736Y15787I642J0*
G01*
D02*
G37*
G36*
X736Y1181D02*
G75*
D01*
G02X736Y1181I642J0*
G01*
D02*
G37*
G36*
X2551Y984D02*
G75*
D01*
G02X2551Y984I390J0*
G01*
D02*
G37*
G36*
X3551Y984D02*
G75*
D01*
G02X3551Y984I390J0*
G01*
D02*
G37*
G36*
X4551Y984D02*
G75*
D01*
G02X4551Y984I390J0*
G01*
D02*
G37*
G36*
X5551Y984D02*
G75*
D01*
G02X5551Y984I390J0*
G01*
D02*
G37*
G36*
X6551Y984D02*
G75*
D01*
G02X6551Y984I390J0*
G01*
D02*
G37*
G36*
X7551Y984D02*
G75*
D01*
G02X7551Y984I390J0*
G01*
D02*
G37*
G36*
X993Y3900D02*
G75*
D01*
G02X993Y3900I457J0*
G01*
D02*
G37*
G36*
X2346Y3458D02*
G75*
D01*
G02X2008Y3796I0J338*
G01*
X2008Y3796D01*
X2008Y4004D01*
G75*
D01*
G02X2346Y4342I338J0*
G01*
X2346Y4342D01*
X2554Y4342D01*
G74*
D01*
G02X2892Y4004I0J338*
G01*
X2892Y4004D01*
X2892Y3796D01*
G75*
D01*
G02X2554Y3458I-338J0*
G01*
X2554Y3458D01*
X2346Y3458D01*
D02*
G37*
G36*
X993Y4900D02*
G75*
D01*
G02X993Y4900I457J0*
G01*
D02*
G37*
G36*
X1993Y4900D02*
G75*
D01*
G02X1993Y4900I457J0*
G01*
D02*
G37*
G36*
X1288Y5473D02*
G74*
D01*
G02X1023Y5738I161J426*
G01*
X1023Y5738D01*
X1288Y5738D01*
X1288Y5473D01*
D02*
G37*
G36*
X1877Y5738D02*
G74*
D01*
G02X1612Y5473I426J161*
G01*
X1612Y5473D01*
X1612Y5738D01*
X1877Y5738D01*
D02*
G37*
G36*
X4335Y5620D02*
G75*
D01*
G02X4080Y5365I65J-320*
G01*
X4080Y5365D01*
X3725Y5719D01*
X2869Y5719D01*
G75*
D01*
G02X2869Y6081I-419J181*
G01*
X2869Y6081D01*
X3800Y6081D01*
G75*
D01*
G02X3828Y6079I1J-181*
G01*
G74*
D01*
G02X3928Y6028I28J179*
G01*
X3928Y6028D01*
X4335Y5620D01*
D02*
G37*
G36*
X1023Y6062D02*
G74*
D01*
G02X1288Y6327I426J161*
G01*
X1288Y6327D01*
X1288Y6062D01*
X1023Y6062D01*
D02*
G37*
G36*
X1275Y5900D02*
G75*
D01*
G02X1275Y5900I175J0*
G01*
D02*
G37*
G36*
X1612Y6327D02*
G74*
D01*
G02X1877Y6062I161J426*
G01*
X1877Y6062D01*
X1612Y6062D01*
X1612Y6327D01*
D02*
G37*
%LPD*%
G36*
X14950Y8311D02*
X14950Y8311D01*
X13867Y8311D01*
X14854Y9298D01*
X14854Y9298D01*
X16455Y10899D01*
X21001Y10899D01*
X20562Y10460D01*
G75*
D01*
G03X19860Y10149I-202J-491*
G01*
G75*
D01*
G03X19079Y9517I-499J-182*
G01*
X19079Y9517D01*
X19079Y9269D01*
G75*
D01*
G03X19161Y9069I281J-2*
G01*
X19161Y9069D01*
X20529Y7701D01*
G74*
D01*
G03X20660Y7627I199J199*
G01*
G75*
D01*
G03X20728Y7619I67J273*
G01*
X20728Y7619D01*
X21934Y7619D01*
G75*
D01*
G03X21934Y8181I165J281*
G01*
X21934Y8181D01*
X20845Y8181D01*
X19728Y9298D01*
X19641Y9385D01*
X19641Y9517D01*
G74*
D01*
G03X19860Y9787I280J451*
G01*
G75*
D01*
G03X20860Y9787I500J179*
G01*
G74*
D01*
G03X20875Y9750I499J181*
G01*
X20875Y9750D01*
X21093Y9968D01*
X20880Y10182D01*
X21147Y10448D01*
X21360Y10235D01*
X21578Y10453D01*
G75*
D01*
G03X21159Y10461I-219J-484*
G01*
X21159Y10461D01*
X21287Y10589D01*
X21913Y10589D01*
X21989Y10513D01*
X21989Y9800D01*
G75*
D01*
G03X22051Y9651I211J0*
G01*
X22051Y9651D01*
X22403Y9298D01*
X22403Y9298D01*
X23089Y8613D01*
X23089Y5500D01*
G75*
D01*
G03X23151Y5351I211J0*
G01*
X23151Y5351D01*
X23654Y4848D01*
G75*
D01*
G03X24237Y4314I445J-99*
G01*
X24237Y4314D01*
X24389Y4163D01*
X24389Y4104D01*
G75*
D01*
G03X23676Y3581I-290J-352*
G01*
X23676Y3581D01*
X22118Y2024D01*
G75*
D01*
G03X21480Y2035I-318J72*
G01*
X21480Y2035D01*
X21325Y1881D01*
X16975Y1881D01*
X16420Y2435D01*
G75*
D01*
G03X15881Y2743I-319J67*
G01*
X15881Y2743D01*
X15881Y4500D01*
G74*
D01*
G03X15828Y4628I181J0*
G01*
X15828Y4628D01*
X15328Y5128D01*
G74*
D01*
G03X15238Y5177I128J128*
G01*
G75*
D01*
G03X15200Y5181I-38J-177*
G01*
X15200Y5181D01*
X15172Y5181D01*
G75*
D01*
G03X14689Y4750I-267J-186*
G01*
G75*
D01*
G03X14965Y4180I211J-249*
G01*
X14965Y4180D01*
X15199Y3945D01*
X15199Y1958D01*
G74*
D01*
G03X15100Y1830I201J258*
G01*
G74*
D01*
G03X14981Y1972I299J130*
G01*
X14981Y1972D01*
X14981Y3128D01*
G75*
D01*
G03X14619Y3128I-181J271*
G01*
X14619Y3128D01*
X14619Y1972D01*
G74*
D01*
G03X14473Y1708I180J272*
G01*
X14473Y1708D01*
X13581Y2600D01*
X13581Y4728D01*
G75*
D01*
G03X13611Y5250I-179J272*
G01*
G75*
D01*
G03X13080Y5435I-211J250*
G01*
X13080Y5435D01*
X13001Y5357D01*
X13001Y6045D01*
X13735Y6780D01*
G75*
D01*
G03X13550Y7311I63J320*
G01*
G74*
D01*
G03X13324Y7426I250J211*
G01*
X13324Y7426D01*
X13787Y7889D01*
X14950Y7889D01*
G75*
D01*
G03X14950Y8311I250J211*
G01*
D02*
G37*
%LPC*%
G36*
X21578Y9483D02*
X21578Y9483D01*
X21360Y9702D01*
X21142Y9483D01*
G75*
D01*
G03X21578Y9483I218J484*
G01*
D02*
G37*
G36*
X21127Y9968D02*
G75*
D01*
G03X21127Y9968I233J0*
G01*
D02*
G37*
G36*
X21845Y10187D02*
X21845Y10187D01*
X21627Y9968D01*
X21845Y9750D01*
G75*
D01*
G03X21845Y10187I-484J219*
G01*
D02*
G37*
G36*
X19541Y2818D02*
G75*
D01*
G03X19541Y2818I819J0*
G01*
D02*
G37*
%LPD*%
G36*
X9117Y16734D02*
G75*
D01*
G02X9483Y16734I183J-234*
G01*
X9483Y16734D01*
X9483Y16818D01*
X9117Y16818D01*
X9117Y16734D01*
D02*
G37*
G36*
X11117Y16734D02*
G75*
D01*
G02X11483Y16734I183J-234*
G01*
X11483Y16734D01*
X11483Y16818D01*
X11117Y16818D01*
X11117Y16734D01*
D02*
G37*
G36*
X20868Y10169D02*
G74*
D01*
G03X20860Y10149I489J207*
G01*
G74*
D01*
G03X20857Y10158I505J163*
G01*
X20857Y10158D01*
X20868Y10169D01*
D02*
G37*
G54D11*
X9117Y14266D02*
X9117Y14016D01*
G74*
D01*
G02X8816Y14317I183J484*
G01*
X9066Y14317D01*
G75*
D01*
G02X9066Y14683I234J183*
G01*
X8816Y14683D01*
G74*
D01*
G02X9117Y14984I484J183*
G01*
X9117Y14734D01*
G75*
D01*
G02X9483Y14734I183J-234*
G01*
X9483Y14984D01*
G74*
D01*
G02X9784Y14683I183J484*
G01*
X9534Y14683D01*
G75*
D01*
G02X9534Y14317I-234J-183*
G01*
X9784Y14317D01*
G74*
D01*
G02X9483Y14016I484J183*
G01*
X9483Y14266D01*
G75*
D01*
G02X9117Y14266I-183J234*
G01*
X23643Y5750D02*
G75*
D01*
G02X23643Y5750I457J0*
G01*
X10143Y8150D02*
G75*
D01*
G02X10143Y8150I390J0*
G01*
X21766Y984D02*
G75*
D01*
G02X21766Y984I175J0*
G01*
X22381Y1141D02*
X22098Y1141D01*
X22098Y1424D01*
G74*
D01*
G02X22381Y1141I31J314*
G01*
X22862Y1181D02*
G75*
D01*
G02X22862Y1181I642J0*
G01*
X21501Y828D02*
X21784Y828D01*
X21784Y544D01*
G74*
D01*
G02X21501Y828I32J314*
G01*
X22098Y544D02*
X22098Y828D01*
X22381Y828D01*
G74*
D01*
G02X22098Y544I315J30*
G01*
X9783Y15500D02*
G75*
D01*
G02X9783Y15500I517J0*
G01*
X11534Y14683D02*
G75*
D01*
G02X11534Y14317I-234J-183*
G01*
X11784Y14317D01*
G74*
D01*
G02X11483Y14016I484J183*
G01*
X11483Y14266D01*
G75*
D01*
G02X11117Y14266I-183J234*
G01*
X11117Y14016D01*
G74*
D01*
G02X10816Y14317I183J484*
G01*
X11066Y14317D01*
G75*
D01*
G02X11066Y14683I234J183*
G01*
X10816Y14683D01*
G74*
D01*
G02X11117Y14984I484J183*
G01*
X11117Y14734D01*
G75*
D01*
G02X11483Y14734I183J-234*
G01*
X11483Y14984D01*
G74*
D01*
G02X11784Y14683I183J484*
G01*
X11534Y14683D01*
X16501Y15802D02*
X16800Y16016D01*
X17099Y15802D01*
G74*
D01*
G02X17075Y15800I33J255*
G01*
X16525Y15800D01*
G75*
D01*
G02X16501Y15802I9J258*
G01*
X16280Y16390D02*
X16567Y16183D01*
X16280Y15977D01*
G75*
D01*
G02X16267Y16058I245J81*
G01*
X16267Y16308D01*
G74*
D01*
G02X16280Y16390I258J1*
G01*
X17099Y16565D02*
X16800Y16351D01*
X16501Y16565D01*
G75*
D01*
G02X16525Y16566I23J-257*
G01*
X17075Y16566D01*
G74*
D01*
G02X17099Y16565I1J258*
G01*
X17320Y16390D02*
G74*
D01*
G02X17333Y16308I245J81*
G01*
X17333Y16058D01*
G75*
D01*
G02X17320Y15977I-258J0*
G01*
X17033Y16183D01*
X17320Y16390D01*
X17901Y15802D02*
X18200Y16016D01*
X18499Y15802D01*
G74*
D01*
G02X18475Y15800I33J255*
G01*
X17925Y15800D01*
G75*
D01*
G02X17901Y15802I9J258*
G01*
X18499Y16565D02*
X18200Y16351D01*
X17901Y16565D01*
G75*
D01*
G02X17925Y16566I23J-257*
G01*
X18475Y16566D01*
G74*
D01*
G02X18499Y16565I1J258*
G01*
X17680Y16390D02*
X17967Y16183D01*
X17680Y15977D01*
G75*
D01*
G02X17667Y16058I245J81*
G01*
X17667Y16308D01*
G74*
D01*
G02X17680Y16390I258J1*
G01*
X18720Y16390D02*
G74*
D01*
G02X18733Y16308I245J81*
G01*
X18733Y16058D01*
G75*
D01*
G02X18720Y15977I-258J0*
G01*
X18433Y16183D01*
X18720Y16390D01*
X24257Y10862D02*
X24257Y11143D01*
X24538Y11143D01*
G74*
D01*
G02X24257Y10862I334J53*
G01*
X23662Y11143D02*
X23943Y11143D01*
X23943Y10862D01*
G74*
D01*
G02X23662Y11143I53J334*
G01*
X24538Y11457D02*
X24257Y11457D01*
X24257Y11738D01*
G74*
D01*
G02X24538Y11457I53J334*
G01*
X23943Y11738D02*
X23943Y11457D01*
X23662Y11457D01*
G74*
D01*
G02X23943Y11738I334J53*
G01*
X23904Y11300D02*
G75*
D01*
G02X23904Y11300I196J0*
G01*
X23643Y12300D02*
G75*
D01*
G02X23643Y12300I457J0*
G01*
X24527Y13138D02*
G74*
D01*
G02X24262Y12873I426J161*
G01*
X24262Y13138D01*
X24527Y13138D01*
X23925Y13300D02*
G75*
D01*
G02X23925Y13300I175J0*
G01*
X23938Y12873D02*
G74*
D01*
G02X23673Y13138I161J426*
G01*
X23938Y13138D01*
X23938Y12873D01*
X24262Y13727D02*
G74*
D01*
G02X24527Y13462I161J426*
G01*
X24262Y13462D01*
X24262Y13727D01*
X23643Y14300D02*
G75*
D01*
G02X23643Y14300I457J0*
G01*
X23673Y13462D02*
G74*
D01*
G02X23938Y13727I426J161*
G01*
X23938Y13462D01*
X23673Y13462D01*
X22862Y15787D02*
G75*
D01*
G02X22862Y15787I642J0*
G01*
X9739Y11650D02*
G75*
D01*
G02X9739Y11650I396J0*
G01*
X1694Y11791D02*
G74*
D01*
G02X1924Y12021I370J140*
G01*
X1924Y11791D01*
X1694Y11791D01*
X2205Y12021D02*
G74*
D01*
G02X2436Y11791I139J371*
G01*
X2205Y11791D01*
X2205Y12021D01*
X2436Y11509D02*
G74*
D01*
G02X2205Y11279I370J141*
G01*
X2205Y11509D01*
X2436Y11509D01*
X1868Y11650D02*
G75*
D01*
G02X1868Y11650I197J0*
G01*
X1924Y11279D02*
G74*
D01*
G02X1694Y11509I140J370*
G01*
X1924Y11509D01*
X1924Y11279D01*
X736Y15787D02*
G75*
D01*
G02X736Y15787I642J0*
G01*
X736Y1181D02*
G75*
D01*
G02X736Y1181I642J0*
G01*
X2551Y984D02*
G75*
D01*
G02X2551Y984I390J0*
G01*
X3551Y984D02*
G75*
D01*
G02X3551Y984I390J0*
G01*
X4551Y984D02*
G75*
D01*
G02X4551Y984I390J0*
G01*
X5551Y984D02*
G75*
D01*
G02X5551Y984I390J0*
G01*
X6551Y984D02*
G75*
D01*
G02X6551Y984I390J0*
G01*
X7551Y984D02*
G75*
D01*
G02X7551Y984I390J0*
G01*
X993Y3900D02*
G75*
D01*
G02X993Y3900I457J0*
G01*
X2346Y3458D02*
G75*
D01*
G02X2008Y3796I0J338*
G01*
X2008Y4004D01*
G75*
D01*
G02X2346Y4342I338J0*
G01*
X2554Y4342D01*
G74*
D01*
G02X2892Y4004I0J338*
G01*
X2892Y3796D01*
G75*
D01*
G02X2554Y3458I-338J0*
G01*
X2346Y3458D01*
X993Y4900D02*
G75*
D01*
G02X993Y4900I457J0*
G01*
X1993Y4900D02*
G75*
D01*
G02X1993Y4900I457J0*
G01*
X1288Y5473D02*
G74*
D01*
G02X1023Y5738I161J426*
G01*
X1288Y5738D01*
X1288Y5473D01*
X1877Y5738D02*
G74*
D01*
G02X1612Y5473I426J161*
G01*
X1612Y5738D01*
X1877Y5738D01*
X4335Y5620D02*
G75*
D01*
G02X4080Y5365I65J-320*
G01*
X3725Y5719D01*
X2869Y5719D01*
G75*
D01*
G02X2869Y6081I-419J181*
G01*
X3800Y6081D01*
G75*
D01*
G02X3828Y6079I1J-181*
G01*
G74*
D01*
G02X3928Y6028I28J179*
G01*
X4335Y5620D01*
X1023Y6062D02*
G74*
D01*
G02X1288Y6327I426J161*
G01*
X1288Y6062D01*
X1023Y6062D01*
X1275Y5900D02*
G75*
D01*
G02X1275Y5900I175J0*
G01*
X1612Y6327D02*
G74*
D01*
G02X1877Y6062I161J426*
G01*
X1612Y6062D01*
X1612Y6327D01*
X22411Y10600D02*
X22411Y9887D01*
X23000Y9298D01*
X23000Y9298D01*
X23449Y8849D01*
G74*
D01*
G02X23511Y8700I148J149*
G01*
X23511Y5587D01*
X23926Y5172D01*
G75*
D01*
G02X24536Y4613I175J-421*
G01*
X24731Y4417D01*
X24731Y16818D01*
X11708Y16818D01*
G74*
D01*
G02X11784Y16683I407J318*
G01*
X11534Y16683D01*
G75*
D01*
G02X11534Y16317I-234J-183*
G01*
X11784Y16317D01*
G74*
D01*
G02X11483Y16016I484J183*
G01*
X11483Y16266D01*
G75*
D01*
G02X11117Y16266I-183J234*
G01*
X11117Y16016D01*
G74*
D01*
G02X10816Y16317I183J484*
G01*
X11066Y16317D01*
G75*
D01*
G02X11066Y16683I234J183*
G01*
X10816Y16683D01*
G74*
D01*
G02X10892Y16818I483J183*
G01*
X9708Y16818D01*
G74*
D01*
G02X9784Y16683I407J318*
G01*
X9534Y16683D01*
G75*
D01*
G02X9534Y16317I-234J-183*
G01*
X9784Y16317D01*
G74*
D01*
G02X9483Y16016I484J183*
G01*
X9483Y16266D01*
G75*
D01*
G02X9117Y16266I-183J234*
G01*
X9117Y16016D01*
G74*
D01*
G02X8816Y16317I183J484*
G01*
X9066Y16317D01*
G75*
D01*
G02X9066Y16683I234J183*
G01*
X8816Y16683D01*
G74*
D01*
G02X8892Y16818I483J183*
G01*
X151Y16818D01*
X151Y151D01*
X24731Y151D01*
X24731Y3033D01*
X24542Y2843D01*
X24542Y2646D01*
G75*
D01*
G02X24204Y2308I-338J0*
G01*
X23996Y2308D01*
G75*
D01*
G02X23658Y2646I0J338*
G01*
X23658Y2854D01*
G75*
D01*
G02X23996Y3192I338J0*
G01*
X24204Y3192D01*
G74*
D01*
G02X24284Y3182I2J338*
G01*
X24389Y3287D01*
X24389Y3396D01*
G75*
D01*
G02X23931Y3326I-288J353*
G01*
X21978Y1372D01*
G74*
D01*
G02X21850Y1319I128J128*
G01*
X21784Y1319D01*
X21784Y1141D01*
X21501Y1141D01*
G74*
D01*
G02X21579Y1319I314J32*
G01*
X21141Y1319D01*
G75*
D01*
G02X20741Y1319I-200J-335*
G01*
X20141Y1319D01*
G75*
D01*
G02X19741Y1319I-200J-335*
G01*
X19141Y1319D01*
G75*
D01*
G02X18741Y1319I-200J-335*
G01*
X18141Y1319D01*
G75*
D01*
G02X17741Y1319I-200J-335*
G01*
X17141Y1319D01*
G75*
D01*
G02X16741Y1319I-200J-335*
G01*
X16672Y1319D01*
G75*
D01*
G02X16264Y1203I-272J180*
G01*
G75*
D01*
G02X15760Y1330I-323J-218*
G01*
X15760Y1884D01*
X15601Y2043D01*
X15601Y1958D01*
G75*
D01*
G02X15100Y1570I-201J-258*
G01*
G74*
D01*
G02X14808Y1373I299J129*
G01*
X14825Y1356D01*
G75*
D01*
G02X14569Y1101I115J-372*
G01*
X13272Y2397D01*
G74*
D01*
G02X13231Y2461I129J127*
G01*
X13231Y1950D01*
X13825Y1356D01*
G75*
D01*
G02X13569Y1101I115J-372*
G01*
X13001Y1669D01*
X13001Y1370D01*
G75*
D01*
G02X12639Y1231I-60J-385*
G01*
X12639Y1427D01*
X12313Y1101D01*
G75*
D01*
G02X12057Y1356I-371J-117*
G01*
X12399Y1698D01*
X12399Y3901D01*
X12308Y3810D01*
G75*
D01*
G02X11728Y3881I-308J-110*
G01*
G75*
D01*
G02X11482Y4274I72J319*
G01*
G75*
D01*
G02X11249Y4810I16J326*
G01*
G75*
D01*
G02X11189Y5350I149J290*
G01*
G75*
D01*
G02X11080Y5665I211J250*
G01*
X10925Y5819D01*
X10143Y5819D01*
G75*
D01*
G02X10220Y5535I-243J-218*
G01*
X11069Y4687D01*
G74*
D01*
G02X11122Y4559I128J128*
G01*
X11122Y1330D01*
G75*
D01*
G02X10760Y1330I-181J-345*
G01*
X10760Y4484D01*
X10218Y5026D01*
G74*
D01*
G02X10122Y4860I318J73*
G01*
X10122Y1330D01*
G75*
D01*
G02X9760Y1330I-181J-345*
G01*
X9760Y4502D01*
G75*
D01*
G02X9435Y4380I-259J197*
G01*
X9298Y4242D01*
X9122Y4066D01*
X9122Y1330D01*
G75*
D01*
G02X8760Y1330I-181J-345*
G01*
X8760Y4141D01*
G75*
D01*
G02X8813Y4269I181J0*
G01*
X9180Y4635D01*
G75*
D01*
G02X9584Y5016I319J66*
G01*
G75*
D01*
G02X9689Y5350I315J85*
G01*
G75*
D01*
G02X9657Y5819I211J250*
G01*
X9475Y5819D01*
X9303Y5647D01*
X7628Y3972D01*
G74*
D01*
G02X7556Y3928I128J128*
G01*
G75*
D01*
G02X7500Y3919I-56J171*
G01*
X7272Y3919D01*
G75*
D01*
G02X7272Y4281I-271J181*
G01*
X7425Y4281D01*
X9272Y6128D01*
G74*
D01*
G02X9367Y6178I128J128*
G01*
G75*
D01*
G02X9400Y6181I33J-178*
G01*
X11000Y6181D01*
G75*
D01*
G02X11046Y6175I0J-181*
G01*
G74*
D01*
G02X11128Y6128I45J174*
G01*
X11335Y5920D01*
G75*
D01*
G02X11418Y5926I65J-319*
G01*
X8625Y8719D01*
X6400Y8719D01*
G75*
D01*
G02X6359Y8724I1J181*
G01*
G74*
D01*
G02X6272Y8772I40J175*
G01*
X5746Y9298D01*
X5746Y9298D01*
X3472Y11572D01*
G75*
D01*
G02X3419Y11700I128J128*
G01*
X3419Y14000D01*
G75*
D01*
G02X3472Y14128I181J0*
G01*
X3480Y14135D01*
G75*
D01*
G02X3781Y13874I320J64*
G01*
X3781Y12943D01*
G75*
D01*
G02X4027Y13026I219J-243*
G01*
X4151Y13149D01*
G74*
D01*
G02X4257Y13207I150J147*
G01*
G75*
D01*
G02X4300Y13211I41J-207*
G01*
X16450Y13211D01*
G74*
D01*
G02X16489Y13250I250J211*
G01*
X16489Y14636D01*
G75*
D01*
G02X16267Y14892I36J255*
G01*
X16267Y15142D01*
G75*
D01*
G02X16525Y15400I258J0*
G01*
X17075Y15400D01*
G74*
D01*
G02X17318Y15228I0J258*
G01*
X17682Y15228D01*
G75*
D01*
G02X17925Y15400I243J-85*
G01*
X18475Y15400D01*
G74*
D01*
G02X18641Y15339I1J258*
G01*
X19089Y15787D01*
X19089Y16050D01*
G75*
D01*
G02X19511Y16050I211J250*
G01*
X19511Y15700D01*
G75*
D01*
G02X19449Y15551I-211J0*
G01*
X18766Y14868D01*
G74*
D01*
G02X18727Y14837I149J148*
G01*
G74*
D01*
G02X18475Y14634I251J54*
G01*
X17925Y14634D01*
G75*
D01*
G02X17682Y14806I0J258*
G01*
X17318Y14806D01*
G74*
D01*
G02X17075Y14634I243J85*
G01*
X16911Y14634D01*
X16911Y13250D01*
G75*
D01*
G02X16450Y12789I-212J-249*
G01*
X4387Y12789D01*
X4326Y12727D01*
G75*
D01*
G02X3781Y12457I-326J-27*
G01*
X3781Y11775D01*
X6475Y9081D01*
X8700Y9081D01*
G75*
D01*
G02X8761Y9070I-1J-181*
G01*
G74*
D01*
G02X8828Y9028I60J170*
G01*
X11729Y6127D01*
X11729Y7010D01*
G75*
D01*
G02X11782Y7138I181J0*
G01*
X12407Y7762D01*
G75*
D01*
G02X12838Y8193I43J388*
G01*
X13942Y9298D01*
X13942Y9298D01*
X19172Y14528D01*
G74*
D01*
G02X19251Y14574I128J128*
G01*
G75*
D01*
G02X19300Y14581I50J-173*
G01*
X21628Y14581D01*
G75*
D01*
G02X21628Y14219I271J-181*
G01*
X19375Y14219D01*
X16457Y11301D01*
X22200Y11301D01*
G75*
D01*
G02X22231Y11299I3J-201*
G01*
G74*
D01*
G02X22342Y11242I32J198*
G01*
X22942Y10642D01*
G74*
D01*
G02X23001Y10500I141J142*
G01*
X23001Y10458D01*
G75*
D01*
G02X22577Y10439I-201J-258*
G01*
X22411Y10605D01*
X22411Y10600D01*
X21578Y9483D02*
X21360Y9702D01*
X21142Y9483D01*
G75*
D01*
G03X21578Y9483I218J484*
G01*
X21127Y9968D02*
G75*
D01*
G03X21127Y9968I233J0*
G01*
X21845Y10187D02*
X21627Y9968D01*
X21845Y9750D01*
G75*
D01*
G03X21845Y10187I-484J219*
G01*
X19541Y2818D02*
G75*
D01*
G03X19541Y2818I819J0*
G01*
X14950Y8311D02*
X13867Y8311D01*
X14854Y9298D01*
X14854Y9298D01*
X16455Y10899D01*
X21001Y10899D01*
X20562Y10460D01*
G75*
D01*
G03X19860Y10149I-202J-491*
G01*
G75*
D01*
G03X19079Y9517I-499J-182*
G01*
X19079Y9269D01*
G75*
D01*
G03X19161Y9069I281J-2*
G01*
X20529Y7701D01*
G74*
D01*
G03X20660Y7627I199J199*
G01*
G75*
D01*
G03X20728Y7619I67J273*
G01*
X21934Y7619D01*
G75*
D01*
G03X21934Y8181I165J281*
G01*
X20845Y8181D01*
X19728Y9298D01*
X19641Y9385D01*
X19641Y9517D01*
G74*
D01*
G03X19860Y9787I280J451*
G01*
G75*
D01*
G03X20860Y9787I500J179*
G01*
G74*
D01*
G03X20875Y9750I499J181*
G01*
X21093Y9968D01*
X20880Y10182D01*
X21147Y10448D01*
X21360Y10235D01*
X21578Y10453D01*
G75*
D01*
G03X21159Y10461I-219J-484*
G01*
X21287Y10589D01*
X21913Y10589D01*
X21989Y10513D01*
X21989Y9800D01*
G75*
D01*
G03X22051Y9651I211J0*
G01*
X22403Y9298D01*
X22403Y9298D01*
X23089Y8613D01*
X23089Y5500D01*
G75*
D01*
G03X23151Y5351I211J0*
G01*
X23654Y4848D01*
G75*
D01*
G03X24237Y4314I445J-99*
G01*
X24389Y4163D01*
X24389Y4104D01*
G75*
D01*
G03X23676Y3581I-290J-352*
G01*
X22118Y2024D01*
G75*
D01*
G03X21480Y2035I-318J72*
G01*
X21325Y1881D01*
X16975Y1881D01*
X16420Y2435D01*
G75*
D01*
G03X15881Y2743I-319J67*
G01*
X15881Y4500D01*
G74*
D01*
G03X15828Y4628I181J0*
G01*
X15328Y5128D01*
G74*
D01*
G03X15238Y5177I128J128*
G01*
G75*
D01*
G03X15200Y5181I-38J-177*
G01*
X15172Y5181D01*
G75*
D01*
G03X14689Y4750I-267J-186*
G01*
G75*
D01*
G03X14965Y4180I211J-249*
G01*
X15199Y3945D01*
X15199Y1958D01*
G74*
D01*
G03X15100Y1830I201J258*
G01*
G74*
D01*
G03X14981Y1972I299J130*
G01*
X14981Y3128D01*
G75*
D01*
G03X14619Y3128I-181J271*
G01*
X14619Y1972D01*
G74*
D01*
G03X14473Y1708I180J272*
G01*
X13581Y2600D01*
X13581Y4728D01*
G75*
D01*
G03X13611Y5250I-179J272*
G01*
G75*
D01*
G03X13080Y5435I-211J250*
G01*
X13001Y5357D01*
X13001Y6045D01*
X13735Y6780D01*
G75*
D01*
G03X13550Y7311I63J320*
G01*
G74*
D01*
G03X13324Y7426I250J211*
G01*
X13787Y7889D01*
X14950Y7889D01*
G75*
D01*
G03X14950Y8311I250J211*
G01*
X20868Y10169D02*
G74*
D01*
G03X20860Y10149I489J207*
G01*
G74*
D01*
G03X20857Y10158I505J163*
G01*
X20868Y10169D01*
X9117Y16734D02*
G75*
D01*
G02X9483Y16734I183J-234*
G01*
X9483Y16818D01*
X9117Y16818D01*
X9117Y16734D01*
X11117Y16734D02*
G75*
D01*
G02X11483Y16734I183J-234*
G01*
X11483Y16818D01*
X11117Y16818D01*
X11117Y16734D01*
X13400Y5000D02*
X13400Y2525D01*
X14941Y984D01*
X4400Y5300D02*
X3800Y5900D01*
X2450Y5900D01*
X16400Y1500D02*
X21850Y1500D01*
X24100Y3750D01*
X9941Y984D02*
X9941Y5059D01*
X9900Y5100D01*
X10941Y984D02*
X10941Y4559D01*
X9900Y5600D01*
X3600Y14000D02*
X3800Y14200D01*
X15200Y5000D02*
X14900Y5000D01*
X15400Y4000D02*
X14900Y4500D01*
X8941Y984D02*
X8941Y4141D01*
X9500Y4700D01*
X13050Y1875D02*
X13050Y5150D01*
X13400Y5500D01*
X13050Y1875D02*
X13941Y984D01*
X3600Y11700D02*
X3600Y14000D01*
X6400Y8900D02*
X3600Y11700D01*
X21900Y14400D02*
X19300Y14400D01*
X6400Y8900D02*
X8700Y8900D01*
X7500Y4100D02*
X7000Y4100D01*
X11000Y6000D02*
X9400Y6000D01*
X11400Y5600D02*
X11000Y6000D01*
X9400Y6000D02*
X7500Y4100D01*
X12820Y1105D02*
X12820Y6120D01*
X13800Y7100D01*
X12820Y1105D02*
X12941Y984D01*
X12580Y6680D02*
X12580Y1623D01*
X11941Y984D01*
X11400Y5100D02*
X11730Y5430D01*
X11730Y5870D02*
X8700Y8900D01*
X11730Y5430D02*
X11730Y5870D01*
X11910Y5010D02*
X11910Y7010D01*
X11500Y4600D02*
X11910Y5010D01*
X19300Y14400D02*
X11910Y7010D01*
X12090Y4490D02*
X12090Y6790D01*
X11800Y4200D02*
X12090Y4490D01*
X13300Y7100D02*
X13000Y7100D01*
X12580Y6680D01*
X15941Y1959D02*
X15941Y984D01*
X15700Y2200D02*
X15700Y4500D01*
X15941Y1959D02*
X15700Y2200D01*
X15700Y4500D02*
X15200Y5000D01*
X14800Y3400D02*
X14800Y1700D01*
X15400Y1700D02*
X15400Y4000D01*
X21400Y1700D02*
X16900Y1700D01*
X21800Y2100D02*
X21400Y1700D01*
X16900Y1700D02*
X16100Y2500D01*
X22800Y10500D02*
X22800Y10200D01*
X16400Y11100D02*
X22200Y11100D01*
X16400Y11100D02*
X12090Y6790D01*
X22800Y10500D02*
X22200Y11100D01*
G54D12*
X4300Y13000D02*
X4000Y12700D01*
X4300Y13000D02*
X16700Y13000D01*
X16700Y14917D01*
X16800Y15017D01*
X18617Y15017D01*
X19300Y15700D01*
X19300Y16300D01*
X12000Y3700D02*
X12000Y3800D01*
X12300Y4100D01*
X12300Y4100D02*
X12300Y6700D01*
X12300Y6700D02*
X13700Y8100D01*
X15200Y8100D01*
X23300Y8700D02*
X22200Y9800D01*
X22200Y10600D01*
X22000Y10800D01*
X21200Y10800D02*
X20368Y9968D01*
X20360Y9968D01*
X22000Y10800D02*
X21200Y10800D01*
X24050Y4750D02*
X23300Y5500D01*
X24050Y4750D02*
X24100Y4750D01*
X23300Y5500D02*
X23300Y8700D01*
X24100Y2750D02*
X24150Y2750D01*
X24600Y3200D01*
X24600Y4250D01*
X24100Y4750D01*
G54D13*
X19360Y9268D02*
X19360Y9968D01*
X20728Y7900D02*
X19360Y9268D01*
X22100Y7900D02*
X20728Y7900D01*
G54D14*
X13800Y7100D03*
X13400Y5000D03*
X13400Y5500D03*
X14900Y5000D03*
X4400Y5300D03*
X16400Y1500D03*
X9900Y5100D03*
X9900Y5600D03*
X4000Y12700D03*
X3800Y14200D03*
X14800Y3400D03*
X14900Y4500D03*
X9500Y4700D03*
X16700Y13000D03*
X19300Y16300D03*
X22100Y7900D03*
X21900Y14400D03*
X22800Y10200D03*
X11800Y4200D03*
X11400Y5600D03*
X11400Y5100D03*
X11500Y4600D03*
X7000Y4100D03*
X12000Y3700D03*
X13300Y7100D03*
X15200Y8100D03*
X16100Y2500D03*
X14800Y1700D03*
X15400Y1700D03*
X12200Y2200D03*
X21800Y2100D03*
X22900Y16500D03*
X14200Y16300D03*
X17500Y16300D03*
X14200Y10800D03*
X23100Y9500D03*
X20400Y6100D03*
X17600Y5700D03*
X16000Y6000D03*
X15900Y9800D03*
X15900Y8600D03*
X8400Y2800D03*
X4800Y2400D03*
X6300Y3400D03*
X800Y7100D03*
X800Y2500D03*
X11500Y10800D03*
X2200Y15000D03*
X8200Y6900D03*
X20400Y4900D03*
X19200Y7300D03*
X21500Y7300D03*
X20400Y7300D03*
X19200Y6100D03*
X21500Y6100D03*
X21500Y4900D03*
X19200Y4900D03*
G54D15*
X10941Y984D03*
X13941Y984D03*
X14941Y984D03*
X20941Y984D03*
X17941Y984D03*
X19941Y984D03*
X18941Y984D03*
X15941Y984D03*
X16941Y984D03*
X12941Y984D03*
X11941Y984D03*
X9941Y984D03*
X8941Y984D03*
X4941Y984D03*
X6941Y984D03*
X7941Y984D03*
X5941Y984D03*
X3941Y984D03*
X2941Y984D03*
X12450Y8150D03*
X10533Y8150D03*
G54D16*
X21941Y984D03*
G54D17*
X21816Y859D02*
X22066Y859D01*
X22066Y1109D01*
X21816Y1109D01*
X21816Y859D01*D02*
G54D18*
X24100Y13300D03*
X24100Y12300D03*
X24100Y14300D03*
X24100Y4750D03*
X24100Y3750D03*
X24100Y5750D03*
X2450Y4900D03*
X1450Y3900D03*
X2450Y5900D03*
X1450Y4900D03*
X1450Y5900D03*
G54D19*
X24100Y11300D03*
X24100Y2750D03*
X2450Y3900D03*
G54D20*
X23996Y11196D02*
X24204Y11196D01*
X24204Y11404D01*
X23996Y11404D01*
X23996Y11196D01*D02*
X23996Y2646D02*
X24204Y2646D01*
X24204Y2854D01*
X23996Y2854D01*
X23996Y2646D01*D02*
X2346Y3796D02*
X2554Y3796D01*
X2554Y4004D01*
X2346Y4004D01*
X2346Y3796D01*D02*
G54D21*
X16800Y15017D03*
X16800Y16183D03*
X18200Y15017D03*
X18200Y16183D03*
G54D22*
X16525Y14892D02*
X17075Y14892D01*
X17075Y15142D01*
X16525Y15142D01*
X16525Y14892D01*D02*
X16525Y16058D02*
X17075Y16058D01*
X17075Y16308D01*
X16525Y16308D01*
X16525Y16058D01*D02*
X17925Y14892D02*
X18475Y14892D01*
X18475Y15142D01*
X17925Y15142D01*
X17925Y14892D01*D02*
X17925Y16058D02*
X18475Y16058D01*
X18475Y16308D01*
X17925Y16308D01*
X17925Y16058D01*D02*
G54D23*
X20360Y9968D03*
X19360Y9968D03*
X21360Y9968D03*
G54D24*
X10300Y15500D03*
X9300Y16500D03*
X11300Y16500D03*
X9300Y14500D03*
X11300Y14500D03*
G54D25*
X2065Y11650D03*
X10135Y11650D03*

M02*
