G04 Generated by Ultiboard 13.0 *
%FSLAX24Y24*%
%MOIN*%

%ADD10C,0.0001*%
%ADD11C,0.0100*%
%ADD12C,0.0160*%
%ADD13C,0.0180*%
%ADD14C,0.0140*%
%ADD15C,0.0300*%
%ADD16C,0.0394*%
%ADD17C,0.0500*%
%ADD18R,0.0250X0.0250*%
%ADD19C,0.0350*%
%ADD20R,0.0160X0.0591*%
%ADD21R,0.0591X0.0160*%
%ADD22R,0.0550X0.0250*%
%ADD23C,0.0233*%
%ADD24R,0.0787X0.0236*%
%ADD25R,0.1378X0.0472*%
%ADD26C,0.0633*%
%ADD27R,0.0208X0.0208*%
%ADD28C,0.0392*%
%ADD29R,0.0748X0.0906*%
%ADD30R,0.0551X0.0157*%
%ADD31R,0.0748X0.0709*%
%ADD32R,0.0728X0.0472*%
%ADD33C,0.0783*%
%ADD34C,0.0735*%
%ADD35C,0.0534*%
%ADD36R,0.0250X0.0550*%


G04 ColorRGB 00FF00 for the following layer *
%LNCopper Top*%
%LPD*%
G54D10*
G36*
X20800Y7989D02*
X20800Y7989D01*
X18300Y7989D01*
G75*
D01*
G02X18194Y8017I-1J211*
G01*
X18194Y8017D01*
X18194Y8004D01*
X18649Y7550D01*
G74*
D01*
G02X18711Y7400I149J149*
G01*
X18711Y7400D01*
X18711Y4000D01*
G75*
D01*
G02X18649Y3851I-211J0*
G01*
X18649Y3851D01*
X18466Y3668D01*
G74*
D01*
G02X18363Y3611I149J148*
G01*
G75*
D01*
G02X18316Y3606I-46J206*
G01*
X18316Y3606D01*
X18118Y3606D01*
G74*
D01*
G02X17953Y3446I243J85*
G01*
X17953Y3446D01*
X19587Y1811D01*
X20725Y1811D01*
G74*
D01*
G02X20875Y1749I1J211*
G01*
X20875Y1749D01*
X21090Y1534D01*
G74*
D01*
G02X21152Y1384I149J149*
G01*
X21152Y1384D01*
X21152Y1312D01*
G75*
D01*
G02X20895Y597I-212J-328*
G01*
X20895Y597D01*
X20449Y151D01*
X24731Y151D01*
X24731Y16818D01*
X11708Y16818D01*
G74*
D01*
G02X11784Y16683I407J318*
G01*
X11784Y16683D01*
X11534Y16683D01*
G75*
D01*
G02X11534Y16317I-234J-183*
G01*
X11534Y16317D01*
X11784Y16317D01*
G74*
D01*
G02X11483Y16016I484J183*
G01*
X11483Y16016D01*
X11483Y16266D01*
G75*
D01*
G02X11117Y16266I-183J234*
G01*
X11117Y16266D01*
X11117Y16016D01*
G74*
D01*
G02X10816Y16317I183J484*
G01*
X10816Y16317D01*
X11066Y16317D01*
G75*
D01*
G02X11066Y16683I234J183*
G01*
X11066Y16683D01*
X10816Y16683D01*
G74*
D01*
G02X10892Y16818I483J183*
G01*
X10892Y16818D01*
X9708Y16818D01*
G74*
D01*
G02X9784Y16683I407J318*
G01*
X9784Y16683D01*
X9534Y16683D01*
G75*
D01*
G02X9534Y16317I-234J-183*
G01*
X9534Y16317D01*
X9784Y16317D01*
G74*
D01*
G02X9483Y16016I484J183*
G01*
X9483Y16016D01*
X9483Y16266D01*
G75*
D01*
G02X9117Y16266I-183J234*
G01*
X9117Y16266D01*
X9117Y16016D01*
G74*
D01*
G02X8816Y16317I183J484*
G01*
X8816Y16317D01*
X9066Y16317D01*
G75*
D01*
G02X9066Y16683I234J183*
G01*
X9066Y16683D01*
X8816Y16683D01*
G74*
D01*
G02X8892Y16818I483J183*
G01*
X8892Y16818D01*
X151Y16818D01*
X151Y14298D01*
G75*
D01*
G02X325Y14366I174J-189*
G01*
X325Y14366D01*
X875Y14366D01*
G74*
D01*
G02X1133Y14108I0J258*
G01*
X1133Y14108D01*
X1133Y13858D01*
G75*
D01*
G02X948Y13611I-258J0*
G01*
X948Y13611D01*
X1514Y13611D01*
X1800Y13816D01*
X2099Y13602D01*
G74*
D01*
G02X2075Y13600I33J255*
G01*
X2075Y13600D01*
X1666Y13600D01*
G74*
D01*
G02X1669Y13599I65J200*
G01*
G74*
D01*
G02X1749Y13549I68J199*
G01*
X1749Y13549D01*
X1949Y13349D01*
G74*
D01*
G02X2011Y13200I148J149*
G01*
X2011Y13200D01*
X2011Y13200D01*
X2075Y13200D01*
G74*
D01*
G02X2332Y12961I0J258*
G01*
X2332Y12961D01*
X2484Y12961D01*
G75*
D01*
G02X2576Y12999I92J-92*
G01*
X2576Y12999D01*
X3363Y12999D01*
G74*
D01*
G02X3455Y12961I0J131*
G01*
X3455Y12961D01*
X3803Y12961D01*
G75*
D01*
G02X4223Y12939I197J-261*
G01*
G74*
D01*
G02X4272Y13028I177J39*
G01*
X4272Y13028D01*
X5622Y14378D01*
G75*
D01*
G02X5750Y14431I128J-128*
G01*
X5750Y14431D01*
X6122Y14431D01*
G75*
D01*
G02X6237Y14499I115J-63*
G01*
X6237Y14499D01*
X7024Y14499D01*
G74*
D01*
G02X7139Y14431I0J131*
G01*
X7139Y14431D01*
X8350Y14431D01*
G74*
D01*
G02X8478Y14378I0J181*
G01*
X8478Y14378D01*
X8875Y13981D01*
X11825Y13981D01*
X11966Y14122D01*
G75*
D01*
G02X12094Y14175I128J-128*
G01*
X12094Y14175D01*
X12240Y14175D01*
X12240Y14230D01*
G75*
D01*
G02X12371Y14361I131J0*
G01*
X12371Y14361D01*
X13749Y14361D01*
G74*
D01*
G02X13879Y14230I1J131*
G01*
X13879Y14230D01*
X13879Y13757D01*
G75*
D01*
G02X13749Y13627I-130J0*
G01*
X13749Y13627D01*
X12371Y13627D01*
G75*
D01*
G02X12240Y13757I-1J130*
G01*
X12240Y13757D01*
X12240Y13813D01*
X12169Y13813D01*
X12028Y13672D01*
G74*
D01*
G02X11900Y13619I128J128*
G01*
X11900Y13619D01*
X8800Y13619D01*
G75*
D01*
G02X8672Y13672I0J181*
G01*
X8672Y13672D01*
X8275Y14069D01*
X7139Y14069D01*
G74*
D01*
G02X7024Y14001I115J63*
G01*
X7024Y14001D01*
X6237Y14001D01*
G75*
D01*
G02X6122Y14069I0J131*
G01*
X6122Y14069D01*
X5825Y14069D01*
X4581Y12825D01*
X4581Y7966D01*
X4675Y7966D01*
G74*
D01*
G02X4933Y7708I0J258*
G01*
X4933Y7708D01*
X4933Y7458D01*
G75*
D01*
G02X4862Y7281I-258J1*
G01*
X4862Y7281D01*
X5138Y7281D01*
G75*
D01*
G02X5067Y7458I186J177*
G01*
X5067Y7458D01*
X5067Y7708D01*
G75*
D01*
G02X5325Y7966I258J0*
G01*
X5325Y7966D01*
X5419Y7966D01*
X5419Y8125D01*
X4872Y8672D01*
G75*
D01*
G02X4819Y8800I128J128*
G01*
X4819Y8800D01*
X4819Y12700D01*
G75*
D01*
G02X4872Y12828I181J0*
G01*
X4872Y12828D01*
X5922Y13878D01*
G75*
D01*
G02X6050Y13931I128J-128*
G01*
X6050Y13931D01*
X6122Y13931D01*
G75*
D01*
G02X6237Y13999I115J-63*
G01*
X6237Y13999D01*
X7024Y13999D01*
G74*
D01*
G02X7139Y13931I0J131*
G01*
X7139Y13931D01*
X8250Y13931D01*
G75*
D01*
G02X8298Y13924I-2J-181*
G01*
G74*
D01*
G02X8378Y13878I47J174*
G01*
X8378Y13878D01*
X8869Y13387D01*
X12240Y13387D01*
X12240Y13443D01*
G75*
D01*
G02X12371Y13573I131J-1*
G01*
X12371Y13573D01*
X13749Y13573D01*
G74*
D01*
G02X13879Y13443I0J130*
G01*
X13879Y13443D01*
X13879Y12970D01*
G75*
D01*
G02X13749Y12839I-130J-1*
G01*
X13749Y12839D01*
X12371Y12839D01*
G75*
D01*
G02X12240Y12970I0J131*
G01*
X12240Y12970D01*
X12240Y13025D01*
X8794Y13025D01*
G75*
D01*
G02X8750Y13031I2J181*
G01*
G74*
D01*
G02X8666Y13078I43J175*
G01*
X8666Y13078D01*
X8175Y13569D01*
X7139Y13569D01*
G74*
D01*
G02X7024Y13501I115J63*
G01*
X7024Y13501D01*
X6237Y13501D01*
G75*
D01*
G02X6123Y13568I0J131*
G01*
X6123Y13568D01*
X5181Y12625D01*
X5181Y8875D01*
X5728Y8328D01*
G74*
D01*
G02X5781Y8200I128J128*
G01*
X5781Y8200D01*
X5781Y7966D01*
X5875Y7966D01*
G74*
D01*
G02X6133Y7708I0J258*
G01*
X6133Y7708D01*
X6133Y7458D01*
G75*
D01*
G02X6062Y7281I-258J1*
G01*
X6062Y7281D01*
X6338Y7281D01*
G75*
D01*
G02X6267Y7458I186J177*
G01*
X6267Y7458D01*
X6267Y7708D01*
G75*
D01*
G02X6525Y7966I258J0*
G01*
X6525Y7966D01*
X6578Y7966D01*
X5472Y9072D01*
G75*
D01*
G02X5419Y9200I128J128*
G01*
X5419Y9200D01*
X5419Y12300D01*
G75*
D01*
G02X5472Y12428I181J0*
G01*
X5472Y12428D01*
X5922Y12878D01*
G75*
D01*
G02X6050Y12931I128J-128*
G01*
X6050Y12931D01*
X6122Y12931D01*
G75*
D01*
G02X6237Y12999I115J-63*
G01*
X6237Y12999D01*
X7024Y12999D01*
G74*
D01*
G02X7139Y12931I0J131*
G01*
X7139Y12931D01*
X8450Y12931D01*
G74*
D01*
G02X8578Y12878I0J181*
G01*
X8578Y12878D01*
X8856Y12600D01*
X12240Y12600D01*
X12240Y12655D01*
G75*
D01*
G02X12371Y12786I131J0*
G01*
X12371Y12786D01*
X13749Y12786D01*
G74*
D01*
G02X13879Y12655I1J131*
G01*
X13879Y12655D01*
X13879Y12183D01*
G75*
D01*
G02X13749Y12052I-130J-1*
G01*
X13749Y12052D01*
X12371Y12052D01*
G75*
D01*
G02X12240Y12183I0J131*
G01*
X12240Y12183D01*
X12240Y12238D01*
X8781Y12238D01*
G75*
D01*
G02X8653Y12291I0J181*
G01*
X8653Y12291D01*
X8375Y12569D01*
X7139Y12569D01*
G74*
D01*
G02X7024Y12501I115J63*
G01*
X7024Y12501D01*
X6237Y12501D01*
G75*
D01*
G02X6123Y12568I0J131*
G01*
X6123Y12568D01*
X5781Y12225D01*
X5781Y9275D01*
X6928Y8128D01*
G74*
D01*
G02X6981Y8000I128J128*
G01*
X6981Y8000D01*
X6981Y7966D01*
X7075Y7966D01*
G74*
D01*
G02X7333Y7708I0J258*
G01*
X7333Y7708D01*
X7333Y7458D01*
G75*
D01*
G02X7075Y7200I-258J0*
G01*
X7075Y7200D01*
X6655Y7200D01*
X6928Y6928D01*
G74*
D01*
G02X6981Y6800I128J128*
G01*
X6981Y6800D01*
X6981Y6800D01*
X7075Y6800D01*
G74*
D01*
G02X7333Y6542I0J258*
G01*
X7333Y6542D01*
X7333Y6292D01*
G75*
D01*
G02X7075Y6034I-258J0*
G01*
X7075Y6034D01*
X7022Y6034D01*
X7075Y5981D01*
X7600Y5981D01*
G75*
D01*
G02X7668Y5968I1J-181*
G01*
G74*
D01*
G02X7728Y5928I68J168*
G01*
X7728Y5928D01*
X8719Y4937D01*
X8719Y9800D01*
G75*
D01*
G02X8772Y9928I181J0*
G01*
X8772Y9928D01*
X9298Y10454D01*
X10099Y11255D01*
G74*
D01*
G02X9806Y11429I36J394*
G01*
X9806Y11429D01*
X8850Y11429D01*
G75*
D01*
G02X8778Y11441I0J221*
G01*
G74*
D01*
G02X8694Y11494I73J209*
G01*
X8694Y11494D01*
X8158Y12029D01*
X7105Y12029D01*
G74*
D01*
G02X7024Y12001I81J103*
G01*
X7024Y12001D01*
X6237Y12001D01*
G75*
D01*
G02X6106Y12132I0J131*
G01*
X6106Y12132D01*
X6106Y12368D01*
G75*
D01*
G02X6237Y12499I131J0*
G01*
X6237Y12499D01*
X7024Y12499D01*
G74*
D01*
G02X7105Y12471I0J131*
G01*
X7105Y12471D01*
X8250Y12471D01*
G75*
D01*
G02X8285Y12468I-1J-221*
G01*
G74*
D01*
G02X8407Y12406I34J217*
G01*
X8407Y12406D01*
X8942Y11871D01*
X9806Y11871D01*
G75*
D01*
G02X10531Y11686I330J-218*
G01*
X10531Y11686D01*
X10604Y11759D01*
G74*
D01*
G02X10672Y11802I128J127*
G01*
G75*
D01*
G02X10731Y11812I59J-170*
G01*
X10731Y11812D01*
X12240Y11812D01*
X12240Y11868D01*
G75*
D01*
G02X12371Y11998I131J-1*
G01*
X12371Y11998D01*
X13749Y11998D01*
G74*
D01*
G02X13879Y11868I0J130*
G01*
X13879Y11868D01*
X13879Y11395D01*
G75*
D01*
G02X13749Y11265I-130J0*
G01*
X13749Y11265D01*
X12371Y11265D01*
G75*
D01*
G02X12240Y11395I-1J130*
G01*
X12240Y11395D01*
X12240Y11451D01*
X10806Y11451D01*
X9689Y10333D01*
G75*
D01*
G02X9692Y10333I2J-258*
G01*
X9692Y10333D01*
X9942Y10333D01*
G74*
D01*
G02X10200Y10075I0J258*
G01*
X10200Y10075D01*
X10200Y9525D01*
G75*
D01*
G02X9998Y9273I-258J0*
G01*
X9998Y9273D01*
X9998Y8942D01*
X10417Y8522D01*
G75*
D01*
G02X10906Y8034I118J-371*
G01*
X10906Y8034D01*
X11466Y7473D01*
G74*
D01*
G02X11494Y7438I125J129*
G01*
G74*
D01*
G02X11526Y7481I159J85*
G01*
X11526Y7481D01*
X12078Y8034D01*
G75*
D01*
G02X12566Y8522I371J117*
G01*
X12566Y8522D01*
X13002Y8958D01*
X13002Y9273D01*
G75*
D01*
G02X12800Y9525I56J252*
G01*
X12800Y9525D01*
X12800Y10075D01*
G75*
D01*
G02X13058Y10333I258J0*
G01*
X13058Y10333D01*
X13308Y10333D01*
G74*
D01*
G02X13566Y10075I0J258*
G01*
X13566Y10075D01*
X13566Y9525D01*
G75*
D01*
G02X13364Y9273I-258J0*
G01*
X13364Y9273D01*
X13364Y8883D01*
G75*
D01*
G02X13311Y8755I-181J0*
G01*
X13311Y8755D01*
X12822Y8266D01*
G75*
D01*
G02X12758Y7911I-371J-116*
G01*
X12758Y7911D01*
X14100Y7911D01*
G75*
D01*
G02X14157Y7903I-1J-211*
G01*
G74*
D01*
G02X14249Y7849I57J202*
G01*
X14249Y7849D01*
X14688Y7410D01*
G75*
D01*
G02X14925Y7566I237J-102*
G01*
X14925Y7566D01*
X14989Y7566D01*
X14989Y7850D01*
G75*
D01*
G02X15411Y7850I211J250*
G01*
X15411Y7850D01*
X15411Y7566D01*
X15475Y7566D01*
G74*
D01*
G02X15718Y7394I0J258*
G01*
X15718Y7394D01*
X16125Y7394D01*
X16798Y8067D01*
X16692Y8067D01*
G75*
D01*
G02X16610Y8080I-1J258*
G01*
X16610Y8080D01*
X16817Y8367D01*
X16934Y8203D01*
X17129Y8398D01*
X16984Y8600D01*
X17198Y8899D01*
G74*
D01*
G02X17200Y8875I255J33*
G01*
X17200Y8875D01*
X17200Y8469D01*
X17480Y8749D01*
G74*
D01*
G02X17573Y8803I148J149*
G01*
G74*
D01*
G02X17600Y8809I59J202*
G01*
X17600Y8809D01*
X17600Y8875D01*
G74*
D01*
G02X17633Y9000I258J1*
G01*
G74*
D01*
G02X17551Y9051I67J199*
G01*
X17551Y9051D01*
X17251Y9351D01*
G75*
D01*
G02X17189Y9500I148J149*
G01*
X17189Y9500D01*
X17189Y9514D01*
X16984Y9800D01*
X17189Y10086D01*
X17189Y12213D01*
X16727Y12674D01*
G75*
D01*
G02X17026Y12973I-27J326*
G01*
X17026Y12973D01*
X17549Y12449D01*
G74*
D01*
G02X17611Y12300I148J149*
G01*
X17611Y12300D01*
X17611Y10148D01*
G75*
D01*
G02X17858Y10333I247J-72*
G01*
X17858Y10333D01*
X18108Y10333D01*
G74*
D01*
G02X18366Y10081I0J258*
G01*
X18366Y10081D01*
X18383Y10081D01*
X18469Y10167D01*
G74*
D01*
G02X18605Y10243I200J198*
G01*
G75*
D01*
G02X18668Y10250I62J-275*
G01*
X18668Y10250D01*
X18909Y10250D01*
G75*
D01*
G02X19860Y10149I451J-280*
G01*
G74*
D01*
G02X20206Y10477I499J180*
G01*
X20206Y10477D01*
X19851Y10477D01*
G75*
D01*
G02X19721Y10608I1J131*
G01*
X19721Y10608D01*
X19721Y11080D01*
G75*
D01*
G02X19851Y11211I130J1*
G01*
X19851Y11211D01*
X21229Y11211D01*
G74*
D01*
G02X21319Y11175I0J131*
G01*
X21319Y11175D01*
X21319Y11301D01*
G74*
D01*
G02X21229Y11265I90J94*
G01*
X21229Y11265D01*
X19851Y11265D01*
G75*
D01*
G02X19721Y11395I0J130*
G01*
X19721Y11395D01*
X19721Y11868D01*
G75*
D01*
G02X19851Y11998I130J0*
G01*
X19851Y11998D01*
X21229Y11998D01*
G74*
D01*
G02X21319Y11962I0J130*
G01*
X21319Y11962D01*
X21319Y12088D01*
G74*
D01*
G02X21229Y12052I90J94*
G01*
X21229Y12052D01*
X19851Y12052D01*
G75*
D01*
G02X19721Y12183I1J131*
G01*
X19721Y12183D01*
X19721Y12655D01*
G75*
D01*
G02X19851Y12786I130J1*
G01*
X19851Y12786D01*
X21229Y12786D01*
G74*
D01*
G02X21319Y12750I0J131*
G01*
X21319Y12750D01*
X21319Y12875D01*
G74*
D01*
G02X21229Y12839I90J94*
G01*
X21229Y12839D01*
X19851Y12839D01*
G75*
D01*
G02X19721Y12970I1J131*
G01*
X19721Y12970D01*
X19721Y13443D01*
G75*
D01*
G02X19851Y13573I130J0*
G01*
X19851Y13573D01*
X21229Y13573D01*
G74*
D01*
G02X21319Y13537I0J130*
G01*
X21319Y13537D01*
X21319Y13663D01*
G74*
D01*
G02X21229Y13627I90J94*
G01*
X21229Y13627D01*
X19851Y13627D01*
G75*
D01*
G02X19721Y13757I0J130*
G01*
X19721Y13757D01*
X19721Y14230D01*
G75*
D01*
G02X19851Y14361I130J1*
G01*
X19851Y14361D01*
X21229Y14361D01*
G74*
D01*
G02X21319Y14325I0J131*
G01*
X21319Y14325D01*
X21319Y14450D01*
G74*
D01*
G02X21229Y14414I90J94*
G01*
X21229Y14414D01*
X19851Y14414D01*
G75*
D01*
G02X19721Y14545I1J131*
G01*
X19721Y14545D01*
X19721Y15017D01*
G75*
D01*
G02X19851Y15148I130J1*
G01*
X19851Y15148D01*
X21229Y15148D01*
G74*
D01*
G02X21360Y15017I0J131*
G01*
X21360Y15017D01*
X21360Y15014D01*
G74*
D01*
G02X21372Y15028I142J110*
G01*
X21372Y15028D01*
X21467Y15123D01*
X21467Y15342D01*
G75*
D01*
G02X21725Y15600I258J0*
G01*
X21725Y15600D01*
X22275Y15600D01*
G74*
D01*
G02X22533Y15342I0J258*
G01*
X22533Y15342D01*
X22533Y15092D01*
G75*
D01*
G02X22275Y14834I-258J0*
G01*
X22275Y14834D01*
X21725Y14834D01*
G75*
D01*
G02X21692Y14836I-1J258*
G01*
X21692Y14836D01*
X21681Y14825D01*
X21681Y14643D01*
G75*
D01*
G02X22183Y14564I219J-243*
G01*
X22183Y14564D01*
X22273Y14564D01*
G75*
D01*
G02X22525Y14766I252J-56*
G01*
X22525Y14766D01*
X23075Y14766D01*
G74*
D01*
G02X23327Y14564I0J258*
G01*
X23327Y14564D01*
X23727Y14564D01*
G75*
D01*
G02X23654Y14202I372J-263*
G01*
X23654Y14202D01*
X23327Y14202D01*
G74*
D01*
G02X23075Y14000I252J56*
G01*
X23075Y14000D01*
X22525Y14000D01*
G75*
D01*
G02X22273Y14202I0J258*
G01*
X22273Y14202D01*
X22160Y14202D01*
G75*
D01*
G02X21681Y14157I-260J197*
G01*
X21681Y14157D01*
X21681Y11000D01*
G75*
D01*
G02X21628Y10872I-181J0*
G01*
X21628Y10872D01*
X21472Y10716D01*
G74*
D01*
G02X21402Y10673I127J129*
G01*
G74*
D01*
G02X21360Y10664I58J170*
G01*
X21360Y10664D01*
X21360Y10608D01*
G75*
D01*
G02X21297Y10496I-131J0*
G01*
G75*
D01*
G02X21578Y10453I63J-527*
G01*
X21578Y10453D01*
X21360Y10235D01*
X21142Y10453D01*
G74*
D01*
G02X21206Y10477I218J484*
G01*
X21206Y10477D01*
X20514Y10477D01*
G74*
D01*
G02X20860Y10149I153J508*
G01*
G74*
D01*
G02X20875Y10187I501J176*
G01*
X20875Y10187D01*
X21093Y9968D01*
X20875Y9750D01*
G74*
D01*
G02X20860Y9787I484J218*
G01*
G74*
D01*
G02X20641Y9517I499J181*
G01*
X20641Y9517D01*
X20641Y9360D01*
G75*
D01*
G02X20559Y9161I-281J-1*
G01*
X20559Y9161D01*
X19809Y8411D01*
X20713Y8411D01*
X21600Y9298D01*
X21600Y9298D01*
X21789Y9487D01*
X21789Y9806D01*
X21627Y9968D01*
X21789Y10131D01*
X21789Y11183D01*
G75*
D01*
G02X21851Y11333I211J1*
G01*
X21851Y11333D01*
X22284Y11766D01*
G75*
D01*
G02X22267Y11858I240J92*
G01*
X22267Y11858D01*
X22267Y12108D01*
G75*
D01*
G02X22525Y12366I258J0*
G01*
X22525Y12366D01*
X22589Y12366D01*
X22589Y12834D01*
X22525Y12834D01*
G75*
D01*
G02X22267Y13092I0J258*
G01*
X22267Y13092D01*
X22267Y13342D01*
G75*
D01*
G02X22525Y13600I258J0*
G01*
X22525Y13600D01*
X23075Y13600D01*
G74*
D01*
G02X23333Y13342I0J258*
G01*
X23333Y13342D01*
X23333Y13092D01*
G75*
D01*
G02X23075Y12834I-258J0*
G01*
X23075Y12834D01*
X23011Y12834D01*
X23011Y12366D01*
X23075Y12366D01*
G74*
D01*
G02X23333Y12108I0J258*
G01*
X23333Y12108D01*
X23333Y11889D01*
X23653Y12208D01*
G75*
D01*
G02X23864Y11909I447J91*
G01*
X23864Y11909D01*
X23146Y11190D01*
G74*
D01*
G02X23333Y10942I70J247*
G01*
X23333Y10942D01*
X23333Y10692D01*
G75*
D01*
G02X23075Y10434I-258J0*
G01*
X23075Y10434D01*
X23028Y10434D01*
G75*
D01*
G02X22572Y10434I-228J-233*
G01*
X22572Y10434D01*
X22525Y10434D01*
G75*
D01*
G02X22267Y10692I0J258*
G01*
X22267Y10692D01*
X22267Y10942D01*
G75*
D01*
G02X22525Y11200I258J0*
G01*
X22525Y11200D01*
X22649Y11200D01*
G74*
D01*
G02X22672Y11228I151J100*
G01*
X22672Y11228D01*
X23045Y11600D01*
X22716Y11600D01*
X22211Y11096D01*
X22211Y9400D01*
G75*
D01*
G02X22149Y9251I-211J0*
G01*
X22149Y9251D01*
X20949Y8051D01*
G74*
D01*
G02X20800Y7989I149J148*
G01*
D02*
G37*
%LPC*%
G36*
X23721Y9400D02*
G75*
D01*
G02X23675Y9508I104J108*
G01*
X23675Y9508D01*
X23675Y9775D01*
X24014Y9775D01*
X24014Y9442D01*
X24021Y9442D01*
X24021Y9116D01*
X23675Y9116D01*
X23675Y9291D01*
G74*
D01*
G02X23721Y9400I151J0*
G01*
D02*
G37*
G36*
X24725Y9508D02*
G75*
D01*
G02X24679Y9400I-151J1*
G01*
G74*
D01*
G02X24725Y9291I105J109*
G01*
X24725Y9291D01*
X24725Y9116D01*
X24379Y9116D01*
X24379Y9442D01*
X24386Y9442D01*
X24386Y9775D01*
X24725Y9775D01*
X24725Y9508D01*
D02*
G37*
G36*
X11190Y9280D02*
G74*
D01*
G02X11108Y9267I81J245*
G01*
X11108Y9267D01*
X10858Y9267D01*
G75*
D01*
G02X10777Y9280I0J258*
G01*
X10777Y9280D01*
X10790Y9298D01*
X10790Y9298D01*
X10983Y9567D01*
X11177Y9298D01*
X11177Y9298D01*
X11190Y9280D01*
D02*
G37*
G36*
X12223Y9280D02*
G74*
D01*
G02X12142Y9267I81J245*
G01*
X12142Y9267D01*
X11892Y9267D01*
G75*
D01*
G02X11810Y9280I-1J258*
G01*
X11810Y9280D01*
X11823Y9298D01*
X11823Y9298D01*
X12017Y9567D01*
X12210Y9298D01*
X12210Y9298D01*
X12223Y9280D01*
D02*
G37*
G36*
X17023Y9280D02*
G74*
D01*
G02X16942Y9267I81J245*
G01*
X16942Y9267D01*
X16692Y9267D01*
G75*
D01*
G02X16610Y9280I-1J258*
G01*
X16610Y9280D01*
X16623Y9298D01*
X16623Y9298D01*
X16817Y9567D01*
X17010Y9298D01*
X17010Y9298D01*
X17023Y9280D01*
D02*
G37*
G36*
X9483Y14734D02*
X9483Y14734D01*
X9483Y14984D01*
G74*
D01*
G02X9784Y14683I183J484*
G01*
X9784Y14683D01*
X9534Y14683D01*
G75*
D01*
G02X9534Y14317I-234J-183*
G01*
X9534Y14317D01*
X9784Y14317D01*
G74*
D01*
G02X9483Y14016I484J183*
G01*
X9483Y14016D01*
X9483Y14266D01*
G75*
D01*
G02X9117Y14266I-183J234*
G01*
X9117Y14266D01*
X9117Y14016D01*
G74*
D01*
G02X8816Y14317I183J484*
G01*
X8816Y14317D01*
X9066Y14317D01*
G75*
D01*
G02X9066Y14683I234J183*
G01*
X9066Y14683D01*
X8816Y14683D01*
G74*
D01*
G02X9117Y14984I484J183*
G01*
X9117Y14984D01*
X9117Y14734D01*
G75*
D01*
G02X9483Y14734I183J-234*
G01*
D02*
G37*
G36*
X17023Y9120D02*
X17023Y9120D01*
X16817Y8833D01*
X16610Y9120D01*
G75*
D01*
G02X16692Y9133I81J-245*
G01*
X16692Y9133D01*
X16942Y9133D01*
G74*
D01*
G02X17023Y9120I0J258*
G01*
D02*
G37*
G36*
X16435Y8899D02*
X16435Y8899D01*
X16649Y8600D01*
X16435Y8301D01*
G75*
D01*
G02X16434Y8325I257J23*
G01*
X16434Y8325D01*
X16434Y8875D01*
G74*
D01*
G02X16435Y8899I258J1*
G01*
D02*
G37*
G36*
X7155Y11868D02*
X7155Y11868D01*
X7155Y11838D01*
X6719Y11838D01*
X6719Y11999D01*
X7024Y11999D01*
G74*
D01*
G02X7155Y11868I0J131*
G01*
D02*
G37*
G36*
X6237Y11999D02*
X6237Y11999D01*
X6543Y11999D01*
X6543Y11838D01*
X6106Y11838D01*
X6106Y11868D01*
G75*
D01*
G02X6237Y11999I131J0*
G01*
D02*
G37*
G36*
X7155Y11368D02*
X7155Y11368D01*
X7155Y11338D01*
X6719Y11338D01*
X6719Y11499D01*
X7024Y11499D01*
G74*
D01*
G02X7155Y11368I0J131*
G01*
D02*
G37*
G36*
X7155Y11632D02*
G75*
D01*
G02X7024Y11501I-131J0*
G01*
X7024Y11501D01*
X6719Y11501D01*
X6719Y11662D01*
X7155Y11662D01*
X7155Y11632D01*
D02*
G37*
G36*
X6237Y11499D02*
X6237Y11499D01*
X6543Y11499D01*
X6543Y11338D01*
X6106Y11338D01*
X6106Y11368D01*
G75*
D01*
G02X6237Y11499I131J0*
G01*
D02*
G37*
G36*
X6106Y11632D02*
X6106Y11632D01*
X6106Y11662D01*
X6543Y11662D01*
X6543Y11501D01*
X6237Y11501D01*
G75*
D01*
G02X6106Y11632I0J131*
G01*
D02*
G37*
G36*
X7155Y10368D02*
X7155Y10368D01*
X7155Y10338D01*
X6719Y10338D01*
X6719Y10499D01*
X7024Y10499D01*
G74*
D01*
G02X7155Y10368I0J131*
G01*
D02*
G37*
G36*
X7155Y10868D02*
X7155Y10868D01*
X7155Y10838D01*
X6719Y10838D01*
X6719Y10999D01*
X7024Y10999D01*
G74*
D01*
G02X7155Y10868I0J131*
G01*
D02*
G37*
G36*
X7155Y10632D02*
G75*
D01*
G02X7024Y10501I-131J0*
G01*
X7024Y10501D01*
X6719Y10501D01*
X6719Y10662D01*
X7155Y10662D01*
X7155Y10632D01*
D02*
G37*
G36*
X7155Y11132D02*
G75*
D01*
G02X7024Y11001I-131J0*
G01*
X7024Y11001D01*
X6719Y11001D01*
X6719Y11162D01*
X7155Y11162D01*
X7155Y11132D01*
D02*
G37*
G36*
X6237Y10499D02*
X6237Y10499D01*
X6543Y10499D01*
X6543Y10338D01*
X6106Y10338D01*
X6106Y10368D01*
G75*
D01*
G02X6237Y10499I131J0*
G01*
D02*
G37*
G36*
X6106Y10632D02*
X6106Y10632D01*
X6106Y10662D01*
X6543Y10662D01*
X6543Y10501D01*
X6237Y10501D01*
G75*
D01*
G02X6106Y10632I0J131*
G01*
D02*
G37*
G36*
X6237Y10999D02*
X6237Y10999D01*
X6543Y10999D01*
X6543Y10838D01*
X6106Y10838D01*
X6106Y10868D01*
G75*
D01*
G02X6237Y10999I131J0*
G01*
D02*
G37*
G36*
X6106Y11132D02*
X6106Y11132D01*
X6106Y11162D01*
X6543Y11162D01*
X6543Y11001D01*
X6237Y11001D01*
G75*
D01*
G02X6106Y11132I0J131*
G01*
D02*
G37*
G36*
X7155Y9868D02*
X7155Y9868D01*
X7155Y9838D01*
X6719Y9838D01*
X6719Y9999D01*
X7024Y9999D01*
G74*
D01*
G02X7155Y9868I0J131*
G01*
D02*
G37*
G36*
X7155Y9632D02*
G75*
D01*
G02X7024Y9501I-131J0*
G01*
X7024Y9501D01*
X6719Y9501D01*
X6719Y9662D01*
X7155Y9662D01*
X7155Y9632D01*
D02*
G37*
G36*
X7155Y10132D02*
G75*
D01*
G02X7024Y10001I-131J0*
G01*
X7024Y10001D01*
X6719Y10001D01*
X6719Y10162D01*
X7155Y10162D01*
X7155Y10132D01*
D02*
G37*
G36*
X6106Y9632D02*
X6106Y9632D01*
X6106Y9662D01*
X6543Y9662D01*
X6543Y9501D01*
X6237Y9501D01*
G75*
D01*
G02X6106Y9632I0J131*
G01*
D02*
G37*
G36*
X6237Y9999D02*
X6237Y9999D01*
X6543Y9999D01*
X6543Y9838D01*
X6106Y9838D01*
X6106Y9868D01*
G75*
D01*
G02X6237Y9999I131J0*
G01*
D02*
G37*
G36*
X6106Y10132D02*
X6106Y10132D01*
X6106Y10162D01*
X6543Y10162D01*
X6543Y10001D01*
X6237Y10001D01*
G75*
D01*
G02X6106Y10132I0J131*
G01*
D02*
G37*
G36*
X7155Y13132D02*
G75*
D01*
G02X7024Y13001I-131J0*
G01*
X7024Y13001D01*
X6237Y13001D01*
G75*
D01*
G02X6106Y13132I0J131*
G01*
X6106Y13132D01*
X6106Y13368D01*
G75*
D01*
G02X6237Y13499I131J0*
G01*
X6237Y13499D01*
X7024Y13499D01*
G74*
D01*
G02X7155Y13368I0J131*
G01*
X7155Y13368D01*
X7155Y13132D01*
D02*
G37*
G36*
X736Y15787D02*
G75*
D01*
G02X736Y15787I642J0*
G01*
D02*
G37*
G36*
X2445Y13632D02*
X2445Y13632D01*
X2445Y13662D01*
X2881Y13662D01*
X2881Y13501D01*
X2576Y13501D01*
G75*
D01*
G02X2445Y13632I0J131*
G01*
D02*
G37*
G36*
X2445Y13868D02*
G75*
D01*
G02X2576Y13999I131J0*
G01*
X2576Y13999D01*
X2881Y13999D01*
X2881Y13838D01*
X2445Y13838D01*
X2445Y13868D01*
D02*
G37*
G36*
X3363Y13501D02*
X3363Y13501D01*
X3057Y13501D01*
X3057Y13662D01*
X3494Y13662D01*
X3494Y13632D01*
G75*
D01*
G02X3363Y13501I-131J0*
G01*
D02*
G37*
G36*
X3494Y13868D02*
X3494Y13868D01*
X3494Y13838D01*
X3057Y13838D01*
X3057Y13999D01*
X3363Y13999D01*
G74*
D01*
G02X3494Y13868I0J131*
G01*
D02*
G37*
G36*
X3478Y14431D02*
X3478Y14431D01*
X3569Y14431D01*
G75*
D01*
G02X3500Y14069I230J-231*
G01*
X3500Y14069D01*
X3478Y14069D01*
G74*
D01*
G02X3363Y14001I115J63*
G01*
X3363Y14001D01*
X2576Y14001D01*
G75*
D01*
G02X2445Y14132I0J131*
G01*
X2445Y14132D01*
X2445Y14368D01*
G75*
D01*
G02X2576Y14499I131J0*
G01*
X2576Y14499D01*
X3363Y14499D01*
G74*
D01*
G02X3478Y14431I0J131*
G01*
D02*
G37*
G36*
X2445Y13368D02*
G75*
D01*
G02X2576Y13499I131J0*
G01*
X2576Y13499D01*
X3363Y13499D01*
G74*
D01*
G02X3494Y13368I0J131*
G01*
X3494Y13368D01*
X3494Y13132D01*
G75*
D01*
G02X3363Y13001I-131J0*
G01*
X3363Y13001D01*
X2576Y13001D01*
G75*
D01*
G02X2445Y13132I0J131*
G01*
X2445Y13132D01*
X2445Y13368D01*
D02*
G37*
G36*
X2320Y13777D02*
X2320Y13777D01*
X2033Y13983D01*
X2320Y14190D01*
G74*
D01*
G02X2333Y14108I245J81*
G01*
X2333Y14108D01*
X2333Y13858D01*
G75*
D01*
G02X2320Y13777I-258J0*
G01*
D02*
G37*
G36*
X1280Y13777D02*
G75*
D01*
G02X1267Y13858I245J81*
G01*
X1267Y13858D01*
X1267Y14108D01*
G74*
D01*
G02X1280Y14190I258J1*
G01*
X1280Y14190D01*
X1567Y13983D01*
X1280Y13777D01*
D02*
G37*
G36*
X2099Y14365D02*
X2099Y14365D01*
X1800Y14151D01*
X1501Y14365D01*
G75*
D01*
G02X1525Y14366I23J-257*
G01*
X1525Y14366D01*
X2075Y14366D01*
G74*
D01*
G02X2099Y14365I1J258*
G01*
D02*
G37*
G36*
X22299Y16765D02*
X22299Y16765D01*
X22000Y16551D01*
X21701Y16765D01*
G75*
D01*
G02X21725Y16766I23J-257*
G01*
X21725Y16766D01*
X22275Y16766D01*
G74*
D01*
G02X22299Y16765I1J258*
G01*
D02*
G37*
G36*
X22520Y16177D02*
X22520Y16177D01*
X22233Y16383D01*
X22520Y16590D01*
G74*
D01*
G02X22533Y16508I245J81*
G01*
X22533Y16508D01*
X22533Y16258D01*
G75*
D01*
G02X22520Y16177I-258J0*
G01*
D02*
G37*
G36*
X21701Y16002D02*
X21701Y16002D01*
X22000Y16216D01*
X22299Y16002D01*
G74*
D01*
G02X22275Y16000I33J255*
G01*
X22275Y16000D01*
X21725Y16000D01*
G75*
D01*
G02X21701Y16002I9J258*
G01*
D02*
G37*
G36*
X21480Y16177D02*
G75*
D01*
G02X21467Y16258I245J81*
G01*
X21467Y16258D01*
X21467Y16508D01*
G74*
D01*
G02X21480Y16590I258J1*
G01*
X21480Y16590D01*
X21767Y16383D01*
X21480Y16177D01*
D02*
G37*
G36*
X19588Y16145D02*
G75*
D01*
G02X19489Y16567I-288J155*
G01*
X19489Y16567D01*
X19721Y16567D01*
X19721Y16592D01*
G75*
D01*
G02X19851Y16723I130J1*
G01*
X19851Y16723D01*
X21229Y16723D01*
G74*
D01*
G02X21360Y16592I0J131*
G01*
X21360Y16592D01*
X21360Y16120D01*
G75*
D01*
G02X21229Y15989I-131J0*
G01*
X21229Y15989D01*
X19851Y15989D01*
G75*
D01*
G02X19721Y16120I1J131*
G01*
X19721Y16120D01*
X19721Y16145D01*
X19588Y16145D01*
D02*
G37*
G36*
X22862Y15787D02*
G75*
D01*
G02X22862Y15787I642J0*
G01*
D02*
G37*
G36*
X23673Y13462D02*
G74*
D01*
G02X23938Y13727I426J161*
G01*
X23938Y13727D01*
X23938Y13462D01*
X23673Y13462D01*
D02*
G37*
G36*
X24262Y13727D02*
G74*
D01*
G02X24527Y13462I161J426*
G01*
X24527Y13462D01*
X24262Y13462D01*
X24262Y13727D01*
D02*
G37*
G36*
X23938Y12873D02*
G74*
D01*
G02X23673Y13138I161J426*
G01*
X23673Y13138D01*
X23938Y13138D01*
X23938Y12873D01*
D02*
G37*
G36*
X24527Y13138D02*
G74*
D01*
G02X24262Y12873I426J161*
G01*
X24262Y12873D01*
X24262Y13138D01*
X24527Y13138D01*
D02*
G37*
G36*
X23925Y13300D02*
G75*
D01*
G02X23925Y13300I175J0*
G01*
D02*
G37*
G36*
X23826Y10564D02*
X23826Y10564D01*
X24014Y10564D01*
X24014Y10147D01*
X23675Y10147D01*
X23675Y10413D01*
G75*
D01*
G02X23826Y10564I151J0*
G01*
D02*
G37*
G36*
X24725Y10413D02*
X24725Y10413D01*
X24725Y10147D01*
X24386Y10147D01*
X24386Y10564D01*
X24574Y10564D01*
G74*
D01*
G02X24725Y10413I0J151*
G01*
D02*
G37*
G36*
X21127Y9968D02*
G75*
D01*
G02X21127Y9968I233J0*
G01*
D02*
G37*
G36*
X23662Y11143D02*
X23662Y11143D01*
X23943Y11143D01*
X23943Y10862D01*
G74*
D01*
G02X23662Y11143I53J334*
G01*
D02*
G37*
G36*
X23904Y11300D02*
G75*
D01*
G02X23904Y11300I196J0*
G01*
D02*
G37*
G36*
X23943Y11738D02*
X23943Y11738D01*
X23943Y11457D01*
X23662Y11457D01*
G74*
D01*
G02X23943Y11738I334J53*
G01*
D02*
G37*
G36*
X24257Y10862D02*
X24257Y10862D01*
X24257Y11143D01*
X24538Y11143D01*
G74*
D01*
G02X24257Y10862I334J53*
G01*
D02*
G37*
G36*
X24538Y11457D02*
X24538Y11457D01*
X24257Y11457D01*
X24257Y11738D01*
G74*
D01*
G02X24538Y11457I53J334*
G01*
D02*
G37*
G36*
X21578Y9483D02*
G75*
D01*
G02X21142Y9483I-218J484*
G01*
X21142Y9483D01*
X21360Y9702D01*
X21578Y9483D01*
D02*
G37*
G36*
X21360Y15332D02*
G75*
D01*
G02X21229Y15202I-131J1*
G01*
X21229Y15202D01*
X19851Y15202D01*
G75*
D01*
G02X19721Y15332I0J130*
G01*
X19721Y15332D01*
X19721Y15805D01*
G75*
D01*
G02X19851Y15935I130J0*
G01*
X19851Y15935D01*
X21229Y15935D01*
G74*
D01*
G02X21360Y15805I1J130*
G01*
X21360Y15805D01*
X21360Y15332D01*
D02*
G37*
G36*
X23484Y9075D02*
X23484Y9075D01*
X23484Y9070D01*
X23152Y9070D01*
X23152Y9205D01*
X23354Y9205D01*
G74*
D01*
G02X23484Y9075I0J130*
G01*
D02*
G37*
G36*
X22802Y9205D02*
X22802Y9205D01*
X23004Y9205D01*
X23004Y9070D01*
X22672Y9070D01*
X22672Y9075D01*
G75*
D01*
G02X22802Y9205I130J0*
G01*
D02*
G37*
G36*
X24725Y8386D02*
X24725Y8386D01*
X24725Y8211D01*
X24379Y8211D01*
X24379Y8758D01*
X24725Y8758D01*
X24725Y8583D01*
G75*
D01*
G02X24688Y8484I-151J0*
G01*
G74*
D01*
G02X24725Y8386I113J99*
G01*
D02*
G37*
G36*
X23675Y8386D02*
G74*
D01*
G02X23712Y8484I151J1*
G01*
G75*
D01*
G02X23675Y8583I113J99*
G01*
X23675Y8583D01*
X23675Y8758D01*
X24021Y8758D01*
X24021Y8211D01*
X23675Y8211D01*
X23675Y8386D01*
D02*
G37*
G36*
X23675Y7461D02*
G74*
D01*
G02X23721Y7569I151J1*
G01*
G75*
D01*
G02X23675Y7677I104J108*
G01*
X23675Y7677D01*
X23675Y7852D01*
X24021Y7852D01*
X24021Y7526D01*
X24014Y7526D01*
X24014Y7194D01*
X23675Y7194D01*
X23675Y7461D01*
D02*
G37*
G36*
X24725Y7461D02*
X24725Y7461D01*
X24725Y7194D01*
X24386Y7194D01*
X24386Y7526D01*
X24379Y7526D01*
X24379Y7852D01*
X24725Y7852D01*
X24725Y7677D01*
G75*
D01*
G02X24679Y7569I-151J1*
G01*
G74*
D01*
G02X24725Y7461I104J108*
G01*
D02*
G37*
G36*
X19541Y2818D02*
G75*
D01*
G02X19541Y2818I819J0*
G01*
D02*
G37*
G36*
X22722Y8922D02*
G75*
D01*
G02X22802Y8950I81J-102*
G01*
X22802Y8950D01*
X23354Y8950D01*
G74*
D01*
G02X23434Y8922I1J131*
G01*
X23434Y8922D01*
X23484Y8922D01*
X23484Y8917D01*
G75*
D01*
G02X23475Y8868I-130J-1*
G01*
G74*
D01*
G02X23484Y8819I121J48*
G01*
X23484Y8819D01*
X23484Y8661D01*
G75*
D01*
G02X23475Y8612I-130J-1*
G01*
G74*
D01*
G02X23484Y8563I121J48*
G01*
X23484Y8563D01*
X23484Y8406D01*
G75*
D01*
G02X23475Y8356I-130J-2*
G01*
G74*
D01*
G02X23484Y8307I121J48*
G01*
X23484Y8307D01*
X23484Y8150D01*
G75*
D01*
G02X23475Y8100I-130J-2*
G01*
G74*
D01*
G02X23484Y8051I121J48*
G01*
X23484Y8051D01*
X23484Y7894D01*
G75*
D01*
G02X23354Y7763I-130J-1*
G01*
X23354Y7763D01*
X23104Y7763D01*
G74*
D01*
G02X23078Y7761I29J208*
G01*
X23078Y7761D01*
X22760Y7761D01*
X22749Y7751D01*
G74*
D01*
G02X22600Y7689I149J148*
G01*
X22600Y7689D01*
X22350Y7689D01*
G75*
D01*
G02X22350Y8111I-250J211*
G01*
X22350Y8111D01*
X22513Y8111D01*
X22523Y8122D01*
G74*
D01*
G02X22672Y8183I148J150*
G01*
X22672Y8183D01*
X22672Y8307D01*
G74*
D01*
G02X22681Y8356I130J1*
G01*
G75*
D01*
G02X22672Y8406I121J48*
G01*
X22672Y8406D01*
X22672Y8563D01*
G74*
D01*
G02X22681Y8612I130J1*
G01*
G75*
D01*
G02X22672Y8661I121J48*
G01*
X22672Y8661D01*
X22672Y8819D01*
G74*
D01*
G02X22681Y8868I130J1*
G01*
G75*
D01*
G02X22672Y8917I121J48*
G01*
X22672Y8917D01*
X22672Y8922D01*
X22722Y8922D01*
D02*
G37*
G36*
X23826Y6404D02*
G75*
D01*
G02X23675Y6555I0J151*
G01*
X23675Y6555D01*
X23675Y6822D01*
X24014Y6822D01*
X24014Y6404D01*
X23826Y6404D01*
D02*
G37*
G36*
X24574Y6404D02*
X24574Y6404D01*
X24386Y6404D01*
X24386Y6822D01*
X24725Y6822D01*
X24725Y6555D01*
G75*
D01*
G02X24574Y6404I-151J0*
G01*
D02*
G37*
G36*
X23533Y4752D02*
X23533Y4752D01*
X23136Y4752D01*
X23136Y5000D01*
X23275Y5000D01*
G74*
D01*
G02X23533Y4752I0J258*
G01*
D02*
G37*
G36*
X22725Y5000D02*
X22725Y5000D01*
X22864Y5000D01*
X22864Y4752D01*
X22467Y4752D01*
G75*
D01*
G02X22725Y5000I258J-10*
G01*
D02*
G37*
G36*
X23643Y4750D02*
G75*
D01*
G02X23643Y4750I457J0*
G01*
D02*
G37*
G36*
X23275Y4234D02*
X23275Y4234D01*
X23136Y4234D01*
X23136Y4481D01*
X23533Y4481D01*
G74*
D01*
G02X23275Y4234I258J11*
G01*
D02*
G37*
G36*
X22467Y4481D02*
X22467Y4481D01*
X22864Y4481D01*
X22864Y4234D01*
X22725Y4234D01*
G75*
D01*
G02X22467Y4481I0J258*
G01*
D02*
G37*
G36*
X23532Y3931D02*
X23532Y3931D01*
X23681Y3931D01*
G75*
D01*
G02X23681Y3569I419J-181*
G01*
X23681Y3569D01*
X23517Y3569D01*
G74*
D01*
G02X23275Y3400I241J88*
G01*
X23275Y3400D01*
X22725Y3400D01*
G75*
D01*
G02X22467Y3658I0J258*
G01*
X22467Y3658D01*
X22467Y3908D01*
G75*
D01*
G02X22725Y4166I258J0*
G01*
X22725Y4166D01*
X23275Y4166D01*
G74*
D01*
G02X23532Y3931I0J258*
G01*
D02*
G37*
G36*
X23533Y2752D02*
X23533Y2752D01*
X23136Y2752D01*
X23136Y3000D01*
X23275Y3000D01*
G74*
D01*
G02X23533Y2752I0J258*
G01*
D02*
G37*
G36*
X22725Y3000D02*
X22725Y3000D01*
X22864Y3000D01*
X22864Y2752D01*
X22467Y2752D01*
G75*
D01*
G02X22725Y3000I258J-10*
G01*
D02*
G37*
G36*
X23996Y2308D02*
G75*
D01*
G02X23658Y2646I0J338*
G01*
X23658Y2646D01*
X23658Y2854D01*
G75*
D01*
G02X23996Y3192I338J0*
G01*
X23996Y3192D01*
X24204Y3192D01*
G74*
D01*
G02X24542Y2854I0J338*
G01*
X24542Y2854D01*
X24542Y2646D01*
G75*
D01*
G02X24204Y2308I-338J0*
G01*
X24204Y2308D01*
X23996Y2308D01*
D02*
G37*
G36*
X23275Y2234D02*
X23275Y2234D01*
X23136Y2234D01*
X23136Y2481D01*
X23533Y2481D01*
G74*
D01*
G02X23275Y2234I258J11*
G01*
D02*
G37*
G36*
X22467Y2481D02*
X22467Y2481D01*
X22864Y2481D01*
X22864Y2234D01*
X22725Y2234D01*
G75*
D01*
G02X22467Y2481I0J258*
G01*
D02*
G37*
G36*
X22301Y2400D02*
G75*
D01*
G02X22242Y2258I-201J0*
G01*
X22242Y2258D01*
X22124Y2140D01*
G75*
D01*
G02X21840Y2424I-324J-40*
G01*
X21840Y2424D01*
X21899Y2483D01*
X21899Y5600D01*
G75*
D01*
G02X21958Y5742I201J0*
G01*
X21958Y5742D01*
X22158Y5942D01*
G75*
D01*
G02X22300Y6001I142J-141*
G01*
X22300Y6001D01*
X22484Y6001D01*
G75*
D01*
G02X22725Y6166I241J-93*
G01*
X22725Y6166D01*
X23275Y6166D01*
G74*
D01*
G02X23527Y5964I0J258*
G01*
X23527Y5964D01*
X23697Y5964D01*
G75*
D01*
G02X23668Y5602I402J-214*
G01*
X23668Y5602D01*
X23527Y5602D01*
G74*
D01*
G02X23275Y5400I252J56*
G01*
X23275Y5400D01*
X22725Y5400D01*
G75*
D01*
G02X22474Y5599I0J258*
G01*
X22474Y5599D01*
X22383Y5599D01*
X22301Y5517D01*
X22301Y2400D01*
D02*
G37*
G36*
X22862Y1181D02*
G75*
D01*
G02X22862Y1181I642J0*
G01*
D02*
G37*
G36*
X22381Y1141D02*
X22381Y1141D01*
X22098Y1141D01*
X22098Y1424D01*
G74*
D01*
G02X22381Y1141I31J314*
G01*
D02*
G37*
G36*
X22098Y544D02*
X22098Y544D01*
X22098Y828D01*
X22381Y828D01*
G74*
D01*
G02X22098Y544I315J30*
G01*
D02*
G37*
G36*
X21784Y1424D02*
X21784Y1424D01*
X21784Y1141D01*
X21501Y1141D01*
G74*
D01*
G02X21784Y1424I314J31*
G01*
D02*
G37*
G36*
X21766Y984D02*
G75*
D01*
G02X21766Y984I175J0*
G01*
D02*
G37*
G36*
X21501Y828D02*
X21501Y828D01*
X21784Y828D01*
X21784Y544D01*
G74*
D01*
G02X21501Y828I32J314*
G01*
D02*
G37*
G36*
X13749Y15989D02*
X13749Y15989D01*
X13190Y15989D01*
X13190Y16226D01*
X13879Y16226D01*
X13879Y16120D01*
G75*
D01*
G02X13749Y15989I-130J-1*
G01*
D02*
G37*
G36*
X13879Y16592D02*
X13879Y16592D01*
X13879Y16486D01*
X13190Y16486D01*
X13190Y16723D01*
X13749Y16723D01*
G74*
D01*
G02X13879Y16592I1J131*
G01*
D02*
G37*
G36*
X12240Y16592D02*
G75*
D01*
G02X12371Y16723I131J0*
G01*
X12371Y16723D01*
X12930Y16723D01*
X12930Y16486D01*
X12240Y16486D01*
X12240Y16592D01*
D02*
G37*
G36*
X12240Y16120D02*
X12240Y16120D01*
X12240Y16226D01*
X12930Y16226D01*
X12930Y15989D01*
X12371Y15989D01*
G75*
D01*
G02X12240Y16120I0J131*
G01*
D02*
G37*
G36*
X12335Y15930D02*
G75*
D01*
G02X12371Y15935I36J-125*
G01*
X12371Y15935D01*
X13749Y15935D01*
G74*
D01*
G02X13879Y15805I0J130*
G01*
X13879Y15805D01*
X13879Y15332D01*
G75*
D01*
G02X13749Y15202I-130J0*
G01*
X13749Y15202D01*
X12371Y15202D01*
G75*
D01*
G02X12335Y15207I0J130*
G01*
X12335Y15207D01*
X10726Y15207D01*
G75*
D01*
G02X10587Y15930I-426J293*
G01*
X10587Y15930D01*
X12335Y15930D01*
D02*
G37*
G36*
X11534Y14683D02*
G75*
D01*
G02X11534Y14317I-234J-183*
G01*
X11534Y14317D01*
X11784Y14317D01*
G74*
D01*
G02X11483Y14016I484J183*
G01*
X11483Y14016D01*
X11483Y14266D01*
G75*
D01*
G02X11117Y14266I-183J234*
G01*
X11117Y14266D01*
X11117Y14016D01*
G74*
D01*
G02X10816Y14317I183J484*
G01*
X10816Y14317D01*
X11066Y14317D01*
G75*
D01*
G02X11066Y14683I234J183*
G01*
X11066Y14683D01*
X10816Y14683D01*
G74*
D01*
G02X11117Y14984I484J183*
G01*
X11117Y14984D01*
X11117Y14734D01*
G75*
D01*
G02X11483Y14734I183J-234*
G01*
X11483Y14734D01*
X11483Y14984D01*
G74*
D01*
G02X11784Y14683I183J484*
G01*
X11784Y14683D01*
X11534Y14683D01*
D02*
G37*
G36*
X13749Y14414D02*
X13749Y14414D01*
X13190Y14414D01*
X13190Y14651D01*
X13879Y14651D01*
X13879Y14545D01*
G75*
D01*
G02X13749Y14414I-130J-1*
G01*
D02*
G37*
G36*
X13879Y15017D02*
X13879Y15017D01*
X13879Y14911D01*
X13190Y14911D01*
X13190Y15148D01*
X13749Y15148D01*
G74*
D01*
G02X13879Y15017I1J131*
G01*
D02*
G37*
G36*
X12240Y15017D02*
G75*
D01*
G02X12371Y15148I131J0*
G01*
X12371Y15148D01*
X12930Y15148D01*
X12930Y14911D01*
X12240Y14911D01*
X12240Y15017D01*
D02*
G37*
G36*
X12240Y14545D02*
X12240Y14545D01*
X12240Y14651D01*
X12930Y14651D01*
X12930Y14414D01*
X12371Y14414D01*
G75*
D01*
G02X12240Y14545I0J131*
G01*
D02*
G37*
G36*
X16435Y10099D02*
X16435Y10099D01*
X16649Y9800D01*
X16435Y9501D01*
G75*
D01*
G02X16434Y9525I257J23*
G01*
X16434Y9525D01*
X16434Y10075D01*
G74*
D01*
G02X16435Y10099I258J1*
G01*
D02*
G37*
G36*
X16610Y10320D02*
G75*
D01*
G02X16692Y10333I81J-245*
G01*
X16692Y10333D01*
X16942Y10333D01*
G74*
D01*
G02X17023Y10320I0J258*
G01*
X17023Y10320D01*
X16817Y10033D01*
X16610Y10320D01*
D02*
G37*
G36*
X10777Y10320D02*
G75*
D01*
G02X10858Y10333I81J-245*
G01*
X10858Y10333D01*
X11108Y10333D01*
G74*
D01*
G02X11190Y10320I1J258*
G01*
X11190Y10320D01*
X10983Y10033D01*
X10777Y10320D01*
D02*
G37*
G36*
X10602Y10099D02*
X10602Y10099D01*
X10816Y9800D01*
X10602Y9501D01*
G75*
D01*
G02X10600Y9525I255J33*
G01*
X10600Y9525D01*
X10600Y10075D01*
G74*
D01*
G02X10602Y10099I258J9*
G01*
D02*
G37*
G36*
X11365Y9501D02*
X11365Y9501D01*
X11151Y9800D01*
X11365Y10099D01*
G74*
D01*
G02X11366Y10075I257J23*
G01*
X11366Y10075D01*
X11366Y9525D01*
G75*
D01*
G02X11365Y9501I-258J-1*
G01*
D02*
G37*
G36*
X13749Y10477D02*
X13749Y10477D01*
X13190Y10477D01*
X13190Y10714D01*
X13879Y10714D01*
X13879Y10608D01*
G75*
D01*
G02X13749Y10477I-130J-1*
G01*
D02*
G37*
G36*
X13879Y11080D02*
X13879Y11080D01*
X13879Y10974D01*
X13190Y10974D01*
X13190Y11211D01*
X13749Y11211D01*
G74*
D01*
G02X13879Y11080I1J131*
G01*
D02*
G37*
G36*
X12240Y11080D02*
G75*
D01*
G02X12371Y11211I131J0*
G01*
X12371Y11211D01*
X12930Y11211D01*
X12930Y10974D01*
X12240Y10974D01*
X12240Y11080D01*
D02*
G37*
G36*
X12240Y10608D02*
X12240Y10608D01*
X12240Y10714D01*
X12930Y10714D01*
X12930Y10477D01*
X12371Y10477D01*
G75*
D01*
G02X12240Y10608I0J131*
G01*
D02*
G37*
G36*
X11635Y10099D02*
X11635Y10099D01*
X11849Y9800D01*
X11635Y9501D01*
G75*
D01*
G02X11634Y9525I257J23*
G01*
X11634Y9525D01*
X11634Y10075D01*
G74*
D01*
G02X11635Y10099I258J1*
G01*
D02*
G37*
G36*
X11810Y10320D02*
G75*
D01*
G02X11892Y10333I81J-245*
G01*
X11892Y10333D01*
X12142Y10333D01*
G74*
D01*
G02X12223Y10320I0J258*
G01*
X12223Y10320D01*
X12017Y10033D01*
X11810Y10320D01*
D02*
G37*
G36*
X12398Y9501D02*
X12398Y9501D01*
X12184Y9800D01*
X12398Y10099D01*
G74*
D01*
G02X12400Y10075I255J33*
G01*
X12400Y10075D01*
X12400Y9525D01*
G75*
D01*
G02X12398Y9501I-258J9*
G01*
D02*
G37*
%LPD*%
G36*
X9614Y771D02*
X9614Y771D01*
X9267Y771D01*
G75*
D01*
G03X8614Y771I-326J211*
G01*
X8614Y771D01*
X8267Y771D01*
G75*
D01*
G03X7614Y771I-326J211*
G01*
X7614Y771D01*
X7385Y771D01*
X7307Y849D01*
G75*
D01*
G03X7038Y606I-366J135*
G01*
X7038Y606D01*
X7053Y591D01*
X6565Y591D01*
X6307Y849D01*
G75*
D01*
G03X6038Y606I-366J135*
G01*
X6038Y606D01*
X6233Y411D01*
X2887Y411D01*
X2511Y787D01*
X2511Y2000D01*
G74*
D01*
G03X2449Y2149I211J0*
G01*
X2449Y2149D01*
X1661Y2937D01*
X1661Y3495D01*
G74*
D01*
G03X1690Y3511I206J407*
G01*
X1690Y3511D01*
X2000Y3201D01*
G75*
D01*
G03X2150Y3139I149J149*
G01*
X2150Y3139D01*
X3905Y3139D01*
X3905Y3114D01*
G75*
D01*
G03X4036Y2984I131J1*
G01*
X4036Y2984D01*
X4764Y2984D01*
G75*
D01*
G03X4895Y3114I1J130*
G01*
X4895Y3114D01*
X4895Y3144D01*
G74*
D01*
G03X5000Y3201I44J205*
G01*
X5000Y3201D01*
X5086Y3288D01*
G75*
D01*
G03X5325Y3127I238J96*
G01*
X5325Y3127D01*
X5479Y3127D01*
X5479Y3110D01*
G74*
D01*
G03X5541Y2961I211J0*
G01*
X5541Y2961D01*
X5541Y2961D01*
X5578Y2923D01*
G74*
D01*
G03X5519Y2933I72J247*
G01*
X5519Y2933D01*
X5519Y2536D01*
X5766Y2536D01*
X5766Y2675D01*
G74*
D01*
G03X5734Y2800I258J1*
G01*
G75*
D01*
G03X5800Y2789I67J199*
G01*
X5800Y2789D01*
X6260Y2789D01*
G74*
D01*
G03X6234Y2675I232J113*
G01*
X6234Y2675D01*
X6234Y2581D01*
X6200Y2581D01*
G75*
D01*
G03X6136Y2569I1J-181*
G01*
G74*
D01*
G03X6072Y2528I63J169*
G01*
X6072Y2528D01*
X5766Y2222D01*
X5766Y2264D01*
X5519Y2264D01*
X5519Y1975D01*
X5425Y1881D01*
X5248Y1881D01*
X5248Y2264D01*
X5000Y2264D01*
X5000Y2125D01*
G75*
D01*
G03X5175Y1881I258J0*
G01*
X5175Y1881D01*
X4657Y1881D01*
G75*
D01*
G03X4642Y1880I5J-181*
G01*
G74*
D01*
G03X4529Y1828I14J179*
G01*
X4529Y1828D01*
X4057Y1356D01*
G75*
D01*
G03X4313Y1101I-115J-372*
G01*
X4313Y1101D01*
X4732Y1519D01*
X5500Y1519D01*
G75*
D01*
G03X5517Y1520I-2J181*
G01*
G74*
D01*
G03X5628Y1572I16J179*
G01*
X5628Y1572D01*
X6234Y2178D01*
X6234Y2125D01*
G75*
D01*
G03X6492Y1867I258J0*
G01*
X6492Y1867D01*
X6742Y1867D01*
G75*
D01*
G03X7000Y2125I0J258*
G01*
X7000Y2125D01*
X7000Y2602D01*
X7351Y2251D01*
G74*
D01*
G03X7400Y2214I150J147*
G01*
X7400Y2214D01*
X7400Y2125D01*
G75*
D01*
G03X7658Y1867I258J0*
G01*
X7658Y1867D01*
X7908Y1867D01*
G75*
D01*
G03X8166Y2125I0J258*
G01*
X8166Y2125D01*
X8166Y2675D01*
G74*
D01*
G03X7908Y2933I258J0*
G01*
X7908Y2933D01*
X7658Y2933D01*
G75*
D01*
G03X7421Y2777I0J-258*
G01*
X7421Y2777D01*
X7071Y3127D01*
X7275Y3127D01*
G74*
D01*
G03X7299Y3128I1J258*
G01*
X7299Y3128D01*
X7000Y3343D01*
X6816Y3211D01*
X6065Y3211D01*
G75*
D01*
G03X6133Y3385I-189J174*
G01*
X6133Y3385D01*
X6133Y3635D01*
G74*
D01*
G03X5875Y3893I258J0*
G01*
X5875Y3893D01*
X5325Y3893D01*
G75*
D01*
G03X5082Y3721I0J-258*
G01*
X5082Y3721D01*
X5010Y3721D01*
G75*
D01*
G03X4868Y3666I0J-211*
G01*
G74*
D01*
G03X4764Y3717I103J79*
G01*
X4764Y3717D01*
X4036Y3717D01*
G75*
D01*
G03X3905Y3587I-1J-130*
G01*
X3905Y3587D01*
X3905Y3561D01*
X2797Y3561D01*
G75*
D01*
G03X2892Y3796I-243J235*
G01*
X2892Y3796D01*
X2892Y4004D01*
G74*
D01*
G03X2554Y4342I338J0*
G01*
X2554Y4342D01*
X2346Y4342D01*
G75*
D01*
G03X2272Y4334I-1J-338*
G01*
X2272Y4334D01*
X2131Y4475D01*
X2131Y4573D01*
G75*
D01*
G03X2874Y5069I321J324*
G01*
X2874Y5069D01*
X3929Y6124D01*
G75*
D01*
G03X4125Y6034I196J168*
G01*
X4125Y6034D01*
X4219Y6034D01*
X4219Y5900D01*
G75*
D01*
G03X4272Y5772I181J0*
G01*
X4272Y5772D01*
X4418Y5626D01*
G75*
D01*
G03X4199Y5042I-21J-325*
G01*
X4199Y5042D01*
X4199Y5016D01*
X4036Y5016D01*
G75*
D01*
G03X3905Y4886I-1J-130*
G01*
X3905Y4886D01*
X3905Y4413D01*
G75*
D01*
G03X4036Y4283I131J1*
G01*
X4036Y4283D01*
X4764Y4283D01*
G75*
D01*
G03X4895Y4413I1J130*
G01*
X4895Y4413D01*
X4895Y4469D01*
X5081Y4469D01*
G75*
D01*
G03X5325Y4294I244J82*
G01*
X5325Y4294D01*
X5875Y4294D01*
G74*
D01*
G03X6127Y4496I0J258*
G01*
X6127Y4496D01*
X6473Y4496D01*
G75*
D01*
G03X6725Y4294I252J56*
G01*
X6725Y4294D01*
X6737Y4294D01*
G75*
D01*
G03X6747Y3893I262J-194*
G01*
X6747Y3893D01*
X6725Y3893D01*
G75*
D01*
G03X6701Y3892I-1J-258*
G01*
X6701Y3892D01*
X7000Y3677D01*
X7299Y3892D01*
G74*
D01*
G03X7275Y3893I23J257*
G01*
X7275Y3893D01*
X7253Y3893D01*
G75*
D01*
G03X7263Y4294I-252J207*
G01*
X7263Y4294D01*
X7275Y4294D01*
G75*
D01*
G03X7533Y4552I0J258*
G01*
X7533Y4552D01*
X7533Y4711D01*
X9345Y2899D01*
G74*
D01*
G03X9432Y2851I128J128*
G01*
G75*
D01*
G03X9473Y2846I42J175*
G01*
X9473Y2846D01*
X9865Y2846D01*
G74*
D01*
G03X9800Y2675I192J171*
G01*
X9800Y2675D01*
X9800Y2125D01*
G75*
D01*
G03X10058Y1867I258J0*
G01*
X10058Y1867D01*
X10308Y1867D01*
G75*
D01*
G03X10566Y2125I0J258*
G01*
X10566Y2125D01*
X10566Y2189D01*
X11500Y2189D01*
G75*
D01*
G03X11542Y2193I1J211*
G01*
G74*
D01*
G03X11619Y2226I43J207*
G01*
X11619Y2226D01*
X11619Y2000D01*
G75*
D01*
G03X11672Y1872I181J0*
G01*
X11672Y1872D01*
X11872Y1672D01*
G75*
D01*
G03X12000Y1619I128J128*
G01*
X12000Y1619D01*
X13800Y1619D01*
G74*
D01*
G03X13928Y1672I0J181*
G01*
X13928Y1672D01*
X14125Y1869D01*
X14520Y1869D01*
G75*
D01*
G03X14480Y1635I280J-168*
G01*
X14480Y1635D01*
X14372Y1528D01*
G75*
D01*
G03X14319Y1400I128J-128*
G01*
X14319Y1400D01*
X14319Y1080D01*
G75*
D01*
G03X13614Y771I-378J-97*
G01*
X13614Y771D01*
X13267Y771D01*
G75*
D01*
G03X12614Y771I-326J211*
G01*
X12614Y771D01*
X12267Y771D01*
G75*
D01*
G03X11614Y771I-326J211*
G01*
X11614Y771D01*
X11267Y771D01*
G75*
D01*
G03X10614Y771I-326J211*
G01*
X10614Y771D01*
X10267Y771D01*
G75*
D01*
G03X9614Y771I-326J211*
G01*
D02*
G37*
%LPC*%
G36*
X9398Y2101D02*
G75*
D01*
G03X9400Y2125I-255J33*
G01*
X9400Y2125D01*
X9400Y2675D01*
G74*
D01*
G03X9398Y2699I258J9*
G01*
X9398Y2699D01*
X9298Y2559D01*
X9298Y2559D01*
X9184Y2400D01*
X9298Y2241D01*
X9298Y2241D01*
X9398Y2101D01*
D02*
G37*
G36*
X4551Y984D02*
G75*
D01*
G03X4551Y984I390J0*
G01*
D02*
G37*
G36*
X2760Y1330D02*
G75*
D01*
G03X3122Y1330I181J-345*
G01*
X3122Y1330D01*
X3122Y2066D01*
X3275Y2219D01*
X3834Y2219D01*
X3834Y2125D01*
G75*
D01*
G03X4092Y1867I258J0*
G01*
X4092Y1867D01*
X4342Y1867D01*
G75*
D01*
G03X4600Y2125I0J258*
G01*
X4600Y2125D01*
X4600Y2675D01*
G74*
D01*
G03X4342Y2933I258J0*
G01*
X4342Y2933D01*
X4092Y2933D01*
G75*
D01*
G03X3834Y2675I0J-258*
G01*
X3834Y2675D01*
X3834Y2581D01*
X3200Y2581D01*
G75*
D01*
G03X3072Y2528I0J-181*
G01*
X3072Y2528D01*
X2813Y2269D01*
G75*
D01*
G03X2760Y2141I128J-128*
G01*
X2760Y2141D01*
X2760Y1330D01*
D02*
G37*
G36*
X8635Y2699D02*
G74*
D01*
G03X8634Y2675I257J23*
G01*
X8634Y2675D01*
X8634Y2125D01*
G75*
D01*
G03X8635Y2101I258J-1*
G01*
X8635Y2101D01*
X8849Y2400D01*
X8635Y2699D01*
D02*
G37*
G36*
X9223Y1880D02*
X9223Y1880D01*
X9017Y2167D01*
X8810Y1880D01*
G75*
D01*
G03X8892Y1867I81J245*
G01*
X8892Y1867D01*
X9142Y1867D01*
G74*
D01*
G03X9223Y1880I0J258*
G01*
D02*
G37*
G36*
X9223Y2920D02*
G74*
D01*
G03X9142Y2933I81J245*
G01*
X9142Y2933D01*
X8892Y2933D01*
G75*
D01*
G03X8810Y2920I-1J-258*
G01*
X8810Y2920D01*
X9017Y2633D01*
X9223Y2920D01*
D02*
G37*
G36*
X5248Y2933D02*
G74*
D01*
G03X5000Y2675I10J258*
G01*
X5000Y2675D01*
X5000Y2536D01*
X5248Y2536D01*
X5248Y2933D01*
D02*
G37*
G36*
X7520Y3716D02*
X7520Y3716D01*
X7233Y3510D01*
X7520Y3304D01*
G75*
D01*
G03X7533Y3385I-245J81*
G01*
X7533Y3385D01*
X7533Y3635D01*
G74*
D01*
G03X7520Y3716I258J0*
G01*
D02*
G37*
G36*
X6480Y3716D02*
G74*
D01*
G03X6467Y3635I245J81*
G01*
X6467Y3635D01*
X6467Y3385D01*
G75*
D01*
G03X6480Y3304I258J0*
G01*
X6480Y3304D01*
X6767Y3510D01*
X6480Y3716D01*
D02*
G37*
%LPD*%
G36*
X2151Y551D02*
X2151Y551D01*
X2551Y151D01*
X151Y151D01*
X151Y12502D01*
G74*
D01*
G03X325Y12434I174J189*
G01*
X325Y12434D01*
X419Y12434D01*
X419Y12400D01*
G75*
D01*
G03X472Y12272I181J0*
G01*
X472Y12272D01*
X622Y12122D01*
G74*
D01*
G03X694Y12078I128J128*
G01*
G75*
D01*
G03X750Y12069I56J171*
G01*
X750Y12069D01*
X2461Y12069D01*
G75*
D01*
G03X2576Y12001I115J63*
G01*
X2576Y12001D01*
X3363Y12001D01*
G75*
D01*
G03X3494Y12132I0J131*
G01*
X3494Y12132D01*
X3494Y12368D01*
G74*
D01*
G03X3363Y12499I131J0*
G01*
X3363Y12499D01*
X2576Y12499D01*
G75*
D01*
G03X2461Y12431I0J-131*
G01*
X2461Y12431D01*
X825Y12431D01*
X822Y12434D01*
X875Y12434D01*
G75*
D01*
G03X1133Y12692I0J258*
G01*
X1133Y12692D01*
X1133Y12942D01*
G74*
D01*
G03X948Y13189I258J0*
G01*
X948Y13189D01*
X1452Y13189D01*
G74*
D01*
G03X1267Y12942I72J247*
G01*
X1267Y12942D01*
X1267Y12692D01*
G75*
D01*
G03X1525Y12434I258J0*
G01*
X1525Y12434D01*
X2075Y12434D01*
G74*
D01*
G03X2283Y12539I0J258*
G01*
X2283Y12539D01*
X2484Y12539D01*
G75*
D01*
G03X2576Y12501I92J92*
G01*
X2576Y12501D01*
X3363Y12501D01*
G74*
D01*
G03X3455Y12539I0J131*
G01*
X3455Y12539D01*
X3716Y12539D01*
G75*
D01*
G03X4219Y12457I284J160*
G01*
X4219Y12457D01*
X4219Y7966D01*
X4125Y7966D01*
G75*
D01*
G03X3867Y7708I0J-258*
G01*
X3867Y7708D01*
X3867Y7458D01*
G75*
D01*
G03X3938Y7281I258J1*
G01*
X3938Y7281D01*
X1700Y7281D01*
G75*
D01*
G03X1632Y7267I2J-181*
G01*
G74*
D01*
G03X1572Y7228I66J167*
G01*
X1572Y7228D01*
X772Y6428D01*
G75*
D01*
G03X719Y6300I128J-128*
G01*
X719Y6300D01*
X719Y5450D01*
G75*
D01*
G03X772Y5322I181J0*
G01*
X772Y5322D01*
X1026Y5069D01*
G75*
D01*
G03X1769Y4573I422J-172*
G01*
X1769Y4573D01*
X1769Y4400D01*
G75*
D01*
G03X1822Y4272I181J0*
G01*
X1822Y4272D01*
X2016Y4078D01*
G74*
D01*
G03X2008Y4004I330J73*
G01*
X2008Y4004D01*
X2008Y3796D01*
X2008Y3790D01*
X2008Y3790D01*
X1907Y3892D01*
G75*
D01*
G03X1239Y3495I-457J8*
G01*
X1239Y3495D01*
X1239Y2850D01*
G75*
D01*
G03X1301Y2701I211J0*
G01*
X1301Y2701D01*
X2089Y1913D01*
X2089Y700D01*
G75*
D01*
G03X2151Y551I211J0*
G01*
D02*
G37*
%LPC*%
G36*
X2445Y11368D02*
X2445Y11368D01*
X2445Y11338D01*
X2881Y11338D01*
X2881Y11499D01*
X2576Y11499D01*
G75*
D01*
G03X2445Y11368I0J-131*
G01*
D02*
G37*
G36*
X3494Y11368D02*
G74*
D01*
G03X3363Y11499I131J0*
G01*
X3363Y11499D01*
X3057Y11499D01*
X3057Y11338D01*
X3494Y11338D01*
X3494Y11368D01*
D02*
G37*
G36*
X2445Y11868D02*
X2445Y11868D01*
X2445Y11632D01*
G75*
D01*
G03X2576Y11501I131J0*
G01*
X2576Y11501D01*
X3363Y11501D01*
G75*
D01*
G03X3494Y11632I0J131*
G01*
X3494Y11632D01*
X3494Y11868D01*
G74*
D01*
G03X3363Y11999I131J0*
G01*
X3363Y11999D01*
X2576Y11999D01*
G75*
D01*
G03X2445Y11868I0J-131*
G01*
D02*
G37*
G36*
X1924Y11279D02*
X1924Y11279D01*
X1924Y11509D01*
X1694Y11509D01*
G74*
D01*
G03X1924Y11279I370J140*
G01*
D02*
G37*
G36*
X1694Y11791D02*
X1694Y11791D01*
X1924Y11791D01*
X1924Y12021D01*
G74*
D01*
G03X1694Y11791I140J370*
G01*
D02*
G37*
G36*
X2205Y12021D02*
X2205Y12021D01*
X2205Y11791D01*
X2436Y11791D01*
G74*
D01*
G03X2205Y12021I370J141*
G01*
D02*
G37*
G36*
X2436Y11509D02*
X2436Y11509D01*
X2205Y11509D01*
X2205Y11279D01*
G74*
D01*
G03X2436Y11509I139J371*
G01*
D02*
G37*
G36*
X1868Y11650D02*
G75*
D01*
G03X1868Y11650I197J0*
G01*
D02*
G37*
G36*
X2445Y10368D02*
X2445Y10368D01*
X2445Y10338D01*
X2881Y10338D01*
X2881Y10499D01*
X2576Y10499D01*
G75*
D01*
G03X2445Y10368I0J-131*
G01*
D02*
G37*
G36*
X2445Y10632D02*
G75*
D01*
G03X2576Y10501I131J0*
G01*
X2576Y10501D01*
X2881Y10501D01*
X2881Y10662D01*
X2445Y10662D01*
X2445Y10632D01*
D02*
G37*
G36*
X2445Y10868D02*
X2445Y10868D01*
X2445Y10838D01*
X2881Y10838D01*
X2881Y10999D01*
X2576Y10999D01*
G75*
D01*
G03X2445Y10868I0J-131*
G01*
D02*
G37*
G36*
X3494Y10368D02*
G74*
D01*
G03X3363Y10499I131J0*
G01*
X3363Y10499D01*
X3057Y10499D01*
X3057Y10338D01*
X3494Y10338D01*
X3494Y10368D01*
D02*
G37*
G36*
X3494Y10868D02*
G74*
D01*
G03X3363Y10999I131J0*
G01*
X3363Y10999D01*
X3057Y10999D01*
X3057Y10838D01*
X3494Y10838D01*
X3494Y10868D01*
D02*
G37*
G36*
X3363Y10501D02*
G75*
D01*
G03X3494Y10632I0J131*
G01*
X3494Y10632D01*
X3494Y10662D01*
X3057Y10662D01*
X3057Y10501D01*
X3363Y10501D01*
D02*
G37*
G36*
X3363Y11001D02*
G75*
D01*
G03X3494Y11132I0J131*
G01*
X3494Y11132D01*
X3494Y11162D01*
X3057Y11162D01*
X3057Y11001D01*
X3363Y11001D01*
D02*
G37*
G36*
X2445Y11132D02*
G75*
D01*
G03X2576Y11001I131J0*
G01*
X2576Y11001D01*
X2881Y11001D01*
X2881Y11162D01*
X2445Y11162D01*
X2445Y11132D01*
D02*
G37*
G36*
X2445Y9632D02*
G75*
D01*
G03X2576Y9501I131J0*
G01*
X2576Y9501D01*
X2881Y9501D01*
X2881Y9662D01*
X2445Y9662D01*
X2445Y9632D01*
D02*
G37*
G36*
X2445Y9868D02*
X2445Y9868D01*
X2445Y9838D01*
X2881Y9838D01*
X2881Y9999D01*
X2576Y9999D01*
G75*
D01*
G03X2445Y9868I0J-131*
G01*
D02*
G37*
G36*
X2445Y10132D02*
G75*
D01*
G03X2576Y10001I131J0*
G01*
X2576Y10001D01*
X2881Y10001D01*
X2881Y10162D01*
X2445Y10162D01*
X2445Y10132D01*
D02*
G37*
G36*
X3494Y9868D02*
G74*
D01*
G03X3363Y9999I131J0*
G01*
X3363Y9999D01*
X3057Y9999D01*
X3057Y9838D01*
X3494Y9838D01*
X3494Y9868D01*
D02*
G37*
G36*
X3363Y9501D02*
G75*
D01*
G03X3494Y9632I0J131*
G01*
X3494Y9632D01*
X3494Y9662D01*
X3057Y9662D01*
X3057Y9501D01*
X3363Y9501D01*
D02*
G37*
G36*
X3363Y10001D02*
G75*
D01*
G03X3494Y10132I0J131*
G01*
X3494Y10132D01*
X3494Y10162D01*
X3057Y10162D01*
X3057Y10001D01*
X3363Y10001D01*
D02*
G37*
G36*
X736Y1181D02*
G75*
D01*
G03X736Y1181I642J0*
G01*
D02*
G37*
%LPD*%
G36*
X19122Y1330D02*
G75*
D01*
G02X18760Y1330I-181J-345*
G01*
X18760Y1330D01*
X18760Y1384D01*
X18747Y1397D01*
X16198Y3947D01*
X16009Y3947D01*
G74*
D01*
G02X16016Y3940I124J131*
G01*
X16016Y3940D01*
X18069Y1887D01*
G74*
D01*
G02X18122Y1759I128J128*
G01*
X18122Y1759D01*
X18122Y1330D01*
G75*
D01*
G02X17760Y1330I-181J-345*
G01*
X17760Y1330D01*
X17760Y1684D01*
X15812Y3632D01*
X15031Y3632D01*
G75*
D01*
G02X14946Y3108I-231J-231*
G01*
X14946Y3108D01*
X16173Y3108D01*
G75*
D01*
G02X16234Y3097I-1J-181*
G01*
G74*
D01*
G02X16301Y3054I61J169*
G01*
X16301Y3054D01*
X17069Y2287D01*
G74*
D01*
G02X17122Y2159I128J128*
G01*
X17122Y2159D01*
X17122Y1330D01*
G75*
D01*
G02X16760Y1330I-181J-345*
G01*
X16760Y1330D01*
X16760Y2084D01*
X16418Y2426D01*
G75*
D01*
G02X15869Y2269I-318J73*
G01*
X15869Y2269D01*
X13050Y2269D01*
G75*
D01*
G02X13043Y2269I-3J181*
G01*
G74*
D01*
G02X12922Y2322I7J181*
G01*
X12922Y2322D01*
X12785Y2459D01*
G74*
D01*
G02X12754Y2501I129J127*
G01*
G74*
D01*
G02X12680Y2481I75J130*
G01*
X12680Y2481D01*
X12680Y2845D01*
X12683Y2845D01*
X12683Y3009D01*
X12680Y3009D01*
X12680Y3373D01*
G74*
D01*
G02X12756Y3351I3J151*
G01*
G75*
D01*
G02X12833Y3373I78J-128*
G01*
X12833Y3373D01*
X12993Y3373D01*
G74*
D01*
G02X13047Y3363I0J151*
G01*
X13047Y3363D01*
X13047Y3597D01*
X11725Y4919D01*
X11672Y4919D01*
G74*
D01*
G02X11651Y4890I274J176*
G01*
G75*
D01*
G02X11818Y4526I-150J-289*
G01*
G75*
D01*
G02X12072Y4019I-17J-326*
G01*
G75*
D01*
G02X12326Y3673I-72J-319*
G01*
X12326Y3673D01*
X12432Y3566D01*
G74*
D01*
G02X12494Y3417I148J149*
G01*
X12494Y3417D01*
X12494Y3371D01*
G74*
D01*
G02X12517Y3373I25J149*
G01*
X12517Y3373D01*
X12517Y3009D01*
X12514Y3009D01*
X12514Y2845D01*
X12517Y2845D01*
X12517Y2481D01*
G74*
D01*
G02X12441Y2502I1J150*
G01*
G74*
D01*
G02X12363Y2481I77J129*
G01*
X12363Y2481D01*
X12204Y2481D01*
G75*
D01*
G02X12149Y2491I-1J150*
G01*
X12149Y2491D01*
X12149Y2469D01*
G75*
D01*
G02X12096Y2340I-180J-1*
G01*
X12096Y2340D01*
X11981Y2225D01*
X11981Y2075D01*
X12075Y1981D01*
X13725Y1981D01*
X13922Y2178D01*
G75*
D01*
G02X14050Y2231I128J-128*
G01*
X14050Y2231D01*
X15650Y2231D01*
G74*
D01*
G02X15778Y2178I0J181*
G01*
X15778Y2178D01*
X16198Y1757D01*
G75*
D01*
G02X16264Y1203I201J-257*
G01*
G75*
D01*
G02X15581Y834I-323J-218*
G01*
X15581Y834D01*
X15581Y600D01*
G75*
D01*
G02X15528Y472I-181J0*
G01*
X15528Y472D01*
X15467Y411D01*
X20113Y411D01*
X20569Y867D01*
G75*
D01*
G02X20721Y1306I371J117*
G01*
X20721Y1306D01*
X20638Y1389D01*
X19500Y1389D01*
G75*
D01*
G02X19351Y1451I0J211*
G01*
X19351Y1451D01*
X18747Y2055D01*
X17451Y3351D01*
G74*
D01*
G02X17400Y3434I149J148*
G01*
X17400Y3434D01*
X17325Y3434D01*
G75*
D01*
G02X17171Y3485I0J258*
G01*
X17171Y3485D01*
X18747Y1909D01*
X18747Y1909D01*
X19069Y1587D01*
G74*
D01*
G02X19122Y1459I128J128*
G01*
X19122Y1459D01*
X19122Y1330D01*
D02*
G37*
%LPC*%
G36*
X19551Y984D02*
G75*
D01*
G02X19551Y984I390J0*
G01*
D02*
G37*
%LPD*%
G36*
X13550Y7311D02*
G75*
D01*
G03X13047Y6892I-252J-210*
G01*
X13047Y6892D01*
X13047Y6709D01*
G74*
D01*
G03X12995Y6719I54J140*
G01*
X12995Y6719D01*
X12995Y6355D01*
X12998Y6355D01*
X12998Y6191D01*
X12995Y6191D01*
X12995Y5827D01*
G74*
D01*
G03X13071Y5849I3J151*
G01*
G75*
D01*
G03X13148Y5827I78J128*
G01*
X13148Y5827D01*
X13308Y5827D01*
G74*
D01*
G03X13386Y5849I0J151*
G01*
G75*
D01*
G03X13463Y5827I78J128*
G01*
X13463Y5827D01*
X13471Y5827D01*
X13465Y5820D01*
G75*
D01*
G03X13189Y5250I-68J-319*
G01*
G75*
D01*
G03X13114Y4842I211J-250*
G01*
X13114Y4842D01*
X12228Y5728D01*
G74*
D01*
G03X12134Y5778I128J128*
G01*
G75*
D01*
G03X12100Y5781I-33J-178*
G01*
X12100Y5781D01*
X11672Y5781D01*
G74*
D01*
G03X11635Y5827I271J180*
G01*
X11635Y5827D01*
X11733Y5827D01*
G74*
D01*
G03X11811Y5849I0J151*
G01*
G75*
D01*
G03X11889Y5827I78J128*
G01*
X11889Y5827D01*
X12048Y5827D01*
G74*
D01*
G03X12126Y5849I0J151*
G01*
G74*
D01*
G03X12202Y5827I78J128*
G01*
X12202Y5827D01*
X12202Y6191D01*
X12199Y6191D01*
X12199Y6355D01*
X12202Y6355D01*
X12202Y6719D01*
G74*
D01*
G03X12180Y6717I3J150*
G01*
X12180Y6717D01*
X12180Y6781D01*
X12300Y6902D01*
X12387Y6814D01*
X12387Y6717D01*
G74*
D01*
G03X12365Y6719I24J147*
G01*
X12365Y6719D01*
X12365Y6355D01*
X12368Y6355D01*
X12368Y6191D01*
X12365Y6191D01*
X12365Y5827D01*
G74*
D01*
G03X12441Y5849I3J151*
G01*
G75*
D01*
G03X12519Y5827I78J128*
G01*
X12519Y5827D01*
X12678Y5827D01*
G74*
D01*
G03X12756Y5849I0J151*
G01*
G74*
D01*
G03X12832Y5827I78J128*
G01*
X12832Y5827D01*
X12832Y6191D01*
X12829Y6191D01*
X12829Y6355D01*
X12832Y6355D01*
X12832Y6719D01*
G74*
D01*
G03X12809Y6717I1J150*
G01*
X12809Y6717D01*
X12809Y6902D01*
G74*
D01*
G03X12747Y7051I211J0*
G01*
X12747Y7051D01*
X12511Y7287D01*
X12511Y7313D01*
X12687Y7489D01*
X14013Y7489D01*
X14467Y7034D01*
G74*
D01*
G03X14617Y6972I149J149*
G01*
X14617Y6972D01*
X14682Y6972D01*
G75*
D01*
G03X14925Y6800I243J85*
G01*
X14925Y6800D01*
X15475Y6800D01*
G74*
D01*
G03X15718Y6972I0J258*
G01*
X15718Y6972D01*
X16213Y6972D01*
G74*
D01*
G03X16362Y7034I0J211*
G01*
X16362Y7034D01*
X17605Y8277D01*
G74*
D01*
G03X17772Y8082I253J47*
G01*
X17772Y8082D01*
X17772Y7917D01*
G75*
D01*
G03X17834Y7767I211J-1*
G01*
X17834Y7767D01*
X18289Y7313D01*
X18289Y4087D01*
X18229Y4028D01*
X18118Y4028D01*
G74*
D01*
G03X17875Y4200I243J85*
G01*
X17875Y4200D01*
X17325Y4200D01*
G75*
D01*
G03X17067Y3942I0J-258*
G01*
X17067Y3942D01*
X17067Y3692D01*
G75*
D01*
G03X17118Y3538I258J0*
G01*
X17118Y3538D01*
X16401Y4255D01*
G74*
D01*
G03X16298Y4307I129J127*
G01*
G75*
D01*
G03X16272Y4308I-20J-179*
G01*
X16272Y4308D01*
X15165Y4308D01*
G75*
D01*
G03X15111Y4750I-265J192*
G01*
G75*
D01*
G03X14693Y5253I-209J251*
G01*
X14693Y5253D01*
X14550Y5253D01*
G75*
D01*
G03X14560Y5307I-140J54*
G01*
X14560Y5307D01*
X14560Y5467D01*
G74*
D01*
G03X14539Y5545I151J1*
G01*
G75*
D01*
G03X14560Y5622I-130J77*
G01*
X14560Y5622D01*
X14560Y5782D01*
G74*
D01*
G03X14409Y5933I151J0*
G01*
X14409Y5933D01*
X13819Y5933D01*
G75*
D01*
G03X13763Y5922I1J-151*
G01*
G75*
D01*
G03X13774Y5978I-139J56*
G01*
X13774Y5978D01*
X13774Y6569D01*
G74*
D01*
G03X13724Y6680I151J1*
G01*
X13724Y6680D01*
X13724Y6768D01*
X13735Y6780D01*
G75*
D01*
G03X13550Y7311I63J320*
G01*
D02*
G37*
%LPC*%
G36*
X15499Y6398D02*
G74*
D01*
G03X15475Y6400I33J255*
G01*
X15475Y6400D01*
X14925Y6400D01*
G75*
D01*
G03X14901Y6398I9J-258*
G01*
X14901Y6398D01*
X15200Y6184D01*
X15499Y6398D01*
D02*
G37*
G36*
X14680Y5810D02*
X14680Y5810D01*
X14967Y6017D01*
X14680Y6223D01*
G74*
D01*
G03X14667Y6142I245J81*
G01*
X14667Y6142D01*
X14667Y5892D01*
G75*
D01*
G03X14680Y5810I258J-1*
G01*
D02*
G37*
G36*
X14901Y5635D02*
G75*
D01*
G03X14925Y5634I23J257*
G01*
X14925Y5634D01*
X15475Y5634D01*
G74*
D01*
G03X15499Y5635I1J258*
G01*
X15499Y5635D01*
X15200Y5849D01*
X14901Y5635D01*
D02*
G37*
G36*
X15720Y5810D02*
G75*
D01*
G03X15733Y5892I-245J81*
G01*
X15733Y5892D01*
X15733Y6142D01*
G74*
D01*
G03X15720Y6223I258J0*
G01*
X15720Y6223D01*
X15433Y6017D01*
X15720Y5810D01*
D02*
G37*
G36*
X17301Y4602D02*
G75*
D01*
G03X17325Y4600I33J255*
G01*
X17325Y4600D01*
X17875Y4600D01*
G74*
D01*
G03X17899Y4602I9J258*
G01*
X17899Y4602D01*
X17600Y4816D01*
X17301Y4602D01*
D02*
G37*
G36*
X17080Y4777D02*
X17080Y4777D01*
X17367Y4983D01*
X17080Y5190D01*
G74*
D01*
G03X17067Y5108I245J81*
G01*
X17067Y5108D01*
X17067Y4858D01*
G75*
D01*
G03X17080Y4777I258J0*
G01*
D02*
G37*
G36*
X17899Y5365D02*
G74*
D01*
G03X17875Y5366I23J257*
G01*
X17875Y5366D01*
X17325Y5366D01*
G75*
D01*
G03X17301Y5365I-1J-258*
G01*
X17301Y5365D01*
X17600Y5151D01*
X17899Y5365D01*
D02*
G37*
G36*
X18120Y4777D02*
G75*
D01*
G03X18133Y4858I-245J81*
G01*
X18133Y4858D01*
X18133Y5108D01*
G74*
D01*
G03X18120Y5190I258J1*
G01*
X18120Y5190D01*
X17833Y4983D01*
X18120Y4777D01*
D02*
G37*
%LPD*%
G36*
X1081Y5631D02*
G74*
D01*
G03X1288Y5473I369J268*
G01*
X1288Y5473D01*
X1288Y5738D01*
X1081Y5738D01*
X1081Y6062D01*
X1288Y6062D01*
X1288Y6327D01*
G74*
D01*
G03X1081Y6169I162J426*
G01*
X1081Y6169D01*
X1081Y6225D01*
X1775Y6919D01*
X2263Y6919D01*
X1822Y6478D01*
G75*
D01*
G03X1769Y6350I128J-128*
G01*
X1769Y6350D01*
X1769Y6227D01*
G74*
D01*
G03X1612Y6327I318J327*
G01*
X1612Y6327D01*
X1612Y6062D01*
X1769Y6062D01*
X1769Y5738D01*
X1612Y5738D01*
X1612Y5473D01*
G74*
D01*
G03X1769Y5573I161J427*
G01*
X1769Y5573D01*
X1769Y5227D01*
G75*
D01*
G03X1281Y5324I-319J-326*
G01*
X1281Y5324D01*
X1081Y5525D01*
X1081Y5631D01*
D02*
G37*
%LPC*%
G36*
X1275Y5900D02*
G75*
D01*
G03X1275Y5900I175J0*
G01*
D02*
G37*
%LPD*%
G36*
X389Y13600D02*
G75*
D01*
G03X451Y13451I211J0*
G01*
X451Y13451D01*
X651Y13251D01*
G74*
D01*
G03X734Y13200I148J149*
G01*
X734Y13200D01*
X325Y13200D01*
G75*
D01*
G03X151Y13132I1J-258*
G01*
X151Y13132D01*
X151Y13668D01*
G74*
D01*
G03X325Y13600I174J189*
G01*
X325Y13600D01*
X389Y13600D01*
D02*
G37*
G36*
X9117Y16734D02*
G75*
D01*
G02X9483Y16734I183J-234*
G01*
X9483Y16734D01*
X9483Y16818D01*
X9117Y16818D01*
X9117Y16734D01*
D02*
G37*
G36*
X11117Y16734D02*
G75*
D01*
G02X11483Y16734I183J-234*
G01*
X11483Y16734D01*
X11483Y16818D01*
X11117Y16818D01*
X11117Y16734D01*
D02*
G37*
G54D11*
X23721Y9400D02*
G75*
D01*
G02X23675Y9508I104J108*
G01*
X23675Y9775D01*
X24014Y9775D01*
X24014Y9442D01*
X24021Y9442D01*
X24021Y9116D01*
X23675Y9116D01*
X23675Y9291D01*
G74*
D01*
G02X23721Y9400I151J0*
G01*
X24725Y9508D02*
G75*
D01*
G02X24679Y9400I-151J1*
G01*
G74*
D01*
G02X24725Y9291I105J109*
G01*
X24725Y9116D01*
X24379Y9116D01*
X24379Y9442D01*
X24386Y9442D01*
X24386Y9775D01*
X24725Y9775D01*
X24725Y9508D01*
X11190Y9280D02*
G74*
D01*
G02X11108Y9267I81J245*
G01*
X10858Y9267D01*
G75*
D01*
G02X10777Y9280I0J258*
G01*
X10790Y9298D01*
X10790Y9298D01*
X10983Y9567D01*
X11177Y9298D01*
X11177Y9298D01*
X11190Y9280D01*
X12223Y9280D02*
G74*
D01*
G02X12142Y9267I81J245*
G01*
X11892Y9267D01*
G75*
D01*
G02X11810Y9280I-1J258*
G01*
X11823Y9298D01*
X11823Y9298D01*
X12017Y9567D01*
X12210Y9298D01*
X12210Y9298D01*
X12223Y9280D01*
X17023Y9280D02*
G74*
D01*
G02X16942Y9267I81J245*
G01*
X16692Y9267D01*
G75*
D01*
G02X16610Y9280I-1J258*
G01*
X16623Y9298D01*
X16623Y9298D01*
X16817Y9567D01*
X17010Y9298D01*
X17010Y9298D01*
X17023Y9280D01*
X9483Y14734D02*
X9483Y14984D01*
G74*
D01*
G02X9784Y14683I183J484*
G01*
X9534Y14683D01*
G75*
D01*
G02X9534Y14317I-234J-183*
G01*
X9784Y14317D01*
G74*
D01*
G02X9483Y14016I484J183*
G01*
X9483Y14266D01*
G75*
D01*
G02X9117Y14266I-183J234*
G01*
X9117Y14016D01*
G74*
D01*
G02X8816Y14317I183J484*
G01*
X9066Y14317D01*
G75*
D01*
G02X9066Y14683I234J183*
G01*
X8816Y14683D01*
G74*
D01*
G02X9117Y14984I484J183*
G01*
X9117Y14734D01*
G75*
D01*
G02X9483Y14734I183J-234*
G01*
X17023Y9120D02*
X16817Y8833D01*
X16610Y9120D01*
G75*
D01*
G02X16692Y9133I81J-245*
G01*
X16942Y9133D01*
G74*
D01*
G02X17023Y9120I0J258*
G01*
X16435Y8899D02*
X16649Y8600D01*
X16435Y8301D01*
G75*
D01*
G02X16434Y8325I257J23*
G01*
X16434Y8875D01*
G74*
D01*
G02X16435Y8899I258J1*
G01*
X7155Y11868D02*
X7155Y11838D01*
X6719Y11838D01*
X6719Y11999D01*
X7024Y11999D01*
G74*
D01*
G02X7155Y11868I0J131*
G01*
X6237Y11999D02*
X6543Y11999D01*
X6543Y11838D01*
X6106Y11838D01*
X6106Y11868D01*
G75*
D01*
G02X6237Y11999I131J0*
G01*
X7155Y11368D02*
X7155Y11338D01*
X6719Y11338D01*
X6719Y11499D01*
X7024Y11499D01*
G74*
D01*
G02X7155Y11368I0J131*
G01*
X7155Y11632D02*
G75*
D01*
G02X7024Y11501I-131J0*
G01*
X6719Y11501D01*
X6719Y11662D01*
X7155Y11662D01*
X7155Y11632D01*
X6237Y11499D02*
X6543Y11499D01*
X6543Y11338D01*
X6106Y11338D01*
X6106Y11368D01*
G75*
D01*
G02X6237Y11499I131J0*
G01*
X6106Y11632D02*
X6106Y11662D01*
X6543Y11662D01*
X6543Y11501D01*
X6237Y11501D01*
G75*
D01*
G02X6106Y11632I0J131*
G01*
X7155Y10368D02*
X7155Y10338D01*
X6719Y10338D01*
X6719Y10499D01*
X7024Y10499D01*
G74*
D01*
G02X7155Y10368I0J131*
G01*
X7155Y10868D02*
X7155Y10838D01*
X6719Y10838D01*
X6719Y10999D01*
X7024Y10999D01*
G74*
D01*
G02X7155Y10868I0J131*
G01*
X7155Y10632D02*
G75*
D01*
G02X7024Y10501I-131J0*
G01*
X6719Y10501D01*
X6719Y10662D01*
X7155Y10662D01*
X7155Y10632D01*
X7155Y11132D02*
G75*
D01*
G02X7024Y11001I-131J0*
G01*
X6719Y11001D01*
X6719Y11162D01*
X7155Y11162D01*
X7155Y11132D01*
X6237Y10499D02*
X6543Y10499D01*
X6543Y10338D01*
X6106Y10338D01*
X6106Y10368D01*
G75*
D01*
G02X6237Y10499I131J0*
G01*
X6106Y10632D02*
X6106Y10662D01*
X6543Y10662D01*
X6543Y10501D01*
X6237Y10501D01*
G75*
D01*
G02X6106Y10632I0J131*
G01*
X6237Y10999D02*
X6543Y10999D01*
X6543Y10838D01*
X6106Y10838D01*
X6106Y10868D01*
G75*
D01*
G02X6237Y10999I131J0*
G01*
X6106Y11132D02*
X6106Y11162D01*
X6543Y11162D01*
X6543Y11001D01*
X6237Y11001D01*
G75*
D01*
G02X6106Y11132I0J131*
G01*
X7155Y9868D02*
X7155Y9838D01*
X6719Y9838D01*
X6719Y9999D01*
X7024Y9999D01*
G74*
D01*
G02X7155Y9868I0J131*
G01*
X7155Y9632D02*
G75*
D01*
G02X7024Y9501I-131J0*
G01*
X6719Y9501D01*
X6719Y9662D01*
X7155Y9662D01*
X7155Y9632D01*
X7155Y10132D02*
G75*
D01*
G02X7024Y10001I-131J0*
G01*
X6719Y10001D01*
X6719Y10162D01*
X7155Y10162D01*
X7155Y10132D01*
X6106Y9632D02*
X6106Y9662D01*
X6543Y9662D01*
X6543Y9501D01*
X6237Y9501D01*
G75*
D01*
G02X6106Y9632I0J131*
G01*
X6237Y9999D02*
X6543Y9999D01*
X6543Y9838D01*
X6106Y9838D01*
X6106Y9868D01*
G75*
D01*
G02X6237Y9999I131J0*
G01*
X6106Y10132D02*
X6106Y10162D01*
X6543Y10162D01*
X6543Y10001D01*
X6237Y10001D01*
G75*
D01*
G02X6106Y10132I0J131*
G01*
X7155Y13132D02*
G75*
D01*
G02X7024Y13001I-131J0*
G01*
X6237Y13001D01*
G75*
D01*
G02X6106Y13132I0J131*
G01*
X6106Y13368D01*
G75*
D01*
G02X6237Y13499I131J0*
G01*
X7024Y13499D01*
G74*
D01*
G02X7155Y13368I0J131*
G01*
X7155Y13132D01*
X736Y15787D02*
G75*
D01*
G02X736Y15787I642J0*
G01*
X2445Y13632D02*
X2445Y13662D01*
X2881Y13662D01*
X2881Y13501D01*
X2576Y13501D01*
G75*
D01*
G02X2445Y13632I0J131*
G01*
X2445Y13868D02*
G75*
D01*
G02X2576Y13999I131J0*
G01*
X2881Y13999D01*
X2881Y13838D01*
X2445Y13838D01*
X2445Y13868D01*
X3363Y13501D02*
X3057Y13501D01*
X3057Y13662D01*
X3494Y13662D01*
X3494Y13632D01*
G75*
D01*
G02X3363Y13501I-131J0*
G01*
X3494Y13868D02*
X3494Y13838D01*
X3057Y13838D01*
X3057Y13999D01*
X3363Y13999D01*
G74*
D01*
G02X3494Y13868I0J131*
G01*
X3478Y14431D02*
X3569Y14431D01*
G75*
D01*
G02X3500Y14069I230J-231*
G01*
X3478Y14069D01*
G74*
D01*
G02X3363Y14001I115J63*
G01*
X2576Y14001D01*
G75*
D01*
G02X2445Y14132I0J131*
G01*
X2445Y14368D01*
G75*
D01*
G02X2576Y14499I131J0*
G01*
X3363Y14499D01*
G74*
D01*
G02X3478Y14431I0J131*
G01*
X2445Y13368D02*
G75*
D01*
G02X2576Y13499I131J0*
G01*
X3363Y13499D01*
G74*
D01*
G02X3494Y13368I0J131*
G01*
X3494Y13132D01*
G75*
D01*
G02X3363Y13001I-131J0*
G01*
X2576Y13001D01*
G75*
D01*
G02X2445Y13132I0J131*
G01*
X2445Y13368D01*
X2320Y13777D02*
X2033Y13983D01*
X2320Y14190D01*
G74*
D01*
G02X2333Y14108I245J81*
G01*
X2333Y13858D01*
G75*
D01*
G02X2320Y13777I-258J0*
G01*
X1280Y13777D02*
G75*
D01*
G02X1267Y13858I245J81*
G01*
X1267Y14108D01*
G74*
D01*
G02X1280Y14190I258J1*
G01*
X1567Y13983D01*
X1280Y13777D01*
X2099Y14365D02*
X1800Y14151D01*
X1501Y14365D01*
G75*
D01*
G02X1525Y14366I23J-257*
G01*
X2075Y14366D01*
G74*
D01*
G02X2099Y14365I1J258*
G01*
X22299Y16765D02*
X22000Y16551D01*
X21701Y16765D01*
G75*
D01*
G02X21725Y16766I23J-257*
G01*
X22275Y16766D01*
G74*
D01*
G02X22299Y16765I1J258*
G01*
X22520Y16177D02*
X22233Y16383D01*
X22520Y16590D01*
G74*
D01*
G02X22533Y16508I245J81*
G01*
X22533Y16258D01*
G75*
D01*
G02X22520Y16177I-258J0*
G01*
X21701Y16002D02*
X22000Y16216D01*
X22299Y16002D01*
G74*
D01*
G02X22275Y16000I33J255*
G01*
X21725Y16000D01*
G75*
D01*
G02X21701Y16002I9J258*
G01*
X21480Y16177D02*
G75*
D01*
G02X21467Y16258I245J81*
G01*
X21467Y16508D01*
G74*
D01*
G02X21480Y16590I258J1*
G01*
X21767Y16383D01*
X21480Y16177D01*
X19588Y16145D02*
G75*
D01*
G02X19489Y16567I-288J155*
G01*
X19721Y16567D01*
X19721Y16592D01*
G75*
D01*
G02X19851Y16723I130J1*
G01*
X21229Y16723D01*
G74*
D01*
G02X21360Y16592I0J131*
G01*
X21360Y16120D01*
G75*
D01*
G02X21229Y15989I-131J0*
G01*
X19851Y15989D01*
G75*
D01*
G02X19721Y16120I1J131*
G01*
X19721Y16145D01*
X19588Y16145D01*
X22862Y15787D02*
G75*
D01*
G02X22862Y15787I642J0*
G01*
X23673Y13462D02*
G74*
D01*
G02X23938Y13727I426J161*
G01*
X23938Y13462D01*
X23673Y13462D01*
X24262Y13727D02*
G74*
D01*
G02X24527Y13462I161J426*
G01*
X24262Y13462D01*
X24262Y13727D01*
X23938Y12873D02*
G74*
D01*
G02X23673Y13138I161J426*
G01*
X23938Y13138D01*
X23938Y12873D01*
X24527Y13138D02*
G74*
D01*
G02X24262Y12873I426J161*
G01*
X24262Y13138D01*
X24527Y13138D01*
X23925Y13300D02*
G75*
D01*
G02X23925Y13300I175J0*
G01*
X23826Y10564D02*
X24014Y10564D01*
X24014Y10147D01*
X23675Y10147D01*
X23675Y10413D01*
G75*
D01*
G02X23826Y10564I151J0*
G01*
X24725Y10413D02*
X24725Y10147D01*
X24386Y10147D01*
X24386Y10564D01*
X24574Y10564D01*
G74*
D01*
G02X24725Y10413I0J151*
G01*
X21127Y9968D02*
G75*
D01*
G02X21127Y9968I233J0*
G01*
X23662Y11143D02*
X23943Y11143D01*
X23943Y10862D01*
G74*
D01*
G02X23662Y11143I53J334*
G01*
X23904Y11300D02*
G75*
D01*
G02X23904Y11300I196J0*
G01*
X23943Y11738D02*
X23943Y11457D01*
X23662Y11457D01*
G74*
D01*
G02X23943Y11738I334J53*
G01*
X24257Y10862D02*
X24257Y11143D01*
X24538Y11143D01*
G74*
D01*
G02X24257Y10862I334J53*
G01*
X24538Y11457D02*
X24257Y11457D01*
X24257Y11738D01*
G74*
D01*
G02X24538Y11457I53J334*
G01*
X21578Y9483D02*
G75*
D01*
G02X21142Y9483I-218J484*
G01*
X21360Y9702D01*
X21578Y9483D01*
X21360Y15332D02*
G75*
D01*
G02X21229Y15202I-131J1*
G01*
X19851Y15202D01*
G75*
D01*
G02X19721Y15332I0J130*
G01*
X19721Y15805D01*
G75*
D01*
G02X19851Y15935I130J0*
G01*
X21229Y15935D01*
G74*
D01*
G02X21360Y15805I1J130*
G01*
X21360Y15332D01*
X23484Y9075D02*
X23484Y9070D01*
X23152Y9070D01*
X23152Y9205D01*
X23354Y9205D01*
G74*
D01*
G02X23484Y9075I0J130*
G01*
X22802Y9205D02*
X23004Y9205D01*
X23004Y9070D01*
X22672Y9070D01*
X22672Y9075D01*
G75*
D01*
G02X22802Y9205I130J0*
G01*
X24725Y8386D02*
X24725Y8211D01*
X24379Y8211D01*
X24379Y8758D01*
X24725Y8758D01*
X24725Y8583D01*
G75*
D01*
G02X24688Y8484I-151J0*
G01*
G74*
D01*
G02X24725Y8386I113J99*
G01*
X23675Y8386D02*
G74*
D01*
G02X23712Y8484I151J1*
G01*
G75*
D01*
G02X23675Y8583I113J99*
G01*
X23675Y8758D01*
X24021Y8758D01*
X24021Y8211D01*
X23675Y8211D01*
X23675Y8386D01*
X23675Y7461D02*
G74*
D01*
G02X23721Y7569I151J1*
G01*
G75*
D01*
G02X23675Y7677I104J108*
G01*
X23675Y7852D01*
X24021Y7852D01*
X24021Y7526D01*
X24014Y7526D01*
X24014Y7194D01*
X23675Y7194D01*
X23675Y7461D01*
X24725Y7461D02*
X24725Y7194D01*
X24386Y7194D01*
X24386Y7526D01*
X24379Y7526D01*
X24379Y7852D01*
X24725Y7852D01*
X24725Y7677D01*
G75*
D01*
G02X24679Y7569I-151J1*
G01*
G74*
D01*
G02X24725Y7461I104J108*
G01*
X19541Y2818D02*
G75*
D01*
G02X19541Y2818I819J0*
G01*
X22722Y8922D02*
G75*
D01*
G02X22802Y8950I81J-102*
G01*
X23354Y8950D01*
G74*
D01*
G02X23434Y8922I1J131*
G01*
X23484Y8922D01*
X23484Y8917D01*
G75*
D01*
G02X23475Y8868I-130J-1*
G01*
G74*
D01*
G02X23484Y8819I121J48*
G01*
X23484Y8661D01*
G75*
D01*
G02X23475Y8612I-130J-1*
G01*
G74*
D01*
G02X23484Y8563I121J48*
G01*
X23484Y8406D01*
G75*
D01*
G02X23475Y8356I-130J-2*
G01*
G74*
D01*
G02X23484Y8307I121J48*
G01*
X23484Y8150D01*
G75*
D01*
G02X23475Y8100I-130J-2*
G01*
G74*
D01*
G02X23484Y8051I121J48*
G01*
X23484Y7894D01*
G75*
D01*
G02X23354Y7763I-130J-1*
G01*
X23104Y7763D01*
G74*
D01*
G02X23078Y7761I29J208*
G01*
X22760Y7761D01*
X22749Y7751D01*
G74*
D01*
G02X22600Y7689I149J148*
G01*
X22350Y7689D01*
G75*
D01*
G02X22350Y8111I-250J211*
G01*
X22513Y8111D01*
X22523Y8122D01*
G74*
D01*
G02X22672Y8183I148J150*
G01*
X22672Y8307D01*
G74*
D01*
G02X22681Y8356I130J1*
G01*
G75*
D01*
G02X22672Y8406I121J48*
G01*
X22672Y8563D01*
G74*
D01*
G02X22681Y8612I130J1*
G01*
G75*
D01*
G02X22672Y8661I121J48*
G01*
X22672Y8819D01*
G74*
D01*
G02X22681Y8868I130J1*
G01*
G75*
D01*
G02X22672Y8917I121J48*
G01*
X22672Y8922D01*
X22722Y8922D01*
X23826Y6404D02*
G75*
D01*
G02X23675Y6555I0J151*
G01*
X23675Y6822D01*
X24014Y6822D01*
X24014Y6404D01*
X23826Y6404D01*
X24574Y6404D02*
X24386Y6404D01*
X24386Y6822D01*
X24725Y6822D01*
X24725Y6555D01*
G75*
D01*
G02X24574Y6404I-151J0*
G01*
X23533Y4752D02*
X23136Y4752D01*
X23136Y5000D01*
X23275Y5000D01*
G74*
D01*
G02X23533Y4752I0J258*
G01*
X22725Y5000D02*
X22864Y5000D01*
X22864Y4752D01*
X22467Y4752D01*
G75*
D01*
G02X22725Y5000I258J-10*
G01*
X23643Y4750D02*
G75*
D01*
G02X23643Y4750I457J0*
G01*
X23275Y4234D02*
X23136Y4234D01*
X23136Y4481D01*
X23533Y4481D01*
G74*
D01*
G02X23275Y4234I258J11*
G01*
X22467Y4481D02*
X22864Y4481D01*
X22864Y4234D01*
X22725Y4234D01*
G75*
D01*
G02X22467Y4481I0J258*
G01*
X23532Y3931D02*
X23681Y3931D01*
G75*
D01*
G02X23681Y3569I419J-181*
G01*
X23517Y3569D01*
G74*
D01*
G02X23275Y3400I241J88*
G01*
X22725Y3400D01*
G75*
D01*
G02X22467Y3658I0J258*
G01*
X22467Y3908D01*
G75*
D01*
G02X22725Y4166I258J0*
G01*
X23275Y4166D01*
G74*
D01*
G02X23532Y3931I0J258*
G01*
X23533Y2752D02*
X23136Y2752D01*
X23136Y3000D01*
X23275Y3000D01*
G74*
D01*
G02X23533Y2752I0J258*
G01*
X22725Y3000D02*
X22864Y3000D01*
X22864Y2752D01*
X22467Y2752D01*
G75*
D01*
G02X22725Y3000I258J-10*
G01*
X23996Y2308D02*
G75*
D01*
G02X23658Y2646I0J338*
G01*
X23658Y2854D01*
G75*
D01*
G02X23996Y3192I338J0*
G01*
X24204Y3192D01*
G74*
D01*
G02X24542Y2854I0J338*
G01*
X24542Y2646D01*
G75*
D01*
G02X24204Y2308I-338J0*
G01*
X23996Y2308D01*
X23275Y2234D02*
X23136Y2234D01*
X23136Y2481D01*
X23533Y2481D01*
G74*
D01*
G02X23275Y2234I258J11*
G01*
X22467Y2481D02*
X22864Y2481D01*
X22864Y2234D01*
X22725Y2234D01*
G75*
D01*
G02X22467Y2481I0J258*
G01*
X22301Y2400D02*
G75*
D01*
G02X22242Y2258I-201J0*
G01*
X22124Y2140D01*
G75*
D01*
G02X21840Y2424I-324J-40*
G01*
X21899Y2483D01*
X21899Y5600D01*
G75*
D01*
G02X21958Y5742I201J0*
G01*
X22158Y5942D01*
G75*
D01*
G02X22300Y6001I142J-141*
G01*
X22484Y6001D01*
G75*
D01*
G02X22725Y6166I241J-93*
G01*
X23275Y6166D01*
G74*
D01*
G02X23527Y5964I0J258*
G01*
X23697Y5964D01*
G75*
D01*
G02X23668Y5602I402J-214*
G01*
X23527Y5602D01*
G74*
D01*
G02X23275Y5400I252J56*
G01*
X22725Y5400D01*
G75*
D01*
G02X22474Y5599I0J258*
G01*
X22383Y5599D01*
X22301Y5517D01*
X22301Y2400D01*
X22862Y1181D02*
G75*
D01*
G02X22862Y1181I642J0*
G01*
X22381Y1141D02*
X22098Y1141D01*
X22098Y1424D01*
G74*
D01*
G02X22381Y1141I31J314*
G01*
X22098Y544D02*
X22098Y828D01*
X22381Y828D01*
G74*
D01*
G02X22098Y544I315J30*
G01*
X21784Y1424D02*
X21784Y1141D01*
X21501Y1141D01*
G74*
D01*
G02X21784Y1424I314J31*
G01*
X21766Y984D02*
G75*
D01*
G02X21766Y984I175J0*
G01*
X21501Y828D02*
X21784Y828D01*
X21784Y544D01*
G74*
D01*
G02X21501Y828I32J314*
G01*
X13749Y15989D02*
X13190Y15989D01*
X13190Y16226D01*
X13879Y16226D01*
X13879Y16120D01*
G75*
D01*
G02X13749Y15989I-130J-1*
G01*
X13879Y16592D02*
X13879Y16486D01*
X13190Y16486D01*
X13190Y16723D01*
X13749Y16723D01*
G74*
D01*
G02X13879Y16592I1J131*
G01*
X12240Y16592D02*
G75*
D01*
G02X12371Y16723I131J0*
G01*
X12930Y16723D01*
X12930Y16486D01*
X12240Y16486D01*
X12240Y16592D01*
X12240Y16120D02*
X12240Y16226D01*
X12930Y16226D01*
X12930Y15989D01*
X12371Y15989D01*
G75*
D01*
G02X12240Y16120I0J131*
G01*
X12335Y15930D02*
G75*
D01*
G02X12371Y15935I36J-125*
G01*
X13749Y15935D01*
G74*
D01*
G02X13879Y15805I0J130*
G01*
X13879Y15332D01*
G75*
D01*
G02X13749Y15202I-130J0*
G01*
X12371Y15202D01*
G75*
D01*
G02X12335Y15207I0J130*
G01*
X10726Y15207D01*
G75*
D01*
G02X10587Y15930I-426J293*
G01*
X12335Y15930D01*
X11534Y14683D02*
G75*
D01*
G02X11534Y14317I-234J-183*
G01*
X11784Y14317D01*
G74*
D01*
G02X11483Y14016I484J183*
G01*
X11483Y14266D01*
G75*
D01*
G02X11117Y14266I-183J234*
G01*
X11117Y14016D01*
G74*
D01*
G02X10816Y14317I183J484*
G01*
X11066Y14317D01*
G75*
D01*
G02X11066Y14683I234J183*
G01*
X10816Y14683D01*
G74*
D01*
G02X11117Y14984I484J183*
G01*
X11117Y14734D01*
G75*
D01*
G02X11483Y14734I183J-234*
G01*
X11483Y14984D01*
G74*
D01*
G02X11784Y14683I183J484*
G01*
X11534Y14683D01*
X13749Y14414D02*
X13190Y14414D01*
X13190Y14651D01*
X13879Y14651D01*
X13879Y14545D01*
G75*
D01*
G02X13749Y14414I-130J-1*
G01*
X13879Y15017D02*
X13879Y14911D01*
X13190Y14911D01*
X13190Y15148D01*
X13749Y15148D01*
G74*
D01*
G02X13879Y15017I1J131*
G01*
X12240Y15017D02*
G75*
D01*
G02X12371Y15148I131J0*
G01*
X12930Y15148D01*
X12930Y14911D01*
X12240Y14911D01*
X12240Y15017D01*
X12240Y14545D02*
X12240Y14651D01*
X12930Y14651D01*
X12930Y14414D01*
X12371Y14414D01*
G75*
D01*
G02X12240Y14545I0J131*
G01*
X16435Y10099D02*
X16649Y9800D01*
X16435Y9501D01*
G75*
D01*
G02X16434Y9525I257J23*
G01*
X16434Y10075D01*
G74*
D01*
G02X16435Y10099I258J1*
G01*
X16610Y10320D02*
G75*
D01*
G02X16692Y10333I81J-245*
G01*
X16942Y10333D01*
G74*
D01*
G02X17023Y10320I0J258*
G01*
X16817Y10033D01*
X16610Y10320D01*
X10777Y10320D02*
G75*
D01*
G02X10858Y10333I81J-245*
G01*
X11108Y10333D01*
G74*
D01*
G02X11190Y10320I1J258*
G01*
X10983Y10033D01*
X10777Y10320D01*
X10602Y10099D02*
X10816Y9800D01*
X10602Y9501D01*
G75*
D01*
G02X10600Y9525I255J33*
G01*
X10600Y10075D01*
G74*
D01*
G02X10602Y10099I258J9*
G01*
X11365Y9501D02*
X11151Y9800D01*
X11365Y10099D01*
G74*
D01*
G02X11366Y10075I257J23*
G01*
X11366Y9525D01*
G75*
D01*
G02X11365Y9501I-258J-1*
G01*
X13749Y10477D02*
X13190Y10477D01*
X13190Y10714D01*
X13879Y10714D01*
X13879Y10608D01*
G75*
D01*
G02X13749Y10477I-130J-1*
G01*
X13879Y11080D02*
X13879Y10974D01*
X13190Y10974D01*
X13190Y11211D01*
X13749Y11211D01*
G74*
D01*
G02X13879Y11080I1J131*
G01*
X12240Y11080D02*
G75*
D01*
G02X12371Y11211I131J0*
G01*
X12930Y11211D01*
X12930Y10974D01*
X12240Y10974D01*
X12240Y11080D01*
X12240Y10608D02*
X12240Y10714D01*
X12930Y10714D01*
X12930Y10477D01*
X12371Y10477D01*
G75*
D01*
G02X12240Y10608I0J131*
G01*
X11635Y10099D02*
X11849Y9800D01*
X11635Y9501D01*
G75*
D01*
G02X11634Y9525I257J23*
G01*
X11634Y10075D01*
G74*
D01*
G02X11635Y10099I258J1*
G01*
X11810Y10320D02*
G75*
D01*
G02X11892Y10333I81J-245*
G01*
X12142Y10333D01*
G74*
D01*
G02X12223Y10320I0J258*
G01*
X12017Y10033D01*
X11810Y10320D01*
X12398Y9501D02*
X12184Y9800D01*
X12398Y10099D01*
G74*
D01*
G02X12400Y10075I255J33*
G01*
X12400Y9525D01*
G75*
D01*
G02X12398Y9501I-258J9*
G01*
X20800Y7989D02*
X18300Y7989D01*
G75*
D01*
G02X18194Y8017I-1J211*
G01*
X18194Y8004D01*
X18649Y7550D01*
G74*
D01*
G02X18711Y7400I149J149*
G01*
X18711Y4000D01*
G75*
D01*
G02X18649Y3851I-211J0*
G01*
X18466Y3668D01*
G74*
D01*
G02X18363Y3611I149J148*
G01*
G75*
D01*
G02X18316Y3606I-46J206*
G01*
X18118Y3606D01*
G74*
D01*
G02X17953Y3446I243J85*
G01*
X19587Y1811D01*
X20725Y1811D01*
G74*
D01*
G02X20875Y1749I1J211*
G01*
X21090Y1534D01*
G74*
D01*
G02X21152Y1384I149J149*
G01*
X21152Y1312D01*
G75*
D01*
G02X20895Y597I-212J-328*
G01*
X20449Y151D01*
X24731Y151D01*
X24731Y16818D01*
X11708Y16818D01*
G74*
D01*
G02X11784Y16683I407J318*
G01*
X11534Y16683D01*
G75*
D01*
G02X11534Y16317I-234J-183*
G01*
X11784Y16317D01*
G74*
D01*
G02X11483Y16016I484J183*
G01*
X11483Y16266D01*
G75*
D01*
G02X11117Y16266I-183J234*
G01*
X11117Y16016D01*
G74*
D01*
G02X10816Y16317I183J484*
G01*
X11066Y16317D01*
G75*
D01*
G02X11066Y16683I234J183*
G01*
X10816Y16683D01*
G74*
D01*
G02X10892Y16818I483J183*
G01*
X9708Y16818D01*
G74*
D01*
G02X9784Y16683I407J318*
G01*
X9534Y16683D01*
G75*
D01*
G02X9534Y16317I-234J-183*
G01*
X9784Y16317D01*
G74*
D01*
G02X9483Y16016I484J183*
G01*
X9483Y16266D01*
G75*
D01*
G02X9117Y16266I-183J234*
G01*
X9117Y16016D01*
G74*
D01*
G02X8816Y16317I183J484*
G01*
X9066Y16317D01*
G75*
D01*
G02X9066Y16683I234J183*
G01*
X8816Y16683D01*
G74*
D01*
G02X8892Y16818I483J183*
G01*
X151Y16818D01*
X151Y14298D01*
G75*
D01*
G02X325Y14366I174J-189*
G01*
X875Y14366D01*
G74*
D01*
G02X1133Y14108I0J258*
G01*
X1133Y13858D01*
G75*
D01*
G02X948Y13611I-258J0*
G01*
X1514Y13611D01*
X1800Y13816D01*
X2099Y13602D01*
G74*
D01*
G02X2075Y13600I33J255*
G01*
X1666Y13600D01*
G74*
D01*
G02X1669Y13599I65J200*
G01*
G74*
D01*
G02X1749Y13549I68J199*
G01*
X1949Y13349D01*
G74*
D01*
G02X2011Y13200I148J149*
G01*
X2011Y13200D01*
X2075Y13200D01*
G74*
D01*
G02X2332Y12961I0J258*
G01*
X2484Y12961D01*
G75*
D01*
G02X2576Y12999I92J-92*
G01*
X3363Y12999D01*
G74*
D01*
G02X3455Y12961I0J131*
G01*
X3803Y12961D01*
G75*
D01*
G02X4223Y12939I197J-261*
G01*
G74*
D01*
G02X4272Y13028I177J39*
G01*
X5622Y14378D01*
G75*
D01*
G02X5750Y14431I128J-128*
G01*
X6122Y14431D01*
G75*
D01*
G02X6237Y14499I115J-63*
G01*
X7024Y14499D01*
G74*
D01*
G02X7139Y14431I0J131*
G01*
X8350Y14431D01*
G74*
D01*
G02X8478Y14378I0J181*
G01*
X8875Y13981D01*
X11825Y13981D01*
X11966Y14122D01*
G75*
D01*
G02X12094Y14175I128J-128*
G01*
X12240Y14175D01*
X12240Y14230D01*
G75*
D01*
G02X12371Y14361I131J0*
G01*
X13749Y14361D01*
G74*
D01*
G02X13879Y14230I1J131*
G01*
X13879Y13757D01*
G75*
D01*
G02X13749Y13627I-130J0*
G01*
X12371Y13627D01*
G75*
D01*
G02X12240Y13757I-1J130*
G01*
X12240Y13813D01*
X12169Y13813D01*
X12028Y13672D01*
G74*
D01*
G02X11900Y13619I128J128*
G01*
X8800Y13619D01*
G75*
D01*
G02X8672Y13672I0J181*
G01*
X8275Y14069D01*
X7139Y14069D01*
G74*
D01*
G02X7024Y14001I115J63*
G01*
X6237Y14001D01*
G75*
D01*
G02X6122Y14069I0J131*
G01*
X5825Y14069D01*
X4581Y12825D01*
X4581Y7966D01*
X4675Y7966D01*
G74*
D01*
G02X4933Y7708I0J258*
G01*
X4933Y7458D01*
G75*
D01*
G02X4862Y7281I-258J1*
G01*
X5138Y7281D01*
G75*
D01*
G02X5067Y7458I186J177*
G01*
X5067Y7708D01*
G75*
D01*
G02X5325Y7966I258J0*
G01*
X5419Y7966D01*
X5419Y8125D01*
X4872Y8672D01*
G75*
D01*
G02X4819Y8800I128J128*
G01*
X4819Y12700D01*
G75*
D01*
G02X4872Y12828I181J0*
G01*
X5922Y13878D01*
G75*
D01*
G02X6050Y13931I128J-128*
G01*
X6122Y13931D01*
G75*
D01*
G02X6237Y13999I115J-63*
G01*
X7024Y13999D01*
G74*
D01*
G02X7139Y13931I0J131*
G01*
X8250Y13931D01*
G75*
D01*
G02X8298Y13924I-2J-181*
G01*
G74*
D01*
G02X8378Y13878I47J174*
G01*
X8869Y13387D01*
X12240Y13387D01*
X12240Y13443D01*
G75*
D01*
G02X12371Y13573I131J-1*
G01*
X13749Y13573D01*
G74*
D01*
G02X13879Y13443I0J130*
G01*
X13879Y12970D01*
G75*
D01*
G02X13749Y12839I-130J-1*
G01*
X12371Y12839D01*
G75*
D01*
G02X12240Y12970I0J131*
G01*
X12240Y13025D01*
X8794Y13025D01*
G75*
D01*
G02X8750Y13031I2J181*
G01*
G74*
D01*
G02X8666Y13078I43J175*
G01*
X8175Y13569D01*
X7139Y13569D01*
G74*
D01*
G02X7024Y13501I115J63*
G01*
X6237Y13501D01*
G75*
D01*
G02X6123Y13568I0J131*
G01*
X5181Y12625D01*
X5181Y8875D01*
X5728Y8328D01*
G74*
D01*
G02X5781Y8200I128J128*
G01*
X5781Y7966D01*
X5875Y7966D01*
G74*
D01*
G02X6133Y7708I0J258*
G01*
X6133Y7458D01*
G75*
D01*
G02X6062Y7281I-258J1*
G01*
X6338Y7281D01*
G75*
D01*
G02X6267Y7458I186J177*
G01*
X6267Y7708D01*
G75*
D01*
G02X6525Y7966I258J0*
G01*
X6578Y7966D01*
X5472Y9072D01*
G75*
D01*
G02X5419Y9200I128J128*
G01*
X5419Y12300D01*
G75*
D01*
G02X5472Y12428I181J0*
G01*
X5922Y12878D01*
G75*
D01*
G02X6050Y12931I128J-128*
G01*
X6122Y12931D01*
G75*
D01*
G02X6237Y12999I115J-63*
G01*
X7024Y12999D01*
G74*
D01*
G02X7139Y12931I0J131*
G01*
X8450Y12931D01*
G74*
D01*
G02X8578Y12878I0J181*
G01*
X8856Y12600D01*
X12240Y12600D01*
X12240Y12655D01*
G75*
D01*
G02X12371Y12786I131J0*
G01*
X13749Y12786D01*
G74*
D01*
G02X13879Y12655I1J131*
G01*
X13879Y12183D01*
G75*
D01*
G02X13749Y12052I-130J-1*
G01*
X12371Y12052D01*
G75*
D01*
G02X12240Y12183I0J131*
G01*
X12240Y12238D01*
X8781Y12238D01*
G75*
D01*
G02X8653Y12291I0J181*
G01*
X8375Y12569D01*
X7139Y12569D01*
G74*
D01*
G02X7024Y12501I115J63*
G01*
X6237Y12501D01*
G75*
D01*
G02X6123Y12568I0J131*
G01*
X5781Y12225D01*
X5781Y9275D01*
X6928Y8128D01*
G74*
D01*
G02X6981Y8000I128J128*
G01*
X6981Y7966D01*
X7075Y7966D01*
G74*
D01*
G02X7333Y7708I0J258*
G01*
X7333Y7458D01*
G75*
D01*
G02X7075Y7200I-258J0*
G01*
X6655Y7200D01*
X6928Y6928D01*
G74*
D01*
G02X6981Y6800I128J128*
G01*
X6981Y6800D01*
X7075Y6800D01*
G74*
D01*
G02X7333Y6542I0J258*
G01*
X7333Y6292D01*
G75*
D01*
G02X7075Y6034I-258J0*
G01*
X7022Y6034D01*
X7075Y5981D01*
X7600Y5981D01*
G75*
D01*
G02X7668Y5968I1J-181*
G01*
G74*
D01*
G02X7728Y5928I68J168*
G01*
X8719Y4937D01*
X8719Y9800D01*
G75*
D01*
G02X8772Y9928I181J0*
G01*
X9298Y10454D01*
X10099Y11255D01*
G74*
D01*
G02X9806Y11429I36J394*
G01*
X8850Y11429D01*
G75*
D01*
G02X8778Y11441I0J221*
G01*
G74*
D01*
G02X8694Y11494I73J209*
G01*
X8158Y12029D01*
X7105Y12029D01*
G74*
D01*
G02X7024Y12001I81J103*
G01*
X6237Y12001D01*
G75*
D01*
G02X6106Y12132I0J131*
G01*
X6106Y12368D01*
G75*
D01*
G02X6237Y12499I131J0*
G01*
X7024Y12499D01*
G74*
D01*
G02X7105Y12471I0J131*
G01*
X8250Y12471D01*
G75*
D01*
G02X8285Y12468I-1J-221*
G01*
G74*
D01*
G02X8407Y12406I34J217*
G01*
X8942Y11871D01*
X9806Y11871D01*
G75*
D01*
G02X10531Y11686I330J-218*
G01*
X10604Y11759D01*
G74*
D01*
G02X10672Y11802I128J127*
G01*
G75*
D01*
G02X10731Y11812I59J-170*
G01*
X12240Y11812D01*
X12240Y11868D01*
G75*
D01*
G02X12371Y11998I131J-1*
G01*
X13749Y11998D01*
G74*
D01*
G02X13879Y11868I0J130*
G01*
X13879Y11395D01*
G75*
D01*
G02X13749Y11265I-130J0*
G01*
X12371Y11265D01*
G75*
D01*
G02X12240Y11395I-1J130*
G01*
X12240Y11451D01*
X10806Y11451D01*
X9689Y10333D01*
G75*
D01*
G02X9692Y10333I2J-258*
G01*
X9942Y10333D01*
G74*
D01*
G02X10200Y10075I0J258*
G01*
X10200Y9525D01*
G75*
D01*
G02X9998Y9273I-258J0*
G01*
X9998Y8942D01*
X10417Y8522D01*
G75*
D01*
G02X10906Y8034I118J-371*
G01*
X11466Y7473D01*
G74*
D01*
G02X11494Y7438I125J129*
G01*
G74*
D01*
G02X11526Y7481I159J85*
G01*
X12078Y8034D01*
G75*
D01*
G02X12566Y8522I371J117*
G01*
X13002Y8958D01*
X13002Y9273D01*
G75*
D01*
G02X12800Y9525I56J252*
G01*
X12800Y10075D01*
G75*
D01*
G02X13058Y10333I258J0*
G01*
X13308Y10333D01*
G74*
D01*
G02X13566Y10075I0J258*
G01*
X13566Y9525D01*
G75*
D01*
G02X13364Y9273I-258J0*
G01*
X13364Y8883D01*
G75*
D01*
G02X13311Y8755I-181J0*
G01*
X12822Y8266D01*
G75*
D01*
G02X12758Y7911I-371J-116*
G01*
X14100Y7911D01*
G75*
D01*
G02X14157Y7903I-1J-211*
G01*
G74*
D01*
G02X14249Y7849I57J202*
G01*
X14688Y7410D01*
G75*
D01*
G02X14925Y7566I237J-102*
G01*
X14989Y7566D01*
X14989Y7850D01*
G75*
D01*
G02X15411Y7850I211J250*
G01*
X15411Y7566D01*
X15475Y7566D01*
G74*
D01*
G02X15718Y7394I0J258*
G01*
X16125Y7394D01*
X16798Y8067D01*
X16692Y8067D01*
G75*
D01*
G02X16610Y8080I-1J258*
G01*
X16817Y8367D01*
X16934Y8203D01*
X17129Y8398D01*
X16984Y8600D01*
X17198Y8899D01*
G74*
D01*
G02X17200Y8875I255J33*
G01*
X17200Y8469D01*
X17480Y8749D01*
G74*
D01*
G02X17573Y8803I148J149*
G01*
G74*
D01*
G02X17600Y8809I59J202*
G01*
X17600Y8875D01*
G74*
D01*
G02X17633Y9000I258J1*
G01*
G74*
D01*
G02X17551Y9051I67J199*
G01*
X17251Y9351D01*
G75*
D01*
G02X17189Y9500I148J149*
G01*
X17189Y9514D01*
X16984Y9800D01*
X17189Y10086D01*
X17189Y12213D01*
X16727Y12674D01*
G75*
D01*
G02X17026Y12973I-27J326*
G01*
X17549Y12449D01*
G74*
D01*
G02X17611Y12300I148J149*
G01*
X17611Y10148D01*
G75*
D01*
G02X17858Y10333I247J-72*
G01*
X18108Y10333D01*
G74*
D01*
G02X18366Y10081I0J258*
G01*
X18383Y10081D01*
X18469Y10167D01*
G74*
D01*
G02X18605Y10243I200J198*
G01*
G75*
D01*
G02X18668Y10250I62J-275*
G01*
X18909Y10250D01*
G75*
D01*
G02X19860Y10149I451J-280*
G01*
G74*
D01*
G02X20206Y10477I499J180*
G01*
X19851Y10477D01*
G75*
D01*
G02X19721Y10608I1J131*
G01*
X19721Y11080D01*
G75*
D01*
G02X19851Y11211I130J1*
G01*
X21229Y11211D01*
G74*
D01*
G02X21319Y11175I0J131*
G01*
X21319Y11301D01*
G74*
D01*
G02X21229Y11265I90J94*
G01*
X19851Y11265D01*
G75*
D01*
G02X19721Y11395I0J130*
G01*
X19721Y11868D01*
G75*
D01*
G02X19851Y11998I130J0*
G01*
X21229Y11998D01*
G74*
D01*
G02X21319Y11962I0J130*
G01*
X21319Y12088D01*
G74*
D01*
G02X21229Y12052I90J94*
G01*
X19851Y12052D01*
G75*
D01*
G02X19721Y12183I1J131*
G01*
X19721Y12655D01*
G75*
D01*
G02X19851Y12786I130J1*
G01*
X21229Y12786D01*
G74*
D01*
G02X21319Y12750I0J131*
G01*
X21319Y12875D01*
G74*
D01*
G02X21229Y12839I90J94*
G01*
X19851Y12839D01*
G75*
D01*
G02X19721Y12970I1J131*
G01*
X19721Y13443D01*
G75*
D01*
G02X19851Y13573I130J0*
G01*
X21229Y13573D01*
G74*
D01*
G02X21319Y13537I0J130*
G01*
X21319Y13663D01*
G74*
D01*
G02X21229Y13627I90J94*
G01*
X19851Y13627D01*
G75*
D01*
G02X19721Y13757I0J130*
G01*
X19721Y14230D01*
G75*
D01*
G02X19851Y14361I130J1*
G01*
X21229Y14361D01*
G74*
D01*
G02X21319Y14325I0J131*
G01*
X21319Y14450D01*
G74*
D01*
G02X21229Y14414I90J94*
G01*
X19851Y14414D01*
G75*
D01*
G02X19721Y14545I1J131*
G01*
X19721Y15017D01*
G75*
D01*
G02X19851Y15148I130J1*
G01*
X21229Y15148D01*
G74*
D01*
G02X21360Y15017I0J131*
G01*
X21360Y15014D01*
G74*
D01*
G02X21372Y15028I142J110*
G01*
X21467Y15123D01*
X21467Y15342D01*
G75*
D01*
G02X21725Y15600I258J0*
G01*
X22275Y15600D01*
G74*
D01*
G02X22533Y15342I0J258*
G01*
X22533Y15092D01*
G75*
D01*
G02X22275Y14834I-258J0*
G01*
X21725Y14834D01*
G75*
D01*
G02X21692Y14836I-1J258*
G01*
X21681Y14825D01*
X21681Y14643D01*
G75*
D01*
G02X22183Y14564I219J-243*
G01*
X22273Y14564D01*
G75*
D01*
G02X22525Y14766I252J-56*
G01*
X23075Y14766D01*
G74*
D01*
G02X23327Y14564I0J258*
G01*
X23727Y14564D01*
G75*
D01*
G02X23654Y14202I372J-263*
G01*
X23327Y14202D01*
G74*
D01*
G02X23075Y14000I252J56*
G01*
X22525Y14000D01*
G75*
D01*
G02X22273Y14202I0J258*
G01*
X22160Y14202D01*
G75*
D01*
G02X21681Y14157I-260J197*
G01*
X21681Y11000D01*
G75*
D01*
G02X21628Y10872I-181J0*
G01*
X21472Y10716D01*
G74*
D01*
G02X21402Y10673I127J129*
G01*
G74*
D01*
G02X21360Y10664I58J170*
G01*
X21360Y10608D01*
G75*
D01*
G02X21297Y10496I-131J0*
G01*
G75*
D01*
G02X21578Y10453I63J-527*
G01*
X21360Y10235D01*
X21142Y10453D01*
G74*
D01*
G02X21206Y10477I218J484*
G01*
X20514Y10477D01*
G74*
D01*
G02X20860Y10149I153J508*
G01*
G74*
D01*
G02X20875Y10187I501J176*
G01*
X21093Y9968D01*
X20875Y9750D01*
G74*
D01*
G02X20860Y9787I484J218*
G01*
G74*
D01*
G02X20641Y9517I499J181*
G01*
X20641Y9360D01*
G75*
D01*
G02X20559Y9161I-281J-1*
G01*
X19809Y8411D01*
X20713Y8411D01*
X21600Y9298D01*
X21600Y9298D01*
X21789Y9487D01*
X21789Y9806D01*
X21627Y9968D01*
X21789Y10131D01*
X21789Y11183D01*
G75*
D01*
G02X21851Y11333I211J1*
G01*
X22284Y11766D01*
G75*
D01*
G02X22267Y11858I240J92*
G01*
X22267Y12108D01*
G75*
D01*
G02X22525Y12366I258J0*
G01*
X22589Y12366D01*
X22589Y12834D01*
X22525Y12834D01*
G75*
D01*
G02X22267Y13092I0J258*
G01*
X22267Y13342D01*
G75*
D01*
G02X22525Y13600I258J0*
G01*
X23075Y13600D01*
G74*
D01*
G02X23333Y13342I0J258*
G01*
X23333Y13092D01*
G75*
D01*
G02X23075Y12834I-258J0*
G01*
X23011Y12834D01*
X23011Y12366D01*
X23075Y12366D01*
G74*
D01*
G02X23333Y12108I0J258*
G01*
X23333Y11889D01*
X23653Y12208D01*
G75*
D01*
G02X23864Y11909I447J91*
G01*
X23146Y11190D01*
G74*
D01*
G02X23333Y10942I70J247*
G01*
X23333Y10692D01*
G75*
D01*
G02X23075Y10434I-258J0*
G01*
X23028Y10434D01*
G75*
D01*
G02X22572Y10434I-228J-233*
G01*
X22525Y10434D01*
G75*
D01*
G02X22267Y10692I0J258*
G01*
X22267Y10942D01*
G75*
D01*
G02X22525Y11200I258J0*
G01*
X22649Y11200D01*
G74*
D01*
G02X22672Y11228I151J100*
G01*
X23045Y11600D01*
X22716Y11600D01*
X22211Y11096D01*
X22211Y9400D01*
G75*
D01*
G02X22149Y9251I-211J0*
G01*
X20949Y8051D01*
G74*
D01*
G02X20800Y7989I149J148*
G01*
X2445Y11368D02*
X2445Y11338D01*
X2881Y11338D01*
X2881Y11499D01*
X2576Y11499D01*
G75*
D01*
G03X2445Y11368I0J-131*
G01*
X3494Y11368D02*
G74*
D01*
G03X3363Y11499I131J0*
G01*
X3057Y11499D01*
X3057Y11338D01*
X3494Y11338D01*
X3494Y11368D01*
X2445Y11868D02*
X2445Y11632D01*
G75*
D01*
G03X2576Y11501I131J0*
G01*
X3363Y11501D01*
G75*
D01*
G03X3494Y11632I0J131*
G01*
X3494Y11868D01*
G74*
D01*
G03X3363Y11999I131J0*
G01*
X2576Y11999D01*
G75*
D01*
G03X2445Y11868I0J-131*
G01*
X1924Y11279D02*
X1924Y11509D01*
X1694Y11509D01*
G74*
D01*
G03X1924Y11279I370J140*
G01*
X1694Y11791D02*
X1924Y11791D01*
X1924Y12021D01*
G74*
D01*
G03X1694Y11791I140J370*
G01*
X2205Y12021D02*
X2205Y11791D01*
X2436Y11791D01*
G74*
D01*
G03X2205Y12021I370J141*
G01*
X2436Y11509D02*
X2205Y11509D01*
X2205Y11279D01*
G74*
D01*
G03X2436Y11509I139J371*
G01*
X1868Y11650D02*
G75*
D01*
G03X1868Y11650I197J0*
G01*
X2445Y10368D02*
X2445Y10338D01*
X2881Y10338D01*
X2881Y10499D01*
X2576Y10499D01*
G75*
D01*
G03X2445Y10368I0J-131*
G01*
X2445Y10632D02*
G75*
D01*
G03X2576Y10501I131J0*
G01*
X2881Y10501D01*
X2881Y10662D01*
X2445Y10662D01*
X2445Y10632D01*
X2445Y10868D02*
X2445Y10838D01*
X2881Y10838D01*
X2881Y10999D01*
X2576Y10999D01*
G75*
D01*
G03X2445Y10868I0J-131*
G01*
X3494Y10368D02*
G74*
D01*
G03X3363Y10499I131J0*
G01*
X3057Y10499D01*
X3057Y10338D01*
X3494Y10338D01*
X3494Y10368D01*
X3494Y10868D02*
G74*
D01*
G03X3363Y10999I131J0*
G01*
X3057Y10999D01*
X3057Y10838D01*
X3494Y10838D01*
X3494Y10868D01*
X3363Y10501D02*
G75*
D01*
G03X3494Y10632I0J131*
G01*
X3494Y10662D01*
X3057Y10662D01*
X3057Y10501D01*
X3363Y10501D01*
X3363Y11001D02*
G75*
D01*
G03X3494Y11132I0J131*
G01*
X3494Y11162D01*
X3057Y11162D01*
X3057Y11001D01*
X3363Y11001D01*
X2445Y11132D02*
G75*
D01*
G03X2576Y11001I131J0*
G01*
X2881Y11001D01*
X2881Y11162D01*
X2445Y11162D01*
X2445Y11132D01*
X2445Y9632D02*
G75*
D01*
G03X2576Y9501I131J0*
G01*
X2881Y9501D01*
X2881Y9662D01*
X2445Y9662D01*
X2445Y9632D01*
X2445Y9868D02*
X2445Y9838D01*
X2881Y9838D01*
X2881Y9999D01*
X2576Y9999D01*
G75*
D01*
G03X2445Y9868I0J-131*
G01*
X2445Y10132D02*
G75*
D01*
G03X2576Y10001I131J0*
G01*
X2881Y10001D01*
X2881Y10162D01*
X2445Y10162D01*
X2445Y10132D01*
X3494Y9868D02*
G74*
D01*
G03X3363Y9999I131J0*
G01*
X3057Y9999D01*
X3057Y9838D01*
X3494Y9838D01*
X3494Y9868D01*
X3363Y9501D02*
G75*
D01*
G03X3494Y9632I0J131*
G01*
X3494Y9662D01*
X3057Y9662D01*
X3057Y9501D01*
X3363Y9501D01*
X3363Y10001D02*
G75*
D01*
G03X3494Y10132I0J131*
G01*
X3494Y10162D01*
X3057Y10162D01*
X3057Y10001D01*
X3363Y10001D01*
X736Y1181D02*
G75*
D01*
G03X736Y1181I642J0*
G01*
X2151Y551D02*
X2551Y151D01*
X151Y151D01*
X151Y12502D01*
G74*
D01*
G03X325Y12434I174J189*
G01*
X419Y12434D01*
X419Y12400D01*
G75*
D01*
G03X472Y12272I181J0*
G01*
X622Y12122D01*
G74*
D01*
G03X694Y12078I128J128*
G01*
G75*
D01*
G03X750Y12069I56J171*
G01*
X2461Y12069D01*
G75*
D01*
G03X2576Y12001I115J63*
G01*
X3363Y12001D01*
G75*
D01*
G03X3494Y12132I0J131*
G01*
X3494Y12368D01*
G74*
D01*
G03X3363Y12499I131J0*
G01*
X2576Y12499D01*
G75*
D01*
G03X2461Y12431I0J-131*
G01*
X825Y12431D01*
X822Y12434D01*
X875Y12434D01*
G75*
D01*
G03X1133Y12692I0J258*
G01*
X1133Y12942D01*
G74*
D01*
G03X948Y13189I258J0*
G01*
X1452Y13189D01*
G74*
D01*
G03X1267Y12942I72J247*
G01*
X1267Y12692D01*
G75*
D01*
G03X1525Y12434I258J0*
G01*
X2075Y12434D01*
G74*
D01*
G03X2283Y12539I0J258*
G01*
X2484Y12539D01*
G75*
D01*
G03X2576Y12501I92J92*
G01*
X3363Y12501D01*
G74*
D01*
G03X3455Y12539I0J131*
G01*
X3716Y12539D01*
G75*
D01*
G03X4219Y12457I284J160*
G01*
X4219Y7966D01*
X4125Y7966D01*
G75*
D01*
G03X3867Y7708I0J-258*
G01*
X3867Y7458D01*
G75*
D01*
G03X3938Y7281I258J1*
G01*
X1700Y7281D01*
G75*
D01*
G03X1632Y7267I2J-181*
G01*
G74*
D01*
G03X1572Y7228I66J167*
G01*
X772Y6428D01*
G75*
D01*
G03X719Y6300I128J-128*
G01*
X719Y5450D01*
G75*
D01*
G03X772Y5322I181J0*
G01*
X1026Y5069D01*
G75*
D01*
G03X1769Y4573I422J-172*
G01*
X1769Y4400D01*
G75*
D01*
G03X1822Y4272I181J0*
G01*
X2016Y4078D01*
G74*
D01*
G03X2008Y4004I330J73*
G01*
X2008Y3796D01*
X2008Y3790D01*
X1907Y3892D01*
G75*
D01*
G03X1239Y3495I-457J8*
G01*
X1239Y2850D01*
G75*
D01*
G03X1301Y2701I211J0*
G01*
X2089Y1913D01*
X2089Y700D01*
G75*
D01*
G03X2151Y551I211J0*
G01*
X9398Y2101D02*
G75*
D01*
G03X9400Y2125I-255J33*
G01*
X9400Y2675D01*
G74*
D01*
G03X9398Y2699I258J9*
G01*
X9298Y2559D01*
X9298Y2559D01*
X9184Y2400D01*
X9298Y2241D01*
X9298Y2241D01*
X9398Y2101D01*
X4551Y984D02*
G75*
D01*
G03X4551Y984I390J0*
G01*
X2760Y1330D02*
G75*
D01*
G03X3122Y1330I181J-345*
G01*
X3122Y2066D01*
X3275Y2219D01*
X3834Y2219D01*
X3834Y2125D01*
G75*
D01*
G03X4092Y1867I258J0*
G01*
X4342Y1867D01*
G75*
D01*
G03X4600Y2125I0J258*
G01*
X4600Y2675D01*
G74*
D01*
G03X4342Y2933I258J0*
G01*
X4092Y2933D01*
G75*
D01*
G03X3834Y2675I0J-258*
G01*
X3834Y2581D01*
X3200Y2581D01*
G75*
D01*
G03X3072Y2528I0J-181*
G01*
X2813Y2269D01*
G75*
D01*
G03X2760Y2141I128J-128*
G01*
X2760Y1330D01*
X8635Y2699D02*
G74*
D01*
G03X8634Y2675I257J23*
G01*
X8634Y2125D01*
G75*
D01*
G03X8635Y2101I258J-1*
G01*
X8849Y2400D01*
X8635Y2699D01*
X9223Y1880D02*
X9017Y2167D01*
X8810Y1880D01*
G75*
D01*
G03X8892Y1867I81J245*
G01*
X9142Y1867D01*
G74*
D01*
G03X9223Y1880I0J258*
G01*
X9223Y2920D02*
G74*
D01*
G03X9142Y2933I81J245*
G01*
X8892Y2933D01*
G75*
D01*
G03X8810Y2920I-1J-258*
G01*
X9017Y2633D01*
X9223Y2920D01*
X5248Y2933D02*
G74*
D01*
G03X5000Y2675I10J258*
G01*
X5000Y2536D01*
X5248Y2536D01*
X5248Y2933D01*
X7520Y3716D02*
X7233Y3510D01*
X7520Y3304D01*
G75*
D01*
G03X7533Y3385I-245J81*
G01*
X7533Y3635D01*
G74*
D01*
G03X7520Y3716I258J0*
G01*
X6480Y3716D02*
G74*
D01*
G03X6467Y3635I245J81*
G01*
X6467Y3385D01*
G75*
D01*
G03X6480Y3304I258J0*
G01*
X6767Y3510D01*
X6480Y3716D01*
X9614Y771D02*
X9267Y771D01*
G75*
D01*
G03X8614Y771I-326J211*
G01*
X8267Y771D01*
G75*
D01*
G03X7614Y771I-326J211*
G01*
X7385Y771D01*
X7307Y849D01*
G75*
D01*
G03X7038Y606I-366J135*
G01*
X7053Y591D01*
X6565Y591D01*
X6307Y849D01*
G75*
D01*
G03X6038Y606I-366J135*
G01*
X6233Y411D01*
X2887Y411D01*
X2511Y787D01*
X2511Y2000D01*
G74*
D01*
G03X2449Y2149I211J0*
G01*
X1661Y2937D01*
X1661Y3495D01*
G74*
D01*
G03X1690Y3511I206J407*
G01*
X2000Y3201D01*
G75*
D01*
G03X2150Y3139I149J149*
G01*
X3905Y3139D01*
X3905Y3114D01*
G75*
D01*
G03X4036Y2984I131J1*
G01*
X4764Y2984D01*
G75*
D01*
G03X4895Y3114I1J130*
G01*
X4895Y3144D01*
G74*
D01*
G03X5000Y3201I44J205*
G01*
X5086Y3288D01*
G75*
D01*
G03X5325Y3127I238J96*
G01*
X5479Y3127D01*
X5479Y3110D01*
G74*
D01*
G03X5541Y2961I211J0*
G01*
X5541Y2961D01*
X5578Y2923D01*
G74*
D01*
G03X5519Y2933I72J247*
G01*
X5519Y2536D01*
X5766Y2536D01*
X5766Y2675D01*
G74*
D01*
G03X5734Y2800I258J1*
G01*
G75*
D01*
G03X5800Y2789I67J199*
G01*
X6260Y2789D01*
G74*
D01*
G03X6234Y2675I232J113*
G01*
X6234Y2581D01*
X6200Y2581D01*
G75*
D01*
G03X6136Y2569I1J-181*
G01*
G74*
D01*
G03X6072Y2528I63J169*
G01*
X5766Y2222D01*
X5766Y2264D01*
X5519Y2264D01*
X5519Y1975D01*
X5425Y1881D01*
X5248Y1881D01*
X5248Y2264D01*
X5000Y2264D01*
X5000Y2125D01*
G75*
D01*
G03X5175Y1881I258J0*
G01*
X4657Y1881D01*
G75*
D01*
G03X4642Y1880I5J-181*
G01*
G74*
D01*
G03X4529Y1828I14J179*
G01*
X4057Y1356D01*
G75*
D01*
G03X4313Y1101I-115J-372*
G01*
X4732Y1519D01*
X5500Y1519D01*
G75*
D01*
G03X5517Y1520I-2J181*
G01*
G74*
D01*
G03X5628Y1572I16J179*
G01*
X6234Y2178D01*
X6234Y2125D01*
G75*
D01*
G03X6492Y1867I258J0*
G01*
X6742Y1867D01*
G75*
D01*
G03X7000Y2125I0J258*
G01*
X7000Y2602D01*
X7351Y2251D01*
G74*
D01*
G03X7400Y2214I150J147*
G01*
X7400Y2125D01*
G75*
D01*
G03X7658Y1867I258J0*
G01*
X7908Y1867D01*
G75*
D01*
G03X8166Y2125I0J258*
G01*
X8166Y2675D01*
G74*
D01*
G03X7908Y2933I258J0*
G01*
X7658Y2933D01*
G75*
D01*
G03X7421Y2777I0J-258*
G01*
X7071Y3127D01*
X7275Y3127D01*
G74*
D01*
G03X7299Y3128I1J258*
G01*
X7000Y3343D01*
X6816Y3211D01*
X6065Y3211D01*
G75*
D01*
G03X6133Y3385I-189J174*
G01*
X6133Y3635D01*
G74*
D01*
G03X5875Y3893I258J0*
G01*
X5325Y3893D01*
G75*
D01*
G03X5082Y3721I0J-258*
G01*
X5010Y3721D01*
G75*
D01*
G03X4868Y3666I0J-211*
G01*
G74*
D01*
G03X4764Y3717I103J79*
G01*
X4036Y3717D01*
G75*
D01*
G03X3905Y3587I-1J-130*
G01*
X3905Y3561D01*
X2797Y3561D01*
G75*
D01*
G03X2892Y3796I-243J235*
G01*
X2892Y4004D01*
G74*
D01*
G03X2554Y4342I338J0*
G01*
X2346Y4342D01*
G75*
D01*
G03X2272Y4334I-1J-338*
G01*
X2131Y4475D01*
X2131Y4573D01*
G75*
D01*
G03X2874Y5069I321J324*
G01*
X3929Y6124D01*
G75*
D01*
G03X4125Y6034I196J168*
G01*
X4219Y6034D01*
X4219Y5900D01*
G75*
D01*
G03X4272Y5772I181J0*
G01*
X4418Y5626D01*
G75*
D01*
G03X4199Y5042I-21J-325*
G01*
X4199Y5016D01*
X4036Y5016D01*
G75*
D01*
G03X3905Y4886I-1J-130*
G01*
X3905Y4413D01*
G75*
D01*
G03X4036Y4283I131J1*
G01*
X4764Y4283D01*
G75*
D01*
G03X4895Y4413I1J130*
G01*
X4895Y4469D01*
X5081Y4469D01*
G75*
D01*
G03X5325Y4294I244J82*
G01*
X5875Y4294D01*
G74*
D01*
G03X6127Y4496I0J258*
G01*
X6473Y4496D01*
G75*
D01*
G03X6725Y4294I252J56*
G01*
X6737Y4294D01*
G75*
D01*
G03X6747Y3893I262J-194*
G01*
X6725Y3893D01*
G75*
D01*
G03X6701Y3892I-1J-258*
G01*
X7000Y3677D01*
X7299Y3892D01*
G74*
D01*
G03X7275Y3893I23J257*
G01*
X7253Y3893D01*
G75*
D01*
G03X7263Y4294I-252J207*
G01*
X7275Y4294D01*
G75*
D01*
G03X7533Y4552I0J258*
G01*
X7533Y4711D01*
X9345Y2899D01*
G74*
D01*
G03X9432Y2851I128J128*
G01*
G75*
D01*
G03X9473Y2846I42J175*
G01*
X9865Y2846D01*
G74*
D01*
G03X9800Y2675I192J171*
G01*
X9800Y2125D01*
G75*
D01*
G03X10058Y1867I258J0*
G01*
X10308Y1867D01*
G75*
D01*
G03X10566Y2125I0J258*
G01*
X10566Y2189D01*
X11500Y2189D01*
G75*
D01*
G03X11542Y2193I1J211*
G01*
G74*
D01*
G03X11619Y2226I43J207*
G01*
X11619Y2000D01*
G75*
D01*
G03X11672Y1872I181J0*
G01*
X11872Y1672D01*
G75*
D01*
G03X12000Y1619I128J128*
G01*
X13800Y1619D01*
G74*
D01*
G03X13928Y1672I0J181*
G01*
X14125Y1869D01*
X14520Y1869D01*
G75*
D01*
G03X14480Y1635I280J-168*
G01*
X14372Y1528D01*
G75*
D01*
G03X14319Y1400I128J-128*
G01*
X14319Y1080D01*
G75*
D01*
G03X13614Y771I-378J-97*
G01*
X13267Y771D01*
G75*
D01*
G03X12614Y771I-326J211*
G01*
X12267Y771D01*
G75*
D01*
G03X11614Y771I-326J211*
G01*
X11267Y771D01*
G75*
D01*
G03X10614Y771I-326J211*
G01*
X10267Y771D01*
G75*
D01*
G03X9614Y771I-326J211*
G01*
X19551Y984D02*
G75*
D01*
G02X19551Y984I390J0*
G01*
X19122Y1330D02*
G75*
D01*
G02X18760Y1330I-181J-345*
G01*
X18760Y1384D01*
X18747Y1397D01*
X16198Y3947D01*
X16009Y3947D01*
G74*
D01*
G02X16016Y3940I124J131*
G01*
X18069Y1887D01*
G74*
D01*
G02X18122Y1759I128J128*
G01*
X18122Y1330D01*
G75*
D01*
G02X17760Y1330I-181J-345*
G01*
X17760Y1684D01*
X15812Y3632D01*
X15031Y3632D01*
G75*
D01*
G02X14946Y3108I-231J-231*
G01*
X16173Y3108D01*
G75*
D01*
G02X16234Y3097I-1J-181*
G01*
G74*
D01*
G02X16301Y3054I61J169*
G01*
X17069Y2287D01*
G74*
D01*
G02X17122Y2159I128J128*
G01*
X17122Y1330D01*
G75*
D01*
G02X16760Y1330I-181J-345*
G01*
X16760Y2084D01*
X16418Y2426D01*
G75*
D01*
G02X15869Y2269I-318J73*
G01*
X13050Y2269D01*
G75*
D01*
G02X13043Y2269I-3J181*
G01*
G74*
D01*
G02X12922Y2322I7J181*
G01*
X12785Y2459D01*
G74*
D01*
G02X12754Y2501I129J127*
G01*
G74*
D01*
G02X12680Y2481I75J130*
G01*
X12680Y2845D01*
X12683Y2845D01*
X12683Y3009D01*
X12680Y3009D01*
X12680Y3373D01*
G74*
D01*
G02X12756Y3351I3J151*
G01*
G75*
D01*
G02X12833Y3373I78J-128*
G01*
X12993Y3373D01*
G74*
D01*
G02X13047Y3363I0J151*
G01*
X13047Y3597D01*
X11725Y4919D01*
X11672Y4919D01*
G74*
D01*
G02X11651Y4890I274J176*
G01*
G75*
D01*
G02X11818Y4526I-150J-289*
G01*
G75*
D01*
G02X12072Y4019I-17J-326*
G01*
G75*
D01*
G02X12326Y3673I-72J-319*
G01*
X12432Y3566D01*
G74*
D01*
G02X12494Y3417I148J149*
G01*
X12494Y3371D01*
G74*
D01*
G02X12517Y3373I25J149*
G01*
X12517Y3009D01*
X12514Y3009D01*
X12514Y2845D01*
X12517Y2845D01*
X12517Y2481D01*
G74*
D01*
G02X12441Y2502I1J150*
G01*
G74*
D01*
G02X12363Y2481I77J129*
G01*
X12204Y2481D01*
G75*
D01*
G02X12149Y2491I-1J150*
G01*
X12149Y2469D01*
G75*
D01*
G02X12096Y2340I-180J-1*
G01*
X11981Y2225D01*
X11981Y2075D01*
X12075Y1981D01*
X13725Y1981D01*
X13922Y2178D01*
G75*
D01*
G02X14050Y2231I128J-128*
G01*
X15650Y2231D01*
G74*
D01*
G02X15778Y2178I0J181*
G01*
X16198Y1757D01*
G75*
D01*
G02X16264Y1203I201J-257*
G01*
G75*
D01*
G02X15581Y834I-323J-218*
G01*
X15581Y600D01*
G75*
D01*
G02X15528Y472I-181J0*
G01*
X15467Y411D01*
X20113Y411D01*
X20569Y867D01*
G75*
D01*
G02X20721Y1306I371J117*
G01*
X20638Y1389D01*
X19500Y1389D01*
G75*
D01*
G02X19351Y1451I0J211*
G01*
X18747Y2055D01*
X17451Y3351D01*
G74*
D01*
G02X17400Y3434I149J148*
G01*
X17325Y3434D01*
G75*
D01*
G02X17171Y3485I0J258*
G01*
X18747Y1909D01*
X18747Y1909D01*
X19069Y1587D01*
G74*
D01*
G02X19122Y1459I128J128*
G01*
X19122Y1330D01*
X15499Y6398D02*
G74*
D01*
G03X15475Y6400I33J255*
G01*
X14925Y6400D01*
G75*
D01*
G03X14901Y6398I9J-258*
G01*
X15200Y6184D01*
X15499Y6398D01*
X14680Y5810D02*
X14967Y6017D01*
X14680Y6223D01*
G74*
D01*
G03X14667Y6142I245J81*
G01*
X14667Y5892D01*
G75*
D01*
G03X14680Y5810I258J-1*
G01*
X14901Y5635D02*
G75*
D01*
G03X14925Y5634I23J257*
G01*
X15475Y5634D01*
G74*
D01*
G03X15499Y5635I1J258*
G01*
X15200Y5849D01*
X14901Y5635D01*
X15720Y5810D02*
G75*
D01*
G03X15733Y5892I-245J81*
G01*
X15733Y6142D01*
G74*
D01*
G03X15720Y6223I258J0*
G01*
X15433Y6017D01*
X15720Y5810D01*
X17301Y4602D02*
G75*
D01*
G03X17325Y4600I33J255*
G01*
X17875Y4600D01*
G74*
D01*
G03X17899Y4602I9J258*
G01*
X17600Y4816D01*
X17301Y4602D01*
X17080Y4777D02*
X17367Y4983D01*
X17080Y5190D01*
G74*
D01*
G03X17067Y5108I245J81*
G01*
X17067Y4858D01*
G75*
D01*
G03X17080Y4777I258J0*
G01*
X17899Y5365D02*
G74*
D01*
G03X17875Y5366I23J257*
G01*
X17325Y5366D01*
G75*
D01*
G03X17301Y5365I-1J-258*
G01*
X17600Y5151D01*
X17899Y5365D01*
X18120Y4777D02*
G75*
D01*
G03X18133Y4858I-245J81*
G01*
X18133Y5108D01*
G74*
D01*
G03X18120Y5190I258J1*
G01*
X17833Y4983D01*
X18120Y4777D01*
X13550Y7311D02*
G75*
D01*
G03X13047Y6892I-252J-210*
G01*
X13047Y6709D01*
G74*
D01*
G03X12995Y6719I54J140*
G01*
X12995Y6355D01*
X12998Y6355D01*
X12998Y6191D01*
X12995Y6191D01*
X12995Y5827D01*
G74*
D01*
G03X13071Y5849I3J151*
G01*
G75*
D01*
G03X13148Y5827I78J128*
G01*
X13308Y5827D01*
G74*
D01*
G03X13386Y5849I0J151*
G01*
G75*
D01*
G03X13463Y5827I78J128*
G01*
X13471Y5827D01*
X13465Y5820D01*
G75*
D01*
G03X13189Y5250I-68J-319*
G01*
G75*
D01*
G03X13114Y4842I211J-250*
G01*
X12228Y5728D01*
G74*
D01*
G03X12134Y5778I128J128*
G01*
G75*
D01*
G03X12100Y5781I-33J-178*
G01*
X11672Y5781D01*
G74*
D01*
G03X11635Y5827I271J180*
G01*
X11733Y5827D01*
G74*
D01*
G03X11811Y5849I0J151*
G01*
G75*
D01*
G03X11889Y5827I78J128*
G01*
X12048Y5827D01*
G74*
D01*
G03X12126Y5849I0J151*
G01*
G74*
D01*
G03X12202Y5827I78J128*
G01*
X12202Y6191D01*
X12199Y6191D01*
X12199Y6355D01*
X12202Y6355D01*
X12202Y6719D01*
G74*
D01*
G03X12180Y6717I3J150*
G01*
X12180Y6781D01*
X12300Y6902D01*
X12387Y6814D01*
X12387Y6717D01*
G74*
D01*
G03X12365Y6719I24J147*
G01*
X12365Y6355D01*
X12368Y6355D01*
X12368Y6191D01*
X12365Y6191D01*
X12365Y5827D01*
G74*
D01*
G03X12441Y5849I3J151*
G01*
G75*
D01*
G03X12519Y5827I78J128*
G01*
X12678Y5827D01*
G74*
D01*
G03X12756Y5849I0J151*
G01*
G74*
D01*
G03X12832Y5827I78J128*
G01*
X12832Y6191D01*
X12829Y6191D01*
X12829Y6355D01*
X12832Y6355D01*
X12832Y6719D01*
G74*
D01*
G03X12809Y6717I1J150*
G01*
X12809Y6902D01*
G74*
D01*
G03X12747Y7051I211J0*
G01*
X12511Y7287D01*
X12511Y7313D01*
X12687Y7489D01*
X14013Y7489D01*
X14467Y7034D01*
G74*
D01*
G03X14617Y6972I149J149*
G01*
X14682Y6972D01*
G75*
D01*
G03X14925Y6800I243J85*
G01*
X15475Y6800D01*
G74*
D01*
G03X15718Y6972I0J258*
G01*
X16213Y6972D01*
G74*
D01*
G03X16362Y7034I0J211*
G01*
X17605Y8277D01*
G74*
D01*
G03X17772Y8082I253J47*
G01*
X17772Y7917D01*
G75*
D01*
G03X17834Y7767I211J-1*
G01*
X18289Y7313D01*
X18289Y4087D01*
X18229Y4028D01*
X18118Y4028D01*
G74*
D01*
G03X17875Y4200I243J85*
G01*
X17325Y4200D01*
G75*
D01*
G03X17067Y3942I0J-258*
G01*
X17067Y3692D01*
G75*
D01*
G03X17118Y3538I258J0*
G01*
X16401Y4255D01*
G74*
D01*
G03X16298Y4307I129J127*
G01*
G75*
D01*
G03X16272Y4308I-20J-179*
G01*
X15165Y4308D01*
G75*
D01*
G03X15111Y4750I-265J192*
G01*
G75*
D01*
G03X14693Y5253I-209J251*
G01*
X14550Y5253D01*
G75*
D01*
G03X14560Y5307I-140J54*
G01*
X14560Y5467D01*
G74*
D01*
G03X14539Y5545I151J1*
G01*
G75*
D01*
G03X14560Y5622I-130J77*
G01*
X14560Y5782D01*
G74*
D01*
G03X14409Y5933I151J0*
G01*
X13819Y5933D01*
G75*
D01*
G03X13763Y5922I1J-151*
G01*
G75*
D01*
G03X13774Y5978I-139J56*
G01*
X13774Y6569D01*
G74*
D01*
G03X13724Y6680I151J1*
G01*
X13724Y6768D01*
X13735Y6780D01*
G75*
D01*
G03X13550Y7311I63J320*
G01*
X1275Y5900D02*
G75*
D01*
G03X1275Y5900I175J0*
G01*
X1081Y5631D02*
G74*
D01*
G03X1288Y5473I369J268*
G01*
X1288Y5738D01*
X1081Y5738D01*
X1081Y6062D01*
X1288Y6062D01*
X1288Y6327D01*
G74*
D01*
G03X1081Y6169I162J426*
G01*
X1081Y6225D01*
X1775Y6919D01*
X2263Y6919D01*
X1822Y6478D01*
G75*
D01*
G03X1769Y6350I128J-128*
G01*
X1769Y6227D01*
G74*
D01*
G03X1612Y6327I318J327*
G01*
X1612Y6062D01*
X1769Y6062D01*
X1769Y5738D01*
X1612Y5738D01*
X1612Y5473D01*
G74*
D01*
G03X1769Y5573I161J427*
G01*
X1769Y5227D01*
G75*
D01*
G03X1281Y5324I-319J-326*
G01*
X1081Y5525D01*
X1081Y5631D01*
X389Y13600D02*
G75*
D01*
G03X451Y13451I211J0*
G01*
X651Y13251D01*
G74*
D01*
G03X734Y13200I148J149*
G01*
X325Y13200D01*
G75*
D01*
G03X151Y13132I1J-258*
G01*
X151Y13668D01*
G74*
D01*
G03X325Y13600I174J189*
G01*
X389Y13600D01*
X9117Y16734D02*
G75*
D01*
G02X9483Y16734I183J-234*
G01*
X9483Y16818D01*
X9117Y16818D01*
X9117Y16734D01*
X11117Y16734D02*
G75*
D01*
G02X11483Y16734I183J-234*
G01*
X11483Y16818D01*
X11117Y16818D01*
X11117Y16734D01*
X13543Y6273D02*
X13543Y6843D01*
X13800Y7100D01*
X14114Y5702D02*
X13602Y5702D01*
X13400Y5500D01*
X14114Y5387D02*
X13787Y5387D01*
X13400Y5000D01*
X6800Y7583D02*
X6800Y8000D01*
X8450Y12750D02*
X8781Y12419D01*
X13060Y12419D01*
X11900Y13800D02*
X12094Y13994D01*
X13060Y13994D01*
X8794Y13206D02*
X8250Y13750D01*
X13060Y13206D02*
X8794Y13206D01*
X8350Y14250D02*
X8800Y13800D01*
X11900Y13800D01*
X5600Y7583D02*
X5600Y8200D01*
X6050Y12750D02*
X8450Y12750D01*
X5600Y9200D02*
X5600Y12300D01*
X6050Y12750D01*
X6800Y8000D02*
X5600Y9200D01*
X5600Y8200D02*
X5000Y8800D01*
X5000Y12700D02*
X6050Y13750D01*
X5000Y8800D02*
X5000Y12700D01*
X6050Y13750D02*
X8250Y13750D01*
X4400Y12900D02*
X5750Y14250D01*
X8350Y14250D01*
X4400Y7583D02*
X4400Y12900D01*
X4400Y6417D02*
X3967Y6417D01*
X2450Y4900D01*
X900Y5450D02*
X1450Y4900D01*
X6900Y6517D02*
X6800Y6417D01*
X11339Y6273D02*
X11339Y7345D01*
X11654Y6273D02*
X11654Y7354D01*
X9817Y9800D02*
X9817Y8867D01*
X11339Y7345D01*
X13183Y9800D02*
X13183Y8883D01*
X11654Y7354D01*
X14114Y5072D02*
X14828Y5072D01*
X14900Y5000D01*
X4400Y5300D02*
X4400Y4600D01*
X4400Y4650D02*
X5573Y4650D01*
X5600Y4677D01*
X7000Y4677D02*
X5600Y4677D01*
X24100Y3750D02*
X23033Y3750D01*
X23000Y3783D01*
X9900Y5600D02*
X10000Y5700D01*
X10800Y5700D01*
X9900Y5100D02*
X10200Y5400D01*
X10800Y5400D01*
X2969Y14250D02*
X3750Y14250D01*
X3800Y14200D01*
X2941Y984D02*
X2941Y2141D01*
X3200Y2400D01*
X4217Y2400D01*
X6617Y2400D02*
X6200Y2400D01*
X5500Y1700D01*
X4657Y1700D01*
X3941Y984D01*
X6941Y984D02*
X6941Y959D01*
X14114Y3498D02*
X14702Y3498D01*
X14800Y3400D01*
X5941Y984D02*
X5941Y959D01*
X14114Y4443D02*
X14843Y4443D01*
X14900Y4500D01*
X9500Y4700D02*
X10000Y4700D01*
X10768Y5072D02*
X10372Y5072D01*
X10000Y4700D01*
X6941Y959D02*
X7310Y590D01*
X14290Y590D01*
X14500Y800D01*
X5941Y959D02*
X6490Y410D01*
X15210Y410D02*
X15400Y600D01*
X6490Y410D02*
X15210Y410D01*
X1950Y4400D02*
X2450Y3900D01*
X900Y6300D02*
X900Y5450D01*
X1950Y6350D02*
X1950Y4400D01*
X6500Y7100D02*
X1700Y7100D01*
X6800Y6800D02*
X6500Y7100D01*
X1700Y7100D02*
X900Y6300D01*
X5400Y6900D02*
X2500Y6900D01*
X5600Y6700D02*
X5400Y6900D01*
X2500Y6900D02*
X1950Y6350D01*
X5100Y5200D02*
X4400Y5900D01*
X4400Y6417D01*
X11039Y3027D02*
X11139Y2927D01*
X11339Y2927D01*
X8900Y4800D02*
X9572Y4128D01*
X10768Y4128D01*
X5600Y5700D02*
X5600Y6700D01*
X10768Y3813D02*
X9587Y3813D01*
X9473Y3027D02*
X7300Y5200D01*
X11039Y3027D02*
X9473Y3027D01*
X7300Y5200D02*
X5100Y5200D01*
X10768Y3498D02*
X9502Y3498D01*
X7500Y5500D02*
X5800Y5500D01*
X5600Y5700D01*
X9502Y3498D02*
X7500Y5500D01*
X9587Y3813D02*
X7600Y5800D01*
X7000Y5800D02*
X6800Y6000D01*
X6800Y6800D01*
X7600Y5800D02*
X7000Y5800D01*
X23000Y5783D02*
X24067Y5783D01*
X24100Y5750D01*
X16941Y2159D02*
X16173Y2927D01*
X13543Y2927D01*
X16941Y984D02*
X16941Y2159D01*
X17941Y1759D02*
X15887Y3813D01*
X17941Y984D02*
X17941Y1759D01*
X15887Y3813D02*
X14114Y3813D01*
X24000Y12300D02*
X22800Y11100D01*
X24000Y12300D02*
X24100Y12300D01*
X24100Y14300D02*
X24017Y14383D01*
X21917Y14383D02*
X24017Y14383D01*
X21500Y11000D02*
X21344Y10844D01*
X20540Y10844D01*
X21817Y15217D02*
X21500Y14900D01*
X22000Y15217D02*
X21817Y15217D01*
X21500Y14900D02*
X21500Y11000D01*
X22800Y10200D02*
X22800Y11100D01*
X10768Y4757D02*
X11343Y4757D01*
X11500Y4600D01*
X11157Y4443D02*
X11400Y4200D01*
X11800Y4200D01*
X10768Y4443D02*
X11157Y4443D01*
X14114Y4757D02*
X13657Y4757D01*
X13550Y4650D01*
X7000Y4100D02*
X7000Y4677D01*
X13228Y7028D02*
X13300Y7100D01*
X13228Y6273D02*
X13228Y7028D01*
X12283Y6273D02*
X12283Y5817D01*
X12913Y5813D02*
X12913Y6273D01*
X12400Y5700D02*
X12800Y5700D01*
X12283Y5817D02*
X12400Y5700D01*
X12800Y5700D02*
X12913Y5813D01*
X16200Y1500D02*
X16400Y1500D01*
X12913Y2587D02*
X12913Y2927D01*
X16050Y2450D02*
X13050Y2450D01*
X13228Y3672D02*
X11800Y5100D01*
X11400Y5100D01*
X13228Y2927D02*
X13228Y3672D01*
X13050Y4650D02*
X12100Y5600D01*
X13550Y4650D02*
X13050Y4650D01*
X12100Y5600D02*
X11400Y5600D01*
X18941Y1459D02*
X16272Y4128D01*
X14114Y4128D01*
X18941Y984D02*
X18941Y1459D01*
X13050Y2450D02*
X12913Y2587D01*
X14500Y800D02*
X14500Y1400D01*
X14800Y1700D01*
X15400Y600D02*
X15400Y1700D01*
X15650Y2050D02*
X16200Y1500D01*
X14050Y2050D02*
X15650Y2050D01*
X11969Y2927D02*
X11969Y2469D01*
X11800Y2300D01*
X13800Y1800D02*
X14050Y2050D01*
X11800Y2000D02*
X12000Y1800D01*
X11800Y2300D02*
X11800Y2000D01*
X12000Y1800D02*
X13800Y1800D01*
X21800Y2100D02*
X22100Y2400D01*
X22100Y5600D01*
X22300Y5800D01*
X23000Y5800D01*
X10731Y11631D02*
X8900Y9800D01*
X8900Y4800D01*
X13060Y11631D02*
X10731Y11631D01*
X750Y12250D02*
X600Y12400D01*
X750Y12250D02*
X2969Y12250D01*
X600Y12400D02*
X600Y12817D01*
G54D12*
X1867Y12750D02*
X1800Y12817D01*
X1867Y12750D02*
X3950Y12750D01*
X4000Y12700D01*
X11654Y2554D02*
X11500Y2400D01*
X10183Y2400D01*
X4850Y3350D02*
X5010Y3510D01*
X20941Y941D02*
X20200Y200D01*
X20200Y200D02*
X2800Y200D01*
X2300Y700D01*
X2300Y2000D01*
X1450Y2850D01*
X1450Y3900D01*
X1650Y3850D02*
X2150Y3350D01*
X4850Y3350D01*
X1650Y3850D02*
X1450Y3850D01*
X17600Y3817D02*
X18317Y3817D01*
X18500Y4000D01*
X18500Y7400D01*
X17983Y7917D01*
X12300Y7200D02*
X11969Y6869D01*
X11969Y6273D01*
X12598Y6273D02*
X12598Y6902D01*
X12300Y7200D01*
X17983Y9117D02*
X17900Y9200D01*
X17700Y9200D01*
X17400Y9500D01*
X17400Y12300D01*
X16700Y13000D01*
X20540Y16356D02*
X19356Y16356D01*
X19300Y16300D01*
X20941Y1384D02*
X20941Y941D01*
X17600Y3817D02*
X17600Y3500D01*
X17983Y8600D02*
X17983Y9117D01*
X17983Y7917D02*
X17983Y8517D01*
X22800Y11983D02*
X22800Y13217D01*
X22000Y9400D02*
X22000Y11183D01*
X22800Y11983D01*
X11654Y2927D02*
X11654Y3354D01*
X12000Y3700D01*
X12283Y2927D02*
X12283Y3417D01*
X12000Y3700D01*
X11650Y2550D02*
X11650Y2923D01*
X15200Y8100D02*
X15200Y7183D01*
X5010Y3510D02*
X5600Y3510D01*
X6900Y3000D02*
X7500Y2400D01*
X7783Y2400D01*
X12600Y7700D02*
X12300Y7400D01*
X12300Y7200D01*
X14617Y7183D02*
X14100Y7700D01*
X12600Y7700D01*
X15200Y7183D02*
X14617Y7183D01*
X19500Y1600D02*
X20725Y1600D01*
X20941Y1384D01*
X17600Y3500D02*
X19500Y1600D01*
X1800Y12817D02*
X1800Y13200D01*
X1600Y13400D01*
X800Y13400D02*
X600Y13600D01*
X1600Y13400D02*
X800Y13400D01*
X600Y13600D02*
X600Y13983D01*
X22600Y7900D02*
X22672Y7972D01*
X23078Y7972D01*
X22600Y7900D02*
X22100Y7900D01*
X17629Y8600D02*
X16213Y7183D01*
X15200Y7183D01*
X17983Y8600D02*
X17629Y8600D01*
X18300Y8200D02*
X20800Y8200D01*
X22000Y9400D01*
X17983Y8517D02*
X18300Y8200D01*
X5690Y3110D02*
X5800Y3000D01*
X5690Y3110D02*
X5690Y3510D01*
X5800Y3000D02*
X6900Y3000D01*
G54D13*
X10135Y11650D02*
X8850Y11650D01*
X8250Y12250D01*
X7404Y12250D01*
X6631Y12250D01*
G54D14*
X10369Y15569D02*
X10300Y15500D01*
X13060Y15569D02*
X10369Y15569D01*
G54D15*
X18668Y9968D02*
X18500Y9800D01*
X19360Y9968D02*
X18668Y9968D01*
X18500Y9800D02*
X17983Y9800D01*
X20360Y9968D02*
X20360Y9360D01*
X19600Y8600D01*
X17983Y8600D01*
G54D16*
X13800Y7100D03*
X13400Y5000D03*
X13400Y5500D03*
X14900Y5000D03*
X4400Y5300D03*
X16400Y1500D03*
X9900Y5100D03*
X9900Y5600D03*
X4000Y12700D03*
X3800Y14200D03*
X14800Y3400D03*
X14900Y4500D03*
X9500Y4700D03*
X16700Y13000D03*
X19300Y16300D03*
X22100Y7900D03*
X21900Y14400D03*
X22800Y10200D03*
X11800Y4200D03*
X11400Y5600D03*
X11400Y5100D03*
X11500Y4600D03*
X7000Y4100D03*
X12000Y3700D03*
X13300Y7100D03*
X15200Y8100D03*
X16100Y2500D03*
X14800Y1700D03*
X15400Y1700D03*
X12200Y2200D03*
X21800Y2100D03*
X22900Y16500D03*
X14200Y16300D03*
X17500Y16300D03*
X14200Y10800D03*
X23100Y9500D03*
X20400Y6100D03*
X17600Y5700D03*
X16000Y6000D03*
X15900Y9800D03*
X15900Y8600D03*
X8400Y2800D03*
X4800Y2400D03*
X6300Y3400D03*
X800Y7100D03*
X800Y2500D03*
X11500Y10800D03*
X2200Y15000D03*
X8200Y6900D03*
X20400Y4900D03*
X19200Y7300D03*
X21500Y7300D03*
X20400Y7300D03*
X19200Y6100D03*
X21500Y6100D03*
X21500Y4900D03*
X19200Y4900D03*
G54D17*
X10941Y984D03*
X13941Y984D03*
X14941Y984D03*
X20941Y984D03*
X17941Y984D03*
X19941Y984D03*
X18941Y984D03*
X15941Y984D03*
X16941Y984D03*
X12941Y984D03*
X11941Y984D03*
X9941Y984D03*
X8941Y984D03*
X4941Y984D03*
X6941Y984D03*
X7941Y984D03*
X5941Y984D03*
X3941Y984D03*
X2941Y984D03*
X12450Y8150D03*
X10533Y8150D03*
G54D18*
X21941Y984D03*
G54D19*
X21816Y859D02*
X22066Y859D01*
X22066Y1109D01*
X21816Y1109D01*
X21816Y859D01*D02*
G54D20*
X11339Y2927D03*
X11654Y2927D03*
X11969Y2927D03*
X12283Y2927D03*
X12598Y2927D03*
X12913Y2927D03*
X13228Y2927D03*
X13543Y2927D03*
X11339Y6273D03*
X11654Y6273D03*
X11969Y6273D03*
X12283Y6273D03*
X12598Y6273D03*
X12913Y6273D03*
X13228Y6273D03*
X13543Y6273D03*
G54D21*
X10768Y3813D03*
X10768Y3498D03*
X14114Y3813D03*
X14114Y3498D03*
X10768Y4757D03*
X10768Y4443D03*
X10768Y4128D03*
X14114Y4757D03*
X14114Y4443D03*
X14114Y4128D03*
X10768Y5387D03*
X10768Y5072D03*
X14114Y5387D03*
X14114Y5072D03*
X10768Y5702D03*
X14114Y5702D03*
G54D22*
X23000Y2617D03*
X23000Y3783D03*
X4400Y6417D03*
X4400Y7583D03*
X5600Y6417D03*
X5600Y7583D03*
X6800Y6417D03*
X6800Y7583D03*
X7000Y3510D03*
X7000Y4677D03*
X15200Y7183D03*
X15200Y6017D03*
X5600Y3510D03*
X5600Y4677D03*
X17600Y3817D03*
X17600Y4983D03*
X22800Y10817D03*
X22800Y11983D03*
X22800Y13217D03*
X22800Y14383D03*
X22000Y15217D03*
X22000Y16383D03*
X23000Y4617D03*
X23000Y5783D03*
X1800Y12817D03*
X1800Y13983D03*
X600Y13983D03*
X600Y12817D03*
G54D23*
X22725Y2492D02*
X23275Y2492D01*
X23275Y2742D01*
X22725Y2742D01*
X22725Y2492D01*D02*
X22725Y3658D02*
X23275Y3658D01*
X23275Y3908D01*
X22725Y3908D01*
X22725Y3658D01*D02*
X4125Y6292D02*
X4675Y6292D01*
X4675Y6542D01*
X4125Y6542D01*
X4125Y6292D01*D02*
X4125Y7458D02*
X4675Y7458D01*
X4675Y7708D01*
X4125Y7708D01*
X4125Y7458D01*D02*
X5325Y6292D02*
X5875Y6292D01*
X5875Y6542D01*
X5325Y6542D01*
X5325Y6292D01*D02*
X5325Y7458D02*
X5875Y7458D01*
X5875Y7708D01*
X5325Y7708D01*
X5325Y7458D01*D02*
X6525Y6292D02*
X7075Y6292D01*
X7075Y6542D01*
X6525Y6542D01*
X6525Y6292D01*D02*
X6525Y7458D02*
X7075Y7458D01*
X7075Y7708D01*
X6525Y7708D01*
X6525Y7458D01*D02*
X6725Y3385D02*
X7275Y3385D01*
X7275Y3635D01*
X6725Y3635D01*
X6725Y3385D01*D02*
X6725Y4552D02*
X7275Y4552D01*
X7275Y4802D01*
X6725Y4802D01*
X6725Y4552D01*D02*
X14925Y7058D02*
X15475Y7058D01*
X15475Y7308D01*
X14925Y7308D01*
X14925Y7058D01*D02*
X14925Y5892D02*
X15475Y5892D01*
X15475Y6142D01*
X14925Y6142D01*
X14925Y5892D01*D02*
X5325Y3385D02*
X5875Y3385D01*
X5875Y3635D01*
X5325Y3635D01*
X5325Y3385D01*D02*
X5325Y4552D02*
X5875Y4552D01*
X5875Y4802D01*
X5325Y4802D01*
X5325Y4552D01*D02*
X17325Y3692D02*
X17875Y3692D01*
X17875Y3942D01*
X17325Y3942D01*
X17325Y3692D01*D02*
X17325Y4858D02*
X17875Y4858D01*
X17875Y5108D01*
X17325Y5108D01*
X17325Y4858D01*D02*
X22525Y10692D02*
X23075Y10692D01*
X23075Y10942D01*
X22525Y10942D01*
X22525Y10692D01*D02*
X22525Y11858D02*
X23075Y11858D01*
X23075Y12108D01*
X22525Y12108D01*
X22525Y11858D01*D02*
X22525Y13092D02*
X23075Y13092D01*
X23075Y13342D01*
X22525Y13342D01*
X22525Y13092D01*D02*
X22525Y14258D02*
X23075Y14258D01*
X23075Y14508D01*
X22525Y14508D01*
X22525Y14258D01*D02*
X21725Y15092D02*
X22275Y15092D01*
X22275Y15342D01*
X21725Y15342D01*
X21725Y15092D01*D02*
X21725Y16258D02*
X22275Y16258D01*
X22275Y16508D01*
X21725Y16508D01*
X21725Y16258D01*D02*
X22725Y4492D02*
X23275Y4492D01*
X23275Y4742D01*
X22725Y4742D01*
X22725Y4492D01*D02*
X22725Y5658D02*
X23275Y5658D01*
X23275Y5908D01*
X22725Y5908D01*
X22725Y5658D01*D02*
X1525Y12692D02*
X2075Y12692D01*
X2075Y12942D01*
X1525Y12942D01*
X1525Y12692D01*D02*
X1525Y13858D02*
X2075Y13858D01*
X2075Y14108D01*
X1525Y14108D01*
X1525Y13858D01*D02*
X8892Y2125D02*
X9142Y2125D01*
X9142Y2675D01*
X8892Y2675D01*
X8892Y2125D01*D02*
X10058Y2125D02*
X10308Y2125D01*
X10308Y2675D01*
X10058Y2675D01*
X10058Y2125D01*D02*
X325Y13858D02*
X875Y13858D01*
X875Y14108D01*
X325Y14108D01*
X325Y13858D01*D02*
X325Y12692D02*
X875Y12692D01*
X875Y12942D01*
X325Y12942D01*
X325Y12692D01*D02*
X13058Y9525D02*
X13308Y9525D01*
X13308Y10075D01*
X13058Y10075D01*
X13058Y9525D01*D02*
X11892Y9525D02*
X12142Y9525D01*
X12142Y10075D01*
X11892Y10075D01*
X11892Y9525D01*D02*
X16692Y8325D02*
X16942Y8325D01*
X16942Y8875D01*
X16692Y8875D01*
X16692Y8325D01*D02*
X17858Y8325D02*
X18108Y8325D01*
X18108Y8875D01*
X17858Y8875D01*
X17858Y8325D01*D02*
X16692Y9525D02*
X16942Y9525D01*
X16942Y10075D01*
X16692Y10075D01*
X16692Y9525D01*D02*
X17858Y9525D02*
X18108Y9525D01*
X18108Y10075D01*
X17858Y10075D01*
X17858Y9525D01*D02*
X10858Y9525D02*
X11108Y9525D01*
X11108Y10075D01*
X10858Y10075D01*
X10858Y9525D01*D02*
X9692Y9525D02*
X9942Y9525D01*
X9942Y10075D01*
X9692Y10075D01*
X9692Y9525D01*D02*
X6492Y2125D02*
X6742Y2125D01*
X6742Y2675D01*
X6492Y2675D01*
X6492Y2125D01*D02*
X7658Y2125D02*
X7908Y2125D01*
X7908Y2675D01*
X7658Y2675D01*
X7658Y2125D01*D02*
X4092Y2125D02*
X4342Y2125D01*
X4342Y2675D01*
X4092Y2675D01*
X4092Y2125D01*D02*
X5258Y2125D02*
X5508Y2125D01*
X5508Y2675D01*
X5258Y2675D01*
X5258Y2125D01*D02*
G54D24*
X2969Y13250D03*
X2969Y9750D03*
X6631Y9750D03*
X2969Y10250D03*
X6631Y10250D03*
X2969Y11250D03*
X2969Y10750D03*
X6631Y10750D03*
X6631Y11250D03*
X2969Y11750D03*
X6631Y11750D03*
X2969Y12750D03*
X2969Y12250D03*
X6631Y12250D03*
X6631Y12750D03*
X2969Y13750D03*
X6631Y13250D03*
X6631Y13750D03*
X2969Y14250D03*
X6631Y14250D03*
G54D25*
X13060Y10844D03*
X20540Y10844D03*
X13060Y11631D03*
X20540Y11631D03*
X13060Y12419D03*
X20540Y12419D03*
X13060Y13206D03*
X20540Y13206D03*
X13060Y13994D03*
X20540Y13994D03*
X13060Y14781D03*
X20540Y14781D03*
X13060Y15569D03*
X20540Y15569D03*
X13060Y16356D03*
X20540Y16356D03*
G54D26*
X24100Y13300D03*
X24100Y12300D03*
X24100Y14300D03*
X24100Y4750D03*
X24100Y3750D03*
X24100Y5750D03*
X2450Y4900D03*
X1450Y3900D03*
X2450Y5900D03*
X1450Y4900D03*
X1450Y5900D03*
G54D27*
X24100Y11300D03*
X24100Y2750D03*
X2450Y3900D03*
G54D28*
X23996Y11196D02*
X24204Y11196D01*
X24204Y11404D01*
X23996Y11404D01*
X23996Y11196D01*D02*
X23996Y2646D02*
X24204Y2646D01*
X24204Y2854D01*
X23996Y2854D01*
X23996Y2646D01*D02*
X2346Y3796D02*
X2554Y3796D01*
X2554Y4004D01*
X2346Y4004D01*
X2346Y3796D01*D02*
G54D29*
X24200Y7008D03*
X24200Y9961D03*
G54D30*
X23078Y8228D03*
X23078Y8484D03*
X23078Y7972D03*
X23078Y8996D03*
X23078Y8740D03*
G54D31*
X24200Y8031D03*
X24200Y8937D03*
G54D32*
X4400Y3350D03*
X4400Y4650D03*
G54D33*
X20360Y9968D03*
X19360Y9968D03*
X21360Y9968D03*
G54D34*
X10300Y15500D03*
X9300Y16500D03*
X11300Y16500D03*
X9300Y14500D03*
X11300Y14500D03*
G54D35*
X2065Y11650D03*
X10135Y11650D03*
G54D36*
X9017Y2400D03*
X10183Y2400D03*
X13183Y9800D03*
X12017Y9800D03*
X16817Y8600D03*
X17983Y8600D03*
X16817Y9800D03*
X17983Y9800D03*
X10983Y9800D03*
X9817Y9800D03*
X6617Y2400D03*
X7783Y2400D03*
X4217Y2400D03*
X5383Y2400D03*

M02*
