G04 Generated by Ultiboard 13.0 *
%FSLAX24Y24*%
%MOIN*%

%ADD10C,0.0001*%
%ADD11C,0.0394*%
%ADD12C,0.0500*%
%ADD13R,0.0250X0.0250*%
%ADD14C,0.0350*%
%ADD15C,0.0633*%
%ADD16R,0.0208X0.0208*%
%ADD17C,0.0392*%
%ADD18R,0.0550X0.0250*%
%ADD19C,0.0233*%
%ADD20C,0.0783*%
%ADD21C,0.0735*%
%ADD22C,0.0534*%


G04 ColorRGB 9900CC for the following layer *
%LNSolder Mask Bottom*%
%LPD*%
G54D10*
G54D11*
X13800Y7100D03*
X13400Y5000D03*
X13400Y5500D03*
X14900Y5000D03*
X4400Y5300D03*
X16400Y1500D03*
X9900Y5100D03*
X9900Y5600D03*
X4000Y12700D03*
X3800Y14200D03*
X14800Y3400D03*
X14900Y4500D03*
X9500Y4700D03*
X16700Y13000D03*
X19300Y16300D03*
X22100Y7900D03*
X21900Y14400D03*
X22800Y10200D03*
X11800Y4200D03*
X11400Y5600D03*
X11400Y5100D03*
X11500Y4600D03*
X7000Y4100D03*
X12000Y3700D03*
X13300Y7100D03*
X15200Y8100D03*
X16100Y2500D03*
X14800Y1700D03*
X15400Y1700D03*
X12200Y2200D03*
X21800Y2100D03*
X22900Y16500D03*
X14200Y16300D03*
X17500Y16300D03*
X14200Y10800D03*
X23100Y9500D03*
X20400Y6100D03*
X17600Y5700D03*
X16000Y6000D03*
X15900Y9800D03*
X15900Y8600D03*
X8400Y2800D03*
X4800Y2400D03*
X6300Y3400D03*
X800Y7100D03*
X800Y2500D03*
X11500Y10800D03*
X2200Y15000D03*
X8200Y6900D03*
X20400Y4900D03*
X19200Y7300D03*
X21500Y7300D03*
X20400Y7300D03*
X19200Y6100D03*
X21500Y6100D03*
X21500Y4900D03*
X19200Y4900D03*
G54D12*
X10941Y984D03*
X13941Y984D03*
X14941Y984D03*
X20941Y984D03*
X17941Y984D03*
X19941Y984D03*
X18941Y984D03*
X15941Y984D03*
X16941Y984D03*
X12941Y984D03*
X11941Y984D03*
X9941Y984D03*
X8941Y984D03*
X4941Y984D03*
X6941Y984D03*
X7941Y984D03*
X5941Y984D03*
X3941Y984D03*
X2941Y984D03*
X12450Y8150D03*
X10533Y8150D03*
G54D13*
X21941Y984D03*
G54D14*
X21816Y859D02*
X22066Y859D01*
X22066Y1109D01*
X21816Y1109D01*
X21816Y859D01*D02*
G54D15*
X24100Y13300D03*
X24100Y12300D03*
X24100Y14300D03*
X24100Y4750D03*
X24100Y3750D03*
X24100Y5750D03*
X2450Y4900D03*
X1450Y3900D03*
X2450Y5900D03*
X1450Y4900D03*
X1450Y5900D03*
G54D16*
X24100Y11300D03*
X24100Y2750D03*
X2450Y3900D03*
G54D17*
X23996Y11196D02*
X24204Y11196D01*
X24204Y11404D01*
X23996Y11404D01*
X23996Y11196D01*D02*
X23996Y2646D02*
X24204Y2646D01*
X24204Y2854D01*
X23996Y2854D01*
X23996Y2646D01*D02*
X2346Y3796D02*
X2554Y3796D01*
X2554Y4004D01*
X2346Y4004D01*
X2346Y3796D01*D02*
G54D18*
X16800Y15017D03*
X16800Y16183D03*
X18200Y15017D03*
X18200Y16183D03*
G54D19*
X16525Y14892D02*
X17075Y14892D01*
X17075Y15142D01*
X16525Y15142D01*
X16525Y14892D01*D02*
X16525Y16058D02*
X17075Y16058D01*
X17075Y16308D01*
X16525Y16308D01*
X16525Y16058D01*D02*
X17925Y14892D02*
X18475Y14892D01*
X18475Y15142D01*
X17925Y15142D01*
X17925Y14892D01*D02*
X17925Y16058D02*
X18475Y16058D01*
X18475Y16308D01*
X17925Y16308D01*
X17925Y16058D01*D02*
G54D20*
X20360Y9968D03*
X19360Y9968D03*
X21360Y9968D03*
G54D21*
X10300Y15500D03*
X9300Y16500D03*
X11300Y16500D03*
X9300Y14500D03*
X11300Y14500D03*
G54D22*
X2065Y11650D03*
X10135Y11650D03*

M02*
