G04 Generated by Ultiboard 13.0 *
%FSLAX24Y24*%
%MOIN*%

%ADD10C,0.0001*%
%ADD11C,0.0001*%
%ADD12C,0.05000*%
%ADD13C,0.0735*%
%ADD14R,0.0512X0.0787*%
%ADD15R,0.0591X0.0591*%
%ADD16C,0.0394*%
%ADD17R,0.0583X0.0225*%
%ADD18C,0.0167*%
%ADD19R,0.0225X0.0583*%
%ADD20R,0.0571X0.0118*%
%ADD21R,0.0157X0.0374*%
%ADD22R,0.0472X0.1378*%
%ADD23R,0.0591X0.0177*%
%ADD24R,0.0906X0.0984*%
%ADD25R,0.0617X0.0308*%
%ADD26R,0.0374X0.0157*%
%ADD27R,0.0453X0.1063*%
%ADD28R,0.0866X0.0236*%
%ADD29R,0.0787X0.0787*%
%ADD30R,0.0787X0.0591*%
%ADD31R,0.0308X0.0617*%
%ADD32R,0.0728X0.0472*%
%ADD33R,0.0160X0.0591*%
%ADD34R,0.0591X0.0160*%
%ADD35R,0.0157X0.0551*%
%ADD36R,0.0709X0.0748*%
%ADD37R,0.0906X0.0748*%
%ADD38R,0.0591X0.0787*%


G04 ColorRGB FF00CC for the following layer *
%LNSolder Mask Top*%
%LPD*%
G54D10*
G54D11*
G36*
X-25100Y12350D02*
X-25100Y13650D01*
X-24100Y13650D01*
X-24100Y12350D01*
X-25100Y12350D01*
G37*
G54D12*
X-16350Y27650D03*
X-16350Y28250D03*
G54D13*
X-22044Y8400D03*
X-21044Y9400D03*
X-23044Y9400D03*
X-21044Y7400D03*
X-23044Y7400D03*
G54D14*
X-19468Y7390D03*
X-17303Y7390D03*
X-19468Y8690D03*
X-17303Y8690D03*
G54D15*
X-26889Y8200D03*
X-25511Y8200D03*
G54D16*
X-26100Y7600D03*
X-18800Y7400D03*
X-16600Y7400D03*
X-18800Y8800D03*
X-16600Y8700D03*
X-28000Y9100D03*
X-27200Y10300D03*
X-26100Y10100D03*
X-17300Y10000D03*
X-23100Y11100D03*
X-16300Y11000D03*
X-27600Y11400D03*
X-23400Y11600D03*
X-24000Y11600D03*
X-20900Y11300D03*
X-17800Y11300D03*
X-26400Y12200D03*
X-24400Y12800D03*
X-26400Y13000D03*
X-25000Y13500D03*
X-20900Y13500D03*
X-20000Y13500D03*
X-19200Y13500D03*
X-18400Y13500D03*
X-17600Y13500D03*
X-21800Y14100D03*
X-25000Y14800D03*
X-25200Y15700D03*
X-23800Y16300D03*
X-21800Y16200D03*
X-20400Y16200D03*
X-19600Y16200D03*
X-18800Y16200D03*
X-18000Y16200D03*
X-16500Y16200D03*
X-24400Y17300D03*
X-27600Y18000D03*
X-25600Y18500D03*
X-23100Y19300D03*
X-25600Y21000D03*
X-23100Y21000D03*
X-18200Y21000D03*
X-27600Y22100D03*
X-21900Y22100D03*
X-26000Y22900D03*
X-18900Y23000D03*
X-19900Y23800D03*
X-17900Y23600D03*
X-17000Y23400D03*
X-26000Y24400D03*
X-21800Y25000D03*
X-26000Y25600D03*
X-18700Y25500D03*
X-17500Y25600D03*
X-26000Y26800D03*
X-18900Y26900D03*
X-18200Y26800D03*
X-16300Y26700D03*
X-20000Y27100D03*
X-18200Y27300D03*
X-16900Y27600D03*
X-27600Y28100D03*
X-21900Y28500D03*
X-20200Y28300D03*
X-18200Y27900D03*
X-25100Y29000D03*
X-18600Y28700D03*
X-16900Y28900D03*
X-17700Y29500D03*
X-16900Y29700D03*
X-16100Y30100D03*
X-26600Y30700D03*
X-23000Y30300D03*
X-24300Y32000D03*
X-19700Y32000D03*
X-18300Y32100D03*
X-16900Y32100D03*
X-22200Y10400D03*
X-27600Y14700D03*
X-27600Y13400D03*
X-26600Y11700D03*
X-23100Y28800D03*
G54D17*
X-24200Y7850D03*
X-24200Y8950D03*
X-27400Y10850D03*
X-27400Y11950D03*
X-27000Y24050D03*
X-27000Y25150D03*
G54D18*
X-24491Y7738D02*
X-23909Y7738D01*
X-23909Y7962D01*
X-24491Y7962D01*
X-24491Y7738D01*D02*
X-24491Y8838D02*
X-23909Y8838D01*
X-23909Y9062D01*
X-24491Y9062D01*
X-24491Y8838D01*D02*
X-26862Y8909D02*
X-26638Y8909D01*
X-26638Y9491D01*
X-26862Y9491D01*
X-26862Y8909D01*D02*
X-25762Y8909D02*
X-25538Y8909D01*
X-25538Y9491D01*
X-25762Y9491D01*
X-25762Y8909D01*D02*
X-24062Y10109D02*
X-23838Y10109D01*
X-23838Y10691D01*
X-24062Y10691D01*
X-24062Y10109D01*D02*
X-22962Y10109D02*
X-22738Y10109D01*
X-22738Y10691D01*
X-22962Y10691D01*
X-22962Y10109D01*D02*
X-20462Y9709D02*
X-20238Y9709D01*
X-20238Y10291D01*
X-20462Y10291D01*
X-20462Y9709D01*D02*
X-19362Y9709D02*
X-19138Y9709D01*
X-19138Y10291D01*
X-19362Y10291D01*
X-19362Y9709D01*D02*
X-27691Y10738D02*
X-27109Y10738D01*
X-27109Y10962D01*
X-27691Y10962D01*
X-27691Y10738D01*D02*
X-27691Y11838D02*
X-27109Y11838D01*
X-27109Y12062D01*
X-27691Y12062D01*
X-27691Y11838D01*D02*
X-25662Y14509D02*
X-25438Y14509D01*
X-25438Y15091D01*
X-25662Y15091D01*
X-25662Y14509D01*D02*
X-24562Y14509D02*
X-24338Y14509D01*
X-24338Y15091D01*
X-24562Y15091D01*
X-24562Y14509D01*D02*
X-23708Y14546D02*
X-23092Y14546D01*
X-23092Y14854D01*
X-23708Y14854D01*
X-23708Y14546D01*D02*
X-23708Y15546D02*
X-23092Y15546D01*
X-23092Y15854D01*
X-23708Y15854D01*
X-23708Y15546D01*D02*
X-25508Y16146D02*
X-24892Y16146D01*
X-24892Y16454D01*
X-25508Y16454D01*
X-25508Y16146D01*D02*
X-25508Y17146D02*
X-24892Y17146D01*
X-24892Y17454D01*
X-25508Y17454D01*
X-25508Y17146D01*D02*
X-23708Y16746D02*
X-23092Y16746D01*
X-23092Y17054D01*
X-23708Y17054D01*
X-23708Y16746D01*D02*
X-23708Y17746D02*
X-23092Y17746D01*
X-23092Y18054D01*
X-23708Y18054D01*
X-23708Y17746D01*D02*
X-24508Y18546D02*
X-23892Y18546D01*
X-23892Y18854D01*
X-24508Y18854D01*
X-24508Y18546D01*D02*
X-24508Y19546D02*
X-23892Y19546D01*
X-23892Y19854D01*
X-24508Y19854D01*
X-24508Y19546D01*D02*
X-27108Y18546D02*
X-26492Y18546D01*
X-26492Y18854D01*
X-27108Y18854D01*
X-27108Y18546D01*D02*
X-27108Y19546D02*
X-26492Y19546D01*
X-26492Y19854D01*
X-27108Y19854D01*
X-27108Y19546D01*D02*
X-24108Y21346D02*
X-23492Y21346D01*
X-23492Y21654D01*
X-24108Y21654D01*
X-24108Y21346D01*D02*
X-24108Y20346D02*
X-23492Y20346D01*
X-23492Y20654D01*
X-24108Y20654D01*
X-24108Y20346D01*D02*
X-17308Y21346D02*
X-16692Y21346D01*
X-16692Y21654D01*
X-17308Y21654D01*
X-17308Y21346D01*D02*
X-17308Y22346D02*
X-16692Y22346D01*
X-16692Y22654D01*
X-17308Y22654D01*
X-17308Y22346D01*D02*
X-20908Y23946D02*
X-20292Y23946D01*
X-20292Y24254D01*
X-20908Y24254D01*
X-20908Y23946D01*D02*
X-20908Y24946D02*
X-20292Y24946D01*
X-20292Y25254D01*
X-20908Y25254D01*
X-20908Y24946D01*D02*
X-27291Y23938D02*
X-26709Y23938D01*
X-26709Y24162D01*
X-27291Y24162D01*
X-27291Y23938D01*D02*
X-27291Y25038D02*
X-26709Y25038D01*
X-26709Y25262D01*
X-27291Y25262D01*
X-27291Y25038D01*D02*
X-25462Y24109D02*
X-25238Y24109D01*
X-25238Y24691D01*
X-25462Y24691D01*
X-25462Y24109D01*D02*
X-24362Y24109D02*
X-24138Y24109D01*
X-24138Y24691D01*
X-24362Y24691D01*
X-24362Y24109D01*D02*
X-19454Y24292D02*
X-19146Y24292D01*
X-19146Y24908D01*
X-19454Y24908D01*
X-19454Y24292D01*D02*
X-18454Y24292D02*
X-18146Y24292D01*
X-18146Y24908D01*
X-18454Y24908D01*
X-18454Y24292D01*D02*
X-25462Y25309D02*
X-25238Y25309D01*
X-25238Y25891D01*
X-25462Y25891D01*
X-25462Y25309D01*D02*
X-24362Y25309D02*
X-24138Y25309D01*
X-24138Y25891D01*
X-24362Y25891D01*
X-24362Y25309D01*D02*
X-24362Y26509D02*
X-24138Y26509D01*
X-24138Y27091D01*
X-24362Y27091D01*
X-24362Y26509D01*D02*
X-25462Y26509D02*
X-25238Y26509D01*
X-25238Y27091D01*
X-25462Y27091D01*
X-25462Y26509D01*D02*
X-27254Y28692D02*
X-26946Y28692D01*
X-26946Y29308D01*
X-27254Y29308D01*
X-27254Y28692D01*D02*
X-26254Y28692D02*
X-25946Y28692D01*
X-25946Y29308D01*
X-26254Y29308D01*
X-26254Y28692D01*D02*
X-27262Y29909D02*
X-27038Y29909D01*
X-27038Y30491D01*
X-27262Y30491D01*
X-27262Y29909D01*D02*
X-26162Y29909D02*
X-25938Y29909D01*
X-25938Y30491D01*
X-26162Y30491D01*
X-26162Y29909D01*D02*
X-18508Y30346D02*
X-17892Y30346D01*
X-17892Y30654D01*
X-18508Y30654D01*
X-18508Y30346D01*D02*
X-18508Y31346D02*
X-17892Y31346D01*
X-17892Y31654D01*
X-18508Y31654D01*
X-18508Y31346D01*D02*
X-17308Y30346D02*
X-16692Y30346D01*
X-16692Y30654D01*
X-17308Y30654D01*
X-17308Y30346D01*D02*
X-17308Y31346D02*
X-16692Y31346D01*
X-16692Y31654D01*
X-17308Y31654D01*
X-17308Y31346D01*D02*
G54D19*
X-26750Y9200D03*
X-25650Y9200D03*
X-23950Y10400D03*
X-22850Y10400D03*
X-20350Y10000D03*
X-19250Y10000D03*
X-25550Y14800D03*
X-24450Y14800D03*
X-25350Y24400D03*
X-24250Y24400D03*
X-25350Y25600D03*
X-24250Y25600D03*
X-24250Y26800D03*
X-25350Y26800D03*
X-27150Y30200D03*
X-26050Y30200D03*
G54D20*
X-18266Y9806D03*
X-18266Y10003D03*
X-18266Y10200D03*
X-16534Y10200D03*
X-16534Y9806D03*
X-16534Y10003D03*
X-18266Y10397D03*
X-18266Y10594D03*
X-16534Y10397D03*
X-16534Y10594D03*
G54D21*
X-26056Y10567D03*
X-25544Y10567D03*
X-25800Y10567D03*
X-26056Y11433D03*
X-25800Y11433D03*
X-25544Y11433D03*
G54D22*
X-22356Y12460D03*
X-21569Y12460D03*
X-20781Y12460D03*
X-19994Y12460D03*
X-19206Y12460D03*
X-18419Y12460D03*
X-17631Y12460D03*
X-16844Y12460D03*
X-22356Y19940D03*
X-21569Y19940D03*
X-20781Y19940D03*
X-19994Y19940D03*
X-19206Y19940D03*
X-18419Y19940D03*
X-17631Y19940D03*
X-16844Y19940D03*
G54D23*
X-25793Y12104D03*
X-25793Y12360D03*
X-25793Y12616D03*
X-23407Y12104D03*
X-23407Y12360D03*
X-23407Y12616D03*
X-25793Y12872D03*
X-25793Y13128D03*
X-25793Y13384D03*
X-23407Y12872D03*
X-23407Y13128D03*
X-23407Y13384D03*
X-25793Y13640D03*
X-25793Y13896D03*
X-23407Y13640D03*
X-23407Y13896D03*
G54D24*
X-26800Y15554D03*
X-26800Y17246D03*
G54D25*
X-23400Y14700D03*
X-23400Y15700D03*
X-25200Y16300D03*
X-25200Y17300D03*
X-23400Y16900D03*
X-23400Y17900D03*
X-24200Y18700D03*
X-24200Y19700D03*
X-26800Y18700D03*
X-26800Y19700D03*
X-23800Y21500D03*
X-23800Y20500D03*
X-17000Y21500D03*
X-17000Y22500D03*
X-20600Y24100D03*
X-20600Y25100D03*
X-18200Y30500D03*
X-18200Y31500D03*
X-17000Y30500D03*
X-17000Y31500D03*
G54D26*
X-25833Y19600D03*
X-25833Y19344D03*
X-24967Y19600D03*
X-24967Y19344D03*
X-25833Y19856D03*
X-24967Y19856D03*
G54D27*
X-26191Y21000D03*
X-25009Y21000D03*
G54D28*
X-21114Y21950D03*
X-21114Y21450D03*
X-18086Y21950D03*
X-18086Y21450D03*
X-21114Y22950D03*
X-21114Y22450D03*
X-18086Y22950D03*
X-18086Y22450D03*
G54D29*
X-26800Y22100D03*
X-26800Y23100D03*
G54D30*
X-23200Y24031D03*
X-23200Y24819D03*
X-23200Y25606D03*
X-23200Y26394D03*
X-23200Y27181D03*
X-23200Y27969D03*
G54D31*
X-19300Y24600D03*
X-18300Y24600D03*
X-27100Y29000D03*
X-26100Y29000D03*
G54D32*
X-27000Y26150D03*
X-27000Y27450D03*
G54D33*
X-20302Y26127D03*
X-19672Y26127D03*
X-19987Y26127D03*
X-19357Y26127D03*
X-19043Y26127D03*
X-18728Y26127D03*
X-18098Y26127D03*
X-18413Y26127D03*
X-20302Y29473D03*
X-19672Y29473D03*
X-19987Y29473D03*
X-19357Y29473D03*
X-19043Y29473D03*
X-18728Y29473D03*
X-18098Y29473D03*
X-18413Y29473D03*
G54D34*
X-20873Y26698D03*
X-17527Y26698D03*
X-20873Y27328D03*
X-20873Y27013D03*
X-20873Y27643D03*
X-17527Y27643D03*
X-17527Y27328D03*
X-17527Y27013D03*
X-20873Y28272D03*
X-20873Y27957D03*
X-17527Y28272D03*
X-17527Y27957D03*
X-20873Y28902D03*
X-20873Y28587D03*
X-17527Y28902D03*
X-17527Y28587D03*
G54D35*
X-22044Y30678D03*
X-21532Y30678D03*
X-21788Y30678D03*
X-22300Y30678D03*
X-22556Y30678D03*
G54D36*
X-21591Y31800D03*
X-22497Y31800D03*
G54D37*
X-20567Y31800D03*
X-23520Y31800D03*
G54D38*
X-26987Y31400D03*
X-26200Y31400D03*
X-25413Y31400D03*

M02*
