G04 Generated by Ultiboard 13.0 *
%FSLAX24Y24*%
%MOIN*%

%ADD10C,0.0001*%
%ADD11C,0.0080*%
%ADD12C,0.0061*%
%ADD13C,0.0079*%
%ADD14C,0.0098*%
%ADD15C,0.0037*%
%ADD16C,0.0001*%
%ADD17C,0.0100*%
%ADD18C,0.0027*%
%ADD19C,0.01414*%
%ADD20C,0.01969*%


G04 ColorRGB FFFF00 for the following layer *
%LNSilkscreen Top*%
%LPD*%
G54D10*
G54D11*
X-19960Y8788D02*
X-19960Y7292D01*
X-16810Y8217D02*
X-16826Y8216D01*
X-16841Y8214D01*
X-16856Y8211D01*
X-16871Y8206D01*
X-16885Y8201D01*
X-16899Y8193D01*
X-16912Y8185D01*
X-16924Y8176D01*
X-16936Y8165D01*
X-16946Y8154D01*
X-16956Y8142D01*
X-16964Y8129D01*
X-16971Y8115D01*
X-16977Y8101D01*
X-16982Y8086D01*
X-16985Y8071D01*
X-16987Y8055D01*
X-16988Y8040D01*
X-16987Y8025D01*
X-16985Y8009D01*
X-16982Y7994D01*
X-16977Y7979D01*
X-16971Y7965D01*
X-16964Y7951D01*
X-16956Y7938D01*
X-16946Y7926D01*
X-16936Y7915D01*
X-16924Y7904D01*
X-16912Y7895D01*
X-16899Y7887D01*
X-16885Y7879D01*
X-16871Y7874D01*
X-16856Y7869D01*
X-16841Y7866D01*
X-16826Y7864D01*
X-16810Y7863D01*
X-16810Y7292D02*
X-16810Y7863D01*
X-16810Y8217D02*
X-16810Y8788D01*
X-17685Y7340D02*
X-19085Y7340D01*
X-17685Y8740D02*
X-19085Y8740D01*
X-27243Y7826D02*
X-25157Y7826D01*
X-25157Y8574D01*
X-27243Y8574D01*
X-27243Y7826D01*
X-24461Y9267D02*
X-24461Y9661D01*
X-24304Y9661D01*
X-24226Y9582D01*
X-24226Y9543D01*
X-24304Y9464D01*
X-24461Y9464D01*
X-24422Y9464D02*
X-24226Y9267D01*
X-23951Y9267D02*
X-24030Y9267D01*
X-24108Y9346D01*
X-24108Y9424D01*
X-24069Y9464D01*
X-24108Y9503D01*
X-24108Y9582D01*
X-24030Y9661D01*
X-23951Y9661D01*
X-23873Y9582D01*
X-23873Y9503D01*
X-23912Y9464D01*
X-23873Y9424D01*
X-23873Y9346D01*
X-23951Y9267D01*
X-24069Y9464D02*
X-23912Y9464D01*
X-24700Y7567D02*
X-24700Y9233D01*
X-23700Y9233D02*
X-23700Y7567D01*
X-24700Y9233D02*
X-23700Y9233D01*
X-23700Y7567D02*
X-24700Y7567D01*
X-27167Y8934D02*
X-27561Y8934D01*
X-27561Y9091D01*
X-27482Y9169D01*
X-27443Y9169D01*
X-27364Y9091D01*
X-27364Y8934D01*
X-27364Y8973D02*
X-27167Y9169D01*
X-27561Y9482D02*
X-27561Y9365D01*
X-27482Y9286D01*
X-27324Y9286D01*
X-27246Y9286D01*
X-27167Y9365D01*
X-27167Y9443D01*
X-27246Y9522D01*
X-27324Y9522D01*
X-27403Y9443D01*
X-27403Y9365D01*
X-27324Y9286D01*
X-27033Y9700D02*
X-25367Y9700D01*
X-25367Y8700D02*
X-27033Y8700D01*
X-25367Y9700D02*
X-25367Y8700D01*
X-27033Y8700D02*
X-27033Y9700D01*
X-24367Y9934D02*
X-24761Y9934D01*
X-24761Y10091D01*
X-24682Y10169D01*
X-24643Y10169D01*
X-24564Y10091D01*
X-24564Y9934D01*
X-24564Y9973D02*
X-24367Y10169D01*
X-24524Y10522D02*
X-24524Y10286D01*
X-24761Y10482D01*
X-24367Y10482D01*
X-24367Y10443D02*
X-24367Y10522D01*
X-24233Y10900D02*
X-22567Y10900D01*
X-22567Y9900D02*
X-24233Y9900D01*
X-22567Y10900D02*
X-22567Y9900D01*
X-24233Y9900D02*
X-24233Y10900D01*
X-20767Y9881D02*
X-21161Y9881D01*
X-21161Y10038D01*
X-21082Y10116D01*
X-21043Y10116D01*
X-20964Y10038D01*
X-20964Y9881D01*
X-20964Y9920D02*
X-20767Y10116D01*
X-21082Y10273D02*
X-21161Y10351D01*
X-20767Y10351D01*
X-20767Y10234D02*
X-20767Y10469D01*
X-21082Y10626D02*
X-21161Y10704D01*
X-20767Y10704D01*
X-20767Y10586D02*
X-20767Y10822D01*
X-18967Y9500D02*
X-20633Y9500D01*
X-20633Y10500D02*
X-18967Y10500D01*
X-20633Y9500D02*
X-20633Y10500D01*
X-18967Y10500D02*
X-18967Y9500D01*
X-27661Y12267D02*
X-27661Y12661D01*
X-27504Y12661D01*
X-27426Y12582D01*
X-27426Y12543D01*
X-27504Y12464D01*
X-27661Y12464D01*
X-27622Y12464D02*
X-27426Y12267D01*
X-27308Y12346D02*
X-27230Y12267D01*
X-27151Y12267D01*
X-27073Y12346D01*
X-27073Y12503D01*
X-27073Y12582D01*
X-27151Y12661D01*
X-27230Y12661D01*
X-27308Y12582D01*
X-27308Y12503D01*
X-27230Y12424D01*
X-27151Y12424D01*
X-27073Y12503D01*
X-26900Y12233D02*
X-26900Y10567D01*
X-27900Y10567D02*
X-27900Y12233D01*
X-26900Y10567D02*
X-27900Y10567D01*
X-27900Y12233D02*
X-26900Y12233D01*
X-16450Y20728D02*
X-22750Y20728D01*
X-22750Y11672D01*
X-16450Y11672D01*
X-16450Y20728D01*
X-24502Y12021D02*
X-24502Y12030D01*
X-24503Y12038D01*
X-24505Y12047D01*
X-24508Y12055D01*
X-24511Y12063D01*
X-24515Y12070D01*
X-24519Y12078D01*
X-24525Y12085D01*
X-24530Y12091D01*
X-24537Y12097D01*
X-24544Y12102D01*
X-24551Y12106D01*
X-24558Y12110D01*
X-24566Y12114D01*
X-24575Y12116D01*
X-24583Y12118D01*
X-24591Y12119D01*
X-24600Y12120D01*
X-24609Y12119D01*
X-24617Y12118D01*
X-24625Y12116D01*
X-24634Y12114D01*
X-24642Y12110D01*
X-24649Y12106D01*
X-24656Y12102D01*
X-24663Y12097D01*
X-24670Y12091D01*
X-24675Y12085D01*
X-24681Y12078D01*
X-24685Y12070D01*
X-24689Y12063D01*
X-24692Y12055D01*
X-24695Y12047D01*
X-24697Y12038D01*
X-24698Y12030D01*
X-24698Y12021D01*
X-24159Y12141D02*
G75*
D01*
G02X-24159Y12141I59J0*
G01*
X-25300Y12000D02*
X-25300Y14000D01*
X-23900Y12000D02*
X-23900Y14000D01*
X-24506Y12000D02*
X-23900Y12000D01*
X-25306Y12000D02*
X-24700Y12000D01*
X-23891Y14000D02*
X-25300Y14000D01*
X-27576Y17500D02*
X-27576Y15300D01*
X-26024Y15300D02*
X-26024Y17500D01*
X-24661Y15367D02*
X-24661Y15761D01*
X-24504Y15761D01*
X-24426Y15682D01*
X-24426Y15643D01*
X-24504Y15564D01*
X-24661Y15564D01*
X-24622Y15564D02*
X-24426Y15367D01*
X-24191Y15367D02*
X-24191Y15564D01*
X-24073Y15682D01*
X-24073Y15761D01*
X-24308Y15761D01*
X-24308Y15682D01*
X-25833Y15300D02*
X-24167Y15300D01*
X-24167Y14300D02*
X-25833Y14300D01*
X-24167Y15300D02*
X-24167Y14300D01*
X-25833Y14300D02*
X-25833Y15300D01*
X-23189Y16196D02*
X-23278Y16151D01*
X-23367Y16151D01*
X-23456Y16196D01*
X-23456Y16332D01*
X-23367Y16377D01*
X-23278Y16377D01*
X-23189Y16332D01*
X-23011Y16332D02*
X-22922Y16377D01*
X-22922Y16151D01*
X-23056Y16151D02*
X-22789Y16151D01*
X-22900Y16033D02*
X-22900Y14367D01*
X-23900Y14367D02*
X-23900Y16033D01*
X-22900Y14367D02*
X-23900Y14367D01*
X-23400Y15033D02*
X-23400Y14984D01*
X-23900Y16033D02*
X-22900Y16033D01*
X-23650Y15117D02*
X-23150Y15117D01*
X-23650Y15033D02*
X-23150Y15033D01*
X-23650Y15067D02*
X-23150Y15067D01*
X-23150Y15367D02*
X-23650Y15367D01*
X-23150Y15283D02*
X-23650Y15283D01*
X-23650Y15317D02*
X-23150Y15317D01*
X-23400Y15367D02*
X-23400Y15407D01*
X-25489Y17796D02*
X-25578Y17751D01*
X-25667Y17751D01*
X-25756Y17796D01*
X-25756Y17932D01*
X-25667Y17977D01*
X-25578Y17977D01*
X-25489Y17932D01*
X-25356Y17932D02*
X-25267Y17977D01*
X-25178Y17977D01*
X-25089Y17932D01*
X-25089Y17910D01*
X-25356Y17751D01*
X-25089Y17751D01*
X-25089Y17774D01*
X-25700Y15967D02*
X-25700Y17633D01*
X-24700Y17633D02*
X-24700Y15967D01*
X-25700Y17633D02*
X-24700Y17633D01*
X-25200Y16967D02*
X-25200Y17016D01*
X-24700Y15967D02*
X-25700Y15967D01*
X-24950Y16883D02*
X-25450Y16883D01*
X-24950Y16967D02*
X-25450Y16967D01*
X-24950Y16933D02*
X-25450Y16933D01*
X-25450Y16633D02*
X-24950Y16633D01*
X-25450Y16717D02*
X-24950Y16717D01*
X-24950Y16683D02*
X-25450Y16683D01*
X-25200Y16633D02*
X-25200Y16593D01*
X-23289Y18396D02*
X-23378Y18351D01*
X-23467Y18351D01*
X-23556Y18396D01*
X-23556Y18532D01*
X-23467Y18577D01*
X-23378Y18577D01*
X-23289Y18532D01*
X-23111Y18555D02*
X-23067Y18577D01*
X-22978Y18577D01*
X-22889Y18532D01*
X-22889Y18487D01*
X-22933Y18464D01*
X-22889Y18442D01*
X-22889Y18396D01*
X-22978Y18351D01*
X-23067Y18351D01*
X-23111Y18374D01*
X-23067Y18464D02*
X-22933Y18464D01*
X-23900Y16567D02*
X-23900Y18233D01*
X-22900Y18233D02*
X-22900Y16567D01*
X-23900Y18233D02*
X-22900Y18233D01*
X-23400Y17567D02*
X-23400Y17616D01*
X-22900Y16567D02*
X-23900Y16567D01*
X-23150Y17483D02*
X-23650Y17483D01*
X-23150Y17567D02*
X-23650Y17567D01*
X-23150Y17533D02*
X-23650Y17533D01*
X-23650Y17233D02*
X-23150Y17233D01*
X-23650Y17317D02*
X-23150Y17317D01*
X-23150Y17283D02*
X-23650Y17283D01*
X-23400Y17233D02*
X-23400Y17193D01*
X-24789Y18096D02*
X-24878Y18051D01*
X-24967Y18051D01*
X-25056Y18096D01*
X-25056Y18232D01*
X-24967Y18277D01*
X-24878Y18277D01*
X-24789Y18232D01*
X-24611Y18232D02*
X-24522Y18277D01*
X-24522Y18051D01*
X-24656Y18051D02*
X-24389Y18051D01*
X-24256Y18232D02*
X-24167Y18277D01*
X-24078Y18277D01*
X-23989Y18232D01*
X-23989Y18210D01*
X-24256Y18051D01*
X-23989Y18051D01*
X-23989Y18074D01*
X-23700Y20033D02*
X-23700Y18367D01*
X-24700Y18367D02*
X-24700Y20033D01*
X-23700Y18367D02*
X-24700Y18367D01*
X-24200Y19033D02*
X-24200Y18984D01*
X-24700Y20033D02*
X-23700Y20033D01*
X-24450Y19117D02*
X-23950Y19117D01*
X-24450Y19033D02*
X-23950Y19033D01*
X-24450Y19067D02*
X-23950Y19067D01*
X-23950Y19367D02*
X-24450Y19367D01*
X-23950Y19283D02*
X-24450Y19283D01*
X-24450Y19317D02*
X-23950Y19317D01*
X-24200Y19367D02*
X-24200Y19407D01*
X-27089Y20196D02*
X-27178Y20151D01*
X-27267Y20151D01*
X-27356Y20196D01*
X-27356Y20332D01*
X-27267Y20377D01*
X-27178Y20377D01*
X-27089Y20332D01*
X-26911Y20332D02*
X-26822Y20377D01*
X-26822Y20151D01*
X-26956Y20151D02*
X-26689Y20151D01*
X-26511Y20332D02*
X-26422Y20377D01*
X-26422Y20151D01*
X-26556Y20151D02*
X-26289Y20151D01*
X-26300Y20033D02*
X-26300Y18367D01*
X-27300Y18367D02*
X-27300Y20033D01*
X-26300Y18367D02*
X-27300Y18367D01*
X-26800Y19033D02*
X-26800Y18984D01*
X-27300Y20033D02*
X-26300Y20033D01*
X-27050Y19117D02*
X-26550Y19117D01*
X-27050Y19033D02*
X-26550Y19033D01*
X-27050Y19067D02*
X-26550Y19067D01*
X-26550Y19367D02*
X-27050Y19367D01*
X-26550Y19283D02*
X-27050Y19283D01*
X-27050Y19317D02*
X-26550Y19317D01*
X-26800Y19367D02*
X-26800Y19407D01*
X-25498Y20033D02*
X-25498Y19167D01*
X-25302Y19177D02*
X-25302Y20023D01*
X-25302Y20033D02*
X-25498Y20033D01*
X-25498Y19167D02*
X-25302Y19167D01*
X-23889Y21996D02*
X-23978Y21951D01*
X-24067Y21951D01*
X-24156Y21996D01*
X-24156Y22132D01*
X-24067Y22177D01*
X-23978Y22177D01*
X-23889Y22132D01*
X-23578Y21951D02*
X-23667Y21951D01*
X-23756Y21996D01*
X-23756Y22042D01*
X-23711Y22064D01*
X-23756Y22087D01*
X-23756Y22132D01*
X-23667Y22177D01*
X-23578Y22177D01*
X-23489Y22132D01*
X-23489Y22087D01*
X-23533Y22064D01*
X-23489Y22042D01*
X-23489Y21996D01*
X-23578Y21951D01*
X-23711Y22064D02*
X-23533Y22064D01*
X-23300Y21833D02*
X-23300Y20167D01*
X-24300Y20167D02*
X-24300Y21833D01*
X-23300Y20167D02*
X-24300Y20167D01*
X-23800Y20833D02*
X-23800Y20784D01*
X-24300Y21833D02*
X-23300Y21833D01*
X-24050Y20917D02*
X-23550Y20917D01*
X-24050Y20833D02*
X-23550Y20833D01*
X-24050Y20867D02*
X-23550Y20867D01*
X-23550Y21167D02*
X-24050Y21167D01*
X-23550Y21083D02*
X-24050Y21083D01*
X-24050Y21117D02*
X-23550Y21117D01*
X-23800Y21167D02*
X-23800Y21207D01*
X-20643Y23243D02*
X-20643Y21157D01*
X-18557Y21157D01*
X-18557Y23243D01*
X-19797Y23243D02*
X-19796Y23226D01*
X-19794Y23209D01*
X-19790Y23192D01*
X-19785Y23176D01*
X-19778Y23160D01*
X-19770Y23145D01*
X-19761Y23130D01*
X-19751Y23117D01*
X-19739Y23104D01*
X-19727Y23093D01*
X-19713Y23082D01*
X-19698Y23073D01*
X-19683Y23065D01*
X-19667Y23058D01*
X-19651Y23053D01*
X-19634Y23049D01*
X-19617Y23047D01*
X-19600Y23046D01*
X-19583Y23047D01*
X-19566Y23049D01*
X-19549Y23053D01*
X-19533Y23058D01*
X-19517Y23065D01*
X-19502Y23073D01*
X-19487Y23082D01*
X-19473Y23093D01*
X-19461Y23104D01*
X-19449Y23117D01*
X-19439Y23130D01*
X-19430Y23145D01*
X-19422Y23160D01*
X-19415Y23176D01*
X-19410Y23192D01*
X-19406Y23209D01*
X-19404Y23226D01*
X-19403Y23243D01*
X-18557Y23243D02*
X-19403Y23243D01*
X-19797Y23243D02*
X-20643Y23243D01*
X-20398Y22898D02*
G75*
D01*
G02X-20398Y22898I98J0*
G01*
X-17089Y22996D02*
X-17178Y22951D01*
X-17267Y22951D01*
X-17356Y22996D01*
X-17356Y23132D01*
X-17267Y23177D01*
X-17178Y23177D01*
X-17089Y23132D01*
X-16956Y22996D02*
X-16867Y22951D01*
X-16778Y22951D01*
X-16689Y22996D01*
X-16689Y23087D01*
X-16689Y23132D01*
X-16778Y23177D01*
X-16867Y23177D01*
X-16956Y23132D01*
X-16956Y23087D01*
X-16867Y23042D01*
X-16778Y23042D01*
X-16689Y23087D01*
X-16500Y22833D02*
X-16500Y21167D01*
X-17500Y21167D02*
X-17500Y22833D01*
X-16500Y21167D02*
X-17500Y21167D01*
X-17000Y21833D02*
X-17000Y21784D01*
X-17500Y22833D02*
X-16500Y22833D01*
X-17250Y21917D02*
X-16750Y21917D01*
X-17250Y21833D02*
X-16750Y21833D01*
X-17250Y21867D02*
X-16750Y21867D01*
X-16750Y22167D02*
X-17250Y22167D01*
X-16750Y22083D02*
X-17250Y22083D01*
X-17250Y22117D02*
X-16750Y22117D01*
X-17000Y22167D02*
X-17000Y22207D01*
X-27300Y23584D02*
X-27300Y21616D01*
X-26300Y21616D01*
X-26300Y23584D01*
X-27300Y23584D01*
X-22700Y23618D02*
X-22700Y28382D01*
X-23700Y28382D01*
X-23700Y23618D01*
X-22700Y23618D01*
X-20831Y23455D02*
X-20919Y23410D01*
X-21008Y23410D01*
X-21097Y23455D01*
X-21097Y23590D01*
X-21008Y23636D01*
X-20919Y23636D01*
X-20831Y23590D01*
X-20653Y23590D02*
X-20564Y23636D01*
X-20564Y23410D01*
X-20697Y23410D02*
X-20431Y23410D01*
X-20297Y23590D02*
X-20208Y23636D01*
X-20119Y23636D01*
X-20031Y23590D01*
X-20031Y23455D01*
X-20119Y23410D01*
X-20208Y23410D01*
X-20297Y23455D01*
X-20297Y23590D01*
X-20031Y23590D02*
X-20297Y23455D01*
X-20100Y25433D02*
X-20100Y23767D01*
X-21100Y23767D02*
X-21100Y25433D01*
X-20100Y23767D02*
X-21100Y23767D01*
X-20600Y24433D02*
X-20600Y24384D01*
X-21100Y25433D02*
X-20100Y25433D01*
X-20850Y24517D02*
X-20350Y24517D01*
X-20850Y24433D02*
X-20350Y24433D01*
X-20850Y24467D02*
X-20350Y24467D01*
X-20350Y24767D02*
X-20850Y24767D01*
X-20350Y24683D02*
X-20850Y24683D01*
X-20850Y24717D02*
X-20350Y24717D01*
X-20600Y24767D02*
X-20600Y24807D01*
X-27261Y25467D02*
X-27261Y25861D01*
X-27104Y25861D01*
X-27026Y25782D01*
X-27026Y25743D01*
X-27104Y25664D01*
X-27261Y25664D01*
X-27222Y25664D02*
X-27026Y25467D01*
X-26869Y25782D02*
X-26791Y25861D01*
X-26791Y25467D01*
X-26908Y25467D02*
X-26673Y25467D01*
X-27500Y23767D02*
X-27500Y25433D01*
X-26500Y25433D02*
X-26500Y23767D01*
X-27500Y25433D02*
X-26500Y25433D01*
X-26500Y23767D02*
X-27500Y23767D01*
X-25767Y24734D02*
X-26161Y24734D01*
X-26161Y24891D01*
X-26082Y24969D01*
X-26043Y24969D01*
X-25964Y24891D01*
X-25964Y24734D01*
X-25964Y24773D02*
X-25767Y24969D01*
X-26121Y25126D02*
X-26161Y25165D01*
X-26161Y25243D01*
X-26082Y25322D01*
X-26003Y25322D01*
X-25964Y25282D01*
X-25924Y25322D01*
X-25846Y25322D01*
X-25767Y25243D01*
X-25767Y25165D01*
X-25806Y25126D01*
X-25964Y25165D02*
X-25964Y25282D01*
X-23967Y23900D02*
X-25633Y23900D01*
X-25633Y24900D02*
X-23967Y24900D01*
X-25633Y23900D02*
X-25633Y24900D01*
X-23967Y24900D02*
X-23967Y23900D01*
X-17904Y24689D02*
X-17949Y24778D01*
X-17949Y24867D01*
X-17904Y24956D01*
X-17768Y24956D01*
X-17723Y24867D01*
X-17723Y24778D01*
X-17768Y24689D01*
X-17949Y24422D02*
X-17836Y24422D01*
X-17768Y24289D01*
X-17723Y24289D01*
X-17723Y24556D01*
X-17768Y24556D01*
X-19633Y25100D02*
X-17967Y25100D01*
X-17967Y24100D02*
X-19633Y24100D01*
X-17967Y25100D02*
X-17967Y24100D01*
X-18633Y24600D02*
X-18584Y24600D01*
X-19633Y24100D02*
X-19633Y25100D01*
X-18717Y24350D02*
X-18717Y24850D01*
X-18633Y24350D02*
X-18633Y24850D01*
X-18667Y24350D02*
X-18667Y24850D01*
X-18967Y24850D02*
X-18967Y24350D01*
X-18883Y24850D02*
X-18883Y24350D01*
X-18917Y24350D02*
X-18917Y24850D01*
X-18967Y24600D02*
X-19007Y24600D01*
X-25767Y25934D02*
X-26161Y25934D01*
X-26161Y26090D01*
X-26082Y26169D01*
X-26043Y26169D01*
X-25964Y26090D01*
X-25964Y25934D01*
X-25964Y25973D02*
X-25767Y26169D01*
X-26161Y26522D02*
X-26161Y26286D01*
X-26003Y26286D01*
X-26003Y26443D01*
X-25924Y26522D01*
X-25846Y26522D01*
X-25767Y26443D01*
X-25767Y26286D01*
X-23967Y25100D02*
X-25633Y25100D01*
X-25633Y26100D02*
X-23967Y26100D01*
X-25633Y25100D02*
X-25633Y26100D01*
X-23967Y26100D02*
X-23967Y25100D01*
X-17861Y29139D02*
X-17861Y26461D01*
X-20539Y26461D01*
X-20539Y29139D01*
X-17861Y29139D01*
X-18196Y28916D02*
G75*
D01*
G02X-18196Y28916I98J0*
G01*
X-25667Y27134D02*
X-26061Y27134D01*
X-26061Y27290D01*
X-25982Y27369D01*
X-25943Y27369D01*
X-25864Y27290D01*
X-25864Y27134D01*
X-25864Y27173D02*
X-25667Y27369D01*
X-25982Y27486D02*
X-26061Y27565D01*
X-26061Y27643D01*
X-25982Y27722D01*
X-25943Y27722D01*
X-25667Y27486D01*
X-25667Y27722D01*
X-25706Y27722D01*
X-23967Y26300D02*
X-25633Y26300D01*
X-25633Y27300D02*
X-23967Y27300D01*
X-25633Y26300D02*
X-25633Y27300D01*
X-23967Y27300D02*
X-23967Y26300D01*
X-25396Y28911D02*
X-25351Y28822D01*
X-25351Y28733D01*
X-25396Y28644D01*
X-25532Y28644D01*
X-25577Y28733D01*
X-25577Y28822D01*
X-25532Y28911D01*
X-25577Y29267D02*
X-25577Y29133D01*
X-25532Y29044D01*
X-25442Y29044D01*
X-25396Y29044D01*
X-25351Y29133D01*
X-25351Y29222D01*
X-25396Y29311D01*
X-25442Y29311D01*
X-25487Y29222D01*
X-25487Y29133D01*
X-25442Y29044D01*
X-27433Y29500D02*
X-25767Y29500D01*
X-25767Y28500D02*
X-27433Y28500D01*
X-25767Y29500D02*
X-25767Y28500D01*
X-26433Y29000D02*
X-26384Y29000D01*
X-27433Y28500D02*
X-27433Y29500D01*
X-26517Y28750D02*
X-26517Y29250D01*
X-26433Y28750D02*
X-26433Y29250D01*
X-26467Y28750D02*
X-26467Y29250D01*
X-26767Y29250D02*
X-26767Y28750D01*
X-26683Y29250D02*
X-26683Y28750D01*
X-26717Y28750D02*
X-26717Y29250D01*
X-26767Y29000D02*
X-26807Y29000D01*
X-25167Y29781D02*
X-25561Y29781D01*
X-25561Y29938D01*
X-25482Y30016D01*
X-25443Y30016D01*
X-25364Y29938D01*
X-25364Y29781D01*
X-25364Y29820D02*
X-25167Y30016D01*
X-25482Y30173D02*
X-25561Y30251D01*
X-25167Y30251D01*
X-25167Y30134D02*
X-25167Y30369D01*
X-25482Y30486D02*
X-25561Y30565D01*
X-25561Y30643D01*
X-25482Y30722D01*
X-25246Y30722D01*
X-25167Y30643D01*
X-25167Y30565D01*
X-25246Y30486D01*
X-25482Y30486D01*
X-25482Y30722D02*
X-25246Y30486D01*
X-25767Y29700D02*
X-27433Y29700D01*
X-27433Y30700D02*
X-25767Y30700D01*
X-27433Y29700D02*
X-27433Y30700D01*
X-25767Y30700D02*
X-25767Y29700D01*
X-18089Y29896D02*
X-18178Y29851D01*
X-18267Y29851D01*
X-18356Y29896D01*
X-18356Y30032D01*
X-18267Y30077D01*
X-18178Y30077D01*
X-18089Y30032D01*
X-17689Y30077D02*
X-17956Y30077D01*
X-17956Y29987D01*
X-17778Y29987D01*
X-17689Y29942D01*
X-17689Y29896D01*
X-17778Y29851D01*
X-17956Y29851D01*
X-17700Y31833D02*
X-17700Y30167D01*
X-18700Y30167D02*
X-18700Y31833D01*
X-17700Y30167D02*
X-18700Y30167D01*
X-18200Y30833D02*
X-18200Y30784D01*
X-18700Y31833D02*
X-17700Y31833D01*
X-18450Y30917D02*
X-17950Y30917D01*
X-18450Y30833D02*
X-17950Y30833D01*
X-18450Y30867D02*
X-17950Y30867D01*
X-17950Y31167D02*
X-18450Y31167D01*
X-17950Y31083D02*
X-18450Y31083D01*
X-18450Y31117D02*
X-17950Y31117D01*
X-18200Y31167D02*
X-18200Y31207D01*
X-16989Y29896D02*
X-17078Y29851D01*
X-17167Y29851D01*
X-17256Y29896D01*
X-17256Y30032D01*
X-17167Y30077D01*
X-17078Y30077D01*
X-16989Y30032D01*
X-16589Y29942D02*
X-16856Y29942D01*
X-16633Y30077D01*
X-16633Y29851D01*
X-16678Y29851D02*
X-16589Y29851D01*
X-16500Y31833D02*
X-16500Y30167D01*
X-17500Y30167D02*
X-17500Y31833D01*
X-16500Y30167D02*
X-17500Y30167D01*
X-17000Y30833D02*
X-17000Y30784D01*
X-17500Y31833D02*
X-16500Y31833D01*
X-17250Y30917D02*
X-16750Y30917D01*
X-17250Y30833D02*
X-16750Y30833D01*
X-17250Y30867D02*
X-16750Y30867D01*
X-16750Y31167D02*
X-17250Y31167D01*
X-16750Y31083D02*
X-17250Y31083D01*
X-17250Y31117D02*
X-16750Y31117D01*
X-17000Y31167D02*
X-17000Y31207D01*
X-24980Y31900D02*
X-27420Y31900D01*
X-27420Y30900D01*
X-24980Y30900D01*
X-24980Y31900D01*
G54D12*
X-17761Y11261D02*
X-17761Y10946D01*
X-17682Y10867D01*
X-17604Y10867D01*
X-17526Y10946D01*
X-17526Y11261D01*
X-17251Y10867D02*
X-17330Y10867D01*
X-17408Y10946D01*
X-17408Y11024D01*
X-17369Y11064D01*
X-17408Y11103D01*
X-17408Y11182D01*
X-17330Y11261D01*
X-17251Y11261D01*
X-17173Y11182D01*
X-17173Y11103D01*
X-17212Y11064D01*
X-17173Y11024D01*
X-17173Y10946D01*
X-17251Y10867D01*
X-17369Y11064D02*
X-17212Y11064D01*
X-24969Y10711D02*
X-24890Y10789D01*
X-24890Y10868D01*
X-24969Y10946D01*
X-25205Y10946D01*
X-25283Y10868D01*
X-25283Y10789D01*
X-25205Y10711D01*
X-24969Y10711D01*
X-24969Y10868D02*
X-24890Y10946D01*
X-25244Y11103D02*
X-25283Y11142D01*
X-25283Y11220D01*
X-25205Y11299D01*
X-25126Y11299D01*
X-25087Y11260D01*
X-25047Y11299D01*
X-24969Y11299D01*
X-24890Y11220D01*
X-24890Y11142D01*
X-24929Y11103D01*
X-25087Y11142D02*
X-25087Y11260D01*
X-25461Y19061D02*
X-25461Y18746D01*
X-25383Y18668D01*
X-25304Y18668D01*
X-25226Y18746D01*
X-25226Y19061D01*
X-24913Y19061D02*
X-25031Y19061D01*
X-25109Y18982D01*
X-25109Y18825D01*
X-25109Y18746D01*
X-25031Y18668D01*
X-24952Y18668D01*
X-24874Y18746D01*
X-24874Y18825D01*
X-24952Y18904D01*
X-25031Y18904D01*
X-25109Y18825D01*
X-25861Y22061D02*
X-25861Y21667D01*
X-25626Y21667D01*
X-25469Y21982D02*
X-25390Y22061D01*
X-25390Y21667D01*
X-25508Y21667D02*
X-25273Y21667D01*
X-27261Y27767D02*
X-27104Y27767D01*
X-27026Y27846D01*
X-27026Y28082D01*
X-27104Y28161D01*
X-27261Y28161D01*
X-27222Y28161D02*
X-27222Y27767D01*
X-26869Y28082D02*
X-26790Y28161D01*
X-26790Y27767D01*
X-26908Y27767D02*
X-26673Y27767D01*
X-21261Y30246D02*
X-21182Y30167D01*
X-21104Y30167D01*
X-21026Y30246D01*
X-21026Y30561D01*
X-20869Y30521D02*
X-20830Y30561D01*
X-20751Y30561D01*
X-20673Y30482D01*
X-20673Y30403D01*
X-20712Y30364D01*
X-20673Y30324D01*
X-20673Y30246D01*
X-20751Y30167D01*
X-20830Y30167D01*
X-20869Y30206D01*
X-20830Y30364D02*
X-20712Y30364D01*
G54D13*
X-16947Y10791D02*
X-17853Y10791D01*
X-17853Y9609D02*
X-16947Y9609D01*
X-16947Y10791D01*
X-17026Y9609D02*
X-16947Y9688D01*
X-17105Y9609D02*
X-16947Y9767D01*
X-17183Y9609D02*
X-16947Y9846D01*
X-17262Y9609D02*
X-16947Y9924D01*
X-17341Y9609D02*
X-16947Y10003D01*
X-17853Y10791D02*
X-17853Y9609D01*
X-26194Y11118D02*
X-26194Y10882D01*
X-25406Y10882D02*
X-25406Y11118D01*
X-26194Y11118D01*
X-26194Y10882D02*
X-25406Y10882D01*
X-25817Y20508D02*
X-25383Y20508D01*
X-25817Y21492D02*
X-25383Y21492D01*
X-25817Y21492D02*
X-25383Y21492D01*
X-26665Y26524D02*
X-26665Y27076D01*
X-27335Y26524D02*
X-27335Y27076D01*
X-26665Y26524D02*
X-27335Y26524D01*
X-26665Y26603D02*
X-27335Y26603D01*
X-26665Y26682D02*
X-27335Y26682D01*
G54D14*
X-16406Y9550D02*
G75*
D01*
G02X-16406Y9550I49J0*
G01*
X-25318Y11512D02*
G75*
D01*
G02X-25318Y11512I49J0*
G01*
X-27049Y25717D02*
G75*
D01*
G02X-27049Y25717I49J0*
G01*
G54D15*
X-16614Y26943D02*
X-16614Y27336D01*
X-16457Y27336D01*
X-16378Y27257D01*
X-16378Y27218D01*
X-16457Y27139D01*
X-16614Y27139D01*
X-16574Y27139D02*
X-16378Y26943D01*
X-16261Y27336D02*
X-16026Y26943D01*
X-16261Y26943D02*
X-16026Y27336D01*
X-16543Y28567D02*
X-16543Y28961D01*
X-16661Y28961D02*
X-16426Y28961D01*
X-16308Y28961D02*
X-16073Y28567D01*
X-16308Y28567D02*
X-16073Y28961D01*
X-20361Y30867D02*
X-20361Y31261D01*
X-20204Y31261D01*
X-20126Y31182D01*
X-20126Y31143D01*
X-20204Y31064D01*
X-20361Y31064D01*
X-20008Y31261D02*
X-19969Y30867D01*
X-19890Y31024D01*
X-19812Y30867D01*
X-19773Y31261D01*
X-19655Y30867D02*
X-19655Y31261D01*
X-19499Y31261D01*
X-19420Y31182D01*
X-19420Y31143D01*
X-19499Y31064D01*
X-19655Y31064D01*
X-19616Y31064D02*
X-19420Y30867D01*
X-22385Y28804D02*
X-22385Y28726D01*
X-22503Y28726D01*
X-22582Y28804D01*
X-22582Y28882D01*
X-22503Y28961D01*
X-22267Y28961D01*
X-22188Y28882D01*
X-22188Y28726D01*
X-22582Y28608D02*
X-22188Y28608D01*
X-22582Y28373D01*
X-22188Y28373D01*
X-22582Y28255D02*
X-22582Y28099D01*
X-22503Y28020D01*
X-22267Y28020D01*
X-22188Y28099D01*
X-22188Y28255D01*
X-22188Y28216D02*
X-22582Y28216D01*
X-22582Y27550D02*
X-22188Y27550D01*
X-22188Y27393D01*
X-22267Y27315D01*
X-22306Y27315D01*
X-22385Y27393D01*
X-22385Y27550D01*
X-22385Y27511D02*
X-22582Y27315D01*
X-22503Y27197D02*
X-22582Y27119D01*
X-22582Y27040D01*
X-22503Y26962D01*
X-22267Y27197D01*
X-22188Y27119D01*
X-22188Y27040D01*
X-22267Y26962D01*
X-22582Y26727D02*
X-22188Y26727D01*
X-22188Y26844D02*
X-22188Y26609D01*
X-22582Y26139D02*
X-22188Y26139D01*
X-22385Y26021D01*
X-22188Y25904D01*
X-22582Y25904D01*
X-22503Y25786D02*
X-22582Y25708D01*
X-22582Y25629D01*
X-22503Y25551D01*
X-22267Y25551D01*
X-22188Y25629D01*
X-22188Y25708D01*
X-22267Y25786D01*
X-22503Y25786D01*
X-22582Y25080D02*
X-22188Y25080D01*
X-22385Y24963D01*
X-22188Y24845D01*
X-22582Y24845D01*
X-22582Y24649D02*
X-22582Y24571D01*
X-22188Y24649D02*
X-22188Y24571D01*
X-22582Y24610D02*
X-22188Y24610D01*
X-22188Y23317D02*
X-22582Y23199D01*
X-22188Y23082D01*
X-22503Y22729D02*
X-22582Y22807D01*
X-22582Y22886D01*
X-22503Y22964D01*
X-22267Y22964D01*
X-22188Y22886D01*
X-22188Y22807D01*
X-22267Y22729D01*
X-22503Y22376D02*
X-22582Y22454D01*
X-22582Y22533D01*
X-22503Y22611D01*
X-22267Y22611D01*
X-22188Y22533D01*
X-22188Y22454D01*
X-22267Y22376D01*
X-24761Y28882D02*
X-24682Y28961D01*
X-24604Y28961D01*
X-24526Y28882D01*
X-24526Y28843D01*
X-24761Y28567D01*
X-24526Y28567D01*
X-24526Y28606D01*
X-24408Y28882D02*
X-24330Y28961D01*
X-24251Y28961D01*
X-24173Y28882D01*
X-24173Y28646D01*
X-24251Y28567D01*
X-24330Y28567D01*
X-24408Y28646D01*
X-24408Y28882D01*
X-24173Y28882D02*
X-24408Y28646D01*
X-24016Y28882D02*
X-23938Y28961D01*
X-23938Y28567D01*
X-24055Y28567D02*
X-23820Y28567D01*
X-23467Y28724D02*
X-23703Y28724D01*
X-23507Y28961D01*
X-23507Y28567D01*
X-23546Y28567D02*
X-23467Y28567D01*
G54D16*
G36*
X-24473Y31248D02*
X-24473Y31248D01*
X-24435Y31248D01*
X-24435Y31265D01*
X-24473Y31265D01*
X-24473Y31248D01*
D02*
G37*
G36*
X-23960Y31248D02*
X-23960Y31248D01*
X-23941Y31248D01*
X-23941Y31265D01*
X-23960Y31265D01*
X-23960Y31248D01*
D02*
G37*
G36*
X-24473Y31230D02*
X-24473Y31230D01*
X-24416Y31230D01*
X-24416Y31248D01*
X-24473Y31248D01*
X-24473Y31230D01*
D02*
G37*
G36*
X-23979Y31230D02*
X-23979Y31230D01*
X-23941Y31230D01*
X-23941Y31248D01*
X-23979Y31248D01*
X-23979Y31230D01*
D02*
G37*
G36*
X-24473Y31213D02*
X-24473Y31213D01*
X-24397Y31213D01*
X-24397Y31230D01*
X-24473Y31230D01*
X-24473Y31213D01*
D02*
G37*
G36*
X-23998Y31213D02*
X-23998Y31213D01*
X-23941Y31213D01*
X-23941Y31230D01*
X-23998Y31230D01*
X-23998Y31213D01*
D02*
G37*
G36*
X-24473Y31195D02*
X-24473Y31195D01*
X-24397Y31195D01*
X-24397Y31213D01*
X-24473Y31213D01*
X-24473Y31195D01*
D02*
G37*
G36*
X-24017Y31195D02*
X-24017Y31195D01*
X-23941Y31195D01*
X-23941Y31213D01*
X-24017Y31213D01*
X-24017Y31195D01*
D02*
G37*
G36*
X-24473Y31178D02*
X-24473Y31178D01*
X-24378Y31178D01*
X-24378Y31195D01*
X-24473Y31195D01*
X-24473Y31178D01*
D02*
G37*
G36*
X-24036Y31178D02*
X-24036Y31178D01*
X-23941Y31178D01*
X-23941Y31195D01*
X-24036Y31195D01*
X-24036Y31178D01*
D02*
G37*
G36*
X-24473Y31161D02*
X-24473Y31161D01*
X-24359Y31161D01*
X-24359Y31178D01*
X-24473Y31178D01*
X-24473Y31161D01*
D02*
G37*
G36*
X-24055Y31161D02*
X-24055Y31161D01*
X-23941Y31161D01*
X-23941Y31178D01*
X-24055Y31178D01*
X-24055Y31161D01*
D02*
G37*
G36*
X-24473Y31143D02*
X-24473Y31143D01*
X-24340Y31143D01*
X-24340Y31161D01*
X-24473Y31161D01*
X-24473Y31143D01*
D02*
G37*
G36*
X-24074Y31143D02*
X-24074Y31143D01*
X-23941Y31143D01*
X-23941Y31161D01*
X-24074Y31161D01*
X-24074Y31143D01*
D02*
G37*
G36*
X-24473Y31126D02*
X-24473Y31126D01*
X-24321Y31126D01*
X-24321Y31143D01*
X-24473Y31143D01*
X-24473Y31126D01*
D02*
G37*
G36*
X-24226Y31126D02*
X-24226Y31126D01*
X-24188Y31126D01*
X-24188Y31143D01*
X-24226Y31143D01*
X-24226Y31126D01*
D02*
G37*
G36*
X-24074Y31126D02*
X-24074Y31126D01*
X-23941Y31126D01*
X-23941Y31143D01*
X-24074Y31143D01*
X-24074Y31126D01*
D02*
G37*
G36*
X-24473Y31108D02*
X-24473Y31108D01*
X-24112Y31108D01*
X-24112Y31126D01*
X-24473Y31126D01*
X-24473Y31108D01*
D02*
G37*
G36*
X-24093Y31108D02*
X-24093Y31108D01*
X-23941Y31108D01*
X-23941Y31126D01*
X-24093Y31126D01*
X-24093Y31108D01*
D02*
G37*
G36*
X-24473Y31091D02*
X-24473Y31091D01*
X-23941Y31091D01*
X-23941Y31108D01*
X-24473Y31108D01*
X-24473Y31091D01*
D02*
G37*
G36*
X-24473Y31073D02*
X-24473Y31073D01*
X-23941Y31073D01*
X-23941Y31091D01*
X-24473Y31091D01*
X-24473Y31073D01*
D02*
G37*
G36*
X-24473Y31056D02*
X-24473Y31056D01*
X-23941Y31056D01*
X-23941Y31074D01*
X-24473Y31073D01*
X-24473Y31056D01*
D02*
G37*
G36*
X-24473Y31039D02*
X-24473Y31039D01*
X-23941Y31039D01*
X-23941Y31056D01*
X-24473Y31056D01*
X-24473Y31039D01*
D02*
G37*
G36*
X-24511Y31021D02*
X-24511Y31021D01*
X-23941Y31021D01*
X-23941Y31039D01*
X-24511Y31039D01*
X-24511Y31021D01*
D02*
G37*
G36*
X-24530Y31004D02*
X-24530Y31004D01*
X-23922Y31004D01*
X-23922Y31021D01*
X-24530Y31021D01*
X-24530Y31004D01*
D02*
G37*
G36*
X-24568Y30986D02*
X-24568Y30986D01*
X-23903Y30986D01*
X-23903Y31004D01*
X-24568Y31004D01*
X-24568Y30986D01*
D02*
G37*
G36*
X-24587Y30969D02*
X-24587Y30969D01*
X-23884Y30969D01*
X-23884Y30986D01*
X-24587Y30986D01*
X-24587Y30969D01*
D02*
G37*
G36*
X-24587Y30952D02*
X-24587Y30952D01*
X-23865Y30952D01*
X-23865Y30969D01*
X-24587Y30969D01*
X-24587Y30952D01*
D02*
G37*
G36*
X-24606Y30934D02*
X-24606Y30934D01*
X-23846Y30934D01*
X-23846Y30952D01*
X-24606Y30952D01*
X-24606Y30934D01*
D02*
G37*
G36*
X-24606Y30917D02*
X-24606Y30917D01*
X-23827Y30917D01*
X-23827Y30934D01*
X-24606Y30934D01*
X-24606Y30917D01*
D02*
G37*
G36*
X-24720Y30899D02*
X-24720Y30899D01*
X-24644Y30899D01*
X-24644Y30917D01*
X-24720Y30917D01*
X-24720Y30899D01*
D02*
G37*
G36*
X-24625Y30899D02*
X-24625Y30899D01*
X-23827Y30899D01*
X-23827Y30917D01*
X-24625Y30917D01*
X-24625Y30899D01*
D02*
G37*
G36*
X-23789Y30899D02*
X-23789Y30899D01*
X-23713Y30899D01*
X-23713Y30917D01*
X-23789Y30917D01*
X-23789Y30899D01*
D02*
G37*
G36*
X-24644Y30882D02*
X-24644Y30882D01*
X-23770Y30882D01*
X-23770Y30899D01*
X-24644Y30899D01*
X-24644Y30882D01*
D02*
G37*
G36*
X-24625Y30864D02*
X-24625Y30864D01*
X-23789Y30864D01*
X-23789Y30882D01*
X-24625Y30882D01*
X-24625Y30864D01*
D02*
G37*
G36*
X-24739Y30847D02*
X-24739Y30847D01*
X-23694Y30847D01*
X-23694Y30864D01*
X-24739Y30864D01*
X-24739Y30847D01*
D02*
G37*
G36*
X-24644Y30830D02*
X-24644Y30830D01*
X-23789Y30830D01*
X-23789Y30847D01*
X-24644Y30847D01*
X-24644Y30830D01*
D02*
G37*
G36*
X-24701Y30812D02*
X-24701Y30812D01*
X-24625Y30812D01*
X-24625Y30830D01*
X-24701Y30830D01*
X-24701Y30812D01*
D02*
G37*
G36*
X-24587Y30812D02*
X-24587Y30812D01*
X-23827Y30812D01*
X-23827Y30830D01*
X-24587Y30830D01*
X-24587Y30812D01*
D02*
G37*
G36*
X-23789Y30812D02*
X-23789Y30812D01*
X-23732Y30812D01*
X-23732Y30830D01*
X-23789Y30830D01*
X-23789Y30812D01*
D02*
G37*
G36*
X-24739Y30795D02*
X-24739Y30795D01*
X-24701Y30795D01*
X-24701Y30812D01*
X-24739Y30812D01*
X-24739Y30795D01*
D02*
G37*
G36*
X-24568Y30795D02*
X-24568Y30795D01*
X-23827Y30795D01*
X-23827Y30812D01*
X-24568Y30812D01*
X-24568Y30795D01*
D02*
G37*
G36*
X-23713Y30795D02*
X-23713Y30795D01*
X-23694Y30795D01*
X-23694Y30812D01*
X-23713Y30812D01*
X-23713Y30795D01*
D02*
G37*
G36*
X-24549Y30777D02*
X-24549Y30777D01*
X-23846Y30777D01*
X-23846Y30795D01*
X-24549Y30795D01*
X-24549Y30777D01*
D02*
G37*
G36*
X-24530Y30760D02*
X-24530Y30760D01*
X-23865Y30760D01*
X-23865Y30777D01*
X-24530Y30777D01*
X-24530Y30760D01*
D02*
G37*
G36*
X-24511Y30742D02*
X-24511Y30742D01*
X-23903Y30742D01*
X-23903Y30760D01*
X-24511Y30760D01*
X-24511Y30742D01*
D02*
G37*
G36*
X-24473Y30725D02*
X-24473Y30725D01*
X-23941Y30725D01*
X-23941Y30742D01*
X-24473Y30742D01*
X-24473Y30725D01*
D02*
G37*
G36*
X-24948Y30708D02*
X-24948Y30708D01*
X-24758Y30708D01*
X-24758Y30725D01*
X-24948Y30725D01*
X-24948Y30708D01*
D02*
G37*
G36*
X-24435Y30708D02*
X-24435Y30708D01*
X-23979Y30708D01*
X-23979Y30725D01*
X-24435Y30725D01*
X-24435Y30708D01*
D02*
G37*
G36*
X-24986Y30690D02*
X-24986Y30690D01*
X-24720Y30690D01*
X-24720Y30708D01*
X-24986Y30708D01*
X-24986Y30690D01*
D02*
G37*
G36*
X-24359Y30690D02*
X-24359Y30690D01*
X-24017Y30690D01*
X-24017Y30708D01*
X-24359Y30708D01*
X-24359Y30690D01*
D02*
G37*
G36*
X-25024Y30673D02*
X-25024Y30673D01*
X-24682Y30673D01*
X-24682Y30690D01*
X-25024Y30690D01*
X-25024Y30673D01*
D02*
G37*
G36*
X-24359Y30673D02*
X-24359Y30673D01*
X-24074Y30673D01*
X-24074Y30690D01*
X-24359Y30690D01*
X-24359Y30673D01*
D02*
G37*
G36*
X-25043Y30655D02*
X-25043Y30655D01*
X-24663Y30655D01*
X-24663Y30673D01*
X-25043Y30673D01*
X-25043Y30655D01*
D02*
G37*
G36*
X-24340Y30655D02*
X-24340Y30655D01*
X-24074Y30655D01*
X-24074Y30673D01*
X-24340Y30673D01*
X-24340Y30655D01*
D02*
G37*
G36*
X-25062Y30638D02*
X-25062Y30638D01*
X-24663Y30638D01*
X-24663Y30655D01*
X-25062Y30655D01*
X-25062Y30638D01*
D02*
G37*
G36*
X-24340Y30638D02*
X-24340Y30638D01*
X-24074Y30638D01*
X-24074Y30655D01*
X-24340Y30655D01*
X-24340Y30638D01*
D02*
G37*
G36*
X-25062Y30620D02*
X-25062Y30620D01*
X-24644Y30620D01*
X-24644Y30638D01*
X-25062Y30638D01*
X-25062Y30620D01*
D02*
G37*
G36*
X-24340Y30620D02*
X-24340Y30620D01*
X-24074Y30620D01*
X-24074Y30638D01*
X-24340Y30638D01*
X-24340Y30620D01*
D02*
G37*
G36*
X-25081Y30603D02*
X-25081Y30603D01*
X-24929Y30603D01*
X-24929Y30620D01*
X-25081Y30620D01*
X-25081Y30603D01*
D02*
G37*
G36*
X-24777Y30603D02*
X-24777Y30603D01*
X-24644Y30603D01*
X-24644Y30620D01*
X-24777Y30620D01*
X-24777Y30603D01*
D02*
G37*
G36*
X-24340Y30603D02*
X-24340Y30603D01*
X-24074Y30603D01*
X-24074Y30620D01*
X-24340Y30620D01*
X-24340Y30603D01*
D02*
G37*
G36*
X-25081Y30586D02*
X-25081Y30586D01*
X-24948Y30586D01*
X-24948Y30603D01*
X-25081Y30603D01*
X-25081Y30586D01*
D02*
G37*
G36*
X-24758Y30586D02*
X-24758Y30586D01*
X-24625Y30586D01*
X-24625Y30603D01*
X-24758Y30603D01*
X-24758Y30586D01*
D02*
G37*
G36*
X-24359Y30586D02*
X-24359Y30586D01*
X-24074Y30586D01*
X-24074Y30603D01*
X-24359Y30603D01*
X-24359Y30586D01*
D02*
G37*
G36*
X-25081Y30568D02*
X-25081Y30568D01*
X-24967Y30568D01*
X-24967Y30586D01*
X-25081Y30586D01*
X-25081Y30568D01*
D02*
G37*
G36*
X-24758Y30568D02*
X-24758Y30568D01*
X-24625Y30568D01*
X-24625Y30586D01*
X-24758Y30586D01*
X-24758Y30568D01*
D02*
G37*
G36*
X-24359Y30568D02*
X-24359Y30568D01*
X-24074Y30568D01*
X-24074Y30586D01*
X-24359Y30586D01*
X-24359Y30568D01*
D02*
G37*
G36*
X-25081Y30551D02*
X-25081Y30551D01*
X-24967Y30551D01*
X-24967Y30568D01*
X-25081Y30568D01*
X-25081Y30551D01*
D02*
G37*
G36*
X-24739Y30551D02*
X-24739Y30551D01*
X-24625Y30551D01*
X-24625Y30568D01*
X-24739Y30568D01*
X-24739Y30551D01*
D02*
G37*
G36*
X-24359Y30551D02*
X-24359Y30551D01*
X-24074Y30551D01*
X-24074Y30568D01*
X-24359Y30568D01*
X-24359Y30551D01*
D02*
G37*
G36*
X-25081Y30533D02*
X-25081Y30533D01*
X-24986Y30533D01*
X-24986Y30551D01*
X-25081Y30551D01*
X-25081Y30533D01*
D02*
G37*
G36*
X-24739Y30533D02*
X-24739Y30533D01*
X-24625Y30533D01*
X-24625Y30551D01*
X-24739Y30551D01*
X-24739Y30533D01*
D02*
G37*
G36*
X-24359Y30533D02*
X-24359Y30533D01*
X-24074Y30533D01*
X-24074Y30551D01*
X-24359Y30551D01*
X-24359Y30533D01*
D02*
G37*
G36*
X-25081Y30516D02*
X-25081Y30516D01*
X-24986Y30516D01*
X-24986Y30533D01*
X-25081Y30533D01*
X-25081Y30516D01*
D02*
G37*
G36*
X-24739Y30516D02*
X-24739Y30516D01*
X-24625Y30516D01*
X-24625Y30533D01*
X-24739Y30533D01*
X-24739Y30516D01*
D02*
G37*
G36*
X-24359Y30516D02*
X-24359Y30516D01*
X-24055Y30516D01*
X-24055Y30533D01*
X-24359Y30533D01*
X-24359Y30516D01*
D02*
G37*
G36*
X-25081Y30498D02*
X-25081Y30498D01*
X-24967Y30498D01*
X-24967Y30516D01*
X-25081Y30516D01*
X-25081Y30498D01*
D02*
G37*
G36*
X-24720Y30498D02*
X-24720Y30498D01*
X-24625Y30498D01*
X-24625Y30516D01*
X-24720Y30516D01*
X-24720Y30498D01*
D02*
G37*
G36*
X-24359Y30498D02*
X-24359Y30498D01*
X-24055Y30498D01*
X-24055Y30516D01*
X-24359Y30516D01*
X-24359Y30498D01*
D02*
G37*
G36*
X-25081Y30481D02*
X-25081Y30481D01*
X-24967Y30481D01*
X-24967Y30498D01*
X-25081Y30498D01*
X-25081Y30481D01*
D02*
G37*
G36*
X-24720Y30481D02*
X-24720Y30481D01*
X-24625Y30481D01*
X-24625Y30498D01*
X-24720Y30498D01*
X-24720Y30481D01*
D02*
G37*
G36*
X-24359Y30481D02*
X-24359Y30481D01*
X-24055Y30481D01*
X-24055Y30498D01*
X-24359Y30498D01*
X-24359Y30481D01*
D02*
G37*
G36*
X-25081Y30464D02*
X-25081Y30464D01*
X-24948Y30464D01*
X-24948Y30481D01*
X-25081Y30481D01*
X-25081Y30464D01*
D02*
G37*
G36*
X-24720Y30464D02*
X-24720Y30464D01*
X-24625Y30464D01*
X-24625Y30481D01*
X-24720Y30481D01*
X-24720Y30464D01*
D02*
G37*
G36*
X-24359Y30464D02*
X-24359Y30464D01*
X-24055Y30464D01*
X-24055Y30481D01*
X-24359Y30481D01*
X-24359Y30464D01*
D02*
G37*
G36*
X-25062Y30446D02*
X-25062Y30446D01*
X-24948Y30446D01*
X-24948Y30464D01*
X-25062Y30464D01*
X-25062Y30446D01*
D02*
G37*
G36*
X-24720Y30446D02*
X-24720Y30446D01*
X-24625Y30446D01*
X-24625Y30464D01*
X-24720Y30464D01*
X-24720Y30446D01*
D02*
G37*
G36*
X-24378Y30446D02*
X-24378Y30446D01*
X-24055Y30446D01*
X-24055Y30464D01*
X-24378Y30464D01*
X-24378Y30446D01*
D02*
G37*
G36*
X-25043Y30429D02*
X-25043Y30429D01*
X-24910Y30429D01*
X-24910Y30446D01*
X-25043Y30446D01*
X-25043Y30429D01*
D02*
G37*
G36*
X-24720Y30429D02*
X-24720Y30429D01*
X-24625Y30429D01*
X-24625Y30446D01*
X-24720Y30446D01*
X-24720Y30429D01*
D02*
G37*
G36*
X-24378Y30429D02*
X-24378Y30429D01*
X-24036Y30429D01*
X-24036Y30446D01*
X-24378Y30446D01*
X-24378Y30429D01*
D02*
G37*
G36*
X-25043Y30411D02*
X-25043Y30411D01*
X-24891Y30411D01*
X-24891Y30429D01*
X-25043Y30429D01*
X-25043Y30411D01*
D02*
G37*
G36*
X-24720Y30411D02*
X-24720Y30411D01*
X-24625Y30411D01*
X-24625Y30429D01*
X-24720Y30429D01*
X-24720Y30411D01*
D02*
G37*
G36*
X-24378Y30411D02*
X-24378Y30411D01*
X-24036Y30411D01*
X-24036Y30429D01*
X-24378Y30429D01*
X-24378Y30411D01*
D02*
G37*
G36*
X-25024Y30394D02*
X-25024Y30394D01*
X-24872Y30394D01*
X-24872Y30411D01*
X-25024Y30411D01*
X-25024Y30394D01*
D02*
G37*
G36*
X-24739Y30394D02*
X-24739Y30394D01*
X-24625Y30394D01*
X-24625Y30411D01*
X-24739Y30411D01*
X-24739Y30394D01*
D02*
G37*
G36*
X-24397Y30394D02*
X-24397Y30394D01*
X-24036Y30394D01*
X-24036Y30411D01*
X-24397Y30411D01*
X-24397Y30394D01*
D02*
G37*
G36*
X-24986Y30377D02*
X-24986Y30377D01*
X-24872Y30377D01*
X-24872Y30394D01*
X-24986Y30394D01*
X-24986Y30377D01*
D02*
G37*
G36*
X-24739Y30377D02*
X-24739Y30377D01*
X-24625Y30377D01*
X-24625Y30394D01*
X-24739Y30394D01*
X-24739Y30377D01*
D02*
G37*
G36*
X-24397Y30377D02*
X-24397Y30377D01*
X-24017Y30377D01*
X-24017Y30394D01*
X-24397Y30394D01*
X-24397Y30377D01*
D02*
G37*
G36*
X-24948Y30359D02*
X-24948Y30359D01*
X-24891Y30359D01*
X-24891Y30377D01*
X-24948Y30377D01*
X-24948Y30359D01*
D02*
G37*
G36*
X-24739Y30359D02*
X-24739Y30359D01*
X-24625Y30359D01*
X-24625Y30377D01*
X-24739Y30377D01*
X-24739Y30359D01*
D02*
G37*
G36*
X-24416Y30359D02*
X-24416Y30359D01*
X-24017Y30359D01*
X-24017Y30377D01*
X-24416Y30377D01*
X-24416Y30359D01*
D02*
G37*
G36*
X-24739Y30342D02*
X-24739Y30342D01*
X-24625Y30342D01*
X-24625Y30359D01*
X-24739Y30359D01*
X-24739Y30342D01*
D02*
G37*
G36*
X-24416Y30342D02*
X-24416Y30342D01*
X-23998Y30342D01*
X-23998Y30359D01*
X-24416Y30359D01*
X-24416Y30342D01*
D02*
G37*
G36*
X-24739Y30324D02*
X-24739Y30324D01*
X-24625Y30324D01*
X-24625Y30342D01*
X-24739Y30342D01*
X-24739Y30324D01*
D02*
G37*
G36*
X-24435Y30324D02*
X-24435Y30324D01*
X-23998Y30324D01*
X-23998Y30342D01*
X-24435Y30342D01*
X-24435Y30324D01*
D02*
G37*
G36*
X-24758Y30307D02*
X-24758Y30307D01*
X-24625Y30307D01*
X-24625Y30324D01*
X-24758Y30324D01*
X-24758Y30307D01*
D02*
G37*
G36*
X-24435Y30307D02*
X-24435Y30307D01*
X-23979Y30307D01*
X-23979Y30324D01*
X-24435Y30324D01*
X-24435Y30307D01*
D02*
G37*
G36*
X-24758Y30289D02*
X-24758Y30289D01*
X-24644Y30289D01*
X-24644Y30307D01*
X-24758Y30307D01*
X-24758Y30289D01*
D02*
G37*
G36*
X-24454Y30289D02*
X-24454Y30289D01*
X-23960Y30289D01*
X-23960Y30307D01*
X-24454Y30307D01*
X-24454Y30289D01*
D02*
G37*
G36*
X-24758Y30272D02*
X-24758Y30272D01*
X-24644Y30272D01*
X-24644Y30289D01*
X-24758Y30289D01*
X-24758Y30272D01*
D02*
G37*
G36*
X-24473Y30272D02*
X-24473Y30272D01*
X-23941Y30272D01*
X-23941Y30289D01*
X-24473Y30289D01*
X-24473Y30272D01*
D02*
G37*
G36*
X-24758Y30255D02*
X-24758Y30255D01*
X-24644Y30255D01*
X-24644Y30272D01*
X-24758Y30272D01*
X-24758Y30255D01*
D02*
G37*
G36*
X-24492Y30255D02*
X-24492Y30255D01*
X-23922Y30255D01*
X-23922Y30272D01*
X-24492Y30272D01*
X-24492Y30255D01*
D02*
G37*
G36*
X-24777Y30237D02*
X-24777Y30237D01*
X-24644Y30237D01*
X-24644Y30255D01*
X-24777Y30255D01*
X-24777Y30237D01*
D02*
G37*
G36*
X-24511Y30237D02*
X-24511Y30237D01*
X-23903Y30237D01*
X-23903Y30255D01*
X-24511Y30255D01*
X-24511Y30237D01*
D02*
G37*
G36*
X-24777Y30220D02*
X-24777Y30220D01*
X-24644Y30220D01*
X-24644Y30237D01*
X-24777Y30237D01*
X-24777Y30220D01*
D02*
G37*
G36*
X-24530Y30220D02*
X-24530Y30220D01*
X-23903Y30220D01*
X-23903Y30237D01*
X-24530Y30237D01*
X-24530Y30220D01*
D02*
G37*
G36*
X-24777Y30202D02*
X-24777Y30202D01*
X-24644Y30202D01*
X-24644Y30220D01*
X-24777Y30220D01*
X-24777Y30202D01*
D02*
G37*
G36*
X-24530Y30202D02*
X-24530Y30202D01*
X-23884Y30202D01*
X-23884Y30220D01*
X-24530Y30220D01*
X-24530Y30202D01*
D02*
G37*
G36*
X-24777Y30185D02*
X-24777Y30185D01*
X-24663Y30185D01*
X-24663Y30202D01*
X-24777Y30202D01*
X-24777Y30185D01*
D02*
G37*
G36*
X-24549Y30185D02*
X-24549Y30185D01*
X-23865Y30185D01*
X-23865Y30202D01*
X-24549Y30202D01*
X-24549Y30185D01*
D02*
G37*
G36*
X-24796Y30167D02*
X-24796Y30167D01*
X-24663Y30167D01*
X-24663Y30185D01*
X-24796Y30185D01*
X-24796Y30167D01*
D02*
G37*
G36*
X-24549Y30167D02*
X-24549Y30167D01*
X-23865Y30167D01*
X-23865Y30185D01*
X-24549Y30185D01*
X-24549Y30167D01*
D02*
G37*
G36*
X-24796Y30150D02*
X-24796Y30150D01*
X-24663Y30150D01*
X-24663Y30167D01*
X-24796Y30167D01*
X-24796Y30150D01*
D02*
G37*
G36*
X-24568Y30150D02*
X-24568Y30150D01*
X-23865Y30150D01*
X-23865Y30167D01*
X-24568Y30167D01*
X-24568Y30150D01*
D02*
G37*
G36*
X-24796Y30133D02*
X-24796Y30133D01*
X-24663Y30133D01*
X-24663Y30150D01*
X-24796Y30150D01*
X-24796Y30133D01*
D02*
G37*
G36*
X-24568Y30133D02*
X-24568Y30133D01*
X-23865Y30133D01*
X-23865Y30150D01*
X-24568Y30150D01*
X-24568Y30133D01*
D02*
G37*
G36*
X-24796Y30115D02*
X-24796Y30115D01*
X-24663Y30115D01*
X-24663Y30133D01*
X-24796Y30133D01*
X-24796Y30115D01*
D02*
G37*
G36*
X-24568Y30115D02*
X-24568Y30115D01*
X-23865Y30115D01*
X-23865Y30133D01*
X-24568Y30133D01*
X-24568Y30115D01*
D02*
G37*
G36*
X-24796Y30098D02*
X-24796Y30098D01*
X-24663Y30098D01*
X-24663Y30115D01*
X-24796Y30115D01*
X-24796Y30098D01*
D02*
G37*
G36*
X-24568Y30098D02*
X-24568Y30098D01*
X-23846Y30098D01*
X-23846Y30115D01*
X-24568Y30115D01*
X-24568Y30098D01*
D02*
G37*
G36*
X-24796Y30080D02*
X-24796Y30080D01*
X-24663Y30080D01*
X-24663Y30098D01*
X-24796Y30098D01*
X-24796Y30080D01*
D02*
G37*
G36*
X-24568Y30080D02*
X-24568Y30080D01*
X-23846Y30080D01*
X-23846Y30098D01*
X-24568Y30098D01*
X-24568Y30080D01*
D02*
G37*
G36*
X-24796Y30063D02*
X-24796Y30063D01*
X-24663Y30063D01*
X-24663Y30080D01*
X-24796Y30080D01*
X-24796Y30063D01*
D02*
G37*
G36*
X-24568Y30063D02*
X-24568Y30063D01*
X-23846Y30063D01*
X-23846Y30080D01*
X-24568Y30080D01*
X-24568Y30063D01*
D02*
G37*
G36*
X-24796Y30045D02*
X-24796Y30045D01*
X-24663Y30045D01*
X-24663Y30063D01*
X-24796Y30063D01*
X-24796Y30045D01*
D02*
G37*
G36*
X-24568Y30045D02*
X-24568Y30045D01*
X-23865Y30045D01*
X-23865Y30063D01*
X-24568Y30063D01*
X-24568Y30045D01*
D02*
G37*
G36*
X-24796Y30028D02*
X-24796Y30028D01*
X-24663Y30028D01*
X-24663Y30045D01*
X-24796Y30045D01*
X-24796Y30028D01*
D02*
G37*
G36*
X-24568Y30028D02*
X-24568Y30028D01*
X-23865Y30028D01*
X-23865Y30045D01*
X-24568Y30045D01*
X-24568Y30028D01*
D02*
G37*
G36*
X-24796Y30011D02*
X-24796Y30011D01*
X-24663Y30011D01*
X-24663Y30028D01*
X-24796Y30028D01*
X-24796Y30011D01*
D02*
G37*
G36*
X-24568Y30011D02*
X-24568Y30011D01*
X-23865Y30011D01*
X-23865Y30028D01*
X-24568Y30028D01*
X-24568Y30011D01*
D02*
G37*
G36*
X-24796Y29993D02*
X-24796Y29993D01*
X-24663Y29993D01*
X-24663Y30011D01*
X-24796Y30011D01*
X-24796Y29993D01*
D02*
G37*
G36*
X-24549Y29993D02*
X-24549Y29993D01*
X-23865Y29993D01*
X-23865Y30011D01*
X-24549Y30011D01*
X-24549Y29993D01*
D02*
G37*
G36*
X-24815Y29976D02*
X-24815Y29976D01*
X-24663Y29976D01*
X-24663Y29993D01*
X-24815Y29993D01*
X-24815Y29976D01*
D02*
G37*
G36*
X-24549Y29976D02*
X-24549Y29976D01*
X-23865Y29976D01*
X-23865Y29993D01*
X-24549Y29993D01*
X-24549Y29976D01*
D02*
G37*
G36*
X-24815Y29958D02*
X-24815Y29958D01*
X-24663Y29958D01*
X-24663Y29976D01*
X-24815Y29976D01*
X-24815Y29958D01*
D02*
G37*
G36*
X-24549Y29958D02*
X-24549Y29958D01*
X-23865Y29958D01*
X-23865Y29976D01*
X-24549Y29976D01*
X-24549Y29958D01*
D02*
G37*
G36*
X-24815Y29941D02*
X-24815Y29941D01*
X-24663Y29941D01*
X-24663Y29958D01*
X-24815Y29958D01*
X-24815Y29941D01*
D02*
G37*
G36*
X-24549Y29941D02*
X-24549Y29941D01*
X-23865Y29941D01*
X-23865Y29958D01*
X-24549Y29958D01*
X-24549Y29941D01*
D02*
G37*
G36*
X-24796Y29923D02*
X-24796Y29923D01*
X-24663Y29923D01*
X-24663Y29941D01*
X-24796Y29941D01*
X-24796Y29923D01*
D02*
G37*
G36*
X-24549Y29923D02*
X-24549Y29923D01*
X-23884Y29923D01*
X-23884Y29941D01*
X-24549Y29941D01*
X-24549Y29923D01*
D02*
G37*
G36*
X-24815Y29906D02*
X-24815Y29906D01*
X-24663Y29906D01*
X-24663Y29923D01*
X-24815Y29923D01*
X-24815Y29906D01*
D02*
G37*
G36*
X-24549Y29906D02*
X-24549Y29906D01*
X-23884Y29906D01*
X-23884Y29923D01*
X-24549Y29923D01*
X-24549Y29906D01*
D02*
G37*
G36*
X-24796Y29889D02*
X-24796Y29889D01*
X-24663Y29889D01*
X-24663Y29906D01*
X-24796Y29906D01*
X-24796Y29889D01*
D02*
G37*
G36*
X-24530Y29889D02*
X-24530Y29889D01*
X-23884Y29889D01*
X-23884Y29906D01*
X-24530Y29906D01*
X-24530Y29889D01*
D02*
G37*
G36*
X-24796Y29871D02*
X-24796Y29871D01*
X-24663Y29871D01*
X-24663Y29889D01*
X-24796Y29889D01*
X-24796Y29871D01*
D02*
G37*
G36*
X-24530Y29871D02*
X-24530Y29871D01*
X-23884Y29871D01*
X-23884Y29889D01*
X-24530Y29889D01*
X-24530Y29871D01*
D02*
G37*
G36*
X-24796Y29854D02*
X-24796Y29854D01*
X-24663Y29854D01*
X-24663Y29871D01*
X-24796Y29871D01*
X-24796Y29854D01*
D02*
G37*
G36*
X-24530Y29854D02*
X-24530Y29854D01*
X-23903Y29854D01*
X-23903Y29871D01*
X-24530Y29871D01*
X-24530Y29854D01*
D02*
G37*
G36*
X-24796Y29836D02*
X-24796Y29836D01*
X-24644Y29836D01*
X-24644Y29854D01*
X-24796Y29854D01*
X-24796Y29836D01*
D02*
G37*
G36*
X-24530Y29836D02*
X-24530Y29836D01*
X-23903Y29836D01*
X-23903Y29854D01*
X-24530Y29854D01*
X-24530Y29836D01*
D02*
G37*
G36*
X-24796Y29819D02*
X-24796Y29819D01*
X-24644Y29819D01*
X-24644Y29836D01*
X-24796Y29836D01*
X-24796Y29819D01*
D02*
G37*
G36*
X-24511Y29819D02*
X-24511Y29819D01*
X-23903Y29819D01*
X-23903Y29836D01*
X-24511Y29836D01*
X-24511Y29819D01*
D02*
G37*
G36*
X-24796Y29802D02*
X-24796Y29802D01*
X-24644Y29802D01*
X-24644Y29819D01*
X-24796Y29819D01*
X-24796Y29802D01*
D02*
G37*
G36*
X-24511Y29802D02*
X-24511Y29802D01*
X-23903Y29802D01*
X-23903Y29819D01*
X-24511Y29819D01*
X-24511Y29802D01*
D02*
G37*
G36*
X-24796Y29784D02*
X-24796Y29784D01*
X-24644Y29784D01*
X-24644Y29802D01*
X-24796Y29802D01*
X-24796Y29784D01*
D02*
G37*
G36*
X-24511Y29784D02*
X-24511Y29784D01*
X-23922Y29784D01*
X-23922Y29802D01*
X-24511Y29802D01*
X-24511Y29784D01*
D02*
G37*
G36*
X-24796Y29767D02*
X-24796Y29767D01*
X-24644Y29767D01*
X-24644Y29784D01*
X-24796Y29784D01*
X-24796Y29767D01*
D02*
G37*
G36*
X-24492Y29767D02*
X-24492Y29767D01*
X-23922Y29767D01*
X-23922Y29784D01*
X-24492Y29784D01*
X-24492Y29767D01*
D02*
G37*
G36*
X-24796Y29749D02*
X-24796Y29749D01*
X-24625Y29749D01*
X-24625Y29767D01*
X-24796Y29767D01*
X-24796Y29749D01*
D02*
G37*
G36*
X-24492Y29749D02*
X-24492Y29749D01*
X-23922Y29749D01*
X-23922Y29767D01*
X-24492Y29767D01*
X-24492Y29749D01*
D02*
G37*
G36*
X-22915Y29749D02*
X-22915Y29749D01*
X-22839Y29749D01*
X-22839Y29767D01*
X-22915Y29767D01*
X-22915Y29749D01*
D02*
G37*
G36*
X-22744Y29749D02*
X-22744Y29749D01*
X-22668Y29749D01*
X-22668Y29767D01*
X-22744Y29767D01*
X-22744Y29749D01*
D02*
G37*
G36*
X-24777Y29732D02*
X-24777Y29732D01*
X-24625Y29732D01*
X-24625Y29749D01*
X-24777Y29749D01*
X-24777Y29732D01*
D02*
G37*
G36*
X-24492Y29732D02*
X-24492Y29732D01*
X-23941Y29732D01*
X-23941Y29749D01*
X-24492Y29749D01*
X-24492Y29732D01*
D02*
G37*
G36*
X-22915Y29732D02*
X-22915Y29732D01*
X-22839Y29732D01*
X-22839Y29749D01*
X-22915Y29749D01*
X-22915Y29732D01*
D02*
G37*
G36*
X-22744Y29732D02*
X-22744Y29732D01*
X-22668Y29732D01*
X-22668Y29749D01*
X-22744Y29749D01*
X-22744Y29732D01*
D02*
G37*
G36*
X-24777Y29714D02*
X-24777Y29714D01*
X-24625Y29714D01*
X-24625Y29732D01*
X-24777Y29732D01*
X-24777Y29714D01*
D02*
G37*
G36*
X-24473Y29714D02*
X-24473Y29714D01*
X-23941Y29714D01*
X-23941Y29732D01*
X-24473Y29732D01*
X-24473Y29714D01*
D02*
G37*
G36*
X-23352Y29714D02*
X-23352Y29714D01*
X-23219Y29714D01*
X-23219Y29732D01*
X-23352Y29732D01*
X-23352Y29714D01*
D02*
G37*
G36*
X-22915Y29714D02*
X-22915Y29714D01*
X-22839Y29714D01*
X-22839Y29732D01*
X-22915Y29732D01*
X-22915Y29714D01*
D02*
G37*
G36*
X-22744Y29714D02*
X-22744Y29714D01*
X-22668Y29714D01*
X-22668Y29732D01*
X-22744Y29732D01*
X-22744Y29714D01*
D02*
G37*
G36*
X-22003Y29714D02*
X-22003Y29714D01*
X-21870Y29714D01*
X-21870Y29732D01*
X-22003Y29732D01*
X-22003Y29714D01*
D02*
G37*
G36*
X-24777Y29697D02*
X-24777Y29697D01*
X-24606Y29697D01*
X-24606Y29714D01*
X-24777Y29714D01*
X-24777Y29697D01*
D02*
G37*
G36*
X-24473Y29697D02*
X-24473Y29697D01*
X-23941Y29697D01*
X-23941Y29714D01*
X-24473Y29714D01*
X-24473Y29697D01*
D02*
G37*
G36*
X-23390Y29697D02*
X-23390Y29697D01*
X-23181Y29697D01*
X-23181Y29714D01*
X-23390Y29714D01*
X-23390Y29697D01*
D02*
G37*
G36*
X-22915Y29697D02*
X-22915Y29697D01*
X-22839Y29697D01*
X-22839Y29714D01*
X-22915Y29714D01*
X-22915Y29697D01*
D02*
G37*
G36*
X-22744Y29697D02*
X-22744Y29697D01*
X-22668Y29697D01*
X-22668Y29714D01*
X-22744Y29714D01*
X-22744Y29697D01*
D02*
G37*
G36*
X-22041Y29697D02*
X-22041Y29697D01*
X-21851Y29697D01*
X-21851Y29714D01*
X-22041Y29714D01*
X-22041Y29697D01*
D02*
G37*
G36*
X-24777Y29680D02*
X-24777Y29680D01*
X-24606Y29680D01*
X-24606Y29697D01*
X-24777Y29697D01*
X-24777Y29680D01*
D02*
G37*
G36*
X-24454Y29680D02*
X-24454Y29680D01*
X-23960Y29680D01*
X-23960Y29697D01*
X-24454Y29697D01*
X-24454Y29680D01*
D02*
G37*
G36*
X-23409Y29680D02*
X-23409Y29680D01*
X-23181Y29680D01*
X-23181Y29697D01*
X-23409Y29697D01*
X-23409Y29680D01*
D02*
G37*
G36*
X-23086Y29680D02*
X-23086Y29680D01*
X-23010Y29680D01*
X-23010Y29697D01*
X-23086Y29697D01*
X-23086Y29680D01*
D02*
G37*
G36*
X-22915Y29680D02*
X-22915Y29680D01*
X-22839Y29680D01*
X-22839Y29697D01*
X-22915Y29697D01*
X-22915Y29680D01*
D02*
G37*
G36*
X-22744Y29680D02*
X-22744Y29680D01*
X-22668Y29680D01*
X-22668Y29697D01*
X-22744Y29697D01*
X-22744Y29680D01*
D02*
G37*
G36*
X-22060Y29680D02*
X-22060Y29680D01*
X-21851Y29680D01*
X-21851Y29697D01*
X-22060Y29697D01*
X-22060Y29680D01*
D02*
G37*
G36*
X-24758Y29662D02*
X-24758Y29662D01*
X-24587Y29662D01*
X-24587Y29680D01*
X-24758Y29680D01*
X-24758Y29662D01*
D02*
G37*
G36*
X-24454Y29662D02*
X-24454Y29662D01*
X-23960Y29662D01*
X-23960Y29680D01*
X-24454Y29680D01*
X-24454Y29662D01*
D02*
G37*
G36*
X-23409Y29662D02*
X-23409Y29662D01*
X-23181Y29662D01*
X-23181Y29680D01*
X-23409Y29680D01*
X-23409Y29662D01*
D02*
G37*
G36*
X-23105Y29662D02*
X-23105Y29662D01*
X-23010Y29662D01*
X-23010Y29680D01*
X-23105Y29680D01*
X-23105Y29662D01*
D02*
G37*
G36*
X-22915Y29662D02*
X-22915Y29662D01*
X-22839Y29662D01*
X-22839Y29680D01*
X-22915Y29680D01*
X-22915Y29662D01*
D02*
G37*
G36*
X-22744Y29662D02*
X-22744Y29662D01*
X-22668Y29662D01*
X-22668Y29680D01*
X-22744Y29680D01*
X-22744Y29662D01*
D02*
G37*
G36*
X-22079Y29662D02*
X-22079Y29662D01*
X-21851Y29662D01*
X-21851Y29680D01*
X-22079Y29680D01*
X-22079Y29662D01*
D02*
G37*
G36*
X-24758Y29645D02*
X-24758Y29645D01*
X-24587Y29645D01*
X-24587Y29662D01*
X-24758Y29662D01*
X-24758Y29645D01*
D02*
G37*
G36*
X-24511Y29645D02*
X-24511Y29645D01*
X-23884Y29645D01*
X-23884Y29662D01*
X-24511Y29662D01*
X-24511Y29645D01*
D02*
G37*
G36*
X-23428Y29645D02*
X-23428Y29645D01*
X-23314Y29645D01*
X-23314Y29662D01*
X-23428Y29662D01*
X-23428Y29645D01*
D02*
G37*
G36*
X-23219Y29645D02*
X-23219Y29645D01*
X-23181Y29645D01*
X-23181Y29662D01*
X-23219Y29662D01*
X-23219Y29645D01*
D02*
G37*
G36*
X-23105Y29645D02*
X-23105Y29645D01*
X-23010Y29645D01*
X-23010Y29662D01*
X-23105Y29662D01*
X-23105Y29645D01*
D02*
G37*
G36*
X-22915Y29645D02*
X-22915Y29645D01*
X-22839Y29645D01*
X-22839Y29662D01*
X-22915Y29662D01*
X-22915Y29645D01*
D02*
G37*
G36*
X-22744Y29645D02*
X-22744Y29645D01*
X-22668Y29645D01*
X-22668Y29662D01*
X-22744Y29662D01*
X-22744Y29645D01*
D02*
G37*
G36*
X-22079Y29645D02*
X-22079Y29645D01*
X-21965Y29645D01*
X-21965Y29662D01*
X-22079Y29662D01*
X-22079Y29645D01*
D02*
G37*
G36*
X-21870Y29645D02*
X-21870Y29645D01*
X-21851Y29645D01*
X-21851Y29662D01*
X-21870Y29662D01*
X-21870Y29645D01*
D02*
G37*
G36*
X-24758Y29627D02*
X-24758Y29627D01*
X-24568Y29627D01*
X-24568Y29645D01*
X-24758Y29645D01*
X-24758Y29627D01*
D02*
G37*
G36*
X-24511Y29627D02*
X-24511Y29627D01*
X-23846Y29627D01*
X-23846Y29645D01*
X-24511Y29645D01*
X-24511Y29627D01*
D02*
G37*
G36*
X-23447Y29627D02*
X-23447Y29627D01*
X-23352Y29627D01*
X-23352Y29645D01*
X-23447Y29645D01*
X-23447Y29627D01*
D02*
G37*
G36*
X-23105Y29627D02*
X-23105Y29627D01*
X-23010Y29627D01*
X-23010Y29645D01*
X-23105Y29645D01*
X-23105Y29627D01*
D02*
G37*
G36*
X-22915Y29627D02*
X-22915Y29627D01*
X-22839Y29627D01*
X-22839Y29645D01*
X-22915Y29645D01*
X-22915Y29627D01*
D02*
G37*
G36*
X-22744Y29627D02*
X-22744Y29627D01*
X-22668Y29627D01*
X-22668Y29645D01*
X-22744Y29645D01*
X-22744Y29627D01*
D02*
G37*
G36*
X-22098Y29627D02*
X-22098Y29627D01*
X-22003Y29627D01*
X-22003Y29645D01*
X-22098Y29645D01*
X-22098Y29627D01*
D02*
G37*
G36*
X-21452Y29627D02*
X-21452Y29627D01*
X-21376Y29627D01*
X-21376Y29645D01*
X-21452Y29645D01*
X-21452Y29627D01*
D02*
G37*
G36*
X-24758Y29610D02*
X-24758Y29610D01*
X-24568Y29610D01*
X-24568Y29627D01*
X-24758Y29627D01*
X-24758Y29610D01*
D02*
G37*
G36*
X-24511Y29610D02*
X-24511Y29610D01*
X-23827Y29610D01*
X-23827Y29627D01*
X-24511Y29627D01*
X-24511Y29610D01*
D02*
G37*
G36*
X-23447Y29610D02*
X-23447Y29610D01*
X-23352Y29610D01*
X-23352Y29627D01*
X-23447Y29627D01*
X-23447Y29610D01*
D02*
G37*
G36*
X-23086Y29610D02*
X-23086Y29610D01*
X-23010Y29610D01*
X-23010Y29627D01*
X-23086Y29627D01*
X-23086Y29610D01*
D02*
G37*
G36*
X-22915Y29610D02*
X-22915Y29610D01*
X-22839Y29610D01*
X-22839Y29627D01*
X-22915Y29627D01*
X-22915Y29610D01*
D02*
G37*
G36*
X-22744Y29610D02*
X-22744Y29610D01*
X-22668Y29610D01*
X-22668Y29627D01*
X-22744Y29627D01*
X-22744Y29610D01*
D02*
G37*
G36*
X-22098Y29610D02*
X-22098Y29610D01*
X-22003Y29610D01*
X-22003Y29627D01*
X-22098Y29627D01*
X-22098Y29610D01*
D02*
G37*
G36*
X-21452Y29610D02*
X-21452Y29610D01*
X-21376Y29610D01*
X-21376Y29627D01*
X-21452Y29627D01*
X-21452Y29610D01*
D02*
G37*
G36*
X-24739Y29592D02*
X-24739Y29592D01*
X-24549Y29592D01*
X-24549Y29610D01*
X-24739Y29610D01*
X-24739Y29592D01*
D02*
G37*
G36*
X-24511Y29592D02*
X-24511Y29592D01*
X-23808Y29592D01*
X-23808Y29610D01*
X-24511Y29610D01*
X-24511Y29592D01*
D02*
G37*
G36*
X-23447Y29592D02*
X-23447Y29592D01*
X-23352Y29592D01*
X-23352Y29610D01*
X-23447Y29610D01*
X-23447Y29592D01*
D02*
G37*
G36*
X-22915Y29592D02*
X-22915Y29592D01*
X-22839Y29592D01*
X-22839Y29610D01*
X-22915Y29610D01*
X-22915Y29592D01*
D02*
G37*
G36*
X-22744Y29592D02*
X-22744Y29592D01*
X-22668Y29592D01*
X-22668Y29610D01*
X-22744Y29610D01*
X-22744Y29592D01*
D02*
G37*
G36*
X-22117Y29592D02*
X-22117Y29592D01*
X-22022Y29592D01*
X-22022Y29610D01*
X-22117Y29610D01*
X-22117Y29592D01*
D02*
G37*
G36*
X-21452Y29592D02*
X-21452Y29592D01*
X-21376Y29592D01*
X-21376Y29610D01*
X-21452Y29610D01*
X-21452Y29592D01*
D02*
G37*
G36*
X-24739Y29575D02*
X-24739Y29575D01*
X-24530Y29575D01*
X-24530Y29592D01*
X-24739Y29592D01*
X-24739Y29575D01*
D02*
G37*
G36*
X-24492Y29575D02*
X-24492Y29575D01*
X-23789Y29575D01*
X-23789Y29592D01*
X-24492Y29592D01*
X-24492Y29575D01*
D02*
G37*
G36*
X-23447Y29575D02*
X-23447Y29575D01*
X-23352Y29575D01*
X-23352Y29592D01*
X-23447Y29592D01*
X-23447Y29575D01*
D02*
G37*
G36*
X-22915Y29575D02*
X-22915Y29575D01*
X-22839Y29575D01*
X-22839Y29592D01*
X-22915Y29592D01*
X-22915Y29575D01*
D02*
G37*
G36*
X-22744Y29575D02*
X-22744Y29575D01*
X-22668Y29575D01*
X-22668Y29592D01*
X-22744Y29592D01*
X-22744Y29575D01*
D02*
G37*
G36*
X-22117Y29575D02*
X-22117Y29575D01*
X-22022Y29575D01*
X-22022Y29592D01*
X-22117Y29592D01*
X-22117Y29575D01*
D02*
G37*
G36*
X-21452Y29575D02*
X-21452Y29575D01*
X-21376Y29575D01*
X-21376Y29592D01*
X-21452Y29592D01*
X-21452Y29575D01*
D02*
G37*
G36*
X-24720Y29558D02*
X-24720Y29558D01*
X-24530Y29558D01*
X-24530Y29575D01*
X-24720Y29575D01*
X-24720Y29558D01*
D02*
G37*
G36*
X-24492Y29558D02*
X-24492Y29558D01*
X-23770Y29558D01*
X-23770Y29575D01*
X-24492Y29575D01*
X-24492Y29558D01*
D02*
G37*
G36*
X-23447Y29558D02*
X-23447Y29558D01*
X-23352Y29558D01*
X-23352Y29575D01*
X-23447Y29575D01*
X-23447Y29558D01*
D02*
G37*
G36*
X-22915Y29558D02*
X-22915Y29558D01*
X-22839Y29558D01*
X-22839Y29575D01*
X-22915Y29575D01*
X-22915Y29558D01*
D02*
G37*
G36*
X-22744Y29558D02*
X-22744Y29558D01*
X-22668Y29558D01*
X-22668Y29575D01*
X-22744Y29575D01*
X-22744Y29558D01*
D02*
G37*
G36*
X-22117Y29558D02*
X-22117Y29558D01*
X-22041Y29558D01*
X-22041Y29575D01*
X-22117Y29575D01*
X-22117Y29558D01*
D02*
G37*
G36*
X-21452Y29558D02*
X-21452Y29558D01*
X-21376Y29558D01*
X-21376Y29575D01*
X-21452Y29575D01*
X-21452Y29558D01*
D02*
G37*
G36*
X-24720Y29540D02*
X-24720Y29540D01*
X-24511Y29540D01*
X-24511Y29558D01*
X-24720Y29558D01*
X-24720Y29540D01*
D02*
G37*
G36*
X-24473Y29540D02*
X-24473Y29540D01*
X-23770Y29540D01*
X-23770Y29558D01*
X-24473Y29558D01*
X-24473Y29540D01*
D02*
G37*
G36*
X-23447Y29540D02*
X-23447Y29540D01*
X-23352Y29540D01*
X-23352Y29558D01*
X-23447Y29558D01*
X-23447Y29540D01*
D02*
G37*
G36*
X-22915Y29540D02*
X-22915Y29540D01*
X-22839Y29540D01*
X-22839Y29558D01*
X-22915Y29558D01*
X-22915Y29540D01*
D02*
G37*
G36*
X-22744Y29540D02*
X-22744Y29540D01*
X-22668Y29540D01*
X-22668Y29558D01*
X-22744Y29558D01*
X-22744Y29540D01*
D02*
G37*
G36*
X-22117Y29540D02*
X-22117Y29540D01*
X-22041Y29540D01*
X-22041Y29558D01*
X-22117Y29558D01*
X-22117Y29540D01*
D02*
G37*
G36*
X-21452Y29540D02*
X-21452Y29540D01*
X-21376Y29540D01*
X-21376Y29558D01*
X-21452Y29558D01*
X-21452Y29540D01*
D02*
G37*
G36*
X-24720Y29523D02*
X-24720Y29523D01*
X-24492Y29523D01*
X-24492Y29540D01*
X-24720Y29540D01*
X-24720Y29523D01*
D02*
G37*
G36*
X-24454Y29523D02*
X-24454Y29523D01*
X-23770Y29523D01*
X-23770Y29540D01*
X-24454Y29540D01*
X-24454Y29523D01*
D02*
G37*
G36*
X-23428Y29523D02*
X-23428Y29523D01*
X-23333Y29523D01*
X-23333Y29540D01*
X-23428Y29540D01*
X-23428Y29523D01*
D02*
G37*
G36*
X-23086Y29523D02*
X-23086Y29523D01*
X-23010Y29523D01*
X-23010Y29540D01*
X-23086Y29540D01*
X-23086Y29523D01*
D02*
G37*
G36*
X-22915Y29523D02*
X-22915Y29523D01*
X-22839Y29523D01*
X-22839Y29540D01*
X-22915Y29540D01*
X-22915Y29523D01*
D02*
G37*
G36*
X-22744Y29523D02*
X-22744Y29523D01*
X-22668Y29523D01*
X-22668Y29540D01*
X-22744Y29540D01*
X-22744Y29523D01*
D02*
G37*
G36*
X-22611Y29523D02*
X-22611Y29523D01*
X-22535Y29523D01*
X-22535Y29540D01*
X-22611Y29540D01*
X-22611Y29523D01*
D02*
G37*
G36*
X-22421Y29523D02*
X-22421Y29523D01*
X-22345Y29523D01*
X-22345Y29540D01*
X-22421Y29540D01*
X-22421Y29523D01*
D02*
G37*
G36*
X-22117Y29523D02*
X-22117Y29523D01*
X-22041Y29523D01*
X-22041Y29540D01*
X-22117Y29540D01*
X-22117Y29523D01*
D02*
G37*
G36*
X-21756Y29523D02*
X-21756Y29523D01*
X-21642Y29523D01*
X-21642Y29540D01*
X-21756Y29540D01*
X-21756Y29523D01*
D02*
G37*
G36*
X-21623Y29523D02*
X-21623Y29523D01*
X-21547Y29523D01*
X-21547Y29540D01*
X-21623Y29540D01*
X-21623Y29523D01*
D02*
G37*
G36*
X-21490Y29523D02*
X-21490Y29523D01*
X-21319Y29523D01*
X-21319Y29540D01*
X-21490Y29540D01*
X-21490Y29523D01*
D02*
G37*
G36*
X-24701Y29505D02*
X-24701Y29505D01*
X-24473Y29505D01*
X-24473Y29523D01*
X-24701Y29523D01*
X-24701Y29505D01*
D02*
G37*
G36*
X-24454Y29505D02*
X-24454Y29505D01*
X-23770Y29505D01*
X-23770Y29523D01*
X-24454Y29523D01*
X-24454Y29505D01*
D02*
G37*
G36*
X-23428Y29505D02*
X-23428Y29505D01*
X-23333Y29505D01*
X-23333Y29523D01*
X-23428Y29523D01*
X-23428Y29505D01*
D02*
G37*
G36*
X-23086Y29505D02*
X-23086Y29505D01*
X-23010Y29505D01*
X-23010Y29523D01*
X-23086Y29523D01*
X-23086Y29505D01*
D02*
G37*
G36*
X-22915Y29505D02*
X-22915Y29505D01*
X-22839Y29505D01*
X-22839Y29523D01*
X-22915Y29523D01*
X-22915Y29505D01*
D02*
G37*
G36*
X-22744Y29505D02*
X-22744Y29505D01*
X-22668Y29505D01*
X-22668Y29523D01*
X-22744Y29523D01*
X-22744Y29505D01*
D02*
G37*
G36*
X-22592Y29505D02*
X-22592Y29505D01*
X-22516Y29505D01*
X-22516Y29523D01*
X-22592Y29523D01*
X-22592Y29505D01*
D02*
G37*
G36*
X-22421Y29505D02*
X-22421Y29505D01*
X-22345Y29505D01*
X-22345Y29523D01*
X-22421Y29523D01*
X-22421Y29505D01*
D02*
G37*
G36*
X-22117Y29505D02*
X-22117Y29505D01*
X-22041Y29505D01*
X-22041Y29523D01*
X-22117Y29523D01*
X-22117Y29505D01*
D02*
G37*
G36*
X-21775Y29505D02*
X-21775Y29505D01*
X-21547Y29505D01*
X-21547Y29523D01*
X-21775Y29523D01*
X-21775Y29505D01*
D02*
G37*
G36*
X-21490Y29505D02*
X-21490Y29505D01*
X-21319Y29505D01*
X-21319Y29523D01*
X-21490Y29523D01*
X-21490Y29505D01*
D02*
G37*
G36*
X-24682Y29488D02*
X-24682Y29488D01*
X-24454Y29488D01*
X-24454Y29505D01*
X-24682Y29505D01*
X-24682Y29488D01*
D02*
G37*
G36*
X-24435Y29488D02*
X-24435Y29488D01*
X-23770Y29488D01*
X-23770Y29505D01*
X-24435Y29505D01*
X-24435Y29488D01*
D02*
G37*
G36*
X-23409Y29488D02*
X-23409Y29488D01*
X-23314Y29488D01*
X-23314Y29505D01*
X-23409Y29505D01*
X-23409Y29488D01*
D02*
G37*
G36*
X-23086Y29488D02*
X-23086Y29488D01*
X-23010Y29488D01*
X-23010Y29505D01*
X-23086Y29505D01*
X-23086Y29488D01*
D02*
G37*
G36*
X-22915Y29488D02*
X-22915Y29488D01*
X-22839Y29488D01*
X-22839Y29505D01*
X-22915Y29505D01*
X-22915Y29488D01*
D02*
G37*
G36*
X-22744Y29488D02*
X-22744Y29488D01*
X-22668Y29488D01*
X-22668Y29505D01*
X-22744Y29505D01*
X-22744Y29488D01*
D02*
G37*
G36*
X-22592Y29488D02*
X-22592Y29488D01*
X-22516Y29488D01*
X-22516Y29505D01*
X-22592Y29505D01*
X-22592Y29488D01*
D02*
G37*
G36*
X-22421Y29488D02*
X-22421Y29488D01*
X-22345Y29488D01*
X-22345Y29505D01*
X-22421Y29505D01*
X-22421Y29488D01*
D02*
G37*
G36*
X-22136Y29488D02*
X-22136Y29488D01*
X-22041Y29488D01*
X-22041Y29505D01*
X-22136Y29505D01*
X-22136Y29488D01*
D02*
G37*
G36*
X-21775Y29488D02*
X-21775Y29488D01*
X-21547Y29488D01*
X-21547Y29505D01*
X-21775Y29505D01*
X-21775Y29488D01*
D02*
G37*
G36*
X-21490Y29488D02*
X-21490Y29488D01*
X-21319Y29488D01*
X-21319Y29505D01*
X-21490Y29505D01*
X-21490Y29488D01*
D02*
G37*
G36*
X-24682Y29470D02*
X-24682Y29470D01*
X-24435Y29470D01*
X-24435Y29488D01*
X-24682Y29488D01*
X-24682Y29470D01*
D02*
G37*
G36*
X-24416Y29470D02*
X-24416Y29470D01*
X-23770Y29470D01*
X-23770Y29488D01*
X-24416Y29488D01*
X-24416Y29470D01*
D02*
G37*
G36*
X-23409Y29470D02*
X-23409Y29470D01*
X-23276Y29470D01*
X-23276Y29488D01*
X-23409Y29488D01*
X-23409Y29470D01*
D02*
G37*
G36*
X-23086Y29470D02*
X-23086Y29470D01*
X-23010Y29470D01*
X-23010Y29488D01*
X-23086Y29488D01*
X-23086Y29470D01*
D02*
G37*
G36*
X-22915Y29470D02*
X-22915Y29470D01*
X-22839Y29470D01*
X-22839Y29488D01*
X-22915Y29488D01*
X-22915Y29470D01*
D02*
G37*
G36*
X-22744Y29470D02*
X-22744Y29470D01*
X-22668Y29470D01*
X-22668Y29488D01*
X-22744Y29488D01*
X-22744Y29470D01*
D02*
G37*
G36*
X-22592Y29470D02*
X-22592Y29470D01*
X-22516Y29470D01*
X-22516Y29488D01*
X-22592Y29488D01*
X-22592Y29470D01*
D02*
G37*
G36*
X-22421Y29470D02*
X-22421Y29470D01*
X-22364Y29470D01*
X-22364Y29488D01*
X-22421Y29488D01*
X-22421Y29470D01*
D02*
G37*
G36*
X-22136Y29470D02*
X-22136Y29470D01*
X-22041Y29470D01*
X-22041Y29488D01*
X-22136Y29488D01*
X-22136Y29470D01*
D02*
G37*
G36*
X-21794Y29470D02*
X-21794Y29470D01*
X-21680Y29470D01*
X-21680Y29488D01*
X-21794Y29488D01*
X-21794Y29470D01*
D02*
G37*
G36*
X-21661Y29470D02*
X-21661Y29470D01*
X-21547Y29470D01*
X-21547Y29488D01*
X-21661Y29488D01*
X-21661Y29470D01*
D02*
G37*
G36*
X-21452Y29470D02*
X-21452Y29470D01*
X-21376Y29470D01*
X-21376Y29488D01*
X-21452Y29488D01*
X-21452Y29470D01*
D02*
G37*
G36*
X-24663Y29453D02*
X-24663Y29453D01*
X-24416Y29453D01*
X-24416Y29470D01*
X-24663Y29470D01*
X-24663Y29453D01*
D02*
G37*
G36*
X-24397Y29453D02*
X-24397Y29453D01*
X-23770Y29453D01*
X-23770Y29470D01*
X-24397Y29470D01*
X-24397Y29453D01*
D02*
G37*
G36*
X-23390Y29453D02*
X-23390Y29453D01*
X-23257Y29453D01*
X-23257Y29470D01*
X-23390Y29470D01*
X-23390Y29453D01*
D02*
G37*
G36*
X-23086Y29453D02*
X-23086Y29453D01*
X-23010Y29453D01*
X-23010Y29470D01*
X-23086Y29470D01*
X-23086Y29453D01*
D02*
G37*
G36*
X-22915Y29453D02*
X-22915Y29453D01*
X-22839Y29453D01*
X-22839Y29470D01*
X-22915Y29470D01*
X-22915Y29453D01*
D02*
G37*
G36*
X-22744Y29453D02*
X-22744Y29453D01*
X-22668Y29453D01*
X-22668Y29470D01*
X-22744Y29470D01*
X-22744Y29453D01*
D02*
G37*
G36*
X-22592Y29453D02*
X-22592Y29453D01*
X-22516Y29453D01*
X-22516Y29470D01*
X-22592Y29470D01*
X-22592Y29453D01*
D02*
G37*
G36*
X-22440Y29453D02*
X-22440Y29453D01*
X-22364Y29453D01*
X-22364Y29470D01*
X-22440Y29470D01*
X-22440Y29453D01*
D02*
G37*
G36*
X-22136Y29453D02*
X-22136Y29453D01*
X-22041Y29453D01*
X-22041Y29470D01*
X-22136Y29470D01*
X-22136Y29453D01*
D02*
G37*
G36*
X-21794Y29453D02*
X-21794Y29453D01*
X-21718Y29453D01*
X-21718Y29470D01*
X-21794Y29470D01*
X-21794Y29453D01*
D02*
G37*
G36*
X-21623Y29453D02*
X-21623Y29453D01*
X-21547Y29453D01*
X-21547Y29470D01*
X-21623Y29470D01*
X-21623Y29453D01*
D02*
G37*
G36*
X-21452Y29453D02*
X-21452Y29453D01*
X-21376Y29453D01*
X-21376Y29470D01*
X-21452Y29470D01*
X-21452Y29453D01*
D02*
G37*
G36*
X-24663Y29436D02*
X-24663Y29436D01*
X-23789Y29436D01*
X-23789Y29453D01*
X-24663Y29453D01*
X-24663Y29436D01*
D02*
G37*
G36*
X-23371Y29436D02*
X-23371Y29436D01*
X-23238Y29436D01*
X-23238Y29453D01*
X-23371Y29453D01*
X-23371Y29436D01*
D02*
G37*
G36*
X-23086Y29436D02*
X-23086Y29436D01*
X-23010Y29436D01*
X-23010Y29453D01*
X-23086Y29453D01*
X-23086Y29436D01*
D02*
G37*
G36*
X-22915Y29436D02*
X-22915Y29436D01*
X-22839Y29436D01*
X-22839Y29453D01*
X-22915Y29453D01*
X-22915Y29436D01*
D02*
G37*
G36*
X-22744Y29436D02*
X-22744Y29436D01*
X-22668Y29436D01*
X-22668Y29453D01*
X-22744Y29453D01*
X-22744Y29436D01*
D02*
G37*
G36*
X-22573Y29436D02*
X-22573Y29436D01*
X-22516Y29436D01*
X-22516Y29453D01*
X-22573Y29453D01*
X-22573Y29436D01*
D02*
G37*
G36*
X-22440Y29436D02*
X-22440Y29436D01*
X-22364Y29436D01*
X-22364Y29453D01*
X-22440Y29453D01*
X-22440Y29436D01*
D02*
G37*
G36*
X-22136Y29436D02*
X-22136Y29436D01*
X-22041Y29436D01*
X-22041Y29453D01*
X-22136Y29453D01*
X-22136Y29436D01*
D02*
G37*
G36*
X-21794Y29436D02*
X-21794Y29436D01*
X-21718Y29436D01*
X-21718Y29453D01*
X-21794Y29453D01*
X-21794Y29436D01*
D02*
G37*
G36*
X-21623Y29436D02*
X-21623Y29436D01*
X-21547Y29436D01*
X-21547Y29453D01*
X-21623Y29453D01*
X-21623Y29436D01*
D02*
G37*
G36*
X-21452Y29436D02*
X-21452Y29436D01*
X-21376Y29436D01*
X-21376Y29453D01*
X-21452Y29453D01*
X-21452Y29436D01*
D02*
G37*
G36*
X-24644Y29418D02*
X-24644Y29418D01*
X-23789Y29418D01*
X-23789Y29436D01*
X-24644Y29436D01*
X-24644Y29418D01*
D02*
G37*
G36*
X-23352Y29418D02*
X-23352Y29418D01*
X-23219Y29418D01*
X-23219Y29436D01*
X-23352Y29436D01*
X-23352Y29418D01*
D02*
G37*
G36*
X-23086Y29418D02*
X-23086Y29418D01*
X-23010Y29418D01*
X-23010Y29436D01*
X-23086Y29436D01*
X-23086Y29418D01*
D02*
G37*
G36*
X-22915Y29418D02*
X-22915Y29418D01*
X-22839Y29418D01*
X-22839Y29436D01*
X-22915Y29436D01*
X-22915Y29418D01*
D02*
G37*
G36*
X-22744Y29418D02*
X-22744Y29418D01*
X-22668Y29418D01*
X-22668Y29436D01*
X-22744Y29436D01*
X-22744Y29418D01*
D02*
G37*
G36*
X-22573Y29418D02*
X-22573Y29418D01*
X-22497Y29418D01*
X-22497Y29436D01*
X-22573Y29436D01*
X-22573Y29418D01*
D02*
G37*
G36*
X-22440Y29418D02*
X-22440Y29418D01*
X-22364Y29418D01*
X-22364Y29436D01*
X-22440Y29436D01*
X-22440Y29418D01*
D02*
G37*
G36*
X-22136Y29418D02*
X-22136Y29418D01*
X-22041Y29418D01*
X-22041Y29436D01*
X-22136Y29436D01*
X-22136Y29418D01*
D02*
G37*
G36*
X-21794Y29418D02*
X-21794Y29418D01*
X-21718Y29418D01*
X-21718Y29436D01*
X-21794Y29436D01*
X-21794Y29418D01*
D02*
G37*
G36*
X-21623Y29418D02*
X-21623Y29418D01*
X-21547Y29418D01*
X-21547Y29436D01*
X-21623Y29436D01*
X-21623Y29418D01*
D02*
G37*
G36*
X-21452Y29418D02*
X-21452Y29418D01*
X-21376Y29418D01*
X-21376Y29436D01*
X-21452Y29436D01*
X-21452Y29418D01*
D02*
G37*
G36*
X-24625Y29401D02*
X-24625Y29401D01*
X-23808Y29401D01*
X-23808Y29418D01*
X-24625Y29418D01*
X-24625Y29401D01*
D02*
G37*
G36*
X-23314Y29401D02*
X-23314Y29401D01*
X-23200Y29401D01*
X-23200Y29418D01*
X-23314Y29418D01*
X-23314Y29401D01*
D02*
G37*
G36*
X-23086Y29401D02*
X-23086Y29401D01*
X-23010Y29401D01*
X-23010Y29418D01*
X-23086Y29418D01*
X-23086Y29401D01*
D02*
G37*
G36*
X-22915Y29401D02*
X-22915Y29401D01*
X-22839Y29401D01*
X-22839Y29418D01*
X-22915Y29418D01*
X-22915Y29401D01*
D02*
G37*
G36*
X-22744Y29401D02*
X-22744Y29401D01*
X-22668Y29401D01*
X-22668Y29418D01*
X-22744Y29418D01*
X-22744Y29401D01*
D02*
G37*
G36*
X-22573Y29401D02*
X-22573Y29401D01*
X-22497Y29401D01*
X-22497Y29418D01*
X-22573Y29418D01*
X-22573Y29401D01*
D02*
G37*
G36*
X-22440Y29401D02*
X-22440Y29401D01*
X-22383Y29401D01*
X-22383Y29418D01*
X-22440Y29418D01*
X-22440Y29401D01*
D02*
G37*
G36*
X-22136Y29401D02*
X-22136Y29401D01*
X-22041Y29401D01*
X-22041Y29418D01*
X-22136Y29418D01*
X-22136Y29401D01*
D02*
G37*
G36*
X-21794Y29401D02*
X-21794Y29401D01*
X-21718Y29401D01*
X-21718Y29418D01*
X-21794Y29418D01*
X-21794Y29401D01*
D02*
G37*
G36*
X-21623Y29401D02*
X-21623Y29401D01*
X-21547Y29401D01*
X-21547Y29418D01*
X-21623Y29418D01*
X-21623Y29401D01*
D02*
G37*
G36*
X-21452Y29401D02*
X-21452Y29401D01*
X-21376Y29401D01*
X-21376Y29418D01*
X-21452Y29418D01*
X-21452Y29401D01*
D02*
G37*
G36*
X-24625Y29383D02*
X-24625Y29383D01*
X-23827Y29383D01*
X-23827Y29401D01*
X-24625Y29401D01*
X-24625Y29383D01*
D02*
G37*
G36*
X-23295Y29383D02*
X-23295Y29383D01*
X-23181Y29383D01*
X-23181Y29401D01*
X-23295Y29401D01*
X-23295Y29383D01*
D02*
G37*
G36*
X-23086Y29383D02*
X-23086Y29383D01*
X-23010Y29383D01*
X-23010Y29401D01*
X-23086Y29401D01*
X-23086Y29383D01*
D02*
G37*
G36*
X-22915Y29383D02*
X-22915Y29383D01*
X-22839Y29383D01*
X-22839Y29401D01*
X-22915Y29401D01*
X-22915Y29383D01*
D02*
G37*
G36*
X-22744Y29383D02*
X-22744Y29383D01*
X-22668Y29383D01*
X-22668Y29401D01*
X-22744Y29401D01*
X-22744Y29383D01*
D02*
G37*
G36*
X-22573Y29383D02*
X-22573Y29383D01*
X-22497Y29383D01*
X-22497Y29401D01*
X-22573Y29401D01*
X-22573Y29383D01*
D02*
G37*
G36*
X-22459Y29383D02*
X-22459Y29383D01*
X-22383Y29383D01*
X-22383Y29401D01*
X-22459Y29401D01*
X-22459Y29383D01*
D02*
G37*
G36*
X-22136Y29383D02*
X-22136Y29383D01*
X-22041Y29383D01*
X-22041Y29401D01*
X-22136Y29401D01*
X-22136Y29383D01*
D02*
G37*
G36*
X-21813Y29383D02*
X-21813Y29383D01*
X-21718Y29383D01*
X-21718Y29401D01*
X-21813Y29401D01*
X-21813Y29383D01*
D02*
G37*
G36*
X-21623Y29383D02*
X-21623Y29383D01*
X-21547Y29383D01*
X-21547Y29401D01*
X-21623Y29401D01*
X-21623Y29383D01*
D02*
G37*
G36*
X-21452Y29383D02*
X-21452Y29383D01*
X-21376Y29383D01*
X-21376Y29401D01*
X-21452Y29401D01*
X-21452Y29383D01*
D02*
G37*
G36*
X-24606Y29366D02*
X-24606Y29366D01*
X-23827Y29366D01*
X-23827Y29383D01*
X-24606Y29383D01*
X-24606Y29366D01*
D02*
G37*
G36*
X-23276Y29366D02*
X-23276Y29366D01*
X-23181Y29366D01*
X-23181Y29383D01*
X-23276Y29383D01*
X-23276Y29366D01*
D02*
G37*
G36*
X-23086Y29366D02*
X-23086Y29366D01*
X-23010Y29366D01*
X-23010Y29383D01*
X-23086Y29383D01*
X-23086Y29366D01*
D02*
G37*
G36*
X-22915Y29366D02*
X-22915Y29366D01*
X-22839Y29366D01*
X-22839Y29383D01*
X-22915Y29383D01*
X-22915Y29366D01*
D02*
G37*
G36*
X-22744Y29366D02*
X-22744Y29366D01*
X-22668Y29366D01*
X-22668Y29383D01*
X-22744Y29383D01*
X-22744Y29366D01*
D02*
G37*
G36*
X-22573Y29366D02*
X-22573Y29366D01*
X-22497Y29366D01*
X-22497Y29383D01*
X-22573Y29383D01*
X-22573Y29366D01*
D02*
G37*
G36*
X-22459Y29366D02*
X-22459Y29366D01*
X-22383Y29366D01*
X-22383Y29383D01*
X-22459Y29383D01*
X-22459Y29366D01*
D02*
G37*
G36*
X-22136Y29366D02*
X-22136Y29366D01*
X-22041Y29366D01*
X-22041Y29383D01*
X-22136Y29383D01*
X-22136Y29366D01*
D02*
G37*
G36*
X-21813Y29366D02*
X-21813Y29366D01*
X-21737Y29366D01*
X-21737Y29383D01*
X-21813Y29383D01*
X-21813Y29366D01*
D02*
G37*
G36*
X-21623Y29366D02*
X-21623Y29366D01*
X-21547Y29366D01*
X-21547Y29383D01*
X-21623Y29383D01*
X-21623Y29366D01*
D02*
G37*
G36*
X-21452Y29366D02*
X-21452Y29366D01*
X-21376Y29366D01*
X-21376Y29383D01*
X-21452Y29383D01*
X-21452Y29366D01*
D02*
G37*
G36*
X-24587Y29348D02*
X-24587Y29348D01*
X-23846Y29348D01*
X-23846Y29366D01*
X-24587Y29366D01*
X-24587Y29348D01*
D02*
G37*
G36*
X-23276Y29348D02*
X-23276Y29348D01*
X-23162Y29348D01*
X-23162Y29366D01*
X-23276Y29366D01*
X-23276Y29348D01*
D02*
G37*
G36*
X-23086Y29348D02*
X-23086Y29348D01*
X-23010Y29348D01*
X-23010Y29366D01*
X-23086Y29366D01*
X-23086Y29348D01*
D02*
G37*
G36*
X-22915Y29348D02*
X-22915Y29348D01*
X-22839Y29348D01*
X-22839Y29366D01*
X-22915Y29366D01*
X-22915Y29348D01*
D02*
G37*
G36*
X-22744Y29348D02*
X-22744Y29348D01*
X-22668Y29348D01*
X-22668Y29366D01*
X-22744Y29366D01*
X-22744Y29348D01*
D02*
G37*
G36*
X-22554Y29348D02*
X-22554Y29348D01*
X-22497Y29348D01*
X-22497Y29366D01*
X-22554Y29366D01*
X-22554Y29348D01*
D02*
G37*
G36*
X-22459Y29348D02*
X-22459Y29348D01*
X-22402Y29348D01*
X-22402Y29366D01*
X-22459Y29366D01*
X-22459Y29348D01*
D02*
G37*
G36*
X-22136Y29348D02*
X-22136Y29348D01*
X-22041Y29348D01*
X-22041Y29366D01*
X-22136Y29366D01*
X-22136Y29348D01*
D02*
G37*
G36*
X-21813Y29348D02*
X-21813Y29348D01*
X-21737Y29348D01*
X-21737Y29366D01*
X-21813Y29366D01*
X-21813Y29348D01*
D02*
G37*
G36*
X-21623Y29348D02*
X-21623Y29348D01*
X-21547Y29348D01*
X-21547Y29366D01*
X-21623Y29366D01*
X-21623Y29348D01*
D02*
G37*
G36*
X-21452Y29348D02*
X-21452Y29348D01*
X-21376Y29348D01*
X-21376Y29366D01*
X-21452Y29366D01*
X-21452Y29348D01*
D02*
G37*
G36*
X-24568Y29331D02*
X-24568Y29331D01*
X-23865Y29331D01*
X-23865Y29348D01*
X-24568Y29348D01*
X-24568Y29331D01*
D02*
G37*
G36*
X-23257Y29331D02*
X-23257Y29331D01*
X-23162Y29331D01*
X-23162Y29348D01*
X-23257Y29348D01*
X-23257Y29331D01*
D02*
G37*
G36*
X-23086Y29331D02*
X-23086Y29331D01*
X-23010Y29331D01*
X-23010Y29348D01*
X-23086Y29348D01*
X-23086Y29331D01*
D02*
G37*
G36*
X-22915Y29331D02*
X-22915Y29331D01*
X-22839Y29331D01*
X-22839Y29348D01*
X-22915Y29348D01*
X-22915Y29331D01*
D02*
G37*
G36*
X-22744Y29331D02*
X-22744Y29331D01*
X-22668Y29331D01*
X-22668Y29348D01*
X-22744Y29348D01*
X-22744Y29331D01*
D02*
G37*
G36*
X-22554Y29331D02*
X-22554Y29331D01*
X-22478Y29331D01*
X-22478Y29348D01*
X-22554Y29348D01*
X-22554Y29331D01*
D02*
G37*
G36*
X-22459Y29331D02*
X-22459Y29331D01*
X-22402Y29331D01*
X-22402Y29348D01*
X-22459Y29348D01*
X-22459Y29331D01*
D02*
G37*
G36*
X-22117Y29331D02*
X-22117Y29331D01*
X-22041Y29331D01*
X-22041Y29348D01*
X-22117Y29348D01*
X-22117Y29331D01*
D02*
G37*
G36*
X-21813Y29331D02*
X-21813Y29331D01*
X-21718Y29331D01*
X-21718Y29348D01*
X-21813Y29348D01*
X-21813Y29331D01*
D02*
G37*
G36*
X-21623Y29331D02*
X-21623Y29331D01*
X-21547Y29331D01*
X-21547Y29348D01*
X-21623Y29348D01*
X-21623Y29331D01*
D02*
G37*
G36*
X-21452Y29331D02*
X-21452Y29331D01*
X-21376Y29331D01*
X-21376Y29348D01*
X-21452Y29348D01*
X-21452Y29331D01*
D02*
G37*
G36*
X-24549Y29314D02*
X-24549Y29314D01*
X-23884Y29314D01*
X-23884Y29331D01*
X-24549Y29331D01*
X-24549Y29314D01*
D02*
G37*
G36*
X-23257Y29314D02*
X-23257Y29314D01*
X-23162Y29314D01*
X-23162Y29331D01*
X-23257Y29331D01*
X-23257Y29314D01*
D02*
G37*
G36*
X-23086Y29314D02*
X-23086Y29314D01*
X-23010Y29314D01*
X-23010Y29331D01*
X-23086Y29331D01*
X-23086Y29314D01*
D02*
G37*
G36*
X-22915Y29314D02*
X-22915Y29314D01*
X-22839Y29314D01*
X-22839Y29331D01*
X-22915Y29331D01*
X-22915Y29314D01*
D02*
G37*
G36*
X-22744Y29314D02*
X-22744Y29314D01*
X-22668Y29314D01*
X-22668Y29331D01*
X-22744Y29331D01*
X-22744Y29314D01*
D02*
G37*
G36*
X-22554Y29314D02*
X-22554Y29314D01*
X-22402Y29314D01*
X-22402Y29331D01*
X-22554Y29331D01*
X-22554Y29314D01*
D02*
G37*
G36*
X-22117Y29314D02*
X-22117Y29314D01*
X-22041Y29314D01*
X-22041Y29331D01*
X-22117Y29331D01*
X-22117Y29314D01*
D02*
G37*
G36*
X-21813Y29314D02*
X-21813Y29314D01*
X-21737Y29314D01*
X-21737Y29331D01*
X-21813Y29331D01*
X-21813Y29314D01*
D02*
G37*
G36*
X-21623Y29314D02*
X-21623Y29314D01*
X-21547Y29314D01*
X-21547Y29331D01*
X-21623Y29331D01*
X-21623Y29314D01*
D02*
G37*
G36*
X-21452Y29314D02*
X-21452Y29314D01*
X-21376Y29314D01*
X-21376Y29331D01*
X-21452Y29331D01*
X-21452Y29314D01*
D02*
G37*
G36*
X-24530Y29296D02*
X-24530Y29296D01*
X-23903Y29296D01*
X-23903Y29314D01*
X-24530Y29314D01*
X-24530Y29296D01*
D02*
G37*
G36*
X-23238Y29296D02*
X-23238Y29296D01*
X-23162Y29296D01*
X-23162Y29314D01*
X-23238Y29314D01*
X-23238Y29296D01*
D02*
G37*
G36*
X-23086Y29296D02*
X-23086Y29296D01*
X-23010Y29296D01*
X-23010Y29314D01*
X-23086Y29314D01*
X-23086Y29296D01*
D02*
G37*
G36*
X-22915Y29296D02*
X-22915Y29296D01*
X-22839Y29296D01*
X-22839Y29314D01*
X-22915Y29314D01*
X-22915Y29296D01*
D02*
G37*
G36*
X-22744Y29296D02*
X-22744Y29296D01*
X-22668Y29296D01*
X-22668Y29314D01*
X-22744Y29314D01*
X-22744Y29296D01*
D02*
G37*
G36*
X-22554Y29296D02*
X-22554Y29296D01*
X-22402Y29296D01*
X-22402Y29314D01*
X-22554Y29314D01*
X-22554Y29296D01*
D02*
G37*
G36*
X-22117Y29296D02*
X-22117Y29296D01*
X-22022Y29296D01*
X-22022Y29314D01*
X-22117Y29314D01*
X-22117Y29296D01*
D02*
G37*
G36*
X-21794Y29296D02*
X-21794Y29296D01*
X-21718Y29296D01*
X-21718Y29314D01*
X-21794Y29314D01*
X-21794Y29296D01*
D02*
G37*
G36*
X-21623Y29296D02*
X-21623Y29296D01*
X-21547Y29296D01*
X-21547Y29314D01*
X-21623Y29314D01*
X-21623Y29296D01*
D02*
G37*
G36*
X-21452Y29296D02*
X-21452Y29296D01*
X-21376Y29296D01*
X-21376Y29314D01*
X-21452Y29314D01*
X-21452Y29296D01*
D02*
G37*
G36*
X-24511Y29279D02*
X-24511Y29279D01*
X-23922Y29279D01*
X-23922Y29296D01*
X-24511Y29296D01*
X-24511Y29279D01*
D02*
G37*
G36*
X-23238Y29279D02*
X-23238Y29279D01*
X-23162Y29279D01*
X-23162Y29296D01*
X-23238Y29296D01*
X-23238Y29279D01*
D02*
G37*
G36*
X-23086Y29279D02*
X-23086Y29279D01*
X-23010Y29279D01*
X-23010Y29296D01*
X-23086Y29296D01*
X-23086Y29279D01*
D02*
G37*
G36*
X-22915Y29279D02*
X-22915Y29279D01*
X-22839Y29279D01*
X-22839Y29296D01*
X-22915Y29296D01*
X-22915Y29279D01*
D02*
G37*
G36*
X-22744Y29279D02*
X-22744Y29279D01*
X-22668Y29279D01*
X-22668Y29296D01*
X-22744Y29296D01*
X-22744Y29279D01*
D02*
G37*
G36*
X-22535Y29279D02*
X-22535Y29279D01*
X-22421Y29279D01*
X-22421Y29296D01*
X-22535Y29296D01*
X-22535Y29279D01*
D02*
G37*
G36*
X-22117Y29279D02*
X-22117Y29279D01*
X-22022Y29279D01*
X-22022Y29296D01*
X-22117Y29296D01*
X-22117Y29279D01*
D02*
G37*
G36*
X-21794Y29279D02*
X-21794Y29279D01*
X-21718Y29279D01*
X-21718Y29296D01*
X-21794Y29296D01*
X-21794Y29279D01*
D02*
G37*
G36*
X-21623Y29279D02*
X-21623Y29279D01*
X-21547Y29279D01*
X-21547Y29296D01*
X-21623Y29296D01*
X-21623Y29279D01*
D02*
G37*
G36*
X-21452Y29279D02*
X-21452Y29279D01*
X-21376Y29279D01*
X-21376Y29296D01*
X-21452Y29296D01*
X-21452Y29279D01*
D02*
G37*
G36*
X-24492Y29261D02*
X-24492Y29261D01*
X-23922Y29261D01*
X-23922Y29279D01*
X-24492Y29279D01*
X-24492Y29261D01*
D02*
G37*
G36*
X-23257Y29261D02*
X-23257Y29261D01*
X-23162Y29261D01*
X-23162Y29279D01*
X-23257Y29279D01*
X-23257Y29261D01*
D02*
G37*
G36*
X-23086Y29261D02*
X-23086Y29261D01*
X-23010Y29261D01*
X-23010Y29279D01*
X-23086Y29279D01*
X-23086Y29261D01*
D02*
G37*
G36*
X-22915Y29261D02*
X-22915Y29261D01*
X-22839Y29261D01*
X-22839Y29279D01*
X-22915Y29279D01*
X-22915Y29261D01*
D02*
G37*
G36*
X-22744Y29261D02*
X-22744Y29261D01*
X-22668Y29261D01*
X-22668Y29279D01*
X-22744Y29279D01*
X-22744Y29261D01*
D02*
G37*
G36*
X-22535Y29261D02*
X-22535Y29261D01*
X-22421Y29261D01*
X-22421Y29279D01*
X-22535Y29279D01*
X-22535Y29261D01*
D02*
G37*
G36*
X-22098Y29261D02*
X-22098Y29261D01*
X-22003Y29261D01*
X-22003Y29279D01*
X-22098Y29279D01*
X-22098Y29261D01*
D02*
G37*
G36*
X-21794Y29261D02*
X-21794Y29261D01*
X-21718Y29261D01*
X-21718Y29279D01*
X-21794Y29279D01*
X-21794Y29261D01*
D02*
G37*
G36*
X-21623Y29261D02*
X-21623Y29261D01*
X-21547Y29261D01*
X-21547Y29279D01*
X-21623Y29279D01*
X-21623Y29261D01*
D02*
G37*
G36*
X-21452Y29261D02*
X-21452Y29261D01*
X-21376Y29261D01*
X-21376Y29279D01*
X-21452Y29279D01*
X-21452Y29261D01*
D02*
G37*
G36*
X-24473Y29244D02*
X-24473Y29244D01*
X-23941Y29244D01*
X-23941Y29261D01*
X-24473Y29261D01*
X-24473Y29244D01*
D02*
G37*
G36*
X-23257Y29244D02*
X-23257Y29244D01*
X-23162Y29244D01*
X-23162Y29261D01*
X-23257Y29261D01*
X-23257Y29244D01*
D02*
G37*
G36*
X-23086Y29244D02*
X-23086Y29244D01*
X-23010Y29244D01*
X-23010Y29261D01*
X-23086Y29261D01*
X-23086Y29244D01*
D02*
G37*
G36*
X-22915Y29244D02*
X-22915Y29244D01*
X-22839Y29244D01*
X-22839Y29261D01*
X-22915Y29261D01*
X-22915Y29244D01*
D02*
G37*
G36*
X-22744Y29244D02*
X-22744Y29244D01*
X-22668Y29244D01*
X-22668Y29261D01*
X-22744Y29261D01*
X-22744Y29244D01*
D02*
G37*
G36*
X-22535Y29244D02*
X-22535Y29244D01*
X-22421Y29244D01*
X-22421Y29261D01*
X-22535Y29261D01*
X-22535Y29244D01*
D02*
G37*
G36*
X-22098Y29244D02*
X-22098Y29244D01*
X-22003Y29244D01*
X-22003Y29261D01*
X-22098Y29261D01*
X-22098Y29244D01*
D02*
G37*
G36*
X-21794Y29244D02*
X-21794Y29244D01*
X-21718Y29244D01*
X-21718Y29261D01*
X-21794Y29261D01*
X-21794Y29244D01*
D02*
G37*
G36*
X-21623Y29244D02*
X-21623Y29244D01*
X-21547Y29244D01*
X-21547Y29261D01*
X-21623Y29261D01*
X-21623Y29244D01*
D02*
G37*
G36*
X-21452Y29244D02*
X-21452Y29244D01*
X-21376Y29244D01*
X-21376Y29261D01*
X-21452Y29261D01*
X-21452Y29244D01*
D02*
G37*
G36*
X-24454Y29227D02*
X-24454Y29227D01*
X-23979Y29227D01*
X-23979Y29244D01*
X-24454Y29244D01*
X-24454Y29227D01*
D02*
G37*
G36*
X-23428Y29227D02*
X-23428Y29227D01*
X-23371Y29227D01*
X-23371Y29244D01*
X-23428Y29244D01*
X-23428Y29227D01*
D02*
G37*
G36*
X-23276Y29227D02*
X-23276Y29227D01*
X-23181Y29227D01*
X-23181Y29244D01*
X-23276Y29244D01*
X-23276Y29227D01*
D02*
G37*
G36*
X-23086Y29227D02*
X-23086Y29227D01*
X-23010Y29227D01*
X-23010Y29244D01*
X-23086Y29244D01*
X-23086Y29227D01*
D02*
G37*
G36*
X-22915Y29227D02*
X-22915Y29227D01*
X-22839Y29227D01*
X-22839Y29244D01*
X-22915Y29244D01*
X-22915Y29227D01*
D02*
G37*
G36*
X-22744Y29227D02*
X-22744Y29227D01*
X-22668Y29227D01*
X-22668Y29244D01*
X-22744Y29244D01*
X-22744Y29227D01*
D02*
G37*
G36*
X-22535Y29227D02*
X-22535Y29227D01*
X-22440Y29227D01*
X-22440Y29244D01*
X-22535Y29244D01*
X-22535Y29227D01*
D02*
G37*
G36*
X-22098Y29227D02*
X-22098Y29227D01*
X-21965Y29227D01*
X-21965Y29244D01*
X-22098Y29244D01*
X-22098Y29227D01*
D02*
G37*
G36*
X-21889Y29227D02*
X-21889Y29227D01*
X-21851Y29227D01*
X-21851Y29244D01*
X-21889Y29244D01*
X-21889Y29227D01*
D02*
G37*
G36*
X-21794Y29227D02*
X-21794Y29227D01*
X-21699Y29227D01*
X-21699Y29244D01*
X-21794Y29244D01*
X-21794Y29227D01*
D02*
G37*
G36*
X-21642Y29227D02*
X-21642Y29227D01*
X-21547Y29227D01*
X-21547Y29244D01*
X-21642Y29244D01*
X-21642Y29227D01*
D02*
G37*
G36*
X-21452Y29227D02*
X-21452Y29227D01*
X-21376Y29227D01*
X-21376Y29244D01*
X-21452Y29244D01*
X-21452Y29227D01*
D02*
G37*
G36*
X-24435Y29209D02*
X-24435Y29209D01*
X-23998Y29209D01*
X-23998Y29227D01*
X-24435Y29227D01*
X-24435Y29209D01*
D02*
G37*
G36*
X-23428Y29209D02*
X-23428Y29209D01*
X-23181Y29209D01*
X-23181Y29227D01*
X-23428Y29227D01*
X-23428Y29209D01*
D02*
G37*
G36*
X-23086Y29209D02*
X-23086Y29209D01*
X-23010Y29209D01*
X-23010Y29227D01*
X-23086Y29227D01*
X-23086Y29209D01*
D02*
G37*
G36*
X-22915Y29209D02*
X-22915Y29209D01*
X-22839Y29209D01*
X-22839Y29227D01*
X-22915Y29227D01*
X-22915Y29209D01*
D02*
G37*
G36*
X-22744Y29209D02*
X-22744Y29209D01*
X-22668Y29209D01*
X-22668Y29227D01*
X-22744Y29227D01*
X-22744Y29209D01*
D02*
G37*
G36*
X-22535Y29209D02*
X-22535Y29209D01*
X-22440Y29209D01*
X-22440Y29227D01*
X-22535Y29227D01*
X-22535Y29209D01*
D02*
G37*
G36*
X-22079Y29209D02*
X-22079Y29209D01*
X-21851Y29209D01*
X-21851Y29227D01*
X-22079Y29227D01*
X-22079Y29209D01*
D02*
G37*
G36*
X-21794Y29209D02*
X-21794Y29209D01*
X-21547Y29209D01*
X-21547Y29227D01*
X-21794Y29227D01*
X-21794Y29209D01*
D02*
G37*
G36*
X-21452Y29209D02*
X-21452Y29209D01*
X-21376Y29209D01*
X-21376Y29227D01*
X-21452Y29227D01*
X-21452Y29209D01*
D02*
G37*
G36*
X-24416Y29192D02*
X-24416Y29192D01*
X-24017Y29192D01*
X-24017Y29209D01*
X-24416Y29209D01*
X-24416Y29192D01*
D02*
G37*
G36*
X-23428Y29192D02*
X-23428Y29192D01*
X-23200Y29192D01*
X-23200Y29209D01*
X-23428Y29209D01*
X-23428Y29192D01*
D02*
G37*
G36*
X-23086Y29192D02*
X-23086Y29192D01*
X-23010Y29192D01*
X-23010Y29209D01*
X-23086Y29209D01*
X-23086Y29192D01*
D02*
G37*
G36*
X-22915Y29192D02*
X-22915Y29192D01*
X-22839Y29192D01*
X-22839Y29209D01*
X-22915Y29209D01*
X-22915Y29192D01*
D02*
G37*
G36*
X-22744Y29192D02*
X-22744Y29192D01*
X-22668Y29192D01*
X-22668Y29209D01*
X-22744Y29209D01*
X-22744Y29192D01*
D02*
G37*
G36*
X-22516Y29192D02*
X-22516Y29192D01*
X-22440Y29192D01*
X-22440Y29209D01*
X-22516Y29209D01*
X-22516Y29192D01*
D02*
G37*
G36*
X-22060Y29192D02*
X-22060Y29192D01*
X-21851Y29192D01*
X-21851Y29209D01*
X-22060Y29209D01*
X-22060Y29192D01*
D02*
G37*
G36*
X-21775Y29192D02*
X-21775Y29192D01*
X-21547Y29192D01*
X-21547Y29209D01*
X-21775Y29209D01*
X-21775Y29192D01*
D02*
G37*
G36*
X-21452Y29192D02*
X-21452Y29192D01*
X-21376Y29192D01*
X-21376Y29209D01*
X-21452Y29209D01*
X-21452Y29192D01*
D02*
G37*
G36*
X-24397Y29174D02*
X-24397Y29174D01*
X-24017Y29174D01*
X-24017Y29192D01*
X-24397Y29192D01*
X-24397Y29174D01*
D02*
G37*
G36*
X-23428Y29174D02*
X-23428Y29174D01*
X-23219Y29174D01*
X-23219Y29192D01*
X-23428Y29192D01*
X-23428Y29174D01*
D02*
G37*
G36*
X-23086Y29174D02*
X-23086Y29174D01*
X-23010Y29174D01*
X-23010Y29192D01*
X-23086Y29192D01*
X-23086Y29174D01*
D02*
G37*
G36*
X-22915Y29174D02*
X-22915Y29174D01*
X-22839Y29174D01*
X-22839Y29192D01*
X-22915Y29192D01*
X-22915Y29174D01*
D02*
G37*
G36*
X-22744Y29174D02*
X-22744Y29174D01*
X-22668Y29174D01*
X-22668Y29192D01*
X-22744Y29192D01*
X-22744Y29174D01*
D02*
G37*
G36*
X-22516Y29174D02*
X-22516Y29174D01*
X-22440Y29174D01*
X-22440Y29192D01*
X-22516Y29192D01*
X-22516Y29174D01*
D02*
G37*
G36*
X-22041Y29174D02*
X-22041Y29174D01*
X-21851Y29174D01*
X-21851Y29192D01*
X-22041Y29192D01*
X-22041Y29174D01*
D02*
G37*
G36*
X-21775Y29174D02*
X-21775Y29174D01*
X-21547Y29174D01*
X-21547Y29192D01*
X-21775Y29192D01*
X-21775Y29174D01*
D02*
G37*
G36*
X-21452Y29174D02*
X-21452Y29174D01*
X-21376Y29174D01*
X-21376Y29192D01*
X-21452Y29192D01*
X-21452Y29174D01*
D02*
G37*
G36*
X-24473Y29157D02*
X-24473Y29157D01*
X-23941Y29157D01*
X-23941Y29174D01*
X-24473Y29174D01*
X-24473Y29157D01*
D02*
G37*
G36*
X-23390Y29157D02*
X-23390Y29157D01*
X-23257Y29157D01*
X-23257Y29174D01*
X-23390Y29174D01*
X-23390Y29157D01*
D02*
G37*
G36*
X-23086Y29157D02*
X-23086Y29157D01*
X-23010Y29157D01*
X-23010Y29174D01*
X-23086Y29174D01*
X-23086Y29157D01*
D02*
G37*
G36*
X-22915Y29157D02*
X-22915Y29157D01*
X-22839Y29157D01*
X-22839Y29174D01*
X-22915Y29174D01*
X-22915Y29157D01*
D02*
G37*
G36*
X-22744Y29157D02*
X-22744Y29157D01*
X-22668Y29157D01*
X-22668Y29174D01*
X-22744Y29174D01*
X-22744Y29157D01*
D02*
G37*
G36*
X-22535Y29157D02*
X-22535Y29157D01*
X-22459Y29157D01*
X-22459Y29174D01*
X-22535Y29174D01*
X-22535Y29157D01*
D02*
G37*
G36*
X-22022Y29157D02*
X-22022Y29157D01*
X-21870Y29157D01*
X-21870Y29174D01*
X-22022Y29174D01*
X-22022Y29157D01*
D02*
G37*
G36*
X-21737Y29157D02*
X-21737Y29157D01*
X-21642Y29157D01*
X-21642Y29174D01*
X-21737Y29174D01*
X-21737Y29157D01*
D02*
G37*
G36*
X-21604Y29157D02*
X-21604Y29157D01*
X-21547Y29157D01*
X-21547Y29174D01*
X-21604Y29174D01*
X-21604Y29157D01*
D02*
G37*
G36*
X-21452Y29157D02*
X-21452Y29157D01*
X-21376Y29157D01*
X-21376Y29174D01*
X-21452Y29174D01*
X-21452Y29157D01*
D02*
G37*
G36*
X-24492Y29139D02*
X-24492Y29139D01*
X-23941Y29139D01*
X-23941Y29157D01*
X-24492Y29157D01*
X-24492Y29139D01*
D02*
G37*
G36*
X-22535Y29139D02*
X-22535Y29139D01*
X-22459Y29139D01*
X-22459Y29157D01*
X-22535Y29157D01*
X-22535Y29139D01*
D02*
G37*
G36*
X-24435Y29122D02*
X-24435Y29122D01*
X-23979Y29122D01*
X-23979Y29139D01*
X-24435Y29139D01*
X-24435Y29122D01*
D02*
G37*
G36*
X-22535Y29122D02*
X-22535Y29122D01*
X-22459Y29122D01*
X-22459Y29139D01*
X-22535Y29139D01*
X-22535Y29122D01*
D02*
G37*
G36*
X-22554Y29105D02*
X-22554Y29105D01*
X-22478Y29105D01*
X-22478Y29122D01*
X-22554Y29122D01*
X-22554Y29105D01*
D02*
G37*
G36*
X-22554Y29087D02*
X-22554Y29087D01*
X-22478Y29087D01*
X-22478Y29105D01*
X-22554Y29105D01*
X-22554Y29087D01*
D02*
G37*
G36*
X-22554Y29070D02*
X-22554Y29070D01*
X-22478Y29070D01*
X-22478Y29087D01*
X-22554Y29087D01*
X-22554Y29070D01*
D02*
G37*
G36*
X-22573Y29052D02*
X-22573Y29052D01*
X-22497Y29052D01*
X-22497Y29070D01*
X-22573Y29070D01*
X-22573Y29052D01*
D02*
G37*
G36*
X-22573Y29035D02*
X-22573Y29035D01*
X-22497Y29035D01*
X-22497Y29052D01*
X-22573Y29052D01*
X-22573Y29035D01*
D02*
G37*
G36*
X-22573Y29017D02*
X-22573Y29017D01*
X-22497Y29017D01*
X-22497Y29035D01*
X-22573Y29035D01*
X-22573Y29017D01*
D02*
G37*
G36*
X-22573Y29000D02*
X-22573Y29000D01*
X-22516Y29000D01*
X-22516Y29017D01*
X-22573Y29017D01*
X-22573Y29000D01*
D02*
G37*
G54D17*
X-20567Y30678D02*
X-20567Y31278D01*
X-21306Y30678D02*
X-20567Y30678D01*
X-23520Y30678D02*
X-22782Y30678D01*
X-23520Y31278D02*
X-23520Y30678D01*
G54D18*
X-27258Y32129D02*
X-27201Y32129D01*
X-27201Y32043D01*
X-27258Y31986D01*
X-27315Y31986D01*
X-27372Y32043D01*
X-27372Y32214D01*
X-27315Y32271D01*
X-27201Y32271D01*
X-27116Y31986D02*
X-27116Y32271D01*
X-26945Y31986D01*
X-26945Y32271D01*
X-26860Y31986D02*
X-26746Y31986D01*
X-26689Y32043D01*
X-26689Y32214D01*
X-26746Y32271D01*
X-26860Y32271D01*
X-26831Y32271D02*
X-26831Y31986D01*
X-26348Y31986D02*
X-26234Y31986D01*
X-26177Y32043D01*
X-26177Y32214D01*
X-26234Y32271D01*
X-26348Y32271D01*
X-26319Y32271D02*
X-26319Y31986D01*
X-25836Y32271D02*
X-25750Y31986D01*
X-25665Y32271D01*
X-25409Y32043D02*
X-25466Y31986D01*
X-25523Y31986D01*
X-25580Y32043D01*
X-25580Y32214D01*
X-25523Y32271D01*
X-25466Y32271D01*
X-25409Y32214D01*
X-25153Y32043D02*
X-25210Y31986D01*
X-25267Y31986D01*
X-25324Y32043D01*
X-25324Y32214D01*
X-25267Y32271D01*
X-25210Y32271D01*
X-25153Y32214D01*
G54D19*
X-26800Y14850D03*
G54D20*
X-25110Y19151D03*

M02*
