M48
INCH,TZ
VER,1
FMAT,2
DETECT,ON
ATC,ON
T1C0.0595
T2C0.0236
%
T1
X-2.1900Y0.8400
X-2.0900Y0.9400
X-2.2900
X-2.0900Y0.7400
X-2.2900
T2
X-2.5750Y1.2583
X-2.2583Y2.2917
X-2.2750Y2.2250
X-2.0917Y2.2083
X-2.3417Y2.0083
X-1.8750Y1.7250
X-2.3917Y2.0417
X-2.2583Y2.4417
X-2.5250Y2.2750
X-2.6750Y2.4250
X-2.1417Y1.1917
X-2.1917Y0.9750
X-2.3917Y2.0917
X-2.4750Y1.0583
X-2.5750Y1.1917
X-1.8417Y1.6417
X-2.0083Y2.1417
Y2.2083
X-1.9583Y1.9583
X-2.4917Y1.9250
M30
