M48
INCH,TZ
VER,1
FMAT,2
DETECT,ON
ATC,ON
T1C0.0236
T2C0.0595
T3C0.0400
T4C0.1142
%
T1
X-1.6600Y0.7400
Y0.8700
X-2.7200Y1.0300
X-2.6100Y1.0100
X-2.3400Y1.1600
X-2.4000
X-2.0900Y1.1300
X-2.6400Y1.3000
X-2.0900Y1.3500
X-2.0000
X-1.9200
X-1.8400
X-1.7600
X-2.4400Y1.7300
X-1.8900Y2.3000
X-1.7900Y2.3600
X-2.6000Y2.4400
Y2.5600
Y2.6800
X-2.6600Y3.0700
X-2.3800Y3.2000
X-1.9400
X-2.2600Y3.0700
X-1.9900Y2.3800
X-1.7000Y2.3400
X-1.9600Y1.6200
X-1.8800
X-1.8000
X-1.8200Y2.1000
X-2.0400Y1.6200
X-1.6500
X-2.1900Y2.2100
X-2.3100Y2.1000
X-2.6000Y2.2900
X-2.3100Y1.9300
X-2.5000Y1.1700
X-2.6100Y0.7600
X-2.8000Y0.9100
X-1.8800Y0.8800
Y0.7400
X-1.6300Y1.1000
X-1.7300Y1.0000
X-2.7600Y2.8100
X-1.7800Y1.1300
X-2.4800Y2.6800
X-2.7600Y1.3600
Y1.1400
Y2.2100
X-2.6700Y1.1800
X-2.6400Y1.2200
X-2.4400Y1.2800
X-2.5000Y1.3500
X-2.5600Y2.1000
X-1.8300Y3.2100
X-1.6900
Y2.8900
Y2.7600
X-1.8200Y2.6800
Y2.7300
X-2.0200Y2.8300
X-1.8200Y2.7900
X-1.7000Y2.9600
X-2.1900Y2.8500
X-2.3100Y1.1100
X-2.2500Y1.1400
X-1.8700Y2.5500
X-1.8600Y2.8700
X-1.8900Y2.6900
X-2.3100Y2.8800
X-1.6200Y2.9400
X-2.7600Y1.8000
X-2.5100Y2.9000
X-2.5000Y1.4800
X-2.5600Y1.8500
X-2.5200Y1.5700
X-2.3800Y1.6300
X-2.1800Y1.7000
Y1.4100
X-1.7500Y2.5700
X-2.1800Y2.4900
X-2.0800Y2.6100
X-2.0100Y2.7100
T2
X-2.2044Y0.8400
X-2.1044Y0.9400
X-2.3044
X-2.1044Y0.7400
X-2.3044
T3
X-1.9419Y1.1141
X-2.4669
T4
X-2.2044Y2.3991
M30
