G04 Generated by Ultiboard 13.0 *
%FSLAX24Y24*%
%MOIN*%

%ADD11C,0.0236*%
%ADD12C,0.0595*%
%ADD13C,0.0400*%
%ADD14C,0.1142*%


G04 ColorRGB 000000 for the following layer *
%LNDrill-Copper Top-Copper Bottom*%
%LPD*%
G54D11*
X-16600Y7400D03*
X-16600Y8700D03*
X-27200Y10300D03*
X-26100Y10100D03*
X-23400Y11600D03*
X-24000Y11600D03*
X-20900Y11300D03*
X-26400Y13000D03*
X-20900Y13500D03*
X-20000Y13500D03*
X-19200Y13500D03*
X-18400Y13500D03*
X-17600Y13500D03*
X-24400Y17300D03*
X-18900Y23000D03*
X-17900Y23600D03*
X-26000Y24400D03*
X-26000Y25600D03*
X-26000Y26800D03*
X-26600Y30700D03*
X-19900Y23800D03*
X-17000Y23400D03*
X-19600Y16200D03*
X-18800Y16200D03*
X-18000Y16200D03*
X-18200Y21000D03*
X-20400Y16200D03*
X-16500Y16200D03*
X-21900Y22100D03*
X-23100Y21000D03*
X-26000Y22900D03*
X-23100Y19300D03*
X-25000Y11700D03*
X-26100Y7600D03*
X-28000Y9100D03*
X-18800Y8800D03*
X-18800Y7400D03*
X-16300Y11000D03*
X-17300Y10000D03*
X-27600Y28100D03*
X-17800Y11300D03*
X-24800Y26800D03*
X-27600Y13600D03*
X-27600Y11400D03*
X-27600Y22100D03*
X-26700Y11800D03*
X-26400Y12200D03*
X-24400Y12800D03*
X-25000Y13500D03*
X-25600Y21000D03*
X-18300Y32100D03*
X-16900Y32100D03*
X-16900Y28900D03*
X-16900Y27600D03*
X-18200Y26800D03*
X-18200Y27300D03*
X-20200Y28300D03*
X-18200Y27900D03*
X-21900Y28500D03*
X-23100Y11100D03*
X-22500Y11400D03*
X-18700Y25500D03*
X-18600Y28700D03*
X-18900Y26900D03*
X-23100Y28800D03*
X-27600Y18000D03*
X-25100Y29000D03*
X-25000Y14800D03*
X-25600Y18500D03*
X-25200Y15700D03*
X-23800Y16300D03*
X-21800Y14100D03*
X-16100Y30100D03*
X-16300Y26700D03*
X-20000Y27100D03*
X-16900Y29700D03*
X-17700Y29500D03*
X-24300Y32000D03*
X-23000Y30300D03*
X-19700Y32000D03*
X-21800Y16200D03*
X-17500Y25600D03*
X-21800Y25000D03*
G54D12*
X-22044Y8400D03*
X-21044Y9400D03*
X-23044Y9400D03*
X-21044Y7400D03*
X-23044Y7400D03*
G54D13*
X-19419Y11141D03*
X-24669Y11141D03*
G54D14*
X-22044Y23991D03*

M02*
