G04 Generated by Ultiboard 13.0 *
%FSLAX24Y24*%
%MOIN*%

%ADD10C,0.0001*%
%ADD11C,0.0080*%
%ADD12C,0.0061*%
%ADD13C,0.0079*%
%ADD14C,0.0098*%
%ADD15C,0.0100*%
%ADD16C,0.0001*%
%ADD17C,0.01414*%
%ADD18C,0.01969*%


G04 ColorRGB FFFF00 for the following layer *
%LNSilkscreen Top*%
%LPD*%
G54D10*
G54D11*
X-19960Y8788D02*
X-19960Y7292D01*
X-16810Y8217D02*
X-16826Y8216D01*
X-16841Y8214D01*
X-16856Y8211D01*
X-16871Y8206D01*
X-16885Y8201D01*
X-16899Y8193D01*
X-16912Y8185D01*
X-16924Y8176D01*
X-16936Y8165D01*
X-16946Y8154D01*
X-16956Y8142D01*
X-16964Y8129D01*
X-16971Y8115D01*
X-16977Y8101D01*
X-16982Y8086D01*
X-16985Y8071D01*
X-16987Y8055D01*
X-16988Y8040D01*
X-16987Y8025D01*
X-16985Y8009D01*
X-16982Y7994D01*
X-16977Y7979D01*
X-16971Y7965D01*
X-16964Y7951D01*
X-16956Y7938D01*
X-16946Y7926D01*
X-16936Y7915D01*
X-16924Y7904D01*
X-16912Y7895D01*
X-16899Y7887D01*
X-16885Y7879D01*
X-16871Y7874D01*
X-16856Y7869D01*
X-16841Y7866D01*
X-16826Y7864D01*
X-16810Y7863D01*
X-16810Y7292D02*
X-16810Y7863D01*
X-16810Y8217D02*
X-16810Y8788D01*
X-17685Y7340D02*
X-19085Y7340D01*
X-17685Y8740D02*
X-19085Y8740D01*
X-27243Y7226D02*
X-25157Y7226D01*
X-25157Y7974D01*
X-27243Y7974D01*
X-27243Y7226D01*
X-16450Y20728D02*
X-22750Y20728D01*
X-22750Y11672D01*
X-16450Y11672D01*
X-16450Y20728D01*
X-27576Y17500D02*
X-27576Y15300D01*
X-26024Y15300D02*
X-26024Y17500D01*
X-23889Y21996D02*
X-23978Y21951D01*
X-24067Y21951D01*
X-24156Y21996D01*
X-24156Y22132D01*
X-24067Y22177D01*
X-23978Y22177D01*
X-23889Y22132D01*
X-23578Y21951D02*
X-23667Y21951D01*
X-23756Y21996D01*
X-23756Y22042D01*
X-23711Y22064D01*
X-23756Y22087D01*
X-23756Y22132D01*
X-23667Y22177D01*
X-23578Y22177D01*
X-23489Y22132D01*
X-23489Y22087D01*
X-23533Y22064D01*
X-23489Y22042D01*
X-23489Y21996D01*
X-23578Y21951D01*
X-23711Y22064D02*
X-23533Y22064D01*
X-23300Y21833D02*
X-23300Y20167D01*
X-24300Y20167D02*
X-24300Y21833D01*
X-23300Y20167D02*
X-24300Y20167D01*
X-23800Y20833D02*
X-23800Y20784D01*
X-24300Y21833D02*
X-23300Y21833D01*
X-24050Y20917D02*
X-23550Y20917D01*
X-24050Y20833D02*
X-23550Y20833D01*
X-24050Y20867D02*
X-23550Y20867D01*
X-23550Y21167D02*
X-24050Y21167D01*
X-23550Y21083D02*
X-24050Y21083D01*
X-24050Y21117D02*
X-23550Y21117D01*
X-23800Y21167D02*
X-23800Y21207D01*
X-20643Y23243D02*
X-20643Y21157D01*
X-18557Y21157D01*
X-18557Y23243D01*
X-19797Y23243D02*
X-19796Y23226D01*
X-19794Y23209D01*
X-19790Y23192D01*
X-19785Y23176D01*
X-19778Y23160D01*
X-19770Y23145D01*
X-19761Y23130D01*
X-19751Y23117D01*
X-19739Y23104D01*
X-19727Y23093D01*
X-19713Y23082D01*
X-19698Y23073D01*
X-19683Y23065D01*
X-19667Y23058D01*
X-19651Y23053D01*
X-19634Y23049D01*
X-19617Y23047D01*
X-19600Y23046D01*
X-19583Y23047D01*
X-19566Y23049D01*
X-19549Y23053D01*
X-19533Y23058D01*
X-19517Y23065D01*
X-19502Y23073D01*
X-19487Y23082D01*
X-19473Y23093D01*
X-19461Y23104D01*
X-19449Y23117D01*
X-19439Y23130D01*
X-19430Y23145D01*
X-19422Y23160D01*
X-19415Y23176D01*
X-19410Y23192D01*
X-19406Y23209D01*
X-19404Y23226D01*
X-19403Y23243D01*
X-18557Y23243D02*
X-19403Y23243D01*
X-19797Y23243D02*
X-20643Y23243D01*
X-20398Y22898D02*
G75*
D01*
G02X-20398Y22898I98J0*
G01*
X-17089Y22996D02*
X-17178Y22951D01*
X-17267Y22951D01*
X-17356Y22996D01*
X-17356Y23132D01*
X-17267Y23177D01*
X-17178Y23177D01*
X-17089Y23132D01*
X-16956Y22996D02*
X-16867Y22951D01*
X-16778Y22951D01*
X-16689Y22996D01*
X-16689Y23087D01*
X-16689Y23132D01*
X-16778Y23177D01*
X-16867Y23177D01*
X-16956Y23132D01*
X-16956Y23087D01*
X-16867Y23042D01*
X-16778Y23042D01*
X-16689Y23087D01*
X-16500Y22833D02*
X-16500Y21167D01*
X-17500Y21167D02*
X-17500Y22833D01*
X-16500Y21167D02*
X-17500Y21167D01*
X-17000Y21833D02*
X-17000Y21784D01*
X-17500Y22833D02*
X-16500Y22833D01*
X-17250Y21917D02*
X-16750Y21917D01*
X-17250Y21833D02*
X-16750Y21833D01*
X-17250Y21867D02*
X-16750Y21867D01*
X-16750Y22167D02*
X-17250Y22167D01*
X-16750Y22083D02*
X-17250Y22083D01*
X-17250Y22117D02*
X-16750Y22117D01*
X-17000Y22167D02*
X-17000Y22207D01*
X-22700Y23618D02*
X-22700Y28382D01*
X-23700Y28382D01*
X-23700Y23618D01*
X-22700Y23618D01*
X-24980Y31900D02*
X-27420Y31900D01*
X-27420Y30900D01*
X-24980Y30900D01*
X-24980Y31900D01*
X-20767Y9881D02*
X-21161Y9881D01*
X-21161Y10038D01*
X-21082Y10116D01*
X-21043Y10116D01*
X-20964Y10038D01*
X-20964Y9881D01*
X-20964Y9920D02*
X-20767Y10116D01*
X-21082Y10273D02*
X-21161Y10351D01*
X-20767Y10351D01*
X-20767Y10234D02*
X-20767Y10469D01*
X-21082Y10626D02*
X-21161Y10704D01*
X-20767Y10704D01*
X-20767Y10586D02*
X-20767Y10822D01*
X-18967Y9500D02*
X-20633Y9500D01*
X-20633Y10500D02*
X-18967Y10500D01*
X-20633Y9500D02*
X-20633Y10500D01*
X-18967Y10500D02*
X-18967Y9500D01*
X-27167Y8534D02*
X-27561Y8534D01*
X-27561Y8691D01*
X-27482Y8769D01*
X-27443Y8769D01*
X-27364Y8691D01*
X-27364Y8534D01*
X-27364Y8573D02*
X-27167Y8769D01*
X-27561Y9082D02*
X-27561Y8965D01*
X-27482Y8886D01*
X-27324Y8886D01*
X-27246Y8886D01*
X-27167Y8965D01*
X-27167Y9043D01*
X-27246Y9122D01*
X-27324Y9122D01*
X-27403Y9043D01*
X-27403Y8965D01*
X-27324Y8886D01*
X-27033Y9300D02*
X-25367Y9300D01*
X-25367Y8300D02*
X-27033Y8300D01*
X-25367Y9300D02*
X-25367Y8300D01*
X-27033Y8300D02*
X-27033Y9300D01*
X-24661Y15367D02*
X-24661Y15761D01*
X-24504Y15761D01*
X-24426Y15682D01*
X-24426Y15643D01*
X-24504Y15564D01*
X-24661Y15564D01*
X-24622Y15564D02*
X-24426Y15367D01*
X-24191Y15367D02*
X-24191Y15564D01*
X-24073Y15682D01*
X-24073Y15761D01*
X-24308Y15761D01*
X-24308Y15682D01*
X-25833Y15300D02*
X-24167Y15300D01*
X-24167Y14300D02*
X-25833Y14300D01*
X-24167Y15300D02*
X-24167Y14300D01*
X-25833Y14300D02*
X-25833Y15300D01*
X-23289Y18396D02*
X-23378Y18351D01*
X-23467Y18351D01*
X-23556Y18396D01*
X-23556Y18532D01*
X-23467Y18577D01*
X-23378Y18577D01*
X-23289Y18532D01*
X-23111Y18555D02*
X-23067Y18577D01*
X-22978Y18577D01*
X-22889Y18532D01*
X-22889Y18487D01*
X-22933Y18464D01*
X-22889Y18442D01*
X-22889Y18396D01*
X-22978Y18351D01*
X-23067Y18351D01*
X-23111Y18374D01*
X-23067Y18464D02*
X-22933Y18464D01*
X-23900Y16567D02*
X-23900Y18233D01*
X-22900Y18233D02*
X-22900Y16567D01*
X-23900Y18233D02*
X-22900Y18233D01*
X-23400Y17567D02*
X-23400Y17616D01*
X-22900Y16567D02*
X-23900Y16567D01*
X-23150Y17483D02*
X-23650Y17483D01*
X-23150Y17567D02*
X-23650Y17567D01*
X-23150Y17533D02*
X-23650Y17533D01*
X-23650Y17233D02*
X-23150Y17233D01*
X-23650Y17317D02*
X-23150Y17317D01*
X-23150Y17283D02*
X-23650Y17283D01*
X-23400Y17233D02*
X-23400Y17193D01*
X-24789Y18096D02*
X-24878Y18051D01*
X-24967Y18051D01*
X-25056Y18096D01*
X-25056Y18232D01*
X-24967Y18277D01*
X-24878Y18277D01*
X-24789Y18232D01*
X-24611Y18232D02*
X-24522Y18277D01*
X-24522Y18051D01*
X-24656Y18051D02*
X-24389Y18051D01*
X-24256Y18232D02*
X-24167Y18277D01*
X-24078Y18277D01*
X-23989Y18232D01*
X-23989Y18210D01*
X-24256Y18051D01*
X-23989Y18051D01*
X-23989Y18074D01*
X-23700Y20033D02*
X-23700Y18367D01*
X-24700Y18367D02*
X-24700Y20033D01*
X-23700Y18367D02*
X-24700Y18367D01*
X-24200Y19033D02*
X-24200Y18984D01*
X-24700Y20033D02*
X-23700Y20033D01*
X-24450Y19117D02*
X-23950Y19117D01*
X-24450Y19033D02*
X-23950Y19033D01*
X-24450Y19067D02*
X-23950Y19067D01*
X-23950Y19367D02*
X-24450Y19367D01*
X-23950Y19283D02*
X-24450Y19283D01*
X-24450Y19317D02*
X-23950Y19317D01*
X-24200Y19367D02*
X-24200Y19407D01*
X-27089Y20196D02*
X-27178Y20151D01*
X-27267Y20151D01*
X-27356Y20196D01*
X-27356Y20332D01*
X-27267Y20377D01*
X-27178Y20377D01*
X-27089Y20332D01*
X-26911Y20332D02*
X-26822Y20377D01*
X-26822Y20151D01*
X-26956Y20151D02*
X-26689Y20151D01*
X-26511Y20332D02*
X-26422Y20377D01*
X-26422Y20151D01*
X-26556Y20151D02*
X-26289Y20151D01*
X-26300Y20033D02*
X-26300Y18367D01*
X-27300Y18367D02*
X-27300Y20033D01*
X-26300Y18367D02*
X-27300Y18367D01*
X-26800Y19033D02*
X-26800Y18984D01*
X-27300Y20033D02*
X-26300Y20033D01*
X-27050Y19117D02*
X-26550Y19117D01*
X-27050Y19033D02*
X-26550Y19033D01*
X-27050Y19067D02*
X-26550Y19067D01*
X-26550Y19367D02*
X-27050Y19367D01*
X-26550Y19283D02*
X-27050Y19283D01*
X-27050Y19317D02*
X-26550Y19317D01*
X-26800Y19367D02*
X-26800Y19407D01*
X-27300Y23584D02*
X-27300Y21616D01*
X-26300Y21616D01*
X-26300Y23584D01*
X-27300Y23584D01*
X-20831Y23455D02*
X-20919Y23410D01*
X-21008Y23410D01*
X-21097Y23455D01*
X-21097Y23590D01*
X-21008Y23636D01*
X-20919Y23636D01*
X-20831Y23590D01*
X-20653Y23590D02*
X-20564Y23636D01*
X-20564Y23410D01*
X-20697Y23410D02*
X-20431Y23410D01*
X-20297Y23590D02*
X-20208Y23636D01*
X-20119Y23636D01*
X-20031Y23590D01*
X-20031Y23455D01*
X-20119Y23410D01*
X-20208Y23410D01*
X-20297Y23455D01*
X-20297Y23590D01*
X-20031Y23590D02*
X-20297Y23455D01*
X-20100Y25433D02*
X-20100Y23767D01*
X-21100Y23767D02*
X-21100Y25433D01*
X-20100Y23767D02*
X-21100Y23767D01*
X-20600Y24433D02*
X-20600Y24384D01*
X-21100Y25433D02*
X-20100Y25433D01*
X-20850Y24517D02*
X-20350Y24517D01*
X-20850Y24433D02*
X-20350Y24433D01*
X-20850Y24467D02*
X-20350Y24467D01*
X-20350Y24767D02*
X-20850Y24767D01*
X-20350Y24683D02*
X-20850Y24683D01*
X-20850Y24717D02*
X-20350Y24717D01*
X-20600Y24767D02*
X-20600Y24807D01*
X-27261Y25467D02*
X-27261Y25861D01*
X-27104Y25861D01*
X-27026Y25782D01*
X-27026Y25743D01*
X-27104Y25664D01*
X-27261Y25664D01*
X-27222Y25664D02*
X-27026Y25467D01*
X-26869Y25782D02*
X-26791Y25861D01*
X-26791Y25467D01*
X-26908Y25467D02*
X-26673Y25467D01*
X-27500Y23767D02*
X-27500Y25433D01*
X-26500Y25433D02*
X-26500Y23767D01*
X-27500Y25433D02*
X-26500Y25433D01*
X-26500Y23767D02*
X-27500Y23767D01*
X-25767Y24734D02*
X-26161Y24734D01*
X-26161Y24891D01*
X-26082Y24969D01*
X-26043Y24969D01*
X-25964Y24891D01*
X-25964Y24734D01*
X-25964Y24773D02*
X-25767Y24969D01*
X-26121Y25126D02*
X-26161Y25165D01*
X-26161Y25243D01*
X-26082Y25322D01*
X-26003Y25322D01*
X-25964Y25282D01*
X-25924Y25322D01*
X-25846Y25322D01*
X-25767Y25243D01*
X-25767Y25165D01*
X-25806Y25126D01*
X-25964Y25165D02*
X-25964Y25282D01*
X-23967Y23900D02*
X-25633Y23900D01*
X-25633Y24900D02*
X-23967Y24900D01*
X-25633Y23900D02*
X-25633Y24900D01*
X-23967Y24900D02*
X-23967Y23900D01*
X-25767Y25934D02*
X-26161Y25934D01*
X-26161Y26090D01*
X-26082Y26169D01*
X-26043Y26169D01*
X-25964Y26090D01*
X-25964Y25934D01*
X-25964Y25973D02*
X-25767Y26169D01*
X-26161Y26522D02*
X-26161Y26286D01*
X-26003Y26286D01*
X-26003Y26443D01*
X-25924Y26522D01*
X-25846Y26522D01*
X-25767Y26443D01*
X-25767Y26286D01*
X-23967Y25100D02*
X-25633Y25100D01*
X-25633Y26100D02*
X-23967Y26100D01*
X-25633Y25100D02*
X-25633Y26100D01*
X-23967Y26100D02*
X-23967Y25100D01*
X-25667Y27134D02*
X-26061Y27134D01*
X-26061Y27290D01*
X-25982Y27369D01*
X-25943Y27369D01*
X-25864Y27290D01*
X-25864Y27134D01*
X-25864Y27173D02*
X-25667Y27369D01*
X-25982Y27486D02*
X-26061Y27565D01*
X-26061Y27643D01*
X-25982Y27722D01*
X-25943Y27722D01*
X-25667Y27486D01*
X-25667Y27722D01*
X-25706Y27722D01*
X-23967Y26300D02*
X-25633Y26300D01*
X-25633Y27300D02*
X-23967Y27300D01*
X-25633Y26300D02*
X-25633Y27300D01*
X-23967Y27300D02*
X-23967Y26300D01*
X-25396Y28911D02*
X-25351Y28822D01*
X-25351Y28733D01*
X-25396Y28644D01*
X-25532Y28644D01*
X-25577Y28733D01*
X-25577Y28822D01*
X-25532Y28911D01*
X-25577Y29267D02*
X-25577Y29133D01*
X-25532Y29044D01*
X-25442Y29044D01*
X-25396Y29044D01*
X-25351Y29133D01*
X-25351Y29222D01*
X-25396Y29311D01*
X-25442Y29311D01*
X-25487Y29222D01*
X-25487Y29133D01*
X-25442Y29044D01*
X-27433Y29500D02*
X-25767Y29500D01*
X-25767Y28500D02*
X-27433Y28500D01*
X-25767Y29500D02*
X-25767Y28500D01*
X-26433Y29000D02*
X-26384Y29000D01*
X-27433Y28500D02*
X-27433Y29500D01*
X-26517Y28750D02*
X-26517Y29250D01*
X-26433Y28750D02*
X-26433Y29250D01*
X-26467Y28750D02*
X-26467Y29250D01*
X-26767Y29250D02*
X-26767Y28750D01*
X-26683Y29250D02*
X-26683Y28750D01*
X-26717Y28750D02*
X-26717Y29250D01*
X-26767Y29000D02*
X-26807Y29000D01*
X-25167Y29781D02*
X-25561Y29781D01*
X-25561Y29938D01*
X-25482Y30016D01*
X-25443Y30016D01*
X-25364Y29938D01*
X-25364Y29781D01*
X-25364Y29820D02*
X-25167Y30016D01*
X-25482Y30173D02*
X-25561Y30251D01*
X-25167Y30251D01*
X-25167Y30134D02*
X-25167Y30369D01*
X-25482Y30486D02*
X-25561Y30565D01*
X-25561Y30643D01*
X-25482Y30722D01*
X-25246Y30722D01*
X-25167Y30643D01*
X-25167Y30565D01*
X-25246Y30486D01*
X-25482Y30486D01*
X-25482Y30722D02*
X-25246Y30486D01*
X-25767Y29700D02*
X-27433Y29700D01*
X-27433Y30700D02*
X-25767Y30700D01*
X-27433Y29700D02*
X-27433Y30700D01*
X-25767Y30700D02*
X-25767Y29700D01*
X-17904Y24689D02*
X-17949Y24778D01*
X-17949Y24867D01*
X-17904Y24956D01*
X-17768Y24956D01*
X-17723Y24867D01*
X-17723Y24778D01*
X-17768Y24689D01*
X-17949Y24422D02*
X-17836Y24422D01*
X-17768Y24289D01*
X-17723Y24289D01*
X-17723Y24556D01*
X-17768Y24556D01*
X-19633Y25100D02*
X-17967Y25100D01*
X-17967Y24100D02*
X-19633Y24100D01*
X-17967Y25100D02*
X-17967Y24100D01*
X-18633Y24600D02*
X-18584Y24600D01*
X-19633Y24100D02*
X-19633Y25100D01*
X-18717Y24350D02*
X-18717Y24850D01*
X-18633Y24350D02*
X-18633Y24850D01*
X-18667Y24350D02*
X-18667Y24850D01*
X-18967Y24850D02*
X-18967Y24350D01*
X-18883Y24850D02*
X-18883Y24350D01*
X-18917Y24350D02*
X-18917Y24850D01*
X-18967Y24600D02*
X-19007Y24600D01*
X-27661Y12267D02*
X-27661Y12661D01*
X-27504Y12661D01*
X-27426Y12582D01*
X-27426Y12543D01*
X-27504Y12464D01*
X-27661Y12464D01*
X-27622Y12464D02*
X-27426Y12267D01*
X-27308Y12346D02*
X-27230Y12267D01*
X-27151Y12267D01*
X-27073Y12346D01*
X-27073Y12503D01*
X-27073Y12582D01*
X-27151Y12661D01*
X-27230Y12661D01*
X-27308Y12582D01*
X-27308Y12503D01*
X-27230Y12424D01*
X-27151Y12424D01*
X-27073Y12503D01*
X-26900Y12233D02*
X-26900Y10567D01*
X-27900Y10567D02*
X-27900Y12233D01*
X-26900Y10567D02*
X-27900Y10567D01*
X-27900Y12233D02*
X-26900Y12233D01*
X-24502Y12021D02*
X-24502Y12030D01*
X-24503Y12038D01*
X-24505Y12047D01*
X-24508Y12055D01*
X-24511Y12063D01*
X-24515Y12070D01*
X-24519Y12078D01*
X-24525Y12085D01*
X-24530Y12091D01*
X-24537Y12097D01*
X-24544Y12102D01*
X-24551Y12106D01*
X-24558Y12110D01*
X-24566Y12114D01*
X-24575Y12116D01*
X-24583Y12118D01*
X-24591Y12119D01*
X-24600Y12120D01*
X-24609Y12119D01*
X-24617Y12118D01*
X-24625Y12116D01*
X-24634Y12114D01*
X-24642Y12110D01*
X-24649Y12106D01*
X-24656Y12102D01*
X-24663Y12097D01*
X-24670Y12091D01*
X-24675Y12085D01*
X-24681Y12078D01*
X-24685Y12070D01*
X-24689Y12063D01*
X-24692Y12055D01*
X-24695Y12047D01*
X-24697Y12038D01*
X-24698Y12030D01*
X-24698Y12021D01*
X-24159Y12141D02*
G75*
D01*
G02X-24159Y12141I59J0*
G01*
X-25300Y12000D02*
X-25300Y14000D01*
X-23900Y12000D02*
X-23900Y14000D01*
X-24506Y12000D02*
X-23900Y12000D01*
X-25306Y12000D02*
X-24700Y12000D01*
X-23891Y14000D02*
X-25300Y14000D01*
X-18089Y29896D02*
X-18178Y29851D01*
X-18267Y29851D01*
X-18356Y29896D01*
X-18356Y30032D01*
X-18267Y30077D01*
X-18178Y30077D01*
X-18089Y30032D01*
X-17689Y30077D02*
X-17956Y30077D01*
X-17956Y29987D01*
X-17778Y29987D01*
X-17689Y29942D01*
X-17689Y29896D01*
X-17778Y29851D01*
X-17956Y29851D01*
X-17700Y31833D02*
X-17700Y30167D01*
X-18700Y30167D02*
X-18700Y31833D01*
X-17700Y30167D02*
X-18700Y30167D01*
X-18200Y30833D02*
X-18200Y30784D01*
X-18700Y31833D02*
X-17700Y31833D01*
X-18450Y30917D02*
X-17950Y30917D01*
X-18450Y30833D02*
X-17950Y30833D01*
X-18450Y30867D02*
X-17950Y30867D01*
X-17950Y31167D02*
X-18450Y31167D01*
X-17950Y31083D02*
X-18450Y31083D01*
X-18450Y31117D02*
X-17950Y31117D01*
X-18200Y31167D02*
X-18200Y31207D01*
X-17089Y29896D02*
X-17178Y29851D01*
X-17267Y29851D01*
X-17356Y29896D01*
X-17356Y30032D01*
X-17267Y30077D01*
X-17178Y30077D01*
X-17089Y30032D01*
X-16689Y29942D02*
X-16956Y29942D01*
X-16733Y30077D01*
X-16733Y29851D01*
X-16778Y29851D02*
X-16689Y29851D01*
X-16500Y31833D02*
X-16500Y30167D01*
X-17500Y30167D02*
X-17500Y31833D01*
X-16500Y30167D02*
X-17500Y30167D01*
X-17000Y30833D02*
X-17000Y30784D01*
X-17500Y31833D02*
X-16500Y31833D01*
X-17250Y30917D02*
X-16750Y30917D01*
X-17250Y30833D02*
X-16750Y30833D01*
X-17250Y30867D02*
X-16750Y30867D01*
X-16750Y31167D02*
X-17250Y31167D01*
X-16750Y31083D02*
X-17250Y31083D01*
X-17250Y31117D02*
X-16750Y31117D01*
X-17000Y31167D02*
X-17000Y31207D01*
X-17861Y29139D02*
X-17861Y26461D01*
X-20539Y26461D01*
X-20539Y29139D01*
X-17861Y29139D01*
X-18196Y28916D02*
G75*
D01*
G02X-18196Y28916I98J0*
G01*
X-25498Y20033D02*
X-25498Y19167D01*
X-25302Y19177D02*
X-25302Y20023D01*
X-25302Y20033D02*
X-25498Y20033D01*
X-25498Y19167D02*
X-25302Y19167D01*
X-25489Y17796D02*
X-25578Y17751D01*
X-25667Y17751D01*
X-25756Y17796D01*
X-25756Y17932D01*
X-25667Y17977D01*
X-25578Y17977D01*
X-25489Y17932D01*
X-25356Y17932D02*
X-25267Y17977D01*
X-25178Y17977D01*
X-25089Y17932D01*
X-25089Y17910D01*
X-25356Y17751D01*
X-25089Y17751D01*
X-25089Y17774D01*
X-25700Y15967D02*
X-25700Y17633D01*
X-24700Y17633D02*
X-24700Y15967D01*
X-25700Y17633D02*
X-24700Y17633D01*
X-25200Y16967D02*
X-25200Y17016D01*
X-24700Y15967D02*
X-25700Y15967D01*
X-24950Y16883D02*
X-25450Y16883D01*
X-24950Y16967D02*
X-25450Y16967D01*
X-24950Y16933D02*
X-25450Y16933D01*
X-25450Y16633D02*
X-24950Y16633D01*
X-25450Y16717D02*
X-24950Y16717D01*
X-24950Y16683D02*
X-25450Y16683D01*
X-25200Y16633D02*
X-25200Y16593D01*
X-23189Y16196D02*
X-23278Y16151D01*
X-23367Y16151D01*
X-23456Y16196D01*
X-23456Y16332D01*
X-23367Y16377D01*
X-23278Y16377D01*
X-23189Y16332D01*
X-23011Y16332D02*
X-22922Y16377D01*
X-22922Y16151D01*
X-23056Y16151D02*
X-22789Y16151D01*
X-22900Y16033D02*
X-22900Y14367D01*
X-23900Y14367D02*
X-23900Y16033D01*
X-22900Y14367D02*
X-23900Y14367D01*
X-23400Y15033D02*
X-23400Y14984D01*
X-23900Y16033D02*
X-22900Y16033D01*
X-23650Y15117D02*
X-23150Y15117D01*
X-23650Y15033D02*
X-23150Y15033D01*
X-23650Y15067D02*
X-23150Y15067D01*
X-23150Y15367D02*
X-23650Y15367D01*
X-23150Y15283D02*
X-23650Y15283D01*
X-23650Y15317D02*
X-23150Y15317D01*
X-23400Y15367D02*
X-23400Y15407D01*
X-24367Y9934D02*
X-24761Y9934D01*
X-24761Y10091D01*
X-24682Y10169D01*
X-24643Y10169D01*
X-24564Y10091D01*
X-24564Y9934D01*
X-24564Y9973D02*
X-24367Y10169D01*
X-24524Y10522D02*
X-24524Y10286D01*
X-24761Y10482D01*
X-24367Y10482D01*
X-24367Y10443D02*
X-24367Y10522D01*
X-24233Y10900D02*
X-22567Y10900D01*
X-22567Y9900D02*
X-24233Y9900D01*
X-22567Y10900D02*
X-22567Y9900D01*
X-24233Y9900D02*
X-24233Y10900D01*
X-24461Y9267D02*
X-24461Y9661D01*
X-24304Y9661D01*
X-24226Y9582D01*
X-24226Y9543D01*
X-24304Y9464D01*
X-24461Y9464D01*
X-24422Y9464D02*
X-24226Y9267D01*
X-23951Y9267D02*
X-24030Y9267D01*
X-24108Y9346D01*
X-24108Y9424D01*
X-24069Y9464D01*
X-24108Y9503D01*
X-24108Y9582D01*
X-24030Y9661D01*
X-23951Y9661D01*
X-23873Y9582D01*
X-23873Y9503D01*
X-23912Y9464D01*
X-23873Y9424D01*
X-23873Y9346D01*
X-23951Y9267D01*
X-24069Y9464D02*
X-23912Y9464D01*
X-24700Y7567D02*
X-24700Y9233D01*
X-23700Y9233D02*
X-23700Y7567D01*
X-24700Y9233D02*
X-23700Y9233D01*
X-23700Y7567D02*
X-24700Y7567D01*
G54D12*
X-17761Y11261D02*
X-17761Y10946D01*
X-17682Y10867D01*
X-17604Y10867D01*
X-17526Y10946D01*
X-17526Y11261D01*
X-17251Y10867D02*
X-17330Y10867D01*
X-17408Y10946D01*
X-17408Y11024D01*
X-17369Y11064D01*
X-17408Y11103D01*
X-17408Y11182D01*
X-17330Y11261D01*
X-17251Y11261D01*
X-17173Y11182D01*
X-17173Y11103D01*
X-17212Y11064D01*
X-17173Y11024D01*
X-17173Y10946D01*
X-17251Y10867D01*
X-17369Y11064D02*
X-17212Y11064D01*
X-24969Y10711D02*
X-24890Y10789D01*
X-24890Y10868D01*
X-24969Y10946D01*
X-25205Y10946D01*
X-25283Y10868D01*
X-25283Y10789D01*
X-25205Y10711D01*
X-24969Y10711D01*
X-24969Y10868D02*
X-24890Y10946D01*
X-25244Y11103D02*
X-25283Y11142D01*
X-25283Y11220D01*
X-25205Y11299D01*
X-25126Y11299D01*
X-25087Y11260D01*
X-25047Y11299D01*
X-24969Y11299D01*
X-24890Y11220D01*
X-24890Y11142D01*
X-24929Y11103D01*
X-25087Y11142D02*
X-25087Y11260D01*
X-27261Y27767D02*
X-27104Y27767D01*
X-27026Y27846D01*
X-27026Y28082D01*
X-27104Y28161D01*
X-27261Y28161D01*
X-27222Y28161D02*
X-27222Y27767D01*
X-26869Y28082D02*
X-26790Y28161D01*
X-26790Y27767D01*
X-26908Y27767D02*
X-26673Y27767D01*
X-19961Y30846D02*
X-19882Y30767D01*
X-19804Y30767D01*
X-19726Y30846D01*
X-19726Y31161D01*
X-19569Y31121D02*
X-19530Y31161D01*
X-19451Y31161D01*
X-19373Y31082D01*
X-19373Y31003D01*
X-19412Y30964D01*
X-19373Y30924D01*
X-19373Y30846D01*
X-19451Y30767D01*
X-19530Y30767D01*
X-19569Y30806D01*
X-19530Y30964D02*
X-19412Y30964D01*
X-25861Y22061D02*
X-25861Y21667D01*
X-25626Y21667D01*
X-25469Y21982D02*
X-25390Y22061D01*
X-25390Y21667D01*
X-25508Y21667D02*
X-25273Y21667D01*
X-25461Y19061D02*
X-25461Y18746D01*
X-25383Y18668D01*
X-25304Y18668D01*
X-25226Y18746D01*
X-25226Y19061D01*
X-24913Y19061D02*
X-25031Y19061D01*
X-25109Y18982D01*
X-25109Y18825D01*
X-25109Y18746D01*
X-25031Y18668D01*
X-24952Y18668D01*
X-24874Y18746D01*
X-24874Y18825D01*
X-24952Y18904D01*
X-25031Y18904D01*
X-25109Y18825D01*
G54D13*
X-16947Y10791D02*
X-17853Y10791D01*
X-17853Y9609D02*
X-16947Y9609D01*
X-16947Y10791D01*
X-17026Y9609D02*
X-16947Y9688D01*
X-17105Y9609D02*
X-16947Y9767D01*
X-17183Y9609D02*
X-16947Y9846D01*
X-17262Y9609D02*
X-16947Y9924D01*
X-17341Y9609D02*
X-16947Y10003D01*
X-17853Y10791D02*
X-17853Y9609D01*
X-26194Y11118D02*
X-26194Y10882D01*
X-25406Y10882D02*
X-25406Y11118D01*
X-26194Y11118D01*
X-26194Y10882D02*
X-25406Y10882D01*
X-26665Y26524D02*
X-26665Y27076D01*
X-27335Y26524D02*
X-27335Y27076D01*
X-26665Y26524D02*
X-27335Y26524D01*
X-26665Y26603D02*
X-27335Y26603D01*
X-26665Y26682D02*
X-27335Y26682D01*
X-25817Y20508D02*
X-25383Y20508D01*
X-25817Y21492D02*
X-25383Y21492D01*
X-25817Y21492D02*
X-25383Y21492D01*
G54D14*
X-16406Y9550D02*
G75*
D01*
G02X-16406Y9550I49J0*
G01*
X-25318Y11512D02*
G75*
D01*
G02X-25318Y11512I49J0*
G01*
X-27049Y25717D02*
G75*
D01*
G02X-27049Y25717I49J0*
G01*
G54D15*
X-20124Y32646D02*
X-23076Y32646D01*
X-20124Y32322D02*
X-20124Y32646D01*
X-20124Y30678D02*
X-20124Y31278D01*
X-20862Y30678D02*
X-20124Y30678D01*
X-23076Y32646D02*
X-23076Y32322D01*
X-23076Y30678D02*
X-22338Y30678D01*
X-23076Y31278D02*
X-23076Y30678D01*
G54D16*
G36*
X-24073Y31248D02*
X-24073Y31248D01*
X-24035Y31248D01*
X-24035Y31265D01*
X-24073Y31265D01*
X-24073Y31248D01*
D02*
G37*
G36*
X-23560Y31248D02*
X-23560Y31248D01*
X-23541Y31248D01*
X-23541Y31265D01*
X-23560Y31265D01*
X-23560Y31248D01*
D02*
G37*
G36*
X-24073Y31230D02*
X-24073Y31230D01*
X-24016Y31230D01*
X-24016Y31248D01*
X-24073Y31248D01*
X-24073Y31230D01*
D02*
G37*
G36*
X-23579Y31230D02*
X-23579Y31230D01*
X-23541Y31230D01*
X-23541Y31248D01*
X-23579Y31248D01*
X-23579Y31230D01*
D02*
G37*
G36*
X-24073Y31213D02*
X-24073Y31213D01*
X-23997Y31213D01*
X-23997Y31230D01*
X-24073Y31230D01*
X-24073Y31213D01*
D02*
G37*
G36*
X-23598Y31213D02*
X-23598Y31213D01*
X-23541Y31213D01*
X-23541Y31230D01*
X-23598Y31230D01*
X-23598Y31213D01*
D02*
G37*
G36*
X-24073Y31195D02*
X-24073Y31195D01*
X-23997Y31195D01*
X-23997Y31213D01*
X-24073Y31213D01*
X-24073Y31195D01*
D02*
G37*
G36*
X-23617Y31195D02*
X-23617Y31195D01*
X-23541Y31195D01*
X-23541Y31213D01*
X-23617Y31213D01*
X-23617Y31195D01*
D02*
G37*
G36*
X-24073Y31178D02*
X-24073Y31178D01*
X-23978Y31178D01*
X-23978Y31195D01*
X-24073Y31195D01*
X-24073Y31178D01*
D02*
G37*
G36*
X-23636Y31178D02*
X-23636Y31178D01*
X-23541Y31178D01*
X-23541Y31195D01*
X-23636Y31195D01*
X-23636Y31178D01*
D02*
G37*
G36*
X-24073Y31161D02*
X-24073Y31161D01*
X-23959Y31161D01*
X-23959Y31178D01*
X-24073Y31178D01*
X-24073Y31161D01*
D02*
G37*
G36*
X-23655Y31161D02*
X-23655Y31161D01*
X-23541Y31161D01*
X-23541Y31178D01*
X-23655Y31178D01*
X-23655Y31161D01*
D02*
G37*
G36*
X-24073Y31143D02*
X-24073Y31143D01*
X-23940Y31143D01*
X-23940Y31161D01*
X-24073Y31161D01*
X-24073Y31143D01*
D02*
G37*
G36*
X-23674Y31143D02*
X-23674Y31143D01*
X-23541Y31143D01*
X-23541Y31161D01*
X-23674Y31161D01*
X-23674Y31143D01*
D02*
G37*
G36*
X-24073Y31126D02*
X-24073Y31126D01*
X-23921Y31126D01*
X-23921Y31143D01*
X-24073Y31143D01*
X-24073Y31126D01*
D02*
G37*
G36*
X-23826Y31126D02*
X-23826Y31126D01*
X-23788Y31126D01*
X-23788Y31143D01*
X-23826Y31143D01*
X-23826Y31126D01*
D02*
G37*
G36*
X-23674Y31126D02*
X-23674Y31126D01*
X-23541Y31126D01*
X-23541Y31143D01*
X-23674Y31143D01*
X-23674Y31126D01*
D02*
G37*
G36*
X-24073Y31108D02*
X-24073Y31108D01*
X-23712Y31108D01*
X-23712Y31126D01*
X-24073Y31126D01*
X-24073Y31108D01*
D02*
G37*
G36*
X-23693Y31108D02*
X-23693Y31108D01*
X-23541Y31108D01*
X-23541Y31126D01*
X-23693Y31126D01*
X-23693Y31108D01*
D02*
G37*
G36*
X-24073Y31091D02*
X-24073Y31091D01*
X-23541Y31091D01*
X-23541Y31108D01*
X-24073Y31108D01*
X-24073Y31091D01*
D02*
G37*
G36*
X-24073Y31073D02*
X-24073Y31073D01*
X-23541Y31073D01*
X-23541Y31091D01*
X-24073Y31091D01*
X-24073Y31073D01*
D02*
G37*
G36*
X-24073Y31056D02*
X-24073Y31056D01*
X-23541Y31056D01*
X-23541Y31074D01*
X-24073Y31073D01*
X-24073Y31056D01*
D02*
G37*
G36*
X-24073Y31039D02*
X-24073Y31039D01*
X-23541Y31039D01*
X-23541Y31056D01*
X-24073Y31056D01*
X-24073Y31039D01*
D02*
G37*
G36*
X-24111Y31021D02*
X-24111Y31021D01*
X-23541Y31021D01*
X-23541Y31039D01*
X-24111Y31039D01*
X-24111Y31021D01*
D02*
G37*
G36*
X-24130Y31004D02*
X-24130Y31004D01*
X-23522Y31004D01*
X-23522Y31021D01*
X-24130Y31021D01*
X-24130Y31004D01*
D02*
G37*
G36*
X-24168Y30986D02*
X-24168Y30986D01*
X-23503Y30986D01*
X-23503Y31004D01*
X-24168Y31004D01*
X-24168Y30986D01*
D02*
G37*
G36*
X-24187Y30969D02*
X-24187Y30969D01*
X-23484Y30969D01*
X-23484Y30986D01*
X-24187Y30986D01*
X-24187Y30969D01*
D02*
G37*
G36*
X-24187Y30952D02*
X-24187Y30952D01*
X-23465Y30952D01*
X-23465Y30969D01*
X-24187Y30969D01*
X-24187Y30952D01*
D02*
G37*
G36*
X-24206Y30934D02*
X-24206Y30934D01*
X-23446Y30934D01*
X-23446Y30952D01*
X-24206Y30952D01*
X-24206Y30934D01*
D02*
G37*
G36*
X-24206Y30917D02*
X-24206Y30917D01*
X-23427Y30917D01*
X-23427Y30934D01*
X-24206Y30934D01*
X-24206Y30917D01*
D02*
G37*
G36*
X-24320Y30899D02*
X-24320Y30899D01*
X-24244Y30899D01*
X-24244Y30917D01*
X-24320Y30917D01*
X-24320Y30899D01*
D02*
G37*
G36*
X-24225Y30899D02*
X-24225Y30899D01*
X-23427Y30899D01*
X-23427Y30917D01*
X-24225Y30917D01*
X-24225Y30899D01*
D02*
G37*
G36*
X-23389Y30899D02*
X-23389Y30899D01*
X-23313Y30899D01*
X-23313Y30917D01*
X-23389Y30917D01*
X-23389Y30899D01*
D02*
G37*
G36*
X-24244Y30882D02*
X-24244Y30882D01*
X-23370Y30882D01*
X-23370Y30899D01*
X-24244Y30899D01*
X-24244Y30882D01*
D02*
G37*
G36*
X-24225Y30864D02*
X-24225Y30864D01*
X-23389Y30864D01*
X-23389Y30882D01*
X-24225Y30882D01*
X-24225Y30864D01*
D02*
G37*
G36*
X-24339Y30847D02*
X-24339Y30847D01*
X-23294Y30847D01*
X-23294Y30864D01*
X-24339Y30864D01*
X-24339Y30847D01*
D02*
G37*
G36*
X-24244Y30830D02*
X-24244Y30830D01*
X-23389Y30830D01*
X-23389Y30847D01*
X-24244Y30847D01*
X-24244Y30830D01*
D02*
G37*
G36*
X-24301Y30812D02*
X-24301Y30812D01*
X-24225Y30812D01*
X-24225Y30830D01*
X-24301Y30830D01*
X-24301Y30812D01*
D02*
G37*
G36*
X-24187Y30812D02*
X-24187Y30812D01*
X-23427Y30812D01*
X-23427Y30830D01*
X-24187Y30830D01*
X-24187Y30812D01*
D02*
G37*
G36*
X-23389Y30812D02*
X-23389Y30812D01*
X-23332Y30812D01*
X-23332Y30830D01*
X-23389Y30830D01*
X-23389Y30812D01*
D02*
G37*
G36*
X-24339Y30795D02*
X-24339Y30795D01*
X-24301Y30795D01*
X-24301Y30812D01*
X-24339Y30812D01*
X-24339Y30795D01*
D02*
G37*
G36*
X-24168Y30795D02*
X-24168Y30795D01*
X-23427Y30795D01*
X-23427Y30812D01*
X-24168Y30812D01*
X-24168Y30795D01*
D02*
G37*
G36*
X-23313Y30795D02*
X-23313Y30795D01*
X-23294Y30795D01*
X-23294Y30812D01*
X-23313Y30812D01*
X-23313Y30795D01*
D02*
G37*
G36*
X-24149Y30777D02*
X-24149Y30777D01*
X-23446Y30777D01*
X-23446Y30795D01*
X-24149Y30795D01*
X-24149Y30777D01*
D02*
G37*
G36*
X-24130Y30760D02*
X-24130Y30760D01*
X-23465Y30760D01*
X-23465Y30777D01*
X-24130Y30777D01*
X-24130Y30760D01*
D02*
G37*
G36*
X-24111Y30742D02*
X-24111Y30742D01*
X-23503Y30742D01*
X-23503Y30760D01*
X-24111Y30760D01*
X-24111Y30742D01*
D02*
G37*
G36*
X-24073Y30725D02*
X-24073Y30725D01*
X-23541Y30725D01*
X-23541Y30742D01*
X-24073Y30742D01*
X-24073Y30725D01*
D02*
G37*
G36*
X-24548Y30708D02*
X-24548Y30708D01*
X-24358Y30708D01*
X-24358Y30725D01*
X-24548Y30725D01*
X-24548Y30708D01*
D02*
G37*
G36*
X-24035Y30708D02*
X-24035Y30708D01*
X-23579Y30708D01*
X-23579Y30725D01*
X-24035Y30725D01*
X-24035Y30708D01*
D02*
G37*
G36*
X-24586Y30690D02*
X-24586Y30690D01*
X-24320Y30690D01*
X-24320Y30708D01*
X-24586Y30708D01*
X-24586Y30690D01*
D02*
G37*
G36*
X-23959Y30690D02*
X-23959Y30690D01*
X-23617Y30690D01*
X-23617Y30708D01*
X-23959Y30708D01*
X-23959Y30690D01*
D02*
G37*
G36*
X-24624Y30673D02*
X-24624Y30673D01*
X-24282Y30673D01*
X-24282Y30690D01*
X-24624Y30690D01*
X-24624Y30673D01*
D02*
G37*
G36*
X-23959Y30673D02*
X-23959Y30673D01*
X-23674Y30673D01*
X-23674Y30690D01*
X-23959Y30690D01*
X-23959Y30673D01*
D02*
G37*
G36*
X-24643Y30655D02*
X-24643Y30655D01*
X-24263Y30655D01*
X-24263Y30673D01*
X-24643Y30673D01*
X-24643Y30655D01*
D02*
G37*
G36*
X-23940Y30655D02*
X-23940Y30655D01*
X-23674Y30655D01*
X-23674Y30673D01*
X-23940Y30673D01*
X-23940Y30655D01*
D02*
G37*
G36*
X-24662Y30638D02*
X-24662Y30638D01*
X-24263Y30638D01*
X-24263Y30655D01*
X-24662Y30655D01*
X-24662Y30638D01*
D02*
G37*
G36*
X-23940Y30638D02*
X-23940Y30638D01*
X-23674Y30638D01*
X-23674Y30655D01*
X-23940Y30655D01*
X-23940Y30638D01*
D02*
G37*
G36*
X-24662Y30620D02*
X-24662Y30620D01*
X-24244Y30620D01*
X-24244Y30638D01*
X-24662Y30638D01*
X-24662Y30620D01*
D02*
G37*
G36*
X-23940Y30620D02*
X-23940Y30620D01*
X-23674Y30620D01*
X-23674Y30638D01*
X-23940Y30638D01*
X-23940Y30620D01*
D02*
G37*
G36*
X-24681Y30603D02*
X-24681Y30603D01*
X-24529Y30603D01*
X-24529Y30620D01*
X-24681Y30620D01*
X-24681Y30603D01*
D02*
G37*
G36*
X-24377Y30603D02*
X-24377Y30603D01*
X-24244Y30603D01*
X-24244Y30620D01*
X-24377Y30620D01*
X-24377Y30603D01*
D02*
G37*
G36*
X-23940Y30603D02*
X-23940Y30603D01*
X-23674Y30603D01*
X-23674Y30620D01*
X-23940Y30620D01*
X-23940Y30603D01*
D02*
G37*
G36*
X-24681Y30586D02*
X-24681Y30586D01*
X-24548Y30586D01*
X-24548Y30603D01*
X-24681Y30603D01*
X-24681Y30586D01*
D02*
G37*
G36*
X-24358Y30586D02*
X-24358Y30586D01*
X-24225Y30586D01*
X-24225Y30603D01*
X-24358Y30603D01*
X-24358Y30586D01*
D02*
G37*
G36*
X-23959Y30586D02*
X-23959Y30586D01*
X-23674Y30586D01*
X-23674Y30603D01*
X-23959Y30603D01*
X-23959Y30586D01*
D02*
G37*
G36*
X-24681Y30568D02*
X-24681Y30568D01*
X-24567Y30568D01*
X-24567Y30586D01*
X-24681Y30586D01*
X-24681Y30568D01*
D02*
G37*
G36*
X-24358Y30568D02*
X-24358Y30568D01*
X-24225Y30568D01*
X-24225Y30586D01*
X-24358Y30586D01*
X-24358Y30568D01*
D02*
G37*
G36*
X-23959Y30568D02*
X-23959Y30568D01*
X-23674Y30568D01*
X-23674Y30586D01*
X-23959Y30586D01*
X-23959Y30568D01*
D02*
G37*
G36*
X-24681Y30551D02*
X-24681Y30551D01*
X-24567Y30551D01*
X-24567Y30568D01*
X-24681Y30568D01*
X-24681Y30551D01*
D02*
G37*
G36*
X-24339Y30551D02*
X-24339Y30551D01*
X-24225Y30551D01*
X-24225Y30568D01*
X-24339Y30568D01*
X-24339Y30551D01*
D02*
G37*
G36*
X-23959Y30551D02*
X-23959Y30551D01*
X-23674Y30551D01*
X-23674Y30568D01*
X-23959Y30568D01*
X-23959Y30551D01*
D02*
G37*
G36*
X-24681Y30533D02*
X-24681Y30533D01*
X-24586Y30533D01*
X-24586Y30551D01*
X-24681Y30551D01*
X-24681Y30533D01*
D02*
G37*
G36*
X-24339Y30533D02*
X-24339Y30533D01*
X-24225Y30533D01*
X-24225Y30551D01*
X-24339Y30551D01*
X-24339Y30533D01*
D02*
G37*
G36*
X-23959Y30533D02*
X-23959Y30533D01*
X-23674Y30533D01*
X-23674Y30551D01*
X-23959Y30551D01*
X-23959Y30533D01*
D02*
G37*
G36*
X-24681Y30516D02*
X-24681Y30516D01*
X-24586Y30516D01*
X-24586Y30533D01*
X-24681Y30533D01*
X-24681Y30516D01*
D02*
G37*
G36*
X-24339Y30516D02*
X-24339Y30516D01*
X-24225Y30516D01*
X-24225Y30533D01*
X-24339Y30533D01*
X-24339Y30516D01*
D02*
G37*
G36*
X-23959Y30516D02*
X-23959Y30516D01*
X-23655Y30516D01*
X-23655Y30533D01*
X-23959Y30533D01*
X-23959Y30516D01*
D02*
G37*
G36*
X-24681Y30498D02*
X-24681Y30498D01*
X-24567Y30498D01*
X-24567Y30516D01*
X-24681Y30516D01*
X-24681Y30498D01*
D02*
G37*
G36*
X-24320Y30498D02*
X-24320Y30498D01*
X-24225Y30498D01*
X-24225Y30516D01*
X-24320Y30516D01*
X-24320Y30498D01*
D02*
G37*
G36*
X-23959Y30498D02*
X-23959Y30498D01*
X-23655Y30498D01*
X-23655Y30516D01*
X-23959Y30516D01*
X-23959Y30498D01*
D02*
G37*
G36*
X-24681Y30481D02*
X-24681Y30481D01*
X-24567Y30481D01*
X-24567Y30498D01*
X-24681Y30498D01*
X-24681Y30481D01*
D02*
G37*
G36*
X-24320Y30481D02*
X-24320Y30481D01*
X-24225Y30481D01*
X-24225Y30498D01*
X-24320Y30498D01*
X-24320Y30481D01*
D02*
G37*
G36*
X-23959Y30481D02*
X-23959Y30481D01*
X-23655Y30481D01*
X-23655Y30498D01*
X-23959Y30498D01*
X-23959Y30481D01*
D02*
G37*
G36*
X-24681Y30464D02*
X-24681Y30464D01*
X-24548Y30464D01*
X-24548Y30481D01*
X-24681Y30481D01*
X-24681Y30464D01*
D02*
G37*
G36*
X-24320Y30464D02*
X-24320Y30464D01*
X-24225Y30464D01*
X-24225Y30481D01*
X-24320Y30481D01*
X-24320Y30464D01*
D02*
G37*
G36*
X-23959Y30464D02*
X-23959Y30464D01*
X-23655Y30464D01*
X-23655Y30481D01*
X-23959Y30481D01*
X-23959Y30464D01*
D02*
G37*
G36*
X-24662Y30446D02*
X-24662Y30446D01*
X-24548Y30446D01*
X-24548Y30464D01*
X-24662Y30464D01*
X-24662Y30446D01*
D02*
G37*
G36*
X-24320Y30446D02*
X-24320Y30446D01*
X-24225Y30446D01*
X-24225Y30464D01*
X-24320Y30464D01*
X-24320Y30446D01*
D02*
G37*
G36*
X-23978Y30446D02*
X-23978Y30446D01*
X-23655Y30446D01*
X-23655Y30464D01*
X-23978Y30464D01*
X-23978Y30446D01*
D02*
G37*
G36*
X-24643Y30429D02*
X-24643Y30429D01*
X-24510Y30429D01*
X-24510Y30446D01*
X-24643Y30446D01*
X-24643Y30429D01*
D02*
G37*
G36*
X-24320Y30429D02*
X-24320Y30429D01*
X-24225Y30429D01*
X-24225Y30446D01*
X-24320Y30446D01*
X-24320Y30429D01*
D02*
G37*
G36*
X-23978Y30429D02*
X-23978Y30429D01*
X-23636Y30429D01*
X-23636Y30446D01*
X-23978Y30446D01*
X-23978Y30429D01*
D02*
G37*
G36*
X-24643Y30411D02*
X-24643Y30411D01*
X-24491Y30411D01*
X-24491Y30429D01*
X-24643Y30429D01*
X-24643Y30411D01*
D02*
G37*
G36*
X-24320Y30411D02*
X-24320Y30411D01*
X-24225Y30411D01*
X-24225Y30429D01*
X-24320Y30429D01*
X-24320Y30411D01*
D02*
G37*
G36*
X-23978Y30411D02*
X-23978Y30411D01*
X-23636Y30411D01*
X-23636Y30429D01*
X-23978Y30429D01*
X-23978Y30411D01*
D02*
G37*
G36*
X-24624Y30394D02*
X-24624Y30394D01*
X-24472Y30394D01*
X-24472Y30411D01*
X-24624Y30411D01*
X-24624Y30394D01*
D02*
G37*
G36*
X-24339Y30394D02*
X-24339Y30394D01*
X-24225Y30394D01*
X-24225Y30411D01*
X-24339Y30411D01*
X-24339Y30394D01*
D02*
G37*
G36*
X-23997Y30394D02*
X-23997Y30394D01*
X-23636Y30394D01*
X-23636Y30411D01*
X-23997Y30411D01*
X-23997Y30394D01*
D02*
G37*
G36*
X-24586Y30377D02*
X-24586Y30377D01*
X-24472Y30377D01*
X-24472Y30394D01*
X-24586Y30394D01*
X-24586Y30377D01*
D02*
G37*
G36*
X-24339Y30377D02*
X-24339Y30377D01*
X-24225Y30377D01*
X-24225Y30394D01*
X-24339Y30394D01*
X-24339Y30377D01*
D02*
G37*
G36*
X-23997Y30377D02*
X-23997Y30377D01*
X-23617Y30377D01*
X-23617Y30394D01*
X-23997Y30394D01*
X-23997Y30377D01*
D02*
G37*
G36*
X-24548Y30359D02*
X-24548Y30359D01*
X-24491Y30359D01*
X-24491Y30377D01*
X-24548Y30377D01*
X-24548Y30359D01*
D02*
G37*
G36*
X-24339Y30359D02*
X-24339Y30359D01*
X-24225Y30359D01*
X-24225Y30377D01*
X-24339Y30377D01*
X-24339Y30359D01*
D02*
G37*
G36*
X-24016Y30359D02*
X-24016Y30359D01*
X-23617Y30359D01*
X-23617Y30377D01*
X-24016Y30377D01*
X-24016Y30359D01*
D02*
G37*
G36*
X-24339Y30342D02*
X-24339Y30342D01*
X-24225Y30342D01*
X-24225Y30359D01*
X-24339Y30359D01*
X-24339Y30342D01*
D02*
G37*
G36*
X-24016Y30342D02*
X-24016Y30342D01*
X-23598Y30342D01*
X-23598Y30359D01*
X-24016Y30359D01*
X-24016Y30342D01*
D02*
G37*
G36*
X-24339Y30324D02*
X-24339Y30324D01*
X-24225Y30324D01*
X-24225Y30342D01*
X-24339Y30342D01*
X-24339Y30324D01*
D02*
G37*
G36*
X-24035Y30324D02*
X-24035Y30324D01*
X-23598Y30324D01*
X-23598Y30342D01*
X-24035Y30342D01*
X-24035Y30324D01*
D02*
G37*
G36*
X-24358Y30307D02*
X-24358Y30307D01*
X-24225Y30307D01*
X-24225Y30324D01*
X-24358Y30324D01*
X-24358Y30307D01*
D02*
G37*
G36*
X-24035Y30307D02*
X-24035Y30307D01*
X-23579Y30307D01*
X-23579Y30324D01*
X-24035Y30324D01*
X-24035Y30307D01*
D02*
G37*
G36*
X-24358Y30289D02*
X-24358Y30289D01*
X-24244Y30289D01*
X-24244Y30307D01*
X-24358Y30307D01*
X-24358Y30289D01*
D02*
G37*
G36*
X-24054Y30289D02*
X-24054Y30289D01*
X-23560Y30289D01*
X-23560Y30307D01*
X-24054Y30307D01*
X-24054Y30289D01*
D02*
G37*
G36*
X-24358Y30272D02*
X-24358Y30272D01*
X-24244Y30272D01*
X-24244Y30289D01*
X-24358Y30289D01*
X-24358Y30272D01*
D02*
G37*
G36*
X-24073Y30272D02*
X-24073Y30272D01*
X-23541Y30272D01*
X-23541Y30289D01*
X-24073Y30289D01*
X-24073Y30272D01*
D02*
G37*
G36*
X-24358Y30255D02*
X-24358Y30255D01*
X-24244Y30255D01*
X-24244Y30272D01*
X-24358Y30272D01*
X-24358Y30255D01*
D02*
G37*
G36*
X-24092Y30255D02*
X-24092Y30255D01*
X-23522Y30255D01*
X-23522Y30272D01*
X-24092Y30272D01*
X-24092Y30255D01*
D02*
G37*
G36*
X-24377Y30237D02*
X-24377Y30237D01*
X-24244Y30237D01*
X-24244Y30255D01*
X-24377Y30255D01*
X-24377Y30237D01*
D02*
G37*
G36*
X-24111Y30237D02*
X-24111Y30237D01*
X-23503Y30237D01*
X-23503Y30255D01*
X-24111Y30255D01*
X-24111Y30237D01*
D02*
G37*
G36*
X-24377Y30220D02*
X-24377Y30220D01*
X-24244Y30220D01*
X-24244Y30237D01*
X-24377Y30237D01*
X-24377Y30220D01*
D02*
G37*
G36*
X-24130Y30220D02*
X-24130Y30220D01*
X-23503Y30220D01*
X-23503Y30237D01*
X-24130Y30237D01*
X-24130Y30220D01*
D02*
G37*
G36*
X-24377Y30202D02*
X-24377Y30202D01*
X-24244Y30202D01*
X-24244Y30220D01*
X-24377Y30220D01*
X-24377Y30202D01*
D02*
G37*
G36*
X-24130Y30202D02*
X-24130Y30202D01*
X-23484Y30202D01*
X-23484Y30220D01*
X-24130Y30220D01*
X-24130Y30202D01*
D02*
G37*
G36*
X-24377Y30185D02*
X-24377Y30185D01*
X-24263Y30185D01*
X-24263Y30202D01*
X-24377Y30202D01*
X-24377Y30185D01*
D02*
G37*
G36*
X-24149Y30185D02*
X-24149Y30185D01*
X-23465Y30185D01*
X-23465Y30202D01*
X-24149Y30202D01*
X-24149Y30185D01*
D02*
G37*
G36*
X-24396Y30167D02*
X-24396Y30167D01*
X-24263Y30167D01*
X-24263Y30185D01*
X-24396Y30185D01*
X-24396Y30167D01*
D02*
G37*
G36*
X-24149Y30167D02*
X-24149Y30167D01*
X-23465Y30167D01*
X-23465Y30185D01*
X-24149Y30185D01*
X-24149Y30167D01*
D02*
G37*
G36*
X-24396Y30150D02*
X-24396Y30150D01*
X-24263Y30150D01*
X-24263Y30167D01*
X-24396Y30167D01*
X-24396Y30150D01*
D02*
G37*
G36*
X-24168Y30150D02*
X-24168Y30150D01*
X-23465Y30150D01*
X-23465Y30167D01*
X-24168Y30167D01*
X-24168Y30150D01*
D02*
G37*
G36*
X-24396Y30133D02*
X-24396Y30133D01*
X-24263Y30133D01*
X-24263Y30150D01*
X-24396Y30150D01*
X-24396Y30133D01*
D02*
G37*
G36*
X-24168Y30133D02*
X-24168Y30133D01*
X-23465Y30133D01*
X-23465Y30150D01*
X-24168Y30150D01*
X-24168Y30133D01*
D02*
G37*
G36*
X-24396Y30115D02*
X-24396Y30115D01*
X-24263Y30115D01*
X-24263Y30133D01*
X-24396Y30133D01*
X-24396Y30115D01*
D02*
G37*
G36*
X-24168Y30115D02*
X-24168Y30115D01*
X-23465Y30115D01*
X-23465Y30133D01*
X-24168Y30133D01*
X-24168Y30115D01*
D02*
G37*
G36*
X-24396Y30098D02*
X-24396Y30098D01*
X-24263Y30098D01*
X-24263Y30115D01*
X-24396Y30115D01*
X-24396Y30098D01*
D02*
G37*
G36*
X-24168Y30098D02*
X-24168Y30098D01*
X-23446Y30098D01*
X-23446Y30115D01*
X-24168Y30115D01*
X-24168Y30098D01*
D02*
G37*
G36*
X-24396Y30080D02*
X-24396Y30080D01*
X-24263Y30080D01*
X-24263Y30098D01*
X-24396Y30098D01*
X-24396Y30080D01*
D02*
G37*
G36*
X-24168Y30080D02*
X-24168Y30080D01*
X-23446Y30080D01*
X-23446Y30098D01*
X-24168Y30098D01*
X-24168Y30080D01*
D02*
G37*
G36*
X-24396Y30063D02*
X-24396Y30063D01*
X-24263Y30063D01*
X-24263Y30080D01*
X-24396Y30080D01*
X-24396Y30063D01*
D02*
G37*
G36*
X-24168Y30063D02*
X-24168Y30063D01*
X-23446Y30063D01*
X-23446Y30080D01*
X-24168Y30080D01*
X-24168Y30063D01*
D02*
G37*
G36*
X-24396Y30045D02*
X-24396Y30045D01*
X-24263Y30045D01*
X-24263Y30063D01*
X-24396Y30063D01*
X-24396Y30045D01*
D02*
G37*
G36*
X-24168Y30045D02*
X-24168Y30045D01*
X-23465Y30045D01*
X-23465Y30063D01*
X-24168Y30063D01*
X-24168Y30045D01*
D02*
G37*
G36*
X-24396Y30028D02*
X-24396Y30028D01*
X-24263Y30028D01*
X-24263Y30045D01*
X-24396Y30045D01*
X-24396Y30028D01*
D02*
G37*
G36*
X-24168Y30028D02*
X-24168Y30028D01*
X-23465Y30028D01*
X-23465Y30045D01*
X-24168Y30045D01*
X-24168Y30028D01*
D02*
G37*
G36*
X-24396Y30011D02*
X-24396Y30011D01*
X-24263Y30011D01*
X-24263Y30028D01*
X-24396Y30028D01*
X-24396Y30011D01*
D02*
G37*
G36*
X-24168Y30011D02*
X-24168Y30011D01*
X-23465Y30011D01*
X-23465Y30028D01*
X-24168Y30028D01*
X-24168Y30011D01*
D02*
G37*
G36*
X-24396Y29993D02*
X-24396Y29993D01*
X-24263Y29993D01*
X-24263Y30011D01*
X-24396Y30011D01*
X-24396Y29993D01*
D02*
G37*
G36*
X-24149Y29993D02*
X-24149Y29993D01*
X-23465Y29993D01*
X-23465Y30011D01*
X-24149Y30011D01*
X-24149Y29993D01*
D02*
G37*
G36*
X-24415Y29976D02*
X-24415Y29976D01*
X-24263Y29976D01*
X-24263Y29993D01*
X-24415Y29993D01*
X-24415Y29976D01*
D02*
G37*
G36*
X-24149Y29976D02*
X-24149Y29976D01*
X-23465Y29976D01*
X-23465Y29993D01*
X-24149Y29993D01*
X-24149Y29976D01*
D02*
G37*
G36*
X-24415Y29958D02*
X-24415Y29958D01*
X-24263Y29958D01*
X-24263Y29976D01*
X-24415Y29976D01*
X-24415Y29958D01*
D02*
G37*
G36*
X-24149Y29958D02*
X-24149Y29958D01*
X-23465Y29958D01*
X-23465Y29976D01*
X-24149Y29976D01*
X-24149Y29958D01*
D02*
G37*
G36*
X-24415Y29941D02*
X-24415Y29941D01*
X-24263Y29941D01*
X-24263Y29958D01*
X-24415Y29958D01*
X-24415Y29941D01*
D02*
G37*
G36*
X-24149Y29941D02*
X-24149Y29941D01*
X-23465Y29941D01*
X-23465Y29958D01*
X-24149Y29958D01*
X-24149Y29941D01*
D02*
G37*
G36*
X-24396Y29923D02*
X-24396Y29923D01*
X-24263Y29923D01*
X-24263Y29941D01*
X-24396Y29941D01*
X-24396Y29923D01*
D02*
G37*
G36*
X-24149Y29923D02*
X-24149Y29923D01*
X-23484Y29923D01*
X-23484Y29941D01*
X-24149Y29941D01*
X-24149Y29923D01*
D02*
G37*
G36*
X-24415Y29906D02*
X-24415Y29906D01*
X-24263Y29906D01*
X-24263Y29923D01*
X-24415Y29923D01*
X-24415Y29906D01*
D02*
G37*
G36*
X-24149Y29906D02*
X-24149Y29906D01*
X-23484Y29906D01*
X-23484Y29923D01*
X-24149Y29923D01*
X-24149Y29906D01*
D02*
G37*
G36*
X-24396Y29889D02*
X-24396Y29889D01*
X-24263Y29889D01*
X-24263Y29906D01*
X-24396Y29906D01*
X-24396Y29889D01*
D02*
G37*
G36*
X-24130Y29889D02*
X-24130Y29889D01*
X-23484Y29889D01*
X-23484Y29906D01*
X-24130Y29906D01*
X-24130Y29889D01*
D02*
G37*
G36*
X-24396Y29871D02*
X-24396Y29871D01*
X-24263Y29871D01*
X-24263Y29889D01*
X-24396Y29889D01*
X-24396Y29871D01*
D02*
G37*
G36*
X-24130Y29871D02*
X-24130Y29871D01*
X-23484Y29871D01*
X-23484Y29889D01*
X-24130Y29889D01*
X-24130Y29871D01*
D02*
G37*
G36*
X-24396Y29854D02*
X-24396Y29854D01*
X-24263Y29854D01*
X-24263Y29871D01*
X-24396Y29871D01*
X-24396Y29854D01*
D02*
G37*
G36*
X-24130Y29854D02*
X-24130Y29854D01*
X-23503Y29854D01*
X-23503Y29871D01*
X-24130Y29871D01*
X-24130Y29854D01*
D02*
G37*
G36*
X-24396Y29836D02*
X-24396Y29836D01*
X-24244Y29836D01*
X-24244Y29854D01*
X-24396Y29854D01*
X-24396Y29836D01*
D02*
G37*
G36*
X-24130Y29836D02*
X-24130Y29836D01*
X-23503Y29836D01*
X-23503Y29854D01*
X-24130Y29854D01*
X-24130Y29836D01*
D02*
G37*
G36*
X-24396Y29819D02*
X-24396Y29819D01*
X-24244Y29819D01*
X-24244Y29836D01*
X-24396Y29836D01*
X-24396Y29819D01*
D02*
G37*
G36*
X-24111Y29819D02*
X-24111Y29819D01*
X-23503Y29819D01*
X-23503Y29836D01*
X-24111Y29836D01*
X-24111Y29819D01*
D02*
G37*
G36*
X-24396Y29802D02*
X-24396Y29802D01*
X-24244Y29802D01*
X-24244Y29819D01*
X-24396Y29819D01*
X-24396Y29802D01*
D02*
G37*
G36*
X-24111Y29802D02*
X-24111Y29802D01*
X-23503Y29802D01*
X-23503Y29819D01*
X-24111Y29819D01*
X-24111Y29802D01*
D02*
G37*
G36*
X-24396Y29784D02*
X-24396Y29784D01*
X-24244Y29784D01*
X-24244Y29802D01*
X-24396Y29802D01*
X-24396Y29784D01*
D02*
G37*
G36*
X-24111Y29784D02*
X-24111Y29784D01*
X-23522Y29784D01*
X-23522Y29802D01*
X-24111Y29802D01*
X-24111Y29784D01*
D02*
G37*
G36*
X-24396Y29767D02*
X-24396Y29767D01*
X-24244Y29767D01*
X-24244Y29784D01*
X-24396Y29784D01*
X-24396Y29767D01*
D02*
G37*
G36*
X-24092Y29767D02*
X-24092Y29767D01*
X-23522Y29767D01*
X-23522Y29784D01*
X-24092Y29784D01*
X-24092Y29767D01*
D02*
G37*
G36*
X-24396Y29749D02*
X-24396Y29749D01*
X-24225Y29749D01*
X-24225Y29767D01*
X-24396Y29767D01*
X-24396Y29749D01*
D02*
G37*
G36*
X-24092Y29749D02*
X-24092Y29749D01*
X-23522Y29749D01*
X-23522Y29767D01*
X-24092Y29767D01*
X-24092Y29749D01*
D02*
G37*
G36*
X-22515Y29749D02*
X-22515Y29749D01*
X-22439Y29749D01*
X-22439Y29767D01*
X-22515Y29767D01*
X-22515Y29749D01*
D02*
G37*
G36*
X-22344Y29749D02*
X-22344Y29749D01*
X-22268Y29749D01*
X-22268Y29767D01*
X-22344Y29767D01*
X-22344Y29749D01*
D02*
G37*
G36*
X-24377Y29732D02*
X-24377Y29732D01*
X-24225Y29732D01*
X-24225Y29749D01*
X-24377Y29749D01*
X-24377Y29732D01*
D02*
G37*
G36*
X-24092Y29732D02*
X-24092Y29732D01*
X-23541Y29732D01*
X-23541Y29749D01*
X-24092Y29749D01*
X-24092Y29732D01*
D02*
G37*
G36*
X-22515Y29732D02*
X-22515Y29732D01*
X-22439Y29732D01*
X-22439Y29749D01*
X-22515Y29749D01*
X-22515Y29732D01*
D02*
G37*
G36*
X-22344Y29732D02*
X-22344Y29732D01*
X-22268Y29732D01*
X-22268Y29749D01*
X-22344Y29749D01*
X-22344Y29732D01*
D02*
G37*
G36*
X-24377Y29714D02*
X-24377Y29714D01*
X-24225Y29714D01*
X-24225Y29732D01*
X-24377Y29732D01*
X-24377Y29714D01*
D02*
G37*
G36*
X-24073Y29714D02*
X-24073Y29714D01*
X-23541Y29714D01*
X-23541Y29732D01*
X-24073Y29732D01*
X-24073Y29714D01*
D02*
G37*
G36*
X-22952Y29714D02*
X-22952Y29714D01*
X-22819Y29714D01*
X-22819Y29732D01*
X-22952Y29732D01*
X-22952Y29714D01*
D02*
G37*
G36*
X-22515Y29714D02*
X-22515Y29714D01*
X-22439Y29714D01*
X-22439Y29732D01*
X-22515Y29732D01*
X-22515Y29714D01*
D02*
G37*
G36*
X-22344Y29714D02*
X-22344Y29714D01*
X-22268Y29714D01*
X-22268Y29732D01*
X-22344Y29732D01*
X-22344Y29714D01*
D02*
G37*
G36*
X-21603Y29714D02*
X-21603Y29714D01*
X-21470Y29714D01*
X-21470Y29732D01*
X-21603Y29732D01*
X-21603Y29714D01*
D02*
G37*
G36*
X-24377Y29697D02*
X-24377Y29697D01*
X-24206Y29697D01*
X-24206Y29714D01*
X-24377Y29714D01*
X-24377Y29697D01*
D02*
G37*
G36*
X-24073Y29697D02*
X-24073Y29697D01*
X-23541Y29697D01*
X-23541Y29714D01*
X-24073Y29714D01*
X-24073Y29697D01*
D02*
G37*
G36*
X-22990Y29697D02*
X-22990Y29697D01*
X-22781Y29697D01*
X-22781Y29714D01*
X-22990Y29714D01*
X-22990Y29697D01*
D02*
G37*
G36*
X-22515Y29697D02*
X-22515Y29697D01*
X-22439Y29697D01*
X-22439Y29714D01*
X-22515Y29714D01*
X-22515Y29697D01*
D02*
G37*
G36*
X-22344Y29697D02*
X-22344Y29697D01*
X-22268Y29697D01*
X-22268Y29714D01*
X-22344Y29714D01*
X-22344Y29697D01*
D02*
G37*
G36*
X-21641Y29697D02*
X-21641Y29697D01*
X-21451Y29697D01*
X-21451Y29714D01*
X-21641Y29714D01*
X-21641Y29697D01*
D02*
G37*
G36*
X-24377Y29680D02*
X-24377Y29680D01*
X-24206Y29680D01*
X-24206Y29697D01*
X-24377Y29697D01*
X-24377Y29680D01*
D02*
G37*
G36*
X-24054Y29680D02*
X-24054Y29680D01*
X-23560Y29680D01*
X-23560Y29697D01*
X-24054Y29697D01*
X-24054Y29680D01*
D02*
G37*
G36*
X-23009Y29680D02*
X-23009Y29680D01*
X-22781Y29680D01*
X-22781Y29697D01*
X-23009Y29697D01*
X-23009Y29680D01*
D02*
G37*
G36*
X-22686Y29680D02*
X-22686Y29680D01*
X-22610Y29680D01*
X-22610Y29697D01*
X-22686Y29697D01*
X-22686Y29680D01*
D02*
G37*
G36*
X-22515Y29680D02*
X-22515Y29680D01*
X-22439Y29680D01*
X-22439Y29697D01*
X-22515Y29697D01*
X-22515Y29680D01*
D02*
G37*
G36*
X-22344Y29680D02*
X-22344Y29680D01*
X-22268Y29680D01*
X-22268Y29697D01*
X-22344Y29697D01*
X-22344Y29680D01*
D02*
G37*
G36*
X-21660Y29680D02*
X-21660Y29680D01*
X-21451Y29680D01*
X-21451Y29697D01*
X-21660Y29697D01*
X-21660Y29680D01*
D02*
G37*
G36*
X-24358Y29662D02*
X-24358Y29662D01*
X-24187Y29662D01*
X-24187Y29680D01*
X-24358Y29680D01*
X-24358Y29662D01*
D02*
G37*
G36*
X-24054Y29662D02*
X-24054Y29662D01*
X-23560Y29662D01*
X-23560Y29680D01*
X-24054Y29680D01*
X-24054Y29662D01*
D02*
G37*
G36*
X-23009Y29662D02*
X-23009Y29662D01*
X-22781Y29662D01*
X-22781Y29680D01*
X-23009Y29680D01*
X-23009Y29662D01*
D02*
G37*
G36*
X-22705Y29662D02*
X-22705Y29662D01*
X-22610Y29662D01*
X-22610Y29680D01*
X-22705Y29680D01*
X-22705Y29662D01*
D02*
G37*
G36*
X-22515Y29662D02*
X-22515Y29662D01*
X-22439Y29662D01*
X-22439Y29680D01*
X-22515Y29680D01*
X-22515Y29662D01*
D02*
G37*
G36*
X-22344Y29662D02*
X-22344Y29662D01*
X-22268Y29662D01*
X-22268Y29680D01*
X-22344Y29680D01*
X-22344Y29662D01*
D02*
G37*
G36*
X-21679Y29662D02*
X-21679Y29662D01*
X-21451Y29662D01*
X-21451Y29680D01*
X-21679Y29680D01*
X-21679Y29662D01*
D02*
G37*
G36*
X-24358Y29645D02*
X-24358Y29645D01*
X-24187Y29645D01*
X-24187Y29662D01*
X-24358Y29662D01*
X-24358Y29645D01*
D02*
G37*
G36*
X-24111Y29645D02*
X-24111Y29645D01*
X-23484Y29645D01*
X-23484Y29662D01*
X-24111Y29662D01*
X-24111Y29645D01*
D02*
G37*
G36*
X-23028Y29645D02*
X-23028Y29645D01*
X-22914Y29645D01*
X-22914Y29662D01*
X-23028Y29662D01*
X-23028Y29645D01*
D02*
G37*
G36*
X-22819Y29645D02*
X-22819Y29645D01*
X-22781Y29645D01*
X-22781Y29662D01*
X-22819Y29662D01*
X-22819Y29645D01*
D02*
G37*
G36*
X-22705Y29645D02*
X-22705Y29645D01*
X-22610Y29645D01*
X-22610Y29662D01*
X-22705Y29662D01*
X-22705Y29645D01*
D02*
G37*
G36*
X-22515Y29645D02*
X-22515Y29645D01*
X-22439Y29645D01*
X-22439Y29662D01*
X-22515Y29662D01*
X-22515Y29645D01*
D02*
G37*
G36*
X-22344Y29645D02*
X-22344Y29645D01*
X-22268Y29645D01*
X-22268Y29662D01*
X-22344Y29662D01*
X-22344Y29645D01*
D02*
G37*
G36*
X-21679Y29645D02*
X-21679Y29645D01*
X-21565Y29645D01*
X-21565Y29662D01*
X-21679Y29662D01*
X-21679Y29645D01*
D02*
G37*
G36*
X-21470Y29645D02*
X-21470Y29645D01*
X-21451Y29645D01*
X-21451Y29662D01*
X-21470Y29662D01*
X-21470Y29645D01*
D02*
G37*
G36*
X-24358Y29627D02*
X-24358Y29627D01*
X-24168Y29627D01*
X-24168Y29645D01*
X-24358Y29645D01*
X-24358Y29627D01*
D02*
G37*
G36*
X-24111Y29627D02*
X-24111Y29627D01*
X-23446Y29627D01*
X-23446Y29645D01*
X-24111Y29645D01*
X-24111Y29627D01*
D02*
G37*
G36*
X-23047Y29627D02*
X-23047Y29627D01*
X-22952Y29627D01*
X-22952Y29645D01*
X-23047Y29645D01*
X-23047Y29627D01*
D02*
G37*
G36*
X-22705Y29627D02*
X-22705Y29627D01*
X-22610Y29627D01*
X-22610Y29645D01*
X-22705Y29645D01*
X-22705Y29627D01*
D02*
G37*
G36*
X-22515Y29627D02*
X-22515Y29627D01*
X-22439Y29627D01*
X-22439Y29645D01*
X-22515Y29645D01*
X-22515Y29627D01*
D02*
G37*
G36*
X-22344Y29627D02*
X-22344Y29627D01*
X-22268Y29627D01*
X-22268Y29645D01*
X-22344Y29645D01*
X-22344Y29627D01*
D02*
G37*
G36*
X-21698Y29627D02*
X-21698Y29627D01*
X-21603Y29627D01*
X-21603Y29645D01*
X-21698Y29645D01*
X-21698Y29627D01*
D02*
G37*
G36*
X-21052Y29627D02*
X-21052Y29627D01*
X-20976Y29627D01*
X-20976Y29645D01*
X-21052Y29645D01*
X-21052Y29627D01*
D02*
G37*
G36*
X-24358Y29610D02*
X-24358Y29610D01*
X-24168Y29610D01*
X-24168Y29627D01*
X-24358Y29627D01*
X-24358Y29610D01*
D02*
G37*
G36*
X-24111Y29610D02*
X-24111Y29610D01*
X-23427Y29610D01*
X-23427Y29627D01*
X-24111Y29627D01*
X-24111Y29610D01*
D02*
G37*
G36*
X-23047Y29610D02*
X-23047Y29610D01*
X-22952Y29610D01*
X-22952Y29627D01*
X-23047Y29627D01*
X-23047Y29610D01*
D02*
G37*
G36*
X-22686Y29610D02*
X-22686Y29610D01*
X-22610Y29610D01*
X-22610Y29627D01*
X-22686Y29627D01*
X-22686Y29610D01*
D02*
G37*
G36*
X-22515Y29610D02*
X-22515Y29610D01*
X-22439Y29610D01*
X-22439Y29627D01*
X-22515Y29627D01*
X-22515Y29610D01*
D02*
G37*
G36*
X-22344Y29610D02*
X-22344Y29610D01*
X-22268Y29610D01*
X-22268Y29627D01*
X-22344Y29627D01*
X-22344Y29610D01*
D02*
G37*
G36*
X-21698Y29610D02*
X-21698Y29610D01*
X-21603Y29610D01*
X-21603Y29627D01*
X-21698Y29627D01*
X-21698Y29610D01*
D02*
G37*
G36*
X-21052Y29610D02*
X-21052Y29610D01*
X-20976Y29610D01*
X-20976Y29627D01*
X-21052Y29627D01*
X-21052Y29610D01*
D02*
G37*
G36*
X-24339Y29592D02*
X-24339Y29592D01*
X-24149Y29592D01*
X-24149Y29610D01*
X-24339Y29610D01*
X-24339Y29592D01*
D02*
G37*
G36*
X-24111Y29592D02*
X-24111Y29592D01*
X-23408Y29592D01*
X-23408Y29610D01*
X-24111Y29610D01*
X-24111Y29592D01*
D02*
G37*
G36*
X-23047Y29592D02*
X-23047Y29592D01*
X-22952Y29592D01*
X-22952Y29610D01*
X-23047Y29610D01*
X-23047Y29592D01*
D02*
G37*
G36*
X-22515Y29592D02*
X-22515Y29592D01*
X-22439Y29592D01*
X-22439Y29610D01*
X-22515Y29610D01*
X-22515Y29592D01*
D02*
G37*
G36*
X-22344Y29592D02*
X-22344Y29592D01*
X-22268Y29592D01*
X-22268Y29610D01*
X-22344Y29610D01*
X-22344Y29592D01*
D02*
G37*
G36*
X-21717Y29592D02*
X-21717Y29592D01*
X-21622Y29592D01*
X-21622Y29610D01*
X-21717Y29610D01*
X-21717Y29592D01*
D02*
G37*
G36*
X-21052Y29592D02*
X-21052Y29592D01*
X-20976Y29592D01*
X-20976Y29610D01*
X-21052Y29610D01*
X-21052Y29592D01*
D02*
G37*
G36*
X-24339Y29575D02*
X-24339Y29575D01*
X-24130Y29575D01*
X-24130Y29592D01*
X-24339Y29592D01*
X-24339Y29575D01*
D02*
G37*
G36*
X-24092Y29575D02*
X-24092Y29575D01*
X-23389Y29575D01*
X-23389Y29592D01*
X-24092Y29592D01*
X-24092Y29575D01*
D02*
G37*
G36*
X-23047Y29575D02*
X-23047Y29575D01*
X-22952Y29575D01*
X-22952Y29592D01*
X-23047Y29592D01*
X-23047Y29575D01*
D02*
G37*
G36*
X-22515Y29575D02*
X-22515Y29575D01*
X-22439Y29575D01*
X-22439Y29592D01*
X-22515Y29592D01*
X-22515Y29575D01*
D02*
G37*
G36*
X-22344Y29575D02*
X-22344Y29575D01*
X-22268Y29575D01*
X-22268Y29592D01*
X-22344Y29592D01*
X-22344Y29575D01*
D02*
G37*
G36*
X-21717Y29575D02*
X-21717Y29575D01*
X-21622Y29575D01*
X-21622Y29592D01*
X-21717Y29592D01*
X-21717Y29575D01*
D02*
G37*
G36*
X-21052Y29575D02*
X-21052Y29575D01*
X-20976Y29575D01*
X-20976Y29592D01*
X-21052Y29592D01*
X-21052Y29575D01*
D02*
G37*
G36*
X-24320Y29558D02*
X-24320Y29558D01*
X-24130Y29558D01*
X-24130Y29575D01*
X-24320Y29575D01*
X-24320Y29558D01*
D02*
G37*
G36*
X-24092Y29558D02*
X-24092Y29558D01*
X-23370Y29558D01*
X-23370Y29575D01*
X-24092Y29575D01*
X-24092Y29558D01*
D02*
G37*
G36*
X-23047Y29558D02*
X-23047Y29558D01*
X-22952Y29558D01*
X-22952Y29575D01*
X-23047Y29575D01*
X-23047Y29558D01*
D02*
G37*
G36*
X-22515Y29558D02*
X-22515Y29558D01*
X-22439Y29558D01*
X-22439Y29575D01*
X-22515Y29575D01*
X-22515Y29558D01*
D02*
G37*
G36*
X-22344Y29558D02*
X-22344Y29558D01*
X-22268Y29558D01*
X-22268Y29575D01*
X-22344Y29575D01*
X-22344Y29558D01*
D02*
G37*
G36*
X-21717Y29558D02*
X-21717Y29558D01*
X-21641Y29558D01*
X-21641Y29575D01*
X-21717Y29575D01*
X-21717Y29558D01*
D02*
G37*
G36*
X-21052Y29558D02*
X-21052Y29558D01*
X-20976Y29558D01*
X-20976Y29575D01*
X-21052Y29575D01*
X-21052Y29558D01*
D02*
G37*
G36*
X-24320Y29540D02*
X-24320Y29540D01*
X-24111Y29540D01*
X-24111Y29558D01*
X-24320Y29558D01*
X-24320Y29540D01*
D02*
G37*
G36*
X-24073Y29540D02*
X-24073Y29540D01*
X-23370Y29540D01*
X-23370Y29558D01*
X-24073Y29558D01*
X-24073Y29540D01*
D02*
G37*
G36*
X-23047Y29540D02*
X-23047Y29540D01*
X-22952Y29540D01*
X-22952Y29558D01*
X-23047Y29558D01*
X-23047Y29540D01*
D02*
G37*
G36*
X-22515Y29540D02*
X-22515Y29540D01*
X-22439Y29540D01*
X-22439Y29558D01*
X-22515Y29558D01*
X-22515Y29540D01*
D02*
G37*
G36*
X-22344Y29540D02*
X-22344Y29540D01*
X-22268Y29540D01*
X-22268Y29558D01*
X-22344Y29558D01*
X-22344Y29540D01*
D02*
G37*
G36*
X-21717Y29540D02*
X-21717Y29540D01*
X-21641Y29540D01*
X-21641Y29558D01*
X-21717Y29558D01*
X-21717Y29540D01*
D02*
G37*
G36*
X-21052Y29540D02*
X-21052Y29540D01*
X-20976Y29540D01*
X-20976Y29558D01*
X-21052Y29558D01*
X-21052Y29540D01*
D02*
G37*
G36*
X-24320Y29523D02*
X-24320Y29523D01*
X-24092Y29523D01*
X-24092Y29540D01*
X-24320Y29540D01*
X-24320Y29523D01*
D02*
G37*
G36*
X-24054Y29523D02*
X-24054Y29523D01*
X-23370Y29523D01*
X-23370Y29540D01*
X-24054Y29540D01*
X-24054Y29523D01*
D02*
G37*
G36*
X-23028Y29523D02*
X-23028Y29523D01*
X-22933Y29523D01*
X-22933Y29540D01*
X-23028Y29540D01*
X-23028Y29523D01*
D02*
G37*
G36*
X-22686Y29523D02*
X-22686Y29523D01*
X-22610Y29523D01*
X-22610Y29540D01*
X-22686Y29540D01*
X-22686Y29523D01*
D02*
G37*
G36*
X-22515Y29523D02*
X-22515Y29523D01*
X-22439Y29523D01*
X-22439Y29540D01*
X-22515Y29540D01*
X-22515Y29523D01*
D02*
G37*
G36*
X-22344Y29523D02*
X-22344Y29523D01*
X-22268Y29523D01*
X-22268Y29540D01*
X-22344Y29540D01*
X-22344Y29523D01*
D02*
G37*
G36*
X-22211Y29523D02*
X-22211Y29523D01*
X-22135Y29523D01*
X-22135Y29540D01*
X-22211Y29540D01*
X-22211Y29523D01*
D02*
G37*
G36*
X-22021Y29523D02*
X-22021Y29523D01*
X-21945Y29523D01*
X-21945Y29540D01*
X-22021Y29540D01*
X-22021Y29523D01*
D02*
G37*
G36*
X-21717Y29523D02*
X-21717Y29523D01*
X-21641Y29523D01*
X-21641Y29540D01*
X-21717Y29540D01*
X-21717Y29523D01*
D02*
G37*
G36*
X-21356Y29523D02*
X-21356Y29523D01*
X-21242Y29523D01*
X-21242Y29540D01*
X-21356Y29540D01*
X-21356Y29523D01*
D02*
G37*
G36*
X-21223Y29523D02*
X-21223Y29523D01*
X-21147Y29523D01*
X-21147Y29540D01*
X-21223Y29540D01*
X-21223Y29523D01*
D02*
G37*
G36*
X-21090Y29523D02*
X-21090Y29523D01*
X-20919Y29523D01*
X-20919Y29540D01*
X-21090Y29540D01*
X-21090Y29523D01*
D02*
G37*
G36*
X-24301Y29505D02*
X-24301Y29505D01*
X-24073Y29505D01*
X-24073Y29523D01*
X-24301Y29523D01*
X-24301Y29505D01*
D02*
G37*
G36*
X-24054Y29505D02*
X-24054Y29505D01*
X-23370Y29505D01*
X-23370Y29523D01*
X-24054Y29523D01*
X-24054Y29505D01*
D02*
G37*
G36*
X-23028Y29505D02*
X-23028Y29505D01*
X-22933Y29505D01*
X-22933Y29523D01*
X-23028Y29523D01*
X-23028Y29505D01*
D02*
G37*
G36*
X-22686Y29505D02*
X-22686Y29505D01*
X-22610Y29505D01*
X-22610Y29523D01*
X-22686Y29523D01*
X-22686Y29505D01*
D02*
G37*
G36*
X-22515Y29505D02*
X-22515Y29505D01*
X-22439Y29505D01*
X-22439Y29523D01*
X-22515Y29523D01*
X-22515Y29505D01*
D02*
G37*
G36*
X-22344Y29505D02*
X-22344Y29505D01*
X-22268Y29505D01*
X-22268Y29523D01*
X-22344Y29523D01*
X-22344Y29505D01*
D02*
G37*
G36*
X-22192Y29505D02*
X-22192Y29505D01*
X-22116Y29505D01*
X-22116Y29523D01*
X-22192Y29523D01*
X-22192Y29505D01*
D02*
G37*
G36*
X-22021Y29505D02*
X-22021Y29505D01*
X-21945Y29505D01*
X-21945Y29523D01*
X-22021Y29523D01*
X-22021Y29505D01*
D02*
G37*
G36*
X-21717Y29505D02*
X-21717Y29505D01*
X-21641Y29505D01*
X-21641Y29523D01*
X-21717Y29523D01*
X-21717Y29505D01*
D02*
G37*
G36*
X-21375Y29505D02*
X-21375Y29505D01*
X-21147Y29505D01*
X-21147Y29523D01*
X-21375Y29523D01*
X-21375Y29505D01*
D02*
G37*
G36*
X-21090Y29505D02*
X-21090Y29505D01*
X-20919Y29505D01*
X-20919Y29523D01*
X-21090Y29523D01*
X-21090Y29505D01*
D02*
G37*
G36*
X-24282Y29488D02*
X-24282Y29488D01*
X-24054Y29488D01*
X-24054Y29505D01*
X-24282Y29505D01*
X-24282Y29488D01*
D02*
G37*
G36*
X-24035Y29488D02*
X-24035Y29488D01*
X-23370Y29488D01*
X-23370Y29505D01*
X-24035Y29505D01*
X-24035Y29488D01*
D02*
G37*
G36*
X-23009Y29488D02*
X-23009Y29488D01*
X-22914Y29488D01*
X-22914Y29505D01*
X-23009Y29505D01*
X-23009Y29488D01*
D02*
G37*
G36*
X-22686Y29488D02*
X-22686Y29488D01*
X-22610Y29488D01*
X-22610Y29505D01*
X-22686Y29505D01*
X-22686Y29488D01*
D02*
G37*
G36*
X-22515Y29488D02*
X-22515Y29488D01*
X-22439Y29488D01*
X-22439Y29505D01*
X-22515Y29505D01*
X-22515Y29488D01*
D02*
G37*
G36*
X-22344Y29488D02*
X-22344Y29488D01*
X-22268Y29488D01*
X-22268Y29505D01*
X-22344Y29505D01*
X-22344Y29488D01*
D02*
G37*
G36*
X-22192Y29488D02*
X-22192Y29488D01*
X-22116Y29488D01*
X-22116Y29505D01*
X-22192Y29505D01*
X-22192Y29488D01*
D02*
G37*
G36*
X-22021Y29488D02*
X-22021Y29488D01*
X-21945Y29488D01*
X-21945Y29505D01*
X-22021Y29505D01*
X-22021Y29488D01*
D02*
G37*
G36*
X-21736Y29488D02*
X-21736Y29488D01*
X-21641Y29488D01*
X-21641Y29505D01*
X-21736Y29505D01*
X-21736Y29488D01*
D02*
G37*
G36*
X-21375Y29488D02*
X-21375Y29488D01*
X-21147Y29488D01*
X-21147Y29505D01*
X-21375Y29505D01*
X-21375Y29488D01*
D02*
G37*
G36*
X-21090Y29488D02*
X-21090Y29488D01*
X-20919Y29488D01*
X-20919Y29505D01*
X-21090Y29505D01*
X-21090Y29488D01*
D02*
G37*
G36*
X-24282Y29470D02*
X-24282Y29470D01*
X-24035Y29470D01*
X-24035Y29488D01*
X-24282Y29488D01*
X-24282Y29470D01*
D02*
G37*
G36*
X-24016Y29470D02*
X-24016Y29470D01*
X-23370Y29470D01*
X-23370Y29488D01*
X-24016Y29488D01*
X-24016Y29470D01*
D02*
G37*
G36*
X-23009Y29470D02*
X-23009Y29470D01*
X-22876Y29470D01*
X-22876Y29488D01*
X-23009Y29488D01*
X-23009Y29470D01*
D02*
G37*
G36*
X-22686Y29470D02*
X-22686Y29470D01*
X-22610Y29470D01*
X-22610Y29488D01*
X-22686Y29488D01*
X-22686Y29470D01*
D02*
G37*
G36*
X-22515Y29470D02*
X-22515Y29470D01*
X-22439Y29470D01*
X-22439Y29488D01*
X-22515Y29488D01*
X-22515Y29470D01*
D02*
G37*
G36*
X-22344Y29470D02*
X-22344Y29470D01*
X-22268Y29470D01*
X-22268Y29488D01*
X-22344Y29488D01*
X-22344Y29470D01*
D02*
G37*
G36*
X-22192Y29470D02*
X-22192Y29470D01*
X-22116Y29470D01*
X-22116Y29488D01*
X-22192Y29488D01*
X-22192Y29470D01*
D02*
G37*
G36*
X-22021Y29470D02*
X-22021Y29470D01*
X-21964Y29470D01*
X-21964Y29488D01*
X-22021Y29488D01*
X-22021Y29470D01*
D02*
G37*
G36*
X-21736Y29470D02*
X-21736Y29470D01*
X-21641Y29470D01*
X-21641Y29488D01*
X-21736Y29488D01*
X-21736Y29470D01*
D02*
G37*
G36*
X-21394Y29470D02*
X-21394Y29470D01*
X-21280Y29470D01*
X-21280Y29488D01*
X-21394Y29488D01*
X-21394Y29470D01*
D02*
G37*
G36*
X-21261Y29470D02*
X-21261Y29470D01*
X-21147Y29470D01*
X-21147Y29488D01*
X-21261Y29488D01*
X-21261Y29470D01*
D02*
G37*
G36*
X-21052Y29470D02*
X-21052Y29470D01*
X-20976Y29470D01*
X-20976Y29488D01*
X-21052Y29488D01*
X-21052Y29470D01*
D02*
G37*
G36*
X-24263Y29453D02*
X-24263Y29453D01*
X-24016Y29453D01*
X-24016Y29470D01*
X-24263Y29470D01*
X-24263Y29453D01*
D02*
G37*
G36*
X-23997Y29453D02*
X-23997Y29453D01*
X-23370Y29453D01*
X-23370Y29470D01*
X-23997Y29470D01*
X-23997Y29453D01*
D02*
G37*
G36*
X-22990Y29453D02*
X-22990Y29453D01*
X-22857Y29453D01*
X-22857Y29470D01*
X-22990Y29470D01*
X-22990Y29453D01*
D02*
G37*
G36*
X-22686Y29453D02*
X-22686Y29453D01*
X-22610Y29453D01*
X-22610Y29470D01*
X-22686Y29470D01*
X-22686Y29453D01*
D02*
G37*
G36*
X-22515Y29453D02*
X-22515Y29453D01*
X-22439Y29453D01*
X-22439Y29470D01*
X-22515Y29470D01*
X-22515Y29453D01*
D02*
G37*
G36*
X-22344Y29453D02*
X-22344Y29453D01*
X-22268Y29453D01*
X-22268Y29470D01*
X-22344Y29470D01*
X-22344Y29453D01*
D02*
G37*
G36*
X-22192Y29453D02*
X-22192Y29453D01*
X-22116Y29453D01*
X-22116Y29470D01*
X-22192Y29470D01*
X-22192Y29453D01*
D02*
G37*
G36*
X-22040Y29453D02*
X-22040Y29453D01*
X-21964Y29453D01*
X-21964Y29470D01*
X-22040Y29470D01*
X-22040Y29453D01*
D02*
G37*
G36*
X-21736Y29453D02*
X-21736Y29453D01*
X-21641Y29453D01*
X-21641Y29470D01*
X-21736Y29470D01*
X-21736Y29453D01*
D02*
G37*
G36*
X-21394Y29453D02*
X-21394Y29453D01*
X-21318Y29453D01*
X-21318Y29470D01*
X-21394Y29470D01*
X-21394Y29453D01*
D02*
G37*
G36*
X-21223Y29453D02*
X-21223Y29453D01*
X-21147Y29453D01*
X-21147Y29470D01*
X-21223Y29470D01*
X-21223Y29453D01*
D02*
G37*
G36*
X-21052Y29453D02*
X-21052Y29453D01*
X-20976Y29453D01*
X-20976Y29470D01*
X-21052Y29470D01*
X-21052Y29453D01*
D02*
G37*
G36*
X-24263Y29436D02*
X-24263Y29436D01*
X-23389Y29436D01*
X-23389Y29453D01*
X-24263Y29453D01*
X-24263Y29436D01*
D02*
G37*
G36*
X-22971Y29436D02*
X-22971Y29436D01*
X-22838Y29436D01*
X-22838Y29453D01*
X-22971Y29453D01*
X-22971Y29436D01*
D02*
G37*
G36*
X-22686Y29436D02*
X-22686Y29436D01*
X-22610Y29436D01*
X-22610Y29453D01*
X-22686Y29453D01*
X-22686Y29436D01*
D02*
G37*
G36*
X-22515Y29436D02*
X-22515Y29436D01*
X-22439Y29436D01*
X-22439Y29453D01*
X-22515Y29453D01*
X-22515Y29436D01*
D02*
G37*
G36*
X-22344Y29436D02*
X-22344Y29436D01*
X-22268Y29436D01*
X-22268Y29453D01*
X-22344Y29453D01*
X-22344Y29436D01*
D02*
G37*
G36*
X-22173Y29436D02*
X-22173Y29436D01*
X-22116Y29436D01*
X-22116Y29453D01*
X-22173Y29453D01*
X-22173Y29436D01*
D02*
G37*
G36*
X-22040Y29436D02*
X-22040Y29436D01*
X-21964Y29436D01*
X-21964Y29453D01*
X-22040Y29453D01*
X-22040Y29436D01*
D02*
G37*
G36*
X-21736Y29436D02*
X-21736Y29436D01*
X-21641Y29436D01*
X-21641Y29453D01*
X-21736Y29453D01*
X-21736Y29436D01*
D02*
G37*
G36*
X-21394Y29436D02*
X-21394Y29436D01*
X-21318Y29436D01*
X-21318Y29453D01*
X-21394Y29453D01*
X-21394Y29436D01*
D02*
G37*
G36*
X-21223Y29436D02*
X-21223Y29436D01*
X-21147Y29436D01*
X-21147Y29453D01*
X-21223Y29453D01*
X-21223Y29436D01*
D02*
G37*
G36*
X-21052Y29436D02*
X-21052Y29436D01*
X-20976Y29436D01*
X-20976Y29453D01*
X-21052Y29453D01*
X-21052Y29436D01*
D02*
G37*
G36*
X-24244Y29418D02*
X-24244Y29418D01*
X-23389Y29418D01*
X-23389Y29436D01*
X-24244Y29436D01*
X-24244Y29418D01*
D02*
G37*
G36*
X-22952Y29418D02*
X-22952Y29418D01*
X-22819Y29418D01*
X-22819Y29436D01*
X-22952Y29436D01*
X-22952Y29418D01*
D02*
G37*
G36*
X-22686Y29418D02*
X-22686Y29418D01*
X-22610Y29418D01*
X-22610Y29436D01*
X-22686Y29436D01*
X-22686Y29418D01*
D02*
G37*
G36*
X-22515Y29418D02*
X-22515Y29418D01*
X-22439Y29418D01*
X-22439Y29436D01*
X-22515Y29436D01*
X-22515Y29418D01*
D02*
G37*
G36*
X-22344Y29418D02*
X-22344Y29418D01*
X-22268Y29418D01*
X-22268Y29436D01*
X-22344Y29436D01*
X-22344Y29418D01*
D02*
G37*
G36*
X-22173Y29418D02*
X-22173Y29418D01*
X-22097Y29418D01*
X-22097Y29436D01*
X-22173Y29436D01*
X-22173Y29418D01*
D02*
G37*
G36*
X-22040Y29418D02*
X-22040Y29418D01*
X-21964Y29418D01*
X-21964Y29436D01*
X-22040Y29436D01*
X-22040Y29418D01*
D02*
G37*
G36*
X-21736Y29418D02*
X-21736Y29418D01*
X-21641Y29418D01*
X-21641Y29436D01*
X-21736Y29436D01*
X-21736Y29418D01*
D02*
G37*
G36*
X-21394Y29418D02*
X-21394Y29418D01*
X-21318Y29418D01*
X-21318Y29436D01*
X-21394Y29436D01*
X-21394Y29418D01*
D02*
G37*
G36*
X-21223Y29418D02*
X-21223Y29418D01*
X-21147Y29418D01*
X-21147Y29436D01*
X-21223Y29436D01*
X-21223Y29418D01*
D02*
G37*
G36*
X-21052Y29418D02*
X-21052Y29418D01*
X-20976Y29418D01*
X-20976Y29436D01*
X-21052Y29436D01*
X-21052Y29418D01*
D02*
G37*
G36*
X-24225Y29401D02*
X-24225Y29401D01*
X-23408Y29401D01*
X-23408Y29418D01*
X-24225Y29418D01*
X-24225Y29401D01*
D02*
G37*
G36*
X-22914Y29401D02*
X-22914Y29401D01*
X-22800Y29401D01*
X-22800Y29418D01*
X-22914Y29418D01*
X-22914Y29401D01*
D02*
G37*
G36*
X-22686Y29401D02*
X-22686Y29401D01*
X-22610Y29401D01*
X-22610Y29418D01*
X-22686Y29418D01*
X-22686Y29401D01*
D02*
G37*
G36*
X-22515Y29401D02*
X-22515Y29401D01*
X-22439Y29401D01*
X-22439Y29418D01*
X-22515Y29418D01*
X-22515Y29401D01*
D02*
G37*
G36*
X-22344Y29401D02*
X-22344Y29401D01*
X-22268Y29401D01*
X-22268Y29418D01*
X-22344Y29418D01*
X-22344Y29401D01*
D02*
G37*
G36*
X-22173Y29401D02*
X-22173Y29401D01*
X-22097Y29401D01*
X-22097Y29418D01*
X-22173Y29418D01*
X-22173Y29401D01*
D02*
G37*
G36*
X-22040Y29401D02*
X-22040Y29401D01*
X-21983Y29401D01*
X-21983Y29418D01*
X-22040Y29418D01*
X-22040Y29401D01*
D02*
G37*
G36*
X-21736Y29401D02*
X-21736Y29401D01*
X-21641Y29401D01*
X-21641Y29418D01*
X-21736Y29418D01*
X-21736Y29401D01*
D02*
G37*
G36*
X-21394Y29401D02*
X-21394Y29401D01*
X-21318Y29401D01*
X-21318Y29418D01*
X-21394Y29418D01*
X-21394Y29401D01*
D02*
G37*
G36*
X-21223Y29401D02*
X-21223Y29401D01*
X-21147Y29401D01*
X-21147Y29418D01*
X-21223Y29418D01*
X-21223Y29401D01*
D02*
G37*
G36*
X-21052Y29401D02*
X-21052Y29401D01*
X-20976Y29401D01*
X-20976Y29418D01*
X-21052Y29418D01*
X-21052Y29401D01*
D02*
G37*
G36*
X-24225Y29383D02*
X-24225Y29383D01*
X-23427Y29383D01*
X-23427Y29401D01*
X-24225Y29401D01*
X-24225Y29383D01*
D02*
G37*
G36*
X-22895Y29383D02*
X-22895Y29383D01*
X-22781Y29383D01*
X-22781Y29401D01*
X-22895Y29401D01*
X-22895Y29383D01*
D02*
G37*
G36*
X-22686Y29383D02*
X-22686Y29383D01*
X-22610Y29383D01*
X-22610Y29401D01*
X-22686Y29401D01*
X-22686Y29383D01*
D02*
G37*
G36*
X-22515Y29383D02*
X-22515Y29383D01*
X-22439Y29383D01*
X-22439Y29401D01*
X-22515Y29401D01*
X-22515Y29383D01*
D02*
G37*
G36*
X-22344Y29383D02*
X-22344Y29383D01*
X-22268Y29383D01*
X-22268Y29401D01*
X-22344Y29401D01*
X-22344Y29383D01*
D02*
G37*
G36*
X-22173Y29383D02*
X-22173Y29383D01*
X-22097Y29383D01*
X-22097Y29401D01*
X-22173Y29401D01*
X-22173Y29383D01*
D02*
G37*
G36*
X-22059Y29383D02*
X-22059Y29383D01*
X-21983Y29383D01*
X-21983Y29401D01*
X-22059Y29401D01*
X-22059Y29383D01*
D02*
G37*
G36*
X-21736Y29383D02*
X-21736Y29383D01*
X-21641Y29383D01*
X-21641Y29401D01*
X-21736Y29401D01*
X-21736Y29383D01*
D02*
G37*
G36*
X-21413Y29383D02*
X-21413Y29383D01*
X-21318Y29383D01*
X-21318Y29401D01*
X-21413Y29401D01*
X-21413Y29383D01*
D02*
G37*
G36*
X-21223Y29383D02*
X-21223Y29383D01*
X-21147Y29383D01*
X-21147Y29401D01*
X-21223Y29401D01*
X-21223Y29383D01*
D02*
G37*
G36*
X-21052Y29383D02*
X-21052Y29383D01*
X-20976Y29383D01*
X-20976Y29401D01*
X-21052Y29401D01*
X-21052Y29383D01*
D02*
G37*
G36*
X-24206Y29366D02*
X-24206Y29366D01*
X-23427Y29366D01*
X-23427Y29383D01*
X-24206Y29383D01*
X-24206Y29366D01*
D02*
G37*
G36*
X-22876Y29366D02*
X-22876Y29366D01*
X-22781Y29366D01*
X-22781Y29383D01*
X-22876Y29383D01*
X-22876Y29366D01*
D02*
G37*
G36*
X-22686Y29366D02*
X-22686Y29366D01*
X-22610Y29366D01*
X-22610Y29383D01*
X-22686Y29383D01*
X-22686Y29366D01*
D02*
G37*
G36*
X-22515Y29366D02*
X-22515Y29366D01*
X-22439Y29366D01*
X-22439Y29383D01*
X-22515Y29383D01*
X-22515Y29366D01*
D02*
G37*
G36*
X-22344Y29366D02*
X-22344Y29366D01*
X-22268Y29366D01*
X-22268Y29383D01*
X-22344Y29383D01*
X-22344Y29366D01*
D02*
G37*
G36*
X-22173Y29366D02*
X-22173Y29366D01*
X-22097Y29366D01*
X-22097Y29383D01*
X-22173Y29383D01*
X-22173Y29366D01*
D02*
G37*
G36*
X-22059Y29366D02*
X-22059Y29366D01*
X-21983Y29366D01*
X-21983Y29383D01*
X-22059Y29383D01*
X-22059Y29366D01*
D02*
G37*
G36*
X-21736Y29366D02*
X-21736Y29366D01*
X-21641Y29366D01*
X-21641Y29383D01*
X-21736Y29383D01*
X-21736Y29366D01*
D02*
G37*
G36*
X-21413Y29366D02*
X-21413Y29366D01*
X-21337Y29366D01*
X-21337Y29383D01*
X-21413Y29383D01*
X-21413Y29366D01*
D02*
G37*
G36*
X-21223Y29366D02*
X-21223Y29366D01*
X-21147Y29366D01*
X-21147Y29383D01*
X-21223Y29383D01*
X-21223Y29366D01*
D02*
G37*
G36*
X-21052Y29366D02*
X-21052Y29366D01*
X-20976Y29366D01*
X-20976Y29383D01*
X-21052Y29383D01*
X-21052Y29366D01*
D02*
G37*
G36*
X-24187Y29348D02*
X-24187Y29348D01*
X-23446Y29348D01*
X-23446Y29366D01*
X-24187Y29366D01*
X-24187Y29348D01*
D02*
G37*
G36*
X-22876Y29348D02*
X-22876Y29348D01*
X-22762Y29348D01*
X-22762Y29366D01*
X-22876Y29366D01*
X-22876Y29348D01*
D02*
G37*
G36*
X-22686Y29348D02*
X-22686Y29348D01*
X-22610Y29348D01*
X-22610Y29366D01*
X-22686Y29366D01*
X-22686Y29348D01*
D02*
G37*
G36*
X-22515Y29348D02*
X-22515Y29348D01*
X-22439Y29348D01*
X-22439Y29366D01*
X-22515Y29366D01*
X-22515Y29348D01*
D02*
G37*
G36*
X-22344Y29348D02*
X-22344Y29348D01*
X-22268Y29348D01*
X-22268Y29366D01*
X-22344Y29366D01*
X-22344Y29348D01*
D02*
G37*
G36*
X-22154Y29348D02*
X-22154Y29348D01*
X-22097Y29348D01*
X-22097Y29366D01*
X-22154Y29366D01*
X-22154Y29348D01*
D02*
G37*
G36*
X-22059Y29348D02*
X-22059Y29348D01*
X-22002Y29348D01*
X-22002Y29366D01*
X-22059Y29366D01*
X-22059Y29348D01*
D02*
G37*
G36*
X-21736Y29348D02*
X-21736Y29348D01*
X-21641Y29348D01*
X-21641Y29366D01*
X-21736Y29366D01*
X-21736Y29348D01*
D02*
G37*
G36*
X-21413Y29348D02*
X-21413Y29348D01*
X-21337Y29348D01*
X-21337Y29366D01*
X-21413Y29366D01*
X-21413Y29348D01*
D02*
G37*
G36*
X-21223Y29348D02*
X-21223Y29348D01*
X-21147Y29348D01*
X-21147Y29366D01*
X-21223Y29366D01*
X-21223Y29348D01*
D02*
G37*
G36*
X-21052Y29348D02*
X-21052Y29348D01*
X-20976Y29348D01*
X-20976Y29366D01*
X-21052Y29366D01*
X-21052Y29348D01*
D02*
G37*
G36*
X-24168Y29331D02*
X-24168Y29331D01*
X-23465Y29331D01*
X-23465Y29348D01*
X-24168Y29348D01*
X-24168Y29331D01*
D02*
G37*
G36*
X-22857Y29331D02*
X-22857Y29331D01*
X-22762Y29331D01*
X-22762Y29348D01*
X-22857Y29348D01*
X-22857Y29331D01*
D02*
G37*
G36*
X-22686Y29331D02*
X-22686Y29331D01*
X-22610Y29331D01*
X-22610Y29348D01*
X-22686Y29348D01*
X-22686Y29331D01*
D02*
G37*
G36*
X-22515Y29331D02*
X-22515Y29331D01*
X-22439Y29331D01*
X-22439Y29348D01*
X-22515Y29348D01*
X-22515Y29331D01*
D02*
G37*
G36*
X-22344Y29331D02*
X-22344Y29331D01*
X-22268Y29331D01*
X-22268Y29348D01*
X-22344Y29348D01*
X-22344Y29331D01*
D02*
G37*
G36*
X-22154Y29331D02*
X-22154Y29331D01*
X-22078Y29331D01*
X-22078Y29348D01*
X-22154Y29348D01*
X-22154Y29331D01*
D02*
G37*
G36*
X-22059Y29331D02*
X-22059Y29331D01*
X-22002Y29331D01*
X-22002Y29348D01*
X-22059Y29348D01*
X-22059Y29331D01*
D02*
G37*
G36*
X-21717Y29331D02*
X-21717Y29331D01*
X-21641Y29331D01*
X-21641Y29348D01*
X-21717Y29348D01*
X-21717Y29331D01*
D02*
G37*
G36*
X-21413Y29331D02*
X-21413Y29331D01*
X-21318Y29331D01*
X-21318Y29348D01*
X-21413Y29348D01*
X-21413Y29331D01*
D02*
G37*
G36*
X-21223Y29331D02*
X-21223Y29331D01*
X-21147Y29331D01*
X-21147Y29348D01*
X-21223Y29348D01*
X-21223Y29331D01*
D02*
G37*
G36*
X-21052Y29331D02*
X-21052Y29331D01*
X-20976Y29331D01*
X-20976Y29348D01*
X-21052Y29348D01*
X-21052Y29331D01*
D02*
G37*
G36*
X-24149Y29314D02*
X-24149Y29314D01*
X-23484Y29314D01*
X-23484Y29331D01*
X-24149Y29331D01*
X-24149Y29314D01*
D02*
G37*
G36*
X-22857Y29314D02*
X-22857Y29314D01*
X-22762Y29314D01*
X-22762Y29331D01*
X-22857Y29331D01*
X-22857Y29314D01*
D02*
G37*
G36*
X-22686Y29314D02*
X-22686Y29314D01*
X-22610Y29314D01*
X-22610Y29331D01*
X-22686Y29331D01*
X-22686Y29314D01*
D02*
G37*
G36*
X-22515Y29314D02*
X-22515Y29314D01*
X-22439Y29314D01*
X-22439Y29331D01*
X-22515Y29331D01*
X-22515Y29314D01*
D02*
G37*
G36*
X-22344Y29314D02*
X-22344Y29314D01*
X-22268Y29314D01*
X-22268Y29331D01*
X-22344Y29331D01*
X-22344Y29314D01*
D02*
G37*
G36*
X-22154Y29314D02*
X-22154Y29314D01*
X-22002Y29314D01*
X-22002Y29331D01*
X-22154Y29331D01*
X-22154Y29314D01*
D02*
G37*
G36*
X-21717Y29314D02*
X-21717Y29314D01*
X-21641Y29314D01*
X-21641Y29331D01*
X-21717Y29331D01*
X-21717Y29314D01*
D02*
G37*
G36*
X-21413Y29314D02*
X-21413Y29314D01*
X-21337Y29314D01*
X-21337Y29331D01*
X-21413Y29331D01*
X-21413Y29314D01*
D02*
G37*
G36*
X-21223Y29314D02*
X-21223Y29314D01*
X-21147Y29314D01*
X-21147Y29331D01*
X-21223Y29331D01*
X-21223Y29314D01*
D02*
G37*
G36*
X-21052Y29314D02*
X-21052Y29314D01*
X-20976Y29314D01*
X-20976Y29331D01*
X-21052Y29331D01*
X-21052Y29314D01*
D02*
G37*
G36*
X-24130Y29296D02*
X-24130Y29296D01*
X-23503Y29296D01*
X-23503Y29314D01*
X-24130Y29314D01*
X-24130Y29296D01*
D02*
G37*
G36*
X-22838Y29296D02*
X-22838Y29296D01*
X-22762Y29296D01*
X-22762Y29314D01*
X-22838Y29314D01*
X-22838Y29296D01*
D02*
G37*
G36*
X-22686Y29296D02*
X-22686Y29296D01*
X-22610Y29296D01*
X-22610Y29314D01*
X-22686Y29314D01*
X-22686Y29296D01*
D02*
G37*
G36*
X-22515Y29296D02*
X-22515Y29296D01*
X-22439Y29296D01*
X-22439Y29314D01*
X-22515Y29314D01*
X-22515Y29296D01*
D02*
G37*
G36*
X-22344Y29296D02*
X-22344Y29296D01*
X-22268Y29296D01*
X-22268Y29314D01*
X-22344Y29314D01*
X-22344Y29296D01*
D02*
G37*
G36*
X-22154Y29296D02*
X-22154Y29296D01*
X-22002Y29296D01*
X-22002Y29314D01*
X-22154Y29314D01*
X-22154Y29296D01*
D02*
G37*
G36*
X-21717Y29296D02*
X-21717Y29296D01*
X-21622Y29296D01*
X-21622Y29314D01*
X-21717Y29314D01*
X-21717Y29296D01*
D02*
G37*
G36*
X-21394Y29296D02*
X-21394Y29296D01*
X-21318Y29296D01*
X-21318Y29314D01*
X-21394Y29314D01*
X-21394Y29296D01*
D02*
G37*
G36*
X-21223Y29296D02*
X-21223Y29296D01*
X-21147Y29296D01*
X-21147Y29314D01*
X-21223Y29314D01*
X-21223Y29296D01*
D02*
G37*
G36*
X-21052Y29296D02*
X-21052Y29296D01*
X-20976Y29296D01*
X-20976Y29314D01*
X-21052Y29314D01*
X-21052Y29296D01*
D02*
G37*
G36*
X-24111Y29279D02*
X-24111Y29279D01*
X-23522Y29279D01*
X-23522Y29296D01*
X-24111Y29296D01*
X-24111Y29279D01*
D02*
G37*
G36*
X-22838Y29279D02*
X-22838Y29279D01*
X-22762Y29279D01*
X-22762Y29296D01*
X-22838Y29296D01*
X-22838Y29279D01*
D02*
G37*
G36*
X-22686Y29279D02*
X-22686Y29279D01*
X-22610Y29279D01*
X-22610Y29296D01*
X-22686Y29296D01*
X-22686Y29279D01*
D02*
G37*
G36*
X-22515Y29279D02*
X-22515Y29279D01*
X-22439Y29279D01*
X-22439Y29296D01*
X-22515Y29296D01*
X-22515Y29279D01*
D02*
G37*
G36*
X-22344Y29279D02*
X-22344Y29279D01*
X-22268Y29279D01*
X-22268Y29296D01*
X-22344Y29296D01*
X-22344Y29279D01*
D02*
G37*
G36*
X-22135Y29279D02*
X-22135Y29279D01*
X-22021Y29279D01*
X-22021Y29296D01*
X-22135Y29296D01*
X-22135Y29279D01*
D02*
G37*
G36*
X-21717Y29279D02*
X-21717Y29279D01*
X-21622Y29279D01*
X-21622Y29296D01*
X-21717Y29296D01*
X-21717Y29279D01*
D02*
G37*
G36*
X-21394Y29279D02*
X-21394Y29279D01*
X-21318Y29279D01*
X-21318Y29296D01*
X-21394Y29296D01*
X-21394Y29279D01*
D02*
G37*
G36*
X-21223Y29279D02*
X-21223Y29279D01*
X-21147Y29279D01*
X-21147Y29296D01*
X-21223Y29296D01*
X-21223Y29279D01*
D02*
G37*
G36*
X-21052Y29279D02*
X-21052Y29279D01*
X-20976Y29279D01*
X-20976Y29296D01*
X-21052Y29296D01*
X-21052Y29279D01*
D02*
G37*
G36*
X-24092Y29261D02*
X-24092Y29261D01*
X-23522Y29261D01*
X-23522Y29279D01*
X-24092Y29279D01*
X-24092Y29261D01*
D02*
G37*
G36*
X-22857Y29261D02*
X-22857Y29261D01*
X-22762Y29261D01*
X-22762Y29279D01*
X-22857Y29279D01*
X-22857Y29261D01*
D02*
G37*
G36*
X-22686Y29261D02*
X-22686Y29261D01*
X-22610Y29261D01*
X-22610Y29279D01*
X-22686Y29279D01*
X-22686Y29261D01*
D02*
G37*
G36*
X-22515Y29261D02*
X-22515Y29261D01*
X-22439Y29261D01*
X-22439Y29279D01*
X-22515Y29279D01*
X-22515Y29261D01*
D02*
G37*
G36*
X-22344Y29261D02*
X-22344Y29261D01*
X-22268Y29261D01*
X-22268Y29279D01*
X-22344Y29279D01*
X-22344Y29261D01*
D02*
G37*
G36*
X-22135Y29261D02*
X-22135Y29261D01*
X-22021Y29261D01*
X-22021Y29279D01*
X-22135Y29279D01*
X-22135Y29261D01*
D02*
G37*
G36*
X-21698Y29261D02*
X-21698Y29261D01*
X-21603Y29261D01*
X-21603Y29279D01*
X-21698Y29279D01*
X-21698Y29261D01*
D02*
G37*
G36*
X-21394Y29261D02*
X-21394Y29261D01*
X-21318Y29261D01*
X-21318Y29279D01*
X-21394Y29279D01*
X-21394Y29261D01*
D02*
G37*
G36*
X-21223Y29261D02*
X-21223Y29261D01*
X-21147Y29261D01*
X-21147Y29279D01*
X-21223Y29279D01*
X-21223Y29261D01*
D02*
G37*
G36*
X-21052Y29261D02*
X-21052Y29261D01*
X-20976Y29261D01*
X-20976Y29279D01*
X-21052Y29279D01*
X-21052Y29261D01*
D02*
G37*
G36*
X-24073Y29244D02*
X-24073Y29244D01*
X-23541Y29244D01*
X-23541Y29261D01*
X-24073Y29261D01*
X-24073Y29244D01*
D02*
G37*
G36*
X-22857Y29244D02*
X-22857Y29244D01*
X-22762Y29244D01*
X-22762Y29261D01*
X-22857Y29261D01*
X-22857Y29244D01*
D02*
G37*
G36*
X-22686Y29244D02*
X-22686Y29244D01*
X-22610Y29244D01*
X-22610Y29261D01*
X-22686Y29261D01*
X-22686Y29244D01*
D02*
G37*
G36*
X-22515Y29244D02*
X-22515Y29244D01*
X-22439Y29244D01*
X-22439Y29261D01*
X-22515Y29261D01*
X-22515Y29244D01*
D02*
G37*
G36*
X-22344Y29244D02*
X-22344Y29244D01*
X-22268Y29244D01*
X-22268Y29261D01*
X-22344Y29261D01*
X-22344Y29244D01*
D02*
G37*
G36*
X-22135Y29244D02*
X-22135Y29244D01*
X-22021Y29244D01*
X-22021Y29261D01*
X-22135Y29261D01*
X-22135Y29244D01*
D02*
G37*
G36*
X-21698Y29244D02*
X-21698Y29244D01*
X-21603Y29244D01*
X-21603Y29261D01*
X-21698Y29261D01*
X-21698Y29244D01*
D02*
G37*
G36*
X-21394Y29244D02*
X-21394Y29244D01*
X-21318Y29244D01*
X-21318Y29261D01*
X-21394Y29261D01*
X-21394Y29244D01*
D02*
G37*
G36*
X-21223Y29244D02*
X-21223Y29244D01*
X-21147Y29244D01*
X-21147Y29261D01*
X-21223Y29261D01*
X-21223Y29244D01*
D02*
G37*
G36*
X-21052Y29244D02*
X-21052Y29244D01*
X-20976Y29244D01*
X-20976Y29261D01*
X-21052Y29261D01*
X-21052Y29244D01*
D02*
G37*
G36*
X-24054Y29227D02*
X-24054Y29227D01*
X-23579Y29227D01*
X-23579Y29244D01*
X-24054Y29244D01*
X-24054Y29227D01*
D02*
G37*
G36*
X-23028Y29227D02*
X-23028Y29227D01*
X-22971Y29227D01*
X-22971Y29244D01*
X-23028Y29244D01*
X-23028Y29227D01*
D02*
G37*
G36*
X-22876Y29227D02*
X-22876Y29227D01*
X-22781Y29227D01*
X-22781Y29244D01*
X-22876Y29244D01*
X-22876Y29227D01*
D02*
G37*
G36*
X-22686Y29227D02*
X-22686Y29227D01*
X-22610Y29227D01*
X-22610Y29244D01*
X-22686Y29244D01*
X-22686Y29227D01*
D02*
G37*
G36*
X-22515Y29227D02*
X-22515Y29227D01*
X-22439Y29227D01*
X-22439Y29244D01*
X-22515Y29244D01*
X-22515Y29227D01*
D02*
G37*
G36*
X-22344Y29227D02*
X-22344Y29227D01*
X-22268Y29227D01*
X-22268Y29244D01*
X-22344Y29244D01*
X-22344Y29227D01*
D02*
G37*
G36*
X-22135Y29227D02*
X-22135Y29227D01*
X-22040Y29227D01*
X-22040Y29244D01*
X-22135Y29244D01*
X-22135Y29227D01*
D02*
G37*
G36*
X-21698Y29227D02*
X-21698Y29227D01*
X-21565Y29227D01*
X-21565Y29244D01*
X-21698Y29244D01*
X-21698Y29227D01*
D02*
G37*
G36*
X-21489Y29227D02*
X-21489Y29227D01*
X-21451Y29227D01*
X-21451Y29244D01*
X-21489Y29244D01*
X-21489Y29227D01*
D02*
G37*
G36*
X-21394Y29227D02*
X-21394Y29227D01*
X-21299Y29227D01*
X-21299Y29244D01*
X-21394Y29244D01*
X-21394Y29227D01*
D02*
G37*
G36*
X-21242Y29227D02*
X-21242Y29227D01*
X-21147Y29227D01*
X-21147Y29244D01*
X-21242Y29244D01*
X-21242Y29227D01*
D02*
G37*
G36*
X-21052Y29227D02*
X-21052Y29227D01*
X-20976Y29227D01*
X-20976Y29244D01*
X-21052Y29244D01*
X-21052Y29227D01*
D02*
G37*
G36*
X-24035Y29209D02*
X-24035Y29209D01*
X-23598Y29209D01*
X-23598Y29227D01*
X-24035Y29227D01*
X-24035Y29209D01*
D02*
G37*
G36*
X-23028Y29209D02*
X-23028Y29209D01*
X-22781Y29209D01*
X-22781Y29227D01*
X-23028Y29227D01*
X-23028Y29209D01*
D02*
G37*
G36*
X-22686Y29209D02*
X-22686Y29209D01*
X-22610Y29209D01*
X-22610Y29227D01*
X-22686Y29227D01*
X-22686Y29209D01*
D02*
G37*
G36*
X-22515Y29209D02*
X-22515Y29209D01*
X-22439Y29209D01*
X-22439Y29227D01*
X-22515Y29227D01*
X-22515Y29209D01*
D02*
G37*
G36*
X-22344Y29209D02*
X-22344Y29209D01*
X-22268Y29209D01*
X-22268Y29227D01*
X-22344Y29227D01*
X-22344Y29209D01*
D02*
G37*
G36*
X-22135Y29209D02*
X-22135Y29209D01*
X-22040Y29209D01*
X-22040Y29227D01*
X-22135Y29227D01*
X-22135Y29209D01*
D02*
G37*
G36*
X-21679Y29209D02*
X-21679Y29209D01*
X-21451Y29209D01*
X-21451Y29227D01*
X-21679Y29227D01*
X-21679Y29209D01*
D02*
G37*
G36*
X-21394Y29209D02*
X-21394Y29209D01*
X-21147Y29209D01*
X-21147Y29227D01*
X-21394Y29227D01*
X-21394Y29209D01*
D02*
G37*
G36*
X-21052Y29209D02*
X-21052Y29209D01*
X-20976Y29209D01*
X-20976Y29227D01*
X-21052Y29227D01*
X-21052Y29209D01*
D02*
G37*
G36*
X-24016Y29192D02*
X-24016Y29192D01*
X-23617Y29192D01*
X-23617Y29209D01*
X-24016Y29209D01*
X-24016Y29192D01*
D02*
G37*
G36*
X-23028Y29192D02*
X-23028Y29192D01*
X-22800Y29192D01*
X-22800Y29209D01*
X-23028Y29209D01*
X-23028Y29192D01*
D02*
G37*
G36*
X-22686Y29192D02*
X-22686Y29192D01*
X-22610Y29192D01*
X-22610Y29209D01*
X-22686Y29209D01*
X-22686Y29192D01*
D02*
G37*
G36*
X-22515Y29192D02*
X-22515Y29192D01*
X-22439Y29192D01*
X-22439Y29209D01*
X-22515Y29209D01*
X-22515Y29192D01*
D02*
G37*
G36*
X-22344Y29192D02*
X-22344Y29192D01*
X-22268Y29192D01*
X-22268Y29209D01*
X-22344Y29209D01*
X-22344Y29192D01*
D02*
G37*
G36*
X-22116Y29192D02*
X-22116Y29192D01*
X-22040Y29192D01*
X-22040Y29209D01*
X-22116Y29209D01*
X-22116Y29192D01*
D02*
G37*
G36*
X-21660Y29192D02*
X-21660Y29192D01*
X-21451Y29192D01*
X-21451Y29209D01*
X-21660Y29209D01*
X-21660Y29192D01*
D02*
G37*
G36*
X-21375Y29192D02*
X-21375Y29192D01*
X-21147Y29192D01*
X-21147Y29209D01*
X-21375Y29209D01*
X-21375Y29192D01*
D02*
G37*
G36*
X-21052Y29192D02*
X-21052Y29192D01*
X-20976Y29192D01*
X-20976Y29209D01*
X-21052Y29209D01*
X-21052Y29192D01*
D02*
G37*
G36*
X-23997Y29174D02*
X-23997Y29174D01*
X-23617Y29174D01*
X-23617Y29192D01*
X-23997Y29192D01*
X-23997Y29174D01*
D02*
G37*
G36*
X-23028Y29174D02*
X-23028Y29174D01*
X-22819Y29174D01*
X-22819Y29192D01*
X-23028Y29192D01*
X-23028Y29174D01*
D02*
G37*
G36*
X-22686Y29174D02*
X-22686Y29174D01*
X-22610Y29174D01*
X-22610Y29192D01*
X-22686Y29192D01*
X-22686Y29174D01*
D02*
G37*
G36*
X-22515Y29174D02*
X-22515Y29174D01*
X-22439Y29174D01*
X-22439Y29192D01*
X-22515Y29192D01*
X-22515Y29174D01*
D02*
G37*
G36*
X-22344Y29174D02*
X-22344Y29174D01*
X-22268Y29174D01*
X-22268Y29192D01*
X-22344Y29192D01*
X-22344Y29174D01*
D02*
G37*
G36*
X-22116Y29174D02*
X-22116Y29174D01*
X-22040Y29174D01*
X-22040Y29192D01*
X-22116Y29192D01*
X-22116Y29174D01*
D02*
G37*
G36*
X-21641Y29174D02*
X-21641Y29174D01*
X-21451Y29174D01*
X-21451Y29192D01*
X-21641Y29192D01*
X-21641Y29174D01*
D02*
G37*
G36*
X-21375Y29174D02*
X-21375Y29174D01*
X-21147Y29174D01*
X-21147Y29192D01*
X-21375Y29192D01*
X-21375Y29174D01*
D02*
G37*
G36*
X-21052Y29174D02*
X-21052Y29174D01*
X-20976Y29174D01*
X-20976Y29192D01*
X-21052Y29192D01*
X-21052Y29174D01*
D02*
G37*
G36*
X-24073Y29157D02*
X-24073Y29157D01*
X-23541Y29157D01*
X-23541Y29174D01*
X-24073Y29174D01*
X-24073Y29157D01*
D02*
G37*
G36*
X-22990Y29157D02*
X-22990Y29157D01*
X-22857Y29157D01*
X-22857Y29174D01*
X-22990Y29174D01*
X-22990Y29157D01*
D02*
G37*
G36*
X-22686Y29157D02*
X-22686Y29157D01*
X-22610Y29157D01*
X-22610Y29174D01*
X-22686Y29174D01*
X-22686Y29157D01*
D02*
G37*
G36*
X-22515Y29157D02*
X-22515Y29157D01*
X-22439Y29157D01*
X-22439Y29174D01*
X-22515Y29174D01*
X-22515Y29157D01*
D02*
G37*
G36*
X-22344Y29157D02*
X-22344Y29157D01*
X-22268Y29157D01*
X-22268Y29174D01*
X-22344Y29174D01*
X-22344Y29157D01*
D02*
G37*
G36*
X-22135Y29157D02*
X-22135Y29157D01*
X-22059Y29157D01*
X-22059Y29174D01*
X-22135Y29174D01*
X-22135Y29157D01*
D02*
G37*
G36*
X-21622Y29157D02*
X-21622Y29157D01*
X-21470Y29157D01*
X-21470Y29174D01*
X-21622Y29174D01*
X-21622Y29157D01*
D02*
G37*
G36*
X-21337Y29157D02*
X-21337Y29157D01*
X-21242Y29157D01*
X-21242Y29174D01*
X-21337Y29174D01*
X-21337Y29157D01*
D02*
G37*
G36*
X-21204Y29157D02*
X-21204Y29157D01*
X-21147Y29157D01*
X-21147Y29174D01*
X-21204Y29174D01*
X-21204Y29157D01*
D02*
G37*
G36*
X-21052Y29157D02*
X-21052Y29157D01*
X-20976Y29157D01*
X-20976Y29174D01*
X-21052Y29174D01*
X-21052Y29157D01*
D02*
G37*
G36*
X-24092Y29139D02*
X-24092Y29139D01*
X-23541Y29139D01*
X-23541Y29157D01*
X-24092Y29157D01*
X-24092Y29139D01*
D02*
G37*
G36*
X-22135Y29139D02*
X-22135Y29139D01*
X-22059Y29139D01*
X-22059Y29157D01*
X-22135Y29157D01*
X-22135Y29139D01*
D02*
G37*
G36*
X-24035Y29122D02*
X-24035Y29122D01*
X-23579Y29122D01*
X-23579Y29139D01*
X-24035Y29139D01*
X-24035Y29122D01*
D02*
G37*
G36*
X-22135Y29122D02*
X-22135Y29122D01*
X-22059Y29122D01*
X-22059Y29139D01*
X-22135Y29139D01*
X-22135Y29122D01*
D02*
G37*
G36*
X-22154Y29105D02*
X-22154Y29105D01*
X-22078Y29105D01*
X-22078Y29122D01*
X-22154Y29122D01*
X-22154Y29105D01*
D02*
G37*
G36*
X-22154Y29087D02*
X-22154Y29087D01*
X-22078Y29087D01*
X-22078Y29105D01*
X-22154Y29105D01*
X-22154Y29087D01*
D02*
G37*
G36*
X-22154Y29070D02*
X-22154Y29070D01*
X-22078Y29070D01*
X-22078Y29087D01*
X-22154Y29087D01*
X-22154Y29070D01*
D02*
G37*
G36*
X-22173Y29052D02*
X-22173Y29052D01*
X-22097Y29052D01*
X-22097Y29070D01*
X-22173Y29070D01*
X-22173Y29052D01*
D02*
G37*
G36*
X-22173Y29035D02*
X-22173Y29035D01*
X-22097Y29035D01*
X-22097Y29052D01*
X-22173Y29052D01*
X-22173Y29035D01*
D02*
G37*
G36*
X-22173Y29017D02*
X-22173Y29017D01*
X-22097Y29017D01*
X-22097Y29035D01*
X-22173Y29035D01*
X-22173Y29017D01*
D02*
G37*
G36*
X-22173Y29000D02*
X-22173Y29000D01*
X-22116Y29000D01*
X-22116Y29017D01*
X-22173Y29017D01*
X-22173Y29000D01*
D02*
G37*
G54D17*
X-26800Y14850D03*
G54D18*
X-25110Y19151D03*

M02*
