G04 Generated by Ultiboard 13.0 *
%FSLAX24Y24*%
%MOIN*%

%ADD10C,0.0001*%
%ADD11C,0.0100*%
%ADD12C,0.0200*%
%ADD13C,0.0120*%
%ADD14C,0.0140*%
%ADD15C,0.0735*%
%ADD16R,0.0308X0.0617*%
%ADD17C,0.0167*%
%ADD18R,0.0846X0.0374*%
%ADD19R,0.0846X0.1280*%
%ADD20C,0.0394*%
%ADD21C,0.0540*%


G04 ColorRGB 0000FF for the following layer *
%LNCopper Bottom*%
%LPD*%
G54D10*
G36*
X-17483Y7041D02*
X-17483Y7041D01*
X-18012Y7041D01*
X-18100Y7163D01*
X-18188Y7041D01*
X-20672Y7041D01*
G74*
D01*
G03X-20560Y7217I370J359*
G01*
X-20560Y7217D01*
X-20810Y7217D01*
G75*
D01*
G03X-20810Y7583I-234J183*
G01*
X-20810Y7583D01*
X-20560Y7583D01*
G74*
D01*
G03X-20860Y7884I484J182*
G01*
X-20860Y7884D01*
X-20860Y7634D01*
G75*
D01*
G03X-21227Y7634I-184J-234*
G01*
X-21227Y7634D01*
X-21227Y7884D01*
G74*
D01*
G03X-21528Y7583I183J484*
G01*
X-21528Y7583D01*
X-21278Y7583D01*
G75*
D01*
G03X-21278Y7217I234J-183*
G01*
X-21278Y7217D01*
X-21528Y7217D01*
G74*
D01*
G03X-21416Y7041I483J184*
G01*
X-21416Y7041D01*
X-22672Y7041D01*
G74*
D01*
G03X-22560Y7217I370J359*
G01*
X-22560Y7217D01*
X-22810Y7217D01*
G75*
D01*
G03X-22810Y7583I-234J183*
G01*
X-22810Y7583D01*
X-22560Y7583D01*
G74*
D01*
G03X-22860Y7884I484J182*
G01*
X-22860Y7884D01*
X-22860Y7634D01*
G75*
D01*
G03X-23227Y7634I-184J-234*
G01*
X-23227Y7634D01*
X-23227Y7884D01*
G74*
D01*
G03X-23528Y7583I183J484*
G01*
X-23528Y7583D01*
X-23278Y7583D01*
G75*
D01*
G03X-23278Y7217I234J-183*
G01*
X-23278Y7217D01*
X-23528Y7217D01*
G74*
D01*
G03X-23416Y7041I483J184*
G01*
X-23416Y7041D01*
X-25304Y7041D01*
X-24881Y7464D01*
G75*
D01*
G03X-24807Y7642I-177J178*
G01*
X-24807Y7642D01*
X-24807Y7810D01*
X-24635Y7810D01*
G75*
D01*
G03X-24484Y7960I1J150*
G01*
X-24484Y7960D01*
X-24484Y9240D01*
G74*
D01*
G03X-24624Y9390I151J1*
G01*
X-24624Y9390D01*
X-24181Y9833D01*
X-23416Y9833D01*
G75*
D01*
G03X-23238Y9907I0J252*
G01*
X-23238Y9907D01*
X-22922Y10222D01*
G75*
D01*
G03X-22849Y10401I-178J177*
G01*
X-22849Y10401D01*
X-22849Y10849D01*
X-21604Y10849D01*
X-21378Y10623D01*
G74*
D01*
G03X-21353Y10601I178J177*
G01*
X-21353Y10601D01*
X-21917Y10601D01*
G75*
D01*
G03X-21917Y10199I-283J-201*
G01*
X-21917Y10199D01*
X-17800Y10199D01*
G75*
D01*
G03X-17658Y10258I0J201*
G01*
X-17658Y10258D01*
X-16858Y11058D01*
G75*
D01*
G03X-16799Y11200I-141J142*
G01*
X-16799Y11200D01*
X-16799Y20300D01*
G75*
D01*
G03X-16858Y20442I-201J0*
G01*
X-16858Y20442D01*
X-19045Y22629D01*
X-19199Y22783D01*
X-19199Y22824D01*
G75*
D01*
G03X-18616Y23200I292J188*
G01*
X-18616Y23200D01*
X-18246Y23570D01*
G75*
D01*
G03X-17558Y23658I345J32*
G01*
X-17558Y23658D01*
X-16558Y24658D01*
G75*
D01*
G03X-16499Y24800I-141J142*
G01*
X-16499Y24800D01*
X-16499Y26416D01*
G75*
D01*
G03X-16099Y26983I200J283*
G01*
X-16099Y26983D01*
X-16099Y29700D01*
G75*
D01*
G03X-16158Y29842I-201J0*
G01*
X-16158Y29842D01*
X-16558Y30242D01*
G74*
D01*
G03X-16650Y30295I142J141*
G01*
G74*
D01*
G03X-16700Y30301I49J195*
G01*
X-16700Y30301D01*
X-17100Y30301D01*
G75*
D01*
G03X-17131Y30299I-3J-201*
G01*
G74*
D01*
G03X-17242Y30242I32J198*
G01*
X-17242Y30242D01*
X-17642Y29842D01*
G75*
D01*
G03X-17730Y29154I-44J-344*
G01*
X-17730Y29154D01*
X-18342Y28542D01*
G74*
D01*
G03X-18401Y28400I141J142*
G01*
X-18401Y28400D01*
X-18401Y28183D01*
G74*
D01*
G03X-18483Y28101I201J283*
G01*
X-18483Y28101D01*
X-18517Y28101D01*
X-19045Y28629D01*
X-19358Y28942D01*
G74*
D01*
G03X-19487Y29001I142J141*
G01*
G74*
D01*
G03X-19500Y29001I7J201*
G01*
X-19500Y29001D01*
X-21000Y29001D01*
G75*
D01*
G03X-21059Y28992I0J-201*
G01*
G74*
D01*
G03X-21142Y28942I59J191*
G01*
X-21142Y28942D01*
X-21383Y28701D01*
X-21617Y28701D01*
G75*
D01*
G03X-22184Y28301I-280J-205*
G01*
X-22184Y28301D01*
X-26300Y28301D01*
G75*
D01*
G03X-26442Y28242I0J-201*
G01*
X-26442Y28242D01*
X-27242Y27442D01*
G74*
D01*
G03X-27301Y27300I141J142*
G01*
X-27301Y27300D01*
X-27301Y22276D01*
G75*
D01*
G03X-27942Y22042I-301J-171*
G01*
X-27942Y22042D01*
X-28192Y21792D01*
X-28192Y32008D01*
G74*
D01*
G03X-28192Y32016I151J4*
G01*
G74*
D01*
G02X-27957Y32251I243J8*
G01*
G75*
D01*
G03X-27949Y32251I4J150*
G01*
X-27949Y32251D01*
X-16138Y32251D01*
X-16130Y32251D01*
G74*
D01*
G02X-15895Y32016I8J243*
G01*
G74*
D01*
G03X-15895Y32008I150J4*
G01*
X-15895Y32008D01*
X-15895Y7283D01*
G75*
D01*
G03X-15895Y7275I150J-4*
G01*
G74*
D01*
G02X-16130Y7040I243J8*
G01*
X-16138Y7041D01*
X-16138Y7041D01*
X-16717Y7041D01*
G74*
D01*
G03X-16712Y7072I228J53*
G01*
G75*
D01*
G03X-16712Y7728I110J328*
G01*
G74*
D01*
G03X-16946Y7943I233J19*
G01*
X-16946Y7943D01*
X-17254Y7943D01*
G75*
D01*
G03X-17489Y7708I0J-235*
G01*
X-17489Y7708D01*
X-17489Y7092D01*
G75*
D01*
G03X-17483Y7041I235J2*
G01*
D02*
G37*
%LPC*%
G36*
X-22810Y9583D02*
X-22810Y9583D01*
X-22560Y9583D01*
G74*
D01*
G03X-22860Y9884I484J182*
G01*
X-22860Y9884D01*
X-22860Y9634D01*
G75*
D01*
G03X-23227Y9634I-184J-234*
G01*
X-23227Y9634D01*
X-23227Y9884D01*
G74*
D01*
G03X-23528Y9583I183J484*
G01*
X-23528Y9583D01*
X-23278Y9583D01*
G75*
D01*
G03X-23278Y9217I234J-183*
G01*
X-23278Y9217D01*
X-23528Y9217D01*
G74*
D01*
G03X-23227Y8916I484J183*
G01*
X-23227Y8916D01*
X-23227Y9166D01*
G75*
D01*
G03X-22860Y9166I183J234*
G01*
X-22860Y9166D01*
X-22860Y8916D01*
G74*
D01*
G03X-22560Y9217I184J483*
G01*
X-22560Y9217D01*
X-22810Y9217D01*
G75*
D01*
G03X-22810Y9583I-234J183*
G01*
D02*
G37*
G36*
X-22561Y8400D02*
G75*
D01*
G03X-22561Y8400I517J0*
G01*
D02*
G37*
G36*
X-20810Y9583D02*
X-20810Y9583D01*
X-20560Y9583D01*
G74*
D01*
G03X-20860Y9884I484J182*
G01*
X-20860Y9884D01*
X-20860Y9634D01*
G75*
D01*
G03X-21227Y9634I-184J-234*
G01*
X-21227Y9634D01*
X-21227Y9884D01*
G74*
D01*
G03X-21528Y9583I183J484*
G01*
X-21528Y9583D01*
X-21278Y9583D01*
G75*
D01*
G03X-21278Y9217I234J-183*
G01*
X-21278Y9217D01*
X-21528Y9217D01*
G74*
D01*
G03X-21227Y8916I484J183*
G01*
X-21227Y8916D01*
X-21227Y9166D01*
G75*
D01*
G03X-20860Y9166I183J234*
G01*
X-20860Y9166D01*
X-20860Y8916D01*
G74*
D01*
G03X-20560Y9217I184J483*
G01*
X-20560Y9217D01*
X-20810Y9217D01*
G75*
D01*
G03X-20810Y9583I-234J183*
G01*
D02*
G37*
G36*
X-18314Y7935D02*
X-18314Y7935D01*
X-18100Y7637D01*
X-17886Y7935D01*
G74*
D01*
G03X-17946Y7943I61J226*
G01*
X-17946Y7943D01*
X-18254Y7943D01*
G75*
D01*
G03X-18314Y7935I1J-235*
G01*
D02*
G37*
G36*
X-18489Y7706D02*
X-18489Y7706D01*
X-18489Y7094D01*
X-18269Y7400D01*
X-18489Y7706D01*
D02*
G37*
G36*
X-17711Y7094D02*
X-17711Y7094D01*
X-17711Y7706D01*
X-17931Y7400D01*
X-17711Y7094D01*
D02*
G37*
G36*
X-18314Y8265D02*
G75*
D01*
G03X-18254Y8257I61J226*
G01*
X-18254Y8257D01*
X-17946Y8257D01*
G74*
D01*
G03X-17886Y8265I1J235*
G01*
X-17886Y8265D01*
X-18100Y8563D01*
X-18314Y8265D01*
D02*
G37*
G36*
X-18489Y9106D02*
X-18489Y9106D01*
X-18489Y8494D01*
X-18269Y8800D01*
X-18489Y9106D01*
D02*
G37*
G36*
X-17711Y8494D02*
X-17711Y8494D01*
X-17711Y9106D01*
X-17931Y8800D01*
X-17711Y8494D01*
D02*
G37*
G36*
X-16711Y9028D02*
X-16711Y9028D01*
X-16711Y9108D01*
G74*
D01*
G03X-16946Y9343I235J0*
G01*
X-16946Y9343D01*
X-17254Y9343D01*
G75*
D01*
G03X-17489Y9108I0J-235*
G01*
X-17489Y9108D01*
X-17489Y8492D01*
G75*
D01*
G03X-17254Y8257I235J0*
G01*
X-17254Y8257D01*
X-16946Y8257D01*
G74*
D01*
G03X-16739Y8382I1J235*
G01*
G75*
D01*
G03X-16711Y9028I140J318*
G01*
D02*
G37*
G36*
X-18314Y9335D02*
X-18314Y9335D01*
X-18100Y9037D01*
X-17886Y9335D01*
G74*
D01*
G03X-17946Y9343I61J226*
G01*
X-17946Y9343D01*
X-18254Y9343D01*
G75*
D01*
G03X-18314Y9335I1J-235*
G01*
D02*
G37*
%LPD*%
G36*
X-19042Y25442D02*
G75*
D01*
G02X-18758Y25158I341J57*
G01*
X-18758Y25158D01*
X-19045Y24871D01*
X-19199Y24717D01*
X-19199Y23176D01*
G74*
D01*
G02X-19074Y23300I298J176*
G01*
G74*
D01*
G02X-19042Y23342I174J99*
G01*
X-19042Y23342D01*
X-17101Y25283D01*
X-17101Y27317D01*
G75*
D01*
G02X-16751Y27913I202J282*
G01*
X-16751Y27913D01*
X-16751Y28467D01*
X-16842Y28558D01*
G75*
D01*
G02X-16558Y28842I-57J341*
G01*
X-16558Y28842D01*
X-16501Y28785D01*
X-16501Y29617D01*
X-16554Y29670D01*
G75*
D01*
G02X-16958Y29358I-346J30*
G01*
X-16958Y29358D01*
X-17999Y28317D01*
X-17999Y28183D01*
G75*
D01*
G02X-18026Y27600I-201J-283*
G01*
G75*
D01*
G02X-17960Y27050I-173J-300*
G01*
G75*
D01*
G02X-18542Y26858I-241J-249*
G01*
X-18542Y26858D01*
X-18983Y27299D01*
X-19716Y27299D01*
G75*
D01*
G02X-20283Y26899I-283J-200*
G01*
X-20283Y26899D01*
X-21017Y26899D01*
X-21099Y26817D01*
X-21099Y23283D01*
X-19045Y21229D01*
X-17458Y19642D01*
G75*
D01*
G02X-17399Y19500I-141J-142*
G01*
X-17399Y19500D01*
X-17399Y13783D01*
G75*
D01*
G02X-17801Y13783I-201J-283*
G01*
X-17801Y13783D01*
X-17801Y19417D01*
X-19045Y20661D01*
X-21442Y23058D01*
G75*
D01*
G02X-21501Y23200I141J142*
G01*
X-21501Y23200D01*
X-21501Y26900D01*
G74*
D01*
G02X-21442Y27042I201J0*
G01*
X-21442Y27042D01*
X-21242Y27242D01*
G74*
D01*
G02X-21128Y27299I142J141*
G01*
X-21128Y27299D01*
X-25917Y27299D01*
X-26078Y27138D01*
G75*
D01*
G02X-25658Y26742I79J-337*
G01*
X-25658Y26742D01*
X-18258Y19342D01*
G75*
D01*
G02X-18199Y19200I-141J-142*
G01*
X-18199Y19200D01*
X-18199Y13783D01*
G75*
D01*
G02X-18601Y13783I-201J-283*
G01*
X-18601Y13783D01*
X-18601Y19117D01*
X-25942Y26458D01*
G75*
D01*
G02X-26299Y26624I-59J341*
G01*
X-26299Y26624D01*
X-26299Y25776D01*
G75*
D01*
G02X-25658Y25542I301J-171*
G01*
X-25658Y25542D01*
X-19058Y18942D01*
G75*
D01*
G02X-18999Y18800I-141J-142*
G01*
X-18999Y18800D01*
X-18999Y13783D01*
G75*
D01*
G02X-19401Y13783I-201J-283*
G01*
X-19401Y13783D01*
X-19401Y18717D01*
X-25942Y25258D01*
G75*
D01*
G02X-26299Y25424I-59J341*
G01*
X-26299Y25424D01*
X-26299Y24576D01*
G75*
D01*
G02X-25658Y24342I301J-171*
G01*
X-25658Y24342D01*
X-19858Y18542D01*
G75*
D01*
G02X-19799Y18400I-141J-142*
G01*
X-19799Y18400D01*
X-19799Y13783D01*
G75*
D01*
G02X-20201Y13783I-201J-283*
G01*
X-20201Y13783D01*
X-20201Y18317D01*
X-25942Y24058D01*
G75*
D01*
G02X-26299Y24224I-59J341*
G01*
X-26299Y24224D01*
X-26299Y13332D01*
G75*
D01*
G02X-26549Y12687I-99J-333*
G01*
X-26549Y12687D01*
X-26549Y12633D01*
X-26458Y12542D01*
G75*
D01*
G02X-26058Y12140I59J-341*
G01*
X-26058Y12140D01*
X-24611Y13587D01*
X-24611Y17025D01*
G75*
D01*
G02X-24189Y17025I211J274*
G01*
X-24189Y17025D01*
X-24189Y13500D01*
G75*
D01*
G02X-24251Y13351I-211J0*
G01*
X-24251Y13351D01*
X-25889Y11713D01*
X-25889Y10375D01*
G75*
D01*
G02X-25768Y10001I-210J-275*
G01*
X-25768Y10001D01*
X-25383Y10001D01*
X-24519Y10865D01*
X-24519Y10992D01*
X-24392Y10992D01*
X-24201Y11183D01*
X-24201Y11317D01*
G75*
D01*
G02X-23700Y11774I201J283*
G01*
G75*
D01*
G02X-23089Y11447I306J-164*
G01*
G74*
D01*
G02X-22861Y11351I12J347*
G01*
X-22861Y11351D01*
X-21500Y11351D01*
G74*
D01*
G02X-21449Y11346I1J251*
G01*
G74*
D01*
G02X-21322Y11278I50J246*
G01*
X-21322Y11278D01*
X-21226Y11181D01*
G75*
D01*
G02X-21121Y11567I326J119*
G01*
X-21121Y11567D01*
X-21121Y13233D01*
G75*
D01*
G02X-20679Y13233I221J266*
G01*
X-20679Y13233D01*
X-20679Y11567D01*
G75*
D01*
G02X-20658Y11051I-220J-267*
G01*
X-20658Y11051D01*
X-20504Y11051D01*
X-20237Y11319D01*
G74*
D01*
G02X-20075Y11392I177J178*
G01*
G75*
D01*
G02X-20059Y11392I8J-251*
G01*
X-20059Y11392D01*
X-19755Y11392D01*
G75*
D01*
G02X-19755Y10890I337J-251*
G01*
X-19755Y10890D01*
X-19955Y10890D01*
X-20222Y10622D01*
G74*
D01*
G02X-20247Y10601I174J181*
G01*
X-20247Y10601D01*
X-17883Y10601D01*
X-17201Y11283D01*
X-17201Y20217D01*
X-19542Y22558D01*
G75*
D01*
G02X-19601Y22700I141J142*
G01*
X-19601Y22700D01*
X-19601Y24800D01*
G74*
D01*
G02X-19542Y24942I201J0*
G01*
X-19542Y24942D01*
X-19045Y25439D01*
X-19045Y25439D01*
X-19042Y25442D01*
D02*
G37*
%LPC*%
G36*
X-24868Y11141D02*
G75*
D01*
G02X-24868Y11141I200J0*
G01*
D02*
G37*
G36*
X-24519Y11534D02*
G74*
D01*
G02X-24276Y11290I150J392*
G01*
X-24276Y11290D01*
X-24519Y11290D01*
X-24519Y11534D01*
D02*
G37*
G36*
X-24817Y10749D02*
G74*
D01*
G02X-25061Y10992I148J392*
G01*
X-25061Y10992D01*
X-24817Y10992D01*
X-24817Y10749D01*
D02*
G37*
G36*
X-25061Y11290D02*
G74*
D01*
G02X-24817Y11534I393J149*
G01*
X-24817Y11534D01*
X-24817Y11290D01*
X-25061Y11290D01*
D02*
G37*
%LPD*%
G36*
X-27301Y10632D02*
G75*
D01*
G03X-26899Y10472I101J-332*
G01*
X-26899Y10472D01*
X-26899Y12415D01*
G74*
D01*
G03X-26892Y12408I146J139*
G01*
X-26892Y12408D01*
X-26742Y12258D01*
G75*
D01*
G03X-26300Y11868I341J-59*
G01*
G74*
D01*
G03X-26311Y11800I200J67*
G01*
X-26311Y11800D01*
X-26311Y10375D01*
G75*
D01*
G03X-26130Y9754I209J-276*
G01*
X-26130Y9754D01*
X-26183Y9701D01*
X-26768Y9701D01*
G74*
D01*
G03X-26919Y9843I151J9*
G01*
X-26919Y9843D01*
X-27765Y9843D01*
G75*
D01*
G03X-27916Y9693I-1J-150*
G01*
X-27916Y9693D01*
X-27916Y9319D01*
G75*
D01*
G03X-27765Y9168I151J0*
G01*
X-27765Y9168D01*
X-26919Y9168D01*
G74*
D01*
G03X-26769Y9299I0J151*
G01*
X-26769Y9299D01*
X-26199Y9299D01*
X-26349Y9149D01*
G74*
D01*
G03X-26411Y9000I148J149*
G01*
X-26411Y9000D01*
X-26411Y8087D01*
X-26593Y7906D01*
X-26770Y7906D01*
G74*
D01*
G03X-26919Y8032I149J25*
G01*
X-26919Y8032D01*
X-27765Y8032D01*
G75*
D01*
G03X-27849Y8007I-1J-151*
G01*
X-27849Y8007D01*
X-27849Y8288D01*
G75*
D01*
G03X-27765Y8262I84J124*
G01*
X-27765Y8262D01*
X-26919Y8262D01*
G75*
D01*
G03X-26768Y8413I0J151*
G01*
X-26768Y8413D01*
X-26768Y8787D01*
G74*
D01*
G03X-26919Y8938I151J0*
G01*
X-26919Y8938D01*
X-27765Y8938D01*
G75*
D01*
G03X-27901Y8851I1J-151*
G01*
G74*
D01*
G03X-27983Y8837I1J251*
G01*
G74*
D01*
G03X-28078Y8777I83J237*
G01*
X-28078Y8777D01*
X-28192Y8663D01*
X-28192Y13708D01*
X-27942Y13458D01*
G75*
D01*
G03X-27801Y13117I341J-59*
G01*
X-27801Y13117D01*
X-27801Y11683D01*
G75*
D01*
G03X-27301Y11224I201J-283*
G01*
X-27301Y11224D01*
X-27301Y10632D01*
D02*
G37*
G36*
X-27658Y21758D02*
X-27658Y21758D01*
X-27899Y21517D01*
X-27899Y13983D01*
X-27658Y13742D01*
G75*
D01*
G02X-27301Y13576I59J-341*
G01*
X-27301Y13576D01*
X-27301Y21924D01*
G75*
D01*
G02X-27658Y21758I-298J175*
G01*
D02*
G37*
G36*
X-26919Y7357D02*
G74*
D01*
G03X-26770Y7483I1J150*
G01*
X-26770Y7483D01*
X-26506Y7483D01*
G74*
D01*
G03X-26431Y7497I1J211*
G01*
G74*
D01*
G03X-26356Y7545I73J197*
G01*
X-26356Y7545D01*
X-26051Y7851D01*
G75*
D01*
G03X-25989Y8000I-148J149*
G01*
X-25989Y8000D01*
X-25989Y8913D01*
X-25628Y9273D01*
G74*
D01*
G03X-25632Y9240I146J34*
G01*
X-25632Y9240D01*
X-25632Y7960D01*
G75*
D01*
G03X-25481Y7810I151J1*
G01*
X-25481Y7810D01*
X-25309Y7810D01*
X-25309Y7746D01*
X-25704Y7351D01*
X-27696Y7351D01*
X-27701Y7357D01*
X-26919Y7357D01*
D02*
G37*
G36*
X-22860Y7166D02*
X-22860Y7166D01*
X-22860Y7041D01*
X-23227Y7041D01*
X-23227Y7166D01*
G75*
D01*
G03X-22860Y7166I183J234*
G01*
D02*
G37*
G36*
X-20860Y7166D02*
X-20860Y7166D01*
X-20860Y7041D01*
X-21227Y7041D01*
X-21227Y7166D01*
G75*
D01*
G03X-20860Y7166I183J234*
G01*
D02*
G37*
G54D11*
X-22810Y9583D02*
X-22560Y9583D01*
G74*
D01*
G03X-22860Y9884I484J182*
G01*
X-22860Y9634D01*
G75*
D01*
G03X-23227Y9634I-184J-234*
G01*
X-23227Y9884D01*
G74*
D01*
G03X-23528Y9583I183J484*
G01*
X-23278Y9583D01*
G75*
D01*
G03X-23278Y9217I234J-183*
G01*
X-23528Y9217D01*
G74*
D01*
G03X-23227Y8916I484J183*
G01*
X-23227Y9166D01*
G75*
D01*
G03X-22860Y9166I183J234*
G01*
X-22860Y8916D01*
G74*
D01*
G03X-22560Y9217I184J483*
G01*
X-22810Y9217D01*
G75*
D01*
G03X-22810Y9583I-234J183*
G01*
X-22561Y8400D02*
G75*
D01*
G03X-22561Y8400I517J0*
G01*
X-20810Y9583D02*
X-20560Y9583D01*
G74*
D01*
G03X-20860Y9884I484J182*
G01*
X-20860Y9634D01*
G75*
D01*
G03X-21227Y9634I-184J-234*
G01*
X-21227Y9884D01*
G74*
D01*
G03X-21528Y9583I183J484*
G01*
X-21278Y9583D01*
G75*
D01*
G03X-21278Y9217I234J-183*
G01*
X-21528Y9217D01*
G74*
D01*
G03X-21227Y8916I484J183*
G01*
X-21227Y9166D01*
G75*
D01*
G03X-20860Y9166I183J234*
G01*
X-20860Y8916D01*
G74*
D01*
G03X-20560Y9217I184J483*
G01*
X-20810Y9217D01*
G75*
D01*
G03X-20810Y9583I-234J183*
G01*
X-18314Y7935D02*
X-18100Y7637D01*
X-17886Y7935D01*
G74*
D01*
G03X-17946Y7943I61J226*
G01*
X-18254Y7943D01*
G75*
D01*
G03X-18314Y7935I1J-235*
G01*
X-18489Y7706D02*
X-18489Y7094D01*
X-18269Y7400D01*
X-18489Y7706D01*
X-17711Y7094D02*
X-17711Y7706D01*
X-17931Y7400D01*
X-17711Y7094D01*
X-18314Y8265D02*
G75*
D01*
G03X-18254Y8257I61J226*
G01*
X-17946Y8257D01*
G74*
D01*
G03X-17886Y8265I1J235*
G01*
X-18100Y8563D01*
X-18314Y8265D01*
X-18489Y9106D02*
X-18489Y8494D01*
X-18269Y8800D01*
X-18489Y9106D01*
X-17711Y8494D02*
X-17711Y9106D01*
X-17931Y8800D01*
X-17711Y8494D01*
X-16711Y9028D02*
X-16711Y9108D01*
G74*
D01*
G03X-16946Y9343I235J0*
G01*
X-17254Y9343D01*
G75*
D01*
G03X-17489Y9108I0J-235*
G01*
X-17489Y8492D01*
G75*
D01*
G03X-17254Y8257I235J0*
G01*
X-16946Y8257D01*
G74*
D01*
G03X-16739Y8382I1J235*
G01*
G75*
D01*
G03X-16711Y9028I140J318*
G01*
X-18314Y9335D02*
X-18100Y9037D01*
X-17886Y9335D01*
G74*
D01*
G03X-17946Y9343I61J226*
G01*
X-18254Y9343D01*
G75*
D01*
G03X-18314Y9335I1J-235*
G01*
X-17483Y7041D02*
X-18012Y7041D01*
X-18100Y7163D01*
X-18188Y7041D01*
X-20672Y7041D01*
G74*
D01*
G03X-20560Y7217I370J359*
G01*
X-20810Y7217D01*
G75*
D01*
G03X-20810Y7583I-234J183*
G01*
X-20560Y7583D01*
G74*
D01*
G03X-20860Y7884I484J182*
G01*
X-20860Y7634D01*
G75*
D01*
G03X-21227Y7634I-184J-234*
G01*
X-21227Y7884D01*
G74*
D01*
G03X-21528Y7583I183J484*
G01*
X-21278Y7583D01*
G75*
D01*
G03X-21278Y7217I234J-183*
G01*
X-21528Y7217D01*
G74*
D01*
G03X-21416Y7041I483J184*
G01*
X-22672Y7041D01*
G74*
D01*
G03X-22560Y7217I370J359*
G01*
X-22810Y7217D01*
G75*
D01*
G03X-22810Y7583I-234J183*
G01*
X-22560Y7583D01*
G74*
D01*
G03X-22860Y7884I484J182*
G01*
X-22860Y7634D01*
G75*
D01*
G03X-23227Y7634I-184J-234*
G01*
X-23227Y7884D01*
G74*
D01*
G03X-23528Y7583I183J484*
G01*
X-23278Y7583D01*
G75*
D01*
G03X-23278Y7217I234J-183*
G01*
X-23528Y7217D01*
G74*
D01*
G03X-23416Y7041I483J184*
G01*
X-25304Y7041D01*
X-24881Y7464D01*
G75*
D01*
G03X-24807Y7642I-177J178*
G01*
X-24807Y7810D01*
X-24635Y7810D01*
G75*
D01*
G03X-24484Y7960I1J150*
G01*
X-24484Y9240D01*
G74*
D01*
G03X-24624Y9390I151J1*
G01*
X-24181Y9833D01*
X-23416Y9833D01*
G75*
D01*
G03X-23238Y9907I0J252*
G01*
X-22922Y10222D01*
G75*
D01*
G03X-22849Y10401I-178J177*
G01*
X-22849Y10849D01*
X-21604Y10849D01*
X-21378Y10623D01*
G74*
D01*
G03X-21353Y10601I178J177*
G01*
X-21917Y10601D01*
G75*
D01*
G03X-21917Y10199I-283J-201*
G01*
X-17800Y10199D01*
G75*
D01*
G03X-17658Y10258I0J201*
G01*
X-16858Y11058D01*
G75*
D01*
G03X-16799Y11200I-141J142*
G01*
X-16799Y20300D01*
G75*
D01*
G03X-16858Y20442I-201J0*
G01*
X-19045Y22629D01*
X-19199Y22783D01*
X-19199Y22824D01*
G75*
D01*
G03X-18616Y23200I292J188*
G01*
X-18246Y23570D01*
G75*
D01*
G03X-17558Y23658I345J32*
G01*
X-16558Y24658D01*
G75*
D01*
G03X-16499Y24800I-141J142*
G01*
X-16499Y26416D01*
G75*
D01*
G03X-16099Y26983I200J283*
G01*
X-16099Y29700D01*
G75*
D01*
G03X-16158Y29842I-201J0*
G01*
X-16558Y30242D01*
G74*
D01*
G03X-16650Y30295I142J141*
G01*
G74*
D01*
G03X-16700Y30301I49J195*
G01*
X-17100Y30301D01*
G75*
D01*
G03X-17131Y30299I-3J-201*
G01*
G74*
D01*
G03X-17242Y30242I32J198*
G01*
X-17642Y29842D01*
G75*
D01*
G03X-17730Y29154I-44J-344*
G01*
X-18342Y28542D01*
G74*
D01*
G03X-18401Y28400I141J142*
G01*
X-18401Y28183D01*
G74*
D01*
G03X-18483Y28101I201J283*
G01*
X-18517Y28101D01*
X-19045Y28629D01*
X-19358Y28942D01*
G74*
D01*
G03X-19487Y29001I142J141*
G01*
G74*
D01*
G03X-19500Y29001I7J201*
G01*
X-21000Y29001D01*
G75*
D01*
G03X-21059Y28992I0J-201*
G01*
G74*
D01*
G03X-21142Y28942I59J191*
G01*
X-21383Y28701D01*
X-21617Y28701D01*
G75*
D01*
G03X-22184Y28301I-280J-205*
G01*
X-26300Y28301D01*
G75*
D01*
G03X-26442Y28242I0J-201*
G01*
X-27242Y27442D01*
G74*
D01*
G03X-27301Y27300I141J142*
G01*
X-27301Y22276D01*
G75*
D01*
G03X-27942Y22042I-301J-171*
G01*
X-28192Y21792D01*
X-28192Y32008D01*
G74*
D01*
G03X-28192Y32016I151J4*
G01*
G74*
D01*
G02X-27957Y32251I243J8*
G01*
G75*
D01*
G03X-27949Y32251I4J150*
G01*
X-16138Y32251D01*
X-16130Y32251D01*
G74*
D01*
G02X-15895Y32016I8J243*
G01*
G74*
D01*
G03X-15895Y32008I150J4*
G01*
X-15895Y7283D01*
G75*
D01*
G03X-15895Y7275I150J-4*
G01*
G74*
D01*
G02X-16130Y7040I243J8*
G01*
X-16138Y7041D01*
X-16717Y7041D01*
G74*
D01*
G03X-16712Y7072I228J53*
G01*
G75*
D01*
G03X-16712Y7728I110J328*
G01*
G74*
D01*
G03X-16946Y7943I233J19*
G01*
X-17254Y7943D01*
G75*
D01*
G03X-17489Y7708I0J-235*
G01*
X-17489Y7092D01*
G75*
D01*
G03X-17483Y7041I235J2*
G01*
X-22860Y7166D02*
X-22860Y7041D01*
X-23227Y7041D01*
X-23227Y7166D01*
G75*
D01*
G03X-22860Y7166I183J234*
G01*
X-20860Y7166D02*
X-20860Y7041D01*
X-21227Y7041D01*
X-21227Y7166D01*
G75*
D01*
G03X-20860Y7166I183J234*
G01*
X-27301Y10632D02*
G75*
D01*
G03X-26899Y10472I101J-332*
G01*
X-26899Y12415D01*
G74*
D01*
G03X-26892Y12408I146J139*
G01*
X-26742Y12258D01*
G75*
D01*
G03X-26300Y11868I341J-59*
G01*
G74*
D01*
G03X-26311Y11800I200J67*
G01*
X-26311Y10375D01*
G75*
D01*
G03X-26130Y9754I209J-276*
G01*
X-26183Y9701D01*
X-26768Y9701D01*
G74*
D01*
G03X-26919Y9843I151J9*
G01*
X-27765Y9843D01*
G75*
D01*
G03X-27916Y9693I-1J-150*
G01*
X-27916Y9319D01*
G75*
D01*
G03X-27765Y9168I151J0*
G01*
X-26919Y9168D01*
G74*
D01*
G03X-26769Y9299I0J151*
G01*
X-26199Y9299D01*
X-26349Y9149D01*
G74*
D01*
G03X-26411Y9000I148J149*
G01*
X-26411Y8087D01*
X-26593Y7906D01*
X-26770Y7906D01*
G74*
D01*
G03X-26919Y8032I149J25*
G01*
X-27765Y8032D01*
G75*
D01*
G03X-27849Y8007I-1J-151*
G01*
X-27849Y8288D01*
G75*
D01*
G03X-27765Y8262I84J124*
G01*
X-26919Y8262D01*
G75*
D01*
G03X-26768Y8413I0J151*
G01*
X-26768Y8787D01*
G74*
D01*
G03X-26919Y8938I151J0*
G01*
X-27765Y8938D01*
G75*
D01*
G03X-27901Y8851I1J-151*
G01*
G74*
D01*
G03X-27983Y8837I1J251*
G01*
G74*
D01*
G03X-28078Y8777I83J237*
G01*
X-28192Y8663D01*
X-28192Y13708D01*
X-27942Y13458D01*
G75*
D01*
G03X-27801Y13117I341J-59*
G01*
X-27801Y11683D01*
G75*
D01*
G03X-27301Y11224I201J-283*
G01*
X-27301Y10632D01*
X-26919Y7357D02*
G74*
D01*
G03X-26770Y7483I1J150*
G01*
X-26506Y7483D01*
G74*
D01*
G03X-26431Y7497I1J211*
G01*
G74*
D01*
G03X-26356Y7545I73J197*
G01*
X-26051Y7851D01*
G75*
D01*
G03X-25989Y8000I-148J149*
G01*
X-25989Y8913D01*
X-25628Y9273D01*
G74*
D01*
G03X-25632Y9240I146J34*
G01*
X-25632Y7960D01*
G75*
D01*
G03X-25481Y7810I151J1*
G01*
X-25309Y7810D01*
X-25309Y7746D01*
X-25704Y7351D01*
X-27696Y7351D01*
X-27701Y7357D01*
X-26919Y7357D01*
X-24868Y11141D02*
G75*
D01*
G02X-24868Y11141I200J0*
G01*
X-24519Y11534D02*
G74*
D01*
G02X-24276Y11290I150J392*
G01*
X-24519Y11290D01*
X-24519Y11534D01*
X-24817Y10749D02*
G74*
D01*
G02X-25061Y10992I148J392*
G01*
X-24817Y10992D01*
X-24817Y10749D01*
X-25061Y11290D02*
G74*
D01*
G02X-24817Y11534I393J149*
G01*
X-24817Y11290D01*
X-25061Y11290D01*
X-19042Y25442D02*
G75*
D01*
G02X-18758Y25158I341J57*
G01*
X-19045Y24871D01*
X-19199Y24717D01*
X-19199Y23176D01*
G74*
D01*
G02X-19074Y23300I298J176*
G01*
G74*
D01*
G02X-19042Y23342I174J99*
G01*
X-17101Y25283D01*
X-17101Y27317D01*
G75*
D01*
G02X-16751Y27913I202J282*
G01*
X-16751Y28467D01*
X-16842Y28558D01*
G75*
D01*
G02X-16558Y28842I-57J341*
G01*
X-16501Y28785D01*
X-16501Y29617D01*
X-16554Y29670D01*
G75*
D01*
G02X-16958Y29358I-346J30*
G01*
X-17999Y28317D01*
X-17999Y28183D01*
G75*
D01*
G02X-18026Y27600I-201J-283*
G01*
G75*
D01*
G02X-17960Y27050I-173J-300*
G01*
G75*
D01*
G02X-18542Y26858I-241J-249*
G01*
X-18983Y27299D01*
X-19716Y27299D01*
G75*
D01*
G02X-20283Y26899I-283J-200*
G01*
X-21017Y26899D01*
X-21099Y26817D01*
X-21099Y23283D01*
X-19045Y21229D01*
X-17458Y19642D01*
G75*
D01*
G02X-17399Y19500I-141J-142*
G01*
X-17399Y13783D01*
G75*
D01*
G02X-17801Y13783I-201J-283*
G01*
X-17801Y19417D01*
X-19045Y20661D01*
X-21442Y23058D01*
G75*
D01*
G02X-21501Y23200I141J142*
G01*
X-21501Y26900D01*
G74*
D01*
G02X-21442Y27042I201J0*
G01*
X-21242Y27242D01*
G74*
D01*
G02X-21128Y27299I142J141*
G01*
X-25917Y27299D01*
X-26078Y27138D01*
G75*
D01*
G02X-25658Y26742I79J-337*
G01*
X-18258Y19342D01*
G75*
D01*
G02X-18199Y19200I-141J-142*
G01*
X-18199Y13783D01*
G75*
D01*
G02X-18601Y13783I-201J-283*
G01*
X-18601Y19117D01*
X-25942Y26458D01*
G75*
D01*
G02X-26299Y26624I-59J341*
G01*
X-26299Y25776D01*
G75*
D01*
G02X-25658Y25542I301J-171*
G01*
X-19058Y18942D01*
G75*
D01*
G02X-18999Y18800I-141J-142*
G01*
X-18999Y13783D01*
G75*
D01*
G02X-19401Y13783I-201J-283*
G01*
X-19401Y18717D01*
X-25942Y25258D01*
G75*
D01*
G02X-26299Y25424I-59J341*
G01*
X-26299Y24576D01*
G75*
D01*
G02X-25658Y24342I301J-171*
G01*
X-19858Y18542D01*
G75*
D01*
G02X-19799Y18400I-141J-142*
G01*
X-19799Y13783D01*
G75*
D01*
G02X-20201Y13783I-201J-283*
G01*
X-20201Y18317D01*
X-25942Y24058D01*
G75*
D01*
G02X-26299Y24224I-59J341*
G01*
X-26299Y13332D01*
G75*
D01*
G02X-26549Y12687I-99J-333*
G01*
X-26549Y12633D01*
X-26458Y12542D01*
G75*
D01*
G02X-26058Y12140I59J-341*
G01*
X-24611Y13587D01*
X-24611Y17025D01*
G75*
D01*
G02X-24189Y17025I211J274*
G01*
X-24189Y13500D01*
G75*
D01*
G02X-24251Y13351I-211J0*
G01*
X-25889Y11713D01*
X-25889Y10375D01*
G75*
D01*
G02X-25768Y10001I-210J-275*
G01*
X-25383Y10001D01*
X-24519Y10865D01*
X-24519Y10992D01*
X-24392Y10992D01*
X-24201Y11183D01*
X-24201Y11317D01*
G75*
D01*
G02X-23700Y11774I201J283*
G01*
G75*
D01*
G02X-23089Y11447I306J-164*
G01*
G74*
D01*
G02X-22861Y11351I12J347*
G01*
X-21500Y11351D01*
G74*
D01*
G02X-21449Y11346I1J251*
G01*
G74*
D01*
G02X-21322Y11278I50J246*
G01*
X-21226Y11181D01*
G75*
D01*
G02X-21121Y11567I326J119*
G01*
X-21121Y13233D01*
G75*
D01*
G02X-20679Y13233I221J266*
G01*
X-20679Y11567D01*
G75*
D01*
G02X-20658Y11051I-220J-267*
G01*
X-20504Y11051D01*
X-20237Y11319D01*
G74*
D01*
G02X-20075Y11392I177J178*
G01*
G75*
D01*
G02X-20059Y11392I8J-251*
G01*
X-19755Y11392D01*
G75*
D01*
G02X-19755Y10890I337J-251*
G01*
X-19955Y10890D01*
X-20222Y10622D01*
G74*
D01*
G02X-20247Y10601I174J181*
G01*
X-17883Y10601D01*
X-17201Y11283D01*
X-17201Y20217D01*
X-19542Y22558D01*
G75*
D01*
G02X-19601Y22700I141J142*
G01*
X-19601Y24800D01*
G74*
D01*
G02X-19542Y24942I201J0*
G01*
X-19045Y25439D01*
X-19045Y25439D01*
X-19042Y25442D01*
X-27658Y21758D02*
X-27899Y21517D01*
X-27899Y13983D01*
X-27658Y13742D01*
G75*
D01*
G02X-27301Y13576I59J-341*
G01*
X-27301Y21924D01*
G75*
D01*
G02X-27658Y21758I-298J175*
G01*
X-16600Y7400D02*
X-17100Y7400D01*
X-16600Y8700D02*
X-17000Y8700D01*
X-17100Y8800D01*
X-20000Y13500D02*
X-20000Y18400D01*
X-19200Y13500D02*
X-19200Y18800D01*
X-18400Y13500D02*
X-18400Y19200D01*
X-17600Y19500D02*
X-17600Y13500D01*
X-20000Y18400D02*
X-26000Y24400D01*
X-19200Y18800D02*
X-26000Y25600D01*
X-18400Y19200D02*
X-26000Y26800D01*
X-21300Y23200D02*
X-17600Y19500D01*
X-21300Y26900D02*
X-21300Y23200D01*
X-18900Y23200D02*
X-18900Y23000D01*
X-25800Y9800D02*
X-26100Y9500D01*
X-27336Y9500D02*
X-26100Y9500D01*
X-26750Y12550D02*
X-26750Y27150D01*
X-26200Y27700D01*
X-26400Y12200D02*
X-26750Y12550D01*
X-27100Y10400D02*
X-27200Y10300D01*
X-27100Y27300D02*
X-26300Y28100D01*
X-27100Y10400D02*
X-27100Y27300D01*
X-28100Y21600D02*
X-27600Y22100D01*
X-18900Y23200D02*
X-16900Y25200D01*
X-16900Y27600D01*
X-18900Y27500D02*
X-18200Y26800D01*
X-26200Y27700D02*
X-18600Y27700D01*
X-18200Y27300D01*
X-26300Y28100D02*
X-20400Y28100D01*
X-20200Y28300D01*
X-18200Y27900D02*
X-18200Y28400D01*
X-18200Y27900D02*
X-18600Y27900D01*
X-19500Y28800D01*
X-21000Y28800D01*
X-21300Y28500D01*
X-21900Y28500D01*
X-19400Y22700D02*
X-19400Y24800D01*
X-18700Y25500D01*
X-17000Y20300D02*
X-19400Y22700D01*
X-17000Y11200D02*
X-17000Y20300D01*
X-16550Y28550D02*
X-16900Y28900D01*
X-16550Y27050D02*
X-16700Y26900D01*
X-17900Y23600D02*
X-16700Y24800D01*
X-16700Y26900D01*
X-16300Y26700D02*
X-16300Y29700D01*
X-21300Y26900D02*
X-21100Y27100D01*
X-20000Y27100D01*
X-16300Y29700D02*
X-16700Y30100D01*
X-17100Y30100D02*
X-17700Y29500D01*
X-17100Y30100D02*
X-16700Y30100D01*
X-16900Y29700D02*
X-18200Y28400D01*
X-16550Y28550D02*
X-16550Y27050D01*
X-22200Y10400D02*
X-17800Y10400D01*
X-17000Y11200D01*
X-24000Y11100D02*
X-25300Y9800D01*
X-25800Y9800D01*
X-24000Y11600D02*
X-24000Y11100D01*
X-27600Y11400D02*
X-27600Y13400D01*
X-28100Y13900D01*
X-28100Y21600D01*
X-26500Y13100D02*
X-26400Y13000D01*
X-26500Y27000D02*
X-26000Y27500D01*
X-26500Y13100D02*
X-26500Y27000D01*
X-26000Y27500D02*
X-18900Y27500D01*
G54D12*
X-28100Y7400D02*
X-27800Y7100D01*
X-25600Y7100D01*
X-25058Y7642D01*
X-28100Y8400D02*
X-28100Y7400D01*
X-25058Y7642D02*
X-25058Y9311D01*
X-27342Y8600D02*
X-27900Y8600D01*
X-28100Y8400D01*
X-25058Y9311D02*
X-24269Y10100D01*
X-24285Y10085D02*
X-23415Y10085D01*
X-23100Y10400D01*
X-23100Y11100D01*
X-19418Y11141D02*
X-20059Y11141D01*
X-20059Y11141D02*
X-20400Y10800D01*
X-21200Y10800D02*
X-21500Y11100D01*
X-21200Y10800D02*
X-20400Y10800D01*
X-21500Y11100D02*
X-23100Y11100D01*
G54D13*
X-26100Y10100D02*
X-26100Y11800D01*
X-24400Y13500D01*
X-24400Y13500D02*
X-24400Y17300D01*
X-26200Y9000D02*
X-25700Y9500D01*
X-25300Y9500D02*
X-23400Y11400D01*
X-25700Y9500D02*
X-25300Y9500D01*
X-23400Y11400D02*
X-23400Y11600D01*
X-26200Y9000D02*
X-26200Y8000D01*
X-26506Y7694D02*
X-27342Y7694D01*
X-26200Y8000D02*
X-26506Y7694D01*
G54D14*
X-20900Y11300D02*
X-20900Y13500D01*
G54D15*
X-22044Y8400D03*
X-21044Y9400D03*
X-23044Y9400D03*
X-21044Y7400D03*
X-23044Y7400D03*
G54D16*
X-18100Y7400D03*
X-17100Y7400D03*
X-18100Y8800D03*
X-17100Y8800D03*
G54D17*
X-18254Y7092D02*
X-17946Y7092D01*
X-17946Y7708D01*
X-18254Y7708D01*
X-18254Y7092D01*D02*
X-17254Y7092D02*
X-16946Y7092D01*
X-16946Y7708D01*
X-17254Y7708D01*
X-17254Y7092D01*D02*
X-18254Y8492D02*
X-17946Y8492D01*
X-17946Y9108D01*
X-18254Y9108D01*
X-18254Y8492D01*D02*
X-17254Y8492D02*
X-16946Y8492D01*
X-16946Y9108D01*
X-17254Y9108D01*
X-17254Y8492D01*D02*
G54D18*
X-27342Y7694D03*
X-27342Y8600D03*
X-27342Y9506D03*
G54D19*
X-25058Y8600D03*
G54D20*
X-26100Y7600D03*
X-18800Y7400D03*
X-16600Y7400D03*
X-18800Y8800D03*
X-16600Y8700D03*
X-28000Y9100D03*
X-27200Y10300D03*
X-26100Y10100D03*
X-17300Y10000D03*
X-23100Y11100D03*
X-16300Y11000D03*
X-27600Y11400D03*
X-23400Y11600D03*
X-24000Y11600D03*
X-20900Y11300D03*
X-17800Y11300D03*
X-26400Y12200D03*
X-24400Y12800D03*
X-26400Y13000D03*
X-25000Y13500D03*
X-20900Y13500D03*
X-20000Y13500D03*
X-19200Y13500D03*
X-18400Y13500D03*
X-17600Y13500D03*
X-21800Y14100D03*
X-25000Y14800D03*
X-25200Y15700D03*
X-23800Y16300D03*
X-21800Y16200D03*
X-20400Y16200D03*
X-19600Y16200D03*
X-18800Y16200D03*
X-18000Y16200D03*
X-16500Y16200D03*
X-24400Y17300D03*
X-27600Y18000D03*
X-25600Y18500D03*
X-23100Y19300D03*
X-25600Y21000D03*
X-23100Y21000D03*
X-18200Y21000D03*
X-27600Y22100D03*
X-21900Y22100D03*
X-26000Y22900D03*
X-18900Y23000D03*
X-19900Y23800D03*
X-17900Y23600D03*
X-17000Y23400D03*
X-26000Y24400D03*
X-21800Y25000D03*
X-26000Y25600D03*
X-18700Y25500D03*
X-17500Y25600D03*
X-26000Y26800D03*
X-18900Y26900D03*
X-18200Y26800D03*
X-16300Y26700D03*
X-20000Y27100D03*
X-18200Y27300D03*
X-16900Y27600D03*
X-27600Y28100D03*
X-21900Y28500D03*
X-20200Y28300D03*
X-18200Y27900D03*
X-25100Y29000D03*
X-18600Y28700D03*
X-16900Y28900D03*
X-17700Y29500D03*
X-16900Y29700D03*
X-16100Y30100D03*
X-26600Y30700D03*
X-23000Y30300D03*
X-24300Y32000D03*
X-19700Y32000D03*
X-18300Y32100D03*
X-16900Y32100D03*
X-22200Y10400D03*
X-27600Y14700D03*
X-27600Y13400D03*
X-26600Y11700D03*
X-23100Y28800D03*
G54D21*
X-19418Y11141D03*
X-24668Y11141D03*

M02*
