G04 Generated by Ultiboard 13.0 *
%FSLAX24Y24*%
%MOIN*%

%ADD10C,0.0001*%
%ADD11C,0.0120*%
%ADD12C,0.0100*%
%ADD13R,0.0617X0.0308*%
%ADD14C,0.0167*%
%ADD15C,0.0735*%
%ADD16R,0.0308X0.0617*%
%ADD17R,0.1063X0.0453*%
%ADD18R,0.0157X0.0374*%
%ADD19R,0.0225X0.0583*%
%ADD20R,0.0583X0.0225*%
%ADD21R,0.0591X0.0591*%
%ADD22R,0.1378X0.0472*%
%ADD23O,0.0118X0.0571*%
%ADD24O,0.0571X0.0118*%
%ADD25O,0.0700X0.0240*%
%ADD26R,0.0728X0.0472*%
%ADD27C,0.0394*%


G04 ColorRGB 00FF00 for the following layer *
%LNCopper Top*%
%LPD*%
G54D10*
G54D11*
X-27317Y12740D02*
X-27317Y13240D01*
X-27317Y12740D02*
X-27217Y12740D01*
X-27251Y13306D02*
X-27251Y13758D01*
X-27317Y13240D02*
X-27251Y13306D01*
X-27217Y12740D02*
X-26667Y13290D01*
X-27507Y13758D02*
X-27507Y15051D01*
X-26917Y14140D02*
X-27507Y14140D01*
X-26427Y13649D02*
X-26917Y14140D01*
X-26317Y14140D02*
X-26801Y14624D01*
X-26017Y13649D02*
X-26427Y13649D01*
X-27251Y14624D02*
X-27251Y14906D01*
X-27217Y14940D01*
X-27507Y15051D02*
X-27317Y15240D01*
X-27217Y14940D02*
X-26127Y14940D01*
X-26801Y14624D02*
X-26995Y14624D01*
X-26127Y14940D02*
X-26017Y14831D01*
X-27317Y15240D02*
X-27317Y15740D01*
X-21417Y11917D02*
X-21583Y12083D01*
X-24540Y12083D01*
X-24540Y12244D01*
X-27317Y12740D02*
X-27250Y12740D01*
X-27250Y11583D01*
X-27150Y11483D01*
X-27150Y11200D01*
X-24800Y23300D02*
X-25033Y23300D01*
X-25250Y23083D01*
X-25250Y22750D01*
X-26750Y24250D02*
X-26000Y24250D01*
X-26000Y24300D01*
X-21000Y11300D02*
X-21283Y11583D01*
X-21417Y11583D01*
X-21417Y11917D01*
X-21917Y9750D02*
X-21917Y10083D01*
X-22133Y10300D01*
X-22400Y10300D01*
X-26750Y24250D02*
X-26917Y24083D01*
X-26917Y23750D01*
X-27000Y23750D01*
X-27200Y23550D01*
X-23400Y24300D02*
X-23400Y24417D01*
X-22583Y24417D01*
X-27150Y11200D02*
X-27083Y11200D01*
X-27083Y10417D01*
X-26917Y10250D01*
X-25417Y10250D01*
X-25250Y10417D01*
X-25250Y11917D01*
X-24923Y12244D01*
X-24540Y12244D01*
G54D12*
X-24800Y24300D02*
X-25033Y24300D01*
X-25417Y23917D01*
X-25417Y23750D01*
X-25583Y23583D01*
X-25717Y23583D01*
X-26000Y23300D01*
X-23083Y20917D02*
X-23917Y20917D01*
X-20900Y9400D02*
X-21083Y9583D01*
X-21083Y10300D01*
X-21000Y10300D01*
X-23400Y23300D02*
X-23683Y23583D01*
X-23917Y23583D01*
X-24083Y23750D01*
X-24083Y23917D01*
X-24250Y24083D01*
X-24583Y24083D01*
X-24800Y24300D01*
X-17060Y13819D02*
X-17514Y13819D01*
X-17917Y13417D01*
X-17917Y12667D01*
X-17833Y12583D01*
X-17750Y12583D01*
X-17411Y12244D01*
X-17060Y12244D01*
X-21750Y18800D02*
X-21750Y19083D01*
X-21917Y19250D01*
X-22750Y19250D01*
X-22917Y19417D01*
X-22917Y19667D01*
X-23000Y19750D01*
X-24917Y19750D01*
X-24917Y19911D01*
X-25060Y19911D01*
X-19257Y21160D02*
X-19493Y21160D01*
X-19750Y21417D01*
X-20083Y21417D01*
X-20083Y22083D02*
X-19917Y22250D01*
X-19917Y22533D01*
X-19650Y22800D01*
X-25750Y12583D02*
X-26000Y12583D01*
X-26000Y12500D01*
X-26317Y12583D01*
X-26317Y12740D01*
X-17060Y14606D02*
X-16417Y14606D01*
X-16417Y14917D01*
X-16250Y14917D01*
X-16083Y15083D01*
X-16083Y20417D01*
X-16250Y20583D01*
X-16750Y20583D01*
X-16827Y20660D01*
X-17090Y20660D01*
X-20750Y22800D02*
X-20750Y22583D01*
X-20917Y22417D01*
X-20917Y22083D01*
X-23417Y20083D02*
X-24750Y20083D01*
X-24775Y20108D01*
X-25060Y20108D01*
X-23505Y21860D02*
X-23505Y22171D01*
X-23583Y22250D01*
X-23833Y22417D02*
X-23917Y22333D01*
X-23917Y22250D01*
X-23898Y22232D01*
X-23898Y21860D01*
X-23583Y22250D02*
X-23583Y22417D01*
X-23833Y22417D01*
X-20900Y7400D02*
X-21233Y7400D01*
X-21250Y7417D01*
X-22417Y7417D01*
X-22433Y7400D01*
X-22900Y7400D01*
X-22900Y9400D02*
X-22900Y8933D01*
X-22917Y8917D01*
X-22917Y7750D01*
X-22900Y7733D01*
X-22900Y7400D01*
X-21000Y10300D02*
X-21283Y10583D01*
X-21417Y10583D01*
X-21583Y10750D01*
X-21667Y10750D01*
X-21750Y10833D01*
X-21750Y10917D01*
X-22133Y11300D01*
X-22400Y11300D01*
X-17060Y17756D02*
X-17060Y17583D01*
X-19083Y14250D02*
X-18917Y14083D01*
X-17750Y14083D01*
X-17486Y13819D01*
X-17060Y13819D01*
X-17060Y17583D02*
X-19083Y17583D01*
X-19083Y14250D01*
X-17090Y20660D02*
X-17340Y20660D01*
X-17417Y20583D01*
X-18083Y20583D01*
X-18250Y20417D01*
X-18250Y19250D01*
X-18450Y19050D01*
X-18450Y18800D01*
X-17090Y20160D02*
X-17340Y20160D01*
X-17417Y20083D01*
X-17750Y20083D01*
X-17917Y19917D01*
X-17917Y18167D01*
X-18000Y18083D01*
X-20250Y18083D01*
X-20417Y18250D01*
X-20417Y18567D01*
X-20650Y18800D01*
X-26200Y18700D02*
X-26483Y18417D01*
X-26583Y18417D01*
X-26750Y18250D01*
X-26833Y18250D01*
X-26917Y18167D01*
X-26917Y17583D01*
X-26928Y17583D01*
X-27200Y17311D01*
X-22400Y11300D02*
X-22400Y11250D01*
X-23800Y11250D01*
X-23800Y11300D01*
X-24540Y17756D02*
X-24540Y17583D01*
X-26200Y17583D01*
X-26200Y17700D01*
X-23400Y23300D02*
X-23133Y23300D01*
X-22917Y23083D01*
X-22917Y23000D01*
X-22833Y22917D01*
X-22583Y22917D01*
X-22750Y22250D02*
X-22917Y22417D01*
X-23583Y22417D01*
X-18673Y22710D02*
X-18583Y22710D01*
X-18583Y20417D01*
X-18750Y20250D01*
X-18917Y20250D01*
X-19007Y20160D01*
X-19257Y20160D01*
X-19257Y21660D02*
X-19493Y21660D01*
X-19583Y21750D01*
X-21167Y21750D01*
X-21250Y21833D01*
X-21250Y22417D01*
X-21417Y22583D01*
X-24000Y22583D01*
X-24083Y22583D01*
X-24083Y22500D01*
X-24250Y22417D01*
X-25417Y22417D01*
X-25583Y22250D01*
X-25583Y21167D01*
X-25500Y21083D01*
X-25417Y21083D01*
X-25408Y21092D01*
X-25060Y21092D01*
X-17060Y16181D02*
X-17514Y16181D01*
X-17750Y16417D01*
X-18417Y16417D01*
X-17060Y13031D02*
X-16417Y13031D01*
X-16417Y12750D01*
X-16333Y12750D01*
X-16250Y12667D01*
X-16250Y8750D01*
X-16417Y8583D01*
X-21717Y8583D01*
X-21900Y8400D01*
X-24095Y19340D02*
X-24095Y19095D01*
X-24083Y19083D01*
X-25250Y18417D02*
X-25417Y18583D01*
X-25417Y19167D01*
X-25500Y19250D01*
X-25750Y20250D02*
X-25917Y20417D01*
X-27250Y20417D01*
X-27417Y20583D01*
X-27417Y22450D01*
X-27200Y22450D01*
X-24083Y19083D02*
X-24083Y18583D01*
X-24250Y18417D01*
X-25250Y18417D01*
X-25500Y19250D02*
X-25583Y19250D01*
X-25750Y19417D01*
X-25750Y20250D01*
X-23800Y10300D02*
X-24083Y10583D01*
X-24750Y10583D01*
X-25750Y11917D02*
X-25750Y11417D01*
X-26050Y11417D01*
X-26050Y11200D01*
X-26600Y19850D02*
X-26867Y19583D01*
X-26917Y19583D01*
X-26917Y18972D01*
X-27200Y18689D01*
X-19083Y17583D02*
X-21083Y17583D01*
X-21250Y17750D01*
X-21250Y19417D01*
X-21083Y19583D01*
X-20500Y19583D01*
X-20417Y19667D01*
X-20417Y19917D01*
X-20250Y20083D01*
X-19583Y20083D01*
X-19507Y20160D01*
X-19257Y20160D01*
X-17060Y16969D02*
X-17469Y16969D01*
X-17750Y17250D01*
X-18750Y17250D01*
X-23917Y20417D02*
X-24083Y20250D01*
X-24750Y20250D01*
X-24805Y20305D01*
X-25060Y20305D01*
X-26317Y15740D02*
X-26583Y16006D01*
X-26583Y16750D01*
X-26750Y16917D01*
X-26917Y16917D01*
X-26917Y17028D01*
X-27200Y17311D01*
X-17060Y12244D02*
X-17423Y12244D01*
X-17750Y11917D01*
X-17750Y10750D01*
X-17917Y10583D01*
X-20717Y10583D01*
X-21000Y10300D01*
X-19550Y18800D02*
X-19583Y18800D01*
X-19583Y19583D01*
X-24917Y19250D02*
X-24489Y19250D01*
X-24489Y19340D01*
X-17090Y21660D02*
X-17327Y21660D01*
X-17417Y21750D01*
X-17417Y22453D01*
X-17673Y22710D01*
X-25060Y20895D02*
X-25395Y20895D01*
X-25417Y20917D01*
X-26600Y20917D01*
X-26600Y20950D01*
X-17060Y15394D02*
X-16606Y15394D01*
X-16250Y15750D01*
X-16250Y18167D01*
X-16333Y18250D01*
X-17917Y18250D01*
X-21000Y21250D02*
X-21250Y21250D01*
X-21250Y21583D01*
X-22833Y21583D01*
X-23083Y21333D01*
X-23083Y20833D01*
X-23000Y20750D01*
X-22917Y20750D01*
X-22865Y20698D01*
X-22540Y20698D01*
G54D13*
X-23800Y10300D03*
X-23800Y11300D03*
X-21000Y11300D03*
X-21000Y10300D03*
X-22400Y11300D03*
X-22400Y10300D03*
X-23400Y23300D03*
X-23400Y24300D03*
X-24800Y23300D03*
X-24800Y24300D03*
X-26000Y23300D03*
X-26000Y24300D03*
X-26200Y17700D03*
X-26200Y18700D03*
G54D14*
X-24108Y10146D02*
X-23492Y10146D01*
X-23492Y10454D01*
X-24108Y10454D01*
X-24108Y10146D01*D02*
X-24108Y11146D02*
X-23492Y11146D01*
X-23492Y11454D01*
X-24108Y11454D01*
X-24108Y11146D01*D02*
X-21308Y11146D02*
X-20692Y11146D01*
X-20692Y11454D01*
X-21308Y11454D01*
X-21308Y11146D01*D02*
X-21308Y10146D02*
X-20692Y10146D01*
X-20692Y10454D01*
X-21308Y10454D01*
X-21308Y10146D01*D02*
X-22708Y11146D02*
X-22092Y11146D01*
X-22092Y11454D01*
X-22708Y11454D01*
X-22708Y11146D01*D02*
X-22708Y10146D02*
X-22092Y10146D01*
X-22092Y10454D01*
X-22708Y10454D01*
X-22708Y10146D01*D02*
X-23708Y23146D02*
X-23092Y23146D01*
X-23092Y23454D01*
X-23708Y23454D01*
X-23708Y23146D01*D02*
X-23708Y24146D02*
X-23092Y24146D01*
X-23092Y24454D01*
X-23708Y24454D01*
X-23708Y24146D01*D02*
X-25108Y23146D02*
X-24492Y23146D01*
X-24492Y23454D01*
X-25108Y23454D01*
X-25108Y23146D01*D02*
X-25108Y24146D02*
X-24492Y24146D01*
X-24492Y24454D01*
X-25108Y24454D01*
X-25108Y24146D01*D02*
X-27471Y12432D02*
X-27163Y12432D01*
X-27163Y13048D01*
X-27471Y13048D01*
X-27471Y12432D01*D02*
X-26471Y12432D02*
X-26163Y12432D01*
X-26163Y13048D01*
X-26471Y13048D01*
X-26471Y12432D01*D02*
X-27471Y15432D02*
X-27163Y15432D01*
X-27163Y16048D01*
X-27471Y16048D01*
X-27471Y15432D01*D02*
X-26471Y15432D02*
X-26163Y15432D01*
X-26163Y16048D01*
X-26471Y16048D01*
X-26471Y15432D01*D02*
X-26308Y23146D02*
X-25692Y23146D01*
X-25692Y23454D01*
X-26308Y23454D01*
X-26308Y23146D01*D02*
X-26308Y24146D02*
X-25692Y24146D01*
X-25692Y24454D01*
X-26308Y24454D01*
X-26308Y24146D01*D02*
X-27262Y10909D02*
X-27038Y10909D01*
X-27038Y11491D01*
X-27262Y11491D01*
X-27262Y10909D01*D02*
X-26162Y10909D02*
X-25938Y10909D01*
X-25938Y11491D01*
X-26162Y11491D01*
X-26162Y10909D01*D02*
X-19662Y18509D02*
X-19438Y18509D01*
X-19438Y19091D01*
X-19662Y19091D01*
X-19662Y18509D01*D02*
X-18562Y18509D02*
X-18338Y18509D01*
X-18338Y19091D01*
X-18562Y19091D01*
X-18562Y18509D01*D02*
X-26891Y19738D02*
X-26309Y19738D01*
X-26309Y19962D01*
X-26891Y19962D01*
X-26891Y19738D01*D02*
X-26891Y20838D02*
X-26309Y20838D01*
X-26309Y21062D01*
X-26891Y21062D01*
X-26891Y20838D01*D02*
X-26508Y17546D02*
X-25892Y17546D01*
X-25892Y17854D01*
X-26508Y17854D01*
X-26508Y17546D01*D02*
X-26508Y18546D02*
X-25892Y18546D01*
X-25892Y18854D01*
X-26508Y18854D01*
X-26508Y18546D01*D02*
X-21862Y18509D02*
X-21638Y18509D01*
X-21638Y19091D01*
X-21862Y19091D01*
X-21862Y18509D01*D02*
X-20762Y18509D02*
X-20538Y18509D01*
X-20538Y19091D01*
X-20762Y19091D01*
X-20762Y18509D01*D02*
X-27491Y22338D02*
X-26909Y22338D01*
X-26909Y22562D01*
X-27491Y22562D01*
X-27491Y22338D01*D02*
X-27491Y23438D02*
X-26909Y23438D01*
X-26909Y23662D01*
X-27491Y23662D01*
X-27491Y23438D01*D02*
X-20862Y22509D02*
X-20638Y22509D01*
X-20638Y23091D01*
X-20862Y23091D01*
X-20862Y22509D01*D02*
X-19762Y22509D02*
X-19538Y22509D01*
X-19538Y23091D01*
X-19762Y23091D01*
X-19762Y22509D01*D02*
X-18827Y22402D02*
X-18519Y22402D01*
X-18519Y23018D01*
X-18827Y23018D01*
X-18827Y22402D01*D02*
X-17827Y22402D02*
X-17519Y22402D01*
X-17519Y23018D01*
X-17827Y23018D01*
X-17827Y22402D01*D02*
G54D15*
X-21900Y8400D03*
X-20900Y9400D03*
X-22900Y9400D03*
X-20900Y7400D03*
X-22900Y7400D03*
G54D16*
X-27317Y12740D03*
X-26317Y12740D03*
X-27317Y15740D03*
X-26317Y15740D03*
X-18673Y22710D03*
X-17673Y22710D03*
G54D17*
X-26017Y13649D03*
X-26017Y14831D03*
G54D18*
X-27251Y13758D03*
X-27507Y13758D03*
X-26995Y13758D03*
X-27251Y14624D03*
X-27507Y14624D03*
X-26995Y14624D03*
G54D19*
X-27150Y11200D03*
X-26050Y11200D03*
X-19550Y18800D03*
X-18450Y18800D03*
X-21750Y18800D03*
X-20650Y18800D03*
X-20750Y22800D03*
X-19650Y22800D03*
G54D20*
X-26600Y19850D03*
X-26600Y20950D03*
X-27200Y22450D03*
X-27200Y23550D03*
G54D21*
X-27200Y18689D03*
X-27200Y17311D03*
G54D22*
X-24540Y12244D03*
X-17060Y12244D03*
X-24540Y13031D03*
X-17060Y13031D03*
X-24540Y13819D03*
X-17060Y13819D03*
X-24540Y14606D03*
X-17060Y14606D03*
X-24540Y15394D03*
X-17060Y15394D03*
X-24540Y16181D03*
X-17060Y16181D03*
X-24540Y16969D03*
X-17060Y16969D03*
X-24540Y17756D03*
X-17060Y17756D03*
G54D23*
X-24489Y19340D03*
X-23702Y19340D03*
X-24292Y19340D03*
X-24095Y19340D03*
X-23898Y19340D03*
X-23505Y19340D03*
X-23111Y19340D03*
X-23308Y19340D03*
X-24489Y21860D03*
X-23702Y21860D03*
X-24292Y21860D03*
X-24095Y21860D03*
X-23898Y21860D03*
X-23505Y21860D03*
X-23308Y21860D03*
X-23111Y21860D03*
G54D24*
X-25060Y19911D03*
X-25060Y20305D03*
X-25060Y20502D03*
X-25060Y20108D03*
X-22540Y19911D03*
X-22540Y20305D03*
X-22540Y20502D03*
X-22540Y20108D03*
X-25060Y20698D03*
X-25060Y21289D03*
X-25060Y21092D03*
X-25060Y20895D03*
X-22540Y20698D03*
X-22540Y21289D03*
X-22540Y21092D03*
X-22540Y20895D03*
G54D25*
X-19257Y20160D03*
X-17090Y20160D03*
X-19257Y20660D03*
X-17090Y20660D03*
X-19257Y21160D03*
X-19257Y21660D03*
X-17090Y21160D03*
X-17090Y21660D03*
G54D26*
X-21000Y19950D03*
X-21000Y21250D03*
G54D27*
X-25750Y12583D03*
X-22583Y22917D03*
X-22750Y22250D03*
X-20917Y22083D03*
X-23417Y20083D03*
X-18750Y17250D03*
X-23917Y20417D03*
X-22583Y24417D03*
X-25250Y22750D03*
X-26750Y24250D03*
X-21417Y11917D03*
X-21917Y9750D03*
X-23917Y20917D03*
X-24750Y10583D03*
X-25750Y11917D03*
X-18417Y16417D03*
X-20083Y21417D03*
X-20083Y22083D03*
X-19583Y19583D03*
X-24917Y19250D03*

M02*
