G04 Generated by Ultiboard 13.0 *
%FSLAX24Y24*%
%MOIN*%

%ADD10C,0.0001*%
%ADD11C,0.0080*%
%ADD12C,0.0061*%
%ADD13C,0.0079*%
%ADD14C,0.0098*%
%ADD15C,0.01969*%
%ADD16C,0.03150*%


G04 ColorRGB FFFF00 for the following layer *
%LNSilkscreen Top*%
%LPD*%
G54D10*
G54D11*
X-23711Y12004D02*
X-23622Y12049D01*
X-23533Y12049D01*
X-23444Y12004D01*
X-23444Y11868D01*
X-23533Y11823D01*
X-23622Y11823D01*
X-23711Y11868D01*
X-24111Y11958D02*
X-23844Y11958D01*
X-24067Y11823D01*
X-24067Y12049D01*
X-24022Y12049D02*
X-24111Y12049D01*
X-23300Y11633D02*
X-23300Y9967D01*
X-24300Y9967D02*
X-24300Y11633D01*
X-23300Y9967D02*
X-24300Y9967D01*
X-23800Y10633D02*
X-23800Y10584D01*
X-24300Y11633D02*
X-23300Y11633D01*
X-24050Y10717D02*
X-23550Y10717D01*
X-24050Y10633D02*
X-23550Y10633D01*
X-24050Y10667D02*
X-23550Y10667D01*
X-23550Y10967D02*
X-24050Y10967D01*
X-23550Y10883D02*
X-24050Y10883D01*
X-24050Y10917D02*
X-23550Y10917D01*
X-23800Y10967D02*
X-23800Y11007D01*
X-20089Y10696D02*
X-20178Y10651D01*
X-20267Y10651D01*
X-20356Y10696D01*
X-20356Y10832D01*
X-20267Y10877D01*
X-20178Y10877D01*
X-20089Y10832D01*
X-19911Y10855D02*
X-19867Y10877D01*
X-19778Y10877D01*
X-19689Y10832D01*
X-19689Y10787D01*
X-19733Y10764D01*
X-19689Y10742D01*
X-19689Y10696D01*
X-19778Y10651D01*
X-19867Y10651D01*
X-19911Y10674D01*
X-19867Y10764D02*
X-19733Y10764D01*
X-21500Y9967D02*
X-21500Y11633D01*
X-20500Y11633D02*
X-20500Y9967D01*
X-21500Y11633D02*
X-20500Y11633D01*
X-21000Y10967D02*
X-21000Y11016D01*
X-20500Y9967D02*
X-21500Y9967D01*
X-20750Y10883D02*
X-21250Y10883D01*
X-20750Y10967D02*
X-21250Y10967D01*
X-20750Y10933D02*
X-21250Y10933D01*
X-21250Y10633D02*
X-20750Y10633D01*
X-21250Y10717D02*
X-20750Y10717D01*
X-20750Y10683D02*
X-21250Y10683D01*
X-21000Y10633D02*
X-21000Y10593D01*
X-20789Y10096D02*
X-20878Y10051D01*
X-20967Y10051D01*
X-21056Y10096D01*
X-21056Y10232D01*
X-20967Y10277D01*
X-20878Y10277D01*
X-20789Y10232D01*
X-20478Y10051D02*
X-20567Y10051D01*
X-20656Y10096D01*
X-20656Y10142D01*
X-20611Y10164D01*
X-20656Y10187D01*
X-20656Y10232D01*
X-20567Y10277D01*
X-20478Y10277D01*
X-20389Y10232D01*
X-20389Y10187D01*
X-20433Y10164D01*
X-20389Y10142D01*
X-20389Y10096D01*
X-20478Y10051D01*
X-20611Y10164D02*
X-20433Y10164D01*
X-21900Y11633D02*
X-21900Y9967D01*
X-22900Y9967D02*
X-22900Y11633D01*
X-21900Y9967D02*
X-22900Y9967D01*
X-22400Y10633D02*
X-22400Y10584D01*
X-22900Y11633D02*
X-21900Y11633D01*
X-22650Y10717D02*
X-22150Y10717D01*
X-22650Y10633D02*
X-22150Y10633D01*
X-22650Y10667D02*
X-22150Y10667D01*
X-22150Y10967D02*
X-22650Y10967D01*
X-22150Y10883D02*
X-22650Y10883D01*
X-22650Y10917D02*
X-22150Y10917D01*
X-22400Y10967D02*
X-22400Y11007D01*
X-24096Y23811D02*
X-24051Y23722D01*
X-24051Y23633D01*
X-24096Y23544D01*
X-24232Y23544D01*
X-24277Y23633D01*
X-24277Y23722D01*
X-24232Y23811D01*
X-24277Y24211D02*
X-24277Y23944D01*
X-24187Y23944D01*
X-24187Y24122D01*
X-24142Y24211D01*
X-24096Y24211D01*
X-24051Y24122D01*
X-24051Y23944D01*
X-23900Y22967D02*
X-23900Y24633D01*
X-22900Y24633D02*
X-22900Y22967D01*
X-23900Y24633D02*
X-22900Y24633D01*
X-23400Y23967D02*
X-23400Y24016D01*
X-22900Y22967D02*
X-23900Y22967D01*
X-23150Y23883D02*
X-23650Y23883D01*
X-23150Y23967D02*
X-23650Y23967D01*
X-23150Y23933D02*
X-23650Y23933D01*
X-23650Y23633D02*
X-23150Y23633D01*
X-23650Y23717D02*
X-23150Y23717D01*
X-23150Y23683D02*
X-23650Y23683D01*
X-23400Y23633D02*
X-23400Y23593D01*
X-25604Y24589D02*
X-25649Y24678D01*
X-25649Y24767D01*
X-25604Y24856D01*
X-25468Y24856D01*
X-25423Y24767D01*
X-25423Y24678D01*
X-25468Y24589D01*
X-25468Y24411D02*
X-25423Y24322D01*
X-25649Y24322D01*
X-25649Y24456D02*
X-25649Y24189D01*
X-25468Y24056D02*
X-25423Y23967D01*
X-25423Y23878D01*
X-25468Y23789D01*
X-25604Y23789D01*
X-25649Y23878D01*
X-25649Y23967D01*
X-25604Y24056D01*
X-25468Y24056D01*
X-25468Y23789D02*
X-25604Y24056D01*
X-25300Y22967D02*
X-25300Y24633D01*
X-24300Y24633D02*
X-24300Y22967D01*
X-25300Y24633D02*
X-24300Y24633D01*
X-24800Y23967D02*
X-24800Y24016D01*
X-24300Y22967D02*
X-25300Y22967D01*
X-24550Y23883D02*
X-25050Y23883D01*
X-24550Y23967D02*
X-25050Y23967D01*
X-24550Y23933D02*
X-25050Y23933D01*
X-25050Y23633D02*
X-24550Y23633D01*
X-25050Y23717D02*
X-24550Y23717D01*
X-24550Y23683D02*
X-25050Y23683D01*
X-24800Y23633D02*
X-24800Y23593D01*
X-26806Y11936D02*
X-26895Y11891D01*
X-26984Y11891D01*
X-27073Y11936D01*
X-27073Y12072D01*
X-26984Y12117D01*
X-26895Y12117D01*
X-26806Y12072D01*
X-26673Y12072D02*
X-26584Y12117D01*
X-26495Y12117D01*
X-26406Y12072D01*
X-26406Y12050D01*
X-26673Y11891D01*
X-26406Y11891D01*
X-26406Y11914D01*
X-27651Y13240D02*
X-25984Y13240D01*
X-25984Y12240D02*
X-27651Y12240D01*
X-25984Y13240D02*
X-25984Y12240D01*
X-26651Y12740D02*
X-26601Y12740D01*
X-27651Y12240D02*
X-27651Y13240D01*
X-26734Y12490D02*
X-26734Y12990D01*
X-26651Y12490D02*
X-26651Y12990D01*
X-26684Y12490D02*
X-26684Y12990D01*
X-26984Y12990D02*
X-26984Y12490D01*
X-26901Y12990D02*
X-26901Y12490D01*
X-26934Y12490D02*
X-26934Y12990D01*
X-26984Y12740D02*
X-27024Y12740D01*
X-26818Y14290D02*
X-27684Y14290D01*
X-27674Y14093D02*
X-26828Y14093D01*
X-26818Y14093D02*
X-26818Y14290D01*
X-27684Y14290D02*
X-27684Y14093D01*
X-26728Y16544D02*
X-26639Y16589D01*
X-26551Y16589D01*
X-26462Y16544D01*
X-26462Y16408D01*
X-26551Y16363D01*
X-26639Y16363D01*
X-26728Y16408D01*
X-26906Y16408D02*
X-26995Y16363D01*
X-26995Y16589D01*
X-26862Y16589D02*
X-27128Y16589D01*
X-25984Y15240D02*
X-27651Y15240D01*
X-27651Y16240D02*
X-25984Y16240D01*
X-27651Y15240D02*
X-27651Y16240D01*
X-26984Y15740D02*
X-27033Y15740D01*
X-25984Y16240D02*
X-25984Y15240D01*
X-26901Y15990D02*
X-26901Y15490D01*
X-26984Y15990D02*
X-26984Y15490D01*
X-26951Y15990D02*
X-26951Y15490D01*
X-26651Y15490D02*
X-26651Y15990D01*
X-26734Y15490D02*
X-26734Y15990D01*
X-26701Y15990D02*
X-26701Y15490D01*
X-26651Y15740D02*
X-26610Y15740D01*
X-26089Y22596D02*
X-26178Y22551D01*
X-26267Y22551D01*
X-26356Y22596D01*
X-26356Y22732D01*
X-26267Y22777D01*
X-26178Y22777D01*
X-26089Y22732D01*
X-25733Y22777D02*
X-25867Y22777D01*
X-25956Y22732D01*
X-25956Y22642D01*
X-25956Y22596D01*
X-25867Y22551D01*
X-25778Y22551D01*
X-25689Y22596D01*
X-25689Y22642D01*
X-25778Y22687D01*
X-25867Y22687D01*
X-25956Y22642D01*
X-25500Y24633D02*
X-25500Y22967D01*
X-26500Y22967D02*
X-26500Y24633D01*
X-25500Y22967D02*
X-26500Y22967D01*
X-26000Y23633D02*
X-26000Y23584D01*
X-26500Y24633D02*
X-25500Y24633D01*
X-26250Y23717D02*
X-25750Y23717D01*
X-26250Y23633D02*
X-25750Y23633D01*
X-26250Y23667D02*
X-25750Y23667D01*
X-25750Y23967D02*
X-26250Y23967D01*
X-25750Y23883D02*
X-26250Y23883D01*
X-26250Y23917D02*
X-25750Y23917D01*
X-26000Y23967D02*
X-26000Y24007D01*
X-25470Y12266D02*
X-25470Y11872D01*
X-25627Y11872D01*
X-25705Y11951D01*
X-25705Y11990D01*
X-25627Y12069D01*
X-25470Y12069D01*
X-25509Y12069D02*
X-25705Y12266D01*
X-25862Y11951D02*
X-25940Y11872D01*
X-25940Y12266D01*
X-25823Y12266D02*
X-26058Y12266D01*
X-27433Y11700D02*
X-25767Y11700D01*
X-25767Y10700D02*
X-27433Y10700D01*
X-25767Y11700D02*
X-25767Y10700D01*
X-27433Y10700D02*
X-27433Y11700D01*
X-18070Y19866D02*
X-18070Y19472D01*
X-18227Y19472D01*
X-18305Y19551D01*
X-18305Y19590D01*
X-18227Y19669D01*
X-18070Y19669D01*
X-18109Y19669D02*
X-18305Y19866D01*
X-18462Y19511D02*
X-18501Y19472D01*
X-18579Y19472D01*
X-18658Y19551D01*
X-18658Y19630D01*
X-18618Y19669D01*
X-18658Y19708D01*
X-18658Y19787D01*
X-18579Y19866D01*
X-18501Y19866D01*
X-18462Y19826D01*
X-18501Y19669D02*
X-18618Y19669D01*
X-19833Y19300D02*
X-18167Y19300D01*
X-18167Y18300D02*
X-19833Y18300D01*
X-18167Y19300D02*
X-18167Y18300D01*
X-19833Y18300D02*
X-19833Y19300D01*
X-26861Y21367D02*
X-26861Y21761D01*
X-26704Y21761D01*
X-26626Y21682D01*
X-26626Y21643D01*
X-26704Y21564D01*
X-26861Y21564D01*
X-26822Y21564D02*
X-26626Y21367D01*
X-26312Y21761D02*
X-26430Y21761D01*
X-26508Y21682D01*
X-26508Y21524D01*
X-26508Y21446D01*
X-26430Y21367D01*
X-26351Y21367D01*
X-26273Y21446D01*
X-26273Y21524D01*
X-26351Y21603D01*
X-26430Y21603D01*
X-26508Y21524D01*
X-27100Y19567D02*
X-27100Y21233D01*
X-26100Y21233D02*
X-26100Y19567D01*
X-27100Y21233D02*
X-26100Y21233D01*
X-26100Y19567D02*
X-27100Y19567D01*
X-25289Y18096D02*
X-25378Y18051D01*
X-25467Y18051D01*
X-25556Y18096D01*
X-25556Y18232D01*
X-25467Y18277D01*
X-25378Y18277D01*
X-25289Y18232D01*
X-25156Y18096D02*
X-25067Y18051D01*
X-24978Y18051D01*
X-24889Y18096D01*
X-24889Y18187D01*
X-24889Y18232D01*
X-24978Y18277D01*
X-25067Y18277D01*
X-25156Y18232D01*
X-25156Y18187D01*
X-25067Y18142D01*
X-24978Y18142D01*
X-24889Y18187D01*
X-25700Y19033D02*
X-25700Y17367D01*
X-26700Y17367D02*
X-26700Y19033D01*
X-25700Y17367D02*
X-26700Y17367D01*
X-26200Y18033D02*
X-26200Y17984D01*
X-26700Y19033D02*
X-25700Y19033D01*
X-26450Y18117D02*
X-25950Y18117D01*
X-26450Y18033D02*
X-25950Y18033D01*
X-26450Y18067D02*
X-25950Y18067D01*
X-25950Y18367D02*
X-26450Y18367D01*
X-25950Y18283D02*
X-26450Y18283D01*
X-26450Y18317D02*
X-25950Y18317D01*
X-26200Y18367D02*
X-26200Y18407D01*
X-27574Y19043D02*
X-27574Y16957D01*
X-26826Y16957D01*
X-26826Y19043D01*
X-27574Y19043D01*
X-25328Y18150D02*
X-25328Y11850D01*
X-16272Y11850D01*
X-16272Y18150D01*
X-25328Y18150D01*
X-20233Y19061D02*
X-19839Y19061D01*
X-19839Y18904D01*
X-19918Y18826D01*
X-19957Y18826D01*
X-20036Y18904D01*
X-20036Y19061D01*
X-20036Y19022D02*
X-20233Y18826D01*
X-19839Y18473D02*
X-19839Y18708D01*
X-19997Y18708D01*
X-19997Y18551D01*
X-20076Y18473D01*
X-20154Y18473D01*
X-20233Y18551D01*
X-20233Y18708D01*
X-22033Y19300D02*
X-20367Y19300D01*
X-20367Y18300D02*
X-22033Y18300D01*
X-20367Y19300D02*
X-20367Y18300D01*
X-22033Y18300D02*
X-22033Y19300D01*
X-27661Y23967D02*
X-27661Y24361D01*
X-27504Y24361D01*
X-27426Y24282D01*
X-27426Y24243D01*
X-27504Y24164D01*
X-27661Y24164D01*
X-27622Y24164D02*
X-27426Y23967D01*
X-27269Y24282D02*
X-27191Y24361D01*
X-27191Y23967D01*
X-27308Y23967D02*
X-27073Y23967D01*
X-26955Y24282D02*
X-26877Y24361D01*
X-26799Y24361D01*
X-26720Y24282D01*
X-26720Y24046D01*
X-26799Y23967D01*
X-26877Y23967D01*
X-26955Y24046D01*
X-26955Y24282D01*
X-26720Y24282D02*
X-26955Y24046D01*
X-27700Y22167D02*
X-27700Y23833D01*
X-26700Y23833D02*
X-26700Y22167D01*
X-27700Y23833D02*
X-26700Y23833D01*
X-26700Y22167D02*
X-27700Y22167D01*
X-19270Y23866D02*
X-19270Y23472D01*
X-19427Y23472D01*
X-19505Y23551D01*
X-19505Y23590D01*
X-19427Y23669D01*
X-19270Y23669D01*
X-19309Y23669D02*
X-19505Y23866D01*
X-19623Y23551D02*
X-19701Y23472D01*
X-19779Y23472D01*
X-19858Y23551D01*
X-19858Y23590D01*
X-19623Y23866D01*
X-19858Y23866D01*
X-19858Y23826D01*
X-21033Y23300D02*
X-19367Y23300D01*
X-19367Y22300D02*
X-21033Y22300D01*
X-19367Y23300D02*
X-19367Y22300D01*
X-21033Y22300D02*
X-21033Y23300D01*
X-18184Y23614D02*
X-18096Y23659D01*
X-18007Y23659D01*
X-17918Y23614D01*
X-17918Y23478D01*
X-18007Y23433D01*
X-18096Y23433D01*
X-18184Y23478D01*
X-18451Y23659D02*
X-18451Y23546D01*
X-18584Y23478D01*
X-18584Y23433D01*
X-18318Y23433D01*
X-18318Y23478D01*
X-17340Y22210D02*
X-19007Y22210D01*
X-19007Y23210D02*
X-17340Y23210D01*
X-19007Y22210D02*
X-19007Y23210D01*
X-18340Y22710D02*
X-18389Y22710D01*
X-17340Y23210D02*
X-17340Y22210D01*
X-18257Y22960D02*
X-18257Y22460D01*
X-18340Y22960D02*
X-18340Y22460D01*
X-18307Y22960D02*
X-18307Y22460D01*
X-18007Y22460D02*
X-18007Y22960D01*
X-18090Y22460D02*
X-18090Y22960D01*
X-18057Y22960D02*
X-18057Y22460D01*
X-18007Y22710D02*
X-17966Y22710D01*
X-17623Y19540D02*
X-17623Y19778D01*
X-17723Y19837D01*
X-17823Y19837D01*
X-17923Y19778D01*
X-17923Y19540D01*
X-18123Y19599D02*
X-18223Y19540D01*
X-18223Y19837D01*
X-18073Y19837D02*
X-18373Y19837D01*
X-18523Y19599D02*
X-18623Y19540D01*
X-18723Y19540D01*
X-18823Y19599D01*
X-18823Y19778D01*
X-18723Y19837D01*
X-18623Y19837D01*
X-18523Y19778D01*
X-18523Y19599D01*
X-18823Y19599D02*
X-18523Y19778D01*
X-18840Y19910D02*
X-18840Y21910D01*
X-17507Y21910D02*
X-17507Y19910D01*
X-18773Y21643D02*
X-18507Y21643D01*
X-18573Y21710D01*
X-18423Y21910D02*
X-18422Y21888D01*
X-18420Y21867D01*
X-18415Y21845D01*
X-18408Y21824D01*
X-18400Y21804D01*
X-18390Y21785D01*
X-18378Y21767D01*
X-18365Y21749D01*
X-18350Y21733D01*
X-18334Y21718D01*
X-18317Y21705D01*
X-18298Y21693D01*
X-18279Y21683D01*
X-18259Y21675D01*
X-18238Y21669D01*
X-18217Y21664D01*
X-18195Y21661D01*
X-18173Y21660D01*
X-18152Y21661D01*
X-18130Y21664D01*
X-18109Y21669D01*
X-18088Y21675D01*
X-18068Y21683D01*
X-18048Y21693D01*
X-18030Y21705D01*
X-18013Y21718D01*
X-17997Y21733D01*
X-17982Y21749D01*
X-17969Y21767D01*
X-17957Y21785D01*
X-17947Y21804D01*
X-17938Y21824D01*
X-17932Y21845D01*
X-17927Y21867D01*
X-17924Y21888D01*
X-17923Y21910D01*
X-17773Y21577D02*
X-17768Y21577D01*
X-17762Y21578D01*
X-17756Y21579D01*
X-17751Y21581D01*
X-17745Y21583D01*
X-17740Y21586D01*
X-17735Y21589D01*
X-17730Y21592D01*
X-17726Y21596D01*
X-17722Y21600D01*
X-17719Y21605D01*
X-17716Y21610D01*
X-17713Y21615D01*
X-17711Y21621D01*
X-17709Y21626D01*
X-17708Y21632D01*
X-17707Y21638D01*
X-17707Y21643D01*
X-17707Y21649D01*
X-17708Y21655D01*
X-17709Y21661D01*
X-17711Y21666D01*
X-17713Y21672D01*
X-17716Y21677D01*
X-17719Y21682D01*
X-17722Y21686D01*
X-17726Y21690D01*
X-17730Y21694D01*
X-17735Y21698D01*
X-17740Y21701D01*
X-17745Y21704D01*
X-17751Y21706D01*
X-17756Y21708D01*
X-17762Y21709D01*
X-17768Y21710D01*
X-17773Y21710D01*
X-17779Y21710D01*
X-17785Y21709D01*
X-17791Y21708D01*
X-17796Y21706D01*
X-17801Y21704D01*
X-17807Y21701D01*
X-17812Y21698D01*
X-17816Y21694D01*
X-17820Y21690D01*
X-17824Y21686D01*
X-17828Y21682D01*
X-17831Y21677D01*
X-17834Y21672D01*
X-17836Y21666D01*
X-17838Y21661D01*
X-17839Y21655D01*
X-17840Y21649D01*
X-17840Y21643D01*
X-17840Y21638D01*
X-17839Y21632D01*
X-17838Y21626D01*
X-17836Y21621D01*
X-17834Y21615D01*
X-17831Y21610D01*
X-17828Y21605D01*
X-17824Y21600D01*
X-17820Y21596D01*
X-17816Y21592D01*
X-17812Y21589D01*
X-17807Y21586D01*
X-17801Y21583D01*
X-17796Y21581D01*
X-17791Y21579D01*
X-17785Y21578D01*
X-17779Y21577D01*
X-17773Y21577D01*
X-17640Y21577D02*
X-17634Y21577D01*
X-17628Y21578D01*
X-17623Y21579D01*
X-17617Y21581D01*
X-17612Y21583D01*
X-17607Y21586D01*
X-17602Y21589D01*
X-17597Y21592D01*
X-17593Y21596D01*
X-17589Y21600D01*
X-17585Y21605D01*
X-17582Y21610D01*
X-17580Y21615D01*
X-17577Y21621D01*
X-17576Y21626D01*
X-17574Y21632D01*
X-17574Y21638D01*
X-17573Y21643D01*
X-17574Y21649D01*
X-17574Y21655D01*
X-17576Y21661D01*
X-17577Y21666D01*
X-17580Y21672D01*
X-17582Y21677D01*
X-17585Y21682D01*
X-17589Y21686D01*
X-17593Y21690D01*
X-17597Y21694D01*
X-17602Y21698D01*
X-17607Y21701D01*
X-17612Y21704D01*
X-17617Y21706D01*
X-17623Y21708D01*
X-17628Y21709D01*
X-17634Y21710D01*
X-17640Y21710D01*
X-17646Y21710D01*
X-17652Y21709D01*
X-17657Y21708D01*
X-17663Y21706D01*
X-17668Y21704D01*
X-17673Y21701D01*
X-17678Y21698D01*
X-17683Y21694D01*
X-17687Y21690D01*
X-17691Y21686D01*
X-17695Y21682D01*
X-17698Y21677D01*
X-17700Y21672D01*
X-17703Y21666D01*
X-17704Y21661D01*
X-17706Y21655D01*
X-17706Y21649D01*
X-17707Y21643D01*
X-17706Y21638D01*
X-17706Y21632D01*
X-17704Y21626D01*
X-17703Y21621D01*
X-17700Y21615D01*
X-17698Y21610D01*
X-17695Y21605D01*
X-17691Y21600D01*
X-17687Y21596D01*
X-17683Y21592D01*
X-17678Y21589D01*
X-17673Y21586D01*
X-17668Y21583D01*
X-17663Y21581D01*
X-17657Y21579D01*
X-17652Y21578D01*
X-17646Y21577D01*
X-17640Y21577D01*
X-17923Y21910D02*
X-17507Y21910D01*
X-18840Y21910D02*
X-18423Y21910D01*
X-18707Y20110D02*
X-18707Y20243D01*
X-17573Y20243D02*
X-17573Y20110D01*
X-17840Y20177D02*
X-17840Y20171D01*
X-17839Y20165D01*
X-17838Y20159D01*
X-17836Y20154D01*
X-17834Y20148D01*
X-17831Y20143D01*
X-17828Y20138D01*
X-17824Y20134D01*
X-17820Y20130D01*
X-17816Y20126D01*
X-17812Y20122D01*
X-17807Y20119D01*
X-17801Y20116D01*
X-17796Y20114D01*
X-17791Y20112D01*
X-17785Y20111D01*
X-17779Y20110D01*
X-17773Y20110D01*
X-17768Y20110D01*
X-17762Y20111D01*
X-17756Y20112D01*
X-17751Y20114D01*
X-17745Y20116D01*
X-17740Y20119D01*
X-17735Y20122D01*
X-17730Y20126D01*
X-17726Y20130D01*
X-17722Y20134D01*
X-17719Y20138D01*
X-17716Y20143D01*
X-17713Y20148D01*
X-17711Y20154D01*
X-17709Y20159D01*
X-17708Y20165D01*
X-17707Y20171D01*
X-17707Y20177D01*
X-17707Y20243D02*
X-17707Y20177D01*
X-17707Y20243D02*
X-17573Y20243D01*
X-18773Y20177D02*
X-18640Y20177D01*
X-18707Y20243D02*
X-18640Y20243D01*
X-18507Y20177D01*
X-17840Y20243D02*
X-17840Y20177D01*
X-17507Y19910D02*
X-18840Y19910D01*
G54D12*
X-26178Y15274D02*
X-25784Y15274D01*
X-25784Y15509D01*
X-26099Y15666D02*
X-26178Y15744D01*
X-25784Y15744D01*
X-25784Y15626D02*
X-25784Y15862D01*
X-28778Y13326D02*
X-28464Y13326D01*
X-28385Y13404D01*
X-28385Y13483D01*
X-28464Y13561D01*
X-28778Y13561D01*
X-28778Y13874D02*
X-28778Y13756D01*
X-28699Y13678D01*
X-28542Y13678D01*
X-28464Y13678D01*
X-28385Y13756D01*
X-28385Y13835D01*
X-28464Y13913D01*
X-28542Y13913D01*
X-28621Y13835D01*
X-28621Y13756D01*
X-28542Y13678D01*
X-21945Y20914D02*
X-21945Y20757D01*
X-21866Y20678D01*
X-21630Y20678D01*
X-21551Y20757D01*
X-21551Y20914D01*
X-21551Y20874D02*
X-21945Y20874D01*
X-21630Y20522D02*
X-21551Y20443D01*
X-21945Y20443D01*
X-21945Y20561D02*
X-21945Y20326D01*
G54D13*
X-25525Y14023D02*
X-25525Y14457D01*
X-26509Y14023D02*
X-26509Y14457D01*
X-26509Y14023D02*
X-26509Y14457D01*
X-22954Y21446D02*
X-24646Y21446D01*
X-24646Y19754D01*
X-22954Y19754D01*
X-22954Y21446D01*
X-21335Y20876D02*
X-21335Y20324D01*
X-20665Y20876D02*
X-20665Y20324D01*
X-21335Y20876D02*
X-20665Y20876D01*
X-21335Y20797D02*
X-20665Y20797D01*
X-21335Y20718D02*
X-20665Y20718D01*
G54D14*
X-21049Y21683D02*
G75*
D01*
G02X-21049Y21683I49J0*
G01*
G54D15*
X-27842Y13665D03*
X-22811Y22058D03*
G54D16*
X-23260Y21162D03*

M02*
