G04 Generated by Ultiboard 13.0 *
%FSLAX24Y24*%
%MOIN*%

%ADD10C,0.0001*%
%ADD11C,0.0120*%
%ADD12C,0.0100*%
%ADD13C,0.0735*%
%ADD14C,0.0394*%


G04 ColorRGB 0000FF for the following layer *
%LNCopper Bottom*%
%LPD*%
G54D10*
G54D11*
X-25250Y22750D02*
X-26583Y22750D01*
X-26750Y22917D01*
X-26750Y24250D01*
X-21417Y11917D02*
X-21750Y11917D01*
X-21917Y11750D01*
X-21917Y9750D01*
X-22583Y24417D02*
X-26583Y24417D01*
X-26750Y24250D01*
G54D12*
X-20083Y21417D02*
X-20083Y22083D01*
X-22900Y9400D02*
X-23083Y9583D01*
X-25917Y9583D01*
X-26083Y9750D01*
X-26083Y12500D01*
X-26000Y12583D01*
X-25750Y12583D01*
X-20917Y22083D02*
X-20917Y20250D01*
X-21083Y20083D01*
X-23417Y20083D01*
X-20900Y9400D02*
X-20900Y8933D01*
X-20917Y8917D01*
X-20917Y7750D01*
X-20900Y7733D01*
X-20900Y7400D01*
X-22583Y22917D02*
X-22750Y22750D01*
X-22750Y22250D01*
X-18417Y16417D02*
X-18417Y21083D01*
X-18583Y21250D01*
X-19917Y21250D01*
X-20083Y21417D01*
X-24750Y10583D02*
X-25583Y10583D01*
X-25750Y10750D01*
X-25750Y11917D01*
X-18750Y17250D02*
X-18750Y19750D01*
X-18917Y19917D01*
X-19833Y19917D01*
X-19917Y19917D01*
X-19917Y19833D01*
X-20083Y19750D01*
X-23750Y19750D01*
X-23917Y19917D01*
X-23917Y20417D01*
X-19583Y19583D02*
X-19583Y19333D01*
X-19667Y19250D01*
X-24917Y19250D01*
X-23917Y20917D02*
X-25083Y20917D01*
X-25250Y20750D01*
X-25250Y12250D01*
X-25417Y12083D01*
X-25583Y12083D01*
X-25750Y11917D01*
G54D13*
X-21900Y8400D03*
X-20900Y9400D03*
X-22900Y9400D03*
X-20900Y7400D03*
X-22900Y7400D03*
G54D14*
X-25750Y12583D03*
X-22583Y22917D03*
X-22750Y22250D03*
X-20917Y22083D03*
X-23417Y20083D03*
X-18750Y17250D03*
X-23917Y20417D03*
X-22583Y24417D03*
X-25250Y22750D03*
X-26750Y24250D03*
X-21417Y11917D03*
X-21917Y9750D03*
X-23917Y20917D03*
X-24750Y10583D03*
X-25750Y11917D03*
X-18417Y16417D03*
X-20083Y21417D03*
X-20083Y22083D03*
X-19583Y19583D03*
X-24917Y19250D03*

M02*
